<?xml version="1.0" encoding="UTF-8" standalone="no"?><svg xmlns="http://www.w3.org/2000/svg" xmlns:xlink="http://www.w3.org/1999/xlink" contentScriptType="application/ecmascript" contentStyleType="text/css" height="1113.6px" preserveAspectRatio="none" style="width:2042px;height:1113px;" version="1.1" viewBox="0 0 2042 1113" width="2042.4px" zoomAndPan="magnify"><defs><filter height="300%" id="ftuzg4h1qc1k6" width="300%" x="-1" y="-1"><feGaussianBlur result="blurOut" stdDeviation="2.4"/><feColorMatrix in="blurOut" result="blurOut2" type="matrix" values="0 0 0 0 0 0 0 0 0 0 0 0 0 0 0 0 0 0 .4 0"/><feOffset dx="4.8" dy="4.8" in="blurOut2" result="blurOut3"/><feBlend in="SourceGraphic" in2="blurOut3" mode="normal"/></filter></defs><g><!--MD5=[a183b061d5e38c83d60ebfc041e92c2d]
class CriarEntregaUI--><rect codeLine="3" fill="#FEFECE" filter="url(#ftuzg4h1qc1k6)" height="57.6" id="CriarEntregaUI" style="stroke:#A80036;stroke-width:1.7999999999999998;" width="136.8" x="8.4" y="524.4"/><ellipse cx="26.4" cy="543.6" fill="#ADD1B2" rx="13.2" ry="13.2" style="stroke:#A80036;stroke-width:1.2;"/><path d="M28.8,539.4 Q29.0438,538.8 29.325,538.5 Q29.6063,538.2 29.925,538.2 Q30.4875,538.2 30.8438,538.5375 Q31.2,538.875 31.2,539.6625 L31.2,541.5375 Q31.2,542.325 30.8625,542.6625 Q30.525,543 30,543 Q29.5313,543 29.2313,542.7937 Q28.9313,542.5875 28.8,542.0437 Q28.7438,541.6687 28.5375,541.4625 Q28.1625,541.0688 27.4875,540.8438 Q26.8125,540.6 26.1375,540.6 Q25.2938,540.6 24.5813,540.9375 Q23.8875,541.275 23.3438,542.025 Q22.8,542.775 22.8,543.8063 L22.8,544.9125 Q22.8,546.15 23.8125,546.975 Q24.825,547.8 26.625,547.8 Q27.6937,547.8 28.4437,547.5563 Q28.875,547.425 29.3625,546.9938 Q29.6813,546.75 29.85,546.675 Q30.0187,546.6 30.225,546.6 Q30.6188,546.6 30.9,546.9187 Q31.2,547.2188 31.2,547.65 Q31.2,548.0625 30.7875,548.55 Q30.1875,549.2625 29.2313,549.6563 Q27.975,550.2 26.4375,550.2 Q24.6375,550.2 23.1937,549.4875 Q22.0313,548.925 21.2063,547.7063 Q20.4,546.4875 20.4,545.0437 L20.4,543.7312 Q20.4,542.2312 21.1125,540.9187 Q21.8438,539.6062 23.1,538.9125 Q24.375,538.2 25.8,538.2 Q26.6625,538.2 27.4125,538.5 Q28.1625,538.8 28.8,539.4 Z " fill="#000000"/><text fill="#000000" font-family="sans-serif" font-size="14.4" lengthAdjust="spacingAndGlyphs" textLength="98.4" x="43.2" y="549.4922">CriarEntregaUI</text><line style="stroke:#A80036;stroke-width:1.7999999999999998;" x1="9.6" x2="144" y1="562.8" y2="562.8"/><line style="stroke:#A80036;stroke-width:1.7999999999999998;" x1="9.6" x2="144" y1="572.4" y2="572.4"/><!--MD5=[f7f1d9b7ec4914a25adb1afb5807d035]
class CriarEntregaController--><rect codeLine="5" fill="#FEFECE" filter="url(#ftuzg4h1qc1k6)" height="140.6156" id="CriarEntregaController" style="stroke:#A80036;stroke-width:1.7999999999999998;" width="504" x="217.2" y="483"/><ellipse cx="389.7" cy="502.2" fill="#ADD1B2" rx="13.2" ry="13.2" style="stroke:#A80036;stroke-width:1.2;"/><path d="M392.1,498 Q392.3438,497.4 392.625,497.1 Q392.9063,496.8 393.225,496.8 Q393.7875,496.8 394.1438,497.1375 Q394.5,497.475 394.5,498.2625 L394.5,500.1375 Q394.5,500.925 394.1625,501.2625 Q393.825,501.6 393.3,501.6 Q392.8313,501.6 392.5313,501.3937 Q392.2313,501.1875 392.1,500.6437 Q392.0438,500.2687 391.8375,500.0625 Q391.4625,499.6688 390.7875,499.4437 Q390.1125,499.2 389.4375,499.2 Q388.5938,499.2 387.8812,499.5375 Q387.1875,499.875 386.6438,500.625 Q386.1,501.375 386.1,502.4063 L386.1,503.5125 Q386.1,504.75 387.1125,505.575 Q388.125,506.4 389.925,506.4 Q390.9938,506.4 391.7438,506.1563 Q392.175,506.025 392.6625,505.5938 Q392.9813,505.35 393.15,505.275 Q393.3187,505.2 393.525,505.2 Q393.9188,505.2 394.2,505.5187 Q394.5,505.8187 394.5,506.25 Q394.5,506.6625 394.0875,507.15 Q393.4875,507.8625 392.5313,508.2562 Q391.275,508.8 389.7375,508.8 Q387.9375,508.8 386.4938,508.0875 Q385.3313,507.525 384.5062,506.3063 Q383.7,505.0875 383.7,503.6437 L383.7,502.3312 Q383.7,500.8312 384.4125,499.5187 Q385.1438,498.2062 386.4,497.5125 Q387.675,496.8 389.1,496.8 Q389.9625,496.8 390.7125,497.1 Q391.4625,497.4 392.1,498 Z " fill="#000000"/><text fill="#000000" font-family="sans-serif" font-size="14.4" lengthAdjust="spacingAndGlyphs" textLength="148.8" x="414.3" y="508.0922">CriarEntregaController</text><line style="stroke:#A80036;stroke-width:1.7999999999999998;" x1="218.4" x2="720" y1="521.4" y2="521.4"/><line style="stroke:#A80036;stroke-width:1.7999999999999998;" x1="218.4" x2="720" y1="531" y2="531"/><ellipse cx="230.4" cy="544.2" fill="#84BE84" rx="3.6" ry="3.6" style="stroke:#038048;stroke-width:1.2;"/><text fill="#000000" font-family="sans-serif" font-size="13.2" lengthAdjust="spacingAndGlyphs" textLength="207.6" x="241.2" y="549.5027">List&lt;Encomenda&gt; getEncomendas()</text><ellipse cx="230.4" cy="560.8031" fill="#84BE84" rx="3.6" ry="3.6" style="stroke:#038048;stroke-width:1.2;"/><text fill="#000000" font-family="sans-serif" font-size="13.2" lengthAdjust="spacingAndGlyphs" textLength="472.8" x="241.2" y="566.1059">Pair&lt;Veiculo,Double&gt; validaDados(List&lt;Integer&gt; encomendas, boolean estimativa)</text><ellipse cx="230.4" cy="577.4063" fill="#84BE84" rx="3.6" ry="3.6" style="stroke:#038048;stroke-width:1.2;"/><text fill="#000000" font-family="sans-serif" font-size="13.2" lengthAdjust="spacingAndGlyphs" textLength="159.6" x="241.2" y="582.709">double calcularCargaTotal()</text><ellipse cx="230.4" cy="594.0094" fill="#84BE84" rx="3.6" ry="3.6" style="stroke:#038048;stroke-width:1.2;"/><text fill="#000000" font-family="sans-serif" font-size="13.2" lengthAdjust="spacingAndGlyphs" textLength="194.4" x="241.2" y="599.3121">List&lt;Drone&gt; getDronesCapazes()</text><ellipse cx="230.4" cy="610.6125" fill="#84BE84" rx="3.6" ry="3.6" style="stroke:#038048;stroke-width:1.2;"/><text fill="#000000" font-family="sans-serif" font-size="13.2" lengthAdjust="spacingAndGlyphs" textLength="193.2" x="241.2" y="615.9152">Veiculo getVeiculoMaisEficiente()</text><!--MD5=[380d12a68ed0046a60f31008a02875d0]
class AplicacaoPOT--><rect codeLine="13" fill="#FEFECE" filter="url(#ftuzg4h1qc1k6)" height="90.8062" id="AplicacaoPOT" style="stroke:#A80036;stroke-width:1.7999999999999998;" width="234" x="1188" y="8.4"/><ellipse cx="1253.7" cy="27.6" fill="#ADD1B2" rx="13.2" ry="13.2" style="stroke:#A80036;stroke-width:1.2;"/><path d="M1256.1,23.4 Q1256.3438,22.8 1256.625,22.5 Q1256.9063,22.2 1257.225,22.2 Q1257.7875,22.2 1258.1438,22.5375 Q1258.5,22.875 1258.5,23.6625 L1258.5,25.5375 Q1258.5,26.325 1258.1625,26.6625 Q1257.825,27 1257.3,27 Q1256.8313,27 1256.5313,26.7938 Q1256.2313,26.5875 1256.1,26.0438 Q1256.0438,25.6688 1255.8375,25.4625 Q1255.4625,25.0687 1254.7875,24.8438 Q1254.1125,24.6 1253.4375,24.6 Q1252.5938,24.6 1251.8813,24.9375 Q1251.1875,25.275 1250.6438,26.025 Q1250.1,26.775 1250.1,27.8063 L1250.1,28.9125 Q1250.1,30.15 1251.1125,30.975 Q1252.125,31.8 1253.925,31.8 Q1254.9937,31.8 1255.7437,31.5563 Q1256.175,31.425 1256.6625,30.9938 Q1256.9813,30.75 1257.15,30.675 Q1257.3188,30.6 1257.525,30.6 Q1257.9188,30.6 1258.2,30.9188 Q1258.5,31.2188 1258.5,31.65 Q1258.5,32.0625 1258.0875,32.55 Q1257.4875,33.2625 1256.5313,33.6563 Q1255.275,34.2 1253.7375,34.2 Q1251.9375,34.2 1250.4937,33.4875 Q1249.3313,32.925 1248.5063,31.7062 Q1247.7,30.4875 1247.7,29.0438 L1247.7,27.7313 Q1247.7,26.2313 1248.4125,24.9188 Q1249.1438,23.6063 1250.4,22.9125 Q1251.675,22.2 1253.1,22.2 Q1253.9625,22.2 1254.7125,22.5 Q1255.4625,22.8 1256.1,23.4 Z " fill="#000000"/><text fill="#000000" font-family="sans-serif" font-size="14.4" lengthAdjust="spacingAndGlyphs" textLength="92.4" x="1278.3" y="33.4922">AplicacaoPOT</text><line style="stroke:#A80036;stroke-width:1.7999999999999998;" x1="1189.2" x2="1420.8" y1="46.8" y2="46.8"/><line style="stroke:#A80036;stroke-width:1.7999999999999998;" x1="1189.2" x2="1420.8" y1="56.4" y2="56.4"/><ellipse cx="1201.2" cy="69.6" fill="#84BE84" rx="3.6" ry="3.6" style="stroke:#038048;stroke-width:1.2;"/><text fill="#000000" font-family="sans-serif" font-size="13.2" lengthAdjust="spacingAndGlyphs" textLength="76.8" x="1212" y="74.9027">getInstance()</text><ellipse cx="1201.2" cy="86.2031" fill="#84BE84" rx="3.6" ry="3.6" style="stroke:#038048;stroke-width:1.2;"/><text fill="#000000" font-family="sans-serif" font-size="13.2" lengthAdjust="spacingAndGlyphs" textLength="202.8" x="1212" y="91.5059">SessaoUtilizador getSessaoAtual()</text><!--MD5=[1e13576e8c070e32200b62ceaa1f39ec]
class SessaoUtilizador--><rect codeLine="18" fill="#FEFECE" filter="url(#ftuzg4h1qc1k6)" height="74.2031" id="SessaoUtilizador" style="stroke:#A80036;stroke-width:1.7999999999999998;" width="177.6" x="1216.2" y="141.6"/><ellipse cx="1246.08" cy="160.8" fill="#ADD1B2" rx="13.2" ry="13.2" style="stroke:#A80036;stroke-width:1.2;"/><path d="M1248.48,156.6 Q1248.7238,156 1249.005,155.7 Q1249.2863,155.4 1249.605,155.4 Q1250.1675,155.4 1250.5238,155.7375 Q1250.88,156.075 1250.88,156.8625 L1250.88,158.7375 Q1250.88,159.525 1250.5425,159.8625 Q1250.205,160.2 1249.68,160.2 Q1249.2113,160.2 1248.9113,159.9938 Q1248.6113,159.7875 1248.48,159.2438 Q1248.4238,158.8688 1248.2175,158.6625 Q1247.8425,158.2687 1247.1675,158.0438 Q1246.4925,157.8 1245.8175,157.8 Q1244.9738,157.8 1244.2613,158.1375 Q1243.5675,158.475 1243.0238,159.225 Q1242.48,159.975 1242.48,161.0063 L1242.48,162.1125 Q1242.48,163.35 1243.4925,164.175 Q1244.505,165 1246.305,165 Q1247.3738,165 1248.1238,164.7563 Q1248.555,164.625 1249.0425,164.1938 Q1249.3613,163.95 1249.53,163.875 Q1249.6988,163.8 1249.905,163.8 Q1250.2988,163.8 1250.58,164.1188 Q1250.88,164.4188 1250.88,164.85 Q1250.88,165.2625 1250.4675,165.75 Q1249.8675,166.4625 1248.9113,166.8563 Q1247.655,167.4 1246.1175,167.4 Q1244.3175,167.4 1242.8738,166.6875 Q1241.7113,166.125 1240.8863,164.9063 Q1240.08,163.6875 1240.08,162.2438 L1240.08,160.9313 Q1240.08,159.4313 1240.7925,158.1188 Q1241.5238,156.8063 1242.78,156.1125 Q1244.055,155.4 1245.48,155.4 Q1246.3425,155.4 1247.0925,155.7 Q1247.8425,156 1248.48,156.6 Z " fill="#000000"/><text fill="#000000" font-family="sans-serif" font-size="14.4" lengthAdjust="spacingAndGlyphs" textLength="112.8" x="1265.52" y="166.6922">SessaoUtilizador</text><line style="stroke:#A80036;stroke-width:1.7999999999999998;" x1="1217.4" x2="1392.6" y1="180" y2="180"/><line style="stroke:#A80036;stroke-width:1.7999999999999998;" x1="1217.4" x2="1392.6" y1="189.6" y2="189.6"/><ellipse cx="1229.4" cy="202.8" fill="#84BE84" rx="3.6" ry="3.6" style="stroke:#038048;stroke-width:1.2;"/><text fill="#000000" font-family="sans-serif" font-size="13.2" lengthAdjust="spacingAndGlyphs" textLength="146.4" x="1240.2" y="208.1027">String getEmailUtilizador()</text><!--MD5=[3707309d909513970d98cd7082f3ca19]
class FarmaciaBD--><rect codeLine="22" fill="#FEFECE" filter="url(#ftuzg4h1qc1k6)" height="74.2031" id="FarmaciaBD" style="stroke:#A80036;stroke-width:1.7999999999999998;" width="254.4" x="1177.8" y="258"/><ellipse cx="1258.5" cy="277.2" fill="#ADD1B2" rx="13.2" ry="13.2" style="stroke:#A80036;stroke-width:1.2;"/><path d="M1260.9,273 Q1261.1438,272.4 1261.425,272.1 Q1261.7063,271.8 1262.025,271.8 Q1262.5875,271.8 1262.9438,272.1375 Q1263.3,272.475 1263.3,273.2625 L1263.3,275.1375 Q1263.3,275.925 1262.9625,276.2625 Q1262.625,276.6 1262.1,276.6 Q1261.6313,276.6 1261.3313,276.3938 Q1261.0313,276.1875 1260.9,275.6438 Q1260.8438,275.2688 1260.6375,275.0625 Q1260.2625,274.6688 1259.5875,274.4437 Q1258.9125,274.2 1258.2375,274.2 Q1257.3938,274.2 1256.6812,274.5375 Q1255.9875,274.875 1255.4438,275.625 Q1254.9,276.375 1254.9,277.4063 L1254.9,278.5125 Q1254.9,279.75 1255.9125,280.575 Q1256.925,281.4 1258.725,281.4 Q1259.7938,281.4 1260.5438,281.1563 Q1260.975,281.025 1261.4625,280.5938 Q1261.7813,280.35 1261.95,280.275 Q1262.1187,280.2 1262.325,280.2 Q1262.7188,280.2 1263,280.5188 Q1263.3,280.8187 1263.3,281.25 Q1263.3,281.6625 1262.8875,282.15 Q1262.2875,282.8625 1261.3313,283.2562 Q1260.075,283.8 1258.5375,283.8 Q1256.7375,283.8 1255.2938,283.0875 Q1254.1313,282.525 1253.3062,281.3063 Q1252.5,280.0875 1252.5,278.6438 L1252.5,277.3313 Q1252.5,275.8313 1253.2125,274.5188 Q1253.9438,273.2063 1255.2,272.5125 Q1256.475,271.8 1257.9,271.8 Q1258.7625,271.8 1259.5125,272.1 Q1260.2625,272.4 1260.9,273 Z " fill="#000000"/><text fill="#000000" font-family="sans-serif" font-size="14.4" lengthAdjust="spacingAndGlyphs" textLength="82.8" x="1283.1" y="283.0922">FarmaciaBD</text><line style="stroke:#A80036;stroke-width:1.7999999999999998;" x1="1179" x2="1431" y1="296.4" y2="296.4"/><line style="stroke:#A80036;stroke-width:1.7999999999999998;" x1="1179" x2="1431" y1="306" y2="306"/><ellipse cx="1191" cy="319.2" fill="#84BE84" rx="3.6" ry="3.6" style="stroke:#038048;stroke-width:1.2;"/><text fill="#000000" font-family="sans-serif" font-size="13.2" lengthAdjust="spacingAndGlyphs" textLength="223.2" x="1201.8" y="324.5027">Farmacia getFarmByEmail(String email)</text><!--MD5=[9c5439856a1aad23e042de9a355b14cb]
class BaseDados--><rect codeLine="26" fill="#FEFECE" filter="url(#ftuzg4h1qc1k6)" height="90.8062" id="BaseDados" style="stroke:#A80036;stroke-width:1.7999999999999998;" width="136.8" x="1888.8" y="649.2"/><ellipse cx="1915.44" cy="668.4" fill="#ADD1B2" rx="13.2" ry="13.2" style="stroke:#A80036;stroke-width:1.2;"/><path d="M1917.84,664.2 Q1918.0838,663.6 1918.365,663.3 Q1918.6463,663 1918.965,663 Q1919.5275,663 1919.8838,663.3375 Q1920.24,663.675 1920.24,664.4625 L1920.24,666.3375 Q1920.24,667.125 1919.9025,667.4625 Q1919.565,667.8 1919.04,667.8 Q1918.5713,667.8 1918.2713,667.5938 Q1917.9713,667.3875 1917.84,666.8438 Q1917.7838,666.4688 1917.5775,666.2625 Q1917.2025,665.8688 1916.5275,665.6438 Q1915.8525,665.4 1915.1775,665.4 Q1914.3338,665.4 1913.6213,665.7375 Q1912.9275,666.075 1912.3838,666.825 Q1911.84,667.575 1911.84,668.6062 L1911.84,669.7125 Q1911.84,670.95 1912.8525,671.775 Q1913.865,672.6 1915.665,672.6 Q1916.7337,672.6 1917.4837,672.3562 Q1917.915,672.225 1918.4025,671.7937 Q1918.7213,671.55 1918.89,671.475 Q1919.0588,671.4 1919.265,671.4 Q1919.6588,671.4 1919.94,671.7188 Q1920.24,672.0188 1920.24,672.45 Q1920.24,672.8625 1919.8275,673.35 Q1919.2275,674.0625 1918.2713,674.4563 Q1917.015,675 1915.4775,675 Q1913.6775,675 1912.2337,674.2875 Q1911.0713,673.725 1910.2463,672.5063 Q1909.44,671.2875 1909.44,669.8438 L1909.44,668.5313 Q1909.44,667.0313 1910.1525,665.7188 Q1910.8838,664.4063 1912.14,663.7125 Q1913.415,663 1914.84,663 Q1915.7025,663 1916.4525,663.3 Q1917.2025,663.6 1917.84,664.2 Z " fill="#000000"/><text fill="#000000" font-family="sans-serif" font-size="14.4" lengthAdjust="spacingAndGlyphs" textLength="79.2" x="1934.16" y="674.2922">BaseDados</text><line style="stroke:#A80036;stroke-width:1.7999999999999998;" x1="1890" x2="2024.4" y1="687.6" y2="687.6"/><line style="stroke:#A80036;stroke-width:1.7999999999999998;" x1="1890" x2="2024.4" y1="697.2" y2="697.2"/><ellipse cx="1902" cy="710.4" fill="#84BE84" rx="3.6" ry="3.6" style="stroke:#038048;stroke-width:1.2;"/><text fill="#000000" font-family="sans-serif" font-size="13.2" lengthAdjust="spacingAndGlyphs" textLength="92.4" x="1912.8" y="715.7027">getConnection()</text><ellipse cx="1902" cy="727.0031" fill="#84BE84" rx="3.6" ry="3.6" style="stroke:#038048;stroke-width:1.2;"/><text fill="#000000" font-family="sans-serif" font-size="13.2" lengthAdjust="spacingAndGlyphs" textLength="105.6" x="1912.8" y="732.3059">closeConnection()</text><!--MD5=[d703aab580f67225500cb57f8b850b8c]
class MoradaBD--><rect codeLine="31" fill="#FEFECE" filter="url(#ftuzg4h1qc1k6)" height="74.2031" id="MoradaBD" style="stroke:#A80036;stroke-width:1.7999999999999998;" width="212.4" x="1198.8" y="374.4"/><ellipse cx="1265.1" cy="393.6" fill="#ADD1B2" rx="13.2" ry="13.2" style="stroke:#A80036;stroke-width:1.2;"/><path d="M1267.5,389.4 Q1267.7437,388.8 1268.025,388.5 Q1268.3062,388.2 1268.625,388.2 Q1269.1875,388.2 1269.5438,388.5375 Q1269.9,388.875 1269.9,389.6625 L1269.9,391.5375 Q1269.9,392.325 1269.5625,392.6625 Q1269.225,393 1268.7,393 Q1268.2313,393 1267.9312,392.7938 Q1267.6313,392.5875 1267.5,392.0438 Q1267.4438,391.6688 1267.2375,391.4625 Q1266.8625,391.0687 1266.1875,390.8438 Q1265.5125,390.6 1264.8375,390.6 Q1263.9937,390.6 1263.2813,390.9375 Q1262.5875,391.275 1262.0438,392.025 Q1261.5,392.775 1261.5,393.8063 L1261.5,394.9125 Q1261.5,396.15 1262.5125,396.975 Q1263.525,397.8 1265.325,397.8 Q1266.3938,397.8 1267.1438,397.5563 Q1267.575,397.425 1268.0625,396.9938 Q1268.3813,396.75 1268.55,396.675 Q1268.7188,396.6 1268.925,396.6 Q1269.3188,396.6 1269.6,396.9188 Q1269.9,397.2188 1269.9,397.65 Q1269.9,398.0625 1269.4875,398.55 Q1268.8875,399.2625 1267.9312,399.6563 Q1266.675,400.2 1265.1375,400.2 Q1263.3375,400.2 1261.8938,399.4875 Q1260.7313,398.925 1259.9063,397.7063 Q1259.1,396.4875 1259.1,395.0438 L1259.1,393.7313 Q1259.1,392.2313 1259.8125,390.9188 Q1260.5438,389.6063 1261.8,388.9125 Q1263.075,388.2 1264.5,388.2 Q1265.3625,388.2 1266.1125,388.5 Q1266.8625,388.8 1267.5,389.4 Z " fill="#000000"/><text fill="#000000" font-family="sans-serif" font-size="14.4" lengthAdjust="spacingAndGlyphs" textLength="69.6" x="1289.7" y="399.4922">MoradaBD</text><line style="stroke:#A80036;stroke-width:1.7999999999999998;" x1="1200" x2="1410" y1="412.8" y2="412.8"/><line style="stroke:#A80036;stroke-width:1.7999999999999998;" x1="1200" x2="1410" y1="422.4" y2="422.4"/><ellipse cx="1212" cy="435.6" fill="#84BE84" rx="3.6" ry="3.6" style="stroke:#038048;stroke-width:1.2;"/><text fill="#000000" font-family="sans-serif" font-size="13.2" lengthAdjust="spacingAndGlyphs" textLength="181.2" x="1222.8" y="440.9027">Morada getMoradaByID(farmID)</text><!--MD5=[8fb024e8e7bfe3cb30cfe7edaf396684]
class EncomendaBD--><rect codeLine="35" fill="#FEFECE" filter="url(#ftuzg4h1qc1k6)" height="124.0125" id="EncomendaBD" style="stroke:#A80036;stroke-width:1.7999999999999998;" width="532.8" x="1038.6" y="491.4"/><ellipse cx="1249.5" cy="510.6" fill="#ADD1B2" rx="13.2" ry="13.2" style="stroke:#A80036;stroke-width:1.2;"/><path d="M1251.9,506.4 Q1252.1438,505.8 1252.425,505.5 Q1252.7063,505.2 1253.025,505.2 Q1253.5875,505.2 1253.9438,505.5375 Q1254.3,505.875 1254.3,506.6625 L1254.3,508.5375 Q1254.3,509.325 1253.9625,509.6625 Q1253.625,510 1253.1,510 Q1252.6313,510 1252.3313,509.7938 Q1252.0313,509.5875 1251.9,509.0438 Q1251.8438,508.6688 1251.6375,508.4625 Q1251.2625,508.0687 1250.5875,507.8438 Q1249.9125,507.6 1249.2375,507.6 Q1248.3938,507.6 1247.6812,507.9375 Q1246.9875,508.275 1246.4438,509.025 Q1245.9,509.775 1245.9,510.8063 L1245.9,511.9125 Q1245.9,513.15 1246.9125,513.975 Q1247.925,514.8 1249.725,514.8 Q1250.7938,514.8 1251.5438,514.5563 Q1251.975,514.425 1252.4625,513.9938 Q1252.7813,513.75 1252.95,513.675 Q1253.1187,513.6 1253.325,513.6 Q1253.7188,513.6 1254,513.9187 Q1254.3,514.2188 1254.3,514.65 Q1254.3,515.0625 1253.8875,515.55 Q1253.2875,516.2625 1252.3313,516.6563 Q1251.075,517.2 1249.5375,517.2 Q1247.7375,517.2 1246.2938,516.4875 Q1245.1313,515.925 1244.3062,514.7063 Q1243.5,513.4875 1243.5,512.0437 L1243.5,510.7313 Q1243.5,509.2313 1244.2125,507.9188 Q1244.9438,506.6063 1246.2,505.9125 Q1247.475,505.2 1248.9,505.2 Q1249.7625,505.2 1250.5125,505.5 Q1251.2625,505.8 1251.9,506.4 Z " fill="#000000"/><text fill="#000000" font-family="sans-serif" font-size="14.4" lengthAdjust="spacingAndGlyphs" textLength="100.8" x="1274.1" y="516.4922">EncomendaBD</text><line style="stroke:#A80036;stroke-width:1.7999999999999998;" x1="1039.8" x2="1570.2" y1="529.8" y2="529.8"/><line style="stroke:#A80036;stroke-width:1.7999999999999998;" x1="1039.8" x2="1570.2" y1="539.4" y2="539.4"/><ellipse cx="1051.8" cy="552.6" fill="#84BE84" rx="3.6" ry="3.6" style="stroke:#038048;stroke-width:1.2;"/><text fill="#000000" font-family="sans-serif" font-size="13.2" lengthAdjust="spacingAndGlyphs" textLength="338.4" x="1062.6" y="557.9027">List&lt;Encomenda&gt; getEncomendasByFarmID(String idFarm)</text><ellipse cx="1051.8" cy="569.2031" fill="#84BE84" rx="3.6" ry="3.6" style="stroke:#038048;stroke-width:1.2;"/><text fill="#000000" font-family="sans-serif" font-size="13.2" lengthAdjust="spacingAndGlyphs" textLength="379.2" x="1062.6" y="574.5059">List&lt;Encomenda&gt; getEncomendasByID(List&lt;Integer&gt; encomenda)</text><ellipse cx="1051.8" cy="585.8063" fill="#84BE84" rx="3.6" ry="3.6" style="stroke:#038048;stroke-width:1.2;"/><text fill="#000000" font-family="sans-serif" font-size="13.2" lengthAdjust="spacingAndGlyphs" textLength="501.6" x="1062.6" y="591.109">List&lt;Morada&gt; getMoradasClientesByEncomendas(List &lt;Encomenda&gt; listaEncomendas)</text><ellipse cx="1051.8" cy="602.4094" fill="#84BE84" rx="3.6" ry="3.6" style="stroke:#038048;stroke-width:1.2;"/><text fill="#000000" font-family="sans-serif" font-size="13.2" lengthAdjust="spacingAndGlyphs" textLength="434.4" x="1062.6" y="607.7121">boolean setIDEntrega(List&lt;Encomenda&gt; listaEncomendas, Entrega entrega)</text><!--MD5=[24f7645889abd6047ad6d0f9f8bd9509]
class ScooterBD--><rect codeLine="42" fill="#FEFECE" filter="url(#ftuzg4h1qc1k6)" height="74.2031" id="ScooterBD" style="stroke:#A80036;stroke-width:1.7999999999999998;" width="326.4" x="1141.8" y="657.6"/><ellipse cx="1264.5" cy="676.8" fill="#ADD1B2" rx="13.2" ry="13.2" style="stroke:#A80036;stroke-width:1.2;"/><path d="M1266.9,672.6 Q1267.1438,672 1267.425,671.7 Q1267.7063,671.4 1268.025,671.4 Q1268.5875,671.4 1268.9438,671.7375 Q1269.3,672.075 1269.3,672.8625 L1269.3,674.7375 Q1269.3,675.525 1268.9625,675.8625 Q1268.625,676.2 1268.1,676.2 Q1267.6313,676.2 1267.3313,675.9938 Q1267.0313,675.7875 1266.9,675.2438 Q1266.8438,674.8688 1266.6375,674.6625 Q1266.2625,674.2688 1265.5875,674.0437 Q1264.9125,673.8 1264.2375,673.8 Q1263.3938,673.8 1262.6812,674.1375 Q1261.9875,674.475 1261.4438,675.225 Q1260.9,675.975 1260.9,677.0063 L1260.9,678.1125 Q1260.9,679.35 1261.9125,680.175 Q1262.925,681 1264.725,681 Q1265.7938,681 1266.5438,680.7563 Q1266.975,680.625 1267.4625,680.1938 Q1267.7813,679.95 1267.95,679.875 Q1268.1187,679.8 1268.325,679.8 Q1268.7188,679.8 1269,680.1188 Q1269.3,680.4187 1269.3,680.85 Q1269.3,681.2625 1268.8875,681.75 Q1268.2875,682.4625 1267.3313,682.8562 Q1266.075,683.4 1264.5375,683.4 Q1262.7375,683.4 1261.2938,682.6875 Q1260.1313,682.125 1259.3062,680.9063 Q1258.5,679.6875 1258.5,678.2438 L1258.5,676.9313 Q1258.5,675.4313 1259.2125,674.1188 Q1259.9438,672.8063 1261.2,672.1125 Q1262.475,671.4 1263.9,671.4 Q1264.7625,671.4 1265.5125,671.7 Q1266.2625,672 1266.9,672.6 Z " fill="#000000"/><text fill="#000000" font-family="sans-serif" font-size="14.4" lengthAdjust="spacingAndGlyphs" textLength="70.8" x="1289.1" y="682.6922">ScooterBD</text><line style="stroke:#A80036;stroke-width:1.7999999999999998;" x1="1143" x2="1467" y1="696" y2="696"/><line style="stroke:#A80036;stroke-width:1.7999999999999998;" x1="1143" x2="1467" y1="705.6" y2="705.6"/><ellipse cx="1155" cy="718.8" fill="#84BE84" rx="3.6" ry="3.6" style="stroke:#038048;stroke-width:1.2;"/><text fill="#000000" font-family="sans-serif" font-size="13.2" lengthAdjust="spacingAndGlyphs" textLength="295.2" x="1165.8" y="724.1027">List&lt;Scooter&gt; getScootersByFarmID(String idFarm)</text><!--MD5=[31371b8e73ae67545104722d962f1de0]
class CaminhoTask--><rect codeLine="46" fill="#FEFECE" filter="url(#ftuzg4h1qc1k6)" height="74.2031" id="CaminhoTask" style="stroke:#A80036;stroke-width:1.7999999999999998;" width="1023.6" x="793.2" y="774"/><ellipse cx="1253.1" cy="793.2" fill="#ADD1B2" rx="13.2" ry="13.2" style="stroke:#A80036;stroke-width:1.2;"/><path d="M1255.5,789 Q1255.7437,788.4 1256.025,788.1 Q1256.3062,787.8 1256.625,787.8 Q1257.1875,787.8 1257.5438,788.1375 Q1257.9,788.475 1257.9,789.2625 L1257.9,791.1375 Q1257.9,791.925 1257.5625,792.2625 Q1257.225,792.6 1256.7,792.6 Q1256.2313,792.6 1255.9312,792.3938 Q1255.6313,792.1875 1255.5,791.6438 Q1255.4438,791.2688 1255.2375,791.0625 Q1254.8625,790.6687 1254.1875,790.4438 Q1253.5125,790.2 1252.8375,790.2 Q1251.9937,790.2 1251.2813,790.5375 Q1250.5875,790.875 1250.0438,791.625 Q1249.5,792.375 1249.5,793.4063 L1249.5,794.5125 Q1249.5,795.75 1250.5125,796.575 Q1251.525,797.4 1253.325,797.4 Q1254.3938,797.4 1255.1438,797.1563 Q1255.575,797.025 1256.0625,796.5938 Q1256.3813,796.35 1256.55,796.275 Q1256.7188,796.2 1256.925,796.2 Q1257.3188,796.2 1257.6,796.5188 Q1257.9,796.8188 1257.9,797.25 Q1257.9,797.6625 1257.4875,798.15 Q1256.8875,798.8625 1255.9312,799.2563 Q1254.675,799.8 1253.1375,799.8 Q1251.3375,799.8 1249.8938,799.0875 Q1248.7313,798.525 1247.9063,797.3063 Q1247.1,796.0875 1247.1,794.6438 L1247.1,793.3313 Q1247.1,791.8313 1247.8125,790.5188 Q1248.5438,789.2063 1249.8,788.5125 Q1251.075,787.8 1252.5,787.8 Q1253.3625,787.8 1254.1125,788.1 Q1254.8625,788.4 1255.5,789 Z " fill="#000000"/><text fill="#000000" font-family="sans-serif" font-size="14.4" lengthAdjust="spacingAndGlyphs" textLength="93.6" x="1277.7" y="799.0922">CaminhoTask</text><line style="stroke:#A80036;stroke-width:1.7999999999999998;" x1="794.4" x2="1815.6" y1="812.4" y2="812.4"/><line style="stroke:#A80036;stroke-width:1.7999999999999998;" x1="794.4" x2="1815.6" y1="822" y2="822"/><ellipse cx="806.4" cy="835.2" fill="#84BE84" rx="3.6" ry="3.6" style="stroke:#038048;stroke-width:1.2;"/><text fill="#000000" font-family="sans-serif" font-size="13.2" lengthAdjust="spacingAndGlyphs" textLength="992.4" x="817.2" y="840.5027">getCaminhoAndConsumo(boolean estimativa, Morada moradaFarmacia,List&lt;Morada&gt; listaMoradas,double cargaTotal,Veiculo veiculo,boolean isDrone,MoradaBD moradaBD)</text><!--MD5=[f78d482765dab3bfec878498523110ae]
class EstafetaBD--><rect codeLine="50" fill="#FEFECE" filter="url(#ftuzg4h1qc1k6)" height="74.2031" id="EstafetaBD" style="stroke:#A80036;stroke-width:1.7999999999999998;" width="198" x="1206" y="890.4"/><ellipse cx="1262.7" cy="909.6" fill="#ADD1B2" rx="13.2" ry="13.2" style="stroke:#A80036;stroke-width:1.2;"/><path d="M1265.1,905.4 Q1265.3438,904.8 1265.625,904.5 Q1265.9063,904.2 1266.225,904.2 Q1266.7875,904.2 1267.1438,904.5375 Q1267.5,904.875 1267.5,905.6625 L1267.5,907.5375 Q1267.5,908.325 1267.1625,908.6625 Q1266.825,909 1266.3,909 Q1265.8313,909 1265.5313,908.7937 Q1265.2313,908.5875 1265.1,908.0437 Q1265.0438,907.6687 1264.8375,907.4625 Q1264.4625,907.0688 1263.7875,906.8438 Q1263.1125,906.6 1262.4375,906.6 Q1261.5938,906.6 1260.8813,906.9375 Q1260.1875,907.275 1259.6438,908.025 Q1259.1,908.775 1259.1,909.8063 L1259.1,910.9125 Q1259.1,912.15 1260.1125,912.975 Q1261.125,913.8 1262.925,913.8 Q1263.9937,913.8 1264.7437,913.5563 Q1265.175,913.425 1265.6625,912.9938 Q1265.9813,912.75 1266.15,912.675 Q1266.3188,912.6 1266.525,912.6 Q1266.9188,912.6 1267.2,912.9187 Q1267.5,913.2188 1267.5,913.65 Q1267.5,914.0625 1267.0875,914.55 Q1266.4875,915.2625 1265.5313,915.6563 Q1264.275,916.2 1262.7375,916.2 Q1260.9375,916.2 1259.4937,915.4875 Q1258.3313,914.925 1257.5063,913.7063 Q1256.7,912.4875 1256.7,911.0437 L1256.7,909.7312 Q1256.7,908.2312 1257.4125,906.9187 Q1258.1438,905.6062 1259.4,904.9125 Q1260.675,904.2 1262.1,904.2 Q1262.9625,904.2 1263.7125,904.5 Q1264.4625,904.8 1265.1,905.4 Z " fill="#000000"/><text fill="#000000" font-family="sans-serif" font-size="14.4" lengthAdjust="spacingAndGlyphs" textLength="74.4" x="1287.3" y="915.4922">EstafetaBD</text><line style="stroke:#A80036;stroke-width:1.7999999999999998;" x1="1207.2" x2="1402.8" y1="928.8" y2="928.8"/><line style="stroke:#A80036;stroke-width:1.7999999999999998;" x1="1207.2" x2="1402.8" y1="938.4" y2="938.4"/><ellipse cx="1219.2" cy="951.6" fill="#84BE84" rx="3.6" ry="3.6" style="stroke:#038048;stroke-width:1.2;"/><text fill="#000000" font-family="sans-serif" font-size="13.2" lengthAdjust="spacingAndGlyphs" textLength="166.8" x="1230" y="956.9027">getEstafetaAvailable(idFarm)</text><!--MD5=[5fc572bc8c1bfcbeab2cd59a58703842]
class EntregaBD--><rect codeLine="54" fill="#FEFECE" filter="url(#ftuzg4h1qc1k6)" height="90.8062" id="EntregaBD" style="stroke:#A80036;stroke-width:1.7999999999999998;" width="757.2" x="926.4" y="1006.8"/><ellipse cx="1263.9" cy="1026" fill="#ADD1B2" rx="13.2" ry="13.2" style="stroke:#A80036;stroke-width:1.2;"/><path d="M1266.3,1021.8 Q1266.5438,1021.2 1266.825,1020.9 Q1267.1063,1020.6 1267.425,1020.6 Q1267.9875,1020.6 1268.3438,1020.9375 Q1268.7,1021.275 1268.7,1022.0625 L1268.7,1023.9375 Q1268.7,1024.725 1268.3625,1025.0625 Q1268.025,1025.4 1267.5,1025.4 Q1267.0313,1025.4 1266.7313,1025.1938 Q1266.4312,1024.9875 1266.3,1024.4438 Q1266.2437,1024.0688 1266.0375,1023.8625 Q1265.6625,1023.4688 1264.9875,1023.2438 Q1264.3125,1023 1263.6375,1023 Q1262.7938,1023 1262.0813,1023.3375 Q1261.3875,1023.675 1260.8438,1024.425 Q1260.3,1025.175 1260.3,1026.2063 L1260.3,1027.3125 Q1260.3,1028.55 1261.3125,1029.375 Q1262.325,1030.2 1264.125,1030.2 Q1265.1938,1030.2 1265.9438,1029.9563 Q1266.375,1029.825 1266.8625,1029.3938 Q1267.1812,1029.15 1267.35,1029.075 Q1267.5188,1029 1267.725,1029 Q1268.1187,1029 1268.4,1029.3188 Q1268.7,1029.6187 1268.7,1030.05 Q1268.7,1030.4625 1268.2875,1030.95 Q1267.6875,1031.6625 1266.7313,1032.0562 Q1265.475,1032.6 1263.9375,1032.6 Q1262.1375,1032.6 1260.6938,1031.8875 Q1259.5313,1031.325 1258.7063,1030.1063 Q1257.9,1028.8875 1257.9,1027.4438 L1257.9,1026.1313 Q1257.9,1024.6313 1258.6125,1023.3187 Q1259.3438,1022.0062 1260.6,1021.3125 Q1261.875,1020.6 1263.3,1020.6 Q1264.1625,1020.6 1264.9125,1020.9 Q1265.6625,1021.2 1266.3,1021.8 Z " fill="#000000"/><text fill="#000000" font-family="sans-serif" font-size="14.4" lengthAdjust="spacingAndGlyphs" textLength="72" x="1288.5" y="1031.8922">EntregaBD</text><line style="stroke:#A80036;stroke-width:1.7999999999999998;" x1="927.6" x2="1682.4" y1="1045.2" y2="1045.2"/><line style="stroke:#A80036;stroke-width:1.7999999999999998;" x1="927.6" x2="1682.4" y1="1054.8" y2="1054.8"/><ellipse cx="939.6" cy="1068" fill="#84BE84" rx="3.6" ry="3.6" style="stroke:#038048;stroke-width:1.2;"/><text fill="#000000" font-family="sans-serif" font-size="13.2" lengthAdjust="spacingAndGlyphs" textLength="726" x="950.4" y="1073.3027">Entrega createEntrega(double cargaTotal, double distanciaTotal, double consumoEstimado, Veiculo veiculo, Estafeta estafeta)</text><ellipse cx="939.6" cy="1084.6031" fill="#84BE84" rx="3.6" ry="3.6" style="stroke:#038048;stroke-width:1.2;"/><text fill="#000000" font-family="sans-serif" font-size="13.2" lengthAdjust="spacingAndGlyphs" textLength="355.2" x="950.4" y="1089.9059">boolean setCaminho(Entrega entrega, List&lt;Morada&gt; caminho)</text><!--MD5=[9c223485a0054cb5a8b8dccbfc1eec78]
link CriarEntregaUI to CriarEntregaController--><path codeLine="60" d="M145.488,553.2 C164.88,553.2 187.272,553.2 211.032,553.2 " fill="none" id="CriarEntregaUI-to-CriarEntregaController" style="stroke:#A80036;stroke-width:1.2;stroke-dasharray:7.0,7.0;"/><polygon fill="#A80036" points="217.104,553.2,206.304,548.4,211.104,553.2,206.304,558,217.104,553.2" style="stroke:#A80036;stroke-width:1.2;"/><!--MD5=[baa7d853493c09fe34d6443059604e43]
link CriarEntregaController to AplicacaoPOT--><path codeLine="61" d="M500.916,482.628 C547.932,383.304 648.096,204.912 793.2,120 C911.88,50.544 1072.32,40.728 1181.46,43.956 " fill="none" id="CriarEntregaController-to-AplicacaoPOT" style="stroke:#A80036;stroke-width:1.2;stroke-dasharray:7.0,7.0;"/><polygon fill="#A80036" points="1187.592,44.16,1176.9481,39.0231,1181.595,43.9715,1176.6465,48.6184,1187.592,44.16" style="stroke:#A80036;stroke-width:1.2;"/><!--MD5=[db3b5ee2010d7f2af43092407283f908]
link CriarEntregaController to SessaoUtilizador--><path codeLine="62" d="M519.42,482.676 C575.928,407.592 676.212,292.08 793.2,236.4 C927.468,172.5 1103.34,167.4 1209.732,171.612 " fill="none" id="CriarEntregaController-to-SessaoUtilizador" style="stroke:#A80036;stroke-width:1.2;stroke-dasharray:7.0,7.0;"/><polygon fill="#A80036" points="1216.008,171.876,1205.4241,166.6167,1210.0135,171.6184,1205.0118,176.2078,1216.008,171.876" style="stroke:#A80036;stroke-width:1.2;"/><!--MD5=[917693e8f09a93f219704fea1cbfc183]
link CriarEntregaController to FarmaciaBD--><path codeLine="63" d="M559.128,483 C621.06,437.94 707.664,382.476 793.2,352.8 C916.74,309.936 1066.2,297.276 1171.404,294.288 " fill="none" id="CriarEntregaController-to-FarmaciaBD" style="stroke:#A80036;stroke-width:1.2;stroke-dasharray:7.0,7.0;"/><polygon fill="#A80036" points="1177.632,294.12,1166.7122,289.5992,1171.634,294.2742,1166.959,299.196,1177.632,294.12" style="stroke:#A80036;stroke-width:1.2;"/><!--MD5=[e425f892f66929efa1cd5e8cbba41cfd]
link CriarEntregaController to MoradaBD--><path codeLine="64" d="M721.212,485.316 C745.452,479.832 769.728,474.744 793.2,470.4 C929.556,445.188 1088.52,428.916 1192.404,420.024 " fill="none" id="CriarEntregaController-to-MoradaBD" style="stroke:#A80036;stroke-width:1.2;stroke-dasharray:7.0,7.0;"/><polygon fill="#A80036" points="1198.548,419.496,1187.3766,415.6386,1192.57,420.0099,1188.1988,425.2033,1198.548,419.496" style="stroke:#A80036;stroke-width:1.2;"/><!--MD5=[4794427bb66fa299358683fe6828400a]
link CriarEntregaController to EncomendaBD--><path codeLine="65" d="M721.572,553.2 C819.48,553.2 931.932,553.2 1031.748,553.2 " fill="none" id="CriarEntregaController-to-EncomendaBD" style="stroke:#A80036;stroke-width:1.2;stroke-dasharray:7.0,7.0;"/><polygon fill="#A80036" points="1038.3,553.2,1027.5,548.4,1032.3,553.2,1027.5,558,1038.3,553.2" style="stroke:#A80036;stroke-width:1.2;"/><!--MD5=[7188a8ece0e62f4039047369d1b5ed85]
link CriarEntregaController to ScooterBD--><path codeLine="66" d="M721.212,621.084 C745.452,626.568 769.728,631.656 793.2,636 C906.324,656.916 1035,671.676 1134.876,681.18 " fill="none" id="CriarEntregaController-to-ScooterBD" style="stroke:#A80036;stroke-width:1.2;stroke-dasharray:7.0,7.0;"/><polygon fill="#A80036" points="1141.416,681.804,1131.1158,676.0086,1135.4426,681.2392,1130.2121,685.566,1141.416,681.804" style="stroke:#A80036;stroke-width:1.2;"/><!--MD5=[7ffbacc68579e5a63313911c240e3a67]
link CriarEntregaController to CaminhoTask--><path codeLine="67" d="M560.232,623.64 C622.14,668.268 708.276,722.952 793.2,752.4 C815.16,760.008 837.924,766.692 861.12,772.536 " fill="none" id="CriarEntregaController-to-CaminhoTask" style="stroke:#A80036;stroke-width:1.2;stroke-dasharray:7.0,7.0;"/><polygon fill="#A80036" points="867.036,774,857.7226,766.7239,861.2151,772.5448,855.3943,776.0373,867.036,774" style="stroke:#A80036;stroke-width:1.2;"/><!--MD5=[f484ef2f078271363cfde057f4c00bcd]
link CriarEntregaController to EstafetaBD--><path codeLine="68" d="M519.504,623.412 C576.096,698.172 676.44,813.204 793.2,868.8 C923.268,930.732 1092.36,937.932 1199.52,934.812 " fill="none" id="CriarEntregaController-to-EstafetaBD" style="stroke:#A80036;stroke-width:1.2;stroke-dasharray:7.0,7.0;"/><polygon fill="#A80036" points="1205.532,934.62,1194.5865,930.1616,1199.535,934.8085,1194.8881,939.7569,1205.532,934.62" style="stroke:#A80036;stroke-width:1.2;"/><!--MD5=[cf241560eac2ec6c23bb037d860d417a]
link CriarEntregaController to EntregaBD--><path codeLine="69" d="M501,623.532 C548.112,722.532 648.396,900.36 793.2,985.2 C832.14,1008.012 875.592,1024.452 920.232,1036.128 " fill="none" id="CriarEntregaController-to-EntregaBD" style="stroke:#A80036;stroke-width:1.2;stroke-dasharray:7.0,7.0;"/><polygon fill="#A80036" points="926.256,1037.664,916.9882,1030.33,920.4443,1036.1725,914.6018,1039.6287,926.256,1037.664" style="stroke:#A80036;stroke-width:1.2;"/><!--MD5=[dbd15f50e17d92579182b6d34e88172b]
link FarmaciaBD to BaseDados--><path codeLine="71" d="M1432.632,275.844 C1544.76,265.848 1707.288,269.844 1816.8,352.8 C1909.62,423.108 1940.796,565.824 1951.08,642.804 " fill="none" id="FarmaciaBD-to-BaseDados" style="stroke:#A80036;stroke-width:1.2;stroke-dasharray:7.0,7.0;"/><polygon fill="#A80036" points="1951.896,649.128,1955.2672,637.8004,1951.1244,643.1778,1945.7469,639.035,1951.896,649.128" style="stroke:#A80036;stroke-width:1.2;"/><!--MD5=[dd5557e0584c7ae80926c94375161989]
link MoradaBD to BaseDados--><path codeLine="72" d="M1411.272,398.364 C1521.084,389.976 1694.148,392.628 1816.8,470.4 C1879.932,510.432 1919.112,590.508 1939.248,643.368 " fill="none" id="MoradaBD-to-BaseDados" style="stroke:#A80036;stroke-width:1.2;stroke-dasharray:7.0,7.0;"/><polygon fill="#A80036" points="1941.372,649.044,1942.0742,637.2463,1939.2653,643.426,1933.0855,640.617,1941.372,649.044" style="stroke:#A80036;stroke-width:1.2;"/><!--MD5=[99bd99f4e6f61c488c4be9aac60b471f]
link EncomendaBD to BaseDados--><path codeLine="73" d="M1571.568,583.932 C1651.284,596.448 1738.368,613.428 1816.8,636 C1838.688,642.3 1861.752,651.096 1882.656,659.964 " fill="none" id="EncomendaBD-to-BaseDados" style="stroke:#A80036;stroke-width:1.2;stroke-dasharray:7.0,7.0;"/><polygon fill="#A80036" points="1888.5,662.46,1880.464,653.7938,1882.9851,660.0965,1876.6824,662.6176,1888.5,662.46" style="stroke:#A80036;stroke-width:1.2;"/><!--MD5=[ef60af5d8bc7d35de774819867592e8d]
link ScooterBD to BaseDados--><path codeLine="74" d="M1468.5,694.8 C1600.92,694.8 1781.892,694.8 1881.924,694.8 " fill="none" id="ScooterBD-to-BaseDados" style="stroke:#A80036;stroke-width:1.2;stroke-dasharray:7.0,7.0;"/><polygon fill="#A80036" points="1888.392,694.8,1877.592,690,1882.392,694.8,1877.592,699.6,1888.392,694.8" style="stroke:#A80036;stroke-width:1.2;"/><!--MD5=[209d110f227d97bc3689511b2f7e1713]
link CaminhoTask to BaseDados--><path codeLine="75" d="M1717.38,773.976 C1751.22,767.844 1784.736,760.704 1816.8,752.4 C1838.784,746.7 1861.872,738.24 1882.788,729.552 " fill="none" id="CaminhoTask-to-BaseDados" style="stroke:#A80036;stroke-width:1.2;stroke-dasharray:7.0,7.0;"/><polygon fill="#A80036" points="1888.62,727.092,1876.8037,726.8592,1883.0902,729.4203,1880.529,735.7069,1888.62,727.092" style="stroke:#A80036;stroke-width:1.2;"/><!--MD5=[4003d5ab781cc3f48b2a9eefd8ff200a]
link EstafetaBD to BaseDados--><path codeLine="76" d="M1404.072,937.56 C1512.036,943.92 1687.584,940.296 1816.8,868.8 C1867.176,840.924 1906.02,786.66 1929.72,746.1 " fill="none" id="EstafetaBD-to-BaseDados" style="stroke:#A80036;stroke-width:1.2;stroke-dasharray:7.0,7.0;"/><polygon fill="#A80036" points="1932.816,740.724,1923.258,747.6756,1929.8152,745.9197,1931.5711,752.4769,1932.816,740.724" style="stroke:#A80036;stroke-width:1.2;"/><!--MD5=[9061a2cfdd71d6299ba47fd3f635b520]
link EntregaBD to BaseDados--><path codeLine="77" d="M1683.9,1046.208 C1731.552,1033.272 1777.344,1013.808 1816.8,985.2 C1895.892,927.852 1931.868,813.516 1946.736,746.688 " fill="none" id="EntregaBD-to-BaseDados" style="stroke:#A80036;stroke-width:1.2;stroke-dasharray:7.0,7.0;"/><polygon fill="#A80036" points="1948.02,740.772,1941.0446,750.3126,1946.7511,746.6363,1950.4274,752.3428,1948.02,740.772" style="stroke:#A80036;stroke-width:1.2;"/><!--MD5=[34fbd23c3665459692b252b47480da69]
@startuml
left to right direction

class CriarEntregaUI

class CriarEntregaController{
+List<Encomenda> getEncomendas()
+Pair<Veiculo,Double> validaDados(List<Integer> encomendas, boolean estimativa)
+double calcularCargaTotal()
+List<Drone> getDronesCapazes()
+Veiculo getVeiculoMaisEficiente()
}

class AplicacaoPOT{
+getInstance()
+SessaoUtilizador getSessaoAtual()
}

class SessaoUtilizador{
+String getEmailUtilizador()
}

class FarmaciaBD{
+Farmacia getFarmByEmail(String email)
}

class BaseDados{
+getConnection()
+closeConnection()
}

class MoradaBD{
+Morada getMoradaByID(farmID)
}

class EncomendaBD{
+List<Encomenda> getEncomendasByFarmID(String idFarm)
+List<Encomenda> getEncomendasByID(List<Integer> encomenda)
+List<Morada> getMoradasClientesByEncomendas(List <Encomenda> listaEncomendas)
+boolean setIDEntrega(List<Encomenda> listaEncomendas, Entrega entrega)
}

class ScooterBD{
+List<Scooter> getScootersByFarmID(String idFarm)
}

class CaminhoTask{
+getCaminhoAndConsumo(boolean estimativa, Morada moradaFarmacia,List<Morada> listaMoradas,double cargaTotal,Veiculo veiculo,boolean isDrone,MoradaBD moradaBD)
}

class EstafetaBD{
+getEstafetaAvailable(idFarm)
}

class EntregaBD{
+Entrega createEntrega(double cargaTotal, double distanciaTotal, double consumoEstimado, Veiculo veiculo, Estafeta estafeta)
+boolean setCaminho(Entrega entrega, List<Morada> caminho)
}


CriarEntregaUI ..> CriarEntregaController
CriarEntregaController ..> AplicacaoPOT
CriarEntregaController ..> SessaoUtilizador
CriarEntregaController ..> FarmaciaBD
CriarEntregaController ..> MoradaBD
CriarEntregaController ..> EncomendaBD
CriarEntregaController ..> ScooterBD
CriarEntregaController ..> CaminhoTask
CriarEntregaController ..> EstafetaBD
CriarEntregaController ..> EntregaBD

FarmaciaBD  ..> BaseDados
MoradaBD    ..> BaseDados
EncomendaBD ..> BaseDados
ScooterBD   ..> BaseDados
CaminhoTask ..> BaseDados
EstafetaBD  ..> BaseDados
EntregaBD   ..> BaseDados








@enduml

PlantUML version 1.2020.23(Sun Dec 13 19:14:58 GMT 2020)
(GPL source distribution)
Java Runtime: OpenJDK Runtime Environment
JVM: OpenJDK 64-Bit Server VM
Default Encoding: Cp1252
Language: pt
Country: PT
--></g></svg>