<?xml version="1.0" encoding="UTF-8" standalone="no"?><svg xmlns="http://www.w3.org/2000/svg" xmlns:xlink="http://www.w3.org/1999/xlink" contentScriptType="application/ecmascript" contentStyleType="text/css" height="665px" preserveAspectRatio="none" style="width:1118px;height:665px;" version="1.1" viewBox="0 0 1118 665" width="1118px" zoomAndPan="magnify"><defs><filter height="300%" id="f1gv83r2c1848i" width="300%" x="-1" y="-1"><feGaussianBlur result="blurOut" stdDeviation="2.0"/><feColorMatrix in="blurOut" result="blurOut2" type="matrix" values="0 0 0 0 0 0 0 0 0 0 0 0 0 0 0 0 0 0 .4 0"/><feOffset dx="4.0" dy="4.0" in="blurOut2" result="blurOut3"/><feBlend in="SourceGraphic" in2="blurOut3" mode="normal"/></filter></defs><g><!--MD5=[02afede8377a6c837d700c2f05b36a05]
class AdicionarStockProdutoUI--><rect codeLine="5" fill="#FEFECE" filter="url(#f1gv83r2c1848i)" height="48" id="AdicionarStockProdutoUI" style="stroke:#A80036;stroke-width:1.5;" width="168" x="326.5" y="7"/><ellipse cx="341.5" cy="23" fill="#ADD1B2" rx="11" ry="11" style="stroke:#A80036;stroke-width:1.0;"/><path d="M343.5,19.5 Q343.7031,19 343.9375,18.75 Q344.1719,18.5 344.4375,18.5 Q344.9063,18.5 345.2031,18.7813 Q345.5,19.0625 345.5,19.7188 L345.5,21.2813 Q345.5,21.9375 345.2188,22.2188 Q344.9375,22.5 344.5,22.5 Q344.1094,22.5 343.8594,22.3281 Q343.6094,22.1563 343.5,21.7031 Q343.4531,21.3906 343.2813,21.2188 Q342.9688,20.8906 342.4063,20.7031 Q341.8438,20.5 341.2813,20.5 Q340.5781,20.5 339.9844,20.7813 Q339.4063,21.0625 338.9531,21.6875 Q338.5,22.3125 338.5,23.1719 L338.5,24.0938 Q338.5,25.125 339.3438,25.8125 Q340.1875,26.5 341.6875,26.5 Q342.5781,26.5 343.2031,26.2969 Q343.5625,26.1875 343.9688,25.8281 Q344.2344,25.625 344.375,25.5625 Q344.5156,25.5 344.6875,25.5 Q345.0156,25.5 345.25,25.7656 Q345.5,26.0156 345.5,26.375 Q345.5,26.7188 345.1563,27.125 Q344.6563,27.7188 343.8594,28.0469 Q342.8125,28.5 341.5313,28.5 Q340.0313,28.5 338.8281,27.9063 Q337.8594,27.4375 337.1719,26.4219 Q336.5,25.4063 336.5,24.2031 L336.5,23.1094 Q336.5,21.8594 337.0938,20.7656 Q337.7031,19.6719 338.75,19.0938 Q339.8125,18.5 341,18.5 Q341.7188,18.5 342.3438,18.75 Q342.9688,19 343.5,19.5 Z " fill="#000000"/><text fill="#000000" font-family="sans-serif" font-size="12" lengthAdjust="spacing" textLength="136" x="355.5" y="27.9102">AdicionarStockProdutoUI</text><line style="stroke:#A80036;stroke-width:1.5;" x1="327.5" x2="493.5" y1="39" y2="39"/><line style="stroke:#A80036;stroke-width:1.5;" x1="327.5" x2="493.5" y1="47" y2="47"/><!--MD5=[59a9b45e1dc91749a2071110d8221bcf]
class AdicionarStockProdutoController--><rect codeLine="9" fill="#FEFECE" filter="url(#f1gv83r2c1848i)" height="89.5078" id="AdicionarStockProdutoController" style="stroke:#A80036;stroke-width:1.5;" width="237" x="292" y="116"/><ellipse cx="319.15" cy="132" fill="#ADD1B2" rx="11" ry="11" style="stroke:#A80036;stroke-width:1.0;"/><path d="M321.15,128.5 Q321.3531,128 321.5875,127.75 Q321.8219,127.5 322.0875,127.5 Q322.5563,127.5 322.8531,127.7813 Q323.15,128.0625 323.15,128.7188 L323.15,130.2813 Q323.15,130.9375 322.8688,131.2188 Q322.5875,131.5 322.15,131.5 Q321.7594,131.5 321.5094,131.3281 Q321.2594,131.1563 321.15,130.7031 Q321.1031,130.3906 320.9313,130.2188 Q320.6188,129.8906 320.0563,129.7031 Q319.4938,129.5 318.9313,129.5 Q318.2281,129.5 317.6344,129.7813 Q317.0563,130.0625 316.6031,130.6875 Q316.15,131.3125 316.15,132.1719 L316.15,133.0938 Q316.15,134.125 316.9938,134.8125 Q317.8375,135.5 319.3375,135.5 Q320.2281,135.5 320.8531,135.2969 Q321.2125,135.1875 321.6188,134.8281 Q321.8844,134.625 322.025,134.5625 Q322.1656,134.5 322.3375,134.5 Q322.6656,134.5 322.9,134.7656 Q323.15,135.0156 323.15,135.375 Q323.15,135.7188 322.8063,136.125 Q322.3063,136.7188 321.5094,137.0469 Q320.4625,137.5 319.1813,137.5 Q317.6813,137.5 316.4781,136.9063 Q315.5094,136.4375 314.8219,135.4219 Q314.15,134.4063 314.15,133.2031 L314.15,132.1094 Q314.15,130.8594 314.7438,129.7656 Q315.3531,128.6719 316.4,128.0938 Q317.4625,127.5 318.65,127.5 Q319.3688,127.5 319.9938,127.75 Q320.6188,128 321.15,128.5 Z " fill="#000000"/><text fill="#000000" font-family="sans-serif" font-size="12" lengthAdjust="spacing" textLength="178" x="335.85" y="136.9102">AdicionarStockProdutoController</text><line style="stroke:#A80036;stroke-width:1.5;" x1="293" x2="528" y1="148" y2="148"/><line style="stroke:#A80036;stroke-width:1.5;" x1="293" x2="528" y1="156" y2="156"/><text fill="#000000" font-family="sans-serif" font-size="11" lengthAdjust="spacing" textLength="129" x="298" y="171.4189">+getProdutosByFarmacia()</text><text fill="#000000" font-family="sans-serif" font-size="11" lengthAdjust="spacing" textLength="124" x="298" y="185.2549">+validaProduto(idProduto)</text><text fill="#000000" font-family="sans-serif" font-size="11" lengthAdjust="spacing" textLength="225" x="298" y="199.0908">+alteraStockProduto(idProduto,stockAdicionar)</text><!--MD5=[a84bd072b68d9b7b1d264a150fd20f17]
class ProdutoBD--><rect codeLine="15" fill="#FEFECE" filter="url(#f1gv83r2c1848i)" height="89.5078" id="ProdutoBD" style="stroke:#A80036;stroke-width:1.5;" width="203" x="7" y="284"/><ellipse cx="74.25" cy="300" fill="#ADD1B2" rx="11" ry="11" style="stroke:#A80036;stroke-width:1.0;"/><path d="M76.25,296.5 Q76.4531,296 76.6875,295.75 Q76.9219,295.5 77.1875,295.5 Q77.6563,295.5 77.9531,295.7813 Q78.25,296.0625 78.25,296.7188 L78.25,298.2813 Q78.25,298.9375 77.9688,299.2188 Q77.6875,299.5 77.25,299.5 Q76.8594,299.5 76.6094,299.3281 Q76.3594,299.1563 76.25,298.7031 Q76.2031,298.3906 76.0313,298.2188 Q75.7188,297.8906 75.1563,297.7031 Q74.5938,297.5 74.0313,297.5 Q73.3281,297.5 72.7344,297.7813 Q72.1563,298.0625 71.7031,298.6875 Q71.25,299.3125 71.25,300.1719 L71.25,301.0938 Q71.25,302.125 72.0938,302.8125 Q72.9375,303.5 74.4375,303.5 Q75.3281,303.5 75.9531,303.2969 Q76.3125,303.1875 76.7188,302.8281 Q76.9844,302.625 77.125,302.5625 Q77.2656,302.5 77.4375,302.5 Q77.7656,302.5 78,302.7656 Q78.25,303.0156 78.25,303.375 Q78.25,303.7188 77.9063,304.125 Q77.4063,304.7188 76.6094,305.0469 Q75.5625,305.5 74.2813,305.5 Q72.7813,305.5 71.5781,304.9063 Q70.6094,304.4375 69.9219,303.4219 Q69.25,302.4063 69.25,301.2031 L69.25,300.1094 Q69.25,298.8594 69.8438,297.7656 Q70.4531,296.6719 71.5,296.0938 Q72.5625,295.5 73.75,295.5 Q74.4688,295.5 75.0938,295.75 Q75.7188,296 76.25,296.5 Z " fill="#000000"/><text fill="#000000" font-family="sans-serif" font-size="12" lengthAdjust="spacing" textLength="60" x="94.75" y="304.9102">ProdutoBD</text><line style="stroke:#A80036;stroke-width:1.5;" x1="8" x2="209" y1="316" y2="316"/><line style="stroke:#A80036;stroke-width:1.5;" x1="8" x2="209" y1="324" y2="324"/><text fill="#000000" font-family="sans-serif" font-size="11" lengthAdjust="spacing" textLength="175" x="13" y="339.4189">+getProdutoByFarmacia(idFarmacia)</text><text fill="#000000" font-family="sans-serif" font-size="11" lengthAdjust="spacing" textLength="191" x="13" y="353.2549">+validarProdutoId(idFarmacia,idProduto)</text><text fill="#000000" font-family="sans-serif" font-size="11" lengthAdjust="spacing" textLength="176" x="13" y="367.0908">+setStock(idProduto,stockAdicionar)</text><!--MD5=[d4dacc50d49878ba7c621dfc80a2e1ce]
class Produto--><rect codeLine="20" fill="#FEFECE" filter="url(#f1gv83r2c1848i)" height="48" id="Produto" style="stroke:#A80036;stroke-width:1.5;" width="75" x="535" y="473"/><ellipse cx="550" cy="489" fill="#ADD1B2" rx="11" ry="11" style="stroke:#A80036;stroke-width:1.0;"/><path d="M552,485.5 Q552.2031,485 552.4375,484.75 Q552.6719,484.5 552.9375,484.5 Q553.4063,484.5 553.7031,484.7813 Q554,485.0625 554,485.7188 L554,487.2813 Q554,487.9375 553.7188,488.2188 Q553.4375,488.5 553,488.5 Q552.6094,488.5 552.3594,488.3281 Q552.1094,488.1563 552,487.7031 Q551.9531,487.3906 551.7813,487.2188 Q551.4688,486.8906 550.9063,486.7031 Q550.3438,486.5 549.7813,486.5 Q549.0781,486.5 548.4844,486.7813 Q547.9063,487.0625 547.4531,487.6875 Q547,488.3125 547,489.1719 L547,490.0938 Q547,491.125 547.8438,491.8125 Q548.6875,492.5 550.1875,492.5 Q551.0781,492.5 551.7031,492.2969 Q552.0625,492.1875 552.4688,491.8281 Q552.7344,491.625 552.875,491.5625 Q553.0156,491.5 553.1875,491.5 Q553.5156,491.5 553.75,491.7656 Q554,492.0156 554,492.375 Q554,492.7188 553.6563,493.125 Q553.1563,493.7188 552.3594,494.0469 Q551.3125,494.5 550.0313,494.5 Q548.5313,494.5 547.3281,493.9063 Q546.3594,493.4375 545.6719,492.4219 Q545,491.4063 545,490.2031 L545,489.1094 Q545,487.8594 545.5938,486.7656 Q546.2031,485.6719 547.25,485.0938 Q548.3125,484.5 549.5,484.5 Q550.2188,484.5 550.8438,484.75 Q551.4688,485 552,485.5 Z " fill="#000000"/><text fill="#000000" font-family="sans-serif" font-size="12" lengthAdjust="spacing" textLength="43" x="564" y="493.9102">Produto</text><line style="stroke:#A80036;stroke-width:1.5;" x1="536" x2="609" y1="505" y2="505"/><line style="stroke:#A80036;stroke-width:1.5;" x1="536" x2="609" y1="513" y2="513"/><!--MD5=[9c5439856a1aad23e042de9a355b14cb]
class BaseDados--><rect codeLine="23" fill="#FEFECE" filter="url(#f1gv83r2c1848i)" height="89.5078" id="BaseDados" style="stroke:#A80036;stroke-width:1.5;" width="126" x="45.5" y="452"/><ellipse cx="73.1" cy="468" fill="#ADD1B2" rx="11" ry="11" style="stroke:#A80036;stroke-width:1.0;"/><path d="M75.1,464.5 Q75.3031,464 75.5375,463.75 Q75.7719,463.5 76.0375,463.5 Q76.5063,463.5 76.8031,463.7813 Q77.1,464.0625 77.1,464.7188 L77.1,466.2813 Q77.1,466.9375 76.8188,467.2188 Q76.5375,467.5 76.1,467.5 Q75.7094,467.5 75.4594,467.3281 Q75.2094,467.1563 75.1,466.7031 Q75.0531,466.3906 74.8813,466.2188 Q74.5688,465.8906 74.0063,465.7031 Q73.4438,465.5 72.8813,465.5 Q72.1781,465.5 71.5844,465.7813 Q71.0063,466.0625 70.5531,466.6875 Q70.1,467.3125 70.1,468.1719 L70.1,469.0938 Q70.1,470.125 70.9438,470.8125 Q71.7875,471.5 73.2875,471.5 Q74.1781,471.5 74.8031,471.2969 Q75.1625,471.1875 75.5688,470.8281 Q75.8344,470.625 75.975,470.5625 Q76.1156,470.5 76.2875,470.5 Q76.6156,470.5 76.85,470.7656 Q77.1,471.0156 77.1,471.375 Q77.1,471.7188 76.7563,472.125 Q76.2563,472.7188 75.4594,473.0469 Q74.4125,473.5 73.1313,473.5 Q71.6313,473.5 70.4281,472.9063 Q69.4594,472.4375 68.7719,471.4219 Q68.1,470.4063 68.1,469.2031 L68.1,468.1094 Q68.1,466.8594 68.6938,465.7656 Q69.3031,464.6719 70.35,464.0938 Q71.4125,463.5 72.6,463.5 Q73.3188,463.5 73.9438,463.75 Q74.5688,464 75.1,464.5 Z " fill="#000000"/><text fill="#000000" font-family="sans-serif" font-size="12" lengthAdjust="spacing" textLength="66" x="89.9" y="472.9102">BaseDados</text><line style="stroke:#A80036;stroke-width:1.5;" x1="46.5" x2="170.5" y1="484" y2="484"/><text fill="#000000" font-family="sans-serif" font-size="11" lengthAdjust="spacing" textLength="114" x="51.5" y="499.4189">-Connection connection</text><line style="stroke:#A80036;stroke-width:1.5;" x1="46.5" x2="170.5" y1="505.8359" y2="505.8359"/><text fill="#000000" font-family="sans-serif" font-size="11" lengthAdjust="spacing" textLength="83" x="51.5" y="521.2549">+getConnection()</text><text fill="#000000" font-family="sans-serif" font-size="11" lengthAdjust="spacing" textLength="94" x="51.5" y="535.0908">+closeConnection()</text><!--MD5=[ad510ca42d1a057b37ac2813b8ee5b40]
class Connection--><rect codeLine="29" fill="#FEFECE" filter="url(#f1gv83r2c1848i)" height="48" id="Connection" style="stroke:#A80036;stroke-width:1.5;" width="95" x="61" y="603"/><ellipse cx="76" cy="619" fill="#ADD1B2" rx="11" ry="11" style="stroke:#A80036;stroke-width:1.0;"/><path d="M78,615.5 Q78.2031,615 78.4375,614.75 Q78.6719,614.5 78.9375,614.5 Q79.4063,614.5 79.7031,614.7813 Q80,615.0625 80,615.7188 L80,617.2813 Q80,617.9375 79.7188,618.2188 Q79.4375,618.5 79,618.5 Q78.6094,618.5 78.3594,618.3281 Q78.1094,618.1563 78,617.7031 Q77.9531,617.3906 77.7813,617.2188 Q77.4688,616.8906 76.9063,616.7031 Q76.3438,616.5 75.7813,616.5 Q75.0781,616.5 74.4844,616.7813 Q73.9063,617.0625 73.4531,617.6875 Q73,618.3125 73,619.1719 L73,620.0938 Q73,621.125 73.8438,621.8125 Q74.6875,622.5 76.1875,622.5 Q77.0781,622.5 77.7031,622.2969 Q78.0625,622.1875 78.4688,621.8281 Q78.7344,621.625 78.875,621.5625 Q79.0156,621.5 79.1875,621.5 Q79.5156,621.5 79.75,621.7656 Q80,622.0156 80,622.375 Q80,622.7188 79.6563,623.125 Q79.1563,623.7188 78.3594,624.0469 Q77.3125,624.5 76.0313,624.5 Q74.5313,624.5 73.3281,623.9063 Q72.3594,623.4375 71.6719,622.4219 Q71,621.4063 71,620.2031 L71,619.1094 Q71,617.8594 71.5938,616.7656 Q72.2031,615.6719 73.25,615.0938 Q74.3125,614.5 75.5,614.5 Q76.2188,614.5 76.8438,614.75 Q77.4688,615 78,615.5 Z " fill="#000000"/><text fill="#000000" font-family="sans-serif" font-size="12" lengthAdjust="spacing" textLength="63" x="90" y="623.9102">Connection</text><line style="stroke:#A80036;stroke-width:1.5;" x1="62" x2="155" y1="635" y2="635"/><line style="stroke:#A80036;stroke-width:1.5;" x1="62" x2="155" y1="643" y2="643"/><!--MD5=[6613c9cd406ef433ff06f5e98b28abd9]
class Farmacia--><rect codeLine="32" fill="#FEFECE" filter="url(#f1gv83r2c1848i)" height="61.8359" id="Farmacia" style="stroke:#A80036;stroke-width:1.5;" width="84" x="889.5" y="130"/><ellipse cx="904.5" cy="146" fill="#ADD1B2" rx="11" ry="11" style="stroke:#A80036;stroke-width:1.0;"/><path d="M906.5,142.5 Q906.7031,142 906.9375,141.75 Q907.1719,141.5 907.4375,141.5 Q907.9063,141.5 908.2031,141.7813 Q908.5,142.0625 908.5,142.7188 L908.5,144.2813 Q908.5,144.9375 908.2188,145.2188 Q907.9375,145.5 907.5,145.5 Q907.1094,145.5 906.8594,145.3281 Q906.6094,145.1563 906.5,144.7031 Q906.4531,144.3906 906.2813,144.2188 Q905.9688,143.8906 905.4063,143.7031 Q904.8438,143.5 904.2813,143.5 Q903.5781,143.5 902.9844,143.7813 Q902.4063,144.0625 901.9531,144.6875 Q901.5,145.3125 901.5,146.1719 L901.5,147.0938 Q901.5,148.125 902.3438,148.8125 Q903.1875,149.5 904.6875,149.5 Q905.5781,149.5 906.2031,149.2969 Q906.5625,149.1875 906.9688,148.8281 Q907.2344,148.625 907.375,148.5625 Q907.5156,148.5 907.6875,148.5 Q908.0156,148.5 908.25,148.7656 Q908.5,149.0156 908.5,149.375 Q908.5,149.7188 908.1563,150.125 Q907.6563,150.7188 906.8594,151.0469 Q905.8125,151.5 904.5313,151.5 Q903.0313,151.5 901.8281,150.9063 Q900.8594,150.4375 900.1719,149.4219 Q899.5,148.4063 899.5,147.2031 L899.5,146.1094 Q899.5,144.8594 900.0938,143.7656 Q900.7031,142.6719 901.75,142.0938 Q902.8125,141.5 904,141.5 Q904.7188,141.5 905.3438,141.75 Q905.9688,142 906.5,142.5 Z " fill="#000000"/><text fill="#000000" font-family="sans-serif" font-size="12" lengthAdjust="spacing" textLength="52" x="918.5" y="150.9102">Farmacia</text><line style="stroke:#A80036;stroke-width:1.5;" x1="890.5" x2="972.5" y1="162" y2="162"/><line style="stroke:#A80036;stroke-width:1.5;" x1="890.5" x2="972.5" y1="170" y2="170"/><text fill="#000000" font-family="sans-serif" font-size="11" lengthAdjust="spacing" textLength="37" x="895.5" y="185.4189">+getId()</text><!--MD5=[3707309d909513970d98cd7082f3ca19]
class FarmaciaBD--><rect codeLine="36" fill="#FEFECE" filter="url(#f1gv83r2c1848i)" height="61.8359" id="FarmaciaBD" style="stroke:#A80036;stroke-width:1.5;" width="188" x="316.5" y="298"/><ellipse cx="371.75" cy="314" fill="#ADD1B2" rx="11" ry="11" style="stroke:#A80036;stroke-width:1.0;"/><path d="M373.75,310.5 Q373.9531,310 374.1875,309.75 Q374.4219,309.5 374.6875,309.5 Q375.1563,309.5 375.4531,309.7813 Q375.75,310.0625 375.75,310.7188 L375.75,312.2813 Q375.75,312.9375 375.4688,313.2188 Q375.1875,313.5 374.75,313.5 Q374.3594,313.5 374.1094,313.3281 Q373.8594,313.1563 373.75,312.7031 Q373.7031,312.3906 373.5313,312.2188 Q373.2188,311.8906 372.6563,311.7031 Q372.0938,311.5 371.5313,311.5 Q370.8281,311.5 370.2344,311.7813 Q369.6563,312.0625 369.2031,312.6875 Q368.75,313.3125 368.75,314.1719 L368.75,315.0938 Q368.75,316.125 369.5938,316.8125 Q370.4375,317.5 371.9375,317.5 Q372.8281,317.5 373.4531,317.2969 Q373.8125,317.1875 374.2188,316.8281 Q374.4844,316.625 374.625,316.5625 Q374.7656,316.5 374.9375,316.5 Q375.2656,316.5 375.5,316.7656 Q375.75,317.0156 375.75,317.375 Q375.75,317.7188 375.4063,318.125 Q374.9063,318.7188 374.1094,319.0469 Q373.0625,319.5 371.7813,319.5 Q370.2813,319.5 369.0781,318.9063 Q368.1094,318.4375 367.4219,317.4219 Q366.75,316.4063 366.75,315.2031 L366.75,314.1094 Q366.75,312.8594 367.3438,311.7656 Q367.9531,310.6719 369,310.0938 Q370.0625,309.5 371.25,309.5 Q371.9688,309.5 372.5938,309.75 Q373.2188,310 373.75,310.5 Z " fill="#000000"/><text fill="#000000" font-family="sans-serif" font-size="12" lengthAdjust="spacing" textLength="69" x="392.25" y="318.9102">FarmaciaBD</text><line style="stroke:#A80036;stroke-width:1.5;" x1="317.5" x2="503.5" y1="330" y2="330"/><line style="stroke:#A80036;stroke-width:1.5;" x1="317.5" x2="503.5" y1="338" y2="338"/><text fill="#000000" font-family="sans-serif" font-size="11" lengthAdjust="spacing" textLength="176" x="322.5" y="353.4189">+getFarmaciaByGestor(emailGestor)</text><!--MD5=[380d12a68ed0046a60f31008a02875d0]
class AplicacaoPOT--><rect codeLine="40" fill="#FEFECE" filter="url(#f1gv83r2c1848i)" height="75.6719" id="AplicacaoPOT" style="stroke:#A80036;stroke-width:1.5;" width="109" x="540" y="291"/><ellipse cx="555" cy="307" fill="#ADD1B2" rx="11" ry="11" style="stroke:#A80036;stroke-width:1.0;"/><path d="M557,303.5 Q557.2031,303 557.4375,302.75 Q557.6719,302.5 557.9375,302.5 Q558.4063,302.5 558.7031,302.7813 Q559,303.0625 559,303.7188 L559,305.2813 Q559,305.9375 558.7188,306.2188 Q558.4375,306.5 558,306.5 Q557.6094,306.5 557.3594,306.3281 Q557.1094,306.1563 557,305.7031 Q556.9531,305.3906 556.7813,305.2188 Q556.4688,304.8906 555.9063,304.7031 Q555.3438,304.5 554.7813,304.5 Q554.0781,304.5 553.4844,304.7813 Q552.9063,305.0625 552.4531,305.6875 Q552,306.3125 552,307.1719 L552,308.0938 Q552,309.125 552.8438,309.8125 Q553.6875,310.5 555.1875,310.5 Q556.0781,310.5 556.7031,310.2969 Q557.0625,310.1875 557.4688,309.8281 Q557.7344,309.625 557.875,309.5625 Q558.0156,309.5 558.1875,309.5 Q558.5156,309.5 558.75,309.7656 Q559,310.0156 559,310.375 Q559,310.7188 558.6563,311.125 Q558.1563,311.7188 557.3594,312.0469 Q556.3125,312.5 555.0313,312.5 Q553.5313,312.5 552.3281,311.9063 Q551.3594,311.4375 550.6719,310.4219 Q550,309.4063 550,308.2031 L550,307.1094 Q550,305.8594 550.5938,304.7656 Q551.2031,303.6719 552.25,303.0938 Q553.3125,302.5 554.5,302.5 Q555.2188,302.5 555.8438,302.75 Q556.4688,303 557,303.5 Z " fill="#000000"/><text fill="#000000" font-family="sans-serif" font-size="12" lengthAdjust="spacing" textLength="77" x="569" y="311.9102">AplicacaoPOT</text><line style="stroke:#A80036;stroke-width:1.5;" x1="541" x2="648" y1="323" y2="323"/><line style="stroke:#A80036;stroke-width:1.5;" x1="541" x2="648" y1="331" y2="331"/><text fill="#000000" font-family="sans-serif" font-size="11" lengthAdjust="spacing" textLength="70" x="546" y="346.4189">+getInstance()</text><text fill="#000000" font-family="sans-serif" font-size="11" lengthAdjust="spacing" textLength="91" x="546" y="360.2549">+getSessaoAtual()</text><!--MD5=[1e13576e8c070e32200b62ceaa1f39ec]
class SessaoUtilizador--><rect codeLine="45" fill="#FEFECE" filter="url(#f1gv83r2c1848i)" height="61.8359" id="SessaoUtilizador" style="stroke:#A80036;stroke-width:1.5;" width="126" x="684.5" y="298"/><ellipse cx="699.5" cy="314" fill="#ADD1B2" rx="11" ry="11" style="stroke:#A80036;stroke-width:1.0;"/><path d="M701.5,310.5 Q701.7031,310 701.9375,309.75 Q702.1719,309.5 702.4375,309.5 Q702.9063,309.5 703.2031,309.7813 Q703.5,310.0625 703.5,310.7188 L703.5,312.2813 Q703.5,312.9375 703.2188,313.2188 Q702.9375,313.5 702.5,313.5 Q702.1094,313.5 701.8594,313.3281 Q701.6094,313.1563 701.5,312.7031 Q701.4531,312.3906 701.2813,312.2188 Q700.9688,311.8906 700.4063,311.7031 Q699.8438,311.5 699.2813,311.5 Q698.5781,311.5 697.9844,311.7813 Q697.4063,312.0625 696.9531,312.6875 Q696.5,313.3125 696.5,314.1719 L696.5,315.0938 Q696.5,316.125 697.3438,316.8125 Q698.1875,317.5 699.6875,317.5 Q700.5781,317.5 701.2031,317.2969 Q701.5625,317.1875 701.9688,316.8281 Q702.2344,316.625 702.375,316.5625 Q702.5156,316.5 702.6875,316.5 Q703.0156,316.5 703.25,316.7656 Q703.5,317.0156 703.5,317.375 Q703.5,317.7188 703.1563,318.125 Q702.6563,318.7188 701.8594,319.0469 Q700.8125,319.5 699.5313,319.5 Q698.0313,319.5 696.8281,318.9063 Q695.8594,318.4375 695.1719,317.4219 Q694.5,316.4063 694.5,315.2031 L694.5,314.1094 Q694.5,312.8594 695.0938,311.7656 Q695.7031,310.6719 696.75,310.0938 Q697.8125,309.5 699,309.5 Q699.7188,309.5 700.3438,309.75 Q700.9688,310 701.5,310.5 Z " fill="#000000"/><text fill="#000000" font-family="sans-serif" font-size="12" lengthAdjust="spacing" textLength="94" x="713.5" y="318.9102">SessaoUtilizador</text><line style="stroke:#A80036;stroke-width:1.5;" x1="685.5" x2="809.5" y1="330" y2="330"/><line style="stroke:#A80036;stroke-width:1.5;" x1="685.5" x2="809.5" y1="338" y2="338"/><text fill="#000000" font-family="sans-serif" font-size="11" lengthAdjust="spacing" textLength="97" x="690.5" y="353.4189">+getEmailUtilizador()</text><!--MD5=[8af077d71518f0cbf922177eda492261]
class GestorFarmacia--><rect fill="#FEFECE" filter="url(#f1gv83r2c1848i)" height="48" id="GestorFarmacia" style="stroke:#A80036;stroke-width:1.5;" width="121" x="969" y="305"/><ellipse cx="984" cy="321" fill="#ADD1B2" rx="11" ry="11" style="stroke:#A80036;stroke-width:1.0;"/><path d="M986,317.5 Q986.2031,317 986.4375,316.75 Q986.6719,316.5 986.9375,316.5 Q987.4063,316.5 987.7031,316.7813 Q988,317.0625 988,317.7188 L988,319.2813 Q988,319.9375 987.7188,320.2188 Q987.4375,320.5 987,320.5 Q986.6094,320.5 986.3594,320.3281 Q986.1094,320.1563 986,319.7031 Q985.9531,319.3906 985.7813,319.2188 Q985.4688,318.8906 984.9063,318.7031 Q984.3438,318.5 983.7813,318.5 Q983.0781,318.5 982.4844,318.7813 Q981.9063,319.0625 981.4531,319.6875 Q981,320.3125 981,321.1719 L981,322.0938 Q981,323.125 981.8438,323.8125 Q982.6875,324.5 984.1875,324.5 Q985.0781,324.5 985.7031,324.2969 Q986.0625,324.1875 986.4688,323.8281 Q986.7344,323.625 986.875,323.5625 Q987.0156,323.5 987.1875,323.5 Q987.5156,323.5 987.75,323.7656 Q988,324.0156 988,324.375 Q988,324.7188 987.6563,325.125 Q987.1563,325.7188 986.3594,326.0469 Q985.3125,326.5 984.0313,326.5 Q982.5313,326.5 981.3281,325.9063 Q980.3594,325.4375 979.6719,324.4219 Q979,323.4063 979,322.2031 L979,321.1094 Q979,319.8594 979.5938,318.7656 Q980.2031,317.6719 981.25,317.0938 Q982.3125,316.5 983.5,316.5 Q984.2188,316.5 984.8438,316.75 Q985.4688,317 986,317.5 Z " fill="#000000"/><text fill="#000000" font-family="sans-serif" font-size="12" lengthAdjust="spacing" textLength="89" x="998" y="325.9102">GestorFarmacia</text><line style="stroke:#A80036;stroke-width:1.5;" x1="970" x2="1089" y1="337" y2="337"/><line style="stroke:#A80036;stroke-width:1.5;" x1="970" x2="1089" y1="345" y2="345"/><!--MD5=[5dd1d6732c071e710b9290b531f2fa3b]
class Utilizador--><rect fill="#FEFECE" filter="url(#f1gv83r2c1848i)" height="48" id="Utilizador" style="stroke:#A80036;stroke-width:1.5;" width="83" x="1000" y="473"/><ellipse cx="1015" cy="489" fill="#ADD1B2" rx="11" ry="11" style="stroke:#A80036;stroke-width:1.0;"/><path d="M1017,485.5 Q1017.2031,485 1017.4375,484.75 Q1017.6719,484.5 1017.9375,484.5 Q1018.4063,484.5 1018.7031,484.7813 Q1019,485.0625 1019,485.7188 L1019,487.2813 Q1019,487.9375 1018.7188,488.2188 Q1018.4375,488.5 1018,488.5 Q1017.6094,488.5 1017.3594,488.3281 Q1017.1094,488.1563 1017,487.7031 Q1016.9531,487.3906 1016.7813,487.2188 Q1016.4688,486.8906 1015.9063,486.7031 Q1015.3438,486.5 1014.7813,486.5 Q1014.0781,486.5 1013.4844,486.7813 Q1012.9063,487.0625 1012.4531,487.6875 Q1012,488.3125 1012,489.1719 L1012,490.0938 Q1012,491.125 1012.8438,491.8125 Q1013.6875,492.5 1015.1875,492.5 Q1016.0781,492.5 1016.7031,492.2969 Q1017.0625,492.1875 1017.4688,491.8281 Q1017.7344,491.625 1017.875,491.5625 Q1018.0156,491.5 1018.1875,491.5 Q1018.5156,491.5 1018.75,491.7656 Q1019,492.0156 1019,492.375 Q1019,492.7188 1018.6563,493.125 Q1018.1563,493.7188 1017.3594,494.0469 Q1016.3125,494.5 1015.0313,494.5 Q1013.5313,494.5 1012.3281,493.9063 Q1011.3594,493.4375 1010.6719,492.4219 Q1010,491.4063 1010,490.2031 L1010,489.1094 Q1010,487.8594 1010.5938,486.7656 Q1011.2031,485.6719 1012.25,485.0938 Q1013.3125,484.5 1014.5,484.5 Q1015.2188,484.5 1015.8438,484.75 Q1016.4688,485 1017,485.5 Z " fill="#000000"/><text fill="#000000" font-family="sans-serif" font-size="12" lengthAdjust="spacing" textLength="51" x="1029" y="493.9102">Utilizador</text><line style="stroke:#A80036;stroke-width:1.5;" x1="1001" x2="1082" y1="505" y2="505"/><line style="stroke:#A80036;stroke-width:1.5;" x1="1001" x2="1082" y1="513" y2="513"/><!--MD5=[7ee587b7905e9132db4a8077b45d9573]
link AdicionarStockProdutoUI to AdicionarStockProdutoController--><path codeLine="49" d="M410.5,55.18 C410.5,70.59 410.5,91.42 410.5,110.45 " fill="none" id="AdicionarStockProdutoUI-to-AdicionarStockProdutoController" style="stroke:#A80036;stroke-width:1.0;stroke-dasharray:7.0,7.0;"/><polygon fill="#A80036" points="410.5,115.76,414.5,106.76,410.5,110.76,406.5,106.76,410.5,115.76" style="stroke:#A80036;stroke-width:1.0;"/><!--MD5=[6f56d5c43fd69eae58b779e3e1966cd4]
link AdicionarStockProdutoController to ProdutoBD--><path codeLine="50" d="M297.59,206.12 C277.21,215.25 256.44,225.36 237.5,236 C214.23,249.07 190.07,265.45 169.03,280.76 " fill="none" id="AdicionarStockProdutoController-to-ProdutoBD" style="stroke:#A80036;stroke-width:1.0;stroke-dasharray:7.0,7.0;"/><polygon fill="#A80036" points="164.87,283.8,174.4921,281.6989,168.9007,280.8413,169.7582,275.2499,164.87,283.8" style="stroke:#A80036;stroke-width:1.0;"/><!--MD5=[20a34760fc31edb48253bdee05cc2a83]
link AdicionarStockProdutoController to Produto--><path codeLine="51" d="M354.85,206.18 C332.88,227.13 310.13,254.13 298.5,284 C283.99,321.27 276.71,340.45 298.5,374 C349.94,453.22 466.06,481.43 529.36,491.14 " fill="none" id="AdicionarStockProdutoController-to-Produto" style="stroke:#A80036;stroke-width:1.0;stroke-dasharray:7.0,7.0;"/><polygon fill="#A80036" points="534.58,491.92,526.2744,486.6268,529.6355,491.1769,525.0855,494.538,534.58,491.92" style="stroke:#A80036;stroke-width:1.0;"/><!--MD5=[04bfe2720f3beec1b335d6d48a6e6b2b]
link AdicionarStockProdutoController to FarmaciaBD--><path codeLine="52" d="M410.5,206.05 C410.5,233.13 410.5,267.37 410.5,292.67 " fill="none" id="AdicionarStockProdutoController-to-FarmaciaBD" style="stroke:#A80036;stroke-width:1.0;stroke-dasharray:7.0,7.0;"/><polygon fill="#A80036" points="410.5,297.92,414.5,288.92,410.5,292.92,406.5,288.92,410.5,297.92" style="stroke:#A80036;stroke-width:1.0;"/><!--MD5=[ba73ea3b60b4e15b7ac29774969502e1]
link AdicionarStockProdutoController to AplicacaoPOT--><path codeLine="53" d="M459.33,206.05 C487.23,231.23 521.99,262.58 549.27,287.2 " fill="none" id="AdicionarStockProdutoController-to-AplicacaoPOT" style="stroke:#A80036;stroke-width:1.0;stroke-dasharray:7.0,7.0;"/><polygon fill="#A80036" points="553.24,290.78,549.2262,281.7861,549.5235,287.4352,543.8745,287.7325,553.24,290.78" style="stroke:#A80036;stroke-width:1.0;"/><!--MD5=[c5362a7927d7ce68a57f274630e84f07]
link AdicionarStockProdutoController to SessaoUtilizador--><path codeLine="54" d="M505.91,206 C554.32,228.7 613.86,257.18 666.5,284 C673.59,287.61 680.97,291.48 688.28,295.36 " fill="none" id="AdicionarStockProdutoController-to-SessaoUtilizador" style="stroke:#A80036;stroke-width:1.0;stroke-dasharray:7.0,7.0;"/><polygon fill="#A80036" points="692.81,297.78,686.7551,290.0122,688.3994,295.4248,682.9868,297.0692,692.81,297.78" style="stroke:#A80036;stroke-width:1.0;"/><!--MD5=[b104cd17e960f3e38e425aba2c830c23]
link ProdutoBD to Produto--><path codeLine="56" d="M160.16,374.11 C182.65,391.33 210.1,409.82 237.5,422 C336.69,466.11 464.44,484.92 529.81,492.1 " fill="none" id="ProdutoBD-to-Produto" style="stroke:#A80036;stroke-width:1.0;stroke-dasharray:7.0,7.0;"/><polygon fill="#A80036" points="534.79,492.63,526.2774,487.6767,529.8195,492.0872,525.409,495.6294,534.79,492.63" style="stroke:#A80036;stroke-width:1.0;"/><!--MD5=[db4a5ac14aaeb2d946b80db0d46ff947]
link Farmacia to Produto--><path codeLine="58" d="M923.8,192.12 C910.95,236.99 881.21,321.68 828.5,374 C765.6,436.43 664.59,471.38 610.16,486.63 " fill="none" id="Farmacia-Produto" style="stroke:#A80036;stroke-width:1.0;"/><polygon fill="#000000" points="888.8551,332.5984,897.4606,328.5493,893.4371,324.2644,888.8551,332.5984" style="stroke:#000000;stroke-width:1.0;"/><text fill="#000000" font-family="sans-serif" font-size="13" lengthAdjust="spacing" textLength="38" x="901.5" y="334.4951">possui</text><text fill="#000000" font-family="sans-serif" font-size="13" lengthAdjust="spacing" textLength="7" x="914.595" y="213.3676">1</text><text fill="#000000" font-family="sans-serif" font-size="13" lengthAdjust="spacing" textLength="20" x="618.0537" y="481.1117">0..*</text><!--MD5=[1cf6c53149ab3559ee7cfdfd47d8f21a]
link Farmacia to GestorFarmacia--><path codeLine="59" d="M949.25,192.06 C968.39,224.48 998.45,275.4 1015.83,304.85 " fill="none" id="Farmacia-GestorFarmacia" style="stroke:#A80036;stroke-width:1.0;"/><polygon fill="#000000" points="990.0417,249.4816,987.9746,240.1984,982.9128,243.1863,990.0417,249.4816" style="stroke:#000000;stroke-width:1.0;"/><text fill="#000000" font-family="sans-serif" font-size="13" lengthAdjust="spacing" textLength="38" x="996.5" y="250.4951">possui</text><text fill="#000000" font-family="sans-serif" font-size="13" lengthAdjust="spacing" textLength="7" x="945.0555" y="213.2958">1</text><text fill="#000000" font-family="sans-serif" font-size="13" lengthAdjust="spacing" textLength="7" x="1004.4302" y="294.1517">1</text><!--MD5=[6579fa845099eddb52660b54116332b2]
link GestorFarmacia to Utilizador--><path codeLine="60" d="M1031.17,353.08 C1033.45,384.71 1037.54,441.18 1039.83,472.85 " fill="none" id="GestorFarmacia-Utilizador" style="stroke:#A80036;stroke-width:1.0;"/><polygon fill="#000000" points="1040.8606,418.1628,1043.1396,408.9293,1037.277,409.3532,1040.8606,418.1628" style="stroke:#000000;stroke-width:1.0;"/><text fill="#000000" font-family="sans-serif" font-size="13" lengthAdjust="spacing" textLength="61" x="1049.5" y="418.4951">atua como</text><text fill="#000000" font-family="sans-serif" font-size="13" lengthAdjust="spacing" textLength="7" x="1023.7239" y="374.4375">1</text><text fill="#000000" font-family="sans-serif" font-size="13" lengthAdjust="spacing" textLength="7" x="1031.5052" y="462.1517">1</text><!--MD5=[765c935f4295be2e85b0f0f7d4f6aad5]
link GestorFarmacia to Produto--><path codeLine="61" d="M1003.52,353.11 C978.55,374.12 938.9,404.44 899.5,422 C800.61,466.07 672.8,485.16 610.3,492.31 " fill="none" id="GestorFarmacia-Produto" style="stroke:#A80036;stroke-width:1.0;"/><polygon fill="#000000" points="929.7866,414.8443,939.2939,414.5964,937.3325,409.0554,929.7866,414.8443" style="stroke:#000000;stroke-width:1.0;"/><text fill="#000000" font-family="sans-serif" font-size="13" lengthAdjust="spacing" textLength="48" x="943.5" y="418.4951">adiciona</text><text fill="#000000" font-family="sans-serif" font-size="13" lengthAdjust="spacing" textLength="7" x="989.3343" y="374.4748">1</text><text fill="#000000" font-family="sans-serif" font-size="13" lengthAdjust="spacing" textLength="20" x="617.9181" y="506.3607">0..*</text><!--MD5=[13ad64eb49d11895b15dedd182a09dd2]
link ProdutoBD to BaseDados--><path codeLine="64" d="M108.5,374.05 C108.5,396.37 108.5,423.56 108.5,446.59 " fill="none" id="ProdutoBD-to-BaseDados" style="stroke:#A80036;stroke-width:1.0;stroke-dasharray:7.0,7.0;"/><polygon fill="#A80036" points="108.5,451.75,112.5257,442.7615,108.5143,446.75,104.5257,442.7386,108.5,451.75" style="stroke:#A80036;stroke-width:1.0;"/><!--MD5=[833997655fa73f2d0e64c27665136239]
link BaseDados to Connection--><path codeLine="65" d="M108.5,542.05 C108.5,560.37 108.5,581.12 108.5,597.4 " fill="none" id="BaseDados-to-Connection" style="stroke:#A80036;stroke-width:1.0;stroke-dasharray:7.0,7.0;"/><polygon fill="#A80036" points="108.5,602.74,112.5,593.74,108.5,597.74,104.5,593.74,108.5,602.74" style="stroke:#A80036;stroke-width:1.0;"/><!--MD5=[2ce2e7e025655e97607b0932e3f38dd6]
@startuml

skinparam classAttributeIconSize 0


Class AdicionarStockProdutoUI{

}

Class AdicionarStockProdutoController{
    +getProdutosByFarmacia()
    +validaProduto(idProduto)
    +alteraStockProduto(idProduto,stockAdicionar)
}

Class ProdutoBD{
    +getProdutoByFarmacia(idFarmacia)
    +validarProdutoId(idFarmacia,idProduto)
    +setStock(idProduto,stockAdicionar)
}
class Produto{

}
class BaseDados{
  -Connection connection
  +getConnection()
  +closeConnection()
}

class Connection {
}

class Farmacia{
    +getId()
}

class FarmaciaBD{
    +getFarmaciaByGestor(emailGestor)
}

class AplicacaoPOT{
    +getInstance()
    +getSessaoAtual()
}

class SessaoUtilizador{
    +getEmailUtilizador()
}

AdicionarStockProdutoUI ..> AdicionarStockProdutoController
AdicionarStockProdutoController ..> ProdutoBD
AdicionarStockProdutoController ..> Produto
AdicionarStockProdutoController ..> FarmaciaBD
AdicionarStockProdutoController ..> AplicacaoPOT
AdicionarStockProdutoController ..> SessaoUtilizador

ProdutoBD ..> Produto

Farmacia "1" - - "0..*" Produto : possui >
Farmacia "1" - - "1" GestorFarmacia : possui >
GestorFarmacia "1" - - "1" Utilizador : atua como >
GestorFarmacia "1" - - "0..*" Produto : adiciona >


ProdutoBD ..> BaseDados
BaseDados ..> Connection

@enduml

PlantUML version 1.2021.00(Sun Jan 10 10:25:05 GMT 2021)
(GPL source distribution)
Java Runtime: OpenJDK Runtime Environment
JVM: OpenJDK 64-Bit Server VM
Default Encoding: Cp1252
Language: pt
Country: PT
--></g></svg>