<?xml version="1.0" encoding="UTF-8" standalone="no"?><svg xmlns="http://www.w3.org/2000/svg" xmlns:xlink="http://www.w3.org/1999/xlink" contentScriptType="application/ecmascript" contentStyleType="text/css" height="148px" preserveAspectRatio="none" style="width:558px;height:148px;" version="1.1" viewBox="0 0 558 148" width="558px" zoomAndPan="magnify"><defs><filter height="300%" id="fnuisbw4o0bzh" width="300%" x="-1" y="-1"><feGaussianBlur result="blurOut" stdDeviation="2.0"/><feColorMatrix in="blurOut" result="blurOut2" type="matrix" values="0 0 0 0 0 0 0 0 0 0 0 0 0 0 0 0 0 0 .4 0"/><feOffset dx="4.0" dy="4.0" in="blurOut2" result="blurOut3"/><feBlend in="SourceGraphic" in2="blurOut3" mode="normal"/></filter></defs><g><!--MD5=[d4dacc50d49878ba7c621dfc80a2e1ce]
class Produto--><rect codeLine="8" fill="#FEFECE" filter="url(#fnuisbw4o0bzh)" height="40" id="Produto" style="stroke:#A80036;stroke-width:1.5;" width="75" x="465" y="7"/><ellipse cx="480" cy="23" fill="#ADD1B2" rx="11" ry="11" style="stroke:#A80036;stroke-width:1.0;"/><path d="M482,19.5 Q482.2031,19 482.4375,18.75 Q482.6719,18.5 482.9375,18.5 Q483.4063,18.5 483.7031,18.7813 Q484,19.0625 484,19.7188 L484,21.2813 Q484,21.9375 483.7188,22.2188 Q483.4375,22.5 483,22.5 Q482.6094,22.5 482.3594,22.3281 Q482.1094,22.1563 482,21.7031 Q481.9531,21.3906 481.7813,21.2188 Q481.4688,20.8906 480.9063,20.7031 Q480.3438,20.5 479.7813,20.5 Q479.0781,20.5 478.4844,20.7813 Q477.9063,21.0625 477.4531,21.6875 Q477,22.3125 477,23.1719 L477,24.0938 Q477,25.125 477.8438,25.8125 Q478.6875,26.5 480.1875,26.5 Q481.0781,26.5 481.7031,26.2969 Q482.0625,26.1875 482.4688,25.8281 Q482.7344,25.625 482.875,25.5625 Q483.0156,25.5 483.1875,25.5 Q483.5156,25.5 483.75,25.7656 Q484,26.0156 484,26.375 Q484,26.7188 483.6563,27.125 Q483.1563,27.7188 482.3594,28.0469 Q481.3125,28.5 480.0313,28.5 Q478.5313,28.5 477.3281,27.9063 Q476.3594,27.4375 475.6719,26.4219 Q475,25.4063 475,24.2031 L475,23.1094 Q475,21.8594 475.5938,20.7656 Q476.2031,19.6719 477.25,19.0938 Q478.3125,18.5 479.5,18.5 Q480.2188,18.5 480.8438,18.75 Q481.4688,19 482,19.5 Z " fill="#000000"/><text fill="#000000" font-family="sans-serif" font-size="12" lengthAdjust="spacing" textLength="43" x="494" y="27.9102">Produto</text><line style="stroke:#A80036;stroke-width:1.5;" x1="466" x2="539" y1="39" y2="39"/><!--MD5=[5dd1d6732c071e710b9290b531f2fa3b]
class Utilizador--><rect codeLine="10" fill="#FEFECE" filter="url(#fnuisbw4o0bzh)" height="40" id="Utilizador" style="stroke:#A80036;stroke-width:1.5;" width="83" x="461" y="94"/><ellipse cx="476" cy="110" fill="#ADD1B2" rx="11" ry="11" style="stroke:#A80036;stroke-width:1.0;"/><path d="M478,106.5 Q478.2031,106 478.4375,105.75 Q478.6719,105.5 478.9375,105.5 Q479.4063,105.5 479.7031,105.7813 Q480,106.0625 480,106.7188 L480,108.2813 Q480,108.9375 479.7188,109.2188 Q479.4375,109.5 479,109.5 Q478.6094,109.5 478.3594,109.3281 Q478.1094,109.1563 478,108.7031 Q477.9531,108.3906 477.7813,108.2188 Q477.4688,107.8906 476.9063,107.7031 Q476.3438,107.5 475.7813,107.5 Q475.0781,107.5 474.4844,107.7813 Q473.9063,108.0625 473.4531,108.6875 Q473,109.3125 473,110.1719 L473,111.0938 Q473,112.125 473.8438,112.8125 Q474.6875,113.5 476.1875,113.5 Q477.0781,113.5 477.7031,113.2969 Q478.0625,113.1875 478.4688,112.8281 Q478.7344,112.625 478.875,112.5625 Q479.0156,112.5 479.1875,112.5 Q479.5156,112.5 479.75,112.7656 Q480,113.0156 480,113.375 Q480,113.7188 479.6563,114.125 Q479.1563,114.7188 478.3594,115.0469 Q477.3125,115.5 476.0313,115.5 Q474.5313,115.5 473.3281,114.9063 Q472.3594,114.4375 471.6719,113.4219 Q471,112.4063 471,111.2031 L471,110.1094 Q471,108.8594 471.5938,107.7656 Q472.2031,106.6719 473.25,106.0938 Q474.3125,105.5 475.5,105.5 Q476.2188,105.5 476.8438,105.75 Q477.4688,106 478,106.5 Z " fill="#000000"/><text fill="#000000" font-family="sans-serif" font-size="12" lengthAdjust="spacing" textLength="51" x="490" y="114.9102">Utilizador</text><line style="stroke:#A80036;stroke-width:1.5;" x1="462" x2="543" y1="126" y2="126"/><!--MD5=[8af077d71518f0cbf922177eda492261]
class GestorFarmacia--><rect codeLine="12" fill="#FEFECE" filter="url(#fnuisbw4o0bzh)" height="40" id="GestorFarmacia" style="stroke:#A80036;stroke-width:1.5;" width="121" x="204" y="85"/><ellipse cx="219" cy="101" fill="#ADD1B2" rx="11" ry="11" style="stroke:#A80036;stroke-width:1.0;"/><path d="M221,97.5 Q221.2031,97 221.4375,96.75 Q221.6719,96.5 221.9375,96.5 Q222.4063,96.5 222.7031,96.7813 Q223,97.0625 223,97.7188 L223,99.2813 Q223,99.9375 222.7188,100.2188 Q222.4375,100.5 222,100.5 Q221.6094,100.5 221.3594,100.3281 Q221.1094,100.1563 221,99.7031 Q220.9531,99.3906 220.7813,99.2188 Q220.4688,98.8906 219.9063,98.7031 Q219.3438,98.5 218.7813,98.5 Q218.0781,98.5 217.4844,98.7813 Q216.9063,99.0625 216.4531,99.6875 Q216,100.3125 216,101.1719 L216,102.0938 Q216,103.125 216.8438,103.8125 Q217.6875,104.5 219.1875,104.5 Q220.0781,104.5 220.7031,104.2969 Q221.0625,104.1875 221.4688,103.8281 Q221.7344,103.625 221.875,103.5625 Q222.0156,103.5 222.1875,103.5 Q222.5156,103.5 222.75,103.7656 Q223,104.0156 223,104.375 Q223,104.7188 222.6563,105.125 Q222.1563,105.7188 221.3594,106.0469 Q220.3125,106.5 219.0313,106.5 Q217.5313,106.5 216.3281,105.9063 Q215.3594,105.4375 214.6719,104.4219 Q214,103.4063 214,102.2031 L214,101.1094 Q214,99.8594 214.5938,98.7656 Q215.2031,97.6719 216.25,97.0938 Q217.3125,96.5 218.5,96.5 Q219.2188,96.5 219.8438,96.75 Q220.4688,97 221,97.5 Z " fill="#000000"/><text fill="#000000" font-family="sans-serif" font-size="12" lengthAdjust="spacing" textLength="89" x="233" y="105.9102">GestorFarmacia</text><line style="stroke:#A80036;stroke-width:1.5;" x1="205" x2="324" y1="117" y2="117"/><!--MD5=[6613c9cd406ef433ff06f5e98b28abd9]
class Farmacia--><rect codeLine="14" fill="#FEFECE" filter="url(#fnuisbw4o0bzh)" height="40" id="Farmacia" style="stroke:#A80036;stroke-width:1.5;" width="84" x="7" y="40"/><ellipse cx="22" cy="56" fill="#ADD1B2" rx="11" ry="11" style="stroke:#A80036;stroke-width:1.0;"/><path d="M24,52.5 Q24.2031,52 24.4375,51.75 Q24.6719,51.5 24.9375,51.5 Q25.4063,51.5 25.7031,51.7813 Q26,52.0625 26,52.7188 L26,54.2813 Q26,54.9375 25.7188,55.2188 Q25.4375,55.5 25,55.5 Q24.6094,55.5 24.3594,55.3281 Q24.1094,55.1563 24,54.7031 Q23.9531,54.3906 23.7813,54.2188 Q23.4688,53.8906 22.9063,53.7031 Q22.3438,53.5 21.7813,53.5 Q21.0781,53.5 20.4844,53.7813 Q19.9063,54.0625 19.4531,54.6875 Q19,55.3125 19,56.1719 L19,57.0938 Q19,58.125 19.8438,58.8125 Q20.6875,59.5 22.1875,59.5 Q23.0781,59.5 23.7031,59.2969 Q24.0625,59.1875 24.4688,58.8281 Q24.7344,58.625 24.875,58.5625 Q25.0156,58.5 25.1875,58.5 Q25.5156,58.5 25.75,58.7656 Q26,59.0156 26,59.375 Q26,59.7188 25.6563,60.125 Q25.1563,60.7188 24.3594,61.0469 Q23.3125,61.5 22.0313,61.5 Q20.5313,61.5 19.3281,60.9063 Q18.3594,60.4375 17.6719,59.4219 Q17,58.4063 17,57.2031 L17,56.1094 Q17,54.8594 17.5938,53.7656 Q18.2031,52.6719 19.25,52.0938 Q20.3125,51.5 21.5,51.5 Q22.2188,51.5 22.8438,51.75 Q23.4688,52 24,52.5 Z " fill="#000000"/><text fill="#000000" font-family="sans-serif" font-size="12" lengthAdjust="spacing" textLength="52" x="36" y="60.9102">Farmacia</text><line style="stroke:#A80036;stroke-width:1.5;" x1="8" x2="90" y1="72" y2="72"/><!--MD5=[db4a5ac14aaeb2d946b80db0d46ff947]
link Farmacia to Produto--><path codeLine="16" d="M91.23,53.63 C100.97,52.28 111.34,50.97 121,50 C246.93,37.35 397.07,30.76 464.96,28.24 " fill="none" id="Farmacia-Produto" style="stroke:#A80036;stroke-width:1.0;"/><polygon fill="#000000" points="247.9885,25.8369,238.765,23.5178,239.1634,29.3821,247.9885,25.8369" style="stroke:#000000;stroke-width:1.0;"/><text fill="#000000" font-family="sans-serif" font-size="13" lengthAdjust="spacing" textLength="38" x="252" y="31.4951">possui</text><text fill="#000000" font-family="sans-serif" font-size="13" lengthAdjust="spacing" textLength="7" x="99.0898" y="67.4355">1</text><text fill="#000000" font-family="sans-serif" font-size="13" lengthAdjust="spacing" textLength="20" x="437.0862" y="43.2946">0..*</text><!--MD5=[1cf6c53149ab3559ee7cfdfd47d8f21a]
link Farmacia to GestorFarmacia--><path codeLine="18" d="M91.16,68.68 C123.15,75.42 167.97,84.87 203.89,92.44 " fill="none" id="Farmacia-GestorFarmacia" style="stroke:#A80036;stroke-width:1.0;"/><polygon fill="#000000" points="130.8925,68.207,122.648,63.4658,121.4358,69.2173,130.8925,68.207" style="stroke:#000000;stroke-width:1.0;"/><text fill="#000000" font-family="sans-serif" font-size="13" lengthAdjust="spacing" textLength="38" x="135" y="72.4951">possui</text><text fill="#000000" font-family="sans-serif" font-size="13" lengthAdjust="spacing" textLength="7" x="99.0078" y="85.0722">1</text><text fill="#000000" font-family="sans-serif" font-size="13" lengthAdjust="spacing" textLength="7" x="189.0766" y="105.4008">1</text><!--MD5=[6579fa845099eddb52660b54116332b2]
link GestorFarmacia to Utilizador--><path codeLine="20" d="M325.09,114.11 C335.05,115.32 345.3,116.35 355,117 C388.7,119.25 397.23,117.72 431,117 C440.68,116.79 451.09,116.43 460.87,116.02 " fill="none" id="GestorFarmacia-Utilizador" style="stroke:#A80036;stroke-width:1.0;"/><polygon fill="#000000" points="364.9995,108.2461,355.9967,105.1802,355.914,111.0575,364.9995,108.2461" style="stroke:#000000;stroke-width:1.0;"/><text fill="#000000" font-family="sans-serif" font-size="13" lengthAdjust="spacing" textLength="61" x="369" y="113.4951">atua como</text><text fill="#000000" font-family="sans-serif" font-size="13" lengthAdjust="spacing" textLength="7" x="332.901" y="129.7118">1</text><text fill="#000000" font-family="sans-serif" font-size="13" lengthAdjust="spacing" textLength="7" x="446.1133" y="131.2675">1</text><!--MD5=[765c935f4295be2e85b0f0f7d4f6aad5]
link GestorFarmacia to Produto--><path codeLine="22" d="M325.18,90.8 C356.97,82.64 396.53,71.53 431,59 C442.24,54.91 454.19,49.8 464.99,44.87 " fill="none" id="GestorFarmacia-Produto" style="stroke:#A80036;stroke-width:1.0;"/><polygon fill="#000000" points="371.2502,48.6152,361.7397,48.6462,363.5742,54.2304,371.2502,48.6152" style="stroke:#000000;stroke-width:1.0;"/><text fill="#000000" font-family="sans-serif" font-size="13" lengthAdjust="spacing" textLength="48" x="375.5" y="55.4951">adiciona</text><text fill="#000000" font-family="sans-serif" font-size="13" lengthAdjust="spacing" textLength="7" x="333.0019" y="103.5609">1</text><text fill="#000000" font-family="sans-serif" font-size="13" lengthAdjust="spacing" textLength="20" x="437.1212" y="62.6789">0..*</text><!--MD5=[85c04304c440096ac04b56c4ea9d8154]
@startuml

skinparam classAttributeIconSize 0

hide methods

left to right direction

class Produto{}

class Utilizador{}

class GestorFarmacia{}

class Farmacia{}

Farmacia "1" - - "0..*" Produto : possui >

Farmacia "1" - - "1" GestorFarmacia : possui >

GestorFarmacia "1" - - "1" Utilizador : atua como >

GestorFarmacia "1" - - "0..*" Produto : adiciona >


@enduml

PlantUML version 1.2021.00(Sun Jan 10 10:25:05 GMT 2021)
(GPL source distribution)
Java Runtime: OpenJDK Runtime Environment
JVM: OpenJDK 64-Bit Server VM
Default Encoding: Cp1252
Language: pt
Country: PT
--></g></svg>