<?xml version="1.0" encoding="UTF-8" standalone="no"?><svg xmlns="http://www.w3.org/2000/svg" xmlns:xlink="http://www.w3.org/1999/xlink" contentScriptType="application/ecmascript" contentStyleType="text/css" height="412px" preserveAspectRatio="none" style="width:677px;height:412px;" version="1.1" viewBox="0 0 677 412" width="677px" zoomAndPan="magnify"><defs><filter height="300%" id="fahqnwva3ceao" width="300%" x="-1" y="-1"><feGaussianBlur result="blurOut" stdDeviation="2.0"/><feColorMatrix in="blurOut" result="blurOut2" type="matrix" values="0 0 0 0 0 0 0 0 0 0 0 0 0 0 0 0 0 0 .4 0"/><feOffset dx="4.0" dy="4.0" in="blurOut2" result="blurOut3"/><feBlend in="SourceGraphic" in2="blurOut3" mode="normal"/></filter></defs><g><rect fill="#FFFFFF" filter="url(#fahqnwva3ceao)" height="174.1094" style="stroke:#A80036;stroke-width:1.0;" width="10" x="54" y="117.2188"/><rect fill="#FFFFFF" filter="url(#fahqnwva3ceao)" height="30.3516" style="stroke:#A80036;stroke-width:1.0;" width="10" x="626" y="139.5703"/><rect fill="#FFFFFF" filter="url(#fahqnwva3ceao)" height="30.3516" style="stroke:#A80036;stroke-width:1.0;" width="10" x="626" y="200.2734"/><rect fill="#FFFFFF" filter="url(#fahqnwva3ceao)" height="30.3516" style="stroke:#A80036;stroke-width:1.0;" width="10" x="626" y="260.9766"/><line style="stroke:#A80036;stroke-width:1.0;stroke-dasharray:5.0,5.0;" x1="59" x2="59" y1="107.2188" y2="309.3281"/><line style="stroke:#A80036;stroke-width:1.0;stroke-dasharray:5.0,5.0;" x1="631" x2="631" y1="107.2188" y2="309.3281"/><text fill="#000000" font-family="sans-serif" font-size="14" lengthAdjust="spacing" textLength="102" x="5" y="86.5332">GestorFarmacia</text><text fill="#000000" font-family="sans-serif" font-size="14" lengthAdjust="spacing" textLength="0" x="58" y="104.1426"/><ellipse cx="59" cy="15" fill="#FEFECE" filter="url(#fahqnwva3ceao)" rx="8" ry="8" style="stroke:#A80036;stroke-width:2.0;"/><path d="M59,23 L59,50 M46,31 L72,31 M59,50 L46,65 M59,50 L72,65 " fill="none" filter="url(#fahqnwva3ceao)" style="stroke:#A80036;stroke-width:2.0;"/><text fill="#000000" font-family="sans-serif" font-size="14" lengthAdjust="spacing" textLength="102" x="5" y="322.8613">GestorFarmacia</text><text fill="#000000" font-family="sans-serif" font-size="14" lengthAdjust="spacing" textLength="0" x="58" y="340.4707"/><ellipse cx="59" cy="353.5469" fill="#FEFECE" filter="url(#fahqnwva3ceao)" rx="8" ry="8" style="stroke:#A80036;stroke-width:2.0;"/><path d="M59,361.5469 L59,388.5469 M46,369.5469 L72,369.5469 M59,388.5469 L46,403.5469 M59,388.5469 L72,403.5469 " fill="none" filter="url(#fahqnwva3ceao)" style="stroke:#A80036;stroke-width:2.0;"/><rect fill="#FEFECE" filter="url(#fahqnwva3ceao)" height="31.6094" style="stroke:#A80036;stroke-width:1.5;" width="68" x="595" y="70.6094"/><text fill="#000000" font-family="sans-serif" font-size="14" lengthAdjust="spacing" textLength="54" x="602" y="92.1426">:Sistema</text><rect fill="#FEFECE" filter="url(#fahqnwva3ceao)" height="31.6094" style="stroke:#A80036;stroke-width:1.5;" width="68" x="595" y="308.3281"/><text fill="#000000" font-family="sans-serif" font-size="14" lengthAdjust="spacing" textLength="54" x="602" y="329.8613">:Sistema</text><rect fill="#FFFFFF" filter="url(#fahqnwva3ceao)" height="174.1094" style="stroke:#A80036;stroke-width:1.0;" width="10" x="54" y="117.2188"/><rect fill="#FFFFFF" filter="url(#fahqnwva3ceao)" height="30.3516" style="stroke:#A80036;stroke-width:1.0;" width="10" x="626" y="139.5703"/><rect fill="#FFFFFF" filter="url(#fahqnwva3ceao)" height="30.3516" style="stroke:#A80036;stroke-width:1.0;" width="10" x="626" y="200.2734"/><rect fill="#FFFFFF" filter="url(#fahqnwva3ceao)" height="30.3516" style="stroke:#A80036;stroke-width:1.0;" width="10" x="626" y="260.9766"/><polygon fill="#A80036" points="614,135.5703,624,139.5703,614,143.5703,618,139.5703" style="stroke:#A80036;stroke-width:1.0;"/><line style="stroke:#A80036;stroke-width:1.0;" x1="64" x2="620" y1="139.5703" y2="139.5703"/><text fill="#000000" font-family="sans-serif" font-size="13" font-weight="bold" lengthAdjust="spacing" textLength="7" x="71" y="134.7139">1</text><text fill="#000000" font-family="sans-serif" font-size="13" lengthAdjust="spacing" textLength="155" x="82" y="134.7139">Adicionar stock de produto</text><polygon fill="#A80036" points="75,165.9219,65,169.9219,75,173.9219,71,169.9219" style="stroke:#A80036;stroke-width:1.0;"/><line style="stroke:#A80036;stroke-width:1.0;stroke-dasharray:2.0,2.0;" x1="69" x2="630" y1="169.9219" y2="169.9219"/><text fill="#000000" font-family="sans-serif" font-size="13" font-weight="bold" lengthAdjust="spacing" textLength="7" x="81" y="165.0654">2</text><text fill="#000000" font-family="sans-serif" font-size="13" lengthAdjust="spacing" textLength="527" x="92" y="165.0654">Apresenta lista de produtos, solicitando a selecao do produto e o valor de stock a adicionar</text><polygon fill="#A80036" points="614,196.2734,624,200.2734,614,204.2734,618,200.2734" style="stroke:#A80036;stroke-width:1.0;"/><line style="stroke:#A80036;stroke-width:1.0;" x1="64" x2="620" y1="200.2734" y2="200.2734"/><text fill="#000000" font-family="sans-serif" font-size="13" font-weight="bold" lengthAdjust="spacing" textLength="7" x="71" y="195.417">3</text><text fill="#000000" font-family="sans-serif" font-size="13" lengthAdjust="spacing" textLength="336" x="82" y="195.417">seleciona o produto e introduz o valor de stock a adicionar</text><polygon fill="#A80036" points="75,226.625,65,230.625,75,234.625,71,230.625" style="stroke:#A80036;stroke-width:1.0;"/><line style="stroke:#A80036;stroke-width:1.0;stroke-dasharray:2.0,2.0;" x1="69" x2="630" y1="230.625" y2="230.625"/><text fill="#000000" font-family="sans-serif" font-size="13" font-weight="bold" lengthAdjust="spacing" textLength="7" x="81" y="225.7686">4</text><text fill="#000000" font-family="sans-serif" font-size="13" lengthAdjust="spacing" textLength="305" x="92" y="225.7686">valida e apresenta os dados, solicitando confirmacao</text><polygon fill="#A80036" points="614,256.9766,624,260.9766,614,264.9766,618,260.9766" style="stroke:#A80036;stroke-width:1.0;"/><line style="stroke:#A80036;stroke-width:1.0;" x1="64" x2="620" y1="260.9766" y2="260.9766"/><text fill="#000000" font-family="sans-serif" font-size="13" font-weight="bold" lengthAdjust="spacing" textLength="7" x="71" y="256.1201">5</text><text fill="#000000" font-family="sans-serif" font-size="13" lengthAdjust="spacing" textLength="49" x="82" y="256.1201">confirma</text><polygon fill="#A80036" points="70,287.3281,60,291.3281,70,295.3281,66,291.3281" style="stroke:#A80036;stroke-width:1.0;"/><line style="stroke:#A80036;stroke-width:1.0;stroke-dasharray:2.0,2.0;" x1="64" x2="630" y1="291.3281" y2="291.3281"/><text fill="#000000" font-family="sans-serif" font-size="13" font-weight="bold" lengthAdjust="spacing" textLength="7" x="76" y="286.4717">6</text><text fill="#000000" font-family="sans-serif" font-size="13" lengthAdjust="spacing" textLength="428" x="87" y="286.4717">regista dados do novo utilizador e informa acerca do sucesso da operacao</text><!--MD5=[d2403f05b156162067235e1bba8db571]
@startuml
autonumber
actor "GestorFarmacia\n" as GES

activate GES
GES -> ":Sistema" : Adicionar stock de produto

activate ":Sistema"
":Sistema" - -> GES : Apresenta lista de produtos, solicitando a selecao do produto e o valor de stock a adicionar
deactivate ":Sistema"
GES -> ":Sistema" : seleciona o produto e introduz o valor de stock a adicionar

activate ":Sistema"
":Sistema" - -> GES : valida e apresenta os dados, solicitando confirmacao
deactivate ":Sistema"
GES -> ":Sistema" : confirma

activate ":Sistema"
":Sistema" - -> GES: regista dados do novo utilizador e informa acerca do sucesso da operacao
deactivate ":Sistema"

deactivate GES
@enduml

PlantUML version 1.2021.00(Sun Jan 10 10:25:05 GMT 2021)
(GPL source distribution)
Java Runtime: OpenJDK Runtime Environment
JVM: OpenJDK 64-Bit Server VM
Default Encoding: Cp1252
Language: pt
Country: PT
--></g></svg>