<?xml version="1.0" encoding="UTF-8" standalone="no"?><svg xmlns="http://www.w3.org/2000/svg" xmlns:xlink="http://www.w3.org/1999/xlink" contentScriptType="application/ecmascript" contentStyleType="text/css" height="640px" preserveAspectRatio="none" style="width:3498px;height:640px;" version="1.1" viewBox="0 0 3498 640" width="3498px" zoomAndPan="magnify"><defs><filter height="300%" id="f1dtg4b4m4c06d" width="300%" x="-1" y="-1"><feGaussianBlur result="blurOut" stdDeviation="2.0"/><feColorMatrix in="blurOut" result="blurOut2" type="matrix" values="0 0 0 0 0 0 0 0 0 0 0 0 0 0 0 0 0 0 .4 0"/><feOffset dx="4.0" dy="4.0" in="blurOut2" result="blurOut3"/><feBlend in="SourceGraphic" in2="blurOut3" mode="normal"/></filter></defs><g><!--MD5=[ae60458b9ecb413ddb60a1047cd59426]
class AdicionarDroneUI--><rect codeLine="3" fill="#FEFECE" filter="url(#f1dtg4b4m4c06d)" height="48" id="AdicionarDroneUI" style="stroke:#A80036;stroke-width:1.5;" width="129" x="7" y="268"/><ellipse cx="22" cy="284" fill="#ADD1B2" rx="11" ry="11" style="stroke:#A80036;stroke-width:1.0;"/><path d="M24,280.5 Q24.2031,280 24.4375,279.75 Q24.6719,279.5 24.9375,279.5 Q25.4063,279.5 25.7031,279.7813 Q26,280.0625 26,280.7188 L26,282.2813 Q26,282.9375 25.7188,283.2188 Q25.4375,283.5 25,283.5 Q24.6094,283.5 24.3594,283.3281 Q24.1094,283.1563 24,282.7031 Q23.9531,282.3906 23.7813,282.2188 Q23.4688,281.8906 22.9063,281.7031 Q22.3438,281.5 21.7813,281.5 Q21.0781,281.5 20.4844,281.7813 Q19.9063,282.0625 19.4531,282.6875 Q19,283.3125 19,284.1719 L19,285.0938 Q19,286.125 19.8438,286.8125 Q20.6875,287.5 22.1875,287.5 Q23.0781,287.5 23.7031,287.2969 Q24.0625,287.1875 24.4688,286.8281 Q24.7344,286.625 24.875,286.5625 Q25.0156,286.5 25.1875,286.5 Q25.5156,286.5 25.75,286.7656 Q26,287.0156 26,287.375 Q26,287.7188 25.6563,288.125 Q25.1563,288.7188 24.3594,289.0469 Q23.3125,289.5 22.0313,289.5 Q20.5313,289.5 19.3281,288.9063 Q18.3594,288.4375 17.6719,287.4219 Q17,286.4063 17,285.2031 L17,284.1094 Q17,282.8594 17.5938,281.7656 Q18.2031,280.6719 19.25,280.0938 Q20.3125,279.5 21.5,279.5 Q22.2188,279.5 22.8438,279.75 Q23.4688,280 24,280.5 Z " fill="#000000"/><text fill="#000000" font-family="sans-serif" font-size="12" lengthAdjust="spacing" textLength="97" x="36" y="288.9102">AdicionarDroneUI</text><line style="stroke:#A80036;stroke-width:1.5;" x1="8" x2="135" y1="300" y2="300"/><line style="stroke:#A80036;stroke-width:1.5;" x1="8" x2="135" y1="308" y2="308"/><!--MD5=[2fab066f6351852283c0dc769c28c0a8]
class AdicionarDroneController--><rect codeLine="6" fill="#FEFECE" filter="url(#f1dtg4b4m4c06d)" height="75.6719" id="AdicionarDroneController" style="stroke:#A80036;stroke-width:1.5;" width="715" x="197" y="254"/><ellipse cx="480.75" cy="270" fill="#ADD1B2" rx="11" ry="11" style="stroke:#A80036;stroke-width:1.0;"/><path d="M482.75,266.5 Q482.9531,266 483.1875,265.75 Q483.4219,265.5 483.6875,265.5 Q484.1563,265.5 484.4531,265.7813 Q484.75,266.0625 484.75,266.7188 L484.75,268.2813 Q484.75,268.9375 484.4688,269.2188 Q484.1875,269.5 483.75,269.5 Q483.3594,269.5 483.1094,269.3281 Q482.8594,269.1563 482.75,268.7031 Q482.7031,268.3906 482.5313,268.2188 Q482.2188,267.8906 481.6563,267.7031 Q481.0938,267.5 480.5313,267.5 Q479.8281,267.5 479.2344,267.7813 Q478.6563,268.0625 478.2031,268.6875 Q477.75,269.3125 477.75,270.1719 L477.75,271.0938 Q477.75,272.125 478.5938,272.8125 Q479.4375,273.5 480.9375,273.5 Q481.8281,273.5 482.4531,273.2969 Q482.8125,273.1875 483.2188,272.8281 Q483.4844,272.625 483.625,272.5625 Q483.7656,272.5 483.9375,272.5 Q484.2656,272.5 484.5,272.7656 Q484.75,273.0156 484.75,273.375 Q484.75,273.7188 484.4063,274.125 Q483.9063,274.7188 483.1094,275.0469 Q482.0625,275.5 480.7813,275.5 Q479.2813,275.5 478.0781,274.9063 Q477.1094,274.4375 476.4219,273.4219 Q475.75,272.4063 475.75,271.2031 L475.75,270.1094 Q475.75,268.8594 476.3438,267.7656 Q476.9531,266.6719 478,266.0938 Q479.0625,265.5 480.25,265.5 Q480.9688,265.5 481.5938,265.75 Q482.2188,266 482.75,266.5 Z " fill="#000000"/><text fill="#000000" font-family="sans-serif" font-size="12" lengthAdjust="spacing" textLength="139" x="501.25" y="274.9102">AdicionarDroneController</text><line style="stroke:#A80036;stroke-width:1.5;" x1="198" x2="911" y1="286" y2="286"/><line style="stroke:#A80036;stroke-width:1.5;" x1="198" x2="911" y1="294" y2="294"/><ellipse cx="208" cy="305" fill="#84BE84" rx="3" ry="3" style="stroke:#038048;stroke-width:1.0;"/><text fill="#000000" font-family="sans-serif" font-size="11" lengthAdjust="spacing" textLength="689" x="217" y="309.4189">Drone novoDrone(carga,capacidadeBateria,consumoHoraBateria,tensaoBateria,massa,potencia,velocidade,avionics,drag,rotors,cargaMaxima)</text><ellipse cx="208" cy="318.8359" fill="#84BE84" rx="3" ry="3" style="stroke:#038048;stroke-width:1.0;"/><text fill="#000000" font-family="sans-serif" font-size="11" lengthAdjust="spacing" textLength="125" x="217" y="323.2549">updateDrone(lugar,drone)</text><!--MD5=[380d12a68ed0046a60f31008a02875d0]
class AplicacaoPOT--><rect codeLine="11" fill="#FEFECE" filter="url(#f1dtg4b4m4c06d)" height="89.5078" id="AplicacaoPOT" style="stroke:#A80036;stroke-width:1.5;" width="111" x="1456" y="7"/><ellipse cx="1471.9" cy="23" fill="#ADD1B2" rx="11" ry="11" style="stroke:#A80036;stroke-width:1.0;"/><path d="M1473.9,19.5 Q1474.1031,19 1474.3375,18.75 Q1474.5719,18.5 1474.8375,18.5 Q1475.3063,18.5 1475.6031,18.7813 Q1475.9,19.0625 1475.9,19.7188 L1475.9,21.2813 Q1475.9,21.9375 1475.6188,22.2188 Q1475.3375,22.5 1474.9,22.5 Q1474.5094,22.5 1474.2594,22.3281 Q1474.0094,22.1563 1473.9,21.7031 Q1473.8531,21.3906 1473.6813,21.2188 Q1473.3688,20.8906 1472.8063,20.7031 Q1472.2438,20.5 1471.6813,20.5 Q1470.9781,20.5 1470.3844,20.7813 Q1469.8063,21.0625 1469.3531,21.6875 Q1468.9,22.3125 1468.9,23.1719 L1468.9,24.0938 Q1468.9,25.125 1469.7438,25.8125 Q1470.5875,26.5 1472.0875,26.5 Q1472.9781,26.5 1473.6031,26.2969 Q1473.9625,26.1875 1474.3688,25.8281 Q1474.6344,25.625 1474.775,25.5625 Q1474.9156,25.5 1475.0875,25.5 Q1475.4156,25.5 1475.65,25.7656 Q1475.9,26.0156 1475.9,26.375 Q1475.9,26.7188 1475.5563,27.125 Q1475.0563,27.7188 1474.2594,28.0469 Q1473.2125,28.5 1471.9313,28.5 Q1470.4313,28.5 1469.2281,27.9063 Q1468.2594,27.4375 1467.5719,26.4219 Q1466.9,25.4063 1466.9,24.2031 L1466.9,23.1094 Q1466.9,21.8594 1467.4938,20.7656 Q1468.1031,19.6719 1469.15,19.0938 Q1470.2125,18.5 1471.4,18.5 Q1472.1188,18.5 1472.7438,18.75 Q1473.3688,19 1473.9,19.5 Z " fill="#000000"/><text fill="#000000" font-family="sans-serif" font-size="12" lengthAdjust="spacing" textLength="77" x="1486.1" y="27.9102">AplicacaoPOT</text><line style="stroke:#A80036;stroke-width:1.5;" x1="1457" x2="1566" y1="39" y2="39"/><line style="stroke:#A80036;stroke-width:1.5;" x1="1457" x2="1566" y1="47" y2="47"/><ellipse cx="1467" cy="58" fill="#84BE84" rx="3" ry="3" style="stroke:#038048;stroke-width:1.0;"/><text fill="#000000" font-family="sans-serif" font-size="11" lengthAdjust="spacing" textLength="64" x="1476" y="62.4189">getInstance()</text><ellipse cx="1467" cy="71.8359" fill="#84BE84" rx="3" ry="3" style="stroke:#038048;stroke-width:1.0;"/><text fill="#000000" font-family="sans-serif" font-size="11" lengthAdjust="spacing" textLength="74" x="1476" y="76.2549">getPlataforma()</text><ellipse cx="1467" cy="85.6719" fill="#84BE84" rx="3" ry="3" style="stroke:#038048;stroke-width:1.0;"/><text fill="#000000" font-family="sans-serif" font-size="11" lengthAdjust="spacing" textLength="85" x="1476" y="90.0908">getSessaoAtual()</text><!--MD5=[1e13576e8c070e32200b62ceaa1f39ec]
class SessaoUtilizador--><rect codeLine="17" fill="#FEFECE" filter="url(#f1dtg4b4m4c06d)" height="61.8359" id="SessaoUtilizador" style="stroke:#A80036;stroke-width:1.5;" width="126" x="1448.5" y="132"/><ellipse cx="1463.5" cy="148" fill="#ADD1B2" rx="11" ry="11" style="stroke:#A80036;stroke-width:1.0;"/><path d="M1465.5,144.5 Q1465.7031,144 1465.9375,143.75 Q1466.1719,143.5 1466.4375,143.5 Q1466.9063,143.5 1467.2031,143.7813 Q1467.5,144.0625 1467.5,144.7188 L1467.5,146.2813 Q1467.5,146.9375 1467.2188,147.2188 Q1466.9375,147.5 1466.5,147.5 Q1466.1094,147.5 1465.8594,147.3281 Q1465.6094,147.1563 1465.5,146.7031 Q1465.4531,146.3906 1465.2813,146.2188 Q1464.9688,145.8906 1464.4063,145.7031 Q1463.8438,145.5 1463.2813,145.5 Q1462.5781,145.5 1461.9844,145.7813 Q1461.4063,146.0625 1460.9531,146.6875 Q1460.5,147.3125 1460.5,148.1719 L1460.5,149.0938 Q1460.5,150.125 1461.3438,150.8125 Q1462.1875,151.5 1463.6875,151.5 Q1464.5781,151.5 1465.2031,151.2969 Q1465.5625,151.1875 1465.9688,150.8281 Q1466.2344,150.625 1466.375,150.5625 Q1466.5156,150.5 1466.6875,150.5 Q1467.0156,150.5 1467.25,150.7656 Q1467.5,151.0156 1467.5,151.375 Q1467.5,151.7188 1467.1563,152.125 Q1466.6563,152.7188 1465.8594,153.0469 Q1464.8125,153.5 1463.5313,153.5 Q1462.0313,153.5 1460.8281,152.9063 Q1459.8594,152.4375 1459.1719,151.4219 Q1458.5,150.4063 1458.5,149.2031 L1458.5,148.1094 Q1458.5,146.8594 1459.0938,145.7656 Q1459.7031,144.6719 1460.75,144.0938 Q1461.8125,143.5 1463,143.5 Q1463.7188,143.5 1464.3438,143.75 Q1464.9688,144 1465.5,144.5 Z " fill="#000000"/><text fill="#000000" font-family="sans-serif" font-size="12" lengthAdjust="spacing" textLength="94" x="1477.5" y="152.9102">SessaoUtilizador</text><line style="stroke:#A80036;stroke-width:1.5;" x1="1449.5" x2="1573.5" y1="164" y2="164"/><line style="stroke:#A80036;stroke-width:1.5;" x1="1449.5" x2="1573.5" y1="172" y2="172"/><ellipse cx="1459.5" cy="183" fill="#84BE84" rx="3" ry="3" style="stroke:#038048;stroke-width:1.0;"/><text fill="#000000" font-family="sans-serif" font-size="11" lengthAdjust="spacing" textLength="91" x="1468.5" y="187.4189">getEmailUtilizador()</text><!--MD5=[6613c9cd406ef433ff06f5e98b28abd9]
class Farmacia--><rect codeLine="22" fill="#FEFECE" filter="url(#f1dtg4b4m4c06d)" height="48" id="Farmacia" style="stroke:#A80036;stroke-width:1.5;" width="84" x="1469.5" y="229"/><ellipse cx="1484.5" cy="245" fill="#ADD1B2" rx="11" ry="11" style="stroke:#A80036;stroke-width:1.0;"/><path d="M1486.5,241.5 Q1486.7031,241 1486.9375,240.75 Q1487.1719,240.5 1487.4375,240.5 Q1487.9063,240.5 1488.2031,240.7813 Q1488.5,241.0625 1488.5,241.7188 L1488.5,243.2813 Q1488.5,243.9375 1488.2188,244.2188 Q1487.9375,244.5 1487.5,244.5 Q1487.1094,244.5 1486.8594,244.3281 Q1486.6094,244.1563 1486.5,243.7031 Q1486.4531,243.3906 1486.2813,243.2188 Q1485.9688,242.8906 1485.4063,242.7031 Q1484.8438,242.5 1484.2813,242.5 Q1483.5781,242.5 1482.9844,242.7813 Q1482.4063,243.0625 1481.9531,243.6875 Q1481.5,244.3125 1481.5,245.1719 L1481.5,246.0938 Q1481.5,247.125 1482.3438,247.8125 Q1483.1875,248.5 1484.6875,248.5 Q1485.5781,248.5 1486.2031,248.2969 Q1486.5625,248.1875 1486.9688,247.8281 Q1487.2344,247.625 1487.375,247.5625 Q1487.5156,247.5 1487.6875,247.5 Q1488.0156,247.5 1488.25,247.7656 Q1488.5,248.0156 1488.5,248.375 Q1488.5,248.7188 1488.1563,249.125 Q1487.6563,249.7188 1486.8594,250.0469 Q1485.8125,250.5 1484.5313,250.5 Q1483.0313,250.5 1481.8281,249.9063 Q1480.8594,249.4375 1480.1719,248.4219 Q1479.5,247.4063 1479.5,246.2031 L1479.5,245.1094 Q1479.5,243.8594 1480.0938,242.7656 Q1480.7031,241.6719 1481.75,241.0938 Q1482.8125,240.5 1484,240.5 Q1484.7188,240.5 1485.3438,240.75 Q1485.9688,241 1486.5,241.5 Z " fill="#000000"/><text fill="#000000" font-family="sans-serif" font-size="12" lengthAdjust="spacing" textLength="52" x="1498.5" y="249.9102">Farmacia</text><line style="stroke:#A80036;stroke-width:1.5;" x1="1470.5" x2="1552.5" y1="261" y2="261"/><line style="stroke:#A80036;stroke-width:1.5;" x1="1470.5" x2="1552.5" y1="269" y2="269"/><!--MD5=[827df7788a5cdfbe13e03a23f586a95c]
class LugarDrone--><rect codeLine="26" fill="#FEFECE" filter="url(#f1dtg4b4m4c06d)" height="75.6719" id="LugarDrone" style="stroke:#A80036;stroke-width:1.5;" width="181" x="2150" y="292"/><ellipse cx="2203.25" cy="308" fill="#ADD1B2" rx="11" ry="11" style="stroke:#A80036;stroke-width:1.0;"/><path d="M2205.25,304.5 Q2205.4531,304 2205.6875,303.75 Q2205.9219,303.5 2206.1875,303.5 Q2206.6563,303.5 2206.9531,303.7813 Q2207.25,304.0625 2207.25,304.7188 L2207.25,306.2813 Q2207.25,306.9375 2206.9688,307.2188 Q2206.6875,307.5 2206.25,307.5 Q2205.8594,307.5 2205.6094,307.3281 Q2205.3594,307.1563 2205.25,306.7031 Q2205.2031,306.3906 2205.0313,306.2188 Q2204.7188,305.8906 2204.1563,305.7031 Q2203.5938,305.5 2203.0313,305.5 Q2202.3281,305.5 2201.7344,305.7813 Q2201.1563,306.0625 2200.7031,306.6875 Q2200.25,307.3125 2200.25,308.1719 L2200.25,309.0938 Q2200.25,310.125 2201.0938,310.8125 Q2201.9375,311.5 2203.4375,311.5 Q2204.3281,311.5 2204.9531,311.2969 Q2205.3125,311.1875 2205.7188,310.8281 Q2205.9844,310.625 2206.125,310.5625 Q2206.2656,310.5 2206.4375,310.5 Q2206.7656,310.5 2207,310.7656 Q2207.25,311.0156 2207.25,311.375 Q2207.25,311.7188 2206.9063,312.125 Q2206.4063,312.7188 2205.6094,313.0469 Q2204.5625,313.5 2203.2813,313.5 Q2201.7813,313.5 2200.5781,312.9063 Q2199.6094,312.4375 2198.9219,311.4219 Q2198.25,310.4063 2198.25,309.2031 L2198.25,308.1094 Q2198.25,306.8594 2198.8438,305.7656 Q2199.4531,304.6719 2200.5,304.0938 Q2201.5625,303.5 2202.75,303.5 Q2203.4688,303.5 2204.0938,303.75 Q2204.7188,304 2205.25,304.5 Z " fill="#000000"/><text fill="#000000" font-family="sans-serif" font-size="12" lengthAdjust="spacing" textLength="66" x="2223.75" y="312.9102">LugarDrone</text><line style="stroke:#A80036;stroke-width:1.5;" x1="2151" x2="2330" y1="324" y2="324"/><line style="stroke:#A80036;stroke-width:1.5;" x1="2151" x2="2330" y1="332" y2="332"/><ellipse cx="2161" cy="343" fill="#84BE84" rx="3" ry="3" style="stroke:#038048;stroke-width:1.0;"/><text fill="#000000" font-family="sans-serif" font-size="11" lengthAdjust="spacing" textLength="155" x="2170" y="347.4189">setScooter(Scooter setScooter)</text><ellipse cx="2161" cy="356.8359" fill="#84BE84" rx="3" ry="3" style="stroke:#038048;stroke-width:1.0;"/><text fill="#000000" font-family="sans-serif" font-size="11" lengthAdjust="spacing" textLength="115" x="2170" y="361.2549">verificaDisponibilidade()</text><!--MD5=[2e3f1e60e74253ff42e47f8bfdb04ee2]
class Drone--><rect codeLine="31" fill="#FEFECE" filter="url(#f1dtg4b4m4c06d)" height="227.8672" id="Drone" style="stroke:#A80036;stroke-width:1.5;" width="1053" x="2431" y="399"/><ellipse cx="2936.25" cy="415" fill="#ADD1B2" rx="11" ry="11" style="stroke:#A80036;stroke-width:1.0;"/><path d="M2938.25,411.5 Q2938.4531,411 2938.6875,410.75 Q2938.9219,410.5 2939.1875,410.5 Q2939.6563,410.5 2939.9531,410.7813 Q2940.25,411.0625 2940.25,411.7188 L2940.25,413.2813 Q2940.25,413.9375 2939.9688,414.2188 Q2939.6875,414.5 2939.25,414.5 Q2938.8594,414.5 2938.6094,414.3281 Q2938.3594,414.1563 2938.25,413.7031 Q2938.2031,413.3906 2938.0313,413.2188 Q2937.7188,412.8906 2937.1563,412.7031 Q2936.5938,412.5 2936.0313,412.5 Q2935.3281,412.5 2934.7344,412.7813 Q2934.1563,413.0625 2933.7031,413.6875 Q2933.25,414.3125 2933.25,415.1719 L2933.25,416.0938 Q2933.25,417.125 2934.0938,417.8125 Q2934.9375,418.5 2936.4375,418.5 Q2937.3281,418.5 2937.9531,418.2969 Q2938.3125,418.1875 2938.7188,417.8281 Q2938.9844,417.625 2939.125,417.5625 Q2939.2656,417.5 2939.4375,417.5 Q2939.7656,417.5 2940,417.7656 Q2940.25,418.0156 2940.25,418.375 Q2940.25,418.7188 2939.9063,419.125 Q2939.4063,419.7188 2938.6094,420.0469 Q2937.5625,420.5 2936.2813,420.5 Q2934.7813,420.5 2933.5781,419.9063 Q2932.6094,419.4375 2931.9219,418.4219 Q2931.25,417.4063 2931.25,416.2031 L2931.25,415.1094 Q2931.25,413.8594 2931.8438,412.7656 Q2932.4531,411.6719 2933.5,411.0938 Q2934.5625,410.5 2935.75,410.5 Q2936.4688,410.5 2937.0938,410.75 Q2937.7188,411 2938.25,411.5 Z " fill="#000000"/><text fill="#000000" font-family="sans-serif" font-size="12" lengthAdjust="spacing" textLength="34" x="2956.75" y="419.9102">Drone</text><line style="stroke:#A80036;stroke-width:1.5;" x1="2432" x2="3483" y1="431" y2="431"/><rect fill="none" height="6" style="stroke:#C82930;stroke-width:1.0;" width="6" x="2439" y="439"/><text fill="#000000" font-family="sans-serif" font-size="11" lengthAdjust="spacing" textLength="22" x="2451" y="446.4189">int id</text><rect fill="none" height="6" style="stroke:#C82930;stroke-width:1.0;" width="6" x="2439" y="452.8359"/><text fill="#000000" font-family="sans-serif" font-size="11" lengthAdjust="spacing" textLength="42" x="2451" y="460.2549">int carga</text><rect fill="none" height="6" style="stroke:#C82930;stroke-width:1.0;" width="6" x="2439" y="466.6719"/><text fill="#000000" font-family="sans-serif" font-size="11" lengthAdjust="spacing" textLength="125" x="2451" y="474.0908">double capacidadeBateria</text><rect fill="none" height="6" style="stroke:#C82930;stroke-width:1.0;" width="6" x="2439" y="480.5078"/><text fill="#000000" font-family="sans-serif" font-size="11" lengthAdjust="spacing" textLength="136" x="2451" y="487.9268">double consumoHoraBateria</text><rect fill="none" height="6" style="stroke:#C82930;stroke-width:1.0;" width="6" x="2439" y="494.3438"/><text fill="#000000" font-family="sans-serif" font-size="11" lengthAdjust="spacing" textLength="102" x="2451" y="501.7627">double tensaoBateria</text><rect fill="none" height="6" style="stroke:#C82930;stroke-width:1.0;" width="6" x="2439" y="508.1797"/><text fill="#000000" font-family="sans-serif" font-size="11" lengthAdjust="spacing" textLength="67" x="2451" y="515.5986">double massa</text><rect fill="none" height="6" style="stroke:#C82930;stroke-width:1.0;" width="6" x="2439" y="522.0156"/><text fill="#000000" font-family="sans-serif" font-size="11" lengthAdjust="spacing" textLength="76" x="2451" y="529.4346">double potencia</text><rect fill="none" height="6" style="stroke:#C82930;stroke-width:1.0;" width="6" x="2439" y="535.8516"/><text fill="#000000" font-family="sans-serif" font-size="11" lengthAdjust="spacing" textLength="90" x="2451" y="543.2705">double velocidade;</text><rect fill="none" height="6" style="stroke:#C82930;stroke-width:1.0;" width="6" x="2439" y="549.6875"/><text fill="#000000" font-family="sans-serif" font-size="11" lengthAdjust="spacing" textLength="78" x="2451" y="557.1064">double avionics;</text><rect fill="none" height="6" style="stroke:#C82930;stroke-width:1.0;" width="6" x="2439" y="563.5234"/><text fill="#000000" font-family="sans-serif" font-size="11" lengthAdjust="spacing" textLength="60" x="2451" y="570.9424">double drag;</text><rect fill="none" height="6" style="stroke:#C82930;stroke-width:1.0;" width="6" x="2439" y="577.3594"/><text fill="#000000" font-family="sans-serif" font-size="11" lengthAdjust="spacing" textLength="67" x="2451" y="584.7783">double rotors;</text><rect fill="none" height="6" style="stroke:#C82930;stroke-width:1.0;" width="6" x="2439" y="591.1953"/><text fill="#000000" font-family="sans-serif" font-size="11" lengthAdjust="spacing" textLength="102" x="2451" y="598.6143">double cargaMaxima;</text><line style="stroke:#A80036;stroke-width:1.5;" x1="2432" x2="3483" y1="605.0313" y2="605.0313"/><ellipse cx="2442" cy="616.0313" fill="#84BE84" rx="3" ry="3" style="stroke:#038048;stroke-width:1.0;"/><text fill="#000000" font-family="sans-serif" font-size="11" lengthAdjust="spacing" textLength="1027" x="2451" y="620.4502">Drone(int carga, double capacidadeBateria, double consumoHoraBateria, double tensaoBateria, double massa, double potencia, double velocidade, double avionics, double drag, double rotors, double cargaMaxima)</text><!--MD5=[3707309d909513970d98cd7082f3ca19]
class FarmaciaBD--><rect codeLine="48" fill="#FEFECE" filter="url(#f1dtg4b4m4c06d)" height="89.5078" id="FarmaciaBD" style="stroke:#A80036;stroke-width:1.5;" width="209" x="1407" y="383"/><ellipse cx="1472.75" cy="399" fill="#ADD1B2" rx="11" ry="11" style="stroke:#A80036;stroke-width:1.0;"/><path d="M1474.75,395.5 Q1474.9531,395 1475.1875,394.75 Q1475.4219,394.5 1475.6875,394.5 Q1476.1563,394.5 1476.4531,394.7813 Q1476.75,395.0625 1476.75,395.7188 L1476.75,397.2813 Q1476.75,397.9375 1476.4688,398.2188 Q1476.1875,398.5 1475.75,398.5 Q1475.3594,398.5 1475.1094,398.3281 Q1474.8594,398.1563 1474.75,397.7031 Q1474.7031,397.3906 1474.5313,397.2188 Q1474.2188,396.8906 1473.6563,396.7031 Q1473.0938,396.5 1472.5313,396.5 Q1471.8281,396.5 1471.2344,396.7813 Q1470.6563,397.0625 1470.2031,397.6875 Q1469.75,398.3125 1469.75,399.1719 L1469.75,400.0938 Q1469.75,401.125 1470.5938,401.8125 Q1471.4375,402.5 1472.9375,402.5 Q1473.8281,402.5 1474.4531,402.2969 Q1474.8125,402.1875 1475.2188,401.8281 Q1475.4844,401.625 1475.625,401.5625 Q1475.7656,401.5 1475.9375,401.5 Q1476.2656,401.5 1476.5,401.7656 Q1476.75,402.0156 1476.75,402.375 Q1476.75,402.7188 1476.4063,403.125 Q1475.9063,403.7188 1475.1094,404.0469 Q1474.0625,404.5 1472.7813,404.5 Q1471.2813,404.5 1470.0781,403.9063 Q1469.1094,403.4375 1468.4219,402.4219 Q1467.75,401.4063 1467.75,400.2031 L1467.75,399.1094 Q1467.75,397.8594 1468.3438,396.7656 Q1468.9531,395.6719 1470,395.0938 Q1471.0625,394.5 1472.25,394.5 Q1472.9688,394.5 1473.5938,394.75 Q1474.2188,395 1474.75,395.5 Z " fill="#000000"/><text fill="#000000" font-family="sans-serif" font-size="12" lengthAdjust="spacing" textLength="69" x="1493.25" y="403.9102">FarmaciaBD</text><line style="stroke:#A80036;stroke-width:1.5;" x1="1408" x2="1615" y1="415" y2="415"/><line style="stroke:#A80036;stroke-width:1.5;" x1="1408" x2="1615" y1="423" y2="423"/><ellipse cx="1418" cy="434" fill="#84BE84" rx="3" ry="3" style="stroke:#038048;stroke-width:1.0;"/><text fill="#000000" font-family="sans-serif" font-size="11" lengthAdjust="spacing" textLength="183" x="1427" y="438.4189">Farmacia getFarmaciabyGestor(email)</text><ellipse cx="1418" cy="447.8359" fill="#84BE84" rx="3" ry="3" style="stroke:#038048;stroke-width:1.0;"/><text fill="#000000" font-family="sans-serif" font-size="11" lengthAdjust="spacing" textLength="122" x="1427" y="452.2549">updateLugarDrone(lugar)</text><ellipse cx="1418" cy="461.6719" fill="#84BE84" rx="3" ry="3" style="stroke:#038048;stroke-width:1.0;"/><text fill="#000000" font-family="sans-serif" font-size="11" lengthAdjust="spacing" textLength="147" x="1427" y="466.0908">getLugarDronebyFarm(farmID)</text><!--MD5=[9c5439856a1aad23e042de9a355b14cb]
class BaseDados--><rect codeLine="54" fill="#FEFECE" filter="url(#f1dtg4b4m4c06d)" height="75.6719" id="BaseDados" style="stroke:#A80036;stroke-width:1.5;" width="114" x="2183.5" y="406"/><ellipse cx="2205.7" cy="422" fill="#ADD1B2" rx="11" ry="11" style="stroke:#A80036;stroke-width:1.0;"/><path d="M2207.7,418.5 Q2207.9031,418 2208.1375,417.75 Q2208.3719,417.5 2208.6375,417.5 Q2209.1063,417.5 2209.4031,417.7813 Q2209.7,418.0625 2209.7,418.7188 L2209.7,420.2813 Q2209.7,420.9375 2209.4188,421.2188 Q2209.1375,421.5 2208.7,421.5 Q2208.3094,421.5 2208.0594,421.3281 Q2207.8094,421.1563 2207.7,420.7031 Q2207.6531,420.3906 2207.4813,420.2188 Q2207.1688,419.8906 2206.6063,419.7031 Q2206.0438,419.5 2205.4813,419.5 Q2204.7781,419.5 2204.1844,419.7813 Q2203.6063,420.0625 2203.1531,420.6875 Q2202.7,421.3125 2202.7,422.1719 L2202.7,423.0938 Q2202.7,424.125 2203.5438,424.8125 Q2204.3875,425.5 2205.8875,425.5 Q2206.7781,425.5 2207.4031,425.2969 Q2207.7625,425.1875 2208.1688,424.8281 Q2208.4344,424.625 2208.575,424.5625 Q2208.7156,424.5 2208.8875,424.5 Q2209.2156,424.5 2209.45,424.7656 Q2209.7,425.0156 2209.7,425.375 Q2209.7,425.7188 2209.3563,426.125 Q2208.8563,426.7188 2208.0594,427.0469 Q2207.0125,427.5 2205.7313,427.5 Q2204.2313,427.5 2203.0281,426.9063 Q2202.0594,426.4375 2201.3719,425.4219 Q2200.7,424.4063 2200.7,423.2031 L2200.7,422.1094 Q2200.7,420.8594 2201.2938,419.7656 Q2201.9031,418.6719 2202.95,418.0938 Q2204.0125,417.5 2205.2,417.5 Q2205.9188,417.5 2206.5438,417.75 Q2207.1688,418 2207.7,418.5 Z " fill="#000000"/><text fill="#000000" font-family="sans-serif" font-size="12" lengthAdjust="spacing" textLength="66" x="2221.3" y="426.9102">BaseDados</text><line style="stroke:#A80036;stroke-width:1.5;" x1="2184.5" x2="2296.5" y1="438" y2="438"/><line style="stroke:#A80036;stroke-width:1.5;" x1="2184.5" x2="2296.5" y1="446" y2="446"/><ellipse cx="2194.5" cy="457" fill="#84BE84" rx="3" ry="3" style="stroke:#038048;stroke-width:1.0;"/><text fill="#000000" font-family="sans-serif" font-size="11" lengthAdjust="spacing" textLength="77" x="2203.5" y="461.4189">getConnection()</text><ellipse cx="2194.5" cy="470.8359" fill="#84BE84" rx="3" ry="3" style="stroke:#038048;stroke-width:1.0;"/><text fill="#000000" font-family="sans-serif" font-size="11" lengthAdjust="spacing" textLength="88" x="2203.5" y="475.2549">closeConnection()</text><!--MD5=[cae86d803c82ab7988454d662cc2fd27]
class DroneBD--><rect codeLine="59" fill="#FEFECE" filter="url(#f1dtg4b4m4c06d)" height="75.6719" id="DroneBD" style="stroke:#A80036;stroke-width:1.5;" width="1077" x="973" y="508"/><ellipse cx="1481.75" cy="524" fill="#ADD1B2" rx="11" ry="11" style="stroke:#A80036;stroke-width:1.0;"/><path d="M1483.75,520.5 Q1483.9531,520 1484.1875,519.75 Q1484.4219,519.5 1484.6875,519.5 Q1485.1563,519.5 1485.4531,519.7813 Q1485.75,520.0625 1485.75,520.7188 L1485.75,522.2813 Q1485.75,522.9375 1485.4688,523.2188 Q1485.1875,523.5 1484.75,523.5 Q1484.3594,523.5 1484.1094,523.3281 Q1483.8594,523.1563 1483.75,522.7031 Q1483.7031,522.3906 1483.5313,522.2188 Q1483.2188,521.8906 1482.6563,521.7031 Q1482.0938,521.5 1481.5313,521.5 Q1480.8281,521.5 1480.2344,521.7813 Q1479.6563,522.0625 1479.2031,522.6875 Q1478.75,523.3125 1478.75,524.1719 L1478.75,525.0938 Q1478.75,526.125 1479.5938,526.8125 Q1480.4375,527.5 1481.9375,527.5 Q1482.8281,527.5 1483.4531,527.2969 Q1483.8125,527.1875 1484.2188,526.8281 Q1484.4844,526.625 1484.625,526.5625 Q1484.7656,526.5 1484.9375,526.5 Q1485.2656,526.5 1485.5,526.7656 Q1485.75,527.0156 1485.75,527.375 Q1485.75,527.7188 1485.4063,528.125 Q1484.9063,528.7188 1484.1094,529.0469 Q1483.0625,529.5 1481.7813,529.5 Q1480.2813,529.5 1479.0781,528.9063 Q1478.1094,528.4375 1477.4219,527.4219 Q1476.75,526.4063 1476.75,525.2031 L1476.75,524.1094 Q1476.75,522.8594 1477.3438,521.7656 Q1477.9531,520.6719 1479,520.0938 Q1480.0625,519.5 1481.25,519.5 Q1481.9688,519.5 1482.5938,519.75 Q1483.2188,520 1483.75,520.5 Z " fill="#000000"/><text fill="#000000" font-family="sans-serif" font-size="12" lengthAdjust="spacing" textLength="51" x="1502.25" y="528.9102">DroneBD</text><line style="stroke:#A80036;stroke-width:1.5;" x1="974" x2="2049" y1="540" y2="540"/><line style="stroke:#A80036;stroke-width:1.5;" x1="974" x2="2049" y1="548" y2="548"/><ellipse cx="984" cy="559" fill="#84BE84" rx="3" ry="3" style="stroke:#038048;stroke-width:1.0;"/><text fill="#000000" font-family="sans-serif" font-size="11" lengthAdjust="spacing" textLength="1051" x="993" y="563.4189">novoDrone(int carga, double capacidadeBateria, double consumoHoraBateria, double tensaoBateria, double massa, double potencia, double velocidade, double avionics, double drag, double rotors, double cargaMaxima)</text><ellipse cx="984" cy="572.8359" fill="#84BE84" rx="3" ry="3" style="stroke:#038048;stroke-width:1.0;"/><text fill="#000000" font-family="sans-serif" font-size="11" lengthAdjust="spacing" textLength="98" x="993" y="577.2549">updateDrone(drone)</text><!--MD5=[b98c5650025e861d02a3a3506831ff39]
link AdicionarDroneUI to AdicionarDroneController--><path codeLine="64" d="M136.37,292 C152.63,292 171.28,292 191.49,292 " fill="none" id="AdicionarDroneUI-to-AdicionarDroneController" style="stroke:#A80036;stroke-width:1.0;stroke-dasharray:7.0,7.0;"/><polygon fill="#A80036" points="196.66,292,187.66,288,191.66,292,187.66,296,196.66,292" style="stroke:#A80036;stroke-width:1.0;"/><!--MD5=[a6a1e5113a9503afa9cc9080e096d008]
link Farmacia to LugarDrone--><path codeLine="66" d="M1553.6,254.6 C1651.93,258.82 1908.31,272.22 2120,304 C2128,305.2 2136.26,306.62 2144.54,308.17 " fill="none" id="Farmacia-to-LugarDrone" style="stroke:#A80036;stroke-width:1.0;"/><polygon fill="#A80036" points="2149.69,309.14,2141.5892,303.5385,2144.7769,308.2117,2140.1038,311.3994,2149.69,309.14" style="stroke:#A80036;stroke-width:1.0;"/><text fill="#000000" font-family="sans-serif" font-size="13" lengthAdjust="spacing" textLength="38" x="2081" y="296.4951">possui</text><text fill="#000000" font-family="sans-serif" font-size="13" lengthAdjust="spacing" textLength="7" x="1561.4375" y="269.7753">1</text><text fill="#000000" font-family="sans-serif" font-size="13" lengthAdjust="spacing" textLength="7" x="2134.88" y="321.5983">1</text><!--MD5=[32219a8c946140bfcdd53ab86d52c04d]
link LugarDrone to Drone--><path codeLine="67" d="M2331.33,352.99 C2378.3,365.01 2439.7,380.73 2505.66,397.61 " fill="none" id="LugarDrone-to-Drone" style="stroke:#A80036;stroke-width:1.0;"/><polygon fill="#A80036" points="2510.82,398.93,2503.0968,392.8183,2505.9769,397.6871,2501.1082,400.5672,2510.82,398.93" style="stroke:#A80036;stroke-width:1.0;"/><text fill="#000000" font-family="sans-serif" font-size="13" lengthAdjust="spacing" textLength="38" x="2362" y="357.4951">possui</text><text fill="#000000" font-family="sans-serif" font-size="13" lengthAdjust="spacing" textLength="7" x="2339.1417" y="369.0796">1</text><text fill="#000000" font-family="sans-serif" font-size="13" lengthAdjust="spacing" textLength="7" x="2473.5735" y="388.2398">1</text><!--MD5=[7b76c70b5fb13516872a95bdf20732c4]
link AdicionarDroneController to AplicacaoPOT--><path codeLine="69" d="M627.14,253.89 C708.55,212.39 846.56,147.49 973,114 C1142.27,69.16 1350.03,56.75 1450.47,53.31 " fill="none" id="AdicionarDroneController-to-AplicacaoPOT" style="stroke:#A80036;stroke-width:1.0;stroke-dasharray:7.0,7.0;"/><polygon fill="#A80036" points="1455.76,53.14,1446.6279,49.4516,1450.763,53.3118,1446.9028,57.4469,1455.76,53.14" style="stroke:#A80036;stroke-width:1.0;"/><!--MD5=[cee7dd02e9b2e3a4cce415ad06f7c384]
link AdicionarDroneController to FarmaciaBD--><path codeLine="71" d="M776.01,330.01 C830.23,338.94 888.16,348.14 942,356 C1101.69,379.32 1287.26,402 1401.8,415.48 " fill="none" id="AdicionarDroneController-to-FarmaciaBD" style="stroke:#A80036;stroke-width:1.0;stroke-dasharray:7.0,7.0;"/><polygon fill="#A80036" points="1406.86,416.08,1398.3898,411.0544,1401.8943,415.495,1397.4538,418.9995,1406.86,416.08" style="stroke:#A80036;stroke-width:1.0;"/><!--MD5=[e9b3b7909bd30ae9fc8e765491da66bf]
link AdicionarDroneController to DroneBD--><path codeLine="72" d="M617.9,330.17 C697.27,376.7 840.02,453.71 973,491 C993.99,496.89 1015.6,502.16 1037.55,506.88 " fill="none" id="AdicionarDroneController-to-DroneBD" style="stroke:#A80036;stroke-width:1.0;stroke-dasharray:7.0,7.0;"/><polygon fill="#A80036" points="1042.53,507.94,1034.5598,502.1541,1037.6395,506.8992,1032.8945,509.9789,1042.53,507.94" style="stroke:#A80036;stroke-width:1.0;"/><!--MD5=[3a7e9753f3f4153e7e31b82ac2f7121d]
link AdicionarDroneController to SessaoUtilizador--><path codeLine="73" d="M730.03,254 C804.59,238.84 892.76,222.34 973,211 C1141.31,187.22 1341.04,173.04 1443.1,166.79 " fill="none" id="AdicionarDroneController-to-SessaoUtilizador" style="stroke:#A80036;stroke-width:1.0;stroke-dasharray:7.0,7.0;"/><polygon fill="#A80036" points="1448.19,166.48,1438.966,163.0278,1443.199,166.7803,1439.4465,171.0133,1448.19,166.48" style="stroke:#A80036;stroke-width:1.0;"/><!--MD5=[6876335cdac7424cf9accdc23a23de15]
link AdicionarDroneController to Farmacia--><path codeLine="74" d="M912.13,277.44 C1121.67,268.88 1364.46,258.96 1464.15,254.89 " fill="none" id="AdicionarDroneController-to-Farmacia" style="stroke:#A80036;stroke-width:1.0;stroke-dasharray:7.0,7.0;"/><polygon fill="#A80036" points="1469.37,254.68,1460.2169,251.044,1464.374,254.8804,1460.5376,259.0375,1469.37,254.68" style="stroke:#A80036;stroke-width:1.0;"/><!--MD5=[cf29b16e8b7324312869ed6ce2682c1d]
link AdicionarDroneController to LugarDrone--><path codeLine="76" d="M912.12,300.05 C1305.25,308.92 1912.77,322.63 2144.91,327.87 " fill="none" id="AdicionarDroneController-to-LugarDrone" style="stroke:#A80036;stroke-width:1.0;stroke-dasharray:7.0,7.0;"/><polygon fill="#A80036" points="2149.99,327.98,2141.0838,323.7754,2144.9913,327.8657,2140.9009,331.7733,2149.99,327.98" style="stroke:#A80036;stroke-width:1.0;"/><!--MD5=[dbd15f50e17d92579182b6d34e88172b]
link FarmaciaBD to BaseDados--><path codeLine="78" d="M1616.28,430.28 C1770.09,433.67 2053.78,439.91 2178.25,442.65 " fill="none" id="FarmaciaBD-to-BaseDados" style="stroke:#A80036;stroke-width:1.0;stroke-dasharray:7.0,7.0;"/><polygon fill="#A80036" points="2183.33,442.76,2174.4118,438.5808,2178.331,442.66,2174.2518,446.5792,2183.33,442.76" style="stroke:#A80036;stroke-width:1.0;"/><!--MD5=[2f3f3103d19af2bd7b865b553690b26a]
link DroneBD to BaseDados--><path codeLine="79" d="M1938.69,507.98 C1976.43,502.92 2013.96,497.28 2050,491 C2093.3,483.45 2141.36,471.49 2178.24,461.53 " fill="none" id="DroneBD-to-BaseDados" style="stroke:#A80036;stroke-width:1.0;stroke-dasharray:7.0,7.0;"/><polygon fill="#A80036" points="2183.14,460.2,2173.4043,458.7114,2178.3165,461.5168,2175.5112,466.429,2183.14,460.2" style="stroke:#A80036;stroke-width:1.0;"/><!--MD5=[ed1fc24a16fb1bf7ca9187d1c0d60594]
link DroneBD to Drone--><path codeLine="80" d="M2050.19,533.71 C2172.98,530.91 2303.39,527.93 2425.87,525.13 " fill="none" id="DroneBD-to-Drone" style="stroke:#A80036;stroke-width:1.0;stroke-dasharray:7.0,7.0;"/><polygon fill="#A80036" points="2430.96,525.01,2421.8709,521.2167,2425.9613,525.1243,2422.0538,529.2146,2430.96,525.01" style="stroke:#A80036;stroke-width:1.0;"/><!--MD5=[9e5cbb93ef78d270dafda0cc114f7919]
@startuml
left to right direction

class AdicionarDroneUI{
}

class AdicionarDroneController{
+Drone novoDrone(carga,capacidadeBateria,consumoHoraBateria,tensaoBateria,massa,potencia,velocidade,avionics,drag,rotors,cargaMaxima)
+updateDrone(lugar,drone)
}

class AplicacaoPOT{
+getInstance()
+getPlataforma()
+getSessaoAtual()
}

class SessaoUtilizador{
+getEmailUtilizador()
}


class Farmacia{

}

class LugarDrone{
+setScooter(Scooter setScooter)
+verificaDisponibilidade()
}

class Drone{
-int id
-int carga
-double capacidadeBateria
-double consumoHoraBateria
-double tensaoBateria
-double massa
-double potencia
-double velocidade;
-double avionics;
-double drag;
-double rotors;
-double cargaMaxima;

+Drone(int carga, double capacidadeBateria, double consumoHoraBateria, double tensaoBateria, double massa, double potencia, double velocidade, double avionics, double drag, double rotors, double cargaMaxima)
}

class FarmaciaBD{
+Farmacia getFarmaciabyGestor(email)
+updateLugarDrone(lugar)
+getLugarDronebyFarm(farmID)
}

class BaseDados{
+getConnection()
+closeConnection()
}

class DroneBD{
+novoDrone(int carga, double capacidadeBateria, double consumoHoraBateria, double tensaoBateria, double massa, double potencia, double velocidade, double avionics, double drag, double rotors, double cargaMaxima)
+updateDrone(drone)
}

AdicionarDroneUI..> AdicionarDroneController

Farmacia "1" - -> "1" LugarDrone: possui
LugarDrone "1" - -> "1" Drone : possui

AdicionarDroneController ..> AplicacaoPOT

AdicionarDroneController ..> FarmaciaBD
AdicionarDroneController ..> DroneBD
AdicionarDroneController ..> SessaoUtilizador
AdicionarDroneController ..> Farmacia

AdicionarDroneController ..> LugarDrone

FarmaciaBD ..> BaseDados
DroneBD ..> BaseDados
DroneBD ..> Drone
@enduml

PlantUML version 1.2021.00(Sun Jan 10 10:25:05 GMT 2021)
(GPL source distribution)
Java Runtime: OpenJDK Runtime Environment
JVM: OpenJDK 64-Bit Server VM
Default Encoding: Cp1252
Language: pt
Country: PT
--></g></svg>