<?xml version="1.0" encoding="UTF-8" standalone="no"?><svg xmlns="http://www.w3.org/2000/svg" xmlns:xlink="http://www.w3.org/1999/xlink" contentScriptType="application/ecmascript" contentStyleType="text/css" height="1014px" preserveAspectRatio="none" style="width:1189px;height:1014px;" version="1.1" viewBox="0 0 1189 1014" width="1189px" zoomAndPan="magnify"><defs><filter height="300%" id="f1tiw1dyv8jn0n" width="300%" x="-1" y="-1"><feGaussianBlur result="blurOut" stdDeviation="2.0"/><feColorMatrix in="blurOut" result="blurOut2" type="matrix" values="0 0 0 0 0 0 0 0 0 0 0 0 0 0 0 0 0 0 .4 0"/><feOffset dx="4.0" dy="4.0" in="blurOut2" result="blurOut3"/><feBlend in="SourceGraphic" in2="blurOut3" mode="normal"/></filter></defs><g><rect fill="#FFFFFF" filter="url(#f1tiw1dyv8jn0n)" height="788.6797" style="stroke:#A80036;stroke-width:1.0;" width="10" x="24.5" y="121.9609"/><rect fill="#FFFFFF" filter="url(#f1tiw1dyv8jn0n)" height="241.7578" style="stroke:#A80036;stroke-width:1.0;" width="10" x="278.5" y="121.9609"/><rect fill="#FFFFFF" filter="url(#f1tiw1dyv8jn0n)" height="258.1094" style="stroke:#A80036;stroke-width:1.0;" width="10" x="278.5" y="410.4219"/><rect fill="#FFFFFF" filter="url(#f1tiw1dyv8jn0n)" height="211.7578" style="stroke:#A80036;stroke-width:1.0;" width="10" x="278.5" y="698.8828"/><rect fill="#FFFFFF" filter="url(#f1tiw1dyv8jn0n)" height="60.3516" style="stroke:#A80036;stroke-width:1.0;" width="10" x="510.5" y="152.3125"/><rect fill="#FFFFFF" filter="url(#f1tiw1dyv8jn0n)" height="60.3516" style="stroke:#A80036;stroke-width:1.0;" width="10" x="510.5" y="440.7734"/><rect fill="#FFFFFF" filter="url(#f1tiw1dyv8jn0n)" height="151.0547" style="stroke:#A80036;stroke-width:1.0;" width="10" x="510.5" y="729.2344"/><rect fill="#FFFFFF" filter="url(#f1tiw1dyv8jn0n)" height="150.7031" style="stroke:#A80036;stroke-width:1.0;" width="10" x="742.5" y="182.6641"/><rect fill="#FFFFFF" filter="url(#f1tiw1dyv8jn0n)" height="150.7031" style="stroke:#A80036;stroke-width:1.0;" width="10" x="742.5" y="471.125"/><rect fill="#FFFFFF" filter="url(#f1tiw1dyv8jn0n)" height="120.7031" style="stroke:#A80036;stroke-width:1.0;" width="10" x="742.5" y="759.5859"/><rect fill="#FFFFFF" filter="url(#f1tiw1dyv8jn0n)" height="30" style="stroke:#A80036;stroke-width:1.0;" width="10" x="951.5" y="243.0156"/><rect fill="#FFFFFF" filter="url(#f1tiw1dyv8jn0n)" height="30" style="stroke:#A80036;stroke-width:1.0;" width="10" x="951.5" y="303.3672"/><rect fill="#FFFFFF" filter="url(#f1tiw1dyv8jn0n)" height="30" style="stroke:#A80036;stroke-width:1.0;" width="10" x="951.5" y="531.4766"/><rect fill="#FFFFFF" filter="url(#f1tiw1dyv8jn0n)" height="30" style="stroke:#A80036;stroke-width:1.0;" width="10" x="951.5" y="591.8281"/><rect fill="#FFFFFF" filter="url(#f1tiw1dyv8jn0n)" height="30" style="stroke:#A80036;stroke-width:1.0;" width="10" x="951.5" y="789.9375"/><rect fill="#FFFFFF" filter="url(#f1tiw1dyv8jn0n)" height="30" style="stroke:#A80036;stroke-width:1.0;" width="10" x="951.5" y="850.2891"/><line style="stroke:#A80036;stroke-width:1.0;stroke-dasharray:5.0,5.0;" x1="29" x2="29" y1="89.6094" y2="928.6406"/><line style="stroke:#A80036;stroke-width:1.0;stroke-dasharray:5.0,5.0;" x1="283.5" x2="283.5" y1="89.6094" y2="928.6406"/><line style="stroke:#A80036;stroke-width:1.0;stroke-dasharray:5.0,5.0;" x1="515.5" x2="515.5" y1="89.6094" y2="928.6406"/><line style="stroke:#A80036;stroke-width:1.0;stroke-dasharray:5.0,5.0;" x1="747.5" x2="747.5" y1="89.6094" y2="928.6406"/><line style="stroke:#A80036;stroke-width:1.0;stroke-dasharray:5.0,5.0;" x1="956" x2="956" y1="89.6094" y2="928.6406"/><line style="stroke:#A80036;stroke-width:1.0;stroke-dasharray:5.0,5.0;" x1="1096" x2="1096" y1="89.6094" y2="928.6406"/><text fill="#000000" font-family="sans-serif" font-size="14" lengthAdjust="spacing" textLength="43" x="5" y="86.5332">Gestor</text><ellipse cx="29.5" cy="15" fill="#FEFECE" filter="url(#f1tiw1dyv8jn0n)" rx="8" ry="8" style="stroke:#A80036;stroke-width:2.0;"/><path d="M29.5,23 L29.5,50 M16.5,31 L42.5,31 M29.5,50 L16.5,65 M29.5,50 L42.5,65 " fill="none" filter="url(#f1tiw1dyv8jn0n)" style="stroke:#A80036;stroke-width:2.0;"/><text fill="#000000" font-family="sans-serif" font-size="14" lengthAdjust="spacing" textLength="43" x="5" y="942.1738">Gestor</text><ellipse cx="29.5" cy="955.25" fill="#FEFECE" filter="url(#f1tiw1dyv8jn0n)" rx="8" ry="8" style="stroke:#A80036;stroke-width:2.0;"/><path d="M29.5,963.25 L29.5,990.25 M16.5,971.25 L42.5,971.25 M29.5,990.25 L16.5,1005.25 M29.5,990.25 L42.5,1005.25 " fill="none" filter="url(#f1tiw1dyv8jn0n)" style="stroke:#A80036;stroke-width:2.0;"/><rect fill="#FEFECE" filter="url(#f1tiw1dyv8jn0n)" height="31.6094" style="stroke:#A80036;stroke-width:1.5;" width="126" x="218.5" y="53"/><text fill="#000000" font-family="sans-serif" font-size="14" lengthAdjust="spacing" textLength="112" x="225.5" y="74.5332">:RemoverDroneUI</text><rect fill="#FEFECE" filter="url(#f1tiw1dyv8jn0n)" height="31.6094" style="stroke:#A80036;stroke-width:1.5;" width="126" x="218.5" y="927.6406"/><text fill="#000000" font-family="sans-serif" font-size="14" lengthAdjust="spacing" textLength="112" x="225.5" y="949.1738">:RemoverDroneUI</text><rect fill="#FEFECE" filter="url(#f1tiw1dyv8jn0n)" height="31.6094" style="stroke:#A80036;stroke-width:1.5;" width="176" x="425.5" y="53"/><text fill="#000000" font-family="sans-serif" font-size="14" lengthAdjust="spacing" textLength="162" x="432.5" y="74.5332">:RemoverDroneController</text><rect fill="#FEFECE" filter="url(#f1tiw1dyv8jn0n)" height="31.6094" style="stroke:#A80036;stroke-width:1.5;" width="176" x="425.5" y="927.6406"/><text fill="#000000" font-family="sans-serif" font-size="14" lengthAdjust="spacing" textLength="162" x="432.5" y="949.1738">:RemoverDroneController</text><rect fill="#FEFECE" filter="url(#f1tiw1dyv8jn0n)" height="31.6094" style="stroke:#A80036;stroke-width:1.5;" width="76" x="707.5" y="53"/><text fill="#000000" font-family="sans-serif" font-size="14" lengthAdjust="spacing" textLength="62" x="714.5" y="74.5332">:DroneBD</text><rect fill="#FEFECE" filter="url(#f1tiw1dyv8jn0n)" height="31.6094" style="stroke:#A80036;stroke-width:1.5;" width="76" x="707.5" y="927.6406"/><text fill="#000000" font-family="sans-serif" font-size="14" lengthAdjust="spacing" textLength="62" x="714.5" y="949.1738">:DroneBD</text><rect fill="#FEFECE" filter="url(#f1tiw1dyv8jn0n)" height="31.6094" style="stroke:#A80036;stroke-width:1.5;" width="91" x="909" y="53"/><text fill="#000000" font-family="sans-serif" font-size="14" lengthAdjust="spacing" textLength="77" x="916" y="74.5332">:BaseDados</text><rect fill="#FEFECE" filter="url(#f1tiw1dyv8jn0n)" height="31.6094" style="stroke:#A80036;stroke-width:1.5;" width="91" x="909" y="927.6406"/><text fill="#000000" font-family="sans-serif" font-size="14" lengthAdjust="spacing" textLength="77" x="916" y="949.1738">:BaseDados</text><rect fill="#FEFECE" filter="url(#f1tiw1dyv8jn0n)" height="31.6094" style="stroke:#A80036;stroke-width:1.5;" width="161" x="1014" y="53"/><text fill="#000000" font-family="sans-serif" font-size="14" lengthAdjust="spacing" textLength="147" x="1021" y="74.5332">listaDrone :List&lt;String&gt;</text><rect fill="#FEFECE" filter="url(#f1tiw1dyv8jn0n)" height="31.6094" style="stroke:#A80036;stroke-width:1.5;" width="161" x="1014" y="927.6406"/><text fill="#000000" font-family="sans-serif" font-size="14" lengthAdjust="spacing" textLength="147" x="1021" y="949.1738">listaDrone :List&lt;String&gt;</text><rect fill="#FFFFFF" filter="url(#f1tiw1dyv8jn0n)" height="788.6797" style="stroke:#A80036;stroke-width:1.0;" width="10" x="24.5" y="121.9609"/><rect fill="#FFFFFF" filter="url(#f1tiw1dyv8jn0n)" height="241.7578" style="stroke:#A80036;stroke-width:1.0;" width="10" x="278.5" y="121.9609"/><rect fill="#FFFFFF" filter="url(#f1tiw1dyv8jn0n)" height="258.1094" style="stroke:#A80036;stroke-width:1.0;" width="10" x="278.5" y="410.4219"/><rect fill="#FFFFFF" filter="url(#f1tiw1dyv8jn0n)" height="211.7578" style="stroke:#A80036;stroke-width:1.0;" width="10" x="278.5" y="698.8828"/><rect fill="#FFFFFF" filter="url(#f1tiw1dyv8jn0n)" height="60.3516" style="stroke:#A80036;stroke-width:1.0;" width="10" x="510.5" y="152.3125"/><rect fill="#FFFFFF" filter="url(#f1tiw1dyv8jn0n)" height="60.3516" style="stroke:#A80036;stroke-width:1.0;" width="10" x="510.5" y="440.7734"/><rect fill="#FFFFFF" filter="url(#f1tiw1dyv8jn0n)" height="151.0547" style="stroke:#A80036;stroke-width:1.0;" width="10" x="510.5" y="729.2344"/><rect fill="#FFFFFF" filter="url(#f1tiw1dyv8jn0n)" height="150.7031" style="stroke:#A80036;stroke-width:1.0;" width="10" x="742.5" y="182.6641"/><rect fill="#FFFFFF" filter="url(#f1tiw1dyv8jn0n)" height="150.7031" style="stroke:#A80036;stroke-width:1.0;" width="10" x="742.5" y="471.125"/><rect fill="#FFFFFF" filter="url(#f1tiw1dyv8jn0n)" height="120.7031" style="stroke:#A80036;stroke-width:1.0;" width="10" x="742.5" y="759.5859"/><rect fill="#FFFFFF" filter="url(#f1tiw1dyv8jn0n)" height="30" style="stroke:#A80036;stroke-width:1.0;" width="10" x="951.5" y="243.0156"/><rect fill="#FFFFFF" filter="url(#f1tiw1dyv8jn0n)" height="30" style="stroke:#A80036;stroke-width:1.0;" width="10" x="951.5" y="303.3672"/><rect fill="#FFFFFF" filter="url(#f1tiw1dyv8jn0n)" height="30" style="stroke:#A80036;stroke-width:1.0;" width="10" x="951.5" y="531.4766"/><rect fill="#FFFFFF" filter="url(#f1tiw1dyv8jn0n)" height="30" style="stroke:#A80036;stroke-width:1.0;" width="10" x="951.5" y="591.8281"/><rect fill="#FFFFFF" filter="url(#f1tiw1dyv8jn0n)" height="30" style="stroke:#A80036;stroke-width:1.0;" width="10" x="951.5" y="789.9375"/><rect fill="#FFFFFF" filter="url(#f1tiw1dyv8jn0n)" height="30" style="stroke:#A80036;stroke-width:1.0;" width="10" x="951.5" y="850.2891"/><polygon fill="#A80036" points="266.5,117.9609,276.5,121.9609,266.5,125.9609,270.5,121.9609" style="stroke:#A80036;stroke-width:1.0;"/><line style="stroke:#A80036;stroke-width:1.0;" x1="34.5" x2="272.5" y1="121.9609" y2="121.9609"/><text fill="#000000" font-family="sans-serif" font-size="13" font-weight="bold" lengthAdjust="spacing" textLength="7" x="41.5" y="117.1045">1</text><text fill="#000000" font-family="sans-serif" font-size="13" lengthAdjust="spacing" textLength="164" x="52.5" y="117.1045">Seleciona remover um drone</text><polygon fill="#A80036" points="498.5,148.3125,508.5,152.3125,498.5,156.3125,502.5,152.3125" style="stroke:#A80036;stroke-width:1.0;"/><line style="stroke:#A80036;stroke-width:1.0;" x1="288.5" x2="504.5" y1="152.3125" y2="152.3125"/><text fill="#000000" font-family="sans-serif" font-size="13" font-weight="bold" lengthAdjust="spacing" textLength="7" x="295.5" y="147.4561">2</text><text fill="#000000" font-family="sans-serif" font-size="13" lengthAdjust="spacing" textLength="154" x="306.5" y="147.4561">listaDrone=getListaDrone()</text><polygon fill="#A80036" points="730.5,178.6641,740.5,182.6641,730.5,186.6641,734.5,182.6641" style="stroke:#A80036;stroke-width:1.0;"/><line style="stroke:#A80036;stroke-width:1.0;" x1="520.5" x2="736.5" y1="182.6641" y2="182.6641"/><text fill="#000000" font-family="sans-serif" font-size="13" font-weight="bold" lengthAdjust="spacing" textLength="7" x="527.5" y="177.8076">3</text><text fill="#000000" font-family="sans-serif" font-size="13" lengthAdjust="spacing" textLength="158" x="538.5" y="177.8076">listaDrone= getListaDrone()</text><polygon fill="#A80036" points="939.5,239.0156,949.5,243.0156,939.5,247.0156,943.5,243.0156" style="stroke:#A80036;stroke-width:1.0;"/><line style="stroke:#A80036;stroke-width:1.0;" x1="752.5" x2="945.5" y1="243.0156" y2="243.0156"/><text fill="#000000" font-family="sans-serif" font-size="13" font-weight="bold" lengthAdjust="spacing" textLength="7" x="759.5" y="238.1592">4</text><text fill="#000000" font-family="sans-serif" font-size="13" lengthAdjust="spacing" textLength="162" x="770.5" y="238.1592">connection=getConnection()</text><polygon fill="#A80036" points="939.5,299.3672,949.5,303.3672,939.5,307.3672,943.5,303.3672" style="stroke:#A80036;stroke-width:1.0;"/><line style="stroke:#A80036;stroke-width:1.0;" x1="752.5" x2="945.5" y1="303.3672" y2="303.3672"/><text fill="#000000" font-family="sans-serif" font-size="13" font-weight="bold" lengthAdjust="spacing" textLength="7" x="759.5" y="298.5107">5</text><text fill="#000000" font-family="sans-serif" font-size="13" lengthAdjust="spacing" textLength="104" x="770.5" y="298.5107">closeConnection()</text><polygon fill="#A80036" points="45.5,359.7188,35.5,363.7188,45.5,367.7188,41.5,363.7188" style="stroke:#A80036;stroke-width:1.0;"/><line style="stroke:#A80036;stroke-width:1.0;stroke-dasharray:2.0,2.0;" x1="39.5" x2="282.5" y1="363.7188" y2="363.7188"/><text fill="#000000" font-family="sans-serif" font-size="13" font-weight="bold" lengthAdjust="spacing" textLength="7" x="51.5" y="358.8623">6</text><text fill="#000000" font-family="sans-serif" font-size="13" lengthAdjust="spacing" textLength="159" x="62.5" y="358.8623">Apresenta a lista de drones</text><polygon fill="#A80036" points="266.5,406.4219,276.5,410.4219,266.5,414.4219,270.5,410.4219" style="stroke:#A80036;stroke-width:1.0;"/><line style="stroke:#A80036;stroke-width:1.0;" x1="34.5" x2="272.5" y1="410.4219" y2="410.4219"/><text fill="#000000" font-family="sans-serif" font-size="13" font-weight="bold" lengthAdjust="spacing" textLength="7" x="41.5" y="397.3896">7</text><text fill="#000000" font-family="sans-serif" font-size="13" lengthAdjust="spacing" textLength="161" x="52.5" y="389.2139">Seleciona o id do drone que</text><text fill="#000000" font-family="sans-serif" font-size="13" lengthAdjust="spacing" textLength="99" x="56.5" y="405.5654">pretende remover</text><polygon fill="#A80036" points="498.5,436.7734,508.5,440.7734,498.5,444.7734,502.5,440.7734" style="stroke:#A80036;stroke-width:1.0;"/><line style="stroke:#A80036;stroke-width:1.0;" x1="288.5" x2="504.5" y1="440.7734" y2="440.7734"/><text fill="#000000" font-family="sans-serif" font-size="13" font-weight="bold" lengthAdjust="spacing" textLength="7" x="295.5" y="435.917">8</text><text fill="#000000" font-family="sans-serif" font-size="13" lengthAdjust="spacing" textLength="192" x="306.5" y="435.917">infoDrone=getDronebyID(droneID)</text><polygon fill="#A80036" points="730.5,467.125,740.5,471.125,730.5,475.125,734.5,471.125" style="stroke:#A80036;stroke-width:1.0;"/><line style="stroke:#A80036;stroke-width:1.0;" x1="520.5" x2="736.5" y1="471.125" y2="471.125"/><text fill="#000000" font-family="sans-serif" font-size="13" font-weight="bold" lengthAdjust="spacing" textLength="7" x="527.5" y="466.2686">9</text><text fill="#000000" font-family="sans-serif" font-size="13" lengthAdjust="spacing" textLength="192" x="538.5" y="466.2686">infoDrone=getDronebyID(droneID)</text><polygon fill="#A80036" points="939.5,527.4766,949.5,531.4766,939.5,535.4766,943.5,531.4766" style="stroke:#A80036;stroke-width:1.0;"/><line style="stroke:#A80036;stroke-width:1.0;" x1="752.5" x2="945.5" y1="531.4766" y2="531.4766"/><text fill="#000000" font-family="sans-serif" font-size="13" font-weight="bold" lengthAdjust="spacing" textLength="14" x="759.5" y="526.6201">10</text><text fill="#000000" font-family="sans-serif" font-size="13" lengthAdjust="spacing" textLength="162" x="777.5" y="526.6201">connection=getConnection()</text><polygon fill="#A80036" points="939.5,587.8281,949.5,591.8281,939.5,595.8281,943.5,591.8281" style="stroke:#A80036;stroke-width:1.0;"/><line style="stroke:#A80036;stroke-width:1.0;" x1="752.5" x2="945.5" y1="591.8281" y2="591.8281"/><text fill="#000000" font-family="sans-serif" font-size="13" font-weight="bold" lengthAdjust="spacing" textLength="14" x="759.5" y="586.9717">11</text><text fill="#000000" font-family="sans-serif" font-size="13" lengthAdjust="spacing" textLength="104" x="777.5" y="586.9717">closeConnection()</text><polygon fill="#A80036" points="45.5,664.5313,35.5,668.5313,45.5,672.5313,41.5,668.5313" style="stroke:#A80036;stroke-width:1.0;"/><line style="stroke:#A80036;stroke-width:1.0;stroke-dasharray:2.0,2.0;" x1="39.5" x2="282.5" y1="668.5313" y2="668.5313"/><text fill="#000000" font-family="sans-serif" font-size="13" font-weight="bold" lengthAdjust="spacing" textLength="14" x="51.5" y="655.499">12</text><text fill="#000000" font-family="sans-serif" font-size="13" lengthAdjust="spacing" textLength="170" x="69.5" y="647.3232">Apresenta os dados do drone</text><text fill="#000000" font-family="sans-serif" font-size="13" lengthAdjust="spacing" textLength="198" x="73.5" y="663.6748">e solicita confirmação da remoção</text><polygon fill="#A80036" points="266.5,694.8828,276.5,698.8828,266.5,702.8828,270.5,698.8828" style="stroke:#A80036;stroke-width:1.0;"/><line style="stroke:#A80036;stroke-width:1.0;" x1="34.5" x2="272.5" y1="698.8828" y2="698.8828"/><text fill="#000000" font-family="sans-serif" font-size="13" font-weight="bold" lengthAdjust="spacing" textLength="14" x="41.5" y="694.0264">13</text><text fill="#000000" font-family="sans-serif" font-size="13" lengthAdjust="spacing" textLength="51" x="59.5" y="694.0264">Confirma</text><polygon fill="#A80036" points="498.5,725.2344,508.5,729.2344,498.5,733.2344,502.5,729.2344" style="stroke:#A80036;stroke-width:1.0;"/><line style="stroke:#A80036;stroke-width:1.0;" x1="288.5" x2="504.5" y1="729.2344" y2="729.2344"/><text fill="#000000" font-family="sans-serif" font-size="13" font-weight="bold" lengthAdjust="spacing" textLength="14" x="295.5" y="724.3779">14</text><text fill="#000000" font-family="sans-serif" font-size="13" lengthAdjust="spacing" textLength="131" x="313.5" y="724.3779">removerDrone(droneID)</text><polygon fill="#A80036" points="730.5,755.5859,740.5,759.5859,730.5,763.5859,734.5,759.5859" style="stroke:#A80036;stroke-width:1.0;"/><line style="stroke:#A80036;stroke-width:1.0;" x1="520.5" x2="736.5" y1="759.5859" y2="759.5859"/><text fill="#000000" font-family="sans-serif" font-size="13" font-weight="bold" lengthAdjust="spacing" textLength="14" x="527.5" y="754.7295">15</text><text fill="#000000" font-family="sans-serif" font-size="13" lengthAdjust="spacing" textLength="131" x="545.5" y="754.7295">removerDrone(droneID)</text><polygon fill="#A80036" points="939.5,785.9375,949.5,789.9375,939.5,793.9375,943.5,789.9375" style="stroke:#A80036;stroke-width:1.0;"/><line style="stroke:#A80036;stroke-width:1.0;" x1="752.5" x2="945.5" y1="789.9375" y2="789.9375"/><text fill="#000000" font-family="sans-serif" font-size="13" font-weight="bold" lengthAdjust="spacing" textLength="14" x="759.5" y="785.0811">16</text><text fill="#000000" font-family="sans-serif" font-size="13" lengthAdjust="spacing" textLength="162" x="777.5" y="785.0811">connection=getConnection()</text><polygon fill="#A80036" points="939.5,846.2891,949.5,850.2891,939.5,854.2891,943.5,850.2891" style="stroke:#A80036;stroke-width:1.0;"/><line style="stroke:#A80036;stroke-width:1.0;" x1="752.5" x2="945.5" y1="850.2891" y2="850.2891"/><text fill="#000000" font-family="sans-serif" font-size="13" font-weight="bold" lengthAdjust="spacing" textLength="14" x="759.5" y="845.4326">17</text><text fill="#000000" font-family="sans-serif" font-size="13" lengthAdjust="spacing" textLength="104" x="777.5" y="845.4326">closeConnection()</text><polygon fill="#A80036" points="40.5,906.6406,30.5,910.6406,40.5,914.6406,36.5,910.6406" style="stroke:#A80036;stroke-width:1.0;"/><line style="stroke:#A80036;stroke-width:1.0;stroke-dasharray:2.0,2.0;" x1="34.5" x2="282.5" y1="910.6406" y2="910.6406"/><text fill="#000000" font-family="sans-serif" font-size="13" font-weight="bold" lengthAdjust="spacing" textLength="14" x="46.5" y="905.7842">18</text><text fill="#000000" font-family="sans-serif" font-size="13" lengthAdjust="spacing" textLength="188" x="64.5" y="905.7842">informa do sucesso da operação</text><!--MD5=[66919aad5ff80a5d6aaefad4a90cca1a]
@startuml
autonumber

actor "Gestor" as GEST
participant ":RemoverDroneUI" as UI
participant ":RemoverDroneController" as CONTROLLER
participant ":DroneBD" as DBD
participant ":BaseDados" as BD
participant "listaDrone :List<String>"


GEST -> UI : Seleciona remover um drone
activate GEST
activate UI
UI->CONTROLLER: listaDrone=getListaDrone()
activate CONTROLLER

CONTROLLER -> DBD : listaDrone= getListaDrone()

activate DBD
deactivate CONTROLLER
  DBD -> BD : connection=getConnection()
        activate BD
        deactivate BD
          DBD -> BD : closeConnection()
        activate BD
        deactivate BD
deactivate DBD

UI - -> GEST: Apresenta a lista de drones
deactivate UI

GEST-> UI : Seleciona o id do drone que \n pretende remover
activate UI
UI->CONTROLLER: infoDrone=getDronebyID(droneID)
activate CONTROLLER
CONTROLLER -> DBD : infoDrone=getDronebyID(droneID)

activate DBD
deactivate CONTROLLER
 DBD -> BD : connection=getConnection()
        activate BD
        deactivate BD
          DBD -> BD : closeConnection()
        activate BD
        deactivate BD
deactivate DBD
deactivate CONTROLLER
UI- ->GEST: Apresenta os dados do drone \n e solicita confirmação da remoção
deactivate UI

GEST-> UI: Confirma
activate UI
UI->CONTROLLER: removerDrone(droneID)
activate CONTROLLER
CONTROLLER-> DBD: removerDrone(droneID)
activate DBD
 DBD -> BD : connection=getConnection()
        activate BD
        deactivate BD
          DBD -> BD : closeConnection()
        activate BD
        deactivate BD
deactivate DBD
deactivate CONTROLLER
UI- -> GEST : informa do sucesso da operação
deactivate UI

deactivate GEST

@enduml

PlantUML version 1.2021.00(Sun Jan 10 10:25:05 GMT 2021)
(GPL source distribution)
Java Runtime: OpenJDK Runtime Environment
JVM: OpenJDK 64-Bit Server VM
Default Encoding: Cp1252
Language: pt
Country: PT
--></g></svg>