<?xml version="1.0" encoding="UTF-8" standalone="no"?><svg xmlns="http://www.w3.org/2000/svg" xmlns:xlink="http://www.w3.org/1999/xlink" contentScriptType="application/ecmascript" contentStyleType="text/css" height="504px" preserveAspectRatio="none" style="width:191px;height:504px;" version="1.1" viewBox="0 0 191 504" width="191px" zoomAndPan="magnify"><defs><filter height="300%" id="f4sqo4hcls9r7" width="300%" x="-1" y="-1"><feGaussianBlur result="blurOut" stdDeviation="2.0"/><feColorMatrix in="blurOut" result="blurOut2" type="matrix" values="0 0 0 0 0 0 0 0 0 0 0 0 0 0 0 0 0 0 .4 0"/><feOffset dx="4.0" dy="4.0" in="blurOut2" result="blurOut3"/><feBlend in="SourceGraphic" in2="blurOut3" mode="normal"/></filter></defs><g><!--MD5=[b1f962df9e86b949afe43e8bef76a1f7]
class RemoverDroneUI--><rect codeLine="2" fill="#FEFECE" filter="url(#f4sqo4hcls9r7)" height="48" id="RemoverDroneUI" style="stroke:#A80036;stroke-width:1.5;" width="128" x="28" y="7"/><ellipse cx="43" cy="23" fill="#ADD1B2" rx="11" ry="11" style="stroke:#A80036;stroke-width:1.0;"/><path d="M45,19.5 Q45.2031,19 45.4375,18.75 Q45.6719,18.5 45.9375,18.5 Q46.4063,18.5 46.7031,18.7813 Q47,19.0625 47,19.7188 L47,21.2813 Q47,21.9375 46.7188,22.2188 Q46.4375,22.5 46,22.5 Q45.6094,22.5 45.3594,22.3281 Q45.1094,22.1563 45,21.7031 Q44.9531,21.3906 44.7813,21.2188 Q44.4688,20.8906 43.9063,20.7031 Q43.3438,20.5 42.7813,20.5 Q42.0781,20.5 41.4844,20.7813 Q40.9063,21.0625 40.4531,21.6875 Q40,22.3125 40,23.1719 L40,24.0938 Q40,25.125 40.8438,25.8125 Q41.6875,26.5 43.1875,26.5 Q44.0781,26.5 44.7031,26.2969 Q45.0625,26.1875 45.4688,25.8281 Q45.7344,25.625 45.875,25.5625 Q46.0156,25.5 46.1875,25.5 Q46.5156,25.5 46.75,25.7656 Q47,26.0156 47,26.375 Q47,26.7188 46.6563,27.125 Q46.1563,27.7188 45.3594,28.0469 Q44.3125,28.5 43.0313,28.5 Q41.5313,28.5 40.3281,27.9063 Q39.3594,27.4375 38.6719,26.4219 Q38,25.4063 38,24.2031 L38,23.1094 Q38,21.8594 38.5938,20.7656 Q39.2031,19.6719 40.25,19.0938 Q41.3125,18.5 42.5,18.5 Q43.2188,18.5 43.8438,18.75 Q44.4688,19 45,19.5 Z " fill="#000000"/><text fill="#000000" font-family="sans-serif" font-size="12" lengthAdjust="spacing" textLength="96" x="57" y="27.9102">RemoverDroneUI</text><line style="stroke:#A80036;stroke-width:1.5;" x1="29" x2="155" y1="39" y2="39"/><line style="stroke:#A80036;stroke-width:1.5;" x1="29" x2="155" y1="47" y2="47"/><!--MD5=[77a240e6f87d1eb4d91471648b8e36b4]
class RemoverDroneController--><rect codeLine="5" fill="#FEFECE" filter="url(#f4sqo4hcls9r7)" height="89.5078" id="RemoverDroneController" style="stroke:#A80036;stroke-width:1.5;" width="170" x="7" y="115"/><ellipse cx="22" cy="131" fill="#ADD1B2" rx="11" ry="11" style="stroke:#A80036;stroke-width:1.0;"/><path d="M24,127.5 Q24.2031,127 24.4375,126.75 Q24.6719,126.5 24.9375,126.5 Q25.4063,126.5 25.7031,126.7813 Q26,127.0625 26,127.7188 L26,129.2813 Q26,129.9375 25.7188,130.2188 Q25.4375,130.5 25,130.5 Q24.6094,130.5 24.3594,130.3281 Q24.1094,130.1563 24,129.7031 Q23.9531,129.3906 23.7813,129.2188 Q23.4688,128.8906 22.9063,128.7031 Q22.3438,128.5 21.7813,128.5 Q21.0781,128.5 20.4844,128.7813 Q19.9063,129.0625 19.4531,129.6875 Q19,130.3125 19,131.1719 L19,132.0938 Q19,133.125 19.8438,133.8125 Q20.6875,134.5 22.1875,134.5 Q23.0781,134.5 23.7031,134.2969 Q24.0625,134.1875 24.4688,133.8281 Q24.7344,133.625 24.875,133.5625 Q25.0156,133.5 25.1875,133.5 Q25.5156,133.5 25.75,133.7656 Q26,134.0156 26,134.375 Q26,134.7188 25.6563,135.125 Q25.1563,135.7188 24.3594,136.0469 Q23.3125,136.5 22.0313,136.5 Q20.5313,136.5 19.3281,135.9063 Q18.3594,135.4375 17.6719,134.4219 Q17,133.4063 17,132.2031 L17,131.1094 Q17,129.8594 17.5938,128.7656 Q18.2031,127.6719 19.25,127.0938 Q20.3125,126.5 21.5,126.5 Q22.2188,126.5 22.8438,126.75 Q23.4688,127 24,127.5 Z " fill="#000000"/><text fill="#000000" font-family="sans-serif" font-size="12" lengthAdjust="spacing" textLength="138" x="36" y="135.9102">RemoverDroneController</text><line style="stroke:#A80036;stroke-width:1.5;" x1="8" x2="176" y1="147" y2="147"/><line style="stroke:#A80036;stroke-width:1.5;" x1="8" x2="176" y1="155" y2="155"/><ellipse cx="18" cy="166" fill="#84BE84" rx="3" ry="3" style="stroke:#038048;stroke-width:1.0;"/><text fill="#000000" font-family="sans-serif" font-size="11" lengthAdjust="spacing" textLength="135" x="27" y="170.4189">List&lt;String&gt; getListaDrone()</text><ellipse cx="18" cy="179.8359" fill="#84BE84" rx="3" ry="3" style="stroke:#038048;stroke-width:1.0;"/><text fill="#000000" font-family="sans-serif" font-size="11" lengthAdjust="spacing" textLength="141" x="27" y="184.2549">String getDronebyID(droneID)</text><ellipse cx="18" cy="193.6719" fill="#84BE84" rx="3" ry="3" style="stroke:#038048;stroke-width:1.0;"/><text fill="#000000" font-family="sans-serif" font-size="11" lengthAdjust="spacing" textLength="114" x="27" y="198.0908">removerDrone(droneID)</text><!--MD5=[cae86d803c82ab7988454d662cc2fd27]
class DroneBD--><rect codeLine="11" fill="#FEFECE" filter="url(#f4sqo4hcls9r7)" height="89.5078" id="DroneBD" style="stroke:#A80036;stroke-width:1.5;" width="167" x="8.5" y="265"/><ellipse cx="62.25" cy="281" fill="#ADD1B2" rx="11" ry="11" style="stroke:#A80036;stroke-width:1.0;"/><path d="M64.25,277.5 Q64.4531,277 64.6875,276.75 Q64.9219,276.5 65.1875,276.5 Q65.6563,276.5 65.9531,276.7813 Q66.25,277.0625 66.25,277.7188 L66.25,279.2813 Q66.25,279.9375 65.9688,280.2188 Q65.6875,280.5 65.25,280.5 Q64.8594,280.5 64.6094,280.3281 Q64.3594,280.1563 64.25,279.7031 Q64.2031,279.3906 64.0313,279.2188 Q63.7188,278.8906 63.1563,278.7031 Q62.5938,278.5 62.0313,278.5 Q61.3281,278.5 60.7344,278.7813 Q60.1563,279.0625 59.7031,279.6875 Q59.25,280.3125 59.25,281.1719 L59.25,282.0938 Q59.25,283.125 60.0938,283.8125 Q60.9375,284.5 62.4375,284.5 Q63.3281,284.5 63.9531,284.2969 Q64.3125,284.1875 64.7188,283.8281 Q64.9844,283.625 65.125,283.5625 Q65.2656,283.5 65.4375,283.5 Q65.7656,283.5 66,283.7656 Q66.25,284.0156 66.25,284.375 Q66.25,284.7188 65.9063,285.125 Q65.4063,285.7188 64.6094,286.0469 Q63.5625,286.5 62.2813,286.5 Q60.7813,286.5 59.5781,285.9063 Q58.6094,285.4375 57.9219,284.4219 Q57.25,283.4063 57.25,282.2031 L57.25,281.1094 Q57.25,279.8594 57.8438,278.7656 Q58.4531,277.6719 59.5,277.0938 Q60.5625,276.5 61.75,276.5 Q62.4688,276.5 63.0938,276.75 Q63.7188,277 64.25,277.5 Z " fill="#000000"/><text fill="#000000" font-family="sans-serif" font-size="12" lengthAdjust="spacing" textLength="51" x="82.75" y="285.9102">DroneBD</text><line style="stroke:#A80036;stroke-width:1.5;" x1="9.5" x2="174.5" y1="297" y2="297"/><line style="stroke:#A80036;stroke-width:1.5;" x1="9.5" x2="174.5" y1="305" y2="305"/><ellipse cx="19.5" cy="316" fill="#84BE84" rx="3" ry="3" style="stroke:#038048;stroke-width:1.0;"/><text fill="#000000" font-family="sans-serif" font-size="11" lengthAdjust="spacing" textLength="135" x="28.5" y="320.4189">List&lt;String&gt; getListaDrone()</text><ellipse cx="19.5" cy="329.8359" fill="#84BE84" rx="3" ry="3" style="stroke:#038048;stroke-width:1.0;"/><text fill="#000000" font-family="sans-serif" font-size="11" lengthAdjust="spacing" textLength="141" x="28.5" y="334.2549">String getDronebyID(droneID)</text><ellipse cx="19.5" cy="343.6719" fill="#84BE84" rx="3" ry="3" style="stroke:#038048;stroke-width:1.0;"/><text fill="#000000" font-family="sans-serif" font-size="11" lengthAdjust="spacing" textLength="114" x="28.5" y="348.0908">removerDrone(droneID)</text><!--MD5=[9c5439856a1aad23e042de9a355b14cb]
class BaseDados--><rect codeLine="17" fill="#FEFECE" filter="url(#f4sqo4hcls9r7)" height="75.6719" id="BaseDados" style="stroke:#A80036;stroke-width:1.5;" width="114" x="35" y="415"/><ellipse cx="57.2" cy="431" fill="#ADD1B2" rx="11" ry="11" style="stroke:#A80036;stroke-width:1.0;"/><path d="M59.2,427.5 Q59.4031,427 59.6375,426.75 Q59.8719,426.5 60.1375,426.5 Q60.6063,426.5 60.9031,426.7813 Q61.2,427.0625 61.2,427.7188 L61.2,429.2813 Q61.2,429.9375 60.9188,430.2188 Q60.6375,430.5 60.2,430.5 Q59.8094,430.5 59.5594,430.3281 Q59.3094,430.1563 59.2,429.7031 Q59.1531,429.3906 58.9813,429.2188 Q58.6688,428.8906 58.1063,428.7031 Q57.5438,428.5 56.9813,428.5 Q56.2781,428.5 55.6844,428.7813 Q55.1063,429.0625 54.6531,429.6875 Q54.2,430.3125 54.2,431.1719 L54.2,432.0938 Q54.2,433.125 55.0438,433.8125 Q55.8875,434.5 57.3875,434.5 Q58.2781,434.5 58.9031,434.2969 Q59.2625,434.1875 59.6688,433.8281 Q59.9344,433.625 60.075,433.5625 Q60.2156,433.5 60.3875,433.5 Q60.7156,433.5 60.95,433.7656 Q61.2,434.0156 61.2,434.375 Q61.2,434.7188 60.8563,435.125 Q60.3563,435.7188 59.5594,436.0469 Q58.5125,436.5 57.2313,436.5 Q55.7313,436.5 54.5281,435.9063 Q53.5594,435.4375 52.8719,434.4219 Q52.2,433.4063 52.2,432.2031 L52.2,431.1094 Q52.2,429.8594 52.7938,428.7656 Q53.4031,427.6719 54.45,427.0938 Q55.5125,426.5 56.7,426.5 Q57.4188,426.5 58.0438,426.75 Q58.6688,427 59.2,427.5 Z " fill="#000000"/><text fill="#000000" font-family="sans-serif" font-size="12" lengthAdjust="spacing" textLength="66" x="72.8" y="435.9102">BaseDados</text><line style="stroke:#A80036;stroke-width:1.5;" x1="36" x2="148" y1="447" y2="447"/><line style="stroke:#A80036;stroke-width:1.5;" x1="36" x2="148" y1="455" y2="455"/><ellipse cx="46" cy="466" fill="#84BE84" rx="3" ry="3" style="stroke:#038048;stroke-width:1.0;"/><text fill="#000000" font-family="sans-serif" font-size="11" lengthAdjust="spacing" textLength="77" x="55" y="470.4189">getConnection()</text><ellipse cx="46" cy="479.8359" fill="#84BE84" rx="3" ry="3" style="stroke:#038048;stroke-width:1.0;"/><text fill="#000000" font-family="sans-serif" font-size="11" lengthAdjust="spacing" textLength="88" x="55" y="484.2549">closeConnection()</text><!--MD5=[a9c48d4b2ea3f5c1d8202abba51a76c8]
link RemoverDroneUI to RemoverDroneController--><path codeLine="22" d="M92,55.29 C92,70.48 92,90.88 92,109.56 " fill="none" id="RemoverDroneUI-to-RemoverDroneController" style="stroke:#A80036;stroke-width:1.0;stroke-dasharray:7.0,7.0;"/><polygon fill="#A80036" points="92,114.78,96,105.78,92,109.78,88,105.78,92,114.78" style="stroke:#A80036;stroke-width:1.0;"/><!--MD5=[ae7721ceeb9317ea80fcc0b39cd42105]
link RemoverDroneController to DroneBD--><path codeLine="23" d="M92,205 C92,222.15 92,241.87 92,259.51 " fill="none" id="RemoverDroneController-to-DroneBD" style="stroke:#A80036;stroke-width:1.0;stroke-dasharray:7.0,7.0;"/><polygon fill="#A80036" points="92,264.91,96,255.91,92,259.91,88,255.91,92,264.91" style="stroke:#A80036;stroke-width:1.0;"/><!--MD5=[2f3f3103d19af2bd7b865b553690b26a]
link DroneBD to BaseDados--><path codeLine="24" d="M92,355.23 C92,372.5 92,392.23 92,409.35 " fill="none" id="DroneBD-to-BaseDados" style="stroke:#A80036;stroke-width:1.0;stroke-dasharray:7.0,7.0;"/><polygon fill="#A80036" points="92,414.57,96,405.57,92,409.57,88,405.57,92,414.57" style="stroke:#A80036;stroke-width:1.0;"/><!--MD5=[812eec1a47b50227fd20c63809849072]
@startuml

class RemoverDroneUI{
}

class RemoverDroneController{
+List<String> getListaDrone()
+String getDronebyID(droneID)
+removerDrone(droneID)
}

class DroneBD{
+List<String> getListaDrone()
+String getDronebyID(droneID)
+removerDrone(droneID)
}

class BaseDados{
+getConnection()
+closeConnection()
}

RemoverDroneUI ..> RemoverDroneController
RemoverDroneController ..> DroneBD
DroneBD ..> BaseDados

@enduml

PlantUML version 1.2021.00(Sun Jan 10 10:25:05 GMT 2021)
(GPL source distribution)
Java Runtime: OpenJDK Runtime Environment
JVM: OpenJDK 64-Bit Server VM
Default Encoding: Cp1252
Language: pt
Country: PT
--></g></svg>