<?xml version="1.0" encoding="UTF-8" standalone="no"?><svg xmlns="http://www.w3.org/2000/svg" xmlns:xlink="http://www.w3.org/1999/xlink" contentScriptType="application/ecmascript" contentStyleType="text/css" height="599px" preserveAspectRatio="none" style="width:682px;height:599px;" version="1.1" viewBox="0 0 682 599" width="682px" zoomAndPan="magnify"><defs><filter height="300%" id="f1korb6rddpibv" width="300%" x="-1" y="-1"><feGaussianBlur result="blurOut" stdDeviation="2.0"/><feColorMatrix in="blurOut" result="blurOut2" type="matrix" values="0 0 0 0 0 0 0 0 0 0 0 0 0 0 0 0 0 0 .4 0"/><feOffset dx="4.0" dy="4.0" in="blurOut2" result="blurOut3"/><feBlend in="SourceGraphic" in2="blurOut3" mode="normal"/></filter></defs><g><!--MD5=[a9bb840bec38a56111a8d1f7d54153cd]
class RegistoProdutoUI--><rect codeLine="5" fill="#FEFECE" filter="url(#f1korb6rddpibv)" height="48" id="RegistoProdutoUI" style="stroke:#A80036;stroke-width:1.5;" width="130" x="286" y="7"/><ellipse cx="301" cy="23" fill="#ADD1B2" rx="11" ry="11" style="stroke:#A80036;stroke-width:1.0;"/><path d="M303,19.5 Q303.2031,19 303.4375,18.75 Q303.6719,18.5 303.9375,18.5 Q304.4063,18.5 304.7031,18.7813 Q305,19.0625 305,19.7188 L305,21.2813 Q305,21.9375 304.7188,22.2188 Q304.4375,22.5 304,22.5 Q303.6094,22.5 303.3594,22.3281 Q303.1094,22.1563 303,21.7031 Q302.9531,21.3906 302.7813,21.2188 Q302.4688,20.8906 301.9063,20.7031 Q301.3438,20.5 300.7813,20.5 Q300.0781,20.5 299.4844,20.7813 Q298.9063,21.0625 298.4531,21.6875 Q298,22.3125 298,23.1719 L298,24.0938 Q298,25.125 298.8438,25.8125 Q299.6875,26.5 301.1875,26.5 Q302.0781,26.5 302.7031,26.2969 Q303.0625,26.1875 303.4688,25.8281 Q303.7344,25.625 303.875,25.5625 Q304.0156,25.5 304.1875,25.5 Q304.5156,25.5 304.75,25.7656 Q305,26.0156 305,26.375 Q305,26.7188 304.6563,27.125 Q304.1563,27.7188 303.3594,28.0469 Q302.3125,28.5 301.0313,28.5 Q299.5313,28.5 298.3281,27.9063 Q297.3594,27.4375 296.6719,26.4219 Q296,25.4063 296,24.2031 L296,23.1094 Q296,21.8594 296.5938,20.7656 Q297.2031,19.6719 298.25,19.0938 Q299.3125,18.5 300.5,18.5 Q301.2188,18.5 301.8438,18.75 Q302.4688,19 303,19.5 Z " fill="#000000"/><text fill="#000000" font-family="sans-serif" font-size="12" lengthAdjust="spacing" textLength="98" x="315" y="27.9102">RegistoProdutoUI</text><line style="stroke:#A80036;stroke-width:1.5;" x1="287" x2="415" y1="39" y2="39"/><line style="stroke:#A80036;stroke-width:1.5;" x1="287" x2="415" y1="47" y2="47"/><!--MD5=[d16ee167c614604c7f8dff0da73367dd]
class RegistoProdutoController--><rect codeLine="9" fill="#FEFECE" filter="url(#f1korb6rddpibv)" height="75.6719" id="RegistoProdutoController" style="stroke:#A80036;stroke-width:1.5;" width="290" x="206" y="115"/><ellipse cx="276.75" cy="131" fill="#ADD1B2" rx="11" ry="11" style="stroke:#A80036;stroke-width:1.0;"/><path d="M278.75,127.5 Q278.9531,127 279.1875,126.75 Q279.4219,126.5 279.6875,126.5 Q280.1563,126.5 280.4531,126.7813 Q280.75,127.0625 280.75,127.7188 L280.75,129.2813 Q280.75,129.9375 280.4688,130.2188 Q280.1875,130.5 279.75,130.5 Q279.3594,130.5 279.1094,130.3281 Q278.8594,130.1563 278.75,129.7031 Q278.7031,129.3906 278.5313,129.2188 Q278.2188,128.8906 277.6563,128.7031 Q277.0938,128.5 276.5313,128.5 Q275.8281,128.5 275.2344,128.7813 Q274.6563,129.0625 274.2031,129.6875 Q273.75,130.3125 273.75,131.1719 L273.75,132.0938 Q273.75,133.125 274.5938,133.8125 Q275.4375,134.5 276.9375,134.5 Q277.8281,134.5 278.4531,134.2969 Q278.8125,134.1875 279.2188,133.8281 Q279.4844,133.625 279.625,133.5625 Q279.7656,133.5 279.9375,133.5 Q280.2656,133.5 280.5,133.7656 Q280.75,134.0156 280.75,134.375 Q280.75,134.7188 280.4063,135.125 Q279.9063,135.7188 279.1094,136.0469 Q278.0625,136.5 276.7813,136.5 Q275.2813,136.5 274.0781,135.9063 Q273.1094,135.4375 272.4219,134.4219 Q271.75,133.4063 271.75,132.2031 L271.75,131.1094 Q271.75,129.8594 272.3438,128.7656 Q272.9531,127.6719 274,127.0938 Q275.0625,126.5 276.25,126.5 Q276.9688,126.5 277.5938,126.75 Q278.2188,127 278.75,127.5 Z " fill="#000000"/><text fill="#000000" font-family="sans-serif" font-size="12" lengthAdjust="spacing" textLength="140" x="297.25" y="135.9102">RegistoProdutoController</text><line style="stroke:#A80036;stroke-width:1.5;" x1="207" x2="495" y1="147" y2="147"/><line style="stroke:#A80036;stroke-width:1.5;" x1="207" x2="495" y1="155" y2="155"/><text fill="#000000" font-family="sans-serif" font-size="11" lengthAdjust="spacing" textLength="265" x="212" y="170.4189">+novoProduto(nome, precoUnitario, massaUnitaria, iva)</text><text fill="#000000" font-family="sans-serif" font-size="11" lengthAdjust="spacing" textLength="278" x="212" y="184.2549">+registarProduto(nome, precoUnitario, massaUnitaria, iva)</text><!--MD5=[e162095117491b3de9c15e382440df89]
class ValidarParametros--><rect codeLine="14" fill="#FEFECE" filter="url(#f1korb6rddpibv)" height="61.8359" id="ValidarParametros" style="stroke:#A80036;stroke-width:1.5;" width="340" x="7" y="258"/><ellipse cx="121.25" cy="274" fill="#ADD1B2" rx="11" ry="11" style="stroke:#A80036;stroke-width:1.0;"/><path d="M123.25,270.5 Q123.4531,270 123.6875,269.75 Q123.9219,269.5 124.1875,269.5 Q124.6563,269.5 124.9531,269.7813 Q125.25,270.0625 125.25,270.7188 L125.25,272.2813 Q125.25,272.9375 124.9688,273.2188 Q124.6875,273.5 124.25,273.5 Q123.8594,273.5 123.6094,273.3281 Q123.3594,273.1563 123.25,272.7031 Q123.2031,272.3906 123.0313,272.2188 Q122.7188,271.8906 122.1563,271.7031 Q121.5938,271.5 121.0313,271.5 Q120.3281,271.5 119.7344,271.7813 Q119.1563,272.0625 118.7031,272.6875 Q118.25,273.3125 118.25,274.1719 L118.25,275.0938 Q118.25,276.125 119.0938,276.8125 Q119.9375,277.5 121.4375,277.5 Q122.3281,277.5 122.9531,277.2969 Q123.3125,277.1875 123.7188,276.8281 Q123.9844,276.625 124.125,276.5625 Q124.2656,276.5 124.4375,276.5 Q124.7656,276.5 125,276.7656 Q125.25,277.0156 125.25,277.375 Q125.25,277.7188 124.9063,278.125 Q124.4063,278.7188 123.6094,279.0469 Q122.5625,279.5 121.2813,279.5 Q119.7813,279.5 118.5781,278.9063 Q117.6094,278.4375 116.9219,277.4219 Q116.25,276.4063 116.25,275.2031 L116.25,274.1094 Q116.25,272.8594 116.8438,271.7656 Q117.4531,270.6719 118.5,270.0938 Q119.5625,269.5 120.75,269.5 Q121.4688,269.5 122.0938,269.75 Q122.7188,270 123.25,270.5 Z " fill="#000000"/><text fill="#000000" font-family="sans-serif" font-size="12" lengthAdjust="spacing" textLength="103" x="141.75" y="278.9102">ValidarParametros</text><line style="stroke:#A80036;stroke-width:1.5;" x1="8" x2="346" y1="290" y2="290"/><line style="stroke:#A80036;stroke-width:1.5;" x1="8" x2="346" y1="298" y2="298"/><text fill="#000000" font-family="sans-serif" font-size="11" lengthAdjust="spacing" textLength="328" x="13" y="313.4189">+validarParametrosProduto(nome, precoUnitario, massaUnitaria, iva)</text><!--MD5=[a84bd072b68d9b7b1d264a150fd20f17]
class ProdutoBD--><rect codeLine="18" fill="#FEFECE" filter="url(#f1korb6rddpibv)" height="75.6719" id="ProdutoBD" style="stroke:#A80036;stroke-width:1.5;" width="286" x="382" y="251"/><ellipse cx="490.75" cy="267" fill="#ADD1B2" rx="11" ry="11" style="stroke:#A80036;stroke-width:1.0;"/><path d="M492.75,263.5 Q492.9531,263 493.1875,262.75 Q493.4219,262.5 493.6875,262.5 Q494.1563,262.5 494.4531,262.7813 Q494.75,263.0625 494.75,263.7188 L494.75,265.2813 Q494.75,265.9375 494.4688,266.2188 Q494.1875,266.5 493.75,266.5 Q493.3594,266.5 493.1094,266.3281 Q492.8594,266.1563 492.75,265.7031 Q492.7031,265.3906 492.5313,265.2188 Q492.2188,264.8906 491.6563,264.7031 Q491.0938,264.5 490.5313,264.5 Q489.8281,264.5 489.2344,264.7813 Q488.6563,265.0625 488.2031,265.6875 Q487.75,266.3125 487.75,267.1719 L487.75,268.0938 Q487.75,269.125 488.5938,269.8125 Q489.4375,270.5 490.9375,270.5 Q491.8281,270.5 492.4531,270.2969 Q492.8125,270.1875 493.2188,269.8281 Q493.4844,269.625 493.625,269.5625 Q493.7656,269.5 493.9375,269.5 Q494.2656,269.5 494.5,269.7656 Q494.75,270.0156 494.75,270.375 Q494.75,270.7188 494.4063,271.125 Q493.9063,271.7188 493.1094,272.0469 Q492.0625,272.5 490.7813,272.5 Q489.2813,272.5 488.0781,271.9063 Q487.1094,271.4375 486.4219,270.4219 Q485.75,269.4063 485.75,268.2031 L485.75,267.1094 Q485.75,265.8594 486.3438,264.7656 Q486.9531,263.6719 488,263.0938 Q489.0625,262.5 490.25,262.5 Q490.9688,262.5 491.5938,262.75 Q492.2188,263 492.75,263.5 Z " fill="#000000"/><text fill="#000000" font-family="sans-serif" font-size="12" lengthAdjust="spacing" textLength="60" x="511.25" y="271.9102">ProdutoBD</text><line style="stroke:#A80036;stroke-width:1.5;" x1="383" x2="667" y1="283" y2="283"/><line style="stroke:#A80036;stroke-width:1.5;" x1="383" x2="667" y1="291" y2="291"/><text fill="#000000" font-family="sans-serif" font-size="11" lengthAdjust="spacing" textLength="105" x="388" y="306.4189">+validaProduto(nome)</text><text fill="#000000" font-family="sans-serif" font-size="11" lengthAdjust="spacing" textLength="274" x="388" y="320.2549">+registaProduto(nome, precoUnitario, massaUnitaria, iva)</text><!--MD5=[9c5439856a1aad23e042de9a355b14cb]
class BaseDados--><rect codeLine="24" fill="#FEFECE" filter="url(#f1korb6rddpibv)" height="89.5078" id="BaseDados" style="stroke:#A80036;stroke-width:1.5;" width="126" x="394" y="387"/><ellipse cx="421.6" cy="403" fill="#ADD1B2" rx="11" ry="11" style="stroke:#A80036;stroke-width:1.0;"/><path d="M423.6,399.5 Q423.8031,399 424.0375,398.75 Q424.2719,398.5 424.5375,398.5 Q425.0063,398.5 425.3031,398.7813 Q425.6,399.0625 425.6,399.7188 L425.6,401.2813 Q425.6,401.9375 425.3188,402.2188 Q425.0375,402.5 424.6,402.5 Q424.2094,402.5 423.9594,402.3281 Q423.7094,402.1563 423.6,401.7031 Q423.5531,401.3906 423.3813,401.2188 Q423.0688,400.8906 422.5063,400.7031 Q421.9438,400.5 421.3813,400.5 Q420.6781,400.5 420.0844,400.7813 Q419.5063,401.0625 419.0531,401.6875 Q418.6,402.3125 418.6,403.1719 L418.6,404.0938 Q418.6,405.125 419.4438,405.8125 Q420.2875,406.5 421.7875,406.5 Q422.6781,406.5 423.3031,406.2969 Q423.6625,406.1875 424.0688,405.8281 Q424.3344,405.625 424.475,405.5625 Q424.6156,405.5 424.7875,405.5 Q425.1156,405.5 425.35,405.7656 Q425.6,406.0156 425.6,406.375 Q425.6,406.7188 425.2563,407.125 Q424.7563,407.7188 423.9594,408.0469 Q422.9125,408.5 421.6313,408.5 Q420.1313,408.5 418.9281,407.9063 Q417.9594,407.4375 417.2719,406.4219 Q416.6,405.4063 416.6,404.2031 L416.6,403.1094 Q416.6,401.8594 417.1938,400.7656 Q417.8031,399.6719 418.85,399.0938 Q419.9125,398.5 421.1,398.5 Q421.8188,398.5 422.4438,398.75 Q423.0688,399 423.6,399.5 Z " fill="#000000"/><text fill="#000000" font-family="sans-serif" font-size="12" lengthAdjust="spacing" textLength="66" x="438.4" y="407.9102">BaseDados</text><line style="stroke:#A80036;stroke-width:1.5;" x1="395" x2="519" y1="419" y2="419"/><text fill="#000000" font-family="sans-serif" font-size="11" lengthAdjust="spacing" textLength="114" x="400" y="434.4189">-Connection connection</text><line style="stroke:#A80036;stroke-width:1.5;" x1="395" x2="519" y1="440.8359" y2="440.8359"/><text fill="#000000" font-family="sans-serif" font-size="11" lengthAdjust="spacing" textLength="83" x="400" y="456.2549">+getConnection()</text><text fill="#000000" font-family="sans-serif" font-size="11" lengthAdjust="spacing" textLength="94" x="400" y="470.0908">+closeConnection()</text><!--MD5=[ad510ca42d1a057b37ac2813b8ee5b40]
class Connection--><rect codeLine="30" fill="#FEFECE" filter="url(#f1korb6rddpibv)" height="48" id="Connection" style="stroke:#A80036;stroke-width:1.5;" width="95" x="409.5" y="537"/><ellipse cx="424.5" cy="553" fill="#ADD1B2" rx="11" ry="11" style="stroke:#A80036;stroke-width:1.0;"/><path d="M426.5,549.5 Q426.7031,549 426.9375,548.75 Q427.1719,548.5 427.4375,548.5 Q427.9063,548.5 428.2031,548.7813 Q428.5,549.0625 428.5,549.7188 L428.5,551.2813 Q428.5,551.9375 428.2188,552.2188 Q427.9375,552.5 427.5,552.5 Q427.1094,552.5 426.8594,552.3281 Q426.6094,552.1563 426.5,551.7031 Q426.4531,551.3906 426.2813,551.2188 Q425.9688,550.8906 425.4063,550.7031 Q424.8438,550.5 424.2813,550.5 Q423.5781,550.5 422.9844,550.7813 Q422.4063,551.0625 421.9531,551.6875 Q421.5,552.3125 421.5,553.1719 L421.5,554.0938 Q421.5,555.125 422.3438,555.8125 Q423.1875,556.5 424.6875,556.5 Q425.5781,556.5 426.2031,556.2969 Q426.5625,556.1875 426.9688,555.8281 Q427.2344,555.625 427.375,555.5625 Q427.5156,555.5 427.6875,555.5 Q428.0156,555.5 428.25,555.7656 Q428.5,556.0156 428.5,556.375 Q428.5,556.7188 428.1563,557.125 Q427.6563,557.7188 426.8594,558.0469 Q425.8125,558.5 424.5313,558.5 Q423.0313,558.5 421.8281,557.9063 Q420.8594,557.4375 420.1719,556.4219 Q419.5,555.4063 419.5,554.2031 L419.5,553.1094 Q419.5,551.8594 420.0938,550.7656 Q420.7031,549.6719 421.75,549.0938 Q422.8125,548.5 424,548.5 Q424.7188,548.5 425.3438,548.75 Q425.9688,549 426.5,549.5 Z " fill="#000000"/><text fill="#000000" font-family="sans-serif" font-size="12" lengthAdjust="spacing" textLength="63" x="438.5" y="557.9102">Connection</text><line style="stroke:#A80036;stroke-width:1.5;" x1="410.5" x2="503.5" y1="569" y2="569"/><line style="stroke:#A80036;stroke-width:1.5;" x1="410.5" x2="503.5" y1="577" y2="577"/><!--MD5=[d4dacc50d49878ba7c621dfc80a2e1ce]
class Produto--><rect fill="#FEFECE" filter="url(#f1korb6rddpibv)" height="48" id="Produto" style="stroke:#A80036;stroke-width:1.5;" width="75" x="555.5" y="408"/><ellipse cx="570.5" cy="424" fill="#ADD1B2" rx="11" ry="11" style="stroke:#A80036;stroke-width:1.0;"/><path d="M572.5,420.5 Q572.7031,420 572.9375,419.75 Q573.1719,419.5 573.4375,419.5 Q573.9063,419.5 574.2031,419.7813 Q574.5,420.0625 574.5,420.7188 L574.5,422.2813 Q574.5,422.9375 574.2188,423.2188 Q573.9375,423.5 573.5,423.5 Q573.1094,423.5 572.8594,423.3281 Q572.6094,423.1563 572.5,422.7031 Q572.4531,422.3906 572.2813,422.2188 Q571.9688,421.8906 571.4063,421.7031 Q570.8438,421.5 570.2813,421.5 Q569.5781,421.5 568.9844,421.7813 Q568.4063,422.0625 567.9531,422.6875 Q567.5,423.3125 567.5,424.1719 L567.5,425.0938 Q567.5,426.125 568.3438,426.8125 Q569.1875,427.5 570.6875,427.5 Q571.5781,427.5 572.2031,427.2969 Q572.5625,427.1875 572.9688,426.8281 Q573.2344,426.625 573.375,426.5625 Q573.5156,426.5 573.6875,426.5 Q574.0156,426.5 574.25,426.7656 Q574.5,427.0156 574.5,427.375 Q574.5,427.7188 574.1563,428.125 Q573.6563,428.7188 572.8594,429.0469 Q571.8125,429.5 570.5313,429.5 Q569.0313,429.5 567.8281,428.9063 Q566.8594,428.4375 566.1719,427.4219 Q565.5,426.4063 565.5,425.2031 L565.5,424.1094 Q565.5,422.8594 566.0938,421.7656 Q566.7031,420.6719 567.75,420.0938 Q568.8125,419.5 570,419.5 Q570.7188,419.5 571.3438,419.75 Q571.9688,420 572.5,420.5 Z " fill="#000000"/><text fill="#000000" font-family="sans-serif" font-size="12" lengthAdjust="spacing" textLength="43" x="584.5" y="428.9102">Produto</text><line style="stroke:#A80036;stroke-width:1.5;" x1="556.5" x2="629.5" y1="440" y2="440"/><line style="stroke:#A80036;stroke-width:1.5;" x1="556.5" x2="629.5" y1="448" y2="448"/><!--MD5=[9ba882087a409c55bda0a782f37f1c91]
link RegistoProdutoUI to RegistoProdutoController--><path codeLine="33" d="M351,55.14 C351,70.58 351,91.33 351,109.67 " fill="none" id="RegistoProdutoUI-to-RegistoProdutoController" style="stroke:#A80036;stroke-width:1.0;stroke-dasharray:7.0,7.0;"/><polygon fill="#A80036" points="351,114.77,355,105.77,351,109.77,347,105.77,351,114.77" style="stroke:#A80036;stroke-width:1.0;"/><!--MD5=[3c0478fbfbe8d4a68d188b796a7d4540]
link RegistoProdutoController to ProdutoBD--><path codeLine="34" d="M399.47,191.33 C422.28,208.9 449.53,229.88 472.79,247.8 " fill="none" id="RegistoProdutoController-to-ProdutoBD" style="stroke:#A80036;stroke-width:1.0;stroke-dasharray:7.0,7.0;"/><polygon fill="#A80036" points="476.79,250.87,472.1133,242.2023,472.8333,247.8132,467.2224,248.5331,476.79,250.87" style="stroke:#A80036;stroke-width:1.0;"/><!--MD5=[657b0bb4b845191bb69409fce611272d]
link RegistoProdutoController to ValidarParametros--><path codeLine="35" d="M302.53,191.33 C276.77,211.17 245.36,235.35 220.41,254.57 " fill="none" id="RegistoProdutoController-to-ValidarParametros" style="stroke:#A80036;stroke-width:1.0;stroke-dasharray:7.0,7.0;"/><polygon fill="#A80036" points="216.14,257.86,225.7129,255.5448,220.1037,254.8121,220.8363,249.2029,216.14,257.86" style="stroke:#A80036;stroke-width:1.0;"/><!--MD5=[b104cd17e960f3e38e425aba2c830c23]
link ProdutoBD to Produto--><path codeLine="36" d="M542.87,327.05 C554.4,350.97 569.16,381.57 579.67,403.37 " fill="none" id="ProdutoBD-to-Produto" style="stroke:#A80036;stroke-width:1.0;stroke-dasharray:7.0,7.0;"/><polygon fill="#A80036" points="581.85,407.88,581.5412,398.036,579.6771,403.3769,574.3362,401.5127,581.85,407.88" style="stroke:#A80036;stroke-width:1.0;"/><!--MD5=[13ad64eb49d11895b15dedd182a09dd2]
link ProdutoBD to BaseDados--><path codeLine="39" d="M507.13,327.05 C498.97,343.97 489.19,364.24 480.45,382.37 " fill="none" id="ProdutoBD-to-BaseDados" style="stroke:#A80036;stroke-width:1.0;stroke-dasharray:7.0,7.0;"/><polygon fill="#A80036" points="478.25,386.93,485.7638,380.5627,480.4229,382.4269,478.5588,377.086,478.25,386.93" style="stroke:#A80036;stroke-width:1.0;"/><!--MD5=[833997655fa73f2d0e64c27665136239]
link BaseDados to Connection--><path codeLine="40" d="M457,477.06 C457,495.08 457,515.42 457,531.44 " fill="none" id="BaseDados-to-Connection" style="stroke:#A80036;stroke-width:1.0;stroke-dasharray:7.0,7.0;"/><polygon fill="#A80036" points="457,536.7,461,527.7,457,531.7,453,527.7,457,536.7" style="stroke:#A80036;stroke-width:1.0;"/><!--MD5=[c813f2cba8432cf8f3a1af3db7d01cd7]
@startuml

skinparam classAttributeIconSize 0


Class RegistoProdutoUI{

}

Class RegistoProdutoController{
    +novoProduto(nome, precoUnitario, massaUnitaria, iva)
    +registarProduto(nome, precoUnitario, massaUnitaria, iva)
}

Class ValidarParametros{
    +validarParametrosProduto(nome, precoUnitario, massaUnitaria, iva)
}

Class ProdutoBD{
    +validaProduto(nome)
    +registaProduto(nome, precoUnitario, massaUnitaria, iva)

}

class BaseDados{
    -Connection connection
    +getConnection()
    +closeConnection()
}

class Connection {
}

RegistoProdutoUI ..> RegistoProdutoController
RegistoProdutoController ..> ProdutoBD
RegistoProdutoController ..> ValidarParametros
ProdutoBD ..> Produto


ProdutoBD ..> BaseDados
BaseDados ..> Connection

@enduml

PlantUML version 1.2021.00(Sun Jan 10 10:25:05 GMT 2021)
(GPL source distribution)
Java Runtime: OpenJDK Runtime Environment
JVM: OpenJDK 64-Bit Server VM
Default Encoding: Cp1252
Language: pt
Country: PT
--></g></svg>