<?xml version="1.0" encoding="UTF-8" standalone="no"?><svg xmlns="http://www.w3.org/2000/svg" xmlns:xlink="http://www.w3.org/1999/xlink" contentScriptType="application/ecmascript" contentStyleType="text/css" height="1577.6px" preserveAspectRatio="none" style="width:455px;height:1577px;" version="1.1" viewBox="0 0 455 1577" width="455.2px" zoomAndPan="magnify"><defs><filter height="300%" id="f183seoa2ue9jl" width="300%" x="-1" y="-1"><feGaussianBlur result="blurOut" stdDeviation="1.6"/><feColorMatrix in="blurOut" result="blurOut2" type="matrix" values="0 0 0 0 0 0 0 0 0 0 0 0 0 0 0 0 0 0 .4 0"/><feOffset dx="3.2" dy="3.2" in="blurOut2" result="blurOut3"/><feBlend in="SourceGraphic" in2="blurOut3" mode="normal"/></filter></defs><g><ellipse cx="311.0844" cy="1053.8169" fill="#FEFECE" filter="url(#f183seoa2ue9jl)" rx="93.4844" ry="20.6169" style="stroke:#A80036;stroke-width:1.2000000000000002;"/><text fill="#000000" font-family="sans-serif" font-size="11.2" lengthAdjust="spacingAndGlyphs" textLength="158.4" x="231.8844" y="1056.7997">UC - Calcular Caminho Entrega</text><ellipse cx="311.1974" cy="1128.3195" fill="#FEFECE" filter="url(#f183seoa2ue9jl)" rx="115.9974" ry="25.1195" style="stroke:#A80036;stroke-width:1.2000000000000002;"/><text fill="#000000" font-family="sans-serif" font-size="11.2" lengthAdjust="spacingAndGlyphs" textLength="206.4" x="207.9974" y="1131.3023">UC - Estimar Consumo Energético Drone</text><ellipse cx="311.3977" cy="352.4395" fill="#FEFECE" filter="url(#f183seoa2ue9jl)" rx="70.5977" ry="16.0395" style="stroke:#A80036;stroke-width:1.2000000000000002;"/><text fill="#000000" font-family="sans-serif" font-size="11.2" lengthAdjust="spacingAndGlyphs" textLength="107.2" x="257.7977" y="355.4223">UC - Adicionar Drone</text><ellipse cx="311.162" cy="290.6324" fill="#FEFECE" filter="url(#f183seoa2ue9jl)" rx="77.562" ry="17.4324" style="stroke:#A80036;stroke-width:1.2000000000000002;"/><text fill="#000000" font-family="sans-serif" font-size="11.2" lengthAdjust="spacingAndGlyphs" textLength="123.2" x="249.562" y="293.6152">UC - Adicionar Farmácia</text><ellipse cx="311.3351" cy="424.427" fill="#FEFECE" filter="url(#f183seoa2ue9jl)" rx="130.5351" ry="28.027" style="stroke:#A80036;stroke-width:1.2000000000000002;"/><text fill="#000000" font-family="sans-serif" font-size="11.2" lengthAdjust="spacingAndGlyphs" textLength="236.8" x="192.9351" y="427.4098">UC - Adicionar Parque Estacionamento Drones</text><ellipse cx="311.2323" cy="162.7265" fill="#FEFECE" filter="url(#f183seoa2ue9jl)" rx="102.0323" ry="22.3265" style="stroke:#A80036;stroke-width:1.2000000000000002;"/><text fill="#000000" font-family="sans-serif" font-size="11.2" lengthAdjust="spacingAndGlyphs" textLength="176.8" x="222.8323" y="165.7093">UC - Adicionar Produto ao carrinho</text><ellipse cx="311.2528" cy="497.1306" fill="#FEFECE" filter="url(#f183seoa2ue9jl)" rx="74.0528" ry="16.7306" style="stroke:#A80036;stroke-width:1.2000000000000002;"/><text fill="#000000" font-family="sans-serif" font-size="11.2" lengthAdjust="spacingAndGlyphs" textLength="115.2" x="253.6528" y="500.1134">UC - Adicionar Scooter</text><ellipse cx="311.3023" cy="563.4605" fill="#FEFECE" filter="url(#f183seoa2ue9jl)" rx="95.7023" ry="21.0605" style="stroke:#A80036;stroke-width:1.2000000000000002;"/><text fill="#000000" font-family="sans-serif" font-size="11.2" lengthAdjust="spacingAndGlyphs" textLength="163.2" x="229.7023" y="566.4433">UC - Adicionar Stock de Produto</text><ellipse cx="311.2109" cy="1201.9222" fill="#FEFECE" filter="url(#f183seoa2ue9jl)" rx="92.0109" ry="20.3222" style="stroke:#A80036;stroke-width:1.2000000000000002;"/><text fill="#000000" font-family="sans-serif" font-size="11.2" lengthAdjust="spacingAndGlyphs" textLength="155.2" x="233.6109" y="1204.905">UC - Atribuir Farmacia Próxima</text><ellipse cx="311.0554" cy="629.1711" fill="#FEFECE" filter="url(#f183seoa2ue9jl)" rx="70.2554" ry="15.9711" style="stroke:#A80036;stroke-width:1.2000000000000002;"/><text fill="#000000" font-family="sans-serif" font-size="11.2" lengthAdjust="spacingAndGlyphs" textLength="103.2" x="257.8554" y="632.1539">UC - Atualizar Drone</text><ellipse cx="311.118" cy="689.9836" fill="#FEFECE" filter="url(#f183seoa2ue9jl)" rx="72.318" ry="16.3836" style="stroke:#A80036;stroke-width:1.2000000000000002;"/><text fill="#000000" font-family="sans-serif" font-size="11.2" lengthAdjust="spacingAndGlyphs" textLength="111.2" x="255.518" y="692.9664">UC - Atualizar Scooter</text><ellipse cx="311.2776" cy="749.2955" fill="#FEFECE" filter="url(#f183seoa2ue9jl)" rx="64.8776" ry="14.8955" style="stroke:#A80036;stroke-width:1.2000000000000002;"/><text fill="#000000" font-family="sans-serif" font-size="11.2" lengthAdjust="spacingAndGlyphs" textLength="93.6" x="264.0674" y="752.3985">UC - Criar Entrega</text><ellipse cx="311.0432" cy="1263.4886" fill="#FEFECE" filter="url(#f183seoa2ue9jl)" rx="55.8432" ry="13.0886" style="stroke:#A80036;stroke-width:1.2000000000000002;"/><text fill="#000000" font-family="sans-serif" font-size="11.2" lengthAdjust="spacingAndGlyphs" textLength="69.6" x="273.8432" y="1267.1019">UC - EmailAPI</text><ellipse cx="311.3637" cy="1324.3527" fill="#FEFECE" filter="url(#f183seoa2ue9jl)" rx="86.1637" ry="19.1527" style="stroke:#A80036;stroke-width:1.2000000000000002;"/><text fill="#000000" font-family="sans-serif" font-size="11.2" lengthAdjust="spacingAndGlyphs" textLength="142.4" x="240.1637" y="1327.3356">UC - Enviar Email Estimativa</text><ellipse cx="311.1568" cy="1400.5514" fill="#FEFECE" filter="url(#f183seoa2ue9jl)" rx="135.1568" ry="28.9514" style="stroke:#A80036;stroke-width:1.2000000000000002;"/><text fill="#000000" font-family="sans-serif" font-size="11.2" lengthAdjust="spacingAndGlyphs" textLength="246.4" x="187.9568" y="1403.5342">UC - Enviar Email Segurança do Estacionamento</text><ellipse cx="311.0068" cy="1483.4814" fill="#FEFECE" filter="url(#f183seoa2ue9jl)" rx="119.8068" ry="25.8814" style="stroke:#A80036;stroke-width:1.2000000000000002;"/><text fill="#000000" font-family="sans-serif" font-size="11.2" lengthAdjust="spacingAndGlyphs" textLength="214.4" x="203.8068" y="1486.4642">UC - Estimar Consumo Energético Scooter</text><ellipse cx="311.118" cy="21.1836" fill="#FEFECE" filter="url(#f183seoa2ue9jl)" rx="72.318" ry="16.3836" style="stroke:#A80036;stroke-width:1.2000000000000002;"/><text fill="#000000" font-family="sans-serif" font-size="11.2" lengthAdjust="spacingAndGlyphs" textLength="111.2" x="255.518" y="24.1664">UC - Finalizar Compra</text><ellipse cx="311.2698" cy="990.094" fill="#FEFECE" filter="url(#f183seoa2ue9jl)" rx="66.8698" ry="15.294" style="stroke:#A80036;stroke-width:1.2000000000000002;"/><text fill="#000000" font-family="sans-serif" font-size="11.2" lengthAdjust="spacingAndGlyphs" textLength="98.4" x="262.0698" y="993.0768">UC - Iniciar Entrega</text><ellipse cx="311.1362" cy="1553.0272" fill="#FEFECE" filter="url(#f183seoa2ue9jl)" rx="65.5362" ry="15.0272" style="stroke:#A80036;stroke-width:1.2000000000000002;"/><text fill="#000000" font-family="sans-serif" font-size="11.2" lengthAdjust="spacingAndGlyphs" textLength="95.2" x="263.401" y="1556.0503">UC - Pedir Produto</text><ellipse cx="311.0102" cy="808.522" fill="#FEFECE" filter="url(#f183seoa2ue9jl)" rx="73.0102" ry="16.522" style="stroke:#A80036;stroke-width:1.2000000000000002;"/><text fill="#000000" font-family="sans-serif" font-size="11.2" lengthAdjust="spacingAndGlyphs" textLength="112.8" x="254.6102" y="811.5049">UC - Registar Estafeta</text><ellipse cx="311.3541" cy="229.2308" fill="#FEFECE" filter="url(#f183seoa2ue9jl)" rx="68.5541" ry="15.6308" style="stroke:#A80036;stroke-width:1.2000000000000002;"/><text fill="#000000" font-family="sans-serif" font-size="11.2" lengthAdjust="spacingAndGlyphs" textLength="102.4" x="260.1541" y="232.2136">UC - Registo Cliente</text><ellipse cx="311.1139" cy="869.1028" fill="#FEFECE" filter="url(#f183seoa2ue9jl)" rx="69.9139" ry="15.9028" style="stroke:#A80036;stroke-width:1.2000000000000002;"/><text fill="#000000" font-family="sans-serif" font-size="11.2" lengthAdjust="spacingAndGlyphs" textLength="105.6" x="258.3139" y="872.0856">UC - Remover Drone</text><ellipse cx="311.3572" cy="930.1914" fill="#FEFECE" filter="url(#f183seoa2ue9jl)" rx="73.3572" ry="16.5914" style="stroke:#A80036;stroke-width:1.2000000000000002;"/><text fill="#000000" font-family="sans-serif" font-size="11.2" lengthAdjust="spacingAndGlyphs" textLength="113.6" x="254.5572" y="933.1742">UC - Remover Scooter</text><ellipse cx="311.3128" cy="89.3026" fill="#FEFECE" filter="url(#f183seoa2ue9jl)" rx="106.9128" ry="23.3026" style="stroke:#A80036;stroke-width:1.2000000000000002;"/><text fill="#000000" font-family="sans-serif" font-size="11.2" lengthAdjust="spacingAndGlyphs" textLength="187.2" x="217.7128" y="92.2854">UC - Visualizar Catalogo de Produtos</text><!--MD5=[5bb58f447e60c14e9d23282c6a4405f4]
entity ADM--><ellipse cx="66.4" cy="265.2" fill="#FEFECE" filter="url(#f183seoa2ue9jl)" rx="6.4" ry="6.4" style="stroke:#A80036;stroke-width:1.2000000000000002;"/><path d="M66.4,271.6 L66.4,293.2 M56,278 L76.8,278 M66.4,293.2 L56,305.2 M66.4,293.2 L76.8,305.2 " fill="none" filter="url(#f183seoa2ue9jl)" style="stroke:#A80036;stroke-width:1.2000000000000002;"/><text fill="#000000" font-family="sans-serif" font-size="11.2" lengthAdjust="spacingAndGlyphs" textLength="69.6" x="31.6" y="321.2266">Administrador</text><!--MD5=[137fad6fe7462277cdbbd7afcc910748]
entity GF--><ellipse cx="66.4" cy="664.4" fill="#FEFECE" filter="url(#f183seoa2ue9jl)" rx="6.4" ry="6.4" style="stroke:#A80036;stroke-width:1.2000000000000002;"/><path d="M66.4,670.8 L66.4,692.4 M56,677.2 L76.8,677.2 M66.4,692.4 L56,704.4 M66.4,692.4 L76.8,704.4 " fill="none" filter="url(#f183seoa2ue9jl)" style="stroke:#A80036;stroke-width:1.2000000000000002;"/><text fill="#000000" font-family="sans-serif" font-size="11.2" lengthAdjust="spacingAndGlyphs" textLength="100.8" x="16" y="720.4266">Gestor de Farmácia</text><!--MD5=[16fab723be418f7eaf2ea4bd895a8e51]
entity C--><ellipse cx="66.4" cy="63.6" fill="#FEFECE" filter="url(#f183seoa2ue9jl)" rx="6.4" ry="6.4" style="stroke:#A80036;stroke-width:1.2000000000000002;"/><path d="M66.4,70 L66.4,91.6 M56,76.4 L76.8,76.4 M66.4,91.6 L56,103.6 M66.4,91.6 L76.8,103.6 " fill="none" filter="url(#f183seoa2ue9jl)" style="stroke:#A80036;stroke-width:1.2000000000000002;"/><text fill="#000000" font-family="sans-serif" font-size="11.2" lengthAdjust="spacingAndGlyphs" textLength="35.2" x="48.8" y="119.6266">Cliente</text><!--MD5=[abe034222a2a1c74f3db4793cdc0d6ce]
entity EST--><ellipse cx="66.4" cy="964.4" fill="#FEFECE" filter="url(#f183seoa2ue9jl)" rx="6.4" ry="6.4" style="stroke:#A80036;stroke-width:1.2000000000000002;"/><path d="M66.4,970.8 L66.4,992.4 M56,977.2 L76.8,977.2 M66.4,992.4 L56,1004.4 M66.4,992.4 L76.8,1004.4 " fill="none" filter="url(#f183seoa2ue9jl)" style="stroke:#A80036;stroke-width:1.2000000000000002;"/><text fill="#000000" font-family="sans-serif" font-size="11.2" lengthAdjust="spacingAndGlyphs" textLength="41.6" x="45.6" y="1020.4266">Estafeta</text><!--MD5=[f70be031eec1b1ae351e5c8c4e32fbba]
entity SIST--><ellipse cx="66.4" cy="1268.4" fill="#FEFECE" filter="url(#f183seoa2ue9jl)" rx="6.4" ry="6.4" style="stroke:#A80036;stroke-width:1.2000000000000002;"/><path d="M66.4,1274.8 L66.4,1296.4 M56,1281.2 L76.8,1281.2 M66.4,1296.4 L56,1308.4 M66.4,1296.4 L76.8,1308.4 " fill="none" filter="url(#f183seoa2ue9jl)" style="stroke:#A80036;stroke-width:1.2000000000000002;"/><text fill="#000000" font-family="sans-serif" font-size="11.2" lengthAdjust="spacingAndGlyphs" textLength="40" x="46.4" y="1324.4266">Sistema</text><!--MD5=[1d495d3bb5ae62dda75b0dafe6e19368]
entity USR--><ellipse cx="66.4" cy="164.4" fill="#FEFECE" filter="url(#f183seoa2ue9jl)" rx="6.4" ry="6.4" style="stroke:#A80036;stroke-width:1.2000000000000002;"/><path d="M66.4,170.8 L66.4,192.4 M56,177.2 L76.8,177.2 M66.4,192.4 L56,204.4 M66.4,192.4 L76.8,204.4 " fill="none" filter="url(#f183seoa2ue9jl)" style="stroke:#A80036;stroke-width:1.2000000000000002;"/><text fill="#000000" font-family="sans-serif" font-size="11.2" lengthAdjust="spacingAndGlyphs" textLength="123.2" x="4.8" y="220.4266">Utilizador Não Registado</text><!--MD5=[c2bb44172d5fd6497b584dc8a8923d71]
link SIST to UC1--><path d="M75.808,1260.544 C89.32,1214.848 119.952,1133.536 176,1089.2 C190.16,1078 207.52,1070.344 225.008,1065.104 " fill="none" id="SIST-to-UC1" style="stroke:#A80036;stroke-width:0.8;"/><polygon fill="#A80036" points="228.984,1063.96,221.1789,1062.8826,225.1409,1065.0695,222.9541,1069.0315,228.984,1063.96" style="stroke:#A80036;stroke-width:0.8;"/><!--MD5=[dddc5597454bd95152653abc4bc83be8]
link SIST to UC2--><path d="M86.464,1262.672 C105.72,1233.904 137.896,1192.128 176,1167.6 C189.568,1158.864 205.128,1152.032 220.752,1146.688 " fill="none" id="SIST-to-UC2" style="stroke:#A80036;stroke-width:0.8;"/><polygon fill="#A80036" points="224.72,1145.36,216.8769,1144.6081,220.9264,1146.6283,218.9062,1150.6779,224.72,1145.36" style="stroke:#A80036;stroke-width:0.8;"/><!--MD5=[04dfaabd661f964fc82c712861b6691d]
link GF to UC3--><path d="M68.872,656.768 C73.928,593.464 94.264,455.424 176,382.8 C192.832,367.84 215.464,359.776 237.352,355.552 " fill="none" id="GF-to-UC3" style="stroke:#A80036;stroke-width:0.8;"/><polygon fill="#A80036" points="241.424,354.808,233.7653,352.9574,237.4894,355.5286,234.9182,359.2527,241.424,354.808" style="stroke:#A80036;stroke-width:0.8;"/><!--MD5=[75201264684ae616ead1678418b4a491]
link ADM to UC4--><path d="M101.272,290.8 C134.328,290.8 185.736,290.8 229.304,290.8 " fill="none" id="ADM-to-UC4" style="stroke:#A80036;stroke-width:0.8;"/><polygon fill="#A80036" points="233.496,290.8,226.296,287.6,229.496,290.8,226.296,294,233.496,290.8" style="stroke:#A80036;stroke-width:0.8;"/><!--MD5=[0e8f28623827227da470cfa969ac50d7]
link GF to UC5--><path d="M74.576,656.672 C87.064,607.976 116.984,517.672 176,466.8 C186.416,457.824 198.728,450.744 211.608,445.168 " fill="none" id="GF-to-UC5" style="stroke:#A80036;stroke-width:0.8;"/><polygon fill="#A80036" points="215.624,443.48,207.7469,443.304,211.9334,445.0225,210.2149,449.209,215.624,443.48" style="stroke:#A80036;stroke-width:0.8;"/><!--MD5=[8803ea8e70df4074df11e78252bf2b0e]
link C to UC6--><path d="M84.064,95.248 C105.36,102.808 143.2,115.976 176,126 C197.016,132.424 220.04,138.928 241.008,144.64 " fill="none" id="C-to-UC6" style="stroke:#A80036;stroke-width:0.8;"/><polygon fill="#A80036" points="244.896,145.696,238.7929,140.7128,241.0372,144.6426,237.1074,146.8868,244.896,145.696" style="stroke:#A80036;stroke-width:0.8;"/><!--MD5=[eac39549b99c8cb91e5040c88f72a503]
link USR to UC6--><path d="M128.256,183.168 C154.744,180.208 186.376,176.672 215.784,173.384 " fill="none" id="USR-to-UC6" style="stroke:#A80036;stroke-width:0.8;"/><polygon fill="#A80036" points="220.112,172.896,212.6004,170.5178,216.1369,173.3415,213.3132,176.878,220.112,172.896" style="stroke:#A80036;stroke-width:0.8;"/><!--MD5=[08ab2ac5bb065b0787b241bdf3e7345b]
link GF to UC7--><path d="M80.64,656.6 C97.36,619.448 129.488,560.44 176,528.4 C194.104,515.928 216.504,508.392 237.792,503.848 " fill="none" id="GF-to-UC7" style="stroke:#A80036;stroke-width:0.8;"/><polygon fill="#A80036" points="241.752,503.032,234.0519,501.3623,237.8355,503.8451,235.3528,507.6287,241.752,503.032" style="stroke:#A80036;stroke-width:0.8;"/><!--MD5=[4a070dbb7cbd1e10d4f9e8935fc9b1ac]
link GF to UC8--><path d="M99.488,656.744 C119.816,637.536 147.536,614.328 176,599.6 C193.624,590.48 213.784,583.504 233.024,578.24 " fill="none" id="GF-to-UC8" style="stroke:#A80036;stroke-width:0.8;"/><polygon fill="#A80036" points="237.12,577.144,229.3357,575.9258,233.2575,578.1839,230.9995,582.1058,237.12,577.144" style="stroke:#A80036;stroke-width:0.8;"/><!--MD5=[9131a5c15e678c4fc88aab87d2b00ce8]
link SIST to UC9--><path d="M86.584,1281.928 C107.848,1269.12 143.304,1249.032 176,1236.4 C196.112,1228.624 218.6,1222.088 239.336,1216.864 " fill="none" id="SIST-to-UC9" style="stroke:#A80036;stroke-width:0.8;"/><polygon fill="#A80036" points="243.456,1215.832,235.6987,1214.4523,239.5728,1216.7914,237.2337,1220.6655,243.456,1215.832" style="stroke:#A80036;stroke-width:0.8;"/><!--MD5=[dd4d9c9d65956c04f14ac57cb8ea4383]
link GF to UC11--><path d="M116.888,675.552 C135.392,670.32 156.608,664.496 176,659.6 C201.984,653.04 230.96,646.392 255.336,641 " fill="none" id="GF-to-UC11" style="stroke:#A80036;stroke-width:0.8;"/><polygon fill="#A80036" points="259.52,640.08,251.8017,638.4966,255.6128,640.9368,253.1726,644.748,259.52,640.08" style="stroke:#A80036;stroke-width:0.8;"/><!--MD5=[8ffffad23511ef681de307fe1997cdb8]
link GF to UC12--><path d="M117,690 C150.856,690 196.28,690 234.6,690 " fill="none" id="GF-to-UC12" style="stroke:#A80036;stroke-width:0.8;"/><polygon fill="#A80036" points="238.76,690,231.56,686.8,234.76,690,231.56,693.2,238.76,690" style="stroke:#A80036;stroke-width:0.8;"/><!--MD5=[642c8609190538cacd6e2c93f8f53887]
link GF to UC13--><path d="M116.864,704.568 C135.36,709.808 156.576,715.608 176,720.4 C202.832,727.016 232.888,733.544 257.768,738.704 " fill="none" id="GF-to-UC13" style="stroke:#A80036;stroke-width:0.8;"/><polygon fill="#A80036" points="261.712,739.52,255.3101,734.927,257.795,738.7092,254.0128,741.1941,261.712,739.52" style="stroke:#A80036;stroke-width:0.8;"/><!--MD5=[e9c23a7ca3f03a857b9fe24c7363959e]
link SIST to UC14--><path d="M86.488,1291.592 C123,1287.024 203.392,1276.976 257.24,1270.248 " fill="none" id="SIST-to-UC14" style="stroke:#A80036;stroke-width:0.8;"/><polygon fill="#A80036" points="261.392,1269.728,253.8467,1267.4591,257.4238,1270.2312,254.6517,1273.8083,261.392,1269.728" style="stroke:#A80036;stroke-width:0.8;"/><!--MD5=[e460ec7290527da7baf1dfd94b1638ee]
link SIST to UC15--><path d="M86.488,1296.408 C117.584,1300.296 180.496,1308.16 231.736,1314.568 " fill="none" id="SIST-to-UC15" style="stroke:#A80036;stroke-width:0.8;"/><polygon fill="#A80036" points="235.72,1315.064,228.9783,1310.9861,231.7516,1314.5622,228.1755,1317.3356,235.72,1315.064" style="stroke:#A80036;stroke-width:0.8;"/><!--MD5=[af41ab6d7fbf8a88324722b6520f6dba]
link SIST to UC16--><path d="M86.536,1307.192 C107.744,1321.232 143.168,1343.392 176,1358 C191.208,1364.768 207.832,1370.936 224.04,1376.336 " fill="none" id="SIST-to-UC16" style="stroke:#A80036;stroke-width:0.8;"/><polygon fill="#A80036" points="227.928,1377.624,222.0998,1372.3219,224.131,1376.366,220.0869,1378.3971,227.928,1377.624" style="stroke:#A80036;stroke-width:0.8;"/><!--MD5=[3bf88ff445f4e15106bb6476149b8fc7]
link SIST to UC17--><path d="M83.088,1327.232 C101.04,1361.312 133.392,1413.464 176,1443.6 C188.448,1452.4 202.84,1459.296 217.488,1464.68 " fill="none" id="SIST-to-UC17" style="stroke:#A80036;stroke-width:0.8;"/><polygon fill="#A80036" points="221.632,1466.16,215.9298,1460.7226,217.8655,1464.8132,213.775,1466.7489,221.632,1466.16" style="stroke:#A80036;stroke-width:0.8;"/><!--MD5=[2a9b5b804da184244f52cf5bf9bb0f67]
link C to UC18--><path d="M84.352,82.616 C105.632,74.592 143.136,60.968 176,51.6 C200.792,44.536 228.528,38.032 252.336,32.864 " fill="none" id="C-to-UC18" style="stroke:#A80036;stroke-width:0.8;"/><polygon fill="#A80036" points="256.432,31.984,248.7181,30.379,252.5225,32.8299,250.0716,36.6343,256.432,31.984" style="stroke:#A80036;stroke-width:0.8;"/><!--MD5=[9c414c51118181781eff5708d7963c95]
link EST to UC19--><path d="M87.312,990 C120.472,990 188.152,990 240.32,990 " fill="none" id="EST-to-UC19" style="stroke:#A80036;stroke-width:0.8;"/><polygon fill="#A80036" points="244.36,990,237.16,986.8,240.36,990,237.16,993.2,244.36,990" style="stroke:#A80036;stroke-width:0.8;"/><!--MD5=[28efd9917dd20a40843e8465dfc43c28]
link GF to UC19--><path d="M70.688,723.4 C78.552,780.984 103.104,898.688 176,960.4 C193.856,975.512 217.712,983.4 240.368,987.368 " fill="none" id="GF-to-UC19" style="stroke:#A80036;stroke-width:0.8;"/><polygon fill="#A80036" points="244.576,988.064,238.0062,983.7146,240.6314,987.4008,236.9451,990.026,244.576,988.064" style="stroke:#A80036;stroke-width:0.8;"/><!--MD5=[be1b45636fd021358485f883161b8a99]
link SIST to UC20--><path d="M73.336,1327.304 C84.472,1377.856 112.944,1473.384 176,1523.6 C194.64,1538.448 219.152,1546.216 242.136,1550.168 " fill="none" id="SIST-to-UC20" style="stroke:#A80036;stroke-width:0.8;"/><polygon fill="#A80036" points="246.112,1550.816,239.5177,1546.5037,242.1637,1550.1751,238.4923,1552.8211,246.112,1550.816" style="stroke:#A80036;stroke-width:0.8;"/><!--MD5=[2bbc8942730dfac2aa461bb52927d3fb]
link GF to UC21--><path d="M100.144,723.392 C120.392,742.096 147.8,764.336 176,778 C196.776,788.064 220.984,794.864 243.08,799.424 " fill="none" id="GF-to-UC21" style="stroke:#A80036;stroke-width:0.8;"/><polygon fill="#A80036" points="247.184,800.256,240.7693,795.6809,243.2648,799.4562,239.4895,801.9517,247.184,800.256" style="stroke:#A80036;stroke-width:0.8;"/><!--MD5=[877957b2848555cb89af265ac127cf47]
link USR to UC22--><path d="M128.256,199.84 C165.792,205.888 213.664,213.608 250.912,219.608 " fill="none" id="USR-to-UC22" style="stroke:#A80036;stroke-width:0.8;"/><polygon fill="#A80036" points="254.936,220.264,248.3276,215.9734,250.9856,219.636,247.3229,222.294,254.936,220.264" style="stroke:#A80036;stroke-width:0.8;"/><!--MD5=[d1ea8920d490fb2c95992377bb63dd01]
link GF to UC23--><path d="M82.576,723.312 C100.208,757.672 132.392,810.168 176,838.8 C195.112,851.344 218.68,858.76 240.712,863.128 " fill="none" id="GF-to-UC23" style="stroke:#A80036;stroke-width:0.8;"/><polygon fill="#A80036" points="244.808,863.912,238.3399,859.4127,240.8796,863.1583,237.134,865.698,244.808,863.912" style="stroke:#A80036;stroke-width:0.8;"/><!--MD5=[0cab4dc5ec68e54c88c3c77e4ec7fbff]
link GF to UC24--><path d="M75.04,723.312 C87.856,770.152 117.896,854.768 176,899.6 C193.208,912.88 215.128,920.56 236.248,924.944 " fill="none" id="GF-to-UC24" style="stroke:#A80036;stroke-width:0.8;"/><polygon fill="#A80036" points="240.176,925.728,233.7357,921.1889,236.2524,924.9501,232.4912,927.4668,240.176,925.728" style="stroke:#A80036;stroke-width:0.8;"/><!--MD5=[91c44f50644b5cd3394754bd2e3fcb83]
link C to UC25--><path d="M84.304,89.2 C108.704,89.2 155.52,89.2 200.256,89.2 " fill="none" id="C-to-UC25" style="stroke:#A80036;stroke-width:0.8;"/><polygon fill="#A80036" points="204.304,89.2,197.104,86,200.304,89.2,197.104,92.4,204.304,89.2" style="stroke:#A80036;stroke-width:0.8;"/><!--MD5=[6a3e950dc6887d5183164fd7b95a2569]
@startuml

usecase UC1 as "UC - Calcular Caminho Entrega"
usecase UC2 as "UC - Estimar Consumo Energético Drone"
usecase UC3 as "UC - Adicionar Drone"
usecase UC4 as "UC - Adicionar Farmácia"
usecase UC5 as "UC - Adicionar Parque Estacionamento Drones"
usecase UC6 as "UC - Adicionar Produto ao carrinho"
usecase UC7 as "UC - Adicionar Scooter"
usecase UC8 as "UC - Adicionar Stock de Produto"
usecase UC9 as "UC - Atribuir Farmacia Próxima"
usecase UC11 as "UC - Atualizar Drone "
usecase UC12 as "UC - Atualizar Scooter"
usecase UC13 as "UC - Criar Entrega"
usecase UC14 as "UC - EmailAPI"
usecase UC15 as "UC - Enviar Email Estimativa"
usecase UC16 as "UC - Enviar Email Segurança do Estacionamento"
usecase UC17 as "UC - Estimar Consumo Energético Scooter"
usecase UC18 as "UC - Finalizar Compra"
usecase UC19 as "UC - Iniciar Entrega"
usecase UC20 as "UC - Pedir Produto"
usecase UC21 as "UC - Registar Estafeta"
usecase UC22 as "UC - Registo Cliente"
usecase UC23 as "UC - Remover Drone"
usecase UC24 as "UC - Remover Scooter"
usecase UC25 as "UC - Visualizar Catalogo de Produtos"



actor "Administrador" as ADM
actor "Gestor de Farmácia" as GF
actor "Cliente" as C
actor "Estafeta" as EST
actor "Sistema" as SIST
actor "Utilizador Não Registado" as USR

left to right direction


SIST - ->(UC1)
SIST - ->(UC2)
GF - -> (UC3)
ADM - -> (UC4)
GF - -> (UC5)
C- -> (UC6)
USR - -> (UC6)
GF - -> (UC7)
GF - -> (UC8)
SIST - -> (UC9)
GF - -> (UC11)
GF - -> (UC12)
GF - -> (UC13)
SIST - -> (UC14)
SIST - -> (UC15)
SIST - -> (UC16)
SIST - -> (UC17)
C - -> (UC18)
EST - -> (UC19)
GF - -> (UC19)
SIST - -> (UC20)
GF - -> (UC21)
USR - -> (UC22)
GF - -> (UC23)
GF - -> (UC24)
C - -> (UC25)











@enduml

PlantUML version 1.2020.23(Sun Dec 13 19:14:58 GMT 2020)
(GPL source distribution)
Java Runtime: OpenJDK Runtime Environment
JVM: OpenJDK 64-Bit Server VM
Default Encoding: Cp1252
Language: pt
Country: PT
--></g></svg>