<?xml version="1.0" encoding="UTF-8" standalone="no"?><svg xmlns="http://www.w3.org/2000/svg" xmlns:xlink="http://www.w3.org/1999/xlink" contentScriptType="application/ecmascript" contentStyleType="text/css" height="746.25px" preserveAspectRatio="none" style="width:2641px;height:746px;" version="1.1" viewBox="0 0 2641 746" width="2641.25px" zoomAndPan="magnify"><defs><filter height="300%" id="foz1273vix1jc" width="300%" x="-1" y="-1"><feGaussianBlur result="blurOut" stdDeviation="2.5"/><feColorMatrix in="blurOut" result="blurOut2" type="matrix" values="0 0 0 0 0 0 0 0 0 0 0 0 0 0 0 0 0 0 .4 0"/><feOffset dx="5.0" dy="5.0" in="blurOut2" result="blurOut3"/><feBlend in="SourceGraphic" in2="blurOut3" mode="normal"/></filter></defs><g><!--MD5=[4c2c596f7c9b40221020163aa0d65292]
class AdicionarScooterUI--><rect codeLine="3" fill="#FEFECE" filter="url(#foz1273vix1jc)" height="60" id="AdicionarScooterUI" style="stroke:#A80036;stroke-width:1.875;" width="171.25" x="8.75" y="335"/><ellipse cx="27.5" cy="355" fill="#ADD1B2" rx="13.75" ry="13.75" style="stroke:#A80036;stroke-width:1.25;"/><path d="M30,350.625 Q30.2539,350 30.5469,349.6875 Q30.8398,349.375 31.1719,349.375 Q31.7578,349.375 32.1289,349.7266 Q32.5,350.0781 32.5,350.8984 L32.5,352.8516 Q32.5,353.6719 32.1484,354.0234 Q31.7969,354.375 31.25,354.375 Q30.7617,354.375 30.4492,354.1602 Q30.1367,353.9453 30,353.3789 Q29.9414,352.9883 29.7266,352.7734 Q29.3359,352.3633 28.6328,352.1289 Q27.9297,351.875 27.2266,351.875 Q26.3477,351.875 25.6055,352.2266 Q24.8828,352.5781 24.3164,353.3594 Q23.75,354.1406 23.75,355.2148 L23.75,356.3672 Q23.75,357.6563 24.8047,358.5156 Q25.8594,359.375 27.7344,359.375 Q28.8477,359.375 29.6289,359.1211 Q30.0781,358.9844 30.5859,358.5352 Q30.918,358.2813 31.0938,358.2031 Q31.2695,358.125 31.4844,358.125 Q31.8945,358.125 32.1875,358.457 Q32.5,358.7695 32.5,359.2188 Q32.5,359.6484 32.0703,360.1563 Q31.4453,360.8984 30.4492,361.3086 Q29.1406,361.875 27.5391,361.875 Q25.6641,361.875 24.1602,361.1328 Q22.9492,360.5469 22.0898,359.2773 Q21.25,358.0078 21.25,356.5039 L21.25,355.1367 Q21.25,353.5742 21.9922,352.207 Q22.7539,350.8398 24.0625,350.1172 Q25.3906,349.375 26.875,349.375 Q27.7734,349.375 28.5547,349.6875 Q29.3359,350 30,350.625 Z " fill="#000000"/><text fill="#000000" font-family="sans-serif" font-size="15" lengthAdjust="spacingAndGlyphs" textLength="131.25" x="45" y="361.1377">AdicionarScooterUI</text><line style="stroke:#A80036;stroke-width:1.875;" x1="10" x2="178.75" y1="375" y2="375"/><line style="stroke:#A80036;stroke-width:1.875;" x1="10" x2="178.75" y1="385" y2="385"/><!--MD5=[1e423d37e3146e6048cd009e73c36e21]
class AdicionarScooterController--><rect codeLine="6" fill="#FEFECE" filter="url(#foz1273vix1jc)" height="94.5898" id="AdicionarScooterController" style="stroke:#A80036;stroke-width:1.875;" width="387.5" x="256.25" y="317.5"/><ellipse cx="352.8125" cy="337.5" fill="#ADD1B2" rx="13.75" ry="13.75" style="stroke:#A80036;stroke-width:1.25;"/><path d="M355.3125,333.125 Q355.5664,332.5 355.8594,332.1875 Q356.1523,331.875 356.4844,331.875 Q357.0703,331.875 357.4414,332.2266 Q357.8125,332.5781 357.8125,333.3984 L357.8125,335.3516 Q357.8125,336.1719 357.4609,336.5234 Q357.1094,336.875 356.5625,336.875 Q356.0742,336.875 355.7617,336.6602 Q355.4492,336.4453 355.3125,335.8789 Q355.2539,335.4883 355.0391,335.2734 Q354.6484,334.8633 353.9453,334.6289 Q353.2422,334.375 352.5391,334.375 Q351.6602,334.375 350.918,334.7266 Q350.1953,335.0781 349.6289,335.8594 Q349.0625,336.6406 349.0625,337.7148 L349.0625,338.8672 Q349.0625,340.1563 350.1172,341.0156 Q351.1719,341.875 353.0469,341.875 Q354.1602,341.875 354.9414,341.6211 Q355.3906,341.4844 355.8984,341.0352 Q356.2305,340.7813 356.4063,340.7031 Q356.582,340.625 356.7969,340.625 Q357.207,340.625 357.5,340.957 Q357.8125,341.2695 357.8125,341.7188 Q357.8125,342.1484 357.3828,342.6563 Q356.7578,343.3984 355.7617,343.8086 Q354.4531,344.375 352.8516,344.375 Q350.9766,344.375 349.4727,343.6328 Q348.2617,343.0469 347.4023,341.7773 Q346.5625,340.5078 346.5625,339.0039 L346.5625,337.6367 Q346.5625,336.0742 347.3047,334.707 Q348.0664,333.3398 349.375,332.6172 Q350.7031,331.875 352.1875,331.875 Q353.0859,331.875 353.8672,332.1875 Q354.6484,332.5 355.3125,333.125 Z " fill="#000000"/><text fill="#000000" font-family="sans-serif" font-size="15" lengthAdjust="spacingAndGlyphs" textLength="183.75" x="378.4375" y="343.6377">AdicionarScooterController</text><line style="stroke:#A80036;stroke-width:1.875;" x1="257.5" x2="642.5" y1="357.5" y2="357.5"/><line style="stroke:#A80036;stroke-width:1.875;" x1="257.5" x2="642.5" y1="367.5" y2="367.5"/><ellipse cx="270" cy="381.25" fill="#84BE84" rx="3.75" ry="3.75" style="stroke:#038048;stroke-width:1.25;"/><text fill="#000000" font-family="sans-serif" font-size="13.75" lengthAdjust="spacingAndGlyphs" textLength="355" x="281.25" y="386.7737">Scooter novaScooter(int carga, double capacidadeBateria)</text><ellipse cx="270" cy="398.5449" fill="#84BE84" rx="3.75" ry="3.75" style="stroke:#038048;stroke-width:1.25;"/><text fill="#000000" font-family="sans-serif" font-size="13.75" lengthAdjust="spacingAndGlyphs" textLength="131.25" x="281.25" y="404.0686">update(lugar,scooter)</text><!--MD5=[380d12a68ed0046a60f31008a02875d0]
class AplicacaoPOT--><rect codeLine="11" fill="#FEFECE" filter="url(#foz1273vix1jc)" height="111.8848" id="AplicacaoPOT" style="stroke:#A80036;stroke-width:1.875;" width="138.75" x="816.875" y="8.75"/><ellipse cx="836.75" cy="28.75" fill="#ADD1B2" rx="13.75" ry="13.75" style="stroke:#A80036;stroke-width:1.25;"/><path d="M839.25,24.375 Q839.5039,23.75 839.7969,23.4375 Q840.0898,23.125 840.4219,23.125 Q841.0078,23.125 841.3789,23.4766 Q841.75,23.8281 841.75,24.6484 L841.75,26.6016 Q841.75,27.4219 841.3984,27.7734 Q841.0469,28.125 840.5,28.125 Q840.0117,28.125 839.6992,27.9102 Q839.3867,27.6953 839.25,27.1289 Q839.1914,26.7383 838.9766,26.5234 Q838.5859,26.1133 837.8828,25.8789 Q837.1797,25.625 836.4766,25.625 Q835.5977,25.625 834.8555,25.9766 Q834.1328,26.3281 833.5664,27.1094 Q833,27.8906 833,28.9648 L833,30.1172 Q833,31.4063 834.0547,32.2656 Q835.1094,33.125 836.9844,33.125 Q838.0977,33.125 838.8789,32.8711 Q839.3281,32.7344 839.8359,32.2852 Q840.168,32.0313 840.3438,31.9531 Q840.5195,31.875 840.7344,31.875 Q841.1445,31.875 841.4375,32.207 Q841.75,32.5195 841.75,32.9688 Q841.75,33.3984 841.3203,33.9063 Q840.6953,34.6484 839.6992,35.0586 Q838.3906,35.625 836.7891,35.625 Q834.9141,35.625 833.4102,34.8828 Q832.1992,34.2969 831.3398,33.0273 Q830.5,31.7578 830.5,30.2539 L830.5,28.8867 Q830.5,27.3242 831.2422,25.957 Q832.0039,24.5898 833.3125,23.8672 Q834.6406,23.125 836.125,23.125 Q837.0234,23.125 837.8047,23.4375 Q838.5859,23.75 839.25,24.375 Z " fill="#000000"/><text fill="#000000" font-family="sans-serif" font-size="15" lengthAdjust="spacingAndGlyphs" textLength="96.25" x="854.5" y="34.8877">AplicacaoPOT</text><line style="stroke:#A80036;stroke-width:1.875;" x1="818.125" x2="954.375" y1="48.75" y2="48.75"/><line style="stroke:#A80036;stroke-width:1.875;" x1="818.125" x2="954.375" y1="58.75" y2="58.75"/><ellipse cx="830.625" cy="72.5" fill="#84BE84" rx="3.75" ry="3.75" style="stroke:#038048;stroke-width:1.25;"/><text fill="#000000" font-family="sans-serif" font-size="13.75" lengthAdjust="spacingAndGlyphs" textLength="80" x="841.875" y="78.0237">getInstance()</text><ellipse cx="830.625" cy="89.7949" fill="#84BE84" rx="3.75" ry="3.75" style="stroke:#038048;stroke-width:1.25;"/><text fill="#000000" font-family="sans-serif" font-size="13.75" lengthAdjust="spacingAndGlyphs" textLength="92.5" x="841.875" y="95.3186">getPlataforma()</text><ellipse cx="830.625" cy="107.0898" fill="#84BE84" rx="3.75" ry="3.75" style="stroke:#038048;stroke-width:1.25;"/><text fill="#000000" font-family="sans-serif" font-size="13.75" lengthAdjust="spacingAndGlyphs" textLength="106.25" x="841.875" y="112.6135">getSessaoAtual()</text><!--MD5=[1e13576e8c070e32200b62ceaa1f39ec]
class SessaoUtilizador--><rect codeLine="17" fill="#FEFECE" filter="url(#foz1273vix1jc)" height="77.2949" id="SessaoUtilizador" style="stroke:#A80036;stroke-width:1.875;" width="157.5" x="807.5" y="165"/><ellipse cx="826.25" cy="185" fill="#ADD1B2" rx="13.75" ry="13.75" style="stroke:#A80036;stroke-width:1.25;"/><path d="M828.75,180.625 Q829.0039,180 829.2969,179.6875 Q829.5898,179.375 829.9219,179.375 Q830.5078,179.375 830.8789,179.7266 Q831.25,180.0781 831.25,180.8984 L831.25,182.8516 Q831.25,183.6719 830.8984,184.0234 Q830.5469,184.375 830,184.375 Q829.5117,184.375 829.1992,184.1602 Q828.8867,183.9453 828.75,183.3789 Q828.6914,182.9883 828.4766,182.7734 Q828.0859,182.3633 827.3828,182.1289 Q826.6797,181.875 825.9766,181.875 Q825.0977,181.875 824.3555,182.2266 Q823.6328,182.5781 823.0664,183.3594 Q822.5,184.1406 822.5,185.2148 L822.5,186.3672 Q822.5,187.6563 823.5547,188.5156 Q824.6094,189.375 826.4844,189.375 Q827.5977,189.375 828.3789,189.1211 Q828.8281,188.9844 829.3359,188.5352 Q829.668,188.2813 829.8438,188.2031 Q830.0195,188.125 830.2344,188.125 Q830.6445,188.125 830.9375,188.457 Q831.25,188.7695 831.25,189.2188 Q831.25,189.6484 830.8203,190.1563 Q830.1953,190.8984 829.1992,191.3086 Q827.8906,191.875 826.2891,191.875 Q824.4141,191.875 822.9102,191.1328 Q821.6992,190.5469 820.8398,189.2773 Q820,188.0078 820,186.5039 L820,185.1367 Q820,183.5742 820.7422,182.207 Q821.5039,180.8398 822.8125,180.1172 Q824.1406,179.375 825.625,179.375 Q826.5234,179.375 827.3047,179.6875 Q828.0859,180 828.75,180.625 Z " fill="#000000"/><text fill="#000000" font-family="sans-serif" font-size="15" lengthAdjust="spacingAndGlyphs" textLength="117.5" x="843.75" y="191.1377">SessaoUtilizador</text><line style="stroke:#A80036;stroke-width:1.875;" x1="808.75" x2="963.75" y1="205" y2="205"/><line style="stroke:#A80036;stroke-width:1.875;" x1="808.75" x2="963.75" y1="215" y2="215"/><ellipse cx="821.25" cy="228.75" fill="#84BE84" rx="3.75" ry="3.75" style="stroke:#038048;stroke-width:1.25;"/><text fill="#000000" font-family="sans-serif" font-size="13.75" lengthAdjust="spacingAndGlyphs" textLength="113.75" x="832.5" y="234.2737">getEmailUtilizador()</text><!--MD5=[6613c9cd406ef433ff06f5e98b28abd9]
class Farmacia--><rect codeLine="22" fill="#FEFECE" filter="url(#foz1273vix1jc)" height="60" id="Farmacia" style="stroke:#A80036;stroke-width:1.875;" width="105" x="833.75" y="286.25"/><ellipse cx="852.5" cy="306.25" fill="#ADD1B2" rx="13.75" ry="13.75" style="stroke:#A80036;stroke-width:1.25;"/><path d="M855,301.875 Q855.2539,301.25 855.5469,300.9375 Q855.8398,300.625 856.1719,300.625 Q856.7578,300.625 857.1289,300.9766 Q857.5,301.3281 857.5,302.1484 L857.5,304.1016 Q857.5,304.9219 857.1484,305.2734 Q856.7969,305.625 856.25,305.625 Q855.7617,305.625 855.4492,305.4102 Q855.1367,305.1953 855,304.6289 Q854.9414,304.2383 854.7266,304.0234 Q854.3359,303.6133 853.6328,303.3789 Q852.9297,303.125 852.2266,303.125 Q851.3477,303.125 850.6055,303.4766 Q849.8828,303.8281 849.3164,304.6094 Q848.75,305.3906 848.75,306.4648 L848.75,307.6172 Q848.75,308.9063 849.8047,309.7656 Q850.8594,310.625 852.7344,310.625 Q853.8477,310.625 854.6289,310.3711 Q855.0781,310.2344 855.5859,309.7852 Q855.918,309.5313 856.0938,309.4531 Q856.2695,309.375 856.4844,309.375 Q856.8945,309.375 857.1875,309.707 Q857.5,310.0195 857.5,310.4688 Q857.5,310.8984 857.0703,311.4063 Q856.4453,312.1484 855.4492,312.5586 Q854.1406,313.125 852.5391,313.125 Q850.6641,313.125 849.1602,312.3828 Q847.9492,311.7969 847.0898,310.5273 Q846.25,309.2578 846.25,307.7539 L846.25,306.3867 Q846.25,304.8242 846.9922,303.457 Q847.7539,302.0898 849.0625,301.3672 Q850.3906,300.625 851.875,300.625 Q852.7734,300.625 853.5547,300.9375 Q854.3359,301.25 855,301.875 Z " fill="#000000"/><text fill="#000000" font-family="sans-serif" font-size="15" lengthAdjust="spacingAndGlyphs" textLength="65" x="870" y="312.3877">Farmacia</text><line style="stroke:#A80036;stroke-width:1.875;" x1="835" x2="937.5" y1="326.25" y2="326.25"/><line style="stroke:#A80036;stroke-width:1.875;" x1="835" x2="937.5" y1="336.25" y2="336.25"/><!--MD5=[d65f6f0def66e70a331ac7d94f9f4f13]
class LugarEstacionamento--><rect codeLine="26" fill="#FEFECE" filter="url(#foz1273vix1jc)" height="94.5898" id="LugarEstacionamento" style="stroke:#A80036;stroke-width:1.875;" width="226.25" x="1177.5" y="365"/><ellipse cx="1211.4375" cy="385" fill="#ADD1B2" rx="13.75" ry="13.75" style="stroke:#A80036;stroke-width:1.25;"/><path d="M1213.9375,380.625 Q1214.1914,380 1214.4844,379.6875 Q1214.7773,379.375 1215.1094,379.375 Q1215.6953,379.375 1216.0664,379.7266 Q1216.4375,380.0781 1216.4375,380.8984 L1216.4375,382.8516 Q1216.4375,383.6719 1216.0859,384.0234 Q1215.7344,384.375 1215.1875,384.375 Q1214.6992,384.375 1214.3867,384.1602 Q1214.0742,383.9453 1213.9375,383.3789 Q1213.8789,382.9883 1213.6641,382.7734 Q1213.2734,382.3633 1212.5703,382.1289 Q1211.8672,381.875 1211.1641,381.875 Q1210.2852,381.875 1209.543,382.2266 Q1208.8203,382.5781 1208.2539,383.3594 Q1207.6875,384.1406 1207.6875,385.2148 L1207.6875,386.3672 Q1207.6875,387.6563 1208.7422,388.5156 Q1209.7969,389.375 1211.6719,389.375 Q1212.7852,389.375 1213.5664,389.1211 Q1214.0156,388.9844 1214.5234,388.5352 Q1214.8555,388.2813 1215.0313,388.2031 Q1215.207,388.125 1215.4219,388.125 Q1215.832,388.125 1216.125,388.457 Q1216.4375,388.7695 1216.4375,389.2188 Q1216.4375,389.6484 1216.0078,390.1563 Q1215.3828,390.8984 1214.3867,391.3086 Q1213.0781,391.875 1211.4766,391.875 Q1209.6016,391.875 1208.0977,391.1328 Q1206.8867,390.5469 1206.0273,389.2773 Q1205.1875,388.0078 1205.1875,386.5039 L1205.1875,385.1367 Q1205.1875,383.5742 1205.9297,382.207 Q1206.6914,380.8398 1208,380.1172 Q1209.3281,379.375 1210.8125,379.375 Q1211.7109,379.375 1212.4922,379.6875 Q1213.2734,380 1213.9375,380.625 Z " fill="#000000"/><text fill="#000000" font-family="sans-serif" font-size="15" lengthAdjust="spacingAndGlyphs" textLength="152.5" x="1232.3125" y="391.1377">LugarEstacionamento</text><line style="stroke:#A80036;stroke-width:1.875;" x1="1178.75" x2="1402.5" y1="405" y2="405"/><line style="stroke:#A80036;stroke-width:1.875;" x1="1178.75" x2="1402.5" y1="415" y2="415"/><ellipse cx="1191.25" cy="428.75" fill="#84BE84" rx="3.75" ry="3.75" style="stroke:#038048;stroke-width:1.25;"/><text fill="#000000" font-family="sans-serif" font-size="13.75" lengthAdjust="spacingAndGlyphs" textLength="193.75" x="1202.5" y="434.2737">setScooter(Scooter setScooter)</text><ellipse cx="1191.25" cy="446.0449" fill="#84BE84" rx="3.75" ry="3.75" style="stroke:#038048;stroke-width:1.25;"/><text fill="#000000" font-family="sans-serif" font-size="13.75" lengthAdjust="spacingAndGlyphs" textLength="143.75" x="1202.5" y="451.5686">verificaDisponibilidade()</text><!--MD5=[f4402668d5d5bb8485350c0fdb60ac8e]
class Scooter--><rect codeLine="31" fill="#FEFECE" filter="url(#foz1273vix1jc)" height="146.4746" id="Scooter" style="stroke:#A80036;stroke-width:1.875;" width="306.25" x="1528.75" y="568.125"/><ellipse cx="1650.3125" cy="588.125" fill="#ADD1B2" rx="13.75" ry="13.75" style="stroke:#A80036;stroke-width:1.25;"/><path d="M1652.8125,583.75 Q1653.0664,583.125 1653.3594,582.8125 Q1653.6523,582.5 1653.9844,582.5 Q1654.5703,582.5 1654.9414,582.8516 Q1655.3125,583.2031 1655.3125,584.0234 L1655.3125,585.9766 Q1655.3125,586.7969 1654.9609,587.1484 Q1654.6094,587.5 1654.0625,587.5 Q1653.5742,587.5 1653.2617,587.2852 Q1652.9492,587.0703 1652.8125,586.5039 Q1652.7539,586.1133 1652.5391,585.8984 Q1652.1484,585.4883 1651.4453,585.2539 Q1650.7422,585 1650.0391,585 Q1649.1602,585 1648.418,585.3516 Q1647.6953,585.7031 1647.1289,586.4844 Q1646.5625,587.2656 1646.5625,588.3398 L1646.5625,589.4922 Q1646.5625,590.7813 1647.6172,591.6406 Q1648.6719,592.5 1650.5469,592.5 Q1651.6602,592.5 1652.4414,592.2461 Q1652.8906,592.1094 1653.3984,591.6602 Q1653.7305,591.4063 1653.9063,591.3281 Q1654.082,591.25 1654.2969,591.25 Q1654.707,591.25 1655,591.582 Q1655.3125,591.8945 1655.3125,592.3438 Q1655.3125,592.7734 1654.8828,593.2813 Q1654.2578,594.0234 1653.2617,594.4336 Q1651.9531,595 1650.3516,595 Q1648.4766,595 1646.9727,594.2578 Q1645.7617,593.6719 1644.9023,592.4023 Q1644.0625,591.1328 1644.0625,589.6289 L1644.0625,588.2617 Q1644.0625,586.6992 1644.8047,585.332 Q1645.5664,583.9648 1646.875,583.2422 Q1648.2031,582.5 1649.6875,582.5 Q1650.5859,582.5 1651.3672,582.8125 Q1652.1484,583.125 1652.8125,583.75 Z " fill="#000000"/><text fill="#000000" font-family="sans-serif" font-size="15" lengthAdjust="spacingAndGlyphs" textLength="52.5" x="1675.9375" y="594.2627">Scooter</text><line style="stroke:#A80036;stroke-width:1.875;" x1="1530" x2="1833.75" y1="608.125" y2="608.125"/><rect fill="none" height="7.5" style="stroke:#C82930;stroke-width:1.25;" width="7.5" x="1538.75" y="618.125"/><text fill="#000000" font-family="sans-serif" font-size="13.75" lengthAdjust="spacingAndGlyphs" textLength="27.5" x="1553.75" y="627.3987">int id</text><rect fill="none" height="7.5" style="stroke:#C82930;stroke-width:1.25;" width="7.5" x="1538.75" y="635.4199"/><text fill="#000000" font-family="sans-serif" font-size="13.75" lengthAdjust="spacingAndGlyphs" textLength="136.25" x="1553.75" y="644.6936">BufferedImage qrCode</text><rect fill="none" height="7.5" style="stroke:#C82930;stroke-width:1.25;" width="7.5" x="1538.75" y="652.7148"/><text fill="#000000" font-family="sans-serif" font-size="13.75" lengthAdjust="spacingAndGlyphs" textLength="52.5" x="1553.75" y="661.9885">int carga</text><rect fill="none" height="7.5" style="stroke:#C82930;stroke-width:1.25;" width="7.5" x="1538.75" y="670.0098"/><text fill="#000000" font-family="sans-serif" font-size="13.75" lengthAdjust="spacingAndGlyphs" textLength="156.25" x="1553.75" y="679.2834">double capacidadeBateria</text><line style="stroke:#A80036;stroke-width:1.875;" x1="1530" x2="1833.75" y1="687.3047" y2="687.3047"/><ellipse cx="1542.5" cy="701.0547" fill="#84BE84" rx="3.75" ry="3.75" style="stroke:#038048;stroke-width:1.25;"/><text fill="#000000" font-family="sans-serif" font-size="13.75" lengthAdjust="spacingAndGlyphs" textLength="273.75" x="1553.75" y="706.5784">Scooter(int carga, double capacidadeBateria)</text><!--MD5=[506621ed787cd332d48b035cccfe5c39]
class QRCode--><rect codeLine="38" fill="#FEFECE" filter="url(#foz1273vix1jc)" height="129.1797" id="QRCode" style="stroke:#A80036;stroke-width:1.875;" width="712.5" x="1911.25" y="576.875"/><ellipse cx="2232.1875" cy="596.875" fill="#ADD1B2" rx="13.75" ry="13.75" style="stroke:#A80036;stroke-width:1.25;"/><path d="M2234.6875,592.5 Q2234.9414,591.875 2235.2344,591.5625 Q2235.5273,591.25 2235.8594,591.25 Q2236.4453,591.25 2236.8164,591.6016 Q2237.1875,591.9531 2237.1875,592.7734 L2237.1875,594.7266 Q2237.1875,595.5469 2236.8359,595.8984 Q2236.4844,596.25 2235.9375,596.25 Q2235.4492,596.25 2235.1367,596.0352 Q2234.8242,595.8203 2234.6875,595.2539 Q2234.6289,594.8633 2234.4141,594.6484 Q2234.0234,594.2383 2233.3203,594.0039 Q2232.6172,593.75 2231.9141,593.75 Q2231.0352,593.75 2230.293,594.1016 Q2229.5703,594.4531 2229.0039,595.2344 Q2228.4375,596.0156 2228.4375,597.0898 L2228.4375,598.2422 Q2228.4375,599.5313 2229.4922,600.3906 Q2230.5469,601.25 2232.4219,601.25 Q2233.5352,601.25 2234.3164,600.9961 Q2234.7656,600.8594 2235.2734,600.4102 Q2235.6055,600.1563 2235.7813,600.0781 Q2235.957,600 2236.1719,600 Q2236.582,600 2236.875,600.332 Q2237.1875,600.6445 2237.1875,601.0938 Q2237.1875,601.5234 2236.7578,602.0313 Q2236.1328,602.7734 2235.1367,603.1836 Q2233.8281,603.75 2232.2266,603.75 Q2230.3516,603.75 2228.8477,603.0078 Q2227.6367,602.4219 2226.7773,601.1523 Q2225.9375,599.8828 2225.9375,598.3789 L2225.9375,597.0117 Q2225.9375,595.4492 2226.6797,594.082 Q2227.4414,592.7148 2228.75,591.9922 Q2230.0781,591.25 2231.5625,591.25 Q2232.4609,591.25 2233.2422,591.5625 Q2234.0234,591.875 2234.6875,592.5 Z " fill="#000000"/><text fill="#000000" font-family="sans-serif" font-size="15" lengthAdjust="spacingAndGlyphs" textLength="60" x="2257.8125" y="603.0127">QRCode</text><line style="stroke:#A80036;stroke-width:1.875;" x1="1912.5" x2="2622.5" y1="616.875" y2="616.875"/><rect fill="none" height="7.5" style="stroke:#C82930;stroke-width:1.25;" width="7.5" x="1921.25" y="626.875"/><text fill="#000000" font-family="sans-serif" font-size="13.75" lengthAdjust="spacingAndGlyphs" textLength="98.75" x="1936.25" y="636.1487">String CHARSET</text><rect fill="none" height="7.5" style="stroke:#C82930;stroke-width:1.25;" width="7.5" x="1921.25" y="644.1699"/><text fill="#000000" font-family="sans-serif" font-size="13.75" lengthAdjust="spacingAndGlyphs" textLength="75" x="1936.25" y="653.4436">Map hintMap</text><line style="stroke:#A80036;stroke-width:1.875;" x1="1912.5" x2="2622.5" y1="661.4648" y2="661.4648"/><ellipse cx="1925" cy="675.2148" fill="#84BE84" rx="3.75" ry="3.75" style="stroke:#038048;stroke-width:1.25;"/><text fill="#000000" font-family="sans-serif" font-size="13.75" lengthAdjust="spacingAndGlyphs" textLength="256.25" x="1936.25" y="680.7385">BufferedImage createQRCode(String data)</text><ellipse cx="1925" cy="692.5098" fill="#84BE84" rx="3.75" ry="3.75" style="stroke:#038048;stroke-width:1.25;"/><text fill="#000000" font-family="sans-serif" font-size="13.75" lengthAdjust="spacingAndGlyphs" textLength="680" x="1936.25" y="698.0334">BufferedImage createQRCode(String qrCodeData,String charset, Map hintMap, int qrCodeheight, int qrCodewidth)</text><!--MD5=[3707309d909513970d98cd7082f3ca19]
class FarmaciaBD--><rect codeLine="47" fill="#FEFECE" filter="url(#foz1273vix1jc)" height="111.8848" id="FarmaciaBD" style="stroke:#A80036;stroke-width:1.875;" width="313.75" x="729.375" y="478.75"/><ellipse cx="837.8125" cy="498.75" fill="#ADD1B2" rx="13.75" ry="13.75" style="stroke:#A80036;stroke-width:1.25;"/><path d="M840.3125,494.375 Q840.5664,493.75 840.8594,493.4375 Q841.1523,493.125 841.4844,493.125 Q842.0703,493.125 842.4414,493.4766 Q842.8125,493.8281 842.8125,494.6484 L842.8125,496.6016 Q842.8125,497.4219 842.4609,497.7734 Q842.1094,498.125 841.5625,498.125 Q841.0742,498.125 840.7617,497.9102 Q840.4492,497.6953 840.3125,497.1289 Q840.2539,496.7383 840.0391,496.5234 Q839.6484,496.1133 838.9453,495.8789 Q838.2422,495.625 837.5391,495.625 Q836.6602,495.625 835.918,495.9766 Q835.1953,496.3281 834.6289,497.1094 Q834.0625,497.8906 834.0625,498.9648 L834.0625,500.1172 Q834.0625,501.4063 835.1172,502.2656 Q836.1719,503.125 838.0469,503.125 Q839.1602,503.125 839.9414,502.8711 Q840.3906,502.7344 840.8984,502.2852 Q841.2305,502.0313 841.4063,501.9531 Q841.582,501.875 841.7969,501.875 Q842.207,501.875 842.5,502.207 Q842.8125,502.5195 842.8125,502.9688 Q842.8125,503.3984 842.3828,503.9063 Q841.7578,504.6484 840.7617,505.0586 Q839.4531,505.625 837.8516,505.625 Q835.9766,505.625 834.4727,504.8828 Q833.2617,504.2969 832.4023,503.0273 Q831.5625,501.7578 831.5625,500.2539 L831.5625,498.8867 Q831.5625,497.3242 832.3047,495.957 Q833.0664,494.5898 834.375,493.8672 Q835.7031,493.125 837.1875,493.125 Q838.0859,493.125 838.8672,493.4375 Q839.6484,493.75 840.3125,494.375 Z " fill="#000000"/><text fill="#000000" font-family="sans-serif" font-size="15" lengthAdjust="spacingAndGlyphs" textLength="86.25" x="863.4375" y="504.8877">FarmaciaBD</text><line style="stroke:#A80036;stroke-width:1.875;" x1="730.625" x2="1041.875" y1="518.75" y2="518.75"/><line style="stroke:#A80036;stroke-width:1.875;" x1="730.625" x2="1041.875" y1="528.75" y2="528.75"/><ellipse cx="743.125" cy="542.5" fill="#84BE84" rx="3.75" ry="3.75" style="stroke:#038048;stroke-width:1.25;"/><text fill="#000000" font-family="sans-serif" font-size="13.75" lengthAdjust="spacingAndGlyphs" textLength="267.5" x="754.375" y="548.0237">Farmacia getFarmaciabyGestor(String email)</text><ellipse cx="743.125" cy="559.7949" fill="#84BE84" rx="3.75" ry="3.75" style="stroke:#038048;stroke-width:1.25;"/><text fill="#000000" font-family="sans-serif" font-size="13.75" lengthAdjust="spacingAndGlyphs" textLength="116.25" x="754.375" y="565.3186">updateLugar(lugar)</text><ellipse cx="743.125" cy="577.0898" fill="#84BE84" rx="3.75" ry="3.75" style="stroke:#038048;stroke-width:1.25;"/><text fill="#000000" font-family="sans-serif" font-size="13.75" lengthAdjust="spacingAndGlyphs" textLength="281.25" x="754.375" y="582.6135">getLugarEstacionamentobyFarm(String farmID)</text><!--MD5=[9c5439856a1aad23e042de9a355b14cb]
class BaseDados--><rect codeLine="53" fill="#FEFECE" filter="url(#foz1273vix1jc)" height="94.5898" id="BaseDados" style="stroke:#A80036;stroke-width:1.875;" width="142.5" x="1219.375" y="507.5"/><ellipse cx="1247.125" cy="527.5" fill="#ADD1B2" rx="13.75" ry="13.75" style="stroke:#A80036;stroke-width:1.25;"/><path d="M1249.625,523.125 Q1249.8789,522.5 1250.1719,522.1875 Q1250.4648,521.875 1250.7969,521.875 Q1251.3828,521.875 1251.7539,522.2266 Q1252.125,522.5781 1252.125,523.3984 L1252.125,525.3516 Q1252.125,526.1719 1251.7734,526.5234 Q1251.4219,526.875 1250.875,526.875 Q1250.3867,526.875 1250.0742,526.6602 Q1249.7617,526.4453 1249.625,525.8789 Q1249.5664,525.4883 1249.3516,525.2734 Q1248.9609,524.8633 1248.2578,524.6289 Q1247.5547,524.375 1246.8516,524.375 Q1245.9727,524.375 1245.2305,524.7266 Q1244.5078,525.0781 1243.9414,525.8594 Q1243.375,526.6406 1243.375,527.7148 L1243.375,528.8672 Q1243.375,530.1563 1244.4297,531.0156 Q1245.4844,531.875 1247.3594,531.875 Q1248.4727,531.875 1249.2539,531.6211 Q1249.7031,531.4844 1250.2109,531.0352 Q1250.543,530.7813 1250.7188,530.7031 Q1250.8945,530.625 1251.1094,530.625 Q1251.5195,530.625 1251.8125,530.957 Q1252.125,531.2695 1252.125,531.7188 Q1252.125,532.1484 1251.6953,532.6563 Q1251.0703,533.3984 1250.0742,533.8086 Q1248.7656,534.375 1247.1641,534.375 Q1245.2891,534.375 1243.7852,533.6328 Q1242.5742,533.0469 1241.7148,531.7773 Q1240.875,530.5078 1240.875,529.0039 L1240.875,527.6367 Q1240.875,526.0742 1241.6172,524.707 Q1242.3789,523.3398 1243.6875,522.6172 Q1245.0156,521.875 1246.5,521.875 Q1247.3984,521.875 1248.1797,522.1875 Q1248.9609,522.5 1249.625,523.125 Z " fill="#000000"/><text fill="#000000" font-family="sans-serif" font-size="15" lengthAdjust="spacingAndGlyphs" textLength="82.5" x="1266.625" y="533.6377">BaseDados</text><line style="stroke:#A80036;stroke-width:1.875;" x1="1220.625" x2="1360.625" y1="547.5" y2="547.5"/><line style="stroke:#A80036;stroke-width:1.875;" x1="1220.625" x2="1360.625" y1="557.5" y2="557.5"/><ellipse cx="1233.125" cy="571.25" fill="#84BE84" rx="3.75" ry="3.75" style="stroke:#038048;stroke-width:1.25;"/><text fill="#000000" font-family="sans-serif" font-size="13.75" lengthAdjust="spacingAndGlyphs" textLength="96.25" x="1244.375" y="576.7737">getConnection()</text><ellipse cx="1233.125" cy="588.5449" fill="#84BE84" rx="3.75" ry="3.75" style="stroke:#038048;stroke-width:1.25;"/><text fill="#000000" font-family="sans-serif" font-size="13.75" lengthAdjust="spacingAndGlyphs" textLength="110" x="1244.375" y="594.0686">closeConnection()</text><!--MD5=[24f7645889abd6047ad6d0f9f8bd9509]
class ScooterBD--><rect codeLine="60" fill="#FEFECE" filter="url(#foz1273vix1jc)" height="94.5898" id="ScooterBD" style="stroke:#A80036;stroke-width:1.875;" width="332.5" x="720" y="635"/><ellipse cx="844.0625" cy="655" fill="#ADD1B2" rx="13.75" ry="13.75" style="stroke:#A80036;stroke-width:1.25;"/><path d="M846.5625,650.625 Q846.8164,650 847.1094,649.6875 Q847.4023,649.375 847.7344,649.375 Q848.3203,649.375 848.6914,649.7266 Q849.0625,650.0781 849.0625,650.8984 L849.0625,652.8516 Q849.0625,653.6719 848.7109,654.0234 Q848.3594,654.375 847.8125,654.375 Q847.3242,654.375 847.0117,654.1602 Q846.6992,653.9453 846.5625,653.3789 Q846.5039,652.9883 846.2891,652.7734 Q845.8984,652.3633 845.1953,652.1289 Q844.4922,651.875 843.7891,651.875 Q842.9102,651.875 842.168,652.2266 Q841.4453,652.5781 840.8789,653.3594 Q840.3125,654.1406 840.3125,655.2148 L840.3125,656.3672 Q840.3125,657.6563 841.3672,658.5156 Q842.4219,659.375 844.2969,659.375 Q845.4102,659.375 846.1914,659.1211 Q846.6406,658.9844 847.1484,658.5352 Q847.4805,658.2813 847.6563,658.2031 Q847.832,658.125 848.0469,658.125 Q848.457,658.125 848.75,658.457 Q849.0625,658.7695 849.0625,659.2188 Q849.0625,659.6484 848.6328,660.1563 Q848.0078,660.8984 847.0117,661.3086 Q845.7031,661.875 844.1016,661.875 Q842.2266,661.875 840.7227,661.1328 Q839.5117,660.5469 838.6523,659.2773 Q837.8125,658.0078 837.8125,656.5039 L837.8125,655.1367 Q837.8125,653.5742 838.5547,652.207 Q839.3164,650.8398 840.625,650.1172 Q841.9531,649.375 843.4375,649.375 Q844.3359,649.375 845.1172,649.6875 Q845.8984,650 846.5625,650.625 Z " fill="#000000"/><text fill="#000000" font-family="sans-serif" font-size="15" lengthAdjust="spacingAndGlyphs" textLength="73.75" x="869.6875" y="661.1377">ScooterBD</text><line style="stroke:#A80036;stroke-width:1.875;" x1="721.25" x2="1051.25" y1="675" y2="675"/><line style="stroke:#A80036;stroke-width:1.875;" x1="721.25" x2="1051.25" y1="685" y2="685"/><ellipse cx="733.75" cy="698.75" fill="#84BE84" rx="3.75" ry="3.75" style="stroke:#038048;stroke-width:1.25;"/><text fill="#000000" font-family="sans-serif" font-size="13.75" lengthAdjust="spacingAndGlyphs" textLength="300" x="745" y="704.2737">novaScooter(int carga,double capacidadeBateria)</text><ellipse cx="733.75" cy="716.0449" fill="#84BE84" rx="3.75" ry="3.75" style="stroke:#038048;stroke-width:1.25;"/><text fill="#000000" font-family="sans-serif" font-size="13.75" lengthAdjust="spacingAndGlyphs" textLength="196.25" x="745" y="721.5686">updateScooter(Scooter scooter)</text><!--MD5=[fd771e509ae9bfe85794bd56e183c2f9]
link AdicionarScooterUI to AdicionarScooterController--><path codeLine="66" d="M180.2125,365 C201.375,365 224.9875,365 249.1875,365 " fill="none" id="AdicionarScooterUI-to-AdicionarScooterController" style="stroke:#A80036;stroke-width:1.25;stroke-dasharray:7.0,7.0;"/><polygon fill="#A80036" points="256.0375,365,244.7875,360,249.7875,365,244.7875,370,256.0375,365" style="stroke:#A80036;stroke-width:1.25;"/><!--MD5=[92009cc23e32ef8f13711416fc3511d4]
link Farmacia to LugarEstacionamento--><path codeLine="68" d="M938.8,328.5375 C996.95,342.4625 1093.65,365.625 1170.7875,384.1 " fill="none" id="Farmacia-to-LugarEstacionamento" style="stroke:#A80036;stroke-width:1.25;"/><polygon fill="#A80036" points="1177.2375,385.65,1167.4733,378.1518,1171.1617,384.1847,1165.1288,387.873,1177.2375,385.65" style="stroke:#A80036;stroke-width:1.25;"/><text fill="#000000" font-family="sans-serif" font-size="16.25" lengthAdjust="spacingAndGlyphs" textLength="47.5" x="1091.25" y="363.1189">possui</text><text fill="#000000" font-family="sans-serif" font-size="16.25" lengthAdjust="spacingAndGlyphs" textLength="8.75" x="948.584" y="349.2748">1</text><text fill="#000000" font-family="sans-serif" font-size="16.25" lengthAdjust="spacingAndGlyphs" textLength="8.75" x="1158.7353" y="401.1587">1</text><!--MD5=[aed59b46959aadb80ca85a2bd984c08a]
link LugarEstacionamento to Scooter--><path codeLine="69" d="M1372.9,460.175 C1424.2,490.3625 1491.7,530.0875 1550.4125,564.625 " fill="none" id="LugarEstacionamento-to-Scooter" style="stroke:#A80036;stroke-width:1.25;"/><polygon fill="#A80036" points="1556.0625,567.95,1548.9095,557.9301,1550.6782,564.7765,1543.8319,566.5451,1556.0625,567.95" style="stroke:#A80036;stroke-width:1.25;"/><text fill="#000000" font-family="sans-serif" font-size="16.25" lengthAdjust="spacingAndGlyphs" textLength="47.5" x="1442.5" y="503.1189">possui</text><text fill="#000000" font-family="sans-serif" font-size="16.25" lengthAdjust="spacingAndGlyphs" textLength="8.75" x="1376.5653" y="486.3036">1</text><text fill="#000000" font-family="sans-serif" font-size="16.25" lengthAdjust="spacingAndGlyphs" textLength="8.75" x="1531.4459" y="554.6798">1</text><!--MD5=[05c5f0d533ac4c49d1fc0051b52d797a]
link Scooter to QRCode--><path codeLine="70" d="M1835.1875,641.25 C1857.0875,641.25 1880.3625,641.25 1904.3125,641.25 " fill="none" id="Scooter-to-QRCode" style="stroke:#A80036;stroke-width:1.25;stroke-dasharray:7.0,7.0;"/><polygon fill="#A80036" points="1911.0875,641.25,1899.8375,636.25,1904.8375,641.25,1899.8375,646.25,1911.0875,641.25" style="stroke:#A80036;stroke-width:1.25;"/><!--MD5=[a6d79dbd0ba26e0023ba5ff61e901959]
link AdicionarScooterController to AplicacaoPOT--><path codeLine="76" d="M500.7875,317.4 C552.5875,269.275 637.65,194.7375 720,142.5 C748.4375,124.4625 781.7375,108.025 810.95,94.9875 " fill="none" id="AdicionarScooterController-to-AplicacaoPOT" style="stroke:#A80036;stroke-width:1.25;stroke-dasharray:7.0,7.0;"/><polygon fill="#A80036" points="816.7375,92.425,804.4264,92.4179,811.0247,94.9601,808.4825,101.5583,816.7375,92.425" style="stroke:#A80036;stroke-width:1.25;"/><!--MD5=[d3f1937f66443ff56566a2a0a80c65b5]
link AdicionarScooterController to FarmaciaBD--><path codeLine="78" d="M572.65,412.575 C623.0875,432.35 682.125,455.4875 735.225,476.3 " fill="none" id="AdicionarScooterController-to-FarmaciaBD" style="stroke:#A80036;stroke-width:1.25;stroke-dasharray:7.0,7.0;"/><polygon fill="#A80036" points="741.3375,478.6875,732.6931,469.9218,735.5199,476.4033,729.0384,479.23,741.3375,478.6875" style="stroke:#A80036;stroke-width:1.25;"/><!--MD5=[c3b41e304b49b221d9d160c23df5894b]
link AdicionarScooterController to ScooterBD--><path codeLine="79" d="M492.825,412.5125 C542.4625,466.95 630.125,556.0375 720,613.75 C730.025,620.1875 740.75,626.2375 751.75,631.875 " fill="none" id="AdicionarScooterController-to-ScooterBD" style="stroke:#A80036;stroke-width:1.25;stroke-dasharray:7.0,7.0;"/><polygon fill="#A80036" points="757.8875,634.9625,750.0977,625.4293,752.3081,632.146,745.5914,634.3564,757.8875,634.9625" style="stroke:#A80036;stroke-width:1.25;"/><!--MD5=[afe918613218ef4768ce1eca96729259]
link AdicionarScooterController to SessaoUtilizador--><path codeLine="81" d="M576.5875,317.4375 C621.75,300.3875 673.125,281.1 720,263.75 C746.3375,254 775.075,243.5 801.0875,234.05 " fill="none" id="AdicionarScooterController-to-SessaoUtilizador" style="stroke:#A80036;stroke-width:1.25;stroke-dasharray:7.0,7.0;"/><polygon fill="#A80036" points="807.2875,231.8,795.0076,230.9246,801.4101,233.9259,798.4089,240.3284,807.2875,231.8" style="stroke:#A80036;stroke-width:1.25;"/><!--MD5=[0b304994c1b195d58ff32f89b2eb80d4]
link AdicionarScooterController to Farmacia--><path codeLine="82" d="M644.025,343.3375 C710.5,335.8625 780.0375,328.05 827.225,322.7375 " fill="none" id="AdicionarScooterController-to-Farmacia" style="stroke:#A80036;stroke-width:1.25;stroke-dasharray:7.0,7.0;"/><polygon fill="#A80036" points="833.45,322.05,821.7131,318.334,827.2389,322.7461,822.8268,328.2718,833.45,322.05" style="stroke:#A80036;stroke-width:1.25;"/><!--MD5=[be686258fa335e3acd9fcbd05e318595]
link AdicionarScooterController to LugarEstacionamento--><path codeLine="84" d="M644.0625,375.925 C806.55,385.1375 1033.85,398.0125 1170.8125,405.775 " fill="none" id="AdicionarScooterController-to-LugarEstacionamento" style="stroke:#A80036;stroke-width:1.25;stroke-dasharray:7.0,7.0;"/><polygon fill="#A80036" points="1177.2625,406.15,1166.317,400.5145,1171.0227,405.7924,1165.7449,410.4982,1177.2625,406.15" style="stroke:#A80036;stroke-width:1.25;"/><!--MD5=[dbd15f50e17d92579182b6d34e88172b]
link FarmaciaBD to BaseDados--><path codeLine="86" d="M1043.45,542.7625 C1101.5125,545.65 1164.8625,548.8 1212.725,551.1875 " fill="none" id="FarmaciaBD-to-BaseDados" style="stroke:#A80036;stroke-width:1.25;stroke-dasharray:7.0,7.0;"/><polygon fill="#A80036" points="1219.075,551.5,1208.0967,545.9288,1212.8332,551.179,1207.583,555.9156,1219.075,551.5" style="stroke:#A80036;stroke-width:1.25;"/><!--MD5=[ef60af5d8bc7d35de774819867592e8d]
link ScooterBD to BaseDados--><path codeLine="87" d="M1037.7125,634.8375 C1097.2375,615.9625 1163.125,595.05 1212.55,579.375 " fill="none" id="ScooterBD-to-BaseDados" style="stroke:#A80036;stroke-width:1.25;stroke-dasharray:7.0,7.0;"/><polygon fill="#A80036" points="1219.1,577.3,1206.8683,575.904,1213.1377,579.1744,1209.8673,585.4437,1219.1,577.3" style="stroke:#A80036;stroke-width:1.25;"/><!--MD5=[1bc7e5c4ae11c33da11be79588f40659]
link ScooterBD to Scooter--><path codeLine="88" d="M1052.8,673.9 C1190.775,666.725 1386.175,656.5625 1522.2,649.4875 " fill="none" id="ScooterBD-to-Scooter" style="stroke:#A80036;stroke-width:1.25;stroke-dasharray:7.0,7.0;"/><polygon fill="#A80036" points="1528.625,649.15,1517.1324,644.7361,1522.3833,649.4719,1517.6475,654.7228,1528.625,649.15" style="stroke:#A80036;stroke-width:1.25;"/><!--MD5=[fa254511cce8868d0632247b096e8d4e]
@startuml
left to right direction

class AdicionarScooterUI{
}

class AdicionarScooterController{
+Scooter novaScooter(int carga, double capacidadeBateria)
+update(lugar,scooter)
}

class AplicacaoPOT{
+getInstance()
+getPlataforma()
+getSessaoAtual()
}

class SessaoUtilizador{
+getEmailUtilizador()
}


class Farmacia{

}

class LugarEstacionamento{
+setScooter(Scooter setScooter)
+verificaDisponibilidade()
}

class Scooter{
-int id
-BufferedImage qrCode
-int carga
-double capacidadeBateria
+Scooter(int carga, double capacidadeBateria)
}
class QRCode{
-String CHARSET
-Map hintMap
+BufferedImage createQRCode(String data)
+BufferedImage createQRCode(String qrCodeData,String charset, Map hintMap, int qrCodeheight, int qrCodewidth)

}


class FarmaciaBD{
+Farmacia getFarmaciabyGestor(String email)
+updateLugar(lugar)
+getLugarEstacionamentobyFarm(String farmID)
}

class BaseDados{
+getConnection()
+closeConnection()
}



class ScooterBD{
+novaScooter(int carga,double capacidadeBateria)
+updateScooter(Scooter scooter)

}

AdicionarScooterUI..> AdicionarScooterController

Farmacia "1" - -> "1" LugarEstacionamento: possui
LugarEstacionamento "1" - -> "1" Scooter : possui
Scooter  ..>  QRCode





AdicionarScooterController ..> AplicacaoPOT

AdicionarScooterController ..> FarmaciaBD
AdicionarScooterController ..> ScooterBD

AdicionarScooterController ..> SessaoUtilizador
AdicionarScooterController ..> Farmacia

AdicionarScooterController ..> LugarEstacionamento

FarmaciaBD ..> BaseDados
ScooterBD ..> BaseDados
ScooterBD ..> Scooter
@enduml

PlantUML version 1.2020.23(Sun Dec 13 19:14:58 GMT 2020)
(GPL source distribution)
Java Runtime: OpenJDK Runtime Environment
JVM: OpenJDK 64-Bit Server VM
Default Encoding: Cp1252
Language: pt
Country: PT
--></g></svg>