<?xml version="1.0" encoding="UTF-8" standalone="no"?><svg xmlns="http://www.w3.org/2000/svg" xmlns:xlink="http://www.w3.org/1999/xlink" contentScriptType="application/ecmascript" contentStyleType="text/css" height="638px" preserveAspectRatio="none" style="width:2066px;height:638px;" version="1.1" viewBox="0 0 2066 638" width="2066px" zoomAndPan="magnify"><defs><filter height="300%" id="ff07byrhtfyir" width="300%" x="-1" y="-1"><feGaussianBlur result="blurOut" stdDeviation="2.0"/><feColorMatrix in="blurOut" result="blurOut2" type="matrix" values="0 0 0 0 0 0 0 0 0 0 0 0 0 0 0 0 0 0 .4 0"/><feOffset dx="4.0" dy="4.0" in="blurOut2" result="blurOut3"/><feBlend in="SourceGraphic" in2="blurOut3" mode="normal"/></filter></defs><g><!--MD5=[1dfbd78b751aebf6f76c8cb847646ff7]
class AdicionarFarmaciaController--><rect codeLine="5" fill="#FEFECE" filter="url(#ff07byrhtfyir)" height="131.0156" id="AdicionarFarmaciaController" style="stroke:#A80036;stroke-width:1.5;" width="740" x="214" y="257"/><ellipse cx="501.25" cy="273" fill="#ADD1B2" rx="11" ry="11" style="stroke:#A80036;stroke-width:1.0;"/><path d="M503.25,269.5 Q503.4531,269 503.6875,268.75 Q503.9219,268.5 504.1875,268.5 Q504.6563,268.5 504.9531,268.7813 Q505.25,269.0625 505.25,269.7188 L505.25,271.2813 Q505.25,271.9375 504.9688,272.2188 Q504.6875,272.5 504.25,272.5 Q503.8594,272.5 503.6094,272.3281 Q503.3594,272.1563 503.25,271.7031 Q503.2031,271.3906 503.0313,271.2188 Q502.7188,270.8906 502.1563,270.7031 Q501.5938,270.5 501.0313,270.5 Q500.3281,270.5 499.7344,270.7813 Q499.1563,271.0625 498.7031,271.6875 Q498.25,272.3125 498.25,273.1719 L498.25,274.0938 Q498.25,275.125 499.0938,275.8125 Q499.9375,276.5 501.4375,276.5 Q502.3281,276.5 502.9531,276.2969 Q503.3125,276.1875 503.7188,275.8281 Q503.9844,275.625 504.125,275.5625 Q504.2656,275.5 504.4375,275.5 Q504.7656,275.5 505,275.7656 Q505.25,276.0156 505.25,276.375 Q505.25,276.7188 504.9063,277.125 Q504.4063,277.7188 503.6094,278.0469 Q502.5625,278.5 501.2813,278.5 Q499.7813,278.5 498.5781,277.9063 Q497.6094,277.4375 496.9219,276.4219 Q496.25,275.4063 496.25,274.2031 L496.25,273.1094 Q496.25,271.8594 496.8438,270.7656 Q497.4531,269.6719 498.5,269.0938 Q499.5625,268.5 500.75,268.5 Q501.4688,268.5 502.0938,268.75 Q502.7188,269 503.25,269.5 Z " fill="#000000"/><text fill="#000000" font-family="sans-serif" font-size="12" lengthAdjust="spacingAndGlyphs" textLength="157" x="521.75" y="277.9102">AdicionarFarmaciaController</text><line style="stroke:#A80036;stroke-width:1.5;" x1="215" x2="953" y1="289" y2="289"/><line style="stroke:#A80036;stroke-width:1.5;" x1="215" x2="953" y1="297" y2="297"/><text fill="#000000" font-family="sans-serif" font-size="11" lengthAdjust="spacingAndGlyphs" textLength="289" x="220" y="312.4189">+AdicionarFarmaciaController AdicionarFarmaciaController()</text><text fill="#000000" font-family="sans-serif" font-size="11" lengthAdjust="spacingAndGlyphs" textLength="214" x="220" y="326.2549">+validaFarmacia(nome, NIF, telemovel, email)</text><text fill="#000000" font-family="sans-serif" font-size="11" lengthAdjust="spacingAndGlyphs" textLength="449" x="220" y="340.0908">+validaLugaresEstacionamento(lugaresComSuporte, lugaresSemSuporte,capacidadeEnergia)</text><text fill="#000000" font-family="sans-serif" font-size="11" lengthAdjust="spacingAndGlyphs" textLength="272" x="220" y="353.9268">+validaGestorFarmacia(nome, email, nif, telemóvel, pwd)</text><text fill="#000000" font-family="sans-serif" font-size="11" lengthAdjust="spacingAndGlyphs" textLength="728" x="220" y="367.7627">+validaMoradas(moradaFarmacia, longitudeFarmacia, latitudeFarmacia, altitudeFarmacia, moradaGestor, longitudeGestor, latitudeGestor, altitudeGestor)</text><text fill="#000000" font-family="sans-serif" font-size="11" lengthAdjust="spacingAndGlyphs" textLength="63" x="220" y="381.5986">+addDados()</text><!--MD5=[4e7b45769a84b3d0226cc85909822fca]
class AdicionarFarmaciaUI--><rect codeLine="14" fill="#FEFECE" filter="url(#ff07byrhtfyir)" height="48" id="AdicionarFarmaciaUI" style="stroke:#A80036;stroke-width:1.5;" width="147" x="7" y="298.5"/><ellipse cx="22" cy="314.5" fill="#ADD1B2" rx="11" ry="11" style="stroke:#A80036;stroke-width:1.0;"/><path d="M24,311 Q24.2031,310.5 24.4375,310.25 Q24.6719,310 24.9375,310 Q25.4063,310 25.7031,310.2813 Q26,310.5625 26,311.2188 L26,312.7813 Q26,313.4375 25.7188,313.7188 Q25.4375,314 25,314 Q24.6094,314 24.3594,313.8281 Q24.1094,313.6563 24,313.2031 Q23.9531,312.8906 23.7813,312.7188 Q23.4688,312.3906 22.9063,312.2031 Q22.3438,312 21.7813,312 Q21.0781,312 20.4844,312.2813 Q19.9063,312.5625 19.4531,313.1875 Q19,313.8125 19,314.6719 L19,315.5938 Q19,316.625 19.8438,317.3125 Q20.6875,318 22.1875,318 Q23.0781,318 23.7031,317.7969 Q24.0625,317.6875 24.4688,317.3281 Q24.7344,317.125 24.875,317.0625 Q25.0156,317 25.1875,317 Q25.5156,317 25.75,317.2656 Q26,317.5156 26,317.875 Q26,318.2188 25.6563,318.625 Q25.1563,319.2188 24.3594,319.5469 Q23.3125,320 22.0313,320 Q20.5313,320 19.3281,319.4063 Q18.3594,318.9375 17.6719,317.9219 Q17,316.9063 17,315.7031 L17,314.6094 Q17,313.3594 17.5938,312.2656 Q18.2031,311.1719 19.25,310.5938 Q20.3125,310 21.5,310 Q22.2188,310 22.8438,310.25 Q23.4688,310.5 24,311 Z " fill="#000000"/><text fill="#000000" font-family="sans-serif" font-size="12" lengthAdjust="spacingAndGlyphs" textLength="115" x="36" y="319.4102">AdicionarFarmaciaUI</text><line style="stroke:#A80036;stroke-width:1.5;" x1="8" x2="153" y1="330.5" y2="330.5"/><line style="stroke:#A80036;stroke-width:1.5;" x1="8" x2="153" y1="338.5" y2="338.5"/><!--MD5=[9c5439856a1aad23e042de9a355b14cb]
class BaseDados--><rect codeLine="16" fill="#FEFECE" filter="url(#ff07byrhtfyir)" height="75.6719" id="BaseDados" style="stroke:#A80036;stroke-width:1.5;" width="106" x="1946" y="225.5"/><ellipse cx="1964.6" cy="241.5" fill="#ADD1B2" rx="11" ry="11" style="stroke:#A80036;stroke-width:1.0;"/><path d="M1966.6,238 Q1966.8031,237.5 1967.0375,237.25 Q1967.2719,237 1967.5375,237 Q1968.0063,237 1968.3031,237.2813 Q1968.6,237.5625 1968.6,238.2188 L1968.6,239.7813 Q1968.6,240.4375 1968.3188,240.7188 Q1968.0375,241 1967.6,241 Q1967.2094,241 1966.9594,240.8281 Q1966.7094,240.6563 1966.6,240.2031 Q1966.5531,239.8906 1966.3813,239.7188 Q1966.0688,239.3906 1965.5063,239.2031 Q1964.9438,239 1964.3813,239 Q1963.6781,239 1963.0844,239.2813 Q1962.5063,239.5625 1962.0531,240.1875 Q1961.6,240.8125 1961.6,241.6719 L1961.6,242.5938 Q1961.6,243.625 1962.4438,244.3125 Q1963.2875,245 1964.7875,245 Q1965.6781,245 1966.3031,244.7969 Q1966.6625,244.6875 1967.0688,244.3281 Q1967.3344,244.125 1967.475,244.0625 Q1967.6156,244 1967.7875,244 Q1968.1156,244 1968.35,244.2656 Q1968.6,244.5156 1968.6,244.875 Q1968.6,245.2188 1968.2563,245.625 Q1967.7563,246.2188 1966.9594,246.5469 Q1965.9125,247 1964.6313,247 Q1963.1313,247 1961.9281,246.4063 Q1960.9594,245.9375 1960.2719,244.9219 Q1959.6,243.9063 1959.6,242.7031 L1959.6,241.6094 Q1959.6,240.3594 1960.1938,239.2656 Q1960.8031,238.1719 1961.85,237.5938 Q1962.9125,237 1964.1,237 Q1964.8188,237 1965.4438,237.25 Q1966.0688,237.5 1966.6,238 Z " fill="#000000"/><text fill="#000000" font-family="sans-serif" font-size="12" lengthAdjust="spacingAndGlyphs" textLength="66" x="1979.4" y="246.4102">BaseDados</text><line style="stroke:#A80036;stroke-width:1.5;" x1="1947" x2="2051" y1="257.5" y2="257.5"/><line style="stroke:#A80036;stroke-width:1.5;" x1="1947" x2="2051" y1="265.5" y2="265.5"/><text fill="#000000" font-family="sans-serif" font-size="11" lengthAdjust="spacingAndGlyphs" textLength="83" x="1952" y="280.9189">+getConnection()</text><text fill="#000000" font-family="sans-serif" font-size="11" lengthAdjust="spacingAndGlyphs" textLength="94" x="1952" y="294.7549">+closeConnection()</text><!--MD5=[3707309d909513970d98cd7082f3ca19]
class FarmaciaBD--><rect codeLine="21" fill="#FEFECE" filter="url(#ff07byrhtfyir)" height="117.1797" id="FarmaciaBD" style="stroke:#A80036;stroke-width:1.5;" width="822" x="1039" y="7"/><ellipse cx="1411.25" cy="23" fill="#ADD1B2" rx="11" ry="11" style="stroke:#A80036;stroke-width:1.0;"/><path d="M1413.25,19.5 Q1413.4531,19 1413.6875,18.75 Q1413.9219,18.5 1414.1875,18.5 Q1414.6563,18.5 1414.9531,18.7813 Q1415.25,19.0625 1415.25,19.7188 L1415.25,21.2813 Q1415.25,21.9375 1414.9688,22.2188 Q1414.6875,22.5 1414.25,22.5 Q1413.8594,22.5 1413.6094,22.3281 Q1413.3594,22.1563 1413.25,21.7031 Q1413.2031,21.3906 1413.0313,21.2188 Q1412.7188,20.8906 1412.1563,20.7031 Q1411.5938,20.5 1411.0313,20.5 Q1410.3281,20.5 1409.7344,20.7813 Q1409.1563,21.0625 1408.7031,21.6875 Q1408.25,22.3125 1408.25,23.1719 L1408.25,24.0938 Q1408.25,25.125 1409.0938,25.8125 Q1409.9375,26.5 1411.4375,26.5 Q1412.3281,26.5 1412.9531,26.2969 Q1413.3125,26.1875 1413.7188,25.8281 Q1413.9844,25.625 1414.125,25.5625 Q1414.2656,25.5 1414.4375,25.5 Q1414.7656,25.5 1415,25.7656 Q1415.25,26.0156 1415.25,26.375 Q1415.25,26.7188 1414.9063,27.125 Q1414.4063,27.7188 1413.6094,28.0469 Q1412.5625,28.5 1411.2813,28.5 Q1409.7813,28.5 1408.5781,27.9063 Q1407.6094,27.4375 1406.9219,26.4219 Q1406.25,25.4063 1406.25,24.2031 L1406.25,23.1094 Q1406.25,21.8594 1406.8438,20.7656 Q1407.4531,19.6719 1408.5,19.0938 Q1409.5625,18.5 1410.75,18.5 Q1411.4688,18.5 1412.0938,18.75 Q1412.7188,19 1413.25,19.5 Z " fill="#000000"/><text fill="#000000" font-family="sans-serif" font-size="12" lengthAdjust="spacingAndGlyphs" textLength="69" x="1431.75" y="27.9102">FarmaciaBD</text><line style="stroke:#A80036;stroke-width:1.5;" x1="1040" x2="1860" y1="39" y2="39"/><line style="stroke:#A80036;stroke-width:1.5;" x1="1040" x2="1860" y1="47" y2="47"/><text fill="#000000" font-family="sans-serif" font-size="11" lengthAdjust="spacingAndGlyphs" textLength="133" x="1045" y="62.4189">+FarmaciaBD FarmaciaBD()</text><text fill="#000000" font-family="sans-serif" font-size="11" lengthAdjust="spacingAndGlyphs" textLength="128" x="1045" y="76.2549">+validaFarmacia(email, nif)</text><text fill="#000000" font-family="sans-serif" font-size="11" lengthAdjust="spacingAndGlyphs" textLength="810" x="1045" y="90.0908">+int  novaFarmacia(nomeFarmacia, emailFarmacia, telemovelFarmacia, nifFarmacia, moradaFarmacia, latitudeFarmacia, longitudeFarmacia, altitudeFarmacia, emailGestor)</text><text fill="#000000" font-family="sans-serif" font-size="11" lengthAdjust="spacingAndGlyphs" textLength="458" x="1045" y="103.9268">+setLugaresScooter(farmaciaID, lugaresSemSuporte, lugaresComSuporte, capacidadeEnergia)</text><text fill="#000000" font-family="sans-serif" font-size="11" lengthAdjust="spacingAndGlyphs" textLength="146" x="1045" y="117.7627">+associaProdutos(farmaciaID)</text><!--MD5=[04e2a7f784227aa289ae7f61d672b6a6]
class GestorFarmaciaBD--><rect codeLine="29" fill="#FEFECE" filter="url(#ff07byrhtfyir)" height="89.5078" id="GestorFarmaciaBD" style="stroke:#A80036;stroke-width:1.5;" width="211" x="1344.5" y="159.5"/><ellipse cx="1392.75" cy="175.5" fill="#ADD1B2" rx="11" ry="11" style="stroke:#A80036;stroke-width:1.0;"/><path d="M1394.75,172 Q1394.9531,171.5 1395.1875,171.25 Q1395.4219,171 1395.6875,171 Q1396.1563,171 1396.4531,171.2813 Q1396.75,171.5625 1396.75,172.2188 L1396.75,173.7813 Q1396.75,174.4375 1396.4688,174.7188 Q1396.1875,175 1395.75,175 Q1395.3594,175 1395.1094,174.8281 Q1394.8594,174.6563 1394.75,174.2031 Q1394.7031,173.8906 1394.5313,173.7188 Q1394.2188,173.3906 1393.6563,173.2031 Q1393.0938,173 1392.5313,173 Q1391.8281,173 1391.2344,173.2813 Q1390.6563,173.5625 1390.2031,174.1875 Q1389.75,174.8125 1389.75,175.6719 L1389.75,176.5938 Q1389.75,177.625 1390.5938,178.3125 Q1391.4375,179 1392.9375,179 Q1393.8281,179 1394.4531,178.7969 Q1394.8125,178.6875 1395.2188,178.3281 Q1395.4844,178.125 1395.625,178.0625 Q1395.7656,178 1395.9375,178 Q1396.2656,178 1396.5,178.2656 Q1396.75,178.5156 1396.75,178.875 Q1396.75,179.2188 1396.4063,179.625 Q1395.9063,180.2188 1395.1094,180.5469 Q1394.0625,181 1392.7813,181 Q1391.2813,181 1390.0781,180.4063 Q1389.1094,179.9375 1388.4219,178.9219 Q1387.75,177.9063 1387.75,176.7031 L1387.75,175.6094 Q1387.75,174.3594 1388.3438,173.2656 Q1388.9531,172.1719 1390,171.5938 Q1391.0625,171 1392.25,171 Q1392.9688,171 1393.5938,171.25 Q1394.2188,171.5 1394.75,172 Z " fill="#000000"/><text fill="#000000" font-family="sans-serif" font-size="12" lengthAdjust="spacingAndGlyphs" textLength="106" x="1413.25" y="180.4102">GestorFarmaciaBD</text><line style="stroke:#A80036;stroke-width:1.5;" x1="1345.5" x2="1554.5" y1="191.5" y2="191.5"/><line style="stroke:#A80036;stroke-width:1.5;" x1="1345.5" x2="1554.5" y1="199.5" y2="199.5"/><text fill="#000000" font-family="sans-serif" font-size="11" lengthAdjust="spacingAndGlyphs" textLength="199" x="1350.5" y="214.9189">+GestorFarmaciaBD GestorFarmaciaBD()</text><text fill="#000000" font-family="sans-serif" font-size="11" lengthAdjust="spacingAndGlyphs" textLength="161" x="1350.5" y="228.7549">+validaGestorFarmacia(email, nif)</text><text fill="#000000" font-family="sans-serif" font-size="11" lengthAdjust="spacingAndGlyphs" textLength="172" x="1350.5" y="242.5908">+novoGestorFarmacia(emailGestor)</text><!--MD5=[83659c1d971c44d5fdc9a8baa7126871]
class UtilizadorBD--><rect codeLine="35" fill="#FEFECE" filter="url(#ff07byrhtfyir)" height="75.6719" id="UtilizadorBD" style="stroke:#A80036;stroke-width:1.5;" width="872" x="1014" y="284.5"/><ellipse cx="1411.75" cy="300.5" fill="#ADD1B2" rx="11" ry="11" style="stroke:#A80036;stroke-width:1.0;"/><path d="M1413.75,297 Q1413.9531,296.5 1414.1875,296.25 Q1414.4219,296 1414.6875,296 Q1415.1563,296 1415.4531,296.2813 Q1415.75,296.5625 1415.75,297.2188 L1415.75,298.7813 Q1415.75,299.4375 1415.4688,299.7188 Q1415.1875,300 1414.75,300 Q1414.3594,300 1414.1094,299.8281 Q1413.8594,299.6563 1413.75,299.2031 Q1413.7031,298.8906 1413.5313,298.7188 Q1413.2188,298.3906 1412.6563,298.2031 Q1412.0938,298 1411.5313,298 Q1410.8281,298 1410.2344,298.2813 Q1409.6563,298.5625 1409.2031,299.1875 Q1408.75,299.8125 1408.75,300.6719 L1408.75,301.5938 Q1408.75,302.625 1409.5938,303.3125 Q1410.4375,304 1411.9375,304 Q1412.8281,304 1413.4531,303.7969 Q1413.8125,303.6875 1414.2188,303.3281 Q1414.4844,303.125 1414.625,303.0625 Q1414.7656,303 1414.9375,303 Q1415.2656,303 1415.5,303.2656 Q1415.75,303.5156 1415.75,303.875 Q1415.75,304.2188 1415.4063,304.625 Q1414.9063,305.2188 1414.1094,305.5469 Q1413.0625,306 1411.7813,306 Q1410.2813,306 1409.0781,305.4063 Q1408.1094,304.9375 1407.4219,303.9219 Q1406.75,302.9063 1406.75,301.7031 L1406.75,300.6094 Q1406.75,299.3594 1407.3438,298.2656 Q1407.9531,297.1719 1409,296.5938 Q1410.0625,296 1411.25,296 Q1411.9688,296 1412.5938,296.25 Q1413.2188,296.5 1413.75,297 Z " fill="#000000"/><text fill="#000000" font-family="sans-serif" font-size="12" lengthAdjust="spacingAndGlyphs" textLength="68" x="1432.25" y="305.4102">UtilizadorBD</text><line style="stroke:#A80036;stroke-width:1.5;" x1="1015" x2="1885" y1="316.5" y2="316.5"/><line style="stroke:#A80036;stroke-width:1.5;" x1="1015" x2="1885" y1="324.5" y2="324.5"/><text fill="#000000" font-family="sans-serif" font-size="11" lengthAdjust="spacingAndGlyphs" textLength="133" x="1020" y="339.9189">+UtilizadorBD UtilizadorBD()</text><text fill="#000000" font-family="sans-serif" font-size="11" lengthAdjust="spacingAndGlyphs" textLength="860" x="1020" y="353.7549">+novoUtilizador(nomeGestor, emailGestor, telemovelGestor, nifGestor, pwd, PAPEL_GESTOR_FARMACIA, moradaGestorFarmacia, longitudeGestor, latitudeGestor, altitudeGestor)</text><!--MD5=[d703aab580f67225500cb57f8b850b8c]
class MoradaBD--><rect codeLine="40" fill="#FEFECE" filter="url(#ff07byrhtfyir)" height="89.5078" id="MoradaBD" style="stroke:#A80036;stroke-width:1.5;" width="475" x="1212.5" y="395.5"/><ellipse cx="1416.75" cy="411.5" fill="#ADD1B2" rx="11" ry="11" style="stroke:#A80036;stroke-width:1.0;"/><path d="M1418.75,408 Q1418.9531,407.5 1419.1875,407.25 Q1419.4219,407 1419.6875,407 Q1420.1563,407 1420.4531,407.2813 Q1420.75,407.5625 1420.75,408.2188 L1420.75,409.7813 Q1420.75,410.4375 1420.4688,410.7188 Q1420.1875,411 1419.75,411 Q1419.3594,411 1419.1094,410.8281 Q1418.8594,410.6563 1418.75,410.2031 Q1418.7031,409.8906 1418.5313,409.7188 Q1418.2188,409.3906 1417.6563,409.2031 Q1417.0938,409 1416.5313,409 Q1415.8281,409 1415.2344,409.2813 Q1414.6563,409.5625 1414.2031,410.1875 Q1413.75,410.8125 1413.75,411.6719 L1413.75,412.5938 Q1413.75,413.625 1414.5938,414.3125 Q1415.4375,415 1416.9375,415 Q1417.8281,415 1418.4531,414.7969 Q1418.8125,414.6875 1419.2188,414.3281 Q1419.4844,414.125 1419.625,414.0625 Q1419.7656,414 1419.9375,414 Q1420.2656,414 1420.5,414.2656 Q1420.75,414.5156 1420.75,414.875 Q1420.75,415.2188 1420.4063,415.625 Q1419.9063,416.2188 1419.1094,416.5469 Q1418.0625,417 1416.7813,417 Q1415.2813,417 1414.0781,416.4063 Q1413.1094,415.9375 1412.4219,414.9219 Q1411.75,413.9063 1411.75,412.7031 L1411.75,411.6094 Q1411.75,410.3594 1412.3438,409.2656 Q1412.9531,408.1719 1414,407.5938 Q1415.0625,407 1416.25,407 Q1416.9688,407 1417.5938,407.25 Q1418.2188,407.5 1418.75,408 Z " fill="#000000"/><text fill="#000000" font-family="sans-serif" font-size="12" lengthAdjust="spacingAndGlyphs" textLength="58" x="1437.25" y="416.4102">MoradaBD</text><line style="stroke:#A80036;stroke-width:1.5;" x1="1213.5" x2="1686.5" y1="427.5" y2="427.5"/><line style="stroke:#A80036;stroke-width:1.5;" x1="1213.5" x2="1686.5" y1="435.5" y2="435.5"/><text fill="#000000" font-family="sans-serif" font-size="11" lengthAdjust="spacingAndGlyphs" textLength="117" x="1218.5" y="450.9189">+MoradaBD MoradaBD()</text><text fill="#000000" font-family="sans-serif" font-size="11" lengthAdjust="spacingAndGlyphs" textLength="419" x="1218.5" y="464.7549">+validaMorada(moradaFarmacia, longitudeFarmacia, latitudeFarmacia, altitudeFarmacia)</text><text fill="#000000" font-family="sans-serif" font-size="11" lengthAdjust="spacingAndGlyphs" textLength="463" x="1218.5" y="478.5908">+validaMoradaFarmacia(moradaFarmacia, latitudeFarmacia, longitudeFarmacia, altitudeFarmacia)</text><!--MD5=[e162095117491b3de9c15e382440df89]
class ValidarParametros--><rect codeLine="46" fill="#FEFECE" filter="url(#ff07byrhtfyir)" height="103.3438" id="ValidarParametros" style="stroke:#A80036;stroke-width:1.5;" width="421" x="1239.5" y="521"/><ellipse cx="1394.25" cy="537" fill="#ADD1B2" rx="11" ry="11" style="stroke:#A80036;stroke-width:1.0;"/><path d="M1396.25,533.5 Q1396.4531,533 1396.6875,532.75 Q1396.9219,532.5 1397.1875,532.5 Q1397.6563,532.5 1397.9531,532.7813 Q1398.25,533.0625 1398.25,533.7188 L1398.25,535.2813 Q1398.25,535.9375 1397.9688,536.2188 Q1397.6875,536.5 1397.25,536.5 Q1396.8594,536.5 1396.6094,536.3281 Q1396.3594,536.1563 1396.25,535.7031 Q1396.2031,535.3906 1396.0313,535.2188 Q1395.7188,534.8906 1395.1563,534.7031 Q1394.5938,534.5 1394.0313,534.5 Q1393.3281,534.5 1392.7344,534.7813 Q1392.1563,535.0625 1391.7031,535.6875 Q1391.25,536.3125 1391.25,537.1719 L1391.25,538.0938 Q1391.25,539.125 1392.0938,539.8125 Q1392.9375,540.5 1394.4375,540.5 Q1395.3281,540.5 1395.9531,540.2969 Q1396.3125,540.1875 1396.7188,539.8281 Q1396.9844,539.625 1397.125,539.5625 Q1397.2656,539.5 1397.4375,539.5 Q1397.7656,539.5 1398,539.7656 Q1398.25,540.0156 1398.25,540.375 Q1398.25,540.7188 1397.9063,541.125 Q1397.4063,541.7188 1396.6094,542.0469 Q1395.5625,542.5 1394.2813,542.5 Q1392.7813,542.5 1391.5781,541.9063 Q1390.6094,541.4375 1389.9219,540.4219 Q1389.25,539.4063 1389.25,538.2031 L1389.25,537.1094 Q1389.25,535.8594 1389.8438,534.7656 Q1390.4531,533.6719 1391.5,533.0938 Q1392.5625,532.5 1393.75,532.5 Q1394.4688,532.5 1395.0938,532.75 Q1395.7188,533 1396.25,533.5 Z " fill="#000000"/><text fill="#000000" font-family="sans-serif" font-size="12" lengthAdjust="spacingAndGlyphs" textLength="103" x="1414.75" y="541.9102">ValidarParametros</text><line style="stroke:#A80036;stroke-width:1.5;" x1="1240.5" x2="1659.5" y1="553" y2="553"/><line style="stroke:#A80036;stroke-width:1.5;" x1="1240.5" x2="1659.5" y1="561" y2="561"/><text fill="#000000" font-family="sans-serif" font-size="11" lengthAdjust="spacingAndGlyphs" textLength="269" x="1245.5" y="576.4189">+validaParametrosFarmacia(nome, NIF, telemovel, email)</text><text fill="#000000" font-family="sans-serif" font-size="11" lengthAdjust="spacingAndGlyphs" textLength="409" x="1245.5" y="590.2549">+validaParametrosLugaresEstacionamento(lugaresSemSuporte, lugaresComSuporte)</text><text fill="#000000" font-family="sans-serif" font-size="11" lengthAdjust="spacingAndGlyphs" textLength="294" x="1245.5" y="604.0908">+validaParametrosUtilizador(email, pwd, nome, nif, telemovel)</text><text fill="#000000" font-family="sans-serif" font-size="11" lengthAdjust="spacingAndGlyphs" textLength="390" x="1245.5" y="617.9268">+validaParametrosMorada(moradaFarmacia, longitudeFarmacia, latitudeFarmacia)</text><!--MD5=[00400ccd682e5b169663a5a0322f68a6]
link AdicionarFarmaciaUI to AdicionarFarmaciaController--><path codeLine="53" d="M154.15,322.5 C170.55,322.5 189.04,322.5 208.9,322.5 " fill="none" id="AdicionarFarmaciaUI-to-AdicionarFarmaciaController" style="stroke:#A80036;stroke-width:1.0;stroke-dasharray:7.0,7.0;"/><polygon fill="#A80036" points="213.98,322.5,204.98,318.5,208.98,322.5,204.98,326.5,213.98,322.5" style="stroke:#A80036;stroke-width:1.0;"/><!--MD5=[308bf07b1a9b843a99a6ec0efad7dabc]
link AdicionarFarmaciaController to FarmaciaBD--><path codeLine="55" d="M718.35,257 C801.61,218.44 912.02,171.5 1014,141.5 C1033.66,135.72 1053.96,130.31 1074.55,125.27 " fill="none" id="AdicionarFarmaciaController-to-FarmaciaBD" style="stroke:#A80036;stroke-width:1.0;stroke-dasharray:7.0,7.0;"/><polygon fill="#A80036" points="1079.5,124.06,1069.8081,122.3085,1074.6426,125.2458,1071.7054,130.0803,1079.5,124.06" style="stroke:#A80036;stroke-width:1.0;"/><!--MD5=[a339691a3ce2f342c549bb1bc1504a6d]
link AdicionarFarmaciaController to GestorFarmaciaBD--><path codeLine="56" d="M954.23,272.07 C1093.42,253.06 1241.49,232.84 1338.97,219.53 " fill="none" id="AdicionarFarmaciaController-to-GestorFarmaciaBD" style="stroke:#A80036;stroke-width:1.0;stroke-dasharray:7.0,7.0;"/><polygon fill="#A80036" points="1344.16,218.82,1334.7046,216.0642,1339.2052,219.4911,1335.7783,223.9918,1344.16,218.82" style="stroke:#A80036;stroke-width:1.0;"/><!--MD5=[8dc576172106b8c0d6f20cad4138d98d]
link AdicionarFarmaciaController to UtilizadorBD--><path codeLine="57" d="M954.23,322.5 C972.25,322.5 990.42,322.5 1008.61,322.5 " fill="none" id="AdicionarFarmaciaController-to-UtilizadorBD" style="stroke:#A80036;stroke-width:1.0;stroke-dasharray:7.0,7.0;"/><polygon fill="#A80036" points="1013.75,322.5,1004.75,318.5,1008.75,322.5,1004.75,326.5,1013.75,322.5" style="stroke:#A80036;stroke-width:1.0;"/><!--MD5=[3ad96fc519964cece333fd31455faf55]
link AdicionarFarmaciaController to ValidarParametros--><path codeLine="58" d="M717.23,388.13 C800.55,426.98 911.4,474.19 1014,503.5 C1084.54,523.65 1163.31,538.39 1234.23,548.95 " fill="none" id="AdicionarFarmaciaController-to-ValidarParametros" style="stroke:#A80036;stroke-width:1.0;stroke-dasharray:7.0,7.0;"/><polygon fill="#A80036" points="1239.33,549.7,1231.0244,544.4068,1234.3855,548.9569,1229.8355,552.318,1239.33,549.7" style="stroke:#A80036;stroke-width:1.0;"/><!--MD5=[928c0eb047fe21c14633dd8091b2f8e4]
link AdicionarFarmaciaController to MoradaBD--><path codeLine="59" d="M954.23,372.93 C1039.81,384.62 1128.75,396.76 1207.22,407.48 " fill="none" id="AdicionarFarmaciaController-to-MoradaBD" style="stroke:#A80036;stroke-width:1.0;stroke-dasharray:7.0,7.0;"/><polygon fill="#A80036" points="1212.38,408.18,1203.9983,403.0082,1207.4252,407.5089,1202.9246,410.9358,1212.38,408.18" style="stroke:#A80036;stroke-width:1.0;"/><!--MD5=[dbd15f50e17d92579182b6d34e88172b]
link FarmaciaBD to BaseDados--><path codeLine="61" d="M1850.33,124.07 C1862.56,129.4 1874.48,135.2 1886,141.5 C1920.48,160.36 1950.07,193.86 1970.16,220.99 " fill="none" id="FarmaciaBD-to-BaseDados" style="stroke:#A80036;stroke-width:1.0;stroke-dasharray:7.0,7.0;"/><polygon fill="#A80036" points="1973.3,225.29,1971.2211,215.663,1970.3506,221.2525,1964.7612,220.382,1973.3,225.29" style="stroke:#A80036;stroke-width:1.0;"/><!--MD5=[6aa17cf9c35f5a7e8315d0a5463b5244]
link GestorFarmaciaBD to BaseDados--><path codeLine="63" d="M1555.82,215.81 C1670.3,228.15 1849.46,247.48 1940.59,257.31 " fill="none" id="GestorFarmaciaBD-to-BaseDados" style="stroke:#A80036;stroke-width:1.0;stroke-dasharray:7.0,7.0;"/><polygon fill="#A80036" points="1945.67,257.86,1937.1433,252.9309,1940.698,257.3314,1936.2975,260.886,1945.67,257.86" style="stroke:#A80036;stroke-width:1.0;"/><!--MD5=[5a916359c9bdd3dc6d1f72c7f32a14e5]
link UtilizadorBD to BaseDados--><path codeLine="65" d="M1803.61,284.47 C1856.61,278.75 1905.28,273.5 1940.66,269.69 " fill="none" id="UtilizadorBD-to-BaseDados" style="stroke:#A80036;stroke-width:1.0;stroke-dasharray:7.0,7.0;"/><polygon fill="#A80036" points="1945.78,269.13,1936.399,266.1306,1940.8095,269.6728,1937.2674,274.0833,1945.78,269.13" style="stroke:#A80036;stroke-width:1.0;"/><!--MD5=[dd5557e0584c7ae80926c94375161989]
link MoradaBD to BaseDados--><path codeLine="67" d="M1687.55,435.03 C1754.45,426.12 1825.47,409.25 1886,378.5 C1919.14,361.66 1948.14,331.16 1968.33,305.8 " fill="none" id="MoradaBD-to-BaseDados" style="stroke:#A80036;stroke-width:1.0;stroke-dasharray:7.0,7.0;"/><polygon fill="#A80036" points="1971.49,301.77,1962.7851,306.377,1968.4015,305.7021,1969.0764,311.3185,1971.49,301.77" style="stroke:#A80036;stroke-width:1.0;"/><!--MD5=[52164c4957c2ed80b53d565395fd8b90]
@startuml

skinparam classAttributeIconSize 0
left to right direction

class AdicionarFarmaciaController{
    +AdicionarFarmaciaController AdicionarFarmaciaController()
    +validaFarmacia(nome, NIF, telemovel, email)
    +validaLugaresEstacionamento(lugaresComSuporte, lugaresSemSuporte,capacidadeEnergia)
    +validaGestorFarmacia(nome, email, nif, telemóvel, pwd)
    +validaMoradas(moradaFarmacia, longitudeFarmacia, latitudeFarmacia, altitudeFarmacia, moradaGestor, longitudeGestor, latitudeGestor, altitudeGestor)
    +addDados()
}

class AdicionarFarmaciaUI{}

class BaseDados{
    +getConnection()
    +closeConnection()
}

class FarmaciaBD{
    +FarmaciaBD FarmaciaBD()
    +validaFarmacia(email, nif)
    +int  novaFarmacia(nomeFarmacia, emailFarmacia, telemovelFarmacia, nifFarmacia, moradaFarmacia, latitudeFarmacia, longitudeFarmacia, altitudeFarmacia, emailGestor)
    +setLugaresScooter(farmaciaID, lugaresSemSuporte, lugaresComSuporte, capacidadeEnergia)
    +associaProdutos(farmaciaID)
}

class GestorFarmaciaBD{
    +GestorFarmaciaBD GestorFarmaciaBD()
    +validaGestorFarmacia(email, nif)
    +novoGestorFarmacia(emailGestor)
}

class UtilizadorBD{
    +UtilizadorBD UtilizadorBD()
    +novoUtilizador(nomeGestor, emailGestor, telemovelGestor, nifGestor, pwd, PAPEL_GESTOR_FARMACIA, moradaGestorFarmacia, longitudeGestor, latitudeGestor, altitudeGestor)
}

class MoradaBD{
    +MoradaBD MoradaBD()
    +validaMorada(moradaFarmacia, longitudeFarmacia, latitudeFarmacia, altitudeFarmacia)
    +validaMoradaFarmacia(moradaFarmacia, latitudeFarmacia, longitudeFarmacia, altitudeFarmacia)
}

class ValidarParametros{
    +validaParametrosFarmacia(nome, NIF, telemovel, email)
    +validaParametrosLugaresEstacionamento(lugaresSemSuporte, lugaresComSuporte)
    +validaParametrosUtilizador(email, pwd, nome, nif, telemovel)
    +validaParametrosMorada(moradaFarmacia, longitudeFarmacia, latitudeFarmacia)
}

AdicionarFarmaciaUI ..> AdicionarFarmaciaController

AdicionarFarmaciaController ..> FarmaciaBD
AdicionarFarmaciaController ..> GestorFarmaciaBD
AdicionarFarmaciaController ..> UtilizadorBD
AdicionarFarmaciaController ..> ValidarParametros
AdicionarFarmaciaController ..> MoradaBD

FarmaciaBD ..> BaseDados

GestorFarmaciaBD ..> BaseDados

UtilizadorBD ..>  BaseDados

MoradaBD ..> BaseDados

@enduml

PlantUML version 1.2020.23(Sun Dec 13 19:14:58 GMT 2020)
(GPL source distribution)
Java Runtime: OpenJDK Runtime Environment
JVM: OpenJDK 64-Bit Server VM
Default Encoding: Cp1252
Language: pt
Country: PT
--></g></svg>