<?xml version="1.0" encoding="UTF-8" standalone="no"?><svg xmlns="http://www.w3.org/2000/svg" xmlns:xlink="http://www.w3.org/1999/xlink" contentScriptType="application/ecmascript" contentStyleType="text/css" height="449px" preserveAspectRatio="none" style="width:992px;height:449px;" version="1.1" viewBox="0 0 992 449" width="992px" zoomAndPan="magnify"><defs><filter height="300%" id="fbgk4za4r4j1b" width="300%" x="-1" y="-1"><feGaussianBlur result="blurOut" stdDeviation="2.0"/><feColorMatrix in="blurOut" result="blurOut2" type="matrix" values="0 0 0 0 0 0 0 0 0 0 0 0 0 0 0 0 0 0 .4 0"/><feOffset dx="4.0" dy="4.0" in="blurOut2" result="blurOut3"/><feBlend in="SourceGraphic" in2="blurOut3" mode="normal"/></filter></defs><g><!--MD5=[faed70f1496af0dbeb2f76658d58e8b7]
class IniciarEntregaUI--><rect fill="#FEFECE" filter="url(#fbgk4za4r4j1b)" height="61.8359" id="IniciarEntregaUI" style="stroke: #A80036; stroke-width: 1.5;" width="120" x="374.5" y="8"/><ellipse cx="389.5" cy="24" fill="#ADD1B2" rx="11" ry="11" style="stroke: #A80036; stroke-width: 1.0;"/><path d="M391.5,20.5 Q391.7031,20 391.9375,19.75 Q392.1719,19.5 392.4375,19.5 Q392.9063,19.5 393.2031,19.7813 Q393.5,20.0625 393.5,20.7188 L393.5,22.2813 Q393.5,22.9375 393.2188,23.2188 Q392.9375,23.5 392.5,23.5 Q392.1094,23.5 391.8594,23.3281 Q391.6094,23.1563 391.5,22.7031 Q391.4531,22.3906 391.2813,22.2188 Q390.9688,21.8906 390.4063,21.7031 Q389.8438,21.5 389.2813,21.5 Q388.5781,21.5 387.9844,21.7813 Q387.4063,22.0625 386.9531,22.6875 Q386.5,23.3125 386.5,24.1719 L386.5,25.0938 Q386.5,26.125 387.3438,26.8125 Q388.1875,27.5 389.6875,27.5 Q390.5781,27.5 391.2031,27.2969 Q391.5625,27.1875 391.9688,26.8281 Q392.2344,26.625 392.375,26.5625 Q392.5156,26.5 392.6875,26.5 Q393.0156,26.5 393.25,26.7656 Q393.5,27.0156 393.5,27.375 Q393.5,27.7188 393.1563,28.125 Q392.6563,28.7188 391.8594,29.0469 Q390.8125,29.5 389.5313,29.5 Q388.0313,29.5 386.8281,28.9063 Q385.8594,28.4375 385.1719,27.4219 Q384.5,26.4063 384.5,25.2031 L384.5,24.1094 Q384.5,22.8594 385.0938,21.7656 Q385.7031,20.6719 386.75,20.0938 Q387.8125,19.5 389,19.5 Q389.7188,19.5 390.3438,19.75 Q390.9688,20 391.5,20.5 Z "/><text fill="#000000" font-family="sans-serif" font-size="12" lengthAdjust="spacingAndGlyphs" textLength="88" x="403.5" y="28.9102">IniciarEntregaUI</text><line style="stroke: #A80036; stroke-width: 1.5;" x1="375.5" x2="493.5" y1="40" y2="40"/><line style="stroke: #A80036; stroke-width: 1.5;" x1="375.5" x2="493.5" y1="48" y2="48"/><text fill="#000000" font-family="sans-serif" font-size="11" lengthAdjust="spacingAndGlyphs" textLength="73" x="380.5" y="63.4189">iniciarEntrega()</text><!--MD5=[19833fe0d0b0ef0c9c5e7594e33b0f6b]
class IniciarEntregaController--><rect fill="#FEFECE" filter="url(#fbgk4za4r4j1b)" height="144.8516" id="IniciarEntregaController" style="stroke: #A80036; stroke-width: 1.5;" width="452" x="208.5" y="130"/><ellipse cx="365.25" cy="146" fill="#ADD1B2" rx="11" ry="11" style="stroke: #A80036; stroke-width: 1.0;"/><path d="M367.25,142.5 Q367.4531,142 367.6875,141.75 Q367.9219,141.5 368.1875,141.5 Q368.6563,141.5 368.9531,141.7813 Q369.25,142.0625 369.25,142.7188 L369.25,144.2813 Q369.25,144.9375 368.9688,145.2188 Q368.6875,145.5 368.25,145.5 Q367.8594,145.5 367.6094,145.3281 Q367.3594,145.1563 367.25,144.7031 Q367.2031,144.3906 367.0313,144.2188 Q366.7188,143.8906 366.1563,143.7031 Q365.5938,143.5 365.0313,143.5 Q364.3281,143.5 363.7344,143.7813 Q363.1563,144.0625 362.7031,144.6875 Q362.25,145.3125 362.25,146.1719 L362.25,147.0938 Q362.25,148.125 363.0938,148.8125 Q363.9375,149.5 365.4375,149.5 Q366.3281,149.5 366.9531,149.2969 Q367.3125,149.1875 367.7188,148.8281 Q367.9844,148.625 368.125,148.5625 Q368.2656,148.5 368.4375,148.5 Q368.7656,148.5 369,148.7656 Q369.25,149.0156 369.25,149.375 Q369.25,149.7188 368.9063,150.125 Q368.4063,150.7188 367.6094,151.0469 Q366.5625,151.5 365.2813,151.5 Q363.7813,151.5 362.5781,150.9063 Q361.6094,150.4375 360.9219,149.4219 Q360.25,148.4063 360.25,147.2031 L360.25,146.1094 Q360.25,144.8594 360.8438,143.7656 Q361.4531,142.6719 362.5,142.0938 Q363.5625,141.5 364.75,141.5 Q365.4688,141.5 366.0938,141.75 Q366.7188,142 367.25,142.5 Z "/><text fill="#000000" font-family="sans-serif" font-size="12" lengthAdjust="spacingAndGlyphs" textLength="130" x="385.75" y="150.9102">IniciarEntregaController</text><line style="stroke: #A80036; stroke-width: 1.5;" x1="209.5" x2="659.5" y1="162" y2="162"/><rect fill="none" height="6" style="stroke: #C82930; stroke-width: 1.0;" width="6" x="216.5" y="170"/><text fill="#000000" font-family="sans-serif" font-size="11" lengthAdjust="spacingAndGlyphs" textLength="108" x="228.5" y="177.4189">EntregaBD entregaBD;</text><rect fill="none" height="6" style="stroke: #C82930; stroke-width: 1.0;" width="6" x="216.5" y="183.8359"/><text fill="#000000" font-family="sans-serif" font-size="11" lengthAdjust="spacingAndGlyphs" textLength="146" x="228.5" y="191.2549">EncomendaBD encomendaBD;</text><rect fill="none" height="6" style="stroke: #C82930; stroke-width: 1.0;" width="6" x="216.5" y="197.6719"/><text fill="#000000" font-family="sans-serif" font-size="11" lengthAdjust="spacingAndGlyphs" textLength="81" x="228.5" y="205.0908">boolean isDrone;</text><rect fill="none" height="6" style="stroke: #C82930; stroke-width: 1.0;" width="6" x="216.5" y="211.5078"/><text fill="#000000" font-family="sans-serif" font-size="11" lengthAdjust="spacingAndGlyphs" textLength="92" x="228.5" y="218.9268">boolean isEstafeta;</text><rect fill="none" height="6" style="stroke: #C82930; stroke-width: 1.0;" width="6" x="216.5" y="225.3438"/><text fill="#000000" font-family="sans-serif" font-size="11" lengthAdjust="spacingAndGlyphs" textLength="58" x="228.5" y="232.7627">String email;</text><line style="stroke: #A80036; stroke-width: 1.5;" x1="209.5" x2="659.5" y1="239.1797" y2="239.1797"/><ellipse cx="219.5" cy="250.1797" fill="#84BE84" rx="3" ry="3" style="stroke: #038048; stroke-width: 1.0;"/><text fill="#000000" font-family="sans-serif" font-size="11" lengthAdjust="spacingAndGlyphs" textLength="426" x="228.5" y="254.5986">List&lt;String&gt; getEntregas(EstafetaBD estafetaBD, GestorFarmaciaBD gestorFarmaciaBD)</text><ellipse cx="219.5" cy="264.0156" fill="#84BE84" rx="3" ry="3" style="stroke: #038048; stroke-width: 1.0;"/><text fill="#000000" font-family="sans-serif" font-size="11" lengthAdjust="spacingAndGlyphs" textLength="155" x="228.5" y="268.4346">void iniciarEntrega(int idEntrega)</text><!--MD5=[380d12a68ed0046a60f31008a02875d0]
class AplicacaoPOT--><rect fill="#FEFECE" filter="url(#fbgk4za4r4j1b)" height="75.6719" id="AplicacaoPOT" style="stroke: #A80036; stroke-width: 1.5;" width="195" x="6" y="348.5"/><ellipse cx="60.75" cy="364.5" fill="#ADD1B2" rx="11" ry="11" style="stroke: #A80036; stroke-width: 1.0;"/><path d="M62.75,361 Q62.9531,360.5 63.1875,360.25 Q63.4219,360 63.6875,360 Q64.1563,360 64.4531,360.2813 Q64.75,360.5625 64.75,361.2188 L64.75,362.7813 Q64.75,363.4375 64.4688,363.7188 Q64.1875,364 63.75,364 Q63.3594,364 63.1094,363.8281 Q62.8594,363.6563 62.75,363.2031 Q62.7031,362.8906 62.5313,362.7188 Q62.2188,362.3906 61.6563,362.2031 Q61.0938,362 60.5313,362 Q59.8281,362 59.2344,362.2813 Q58.6563,362.5625 58.2031,363.1875 Q57.75,363.8125 57.75,364.6719 L57.75,365.5938 Q57.75,366.625 58.5938,367.3125 Q59.4375,368 60.9375,368 Q61.8281,368 62.4531,367.7969 Q62.8125,367.6875 63.2188,367.3281 Q63.4844,367.125 63.625,367.0625 Q63.7656,367 63.9375,367 Q64.2656,367 64.5,367.2656 Q64.75,367.5156 64.75,367.875 Q64.75,368.2188 64.4063,368.625 Q63.9063,369.2188 63.1094,369.5469 Q62.0625,370 60.7813,370 Q59.2813,370 58.0781,369.4063 Q57.1094,368.9375 56.4219,367.9219 Q55.75,366.9063 55.75,365.7031 L55.75,364.6094 Q55.75,363.3594 56.3438,362.2656 Q56.9531,361.1719 58,360.5938 Q59.0625,360 60.25,360 Q60.9688,360 61.5938,360.25 Q62.2188,360.5 62.75,361 Z "/><text fill="#000000" font-family="sans-serif" font-size="12" lengthAdjust="spacingAndGlyphs" textLength="77" x="81.25" y="369.4102">AplicacaoPOT</text><line style="stroke: #A80036; stroke-width: 1.5;" x1="7" x2="200" y1="380.5" y2="380.5"/><line style="stroke: #A80036; stroke-width: 1.5;" x1="7" x2="200" y1="388.5" y2="388.5"/><ellipse cx="17" cy="399.5" fill="#84BE84" rx="3" ry="3" style="stroke: #038048; stroke-width: 1.0;"/><text fill="#000000" font-family="sans-serif" font-size="11" lengthAdjust="spacingAndGlyphs" textLength="135" x="26" y="403.9189">AplicacaoPOT getInstance()</text><ellipse cx="17" cy="413.3359" fill="#84BE84" rx="3" ry="3" style="stroke: #038048; stroke-width: 1.0;"/><text fill="#000000" font-family="sans-serif" font-size="11" lengthAdjust="spacingAndGlyphs" textLength="169" x="26" y="417.7549">SessaoUtilizador getSessaoAtual()</text><!--MD5=[1e13576e8c070e32200b62ceaa1f39ec]
class SessaoUtilizador--><rect fill="#FEFECE" filter="url(#fbgk4za4r4j1b)" height="61.8359" id="SessaoUtilizador" style="stroke: #A80036; stroke-width: 1.5;" width="148" x="236.5" y="355.5"/><ellipse cx="261.4" cy="371.5" fill="#ADD1B2" rx="11" ry="11" style="stroke: #A80036; stroke-width: 1.0;"/><path d="M263.4,368 Q263.6031,367.5 263.8375,367.25 Q264.0719,367 264.3375,367 Q264.8063,367 265.1031,367.2813 Q265.4,367.5625 265.4,368.2188 L265.4,369.7813 Q265.4,370.4375 265.1188,370.7188 Q264.8375,371 264.4,371 Q264.0094,371 263.7594,370.8281 Q263.5094,370.6563 263.4,370.2031 Q263.3531,369.8906 263.1813,369.7188 Q262.8688,369.3906 262.3063,369.2031 Q261.7438,369 261.1813,369 Q260.4781,369 259.8844,369.2813 Q259.3063,369.5625 258.8531,370.1875 Q258.4,370.8125 258.4,371.6719 L258.4,372.5938 Q258.4,373.625 259.2438,374.3125 Q260.0875,375 261.5875,375 Q262.4781,375 263.1031,374.7969 Q263.4625,374.6875 263.8688,374.3281 Q264.1344,374.125 264.275,374.0625 Q264.4156,374 264.5875,374 Q264.9156,374 265.15,374.2656 Q265.4,374.5156 265.4,374.875 Q265.4,375.2188 265.0563,375.625 Q264.5563,376.2188 263.7594,376.5469 Q262.7125,377 261.4313,377 Q259.9313,377 258.7281,376.4063 Q257.7594,375.9375 257.0719,374.9219 Q256.4,373.9063 256.4,372.7031 L256.4,371.6094 Q256.4,370.3594 256.9938,369.2656 Q257.6031,368.1719 258.65,367.5938 Q259.7125,367 260.9,367 Q261.6188,367 262.2438,367.25 Q262.8688,367.5 263.4,368 Z "/><text fill="#000000" font-family="sans-serif" font-size="12" lengthAdjust="spacingAndGlyphs" textLength="94" x="277.6" y="376.4102">SessaoUtilizador</text><line style="stroke: #A80036; stroke-width: 1.5;" x1="237.5" x2="383.5" y1="387.5" y2="387.5"/><line style="stroke: #A80036; stroke-width: 1.5;" x1="237.5" x2="383.5" y1="395.5" y2="395.5"/><ellipse cx="247.5" cy="406.5" fill="#84BE84" rx="3" ry="3" style="stroke: #038048; stroke-width: 1.0;"/><text fill="#000000" font-family="sans-serif" font-size="11" lengthAdjust="spacingAndGlyphs" textLength="122" x="256.5" y="410.9189">String getEmailUtilizador()</text><!--MD5=[5fc572bc8c1bfcbeab2cd59a58703842]
class EntregaBD--><rect fill="#FEFECE" filter="url(#fbgk4za4r4j1b)" height="103.3438" id="EntregaBD" style="stroke: #A80036; stroke-width: 1.5;" width="277" x="420" y="335"/><ellipse cx="524.25" cy="351" fill="#ADD1B2" rx="11" ry="11" style="stroke: #A80036; stroke-width: 1.0;"/><path d="M526.25,347.5 Q526.4531,347 526.6875,346.75 Q526.9219,346.5 527.1875,346.5 Q527.6563,346.5 527.9531,346.7813 Q528.25,347.0625 528.25,347.7188 L528.25,349.2813 Q528.25,349.9375 527.9688,350.2188 Q527.6875,350.5 527.25,350.5 Q526.8594,350.5 526.6094,350.3281 Q526.3594,350.1563 526.25,349.7031 Q526.2031,349.3906 526.0313,349.2188 Q525.7188,348.8906 525.1563,348.7031 Q524.5938,348.5 524.0313,348.5 Q523.3281,348.5 522.7344,348.7813 Q522.1563,349.0625 521.7031,349.6875 Q521.25,350.3125 521.25,351.1719 L521.25,352.0938 Q521.25,353.125 522.0938,353.8125 Q522.9375,354.5 524.4375,354.5 Q525.3281,354.5 525.9531,354.2969 Q526.3125,354.1875 526.7188,353.8281 Q526.9844,353.625 527.125,353.5625 Q527.2656,353.5 527.4375,353.5 Q527.7656,353.5 528,353.7656 Q528.25,354.0156 528.25,354.375 Q528.25,354.7188 527.9063,355.125 Q527.4063,355.7188 526.6094,356.0469 Q525.5625,356.5 524.2813,356.5 Q522.7813,356.5 521.5781,355.9063 Q520.6094,355.4375 519.9219,354.4219 Q519.25,353.4063 519.25,352.2031 L519.25,351.1094 Q519.25,349.8594 519.8438,348.7656 Q520.4531,347.6719 521.5,347.0938 Q522.5625,346.5 523.75,346.5 Q524.4688,346.5 525.0938,346.75 Q525.7188,347 526.25,347.5 Z "/><text fill="#000000" font-family="sans-serif" font-size="12" lengthAdjust="spacingAndGlyphs" textLength="60" x="544.75" y="355.9102">EntregaBD</text><line style="stroke: #A80036; stroke-width: 1.5;" x1="421" x2="696" y1="367" y2="367"/><line style="stroke: #A80036; stroke-width: 1.5;" x1="421" x2="696" y1="375" y2="375"/><ellipse cx="431" cy="386" fill="#84BE84" rx="3" ry="3" style="stroke: #038048; stroke-width: 1.0;"/><text fill="#000000" font-family="sans-serif" font-size="11" lengthAdjust="spacingAndGlyphs" textLength="249" x="440" y="390.4189">List&lt;Entrega&gt; getEntregaByEstafeta(emailEstafeta);</text><ellipse cx="431" cy="399.8359" fill="#84BE84" rx="3" ry="3" style="stroke: #038048; stroke-width: 1.0;"/><text fill="#000000" font-family="sans-serif" font-size="11" lengthAdjust="spacingAndGlyphs" textLength="216" x="440" y="404.2549">List&lt;Entrega&gt; getEntregasToDoDrone(email);</text><ellipse cx="431" cy="413.6719" fill="#84BE84" rx="3" ry="3" style="stroke: #038048; stroke-width: 1.0;"/><text fill="#000000" font-family="sans-serif" font-size="11" lengthAdjust="spacingAndGlyphs" textLength="251" x="440" y="418.0908">boolean validaIdEntregaToDoDrone(email,idEntrega);</text><ellipse cx="431" cy="427.5078" fill="#84BE84" rx="3" ry="3" style="stroke: #038048; stroke-width: 1.0;"/><text fill="#000000" font-family="sans-serif" font-size="11" lengthAdjust="spacingAndGlyphs" textLength="237" x="440" y="431.9268">boolean validaIdEntregaEstafeta(email,idEntrega);</text><!--MD5=[8fb024e8e7bfe3cb30cfe7edaf396684]
class EncomendaBD--><rect fill="#FEFECE" filter="url(#fbgk4za4r4j1b)" height="61.8359" id="EncomendaBD" style="stroke: #A80036; stroke-width: 1.5;" width="249" x="732" y="355.5"/><ellipse cx="810.25" cy="371.5" fill="#ADD1B2" rx="11" ry="11" style="stroke: #A80036; stroke-width: 1.0;"/><path d="M812.25,368 Q812.4531,367.5 812.6875,367.25 Q812.9219,367 813.1875,367 Q813.6563,367 813.9531,367.2813 Q814.25,367.5625 814.25,368.2188 L814.25,369.7813 Q814.25,370.4375 813.9688,370.7188 Q813.6875,371 813.25,371 Q812.8594,371 812.6094,370.8281 Q812.3594,370.6563 812.25,370.2031 Q812.2031,369.8906 812.0313,369.7188 Q811.7188,369.3906 811.1563,369.2031 Q810.5938,369 810.0313,369 Q809.3281,369 808.7344,369.2813 Q808.1563,369.5625 807.7031,370.1875 Q807.25,370.8125 807.25,371.6719 L807.25,372.5938 Q807.25,373.625 808.0938,374.3125 Q808.9375,375 810.4375,375 Q811.3281,375 811.9531,374.7969 Q812.3125,374.6875 812.7188,374.3281 Q812.9844,374.125 813.125,374.0625 Q813.2656,374 813.4375,374 Q813.7656,374 814,374.2656 Q814.25,374.5156 814.25,374.875 Q814.25,375.2188 813.9063,375.625 Q813.4063,376.2188 812.6094,376.5469 Q811.5625,377 810.2813,377 Q808.7813,377 807.5781,376.4063 Q806.6094,375.9375 805.9219,374.9219 Q805.25,373.9063 805.25,372.7031 L805.25,371.6094 Q805.25,370.3594 805.8438,369.2656 Q806.4531,368.1719 807.5,367.5938 Q808.5625,367 809.75,367 Q810.4688,367 811.0938,367.25 Q811.7188,367.5 812.25,368 Z "/><text fill="#000000" font-family="sans-serif" font-size="12" lengthAdjust="spacingAndGlyphs" textLength="84" x="830.75" y="376.4102">EncomendaBD</text><line style="stroke: #A80036; stroke-width: 1.5;" x1="733" x2="980" y1="387.5" y2="387.5"/><ellipse cx="743" cy="398.5" fill="none" rx="3" ry="3" style="stroke: #038048; stroke-width: 1.0;"/><text fill="#000000" font-family="sans-serif" font-size="11" lengthAdjust="spacingAndGlyphs" textLength="223" x="752" y="402.9189">List&lt;Encomenda&gt; getEncomendasByEntregaId</text><line style="stroke: #A80036; stroke-width: 1.5;" x1="733" x2="980" y1="409.3359" y2="409.3359"/><!--MD5=[6af3a5e7d8ae03b4afed09b9952bb816]
link IniciarEntregaUI to IniciarEntregaController--><path d="M434.5,70.377 C434.5,85.745 434.5,105.165 434.5,124.317 " fill="none" id="IniciarEntregaUI-&gt;IniciarEntregaController" style="stroke: #A80036; stroke-width: 1.0; stroke-dasharray: 7.0,7.0;"/><polygon fill="#A80036" points="434.5,129.709,438.5,120.709,434.5,124.709,430.5,120.709,434.5,129.709" style="stroke: #A80036; stroke-width: 1.0;"/><!--MD5=[b6f4cc89b72257035a0432594cf5e691]
link IniciarEntregaController to AplicacaoPOT--><path d="M304.155,275.17 C260.347,299.258 213.092,325.241 175.452,345.9375 " fill="none" id="IniciarEntregaController-&gt;AplicacaoPOT" style="stroke: #A80036; stroke-width: 1.0; stroke-dasharray: 7.0,7.0;"/><polygon fill="#A80036" points="170.91,348.4348,180.7238,347.6043,175.2916,346.0261,176.8698,340.5939,170.91,348.4348" style="stroke: #A80036; stroke-width: 1.0;"/><!--MD5=[2969567573402783d990b08175b6013d]
link IniciarEntregaController to SessaoUtilizador--><path d="M385.67,275.17 C367.879,301.282 348.572,329.62 333.98,351.0375 " fill="none" id="IniciarEntregaController-&gt;SessaoUtilizador" style="stroke: #A80036; stroke-width: 1.0; stroke-dasharray: 7.0,7.0;"/><polygon fill="#A80036" points="331.126,355.2261,339.4989,350.04,333.941,351.0938,332.8872,345.536,331.126,355.2261" style="stroke: #A80036; stroke-width: 1.0;"/><!--MD5=[59229d6464c945b87fdeca5249cb5089]
link IniciarEntregaController to EntregaBD--><path d="M483.33,275.17 C495.888,293.602 509.202,313.144 521.08,330.577 " fill="none" id="IniciarEntregaController-&gt;EntregaBD" style="stroke: #A80036; stroke-width: 1.0; stroke-dasharray: 7.0,7.0;"/><polygon fill="#A80036" points="524.067,334.962,522.3037,325.2723,521.2511,330.8303,515.6931,329.7777,524.067,334.962" style="stroke: #A80036; stroke-width: 1.0;"/><!--MD5=[b8e2ed20738ae57283b6237036d42d61]
link IniciarEntregaController to EncomendaBD--><path d="M600.377,275.039 C663.199,302.133 731.62,331.642 781.928,353.3386 " fill="none" id="IniciarEntregaController-&gt;EncomendaBD" style="stroke: #A80036; stroke-width: 1.0; stroke-dasharray: 7.0,7.0;"/><polygon fill="#A80036" points="786.739,355.4135,780.0587,348.1765,782.1477,353.4335,776.8907,355.5225,786.739,355.4135" style="stroke: #A80036; stroke-width: 1.0;"/><!--MD5=[688705e68d20a2f5d1fe28a66472a3b2]
@startuml

class IniciarEntregaUI{
iniciarEntrega()
}

class IniciarEntregaController{
    - EntregaBD entregaBD;
    - EncomendaBD encomendaBD;
    - boolean isDrone;
    - boolean isEstafeta;
    - String email;

+ List<String> getEntregas(EstafetaBD estafetaBD, GestorFarmaciaBD gestorFarmaciaBD)
+ void iniciarEntrega(int idEntrega)
}

class AplicacaoPOT{
+ AplicacaoPOT getInstance()
+ SessaoUtilizador getSessaoAtual()
}

class SessaoUtilizador{
+ String getEmailUtilizador()
}

class EntregaBD{
+ List<Entrega> getEntregaByEstafeta(emailEstafeta);
+ List<Entrega> getEntregasToDoDrone(email);
+ boolean validaIdEntregaToDoDrone(email,idEntrega);
+ boolean validaIdEntregaEstafeta(email,idEntrega);
}

class EncomendaBD{
+List<Encomenda> getEncomendasByEntregaId
}

IniciarEntregaUI..>IniciarEntregaController
IniciarEntregaController..>AplicacaoPOT
IniciarEntregaController..>SessaoUtilizador
IniciarEntregaController..>EntregaBD
IniciarEntregaController ..> EncomendaBD



@enduml

PlantUML version 1.2020.07(Sun Apr 19 12:42:40 BST 2020)
(GPL source distribution)
Java Runtime: OpenJDK Runtime Environment
JVM: OpenJDK 64-Bit Server VM
Java Version: 11.0.6+8-b765.25
Operating System: Windows 10
Default Encoding: Cp1252
Language: pt
Country: PT
--></g></svg>