<?xml version="1.0" encoding="UTF-8" standalone="no"?><svg xmlns="http://www.w3.org/2000/svg" xmlns:xlink="http://www.w3.org/1999/xlink" contentScriptType="application/ecmascript" contentStyleType="text/css" height="784px" preserveAspectRatio="none" style="width:1457px;height:784px;" version="1.1" viewBox="0 0 1457 784" width="1457px" zoomAndPan="magnify"><defs><filter height="300%" id="fjra3u5q9niqd" width="300%" x="-1" y="-1"><feGaussianBlur result="blurOut" stdDeviation="2.0"/><feColorMatrix in="blurOut" result="blurOut2" type="matrix" values="0 0 0 0 0 0 0 0 0 0 0 0 0 0 0 0 0 0 .4 0"/><feOffset dx="4.0" dy="4.0" in="blurOut2" result="blurOut3"/><feBlend in="SourceGraphic" in2="blurOut3" mode="normal"/></filter></defs><g><!--MD5=[db6d18d8099558415abc41d00477ab92]
class Admin--><rect codeLine="6" fill="#FEFECE" filter="url(#fjra3u5q9niqd)" height="40" id="Admin" style="stroke:#A80036;stroke-width:1.5;" width="67" x="7" y="644.3564"/><ellipse cx="22" cy="660.3564" fill="#ADD1B2" rx="11" ry="11" style="stroke:#A80036;stroke-width:1.0;"/><path d="M24,656.8564 Q24.2031,656.3564 24.4375,656.1064 Q24.6719,655.8564 24.9375,655.8564 Q25.4063,655.8564 25.7031,656.1377 Q26,656.4189 26,657.0752 L26,658.6377 Q26,659.2939 25.7188,659.5752 Q25.4375,659.8564 25,659.8564 Q24.6094,659.8564 24.3594,659.6846 Q24.1094,659.5127 24,659.0596 Q23.9531,658.7471 23.7813,658.5752 Q23.4688,658.2471 22.9063,658.0596 Q22.3438,657.8564 21.7813,657.8564 Q21.0781,657.8564 20.4844,658.1377 Q19.9063,658.4189 19.4531,659.0439 Q19,659.6689 19,660.5283 L19,661.4502 Q19,662.4814 19.8438,663.1689 Q20.6875,663.8564 22.1875,663.8564 Q23.0781,663.8564 23.7031,663.6533 Q24.0625,663.5439 24.4688,663.1846 Q24.7344,662.9814 24.875,662.9189 Q25.0156,662.8564 25.1875,662.8564 Q25.5156,662.8564 25.75,663.1221 Q26,663.3721 26,663.7314 Q26,664.0752 25.6563,664.4814 Q25.1563,665.0752 24.3594,665.4033 Q23.3125,665.8564 22.0313,665.8564 Q20.5313,665.8564 19.3281,665.2627 Q18.3594,664.7939 17.6719,663.7783 Q17,662.7627 17,661.5596 L17,660.4658 Q17,659.2158 17.5938,658.1221 Q18.2031,657.0283 19.25,656.4502 Q20.3125,655.8564 21.5,655.8564 Q22.2188,655.8564 22.8438,656.1064 Q23.4688,656.3564 24,656.8564 Z " fill="#000000"/><text fill="#000000" font-family="sans-serif" font-size="12" lengthAdjust="spacingAndGlyphs" textLength="35" x="36" y="665.2666">Admin</text><line style="stroke:#A80036;stroke-width:1.5;" x1="8" x2="73" y1="676.3564" y2="676.3564"/><!--MD5=[20a748d5ee336a9a91751b0a3d4f0beb]
class Cliente--><rect codeLine="8" fill="#FEFECE" filter="url(#fjra3u5q9niqd)" height="40" id="Cliente" style="stroke:#A80036;stroke-width:1.5;" width="71" x="751" y="512.3564"/><ellipse cx="766" cy="528.3564" fill="#ADD1B2" rx="11" ry="11" style="stroke:#A80036;stroke-width:1.0;"/><path d="M768,524.8564 Q768.2031,524.3564 768.4375,524.1064 Q768.6719,523.8564 768.9375,523.8564 Q769.4063,523.8564 769.7031,524.1377 Q770,524.4189 770,525.0752 L770,526.6377 Q770,527.2939 769.7188,527.5752 Q769.4375,527.8564 769,527.8564 Q768.6094,527.8564 768.3594,527.6846 Q768.1094,527.5127 768,527.0596 Q767.9531,526.7471 767.7813,526.5752 Q767.4688,526.2471 766.9063,526.0596 Q766.3438,525.8564 765.7813,525.8564 Q765.0781,525.8564 764.4844,526.1377 Q763.9063,526.4189 763.4531,527.0439 Q763,527.6689 763,528.5283 L763,529.4502 Q763,530.4814 763.8438,531.1689 Q764.6875,531.8564 766.1875,531.8564 Q767.0781,531.8564 767.7031,531.6533 Q768.0625,531.5439 768.4688,531.1846 Q768.7344,530.9814 768.875,530.9189 Q769.0156,530.8564 769.1875,530.8564 Q769.5156,530.8564 769.75,531.1221 Q770,531.3721 770,531.7314 Q770,532.0752 769.6563,532.4814 Q769.1563,533.0752 768.3594,533.4033 Q767.3125,533.8564 766.0313,533.8564 Q764.5313,533.8564 763.3281,533.2627 Q762.3594,532.7939 761.6719,531.7783 Q761,530.7627 761,529.5596 L761,528.4658 Q761,527.2158 761.5938,526.1221 Q762.2031,525.0283 763.25,524.4502 Q764.3125,523.8564 765.5,523.8564 Q766.2188,523.8564 766.8438,524.1064 Q767.4688,524.3564 768,524.8564 Z " fill="#000000"/><text fill="#000000" font-family="sans-serif" font-size="12" lengthAdjust="spacingAndGlyphs" textLength="39" x="780" y="533.2666">Cliente</text><line style="stroke:#A80036;stroke-width:1.5;" x1="752" x2="821" y1="544.3564" y2="544.3564"/><!--MD5=[c55f92ccbf0646788158d42f3399cc78]
class Encomenda--><rect codeLine="10" fill="#FEFECE" filter="url(#fjra3u5q9niqd)" height="40" id="Encomenda" style="stroke:#A80036;stroke-width:1.5;" width="99" x="1162" y="486.3564"/><ellipse cx="1177" cy="502.3564" fill="#ADD1B2" rx="11" ry="11" style="stroke:#A80036;stroke-width:1.0;"/><path d="M1179,498.8564 Q1179.2031,498.3564 1179.4375,498.1064 Q1179.6719,497.8564 1179.9375,497.8564 Q1180.4063,497.8564 1180.7031,498.1377 Q1181,498.4189 1181,499.0752 L1181,500.6377 Q1181,501.2939 1180.7188,501.5752 Q1180.4375,501.8564 1180,501.8564 Q1179.6094,501.8564 1179.3594,501.6846 Q1179.1094,501.5127 1179,501.0596 Q1178.9531,500.7471 1178.7813,500.5752 Q1178.4688,500.2471 1177.9063,500.0596 Q1177.3438,499.8564 1176.7813,499.8564 Q1176.0781,499.8564 1175.4844,500.1377 Q1174.9063,500.4189 1174.4531,501.0439 Q1174,501.6689 1174,502.5283 L1174,503.4502 Q1174,504.4814 1174.8438,505.1689 Q1175.6875,505.8564 1177.1875,505.8564 Q1178.0781,505.8564 1178.7031,505.6533 Q1179.0625,505.5439 1179.4688,505.1846 Q1179.7344,504.9814 1179.875,504.9189 Q1180.0156,504.8564 1180.1875,504.8564 Q1180.5156,504.8564 1180.75,505.1221 Q1181,505.3721 1181,505.7314 Q1181,506.0752 1180.6563,506.4814 Q1180.1563,507.0752 1179.3594,507.4033 Q1178.3125,507.8564 1177.0313,507.8564 Q1175.5313,507.8564 1174.3281,507.2627 Q1173.3594,506.7939 1172.6719,505.7783 Q1172,504.7627 1172,503.5596 L1172,502.4658 Q1172,501.2158 1172.5938,500.1221 Q1173.2031,499.0283 1174.25,498.4502 Q1175.3125,497.8564 1176.5,497.8564 Q1177.2188,497.8564 1177.8438,498.1064 Q1178.4688,498.3564 1179,498.8564 Z " fill="#000000"/><text fill="#000000" font-family="sans-serif" font-size="12" lengthAdjust="spacingAndGlyphs" textLength="67" x="1191" y="507.2666">Encomenda</text><line style="stroke:#A80036;stroke-width:1.5;" x1="1163" x2="1260" y1="518.3564" y2="518.3564"/><!--MD5=[3179f819b5ca0f9c8a1bd58e9144681b]
class Entrega--><rect codeLine="12" fill="#FEFECE" filter="url(#fjra3u5q9niqd)" height="40" id="Entrega" style="stroke:#A80036;stroke-width:1.5;" width="75" x="965" y="240.3564"/><ellipse cx="980" cy="256.3564" fill="#ADD1B2" rx="11" ry="11" style="stroke:#A80036;stroke-width:1.0;"/><path d="M982,252.8564 Q982.2031,252.3564 982.4375,252.1064 Q982.6719,251.8564 982.9375,251.8564 Q983.4063,251.8564 983.7031,252.1377 Q984,252.4189 984,253.0752 L984,254.6377 Q984,255.2939 983.7188,255.5752 Q983.4375,255.8564 983,255.8564 Q982.6094,255.8564 982.3594,255.6846 Q982.1094,255.5127 982,255.0596 Q981.9531,254.7471 981.7813,254.5752 Q981.4688,254.2471 980.9063,254.0596 Q980.3438,253.8564 979.7813,253.8564 Q979.0781,253.8564 978.4844,254.1377 Q977.9063,254.4189 977.4531,255.0439 Q977,255.6689 977,256.5283 L977,257.4502 Q977,258.4814 977.8438,259.1689 Q978.6875,259.8564 980.1875,259.8564 Q981.0781,259.8564 981.7031,259.6533 Q982.0625,259.5439 982.4688,259.1846 Q982.7344,258.9814 982.875,258.9189 Q983.0156,258.8564 983.1875,258.8564 Q983.5156,258.8564 983.75,259.1221 Q984,259.3721 984,259.7314 Q984,260.0752 983.6563,260.4814 Q983.1563,261.0752 982.3594,261.4033 Q981.3125,261.8564 980.0313,261.8564 Q978.5313,261.8564 977.3281,261.2627 Q976.3594,260.7939 975.6719,259.7783 Q975,258.7627 975,257.5596 L975,256.4658 Q975,255.2158 975.5938,254.1221 Q976.2031,253.0283 977.25,252.4502 Q978.3125,251.8564 979.5,251.8564 Q980.2188,251.8564 980.8438,252.1064 Q981.4688,252.3564 982,252.8564 Z " fill="#000000"/><text fill="#000000" font-family="sans-serif" font-size="12" lengthAdjust="spacingAndGlyphs" textLength="43" x="994" y="261.2666">Entrega</text><line style="stroke:#A80036;stroke-width:1.5;" x1="966" x2="1039" y1="272.3564" y2="272.3564"/><!--MD5=[3f1202280bfe3359d2f91fb9b6e32986]
class Estafeta--><rect codeLine="14" fill="#FEFECE" filter="url(#fjra3u5q9niqd)" height="40" id="Estafeta" style="stroke:#A80036;stroke-width:1.5;" width="77" x="748" y="249.3564"/><ellipse cx="763" cy="265.3564" fill="#ADD1B2" rx="11" ry="11" style="stroke:#A80036;stroke-width:1.0;"/><path d="M765,261.8564 Q765.2031,261.3564 765.4375,261.1064 Q765.6719,260.8564 765.9375,260.8564 Q766.4063,260.8564 766.7031,261.1377 Q767,261.4189 767,262.0752 L767,263.6377 Q767,264.2939 766.7188,264.5752 Q766.4375,264.8564 766,264.8564 Q765.6094,264.8564 765.3594,264.6846 Q765.1094,264.5127 765,264.0596 Q764.9531,263.7471 764.7813,263.5752 Q764.4688,263.2471 763.9063,263.0596 Q763.3438,262.8564 762.7813,262.8564 Q762.0781,262.8564 761.4844,263.1377 Q760.9063,263.4189 760.4531,264.0439 Q760,264.6689 760,265.5283 L760,266.4502 Q760,267.4814 760.8438,268.1689 Q761.6875,268.8564 763.1875,268.8564 Q764.0781,268.8564 764.7031,268.6533 Q765.0625,268.5439 765.4688,268.1846 Q765.7344,267.9814 765.875,267.9189 Q766.0156,267.8564 766.1875,267.8564 Q766.5156,267.8564 766.75,268.1221 Q767,268.3721 767,268.7314 Q767,269.0752 766.6563,269.4814 Q766.1563,270.0752 765.3594,270.4033 Q764.3125,270.8564 763.0313,270.8564 Q761.5313,270.8564 760.3281,270.2627 Q759.3594,269.7939 758.6719,268.7783 Q758,267.7627 758,266.5596 L758,265.4658 Q758,264.2158 758.5938,263.1221 Q759.2031,262.0283 760.25,261.4502 Q761.3125,260.8564 762.5,260.8564 Q763.2188,260.8564 763.8438,261.1064 Q764.4688,261.3564 765,261.8564 Z " fill="#000000"/><text fill="#000000" font-family="sans-serif" font-size="12" lengthAdjust="spacingAndGlyphs" textLength="45" x="777" y="270.2666">Estafeta</text><line style="stroke:#A80036;stroke-width:1.5;" x1="749" x2="824" y1="281.3564" y2="281.3564"/><!--MD5=[6613c9cd406ef433ff06f5e98b28abd9]
class Farmacia--><rect codeLine="16" fill="#FEFECE" filter="url(#fjra3u5q9niqd)" height="40" id="Farmacia" style="stroke:#A80036;stroke-width:1.5;" width="84" x="197" y="260.3564"/><ellipse cx="212" cy="276.3564" fill="#ADD1B2" rx="11" ry="11" style="stroke:#A80036;stroke-width:1.0;"/><path d="M214,272.8564 Q214.2031,272.3564 214.4375,272.1064 Q214.6719,271.8564 214.9375,271.8564 Q215.4063,271.8564 215.7031,272.1377 Q216,272.4189 216,273.0752 L216,274.6377 Q216,275.2939 215.7188,275.5752 Q215.4375,275.8564 215,275.8564 Q214.6094,275.8564 214.3594,275.6846 Q214.1094,275.5127 214,275.0596 Q213.9531,274.7471 213.7813,274.5752 Q213.4688,274.2471 212.9063,274.0596 Q212.3438,273.8564 211.7813,273.8564 Q211.0781,273.8564 210.4844,274.1377 Q209.9063,274.4189 209.4531,275.0439 Q209,275.6689 209,276.5283 L209,277.4502 Q209,278.4814 209.8438,279.1689 Q210.6875,279.8564 212.1875,279.8564 Q213.0781,279.8564 213.7031,279.6533 Q214.0625,279.5439 214.4688,279.1846 Q214.7344,278.9814 214.875,278.9189 Q215.0156,278.8564 215.1875,278.8564 Q215.5156,278.8564 215.75,279.1221 Q216,279.3721 216,279.7314 Q216,280.0752 215.6563,280.4814 Q215.1563,281.0752 214.3594,281.4033 Q213.3125,281.8564 212.0313,281.8564 Q210.5313,281.8564 209.3281,281.2627 Q208.3594,280.7939 207.6719,279.7783 Q207,278.7627 207,277.5596 L207,276.4658 Q207,275.2158 207.5938,274.1221 Q208.2031,273.0283 209.25,272.4502 Q210.3125,271.8564 211.5,271.8564 Q212.2188,271.8564 212.8438,272.1064 Q213.4688,272.3564 214,272.8564 Z " fill="#000000"/><text fill="#000000" font-family="sans-serif" font-size="12" lengthAdjust="spacingAndGlyphs" textLength="52" x="226" y="281.2666">Farmacia</text><line style="stroke:#A80036;stroke-width:1.5;" x1="198" x2="280" y1="292.3564" y2="292.3564"/><!--MD5=[e144ea1371700385800f6d94a8820da2]
class Fatura--><rect codeLine="18" fill="#FEFECE" filter="url(#fjra3u5q9niqd)" height="40" id="Fatura" style="stroke:#A80036;stroke-width:1.5;" width="67" x="859.5" y="730.3564"/><ellipse cx="874.5" cy="746.3564" fill="#ADD1B2" rx="11" ry="11" style="stroke:#A80036;stroke-width:1.0;"/><path d="M876.5,742.8564 Q876.7031,742.3564 876.9375,742.1064 Q877.1719,741.8564 877.4375,741.8564 Q877.9063,741.8564 878.2031,742.1377 Q878.5,742.4189 878.5,743.0752 L878.5,744.6377 Q878.5,745.2939 878.2188,745.5752 Q877.9375,745.8564 877.5,745.8564 Q877.1094,745.8564 876.8594,745.6846 Q876.6094,745.5127 876.5,745.0596 Q876.4531,744.7471 876.2813,744.5752 Q875.9688,744.2471 875.4063,744.0596 Q874.8438,743.8564 874.2813,743.8564 Q873.5781,743.8564 872.9844,744.1377 Q872.4063,744.4189 871.9531,745.0439 Q871.5,745.6689 871.5,746.5283 L871.5,747.4502 Q871.5,748.4814 872.3438,749.1689 Q873.1875,749.8564 874.6875,749.8564 Q875.5781,749.8564 876.2031,749.6533 Q876.5625,749.5439 876.9688,749.1846 Q877.2344,748.9814 877.375,748.9189 Q877.5156,748.8564 877.6875,748.8564 Q878.0156,748.8564 878.25,749.1221 Q878.5,749.3721 878.5,749.7314 Q878.5,750.0752 878.1563,750.4814 Q877.6563,751.0752 876.8594,751.4033 Q875.8125,751.8564 874.5313,751.8564 Q873.0313,751.8564 871.8281,751.2627 Q870.8594,750.7939 870.1719,749.7783 Q869.5,748.7627 869.5,747.5596 L869.5,746.4658 Q869.5,745.2158 870.0938,744.1221 Q870.7031,743.0283 871.75,742.4502 Q872.8125,741.8564 874,741.8564 Q874.7188,741.8564 875.3438,742.1064 Q875.9688,742.3564 876.5,742.8564 Z " fill="#000000"/><text fill="#000000" font-family="sans-serif" font-size="12" lengthAdjust="spacingAndGlyphs" textLength="35" x="888.5" y="751.2666">Fatura</text><line style="stroke:#A80036;stroke-width:1.5;" x1="860.5" x2="925.5" y1="762.3564" y2="762.3564"/><!--MD5=[8af077d71518f0cbf922177eda492261]
class GestorFarmacia--><rect codeLine="20" fill="#FEFECE" filter="url(#fjra3u5q9niqd)" height="40" id="GestorFarmacia" style="stroke:#A80036;stroke-width:1.5;" width="121" x="399" y="331.3564"/><ellipse cx="414" cy="347.3564" fill="#ADD1B2" rx="11" ry="11" style="stroke:#A80036;stroke-width:1.0;"/><path d="M416,343.8564 Q416.2031,343.3564 416.4375,343.1064 Q416.6719,342.8564 416.9375,342.8564 Q417.4063,342.8564 417.7031,343.1377 Q418,343.4189 418,344.0752 L418,345.6377 Q418,346.2939 417.7188,346.5752 Q417.4375,346.8564 417,346.8564 Q416.6094,346.8564 416.3594,346.6846 Q416.1094,346.5127 416,346.0596 Q415.9531,345.7471 415.7813,345.5752 Q415.4688,345.2471 414.9063,345.0596 Q414.3438,344.8564 413.7813,344.8564 Q413.0781,344.8564 412.4844,345.1377 Q411.9063,345.4189 411.4531,346.0439 Q411,346.6689 411,347.5283 L411,348.4502 Q411,349.4814 411.8438,350.1689 Q412.6875,350.8564 414.1875,350.8564 Q415.0781,350.8564 415.7031,350.6533 Q416.0625,350.5439 416.4688,350.1846 Q416.7344,349.9814 416.875,349.9189 Q417.0156,349.8564 417.1875,349.8564 Q417.5156,349.8564 417.75,350.1221 Q418,350.3721 418,350.7314 Q418,351.0752 417.6563,351.4814 Q417.1563,352.0752 416.3594,352.4033 Q415.3125,352.8564 414.0313,352.8564 Q412.5313,352.8564 411.3281,352.2627 Q410.3594,351.7939 409.6719,350.7783 Q409,349.7627 409,348.5596 L409,347.4658 Q409,346.2158 409.5938,345.1221 Q410.2031,344.0283 411.25,343.4502 Q412.3125,342.8564 413.5,342.8564 Q414.2188,342.8564 414.8438,343.1064 Q415.4688,343.3564 416,343.8564 Z " fill="#000000"/><text fill="#000000" font-family="sans-serif" font-size="12" lengthAdjust="spacingAndGlyphs" textLength="89" x="428" y="352.2666">GestorFarmacia</text><line style="stroke:#A80036;stroke-width:1.5;" x1="400" x2="519" y1="363.3564" y2="363.3564"/><!--MD5=[5457ea00c144b9429528dda2b1dc98a8]
class LugaresEstacionamento--><rect codeLine="22" fill="#FEFECE" filter="url(#fjra3u5q9niqd)" height="40" id="LugaresEstacionamento" style="stroke:#A80036;stroke-width:1.5;" width="168" x="550" y="75.3564"/><ellipse cx="565" cy="91.3564" fill="#ADD1B2" rx="11" ry="11" style="stroke:#A80036;stroke-width:1.0;"/><path d="M567,87.8564 Q567.2031,87.3564 567.4375,87.1064 Q567.6719,86.8564 567.9375,86.8564 Q568.4063,86.8564 568.7031,87.1377 Q569,87.4189 569,88.0752 L569,89.6377 Q569,90.2939 568.7188,90.5752 Q568.4375,90.8564 568,90.8564 Q567.6094,90.8564 567.3594,90.6846 Q567.1094,90.5127 567,90.0596 Q566.9531,89.7471 566.7813,89.5752 Q566.4688,89.2471 565.9063,89.0596 Q565.3438,88.8564 564.7813,88.8564 Q564.0781,88.8564 563.4844,89.1377 Q562.9063,89.4189 562.4531,90.0439 Q562,90.6689 562,91.5283 L562,92.4502 Q562,93.4814 562.8438,94.1689 Q563.6875,94.8564 565.1875,94.8564 Q566.0781,94.8564 566.7031,94.6533 Q567.0625,94.5439 567.4688,94.1846 Q567.7344,93.9814 567.875,93.9189 Q568.0156,93.8564 568.1875,93.8564 Q568.5156,93.8564 568.75,94.1221 Q569,94.3721 569,94.7314 Q569,95.0752 568.6563,95.4814 Q568.1563,96.0752 567.3594,96.4033 Q566.3125,96.8564 565.0313,96.8564 Q563.5313,96.8564 562.3281,96.2627 Q561.3594,95.7939 560.6719,94.7783 Q560,93.7627 560,92.5596 L560,91.4658 Q560,90.2158 560.5938,89.1221 Q561.2031,88.0283 562.25,87.4502 Q563.3125,86.8564 564.5,86.8564 Q565.2188,86.8564 565.8438,87.1064 Q566.4688,87.3564 567,87.8564 Z " fill="#000000"/><text fill="#000000" font-family="sans-serif" font-size="12" lengthAdjust="spacingAndGlyphs" textLength="136" x="579" y="96.2666">LugaresEstacionamento</text><line style="stroke:#A80036;stroke-width:1.5;" x1="551" x2="717" y1="107.3564" y2="107.3564"/><!--MD5=[77c6229b59f71ada4b7bed0495e5baba]
class Morada--><rect codeLine="24" fill="#FEFECE" filter="url(#fjra3u5q9niqd)" height="40" id="Morada" style="stroke:#A80036;stroke-width:1.5;" width="73" x="966" y="355.3564"/><ellipse cx="981" cy="371.3564" fill="#ADD1B2" rx="11" ry="11" style="stroke:#A80036;stroke-width:1.0;"/><path d="M983,367.8564 Q983.2031,367.3564 983.4375,367.1064 Q983.6719,366.8564 983.9375,366.8564 Q984.4063,366.8564 984.7031,367.1377 Q985,367.4189 985,368.0752 L985,369.6377 Q985,370.2939 984.7188,370.5752 Q984.4375,370.8564 984,370.8564 Q983.6094,370.8564 983.3594,370.6846 Q983.1094,370.5127 983,370.0596 Q982.9531,369.7471 982.7813,369.5752 Q982.4688,369.2471 981.9063,369.0596 Q981.3438,368.8564 980.7813,368.8564 Q980.0781,368.8564 979.4844,369.1377 Q978.9063,369.4189 978.4531,370.0439 Q978,370.6689 978,371.5283 L978,372.4502 Q978,373.4814 978.8438,374.1689 Q979.6875,374.8564 981.1875,374.8564 Q982.0781,374.8564 982.7031,374.6533 Q983.0625,374.5439 983.4688,374.1846 Q983.7344,373.9814 983.875,373.9189 Q984.0156,373.8564 984.1875,373.8564 Q984.5156,373.8564 984.75,374.1221 Q985,374.3721 985,374.7314 Q985,375.0752 984.6563,375.4814 Q984.1563,376.0752 983.3594,376.4033 Q982.3125,376.8564 981.0313,376.8564 Q979.5313,376.8564 978.3281,376.2627 Q977.3594,375.7939 976.6719,374.7783 Q976,373.7627 976,372.5596 L976,371.4658 Q976,370.2158 976.5938,369.1221 Q977.2031,368.0283 978.25,367.4502 Q979.3125,366.8564 980.5,366.8564 Q981.2188,366.8564 981.8438,367.1064 Q982.4688,367.3564 983,367.8564 Z " fill="#000000"/><text fill="#000000" font-family="sans-serif" font-size="12" lengthAdjust="spacingAndGlyphs" textLength="41" x="995" y="376.2666">Morada</text><line style="stroke:#A80036;stroke-width:1.5;" x1="967" x2="1038" y1="387.3564" y2="387.3564"/><!--MD5=[f4402668d5d5bb8485350c0fdb60ac8e]
class Scooter--><rect codeLine="26" fill="#FEFECE" filter="url(#fjra3u5q9niqd)" height="40" id="Scooter" style="stroke:#A80036;stroke-width:1.5;" width="74" x="965.5" y="77.3564"/><ellipse cx="980.5" cy="93.3564" fill="#ADD1B2" rx="11" ry="11" style="stroke:#A80036;stroke-width:1.0;"/><path d="M982.5,89.8564 Q982.7031,89.3564 982.9375,89.1064 Q983.1719,88.8564 983.4375,88.8564 Q983.9063,88.8564 984.2031,89.1377 Q984.5,89.4189 984.5,90.0752 L984.5,91.6377 Q984.5,92.2939 984.2188,92.5752 Q983.9375,92.8564 983.5,92.8564 Q983.1094,92.8564 982.8594,92.6846 Q982.6094,92.5127 982.5,92.0596 Q982.4531,91.7471 982.2813,91.5752 Q981.9688,91.2471 981.4063,91.0596 Q980.8438,90.8564 980.2813,90.8564 Q979.5781,90.8564 978.9844,91.1377 Q978.4063,91.4189 977.9531,92.0439 Q977.5,92.6689 977.5,93.5283 L977.5,94.4502 Q977.5,95.4814 978.3438,96.1689 Q979.1875,96.8564 980.6875,96.8564 Q981.5781,96.8564 982.2031,96.6533 Q982.5625,96.5439 982.9688,96.1846 Q983.2344,95.9814 983.375,95.9189 Q983.5156,95.8564 983.6875,95.8564 Q984.0156,95.8564 984.25,96.1221 Q984.5,96.3721 984.5,96.7314 Q984.5,97.0752 984.1563,97.4814 Q983.6563,98.0752 982.8594,98.4033 Q981.8125,98.8564 980.5313,98.8564 Q979.0313,98.8564 977.8281,98.2627 Q976.8594,97.7939 976.1719,96.7783 Q975.5,95.7627 975.5,94.5596 L975.5,93.4658 Q975.5,92.2158 976.0938,91.1221 Q976.7031,90.0283 977.75,89.4502 Q978.8125,88.8564 980,88.8564 Q980.7188,88.8564 981.3438,89.1064 Q981.9688,89.3564 982.5,89.8564 Z " fill="#000000"/><text fill="#000000" font-family="sans-serif" font-size="12" lengthAdjust="spacingAndGlyphs" textLength="42" x="994.5" y="98.2666">Scooter</text><line style="stroke:#A80036;stroke-width:1.5;" x1="966.5" x2="1038.5" y1="109.3564" y2="109.3564"/><!--MD5=[2e3f1e60e74253ff42e47f8bfdb04ee2]
class Drone--><rect codeLine="28" fill="#FEFECE" filter="url(#fjra3u5q9niqd)" height="40" id="Drone" style="stroke:#A80036;stroke-width:1.5;" width="66" x="860" y="118.3564"/><ellipse cx="875" cy="134.3564" fill="#ADD1B2" rx="11" ry="11" style="stroke:#A80036;stroke-width:1.0;"/><path d="M877,130.8564 Q877.2031,130.3564 877.4375,130.1064 Q877.6719,129.8564 877.9375,129.8564 Q878.4063,129.8564 878.7031,130.1377 Q879,130.4189 879,131.0752 L879,132.6377 Q879,133.2939 878.7188,133.5752 Q878.4375,133.8564 878,133.8564 Q877.6094,133.8564 877.3594,133.6846 Q877.1094,133.5127 877,133.0596 Q876.9531,132.7471 876.7813,132.5752 Q876.4688,132.2471 875.9063,132.0596 Q875.3438,131.8564 874.7813,131.8564 Q874.0781,131.8564 873.4844,132.1377 Q872.9063,132.4189 872.4531,133.0439 Q872,133.6689 872,134.5283 L872,135.4502 Q872,136.4814 872.8438,137.1689 Q873.6875,137.8564 875.1875,137.8564 Q876.0781,137.8564 876.7031,137.6533 Q877.0625,137.5439 877.4688,137.1846 Q877.7344,136.9814 877.875,136.9189 Q878.0156,136.8564 878.1875,136.8564 Q878.5156,136.8564 878.75,137.1221 Q879,137.3721 879,137.7314 Q879,138.0752 878.6563,138.4814 Q878.1563,139.0752 877.3594,139.4033 Q876.3125,139.8564 875.0313,139.8564 Q873.5313,139.8564 872.3281,139.2627 Q871.3594,138.7939 870.6719,137.7783 Q870,136.7627 870,135.5596 L870,134.4658 Q870,133.2158 870.5938,132.1221 Q871.2031,131.0283 872.25,130.4502 Q873.3125,129.8564 874.5,129.8564 Q875.2188,129.8564 875.8438,130.1064 Q876.4688,130.3564 877,130.8564 Z " fill="#000000"/><text fill="#000000" font-family="sans-serif" font-size="12" lengthAdjust="spacingAndGlyphs" textLength="34" x="889" y="139.2666">Drone</text><line style="stroke:#A80036;stroke-width:1.5;" x1="861" x2="925" y1="150.3564" y2="150.3564"/><!--MD5=[d4dacc50d49878ba7c621dfc80a2e1ce]
class Produto--><rect codeLine="30" fill="#FEFECE" filter="url(#fjra3u5q9niqd)" height="40" id="Produto" style="stroke:#A80036;stroke-width:1.5;" width="75" x="1368" y="127.3564"/><ellipse cx="1383" cy="143.3564" fill="#ADD1B2" rx="11" ry="11" style="stroke:#A80036;stroke-width:1.0;"/><path d="M1385,139.8564 Q1385.2031,139.3564 1385.4375,139.1064 Q1385.6719,138.8564 1385.9375,138.8564 Q1386.4063,138.8564 1386.7031,139.1377 Q1387,139.4189 1387,140.0752 L1387,141.6377 Q1387,142.2939 1386.7188,142.5752 Q1386.4375,142.8564 1386,142.8564 Q1385.6094,142.8564 1385.3594,142.6846 Q1385.1094,142.5127 1385,142.0596 Q1384.9531,141.7471 1384.7813,141.5752 Q1384.4688,141.2471 1383.9063,141.0596 Q1383.3438,140.8564 1382.7813,140.8564 Q1382.0781,140.8564 1381.4844,141.1377 Q1380.9063,141.4189 1380.4531,142.0439 Q1380,142.6689 1380,143.5283 L1380,144.4502 Q1380,145.4814 1380.8438,146.1689 Q1381.6875,146.8564 1383.1875,146.8564 Q1384.0781,146.8564 1384.7031,146.6533 Q1385.0625,146.5439 1385.4688,146.1846 Q1385.7344,145.9814 1385.875,145.9189 Q1386.0156,145.8564 1386.1875,145.8564 Q1386.5156,145.8564 1386.75,146.1221 Q1387,146.3721 1387,146.7314 Q1387,147.0752 1386.6563,147.4814 Q1386.1563,148.0752 1385.3594,148.4033 Q1384.3125,148.8564 1383.0313,148.8564 Q1381.5313,148.8564 1380.3281,148.2627 Q1379.3594,147.7939 1378.6719,146.7783 Q1378,145.7627 1378,144.5596 L1378,143.4658 Q1378,142.2158 1378.5938,141.1221 Q1379.2031,140.0283 1380.25,139.4502 Q1381.3125,138.8564 1382.5,138.8564 Q1383.2188,138.8564 1383.8438,139.1064 Q1384.4688,139.3564 1385,139.8564 Z " fill="#000000"/><text fill="#000000" font-family="sans-serif" font-size="12" lengthAdjust="spacingAndGlyphs" textLength="43" x="1397" y="148.2666">Produto</text><line style="stroke:#A80036;stroke-width:1.5;" x1="1369" x2="1442" y1="159.3564" y2="159.3564"/><!--MD5=[5dd1d6732c071e710b9290b531f2fa3b]
class Utilizador--><rect codeLine="32" fill="#FEFECE" filter="url(#fjra3u5q9niqd)" height="40" id="Utilizador" style="stroke:#A80036;stroke-width:1.5;" width="83" x="961" y="627.3564"/><ellipse cx="976" cy="643.3564" fill="#ADD1B2" rx="11" ry="11" style="stroke:#A80036;stroke-width:1.0;"/><path d="M978,639.8564 Q978.2031,639.3564 978.4375,639.1064 Q978.6719,638.8564 978.9375,638.8564 Q979.4063,638.8564 979.7031,639.1377 Q980,639.4189 980,640.0752 L980,641.6377 Q980,642.2939 979.7188,642.5752 Q979.4375,642.8564 979,642.8564 Q978.6094,642.8564 978.3594,642.6846 Q978.1094,642.5127 978,642.0596 Q977.9531,641.7471 977.7813,641.5752 Q977.4688,641.2471 976.9063,641.0596 Q976.3438,640.8564 975.7813,640.8564 Q975.0781,640.8564 974.4844,641.1377 Q973.9063,641.4189 973.4531,642.0439 Q973,642.6689 973,643.5283 L973,644.4502 Q973,645.4814 973.8438,646.1689 Q974.6875,646.8564 976.1875,646.8564 Q977.0781,646.8564 977.7031,646.6533 Q978.0625,646.5439 978.4688,646.1846 Q978.7344,645.9814 978.875,645.9189 Q979.0156,645.8564 979.1875,645.8564 Q979.5156,645.8564 979.75,646.1221 Q980,646.3721 980,646.7314 Q980,647.0752 979.6563,647.4814 Q979.1563,648.0752 978.3594,648.4033 Q977.3125,648.8564 976.0313,648.8564 Q974.5313,648.8564 973.3281,648.2627 Q972.3594,647.7939 971.6719,646.7783 Q971,645.7627 971,644.5596 L971,643.4658 Q971,642.2158 971.5938,641.1221 Q972.2031,640.0283 973.25,639.4502 Q974.3125,638.8564 975.5,638.8564 Q976.2188,638.8564 976.8438,639.1064 Q977.4688,639.3564 978,639.8564 Z " fill="#000000"/><text fill="#000000" font-family="sans-serif" font-size="12" lengthAdjust="spacingAndGlyphs" textLength="51" x="990" y="648.2666">Utilizador</text><line style="stroke:#A80036;stroke-width:1.5;" x1="962" x2="1043" y1="659.3564" y2="659.3564"/><!--MD5=[8505c5852735283b5a8424161266bb9f]
class Veiculo--><rect fill="#FEFECE" filter="url(#fjra3u5q9niqd)" height="40" id="Veiculo" style="stroke:#A80036;stroke-width:1.5;" width="72" x="1175.5" y="150.3564"/><ellipse cx="1190.5" cy="166.3564" fill="#ADD1B2" rx="11" ry="11" style="stroke:#A80036;stroke-width:1.0;"/><path d="M1192.5,162.8564 Q1192.7031,162.3564 1192.9375,162.1064 Q1193.1719,161.8564 1193.4375,161.8564 Q1193.9063,161.8564 1194.2031,162.1377 Q1194.5,162.4189 1194.5,163.0752 L1194.5,164.6377 Q1194.5,165.2939 1194.2188,165.5752 Q1193.9375,165.8564 1193.5,165.8564 Q1193.1094,165.8564 1192.8594,165.6846 Q1192.6094,165.5127 1192.5,165.0596 Q1192.4531,164.7471 1192.2813,164.5752 Q1191.9688,164.2471 1191.4063,164.0596 Q1190.8438,163.8564 1190.2813,163.8564 Q1189.5781,163.8564 1188.9844,164.1377 Q1188.4063,164.4189 1187.9531,165.0439 Q1187.5,165.6689 1187.5,166.5283 L1187.5,167.4502 Q1187.5,168.4814 1188.3438,169.1689 Q1189.1875,169.8564 1190.6875,169.8564 Q1191.5781,169.8564 1192.2031,169.6533 Q1192.5625,169.5439 1192.9688,169.1846 Q1193.2344,168.9814 1193.375,168.9189 Q1193.5156,168.8564 1193.6875,168.8564 Q1194.0156,168.8564 1194.25,169.1221 Q1194.5,169.3721 1194.5,169.7314 Q1194.5,170.0752 1194.1563,170.4814 Q1193.6563,171.0752 1192.8594,171.4033 Q1191.8125,171.8564 1190.5313,171.8564 Q1189.0313,171.8564 1187.8281,171.2627 Q1186.8594,170.7939 1186.1719,169.7783 Q1185.5,168.7627 1185.5,167.5596 L1185.5,166.4658 Q1185.5,165.2158 1186.0938,164.1221 Q1186.7031,163.0283 1187.75,162.4502 Q1188.8125,161.8564 1190,161.8564 Q1190.7188,161.8564 1191.3438,162.1064 Q1191.9688,162.3564 1192.5,162.8564 Z " fill="#000000"/><text fill="#000000" font-family="sans-serif" font-size="12" lengthAdjust="spacingAndGlyphs" textLength="40" x="1204.5" y="171.2666">Veiculo</text><line style="stroke:#A80036;stroke-width:1.5;" x1="1176.5" x2="1246.5" y1="182.3564" y2="182.3564"/><!--MD5=[827df7788a5cdfbe13e03a23f586a95c]
class LugarDrone--><rect fill="#FEFECE" filter="url(#fjra3u5q9niqd)" height="40" id="LugarDrone" style="stroke:#A80036;stroke-width:1.5;" width="98" x="410.5" y="163.3564"/><ellipse cx="425.5" cy="179.3564" fill="#ADD1B2" rx="11" ry="11" style="stroke:#A80036;stroke-width:1.0;"/><path d="M427.5,175.8564 Q427.7031,175.3564 427.9375,175.1064 Q428.1719,174.8564 428.4375,174.8564 Q428.9063,174.8564 429.2031,175.1377 Q429.5,175.4189 429.5,176.0752 L429.5,177.6377 Q429.5,178.2939 429.2188,178.5752 Q428.9375,178.8564 428.5,178.8564 Q428.1094,178.8564 427.8594,178.6846 Q427.6094,178.5127 427.5,178.0596 Q427.4531,177.7471 427.2813,177.5752 Q426.9688,177.2471 426.4063,177.0596 Q425.8438,176.8564 425.2813,176.8564 Q424.5781,176.8564 423.9844,177.1377 Q423.4063,177.4189 422.9531,178.0439 Q422.5,178.6689 422.5,179.5283 L422.5,180.4502 Q422.5,181.4814 423.3438,182.1689 Q424.1875,182.8564 425.6875,182.8564 Q426.5781,182.8564 427.2031,182.6533 Q427.5625,182.5439 427.9688,182.1846 Q428.2344,181.9814 428.375,181.9189 Q428.5156,181.8564 428.6875,181.8564 Q429.0156,181.8564 429.25,182.1221 Q429.5,182.3721 429.5,182.7314 Q429.5,183.0752 429.1563,183.4814 Q428.6563,184.0752 427.8594,184.4033 Q426.8125,184.8564 425.5313,184.8564 Q424.0313,184.8564 422.8281,184.2627 Q421.8594,183.7939 421.1719,182.7783 Q420.5,181.7627 420.5,180.5596 L420.5,179.4658 Q420.5,178.2158 421.0938,177.1221 Q421.7031,176.0283 422.75,175.4502 Q423.8125,174.8564 425,174.8564 Q425.7188,174.8564 426.3438,175.1064 Q426.9688,175.3564 427.5,175.8564 Z " fill="#000000"/><text fill="#000000" font-family="sans-serif" font-size="12" lengthAdjust="spacingAndGlyphs" textLength="66" x="439.5" y="184.2666">LugarDrone</text><line style="stroke:#A80036;stroke-width:1.5;" x1="411.5" x2="507.5" y1="195.3564" y2="195.3564"/><!--MD5=[fa9562231c0bb09e22a6fdebdf5dda28]
link Admin to Utilizador--><path codeLine="36" d="M74.31,672.2064 C113.15,680.7964 179.89,693.3564 238,693.3564 C238,693.3564 238,693.3564 787.5,693.3564 C848.87,693.3564 917.98,675.0464 960.64,661.5364 " fill="none" id="Admin-Utilizador" style="stroke:#A80036;stroke-width:1.0;"/><polygon fill="#000000" points="431.4996,684.472,422.4198,681.6422,422.4906,687.5196,431.4996,684.472" style="stroke:#000000;stroke-width:1.0;"/><text fill="#000000" font-family="sans-serif" font-size="13" lengthAdjust="spacingAndGlyphs" textLength="61" x="435.5" y="689.8516">atua como</text><text fill="#000000" font-family="sans-serif" font-size="13" lengthAdjust="spacingAndGlyphs" textLength="7" x="82.0052" y="689.0069">1</text><text fill="#000000" font-family="sans-serif" font-size="13" lengthAdjust="spacingAndGlyphs" textLength="7" x="946.1273" y="678.7342">1</text><!--MD5=[9ee5e1d8d63d494671f347dc00354dda]
link Admin to Farmacia--><path codeLine="37" d="M51.79,644.2564 C85.67,578.0464 193.5,367.3064 227.58,300.7264 " fill="none" id="Admin-Farmacia" style="stroke:#A80036;stroke-width:1.0;"/><polygon fill="#000000" points="111.2777,414.0811,104.541,420.7944,109.7736,423.472,111.2777,414.0811" style="stroke:#000000;stroke-width:1.0;"/><text fill="#000000" font-family="sans-serif" font-size="13" lengthAdjust="spacingAndGlyphs" textLength="48" x="118" y="423.8516">adiciona</text><text fill="#000000" font-family="sans-serif" font-size="13" lengthAdjust="spacingAndGlyphs" textLength="7" x="47.0783" y="633.5488">1</text><text fill="#000000" font-family="sans-serif" font-size="13" lengthAdjust="spacingAndGlyphs" textLength="22" x="199.5546" y="321.8932">0..1</text><!--MD5=[beec9e5f2ed2709028dd31c1dc478e7b]
link Cliente to Encomenda--><path codeLine="39" d="M822.03,532.9064 C851.11,533.1864 893.8,533.1464 931,531.3564 C1012.14,527.4464 1106.16,518.0264 1161.86,511.9264 " fill="none" id="Cliente-Encomenda" style="stroke:#A80036;stroke-width:1.0;"/><polygon fill="#000000" points="996.4905,514.2241,987.2815,511.8481,987.6437,517.7148,996.4905,514.2241" style="stroke:#000000;stroke-width:1.0;"/><text fill="#000000" font-family="sans-serif" font-size="13" lengthAdjust="spacingAndGlyphs" textLength="17" x="1000.5" y="519.8516">faz</text><text fill="#000000" font-family="sans-serif" font-size="13" lengthAdjust="spacingAndGlyphs" textLength="7" x="830.0799" y="548.2013">1</text><text fill="#000000" font-family="sans-serif" font-size="13" lengthAdjust="spacingAndGlyphs" textLength="20" x="1133.8459" y="527.2687">0..*</text><!--MD5=[00a2b7b20e7d7828fa181bc7c0dc6998]
link Cliente to Utilizador--><path codeLine="40" d="M804,552.3864 C816.67,566.6464 835.28,585.3264 855,597.3564 C888.04,617.5064 930.26,630.8064 960.88,638.5864 " fill="none" id="Cliente-Utilizador" style="stroke:#A80036;stroke-width:1.0;"/><polygon fill="#000000" points="864.3821,590.94,857.8701,584.0086,855.0396,589.16,864.3821,590.94" style="stroke:#000000;stroke-width:1.0;"/><text fill="#000000" font-family="sans-serif" font-size="13" lengthAdjust="spacingAndGlyphs" textLength="61" x="869" y="593.8516">atua como</text><text fill="#000000" font-family="sans-serif" font-size="13" lengthAdjust="spacingAndGlyphs" textLength="7" x="800.9375" y="573.8144">1</text><text fill="#000000" font-family="sans-serif" font-size="13" lengthAdjust="spacingAndGlyphs" textLength="7" x="946.125" y="651.9794">1</text><!--MD5=[a602fb0a2a1e983f14b1435561d150f4]
link Cliente to Morada--><path codeLine="41" d="M822.04,531.7464 C853.31,529.5564 899.2,522.1064 931,498.3564 C965.9,472.2864 986.24,423.4664 995.47,395.8164 " fill="none" id="Cliente-Morada" style="stroke:#A80036;stroke-width:1.0;"/><polygon fill="#000000" points="883.4353,486.4478,874.5033,489.7144,878.1292,494.3407,883.4353,486.4478" style="stroke:#000000;stroke-width:1.0;"/><text fill="#000000" font-family="sans-serif" font-size="13" lengthAdjust="spacingAndGlyphs" textLength="22" x="888.5" y="494.8516">tem</text><text fill="#000000" font-family="sans-serif" font-size="13" lengthAdjust="spacingAndGlyphs" textLength="7" x="830.092" y="527.502">1</text><text fill="#000000" font-family="sans-serif" font-size="13" lengthAdjust="spacingAndGlyphs" textLength="7" x="985.6401" y="417.0074">1</text><!--MD5=[60097591193c89dbde5dfd99b98b5263]
link Encomenda to Produto--><path codeLine="43" d="M1223.23,486.2864 C1256.88,423.3764 1360.02,230.5164 1393.72,167.5064 " fill="none" id="Encomenda-Produto" style="stroke:#A80036;stroke-width:1.0;"/><polygon fill="#000000" points="1298.358,261.1232,1291.5007,267.7132,1296.6839,270.4852,1298.358,261.1232" style="stroke:#000000;stroke-width:1.0;"/><text fill="#000000" font-family="sans-serif" font-size="13" lengthAdjust="spacingAndGlyphs" textLength="32" x="1305" y="270.8516">sobre</text><text fill="#000000" font-family="sans-serif" font-size="13" lengthAdjust="spacingAndGlyphs" textLength="7" x="1218.6476" y="475.5876">1</text><text fill="#000000" font-family="sans-serif" font-size="13" lengthAdjust="spacingAndGlyphs" textLength="20" x="1367.5944" y="188.9682">1..*</text><!--MD5=[39609d66ce6d06d1779a14455c909f6f]
link Entrega to Encomenda--><path codeLine="45" d="M1020.44,280.4864 C1059.35,326.7364 1154.76,440.1164 1193.62,486.2964 " fill="none" id="Entrega-Encomenda" style="stroke:#A80036;stroke-width:1.0;"/><polygon fill="#000000" points="1082.2192,342.358,1078.6443,333.5449,1074.1469,337.3293,1082.2192,342.358" style="stroke:#000000;stroke-width:1.0;"/><text fill="#000000" font-family="sans-serif" font-size="13" lengthAdjust="spacingAndGlyphs" textLength="43" x="1088" y="343.8516">contem</text><text fill="#000000" font-family="sans-serif" font-size="13" lengthAdjust="spacingAndGlyphs" textLength="7" x="1017.5013" y="301.9426">1</text><text fill="#000000" font-family="sans-serif" font-size="13" lengthAdjust="spacingAndGlyphs" textLength="20" x="1165.4303" y="475.6006">1..*</text><!--MD5=[cd2aeefe8c457d184a69396a9f9cb06a]
link Entrega to Veiculo--><path codeLine="46" d="M1040.14,249.0464 C1066.21,240.5764 1101.81,228.1064 1132,214.3564 C1147.36,207.3664 1163.73,198.4364 1177.52,190.4564 " fill="none" id="Entrega-Veiculo" style="stroke:#A80036;stroke-width:1.0;"/><polygon fill="#000000" points="1088.0992,203.5708,1078.6262,204.4157,1080.9321,209.8224,1088.0992,203.5708" style="stroke:#000000;stroke-width:1.0;"/><text fill="#000000" font-family="sans-serif" font-size="13" lengthAdjust="spacingAndGlyphs" textLength="34" x="1092.5" y="210.8516">utiliza</text><text fill="#000000" font-family="sans-serif" font-size="13" lengthAdjust="spacingAndGlyphs" textLength="7" x="1047.9823" y="261.9441">1</text><text fill="#000000" font-family="sans-serif" font-size="13" lengthAdjust="spacingAndGlyphs" textLength="22" x="1145.6806" y="210.1369">0..1</text><!--MD5=[c85074c9090671f6c7988928e0d94203]
link Estafeta to Scooter--><path codeLine="48" d="M825.15,250.9164 C861.72,232.5564 914.13,204.9364 931,189.3564 C948.66,173.0464 946.46,163.4964 961,144.3564 C967.91,135.2664 976.04,125.6464 983.19,117.4864 " fill="none" id="Estafeta-Scooter" style="stroke:#A80036;stroke-width:1.0;"/><polygon fill="#000000" points="883.8205,177.3067,875.0133,180.8961,878.8051,185.3874,883.8205,177.3067" style="stroke:#000000;stroke-width:1.0;"/><text fill="#000000" font-family="sans-serif" font-size="13" lengthAdjust="spacingAndGlyphs" textLength="21" x="889" y="185.8516">usa</text><text fill="#000000" font-family="sans-serif" font-size="13" lengthAdjust="spacingAndGlyphs" textLength="7" x="832.9214" y="262.5191">1</text><text fill="#000000" font-family="sans-serif" font-size="13" lengthAdjust="spacingAndGlyphs" textLength="7" x="969.7747" y="138.9426">1</text><!--MD5=[089fe6f586f20a69513fcb284eaee70a]
link Estafeta to Morada--><path codeLine="49" d="M825,286.0164 C854.16,299.1764 895.47,318.2664 931,336.3564 C942.59,342.2564 955.07,349.0164 966.25,355.2364 " fill="none" id="Estafeta-Morada" style="stroke:#A80036;stroke-width:1.0;"/><polygon fill="#000000" points="883.9899,294.7325,877.1609,288.1131,874.5743,293.3912,883.9899,294.7325" style="stroke:#000000;stroke-width:1.0;"/><text fill="#000000" font-family="sans-serif" font-size="13" lengthAdjust="spacingAndGlyphs" textLength="22" x="888.5" y="297.8516">tem</text><text fill="#000000" font-family="sans-serif" font-size="13" lengthAdjust="spacingAndGlyphs" textLength="7" x="833.0063" y="304.2459">1</text><text fill="#000000" font-family="sans-serif" font-size="13" lengthAdjust="spacingAndGlyphs" textLength="7" x="951.0516" y="346.9681">1</text><!--MD5=[328dae9b2f192140d45e51cd90ecd75a]
link Estafeta to Entrega--><path codeLine="50" d="M825.27,267.7664 C864.62,266.1164 925.88,263.5364 964.83,261.8964 " fill="none" id="Estafeta-Entrega" style="stroke:#A80036;stroke-width:1.0;"/><polygon fill="#000000" points="886.9956,255.3221,877.835,252.7659,878.082,258.6385,886.9956,255.3221" style="stroke:#000000;stroke-width:1.0;"/><text fill="#000000" font-family="sans-serif" font-size="13" lengthAdjust="spacingAndGlyphs" textLength="17" x="891" y="260.8516">faz</text><text fill="#000000" font-family="sans-serif" font-size="13" lengthAdjust="spacingAndGlyphs" textLength="7" x="833.0635" y="282.4758">1</text><text fill="#000000" font-family="sans-serif" font-size="13" lengthAdjust="spacingAndGlyphs" textLength="20" x="936.9347" y="277.0007">0..*</text><!--MD5=[aa5a8ec5fd097e3d415964f18fa48efb]
link Estafeta to Utilizador--><path codeLine="51" d="M802.23,289.6964 C836.97,337.8264 921.84,456.1464 931,476.3564 C953.7,526.4264 936.69,547.0464 961,596.3564 C966.4,607.3064 974.45,618.0964 981.96,626.9064 " fill="none" id="Estafeta-Utilizador" style="stroke:#A80036;stroke-width:1.0;"/><polygon fill="#000000" points="862.3518,364.9446,860.6909,355.5802,855.5038,358.3449,862.3518,364.9446" style="stroke:#000000;stroke-width:1.0;"/><text fill="#000000" font-family="sans-serif" font-size="13" lengthAdjust="spacingAndGlyphs" textLength="61" x="869" y="365.8516">atua como</text><text fill="#000000" font-family="sans-serif" font-size="13" lengthAdjust="spacingAndGlyphs" textLength="7" x="798.5168" y="310.8552">1</text><text fill="#000000" font-family="sans-serif" font-size="13" lengthAdjust="spacingAndGlyphs" textLength="7" x="968.1988" y="616.4494">1</text><!--MD5=[2616f85fad36dd9f3c806011aba200f0]
link Farmacia to Morada--><path codeLine="53" d="M260.41,300.4064 C288.72,326.6464 342.8,371.2964 399,388.3564 C605.74,451.1064 870.98,404.1664 965.82,383.6664 " fill="none" id="Farmacia-Morada" style="stroke:#A80036;stroke-width:1.0;"/><polygon fill="#000000" points="617.4655,409.1183,608.8273,405.1394,608.1383,410.9767,617.4655,409.1183" style="stroke:#000000;stroke-width:1.0;"/><text fill="#000000" font-family="sans-serif" font-size="13" lengthAdjust="spacingAndGlyphs" textLength="38" x="621.5" y="413.8516">possui</text><text fill="#000000" font-family="sans-serif" font-size="13" lengthAdjust="spacingAndGlyphs" textLength="7" x="258.4472" y="321.8401">1</text><text fill="#000000" font-family="sans-serif" font-size="13" lengthAdjust="spacingAndGlyphs" textLength="7" x="950.9096" y="400.4072">1</text><!--MD5=[06143d4fc5f7e61d4193d2b4f541983b]
link Farmacia to Estafeta--><path codeLine="54" d="M281,279.5264 C383.33,277.4664 648.84,272.1164 747.69,270.1164 " fill="none" id="Farmacia-Estafeta" style="stroke:#A80036;stroke-width:1.0;"/><polygon fill="#000000" points="442.999,266.4314,433.8965,263.6754,434.015,269.5521,442.999,266.4314" style="stroke:#000000;stroke-width:1.0;"/><text fill="#000000" font-family="sans-serif" font-size="13" lengthAdjust="spacingAndGlyphs" textLength="38" x="447" y="271.8516">possui</text><text fill="#000000" font-family="sans-serif" font-size="13" lengthAdjust="spacingAndGlyphs" textLength="7" x="289.1047" y="275.48">1</text><text fill="#000000" font-family="sans-serif" font-size="13" lengthAdjust="spacingAndGlyphs" textLength="20" x="719.9109" y="285.0357">1..*</text><!--MD5=[1cf6c53149ab3559ee7cfdfd47d8f21a]
link Farmacia to GestorFarmacia--><path codeLine="55" d="M281.1,293.7064 C314.23,304.4764 361.28,319.7664 398.6,331.8964 " fill="none" id="Farmacia-GestorFarmacia" style="stroke:#A80036;stroke-width:1.0;"/><polygon fill="#000000" points="323.2551,298.0777,315.5614,292.4869,313.7446,298.0769,323.2551,298.0777" style="stroke:#000000;stroke-width:1.0;"/><text fill="#000000" font-family="sans-serif" font-size="13" lengthAdjust="spacingAndGlyphs" textLength="38" x="327.5" y="301.8516">possui</text><text fill="#000000" font-family="sans-serif" font-size="13" lengthAdjust="spacingAndGlyphs" textLength="7" x="288.9375" y="310.9013">1</text><text fill="#000000" font-family="sans-serif" font-size="13" lengthAdjust="spacingAndGlyphs" textLength="7" x="384.1538" y="344.0868">1</text><!--MD5=[46341e638a775fc991e96a6cf0521dee]
link Farmacia to Fatura--><path codeLine="56" d="M242.59,300.5664 C248.38,338.1864 265.63,419.6464 311,469.3564 C470.38,643.9664 761.73,721.6364 859.23,743.5464 " fill="none" id="Farmacia-Fatura" style="stroke:#A80036;stroke-width:1.0;"/><polygon fill="#000000" points="448.5608,541.4494,442.9294,533.7853,439.5001,538.5591,448.5608,541.4494" style="stroke:#000000;stroke-width:1.0;"/><text fill="#000000" font-family="sans-serif" font-size="13" lengthAdjust="spacingAndGlyphs" textLength="25" x="453.5" y="543.8516">gera</text><text fill="#000000" font-family="sans-serif" font-size="13" lengthAdjust="spacingAndGlyphs" textLength="7" x="235.6142" y="321.6902">1</text><text fill="#000000" font-family="sans-serif" font-size="13" lengthAdjust="spacingAndGlyphs" textLength="20" x="831.4335" y="757.2848">0..*</text><!--MD5=[db4a5ac14aaeb2d946b80db0d46ff947]
link Farmacia to Produto--><path codeLine="57" d="M246.17,260.2664 C266.07,199.9164 334.62,24.3564 458.5,24.3564 C458.5,24.3564 458.5,24.3564 1212.5,24.3564 C1287.91,24.3564 1357.41,92.4664 1388.04,127.3164 " fill="none" id="Farmacia-Produto" style="stroke:#A80036;stroke-width:1.0;"/><polygon fill="#000000" points="876.4664,14.954,867.1422,13.0808,867.8219,18.9192,876.4664,14.954" style="stroke:#000000;stroke-width:1.0;"/><text fill="#000000" font-family="sans-serif" font-size="13" lengthAdjust="spacingAndGlyphs" textLength="38" x="880.5" y="20.8516">possui</text><text fill="#000000" font-family="sans-serif" font-size="13" lengthAdjust="spacingAndGlyphs" textLength="7" x="240.2481" y="249.5618">1</text><text fill="#000000" font-family="sans-serif" font-size="13" lengthAdjust="spacingAndGlyphs" textLength="20" x="1359.9736" y="116.6264">0..*</text><!--MD5=[82468c90e45356ed6b7ce39aa6c0bc41]
link Farmacia to LugaresEstacionamento--><path codeLine="58" d="M250.24,260.1764 C262.2,238.3864 283.85,203.9064 311,182.3564 C379.6,127.9064 479.54,107.4264 549.84,99.7864 " fill="none" id="Farmacia-LugaresEstacionamento" style="stroke:#A80036;stroke-width:1.0;"/><polygon fill="#000000" points="320.4081,138.1724,311.0467,139.8504,313.8209,145.0324,320.4081,138.1724" style="stroke:#000000;stroke-width:1.0;"/><text fill="#000000" font-family="sans-serif" font-size="13" lengthAdjust="spacingAndGlyphs" textLength="43" x="325" y="145.8516">contem</text><text fill="#000000" font-family="sans-serif" font-size="13" lengthAdjust="spacingAndGlyphs" textLength="7" x="245.5136" y="249.4453">1</text><text fill="#000000" font-family="sans-serif" font-size="13" lengthAdjust="spacingAndGlyphs" textLength="5" x="537.1218" y="114.4043">*</text><!--MD5=[a6a1e5113a9503afa9cc9080e096d008]
link Farmacia to LugarDrone--><path codeLine="59" d="M264.45,260.3264 C277.63,250.2764 294.53,238.5364 311,230.3564 C342.65,214.6364 380.71,202.6664 410.23,194.7364 " fill="none" id="Farmacia-LugarDrone" style="stroke:#A80036;stroke-width:1.0;"/><polygon fill="#000000" points="320.5597,197.4807,311.1052,198.5118,313.517,203.8721,320.5597,197.4807" style="stroke:#000000;stroke-width:1.0;"/><text fill="#000000" font-family="sans-serif" font-size="13" lengthAdjust="spacingAndGlyphs" textLength="43" x="325" y="204.8516">contem</text><text fill="#000000" font-family="sans-serif" font-size="13" lengthAdjust="spacingAndGlyphs" textLength="7" x="263.8978" y="249.6394">1</text><text fill="#000000" font-family="sans-serif" font-size="13" lengthAdjust="spacingAndGlyphs" textLength="5" x="397.6263" y="211.1038">*</text><!--MD5=[57fddc4944d590e5ca518c87120f1373]
link Fatura to Encomenda--><path codeLine="62" d="M926.72,745.5664 C958.75,739.6864 1007.86,727.3664 1044,703.3564 C1116.55,655.1564 1174.97,566.4864 1198.85,526.6564 " fill="none" id="Fatura-Encomenda" style="stroke:#A80036;stroke-width:1.0;"/><polygon fill="#000000" points="987.8959,691.3982,979.006,694.7777,982.6903,699.3576,987.8959,691.3982" style="stroke:#000000;stroke-width:1.0;"/><text fill="#000000" font-family="sans-serif" font-size="13" lengthAdjust="spacingAndGlyphs" textLength="32" x="993" y="699.8516">sobre</text><text fill="#000000" font-family="sans-serif" font-size="13" lengthAdjust="spacingAndGlyphs" textLength="7" x="934.3966" y="759.7599">1</text><text fill="#000000" font-family="sans-serif" font-size="13" lengthAdjust="spacingAndGlyphs" textLength="20" x="1172.7628" y="547.8044">1..*</text><!--MD5=[6579fa845099eddb52660b54116332b2]
link GestorFarmacia to Utilizador--><path codeLine="64" d="M520.2,364.7864 C591.97,381.4564 704.5,409.5064 718,424.3564 C767.84,479.1864 700.9,531.1564 748,588.3564 C799.56,650.9764 903.44,654.7864 960.93,651.4764 " fill="none" id="GestorFarmacia-Utilizador" style="stroke:#A80036;stroke-width:1.0;"/><polygon fill="#000000" points="757.6913,582.2586,751.7117,574.863,748.5067,579.7901,757.6913,582.2586" style="stroke:#000000;stroke-width:1.0;"/><text fill="#000000" font-family="sans-serif" font-size="13" lengthAdjust="spacingAndGlyphs" textLength="61" x="762.5" y="584.8516">atua como</text><text fill="#000000" font-family="sans-serif" font-size="13" lengthAdjust="spacingAndGlyphs" textLength="7" x="528.0244" y="380.9148">1</text><text fill="#000000" font-family="sans-serif" font-size="13" lengthAdjust="spacingAndGlyphs" textLength="7" x="945.9019" y="667.1617">1</text><!--MD5=[e97561076ab41bb2d72c2e01b097abc4]
link GestorFarmacia to Morada--><path codeLine="65" d="M520.2,354.0064 C633.15,359.0164 874.9,369.7364 965.89,373.7764 " fill="none" id="GestorFarmacia-Morada" style="stroke:#A80036;stroke-width:1.0;"/><polygon fill="#000000" points="777.9951,355.7538,769.0891,352.4169,768.8287,358.289,777.9951,355.7538" style="stroke:#000000;stroke-width:1.0;"/><text fill="#000000" font-family="sans-serif" font-size="13" lengthAdjust="spacingAndGlyphs" textLength="22" x="782" y="360.8516">tem</text><text fill="#000000" font-family="sans-serif" font-size="13" lengthAdjust="spacingAndGlyphs" textLength="7" x="528.0244" y="368.821">1</text><text fill="#000000" font-family="sans-serif" font-size="13" lengthAdjust="spacingAndGlyphs" textLength="7" x="950.9933" y="369.4201">1</text><!--MD5=[0f0bb255b40c413d255407b930a5cb9b]
link GestorFarmacia to Estafeta--><path codeLine="66" d="M520.26,341.1964 C584.42,329.9864 682.01,312.0064 718,300.3564 C727.94,297.1364 738.34,292.8564 747.93,288.4964 " fill="none" id="GestorFarmacia-Estafeta" style="stroke:#A80036;stroke-width:1.0;"/><polygon fill="#000000" points="612.3712,290.4047,602.8964,289.5812,604.2219,295.3077,612.3712,290.4047" style="stroke:#000000;stroke-width:1.0;"/><text fill="#000000" font-family="sans-serif" font-size="13" lengthAdjust="spacingAndGlyphs" textLength="48" x="616.5" y="296.8516">adiciona</text><text fill="#000000" font-family="sans-serif" font-size="13" lengthAdjust="spacingAndGlyphs" textLength="7" x="528.0917" y="354.4497">1</text><text fill="#000000" font-family="sans-serif" font-size="13" lengthAdjust="spacingAndGlyphs" textLength="7" x="732.9104" y="307.1986">1</text><!--MD5=[e81d850e7a5b9e1fe69c17e6e43abe38]
link LugaresEstacionamento to Scooter--><path codeLine="68" d="M718.16,95.8064 C795.89,96.2364 908.25,96.8464 965.31,97.1564 " fill="none" id="LugaresEstacionamento-Scooter" style="stroke:#A80036;stroke-width:1.0;"/><polygon fill="#000000" points="769.9999,87.5595,760.971,84.5712,760.9389,90.449,769.9999,87.5595" style="stroke:#000000;stroke-width:1.0;"/><text fill="#000000" font-family="sans-serif" font-size="13" lengthAdjust="spacingAndGlyphs" textLength="38" x="774" y="92.8516">possui</text><text fill="#000000" font-family="sans-serif" font-size="13" lengthAdjust="spacingAndGlyphs" textLength="7" x="725.9672" y="110.0698">1</text><text fill="#000000" font-family="sans-serif" font-size="13" lengthAdjust="spacingAndGlyphs" textLength="22" x="935.6297" y="111.9227">0..1</text><!--MD5=[32219a8c946140bfcdd53ab86d52c04d]
link LugarDrone to Drone--><path codeLine="69" d="M508.74,178.3264 C597.59,169.0564 784.85,149.5264 859.9,141.7064 " fill="none" id="LugarDrone-Drone" style="stroke:#A80036;stroke-width:1.0;"/><polygon fill="#000000" points="617.473,148.0136,608.1719,146.0287,608.7816,151.8749,617.473,148.0136" style="stroke:#000000;stroke-width:1.0;"/><text fill="#000000" font-family="sans-serif" font-size="13" lengthAdjust="spacingAndGlyphs" textLength="38" x="621.5" y="153.8516">possui</text><text fill="#000000" font-family="sans-serif" font-size="13" lengthAdjust="spacingAndGlyphs" textLength="7" x="516.4862" y="192.2836">1</text><text fill="#000000" font-family="sans-serif" font-size="13" lengthAdjust="spacingAndGlyphs" textLength="22" x="830.0447" y="157.2546">0..1</text><!--MD5=[c69bf41a1abefbb34fa6eecf3bf080e0]
link Drone to Veiculo--><path codeLine="71" d="M926.22,145.9964 C937.2,148.3664 949.58,150.7564 961,152.3564 C1036.91,162.9764 1126.75,167.5064 1175.22,169.2964 " fill="none" id="Drone-Veiculo" style="stroke:#A80036;stroke-width:1.0;"/><polygon fill="#000000" points="990.4783,143.9981,981.7463,140.2292,981.1987,146.0815,990.4783,143.9981" style="stroke:#000000;stroke-width:1.0;"/><text fill="#000000" font-family="sans-serif" font-size="13" lengthAdjust="spacingAndGlyphs" textLength="29" x="994.5" y="148.8516"> um</text><text fill="#000000" font-family="sans-serif" font-size="13" lengthAdjust="spacingAndGlyphs" textLength="7" x="933.7935" y="162.7536">1</text><text fill="#000000" font-family="sans-serif" font-size="13" lengthAdjust="spacingAndGlyphs" textLength="7" x="1160.3883" y="184.1925">1</text><!--MD5=[c1567b1d9228593706de91a55197413b]
link Scooter to Veiculo--><path codeLine="72" d="M1039.56,110.0764 C1077.67,123.5164 1137.38,144.5664 1175.2,157.9064 " fill="none" id="Scooter-Veiculo" style="stroke:#A80036;stroke-width:1.0;"/><polygon fill="#000000" points="1090.7154,116.195,1083.1625,110.4154,1081.2078,115.9587,1090.7154,116.195" style="stroke:#000000;stroke-width:1.0;"/><text fill="#000000" font-family="sans-serif" font-size="13" lengthAdjust="spacingAndGlyphs" textLength="29" x="1095" y="119.8516"> um</text><text fill="#000000" font-family="sans-serif" font-size="13" lengthAdjust="spacingAndGlyphs" textLength="7" x="1047.5453" y="127.6854">1</text><text fill="#000000" font-family="sans-serif" font-size="13" lengthAdjust="spacingAndGlyphs" textLength="7" x="1160.6131" y="170.5868">1</text><!--MD5=[224aa9d356ebf1b4605c8f528eac3ced]
@startuml

skinparam classAttributeIconSize 0
hide methods
left to right direction

class Admin{}

class Cliente{}

class Encomenda{}

class Entrega{}

class Estafeta{}

class Farmacia{}

class Fatura{}

class GestorFarmacia{}

class LugaresEstacionamento{}

class Morada{}

class Scooter{}

class Drone{}

class Produto{}

class Utilizador{}



Admin "1" - - "1" Utilizador : atua como >
Admin "1" - - "0..1" Farmacia : adiciona >

Cliente "1" - - "0..*" Encomenda : faz >
Cliente "1" - - "1" Utilizador : atua como >
Cliente "1" - - "1" Morada : tem >

Encomenda "1" - - "1..*" Produto : sobre >

Entrega "1" - - "1..*" Encomenda : contem >
Entrega "1" - - "0..1" Veiculo : utiliza >

Estafeta "1" - - "1" Scooter : usa >
Estafeta "1" - - "1" Morada : tem >
Estafeta "1" - - "0..*" Entrega : faz >
Estafeta "1" - - "1" Utilizador : atua como >

Farmacia "1" - - "1" Morada : possui >
Farmacia "1" - - "1..*" Estafeta : possui >
Farmacia "1" - - "1" GestorFarmacia : possui >
Farmacia "1" - - "0..*" Fatura : gera >
Farmacia "1" - - "0..*" Produto : possui >
Farmacia "1" - - "*" LugaresEstacionamento : contem >
Farmacia "1" - - "*" LugarDrone: contem >


Fatura "1" - - "1..*" Encomenda : sobre >

GestorFarmacia "1" - - "1" Utilizador : atua como >
GestorFarmacia "1" - - "1" Morada : tem >
GestorFarmacia "1" - - "1" Estafeta : adiciona >

LugaresEstacionamento "1" - - "0..1" Scooter : possui >
LugarDrone "1" - - "0..1" Drone : possui >

Drone "1" - - "1" Veiculo :  um >
Scooter "1" - - "1" Veiculo :  um >

@enduml

PlantUML version 1.2020.23(Sun Dec 13 19:14:58 GMT 2020)
(GPL source distribution)
Java Runtime: OpenJDK Runtime Environment
JVM: OpenJDK 64-Bit Server VM
Default Encoding: Cp1252
Language: pt
Country: PT
--></g></svg>