<?xml version="1.0" encoding="UTF-8" standalone="no"?><svg xmlns="http://www.w3.org/2000/svg" xmlns:xlink="http://www.w3.org/1999/xlink" contentScriptType="application/ecmascript" contentStyleType="text/css" height="609px" preserveAspectRatio="none" style="width:2428px;height:609px;" version="1.1" viewBox="0 0 2428 609" width="2428px" zoomAndPan="magnify"><defs><filter height="300%" id="f2xvqtx8gz52f" width="300%" x="-1" y="-1"><feGaussianBlur result="blurOut" stdDeviation="2.0"/><feColorMatrix in="blurOut" result="blurOut2" type="matrix" values="0 0 0 0 0 0 0 0 0 0 0 0 0 0 0 0 0 0 .4 0"/><feOffset dx="4.0" dy="4.0" in="blurOut2" result="blurOut3"/><feBlend in="SourceGraphic" in2="blurOut3" mode="normal"/></filter></defs><g><!--MD5=[d6e0f5ef4f4b68dc44674712acc7bff5]
class RegistarEstafetaUI--><rect codeLine="3" fill="#FEFECE" filter="url(#f2xvqtx8gz52f)" height="61.8359" id="RegistarEstafetaUI" style="stroke:#A80036;stroke-width:1.5;" width="161" x="7" y="278"/><ellipse cx="33.25" cy="294" fill="#ADD1B2" rx="11" ry="11" style="stroke:#A80036;stroke-width:1.0;"/><path d="M35.25,290.5 Q35.4531,290 35.6875,289.75 Q35.9219,289.5 36.1875,289.5 Q36.6563,289.5 36.9531,289.7813 Q37.25,290.0625 37.25,290.7188 L37.25,292.2813 Q37.25,292.9375 36.9688,293.2188 Q36.6875,293.5 36.25,293.5 Q35.8594,293.5 35.6094,293.3281 Q35.3594,293.1563 35.25,292.7031 Q35.2031,292.3906 35.0313,292.2188 Q34.7188,291.8906 34.1563,291.7031 Q33.5938,291.5 33.0313,291.5 Q32.3281,291.5 31.7344,291.7813 Q31.1563,292.0625 30.7031,292.6875 Q30.25,293.3125 30.25,294.1719 L30.25,295.0938 Q30.25,296.125 31.0938,296.8125 Q31.9375,297.5 33.4375,297.5 Q34.3281,297.5 34.9531,297.2969 Q35.3125,297.1875 35.7188,296.8281 Q35.9844,296.625 36.125,296.5625 Q36.2656,296.5 36.4375,296.5 Q36.7656,296.5 37,296.7656 Q37.25,297.0156 37.25,297.375 Q37.25,297.7188 36.9063,298.125 Q36.4063,298.7188 35.6094,299.0469 Q34.5625,299.5 33.2813,299.5 Q31.7813,299.5 30.5781,298.9063 Q29.6094,298.4375 28.9219,297.4219 Q28.25,296.4063 28.25,295.2031 L28.25,294.1094 Q28.25,292.8594 28.8438,291.7656 Q29.4531,290.6719 30.5,290.0938 Q31.5625,289.5 32.75,289.5 Q33.4688,289.5 34.0938,289.75 Q34.7188,290 35.25,290.5 Z " fill="#000000"/><text fill="#000000" font-family="sans-serif" font-size="12" lengthAdjust="spacing" textLength="104" x="49.75" y="298.9102">RegistarEstafetaUI</text><line style="stroke:#A80036;stroke-width:1.5;" x1="8" x2="167" y1="310" y2="310"/><line style="stroke:#A80036;stroke-width:1.5;" x1="8" x2="167" y1="318" y2="318"/><ellipse cx="18" cy="329" fill="#84BE84" rx="3" ry="3" style="stroke:#038048;stroke-width:1.0;"/><text fill="#000000" font-family="sans-serif" font-size="11" lengthAdjust="spacing" textLength="135" x="27" y="333.4189">void run(int numeroFicheiro)</text><!--MD5=[370fdec43ec48a875018736ce6aafc89]
class RegistarEstafetaController--><rect codeLine="7" fill="#FEFECE" filter="url(#f2xvqtx8gz52f)" height="75.6719" id="RegistarEstafetaController" style="stroke:#A80036;stroke-width:1.5;" width="944" x="228" y="271"/><ellipse cx="622.75" cy="287" fill="#ADD1B2" rx="11" ry="11" style="stroke:#A80036;stroke-width:1.0;"/><path d="M624.75,283.5 Q624.9531,283 625.1875,282.75 Q625.4219,282.5 625.6875,282.5 Q626.1563,282.5 626.4531,282.7813 Q626.75,283.0625 626.75,283.7188 L626.75,285.2813 Q626.75,285.9375 626.4688,286.2188 Q626.1875,286.5 625.75,286.5 Q625.3594,286.5 625.1094,286.3281 Q624.8594,286.1563 624.75,285.7031 Q624.7031,285.3906 624.5313,285.2188 Q624.2188,284.8906 623.6563,284.7031 Q623.0938,284.5 622.5313,284.5 Q621.8281,284.5 621.2344,284.7813 Q620.6563,285.0625 620.2031,285.6875 Q619.75,286.3125 619.75,287.1719 L619.75,288.0938 Q619.75,289.125 620.5938,289.8125 Q621.4375,290.5 622.9375,290.5 Q623.8281,290.5 624.4531,290.2969 Q624.8125,290.1875 625.2188,289.8281 Q625.4844,289.625 625.625,289.5625 Q625.7656,289.5 625.9375,289.5 Q626.2656,289.5 626.5,289.7656 Q626.75,290.0156 626.75,290.375 Q626.75,290.7188 626.4063,291.125 Q625.9063,291.7188 625.1094,292.0469 Q624.0625,292.5 622.7813,292.5 Q621.2813,292.5 620.0781,291.9063 Q619.1094,291.4375 618.4219,290.4219 Q617.75,289.4063 617.75,288.2031 L617.75,287.1094 Q617.75,285.8594 618.3438,284.7656 Q618.9531,283.6719 620,283.0938 Q621.0625,282.5 622.25,282.5 Q622.9688,282.5 623.5938,282.75 Q624.2188,283 624.75,283.5 Z " fill="#000000"/><text fill="#000000" font-family="sans-serif" font-size="12" lengthAdjust="spacing" textLength="146" x="643.25" y="291.9102">RegistarEstafetaController</text><line style="stroke:#A80036;stroke-width:1.5;" x1="229" x2="1171" y1="303" y2="303"/><line style="stroke:#A80036;stroke-width:1.5;" x1="229" x2="1171" y1="311" y2="311"/><ellipse cx="239" cy="322" fill="#84BE84" rx="3" ry="3" style="stroke:#038048;stroke-width:1.0;"/><text fill="#000000" font-family="sans-serif" font-size="11" lengthAdjust="spacing" textLength="913" x="248" y="326.4189">void validarEstafeta(String email, String password, String nome, int nif, int telefone, String numSegSocial,double cargaMaxima, String morada, double latitude, double longitude, double altitude)</text><ellipse cx="239" cy="335.8359" fill="#84BE84" rx="3" ry="3" style="stroke:#038048;stroke-width:1.0;"/><text fill="#000000" font-family="sans-serif" font-size="11" lengthAdjust="spacing" textLength="918" x="248" y="340.2549">void registarEstafeta(String email, String password, String nome, int nif, int telefone, String numSegSocial,double cargaMaxima, String morada, double latitude, double longitude, double altitude)</text><!--MD5=[e162095117491b3de9c15e382440df89]
class ValidarParametros--><rect codeLine="12" fill="#FEFECE" filter="url(#f2xvqtx8gz52f)" height="89.5078" id="ValidarParametros" style="stroke:#A80036;stroke-width:1.5;" width="480" x="1391" y="7"/><ellipse cx="1575.25" cy="23" fill="#ADD1B2" rx="11" ry="11" style="stroke:#A80036;stroke-width:1.0;"/><path d="M1577.25,19.5 Q1577.4531,19 1577.6875,18.75 Q1577.9219,18.5 1578.1875,18.5 Q1578.6563,18.5 1578.9531,18.7813 Q1579.25,19.0625 1579.25,19.7188 L1579.25,21.2813 Q1579.25,21.9375 1578.9688,22.2188 Q1578.6875,22.5 1578.25,22.5 Q1577.8594,22.5 1577.6094,22.3281 Q1577.3594,22.1563 1577.25,21.7031 Q1577.2031,21.3906 1577.0313,21.2188 Q1576.7188,20.8906 1576.1563,20.7031 Q1575.5938,20.5 1575.0313,20.5 Q1574.3281,20.5 1573.7344,20.7813 Q1573.1563,21.0625 1572.7031,21.6875 Q1572.25,22.3125 1572.25,23.1719 L1572.25,24.0938 Q1572.25,25.125 1573.0938,25.8125 Q1573.9375,26.5 1575.4375,26.5 Q1576.3281,26.5 1576.9531,26.2969 Q1577.3125,26.1875 1577.7188,25.8281 Q1577.9844,25.625 1578.125,25.5625 Q1578.2656,25.5 1578.4375,25.5 Q1578.7656,25.5 1579,25.7656 Q1579.25,26.0156 1579.25,26.375 Q1579.25,26.7188 1578.9063,27.125 Q1578.4063,27.7188 1577.6094,28.0469 Q1576.5625,28.5 1575.2813,28.5 Q1573.7813,28.5 1572.5781,27.9063 Q1571.6094,27.4375 1570.9219,26.4219 Q1570.25,25.4063 1570.25,24.2031 L1570.25,23.1094 Q1570.25,21.8594 1570.8438,20.7656 Q1571.4531,19.6719 1572.5,19.0938 Q1573.5625,18.5 1574.75,18.5 Q1575.4688,18.5 1576.0938,18.75 Q1576.7188,19 1577.25,19.5 Z " fill="#000000"/><text fill="#000000" font-family="sans-serif" font-size="12" lengthAdjust="spacing" textLength="103" x="1595.75" y="27.9102">ValidarParametros</text><line style="stroke:#A80036;stroke-width:1.5;" x1="1392" x2="1870" y1="39" y2="39"/><line style="stroke:#A80036;stroke-width:1.5;" x1="1392" x2="1870" y1="47" y2="47"/><ellipse cx="1402" cy="58" fill="#84BE84" rx="3" ry="3" style="stroke:#038048;stroke-width:1.0;"/><text fill="#000000" font-family="sans-serif" font-size="11" lengthAdjust="spacing" textLength="454" x="1411" y="62.4189">void validarParametrosUtilizadorString email, String password, String nome, int nif, int telefone)</text><ellipse cx="1402" cy="71.8359" fill="#84BE84" rx="3" ry="3" style="stroke:#038048;stroke-width:1.0;"/><text fill="#000000" font-family="sans-serif" font-size="11" lengthAdjust="spacing" textLength="345" x="1411" y="76.2549">void validarParametrosEstafeta(int numSegSocial, double cargaMaxima)</text><ellipse cx="1402" cy="85.6719" fill="#84BE84" rx="3" ry="3" style="stroke:#038048;stroke-width:1.0;"/><text fill="#000000" font-family="sans-serif" font-size="11" lengthAdjust="spacing" textLength="451" x="1411" y="90.0908">void validaParametrosMorada(String morada, double longitude, double latitude, double altitude)</text><!--MD5=[f78d482765dab3bfec878498523110ae]
class EstafetaBD--><rect codeLine="18" fill="#FEFECE" filter="url(#f2xvqtx8gz52f)" height="61.8359" id="EstafetaBD" style="stroke:#A80036;stroke-width:1.5;" width="226" x="1518" y="132"/><ellipse cx="1595.75" cy="148" fill="#ADD1B2" rx="11" ry="11" style="stroke:#A80036;stroke-width:1.0;"/><path d="M1597.75,144.5 Q1597.9531,144 1598.1875,143.75 Q1598.4219,143.5 1598.6875,143.5 Q1599.1563,143.5 1599.4531,143.7813 Q1599.75,144.0625 1599.75,144.7188 L1599.75,146.2813 Q1599.75,146.9375 1599.4688,147.2188 Q1599.1875,147.5 1598.75,147.5 Q1598.3594,147.5 1598.1094,147.3281 Q1597.8594,147.1563 1597.75,146.7031 Q1597.7031,146.3906 1597.5313,146.2188 Q1597.2188,145.8906 1596.6563,145.7031 Q1596.0938,145.5 1595.5313,145.5 Q1594.8281,145.5 1594.2344,145.7813 Q1593.6563,146.0625 1593.2031,146.6875 Q1592.75,147.3125 1592.75,148.1719 L1592.75,149.0938 Q1592.75,150.125 1593.5938,150.8125 Q1594.4375,151.5 1595.9375,151.5 Q1596.8281,151.5 1597.4531,151.2969 Q1597.8125,151.1875 1598.2188,150.8281 Q1598.4844,150.625 1598.625,150.5625 Q1598.7656,150.5 1598.9375,150.5 Q1599.2656,150.5 1599.5,150.7656 Q1599.75,151.0156 1599.75,151.375 Q1599.75,151.7188 1599.4063,152.125 Q1598.9063,152.7188 1598.1094,153.0469 Q1597.0625,153.5 1595.7813,153.5 Q1594.2813,153.5 1593.0781,152.9063 Q1592.1094,152.4375 1591.4219,151.4219 Q1590.75,150.4063 1590.75,149.2031 L1590.75,148.1094 Q1590.75,146.8594 1591.3438,145.7656 Q1591.9531,144.6719 1593,144.0938 Q1594.0625,143.5 1595.25,143.5 Q1595.9688,143.5 1596.5938,143.75 Q1597.2188,144 1597.75,144.5 Z " fill="#000000"/><text fill="#000000" font-family="sans-serif" font-size="12" lengthAdjust="spacing" textLength="62" x="1616.25" y="152.9102">EstafetaBD</text><line style="stroke:#A80036;stroke-width:1.5;" x1="1519" x2="1743" y1="164" y2="164"/><line style="stroke:#A80036;stroke-width:1.5;" x1="1519" x2="1743" y1="172" y2="172"/><ellipse cx="1529" cy="183" fill="#84BE84" rx="3" ry="3" style="stroke:#038048;stroke-width:1.0;"/><text fill="#000000" font-family="sans-serif" font-size="11" lengthAdjust="spacing" textLength="200" x="1538" y="187.4189">boolean validaEstafeta(Estafeta estafeta)</text><!--MD5=[380d12a68ed0046a60f31008a02875d0]
class AplicacaoPOT--><rect codeLine="22" fill="#FEFECE" filter="url(#f2xvqtx8gz52f)" height="75.6719" id="AplicacaoPOT" style="stroke:#A80036;stroke-width:1.5;" width="214" x="1524" y="520"/><ellipse cx="1588.25" cy="536" fill="#ADD1B2" rx="11" ry="11" style="stroke:#A80036;stroke-width:1.0;"/><path d="M1590.25,532.5 Q1590.4531,532 1590.6875,531.75 Q1590.9219,531.5 1591.1875,531.5 Q1591.6563,531.5 1591.9531,531.7813 Q1592.25,532.0625 1592.25,532.7188 L1592.25,534.2813 Q1592.25,534.9375 1591.9688,535.2188 Q1591.6875,535.5 1591.25,535.5 Q1590.8594,535.5 1590.6094,535.3281 Q1590.3594,535.1563 1590.25,534.7031 Q1590.2031,534.3906 1590.0313,534.2188 Q1589.7188,533.8906 1589.1563,533.7031 Q1588.5938,533.5 1588.0313,533.5 Q1587.3281,533.5 1586.7344,533.7813 Q1586.1563,534.0625 1585.7031,534.6875 Q1585.25,535.3125 1585.25,536.1719 L1585.25,537.0938 Q1585.25,538.125 1586.0938,538.8125 Q1586.9375,539.5 1588.4375,539.5 Q1589.3281,539.5 1589.9531,539.2969 Q1590.3125,539.1875 1590.7188,538.8281 Q1590.9844,538.625 1591.125,538.5625 Q1591.2656,538.5 1591.4375,538.5 Q1591.7656,538.5 1592,538.7656 Q1592.25,539.0156 1592.25,539.375 Q1592.25,539.7188 1591.9063,540.125 Q1591.4063,540.7188 1590.6094,541.0469 Q1589.5625,541.5 1588.2813,541.5 Q1586.7813,541.5 1585.5781,540.9063 Q1584.6094,540.4375 1583.9219,539.4219 Q1583.25,538.4063 1583.25,537.2031 L1583.25,536.1094 Q1583.25,534.8594 1583.8438,533.7656 Q1584.4531,532.6719 1585.5,532.0938 Q1586.5625,531.5 1587.75,531.5 Q1588.4688,531.5 1589.0938,531.75 Q1589.7188,532 1590.25,532.5 Z " fill="#000000"/><text fill="#000000" font-family="sans-serif" font-size="12" lengthAdjust="spacing" textLength="77" x="1608.75" y="540.9102">AplicacaoPOT</text><line style="stroke:#A80036;stroke-width:1.5;" x1="1525" x2="1737" y1="552" y2="552"/><line style="stroke:#A80036;stroke-width:1.5;" x1="1525" x2="1737" y1="560" y2="560"/><ellipse cx="1535" cy="571" fill="#84BE84" rx="3" ry="3" style="stroke:#038048;stroke-width:1.0;"/><text fill="#000000" font-family="sans-serif" font-size="11" lengthAdjust="spacing" textLength="135" x="1544" y="575.4189">AplicacaoPOT getInstance()</text><ellipse cx="1535" cy="584.8359" fill="#84BE84" rx="3" ry="3" style="stroke:#038048;stroke-width:1.0;"/><text fill="#000000" font-family="sans-serif" font-size="11" lengthAdjust="spacing" textLength="188" x="1544" y="589.2549">SessaoUtilizador getSessaoUtilizador()</text><!--MD5=[1e13576e8c070e32200b62ceaa1f39ec]
class SessaoUtilizador--><rect codeLine="27" fill="#FEFECE" filter="url(#f2xvqtx8gz52f)" height="75.6719" id="SessaoUtilizador" style="stroke:#A80036;stroke-width:1.5;" width="148" x="2096" y="520"/><ellipse cx="2120.9" cy="536" fill="#ADD1B2" rx="11" ry="11" style="stroke:#A80036;stroke-width:1.0;"/><path d="M2122.9,532.5 Q2123.1031,532 2123.3375,531.75 Q2123.5719,531.5 2123.8375,531.5 Q2124.3063,531.5 2124.6031,531.7813 Q2124.9,532.0625 2124.9,532.7188 L2124.9,534.2813 Q2124.9,534.9375 2124.6188,535.2188 Q2124.3375,535.5 2123.9,535.5 Q2123.5094,535.5 2123.2594,535.3281 Q2123.0094,535.1563 2122.9,534.7031 Q2122.8531,534.3906 2122.6813,534.2188 Q2122.3688,533.8906 2121.8063,533.7031 Q2121.2438,533.5 2120.6813,533.5 Q2119.9781,533.5 2119.3844,533.7813 Q2118.8063,534.0625 2118.3531,534.6875 Q2117.9,535.3125 2117.9,536.1719 L2117.9,537.0938 Q2117.9,538.125 2118.7438,538.8125 Q2119.5875,539.5 2121.0875,539.5 Q2121.9781,539.5 2122.6031,539.2969 Q2122.9625,539.1875 2123.3688,538.8281 Q2123.6344,538.625 2123.775,538.5625 Q2123.9156,538.5 2124.0875,538.5 Q2124.4156,538.5 2124.65,538.7656 Q2124.9,539.0156 2124.9,539.375 Q2124.9,539.7188 2124.5563,540.125 Q2124.0563,540.7188 2123.2594,541.0469 Q2122.2125,541.5 2120.9313,541.5 Q2119.4313,541.5 2118.2281,540.9063 Q2117.2594,540.4375 2116.5719,539.4219 Q2115.9,538.4063 2115.9,537.2031 L2115.9,536.1094 Q2115.9,534.8594 2116.4938,533.7656 Q2117.1031,532.6719 2118.15,532.0938 Q2119.2125,531.5 2120.4,531.5 Q2121.1188,531.5 2121.7438,531.75 Q2122.3688,532 2122.9,532.5 Z " fill="#000000"/><text fill="#000000" font-family="sans-serif" font-size="12" lengthAdjust="spacing" textLength="94" x="2137.1" y="540.9102">SessaoUtilizador</text><line style="stroke:#A80036;stroke-width:1.5;" x1="2097" x2="2243" y1="552" y2="552"/><rect fill="none" height="6" style="stroke:#C82930;stroke-width:1.0;" width="6" x="2104" y="560"/><text fill="#000000" font-family="sans-serif" font-size="11" lengthAdjust="spacing" textLength="111" x="2116" y="567.4189">Utilizador m_oUtilizador</text><line style="stroke:#A80036;stroke-width:1.5;" x1="2097" x2="2243" y1="573.8359" y2="573.8359"/><ellipse cx="2107" cy="584.8359" fill="#84BE84" rx="3" ry="3" style="stroke:#038048;stroke-width:1.0;"/><text fill="#000000" font-family="sans-serif" font-size="11" lengthAdjust="spacing" textLength="122" x="2116" y="589.2549">String getEmailUtilizador()</text><!--MD5=[5dd1d6732c071e710b9290b531f2fa3b]
class Utilizador--><rect codeLine="32" fill="#FEFECE" filter="url(#f2xvqtx8gz52f)" height="75.6719" id="Utilizador" style="stroke:#A80036;stroke-width:1.5;" width="104" x="2310" y="520"/><ellipse cx="2334.45" cy="536" fill="#ADD1B2" rx="11" ry="11" style="stroke:#A80036;stroke-width:1.0;"/><path d="M2336.45,532.5 Q2336.6531,532 2336.8875,531.75 Q2337.1219,531.5 2337.3875,531.5 Q2337.8563,531.5 2338.1531,531.7813 Q2338.45,532.0625 2338.45,532.7188 L2338.45,534.2813 Q2338.45,534.9375 2338.1688,535.2188 Q2337.8875,535.5 2337.45,535.5 Q2337.0594,535.5 2336.8094,535.3281 Q2336.5594,535.1563 2336.45,534.7031 Q2336.4031,534.3906 2336.2313,534.2188 Q2335.9188,533.8906 2335.3563,533.7031 Q2334.7938,533.5 2334.2313,533.5 Q2333.5281,533.5 2332.9344,533.7813 Q2332.3563,534.0625 2331.9031,534.6875 Q2331.45,535.3125 2331.45,536.1719 L2331.45,537.0938 Q2331.45,538.125 2332.2938,538.8125 Q2333.1375,539.5 2334.6375,539.5 Q2335.5281,539.5 2336.1531,539.2969 Q2336.5125,539.1875 2336.9188,538.8281 Q2337.1844,538.625 2337.325,538.5625 Q2337.4656,538.5 2337.6375,538.5 Q2337.9656,538.5 2338.2,538.7656 Q2338.45,539.0156 2338.45,539.375 Q2338.45,539.7188 2338.1063,540.125 Q2337.6063,540.7188 2336.8094,541.0469 Q2335.7625,541.5 2334.4813,541.5 Q2332.9813,541.5 2331.7781,540.9063 Q2330.8094,540.4375 2330.1219,539.4219 Q2329.45,538.4063 2329.45,537.2031 L2329.45,536.1094 Q2329.45,534.8594 2330.0438,533.7656 Q2330.6531,532.6719 2331.7,532.0938 Q2332.7625,531.5 2333.95,531.5 Q2334.6688,531.5 2335.2938,531.75 Q2335.9188,532 2336.45,532.5 Z " fill="#000000"/><text fill="#000000" font-family="sans-serif" font-size="12" lengthAdjust="spacing" textLength="51" x="2350.55" y="540.9102">Utilizador</text><line style="stroke:#A80036;stroke-width:1.5;" x1="2311" x2="2413" y1="552" y2="552"/><rect fill="none" height="6" style="stroke:#C82930;stroke-width:1.0;" width="6" x="2318" y="560"/><text fill="#000000" font-family="sans-serif" font-size="11" lengthAdjust="spacing" textLength="55" x="2330" y="567.4189">String email</text><line style="stroke:#A80036;stroke-width:1.5;" x1="2311" x2="2413" y1="573.8359" y2="573.8359"/><ellipse cx="2321" cy="584.8359" fill="#84BE84" rx="3" ry="3" style="stroke:#038048;stroke-width:1.0;"/><text fill="#000000" font-family="sans-serif" font-size="11" lengthAdjust="spacing" textLength="78" x="2330" y="589.2549">String getEmail()</text><!--MD5=[3707309d909513970d98cd7082f3ca19]
class FarmaciaBD--><rect codeLine="37" fill="#FEFECE" filter="url(#f2xvqtx8gz52f)" height="61.8359" id="FarmaciaBD" style="stroke:#A80036;stroke-width:1.5;" width="274" x="1494" y="229"/><ellipse cx="1592.25" cy="245" fill="#ADD1B2" rx="11" ry="11" style="stroke:#A80036;stroke-width:1.0;"/><path d="M1594.25,241.5 Q1594.4531,241 1594.6875,240.75 Q1594.9219,240.5 1595.1875,240.5 Q1595.6563,240.5 1595.9531,240.7813 Q1596.25,241.0625 1596.25,241.7188 L1596.25,243.2813 Q1596.25,243.9375 1595.9688,244.2188 Q1595.6875,244.5 1595.25,244.5 Q1594.8594,244.5 1594.6094,244.3281 Q1594.3594,244.1563 1594.25,243.7031 Q1594.2031,243.3906 1594.0313,243.2188 Q1593.7188,242.8906 1593.1563,242.7031 Q1592.5938,242.5 1592.0313,242.5 Q1591.3281,242.5 1590.7344,242.7813 Q1590.1563,243.0625 1589.7031,243.6875 Q1589.25,244.3125 1589.25,245.1719 L1589.25,246.0938 Q1589.25,247.125 1590.0938,247.8125 Q1590.9375,248.5 1592.4375,248.5 Q1593.3281,248.5 1593.9531,248.2969 Q1594.3125,248.1875 1594.7188,247.8281 Q1594.9844,247.625 1595.125,247.5625 Q1595.2656,247.5 1595.4375,247.5 Q1595.7656,247.5 1596,247.7656 Q1596.25,248.0156 1596.25,248.375 Q1596.25,248.7188 1595.9063,249.125 Q1595.4063,249.7188 1594.6094,250.0469 Q1593.5625,250.5 1592.2813,250.5 Q1590.7813,250.5 1589.5781,249.9063 Q1588.6094,249.4375 1587.9219,248.4219 Q1587.25,247.4063 1587.25,246.2031 L1587.25,245.1094 Q1587.25,243.8594 1587.8438,242.7656 Q1588.4531,241.6719 1589.5,241.0938 Q1590.5625,240.5 1591.75,240.5 Q1592.4688,240.5 1593.0938,240.75 Q1593.7188,241 1594.25,241.5 Z " fill="#000000"/><text fill="#000000" font-family="sans-serif" font-size="12" lengthAdjust="spacing" textLength="69" x="1612.75" y="249.9102">FarmaciaBD</text><line style="stroke:#A80036;stroke-width:1.5;" x1="1495" x2="1767" y1="261" y2="261"/><line style="stroke:#A80036;stroke-width:1.5;" x1="1495" x2="1767" y1="269" y2="269"/><ellipse cx="1505" cy="280" fill="#84BE84" rx="3" ry="3" style="stroke:#038048;stroke-width:1.0;"/><text fill="#000000" font-family="sans-serif" font-size="11" lengthAdjust="spacing" textLength="248" x="1514" y="284.4189">Farmacia getFarmaciaByGestor(String emailGestor)</text><!--MD5=[9c5439856a1aad23e042de9a355b14cb]
class BaseDados--><rect codeLine="41" fill="#FEFECE" filter="url(#f2xvqtx8gz52f)" height="89.5078" id="BaseDados" style="stroke:#A80036;stroke-width:1.5;" width="160" x="2090" y="215"/><ellipse cx="2132.9" cy="231" fill="#ADD1B2" rx="11" ry="11" style="stroke:#A80036;stroke-width:1.0;"/><path d="M2134.9,227.5 Q2135.1031,227 2135.3375,226.75 Q2135.5719,226.5 2135.8375,226.5 Q2136.3063,226.5 2136.6031,226.7813 Q2136.9,227.0625 2136.9,227.7188 L2136.9,229.2813 Q2136.9,229.9375 2136.6188,230.2188 Q2136.3375,230.5 2135.9,230.5 Q2135.5094,230.5 2135.2594,230.3281 Q2135.0094,230.1563 2134.9,229.7031 Q2134.8531,229.3906 2134.6813,229.2188 Q2134.3688,228.8906 2133.8063,228.7031 Q2133.2438,228.5 2132.6813,228.5 Q2131.9781,228.5 2131.3844,228.7813 Q2130.8063,229.0625 2130.3531,229.6875 Q2129.9,230.3125 2129.9,231.1719 L2129.9,232.0938 Q2129.9,233.125 2130.7438,233.8125 Q2131.5875,234.5 2133.0875,234.5 Q2133.9781,234.5 2134.6031,234.2969 Q2134.9625,234.1875 2135.3688,233.8281 Q2135.6344,233.625 2135.775,233.5625 Q2135.9156,233.5 2136.0875,233.5 Q2136.4156,233.5 2136.65,233.7656 Q2136.9,234.0156 2136.9,234.375 Q2136.9,234.7188 2136.5563,235.125 Q2136.0563,235.7188 2135.2594,236.0469 Q2134.2125,236.5 2132.9313,236.5 Q2131.4313,236.5 2130.2281,235.9063 Q2129.2594,235.4375 2128.5719,234.4219 Q2127.9,233.4063 2127.9,232.2031 L2127.9,231.1094 Q2127.9,229.8594 2128.4938,228.7656 Q2129.1031,227.6719 2130.15,227.0938 Q2131.2125,226.5 2132.4,226.5 Q2133.1188,226.5 2133.7438,226.75 Q2134.3688,227 2134.9,227.5 Z " fill="#000000"/><text fill="#000000" font-family="sans-serif" font-size="12" lengthAdjust="spacing" textLength="66" x="2153.1" y="235.9102">BaseDados</text><line style="stroke:#A80036;stroke-width:1.5;" x1="2091" x2="2249" y1="247" y2="247"/><rect fill="none" height="6" style="stroke:#C82930;stroke-width:1.0;" width="6" x="2098" y="255"/><text fill="#000000" font-family="sans-serif" font-size="11" lengthAdjust="spacing" textLength="110" x="2110" y="262.4189">Connection connection</text><line style="stroke:#A80036;stroke-width:1.5;" x1="2091" x2="2249" y1="268.8359" y2="268.8359"/><ellipse cx="2101" cy="279.8359" fill="#84BE84" rx="3" ry="3" style="stroke:#038048;stroke-width:1.0;"/><text fill="#000000" font-family="sans-serif" font-size="11" lengthAdjust="spacing" textLength="134" x="2110" y="284.2549">Connection getConnection()</text><ellipse cx="2101" cy="293.6719" fill="#84BE84" rx="3" ry="3" style="stroke:#038048;stroke-width:1.0;"/><text fill="#000000" font-family="sans-serif" font-size="11" lengthAdjust="spacing" textLength="119" x="2110" y="298.0908">String closeConnection()</text><!--MD5=[83659c1d971c44d5fdc9a8baa7126871]
class UtilizadorBD--><rect codeLine="47" fill="#FEFECE" filter="url(#f2xvqtx8gz52f)" height="61.8359" id="UtilizadorBD" style="stroke:#A80036;stroke-width:1.5;" width="798" x="1232" y="423"/><ellipse cx="1592.75" cy="439" fill="#ADD1B2" rx="11" ry="11" style="stroke:#A80036;stroke-width:1.0;"/><path d="M1594.75,435.5 Q1594.9531,435 1595.1875,434.75 Q1595.4219,434.5 1595.6875,434.5 Q1596.1563,434.5 1596.4531,434.7813 Q1596.75,435.0625 1596.75,435.7188 L1596.75,437.2813 Q1596.75,437.9375 1596.4688,438.2188 Q1596.1875,438.5 1595.75,438.5 Q1595.3594,438.5 1595.1094,438.3281 Q1594.8594,438.1563 1594.75,437.7031 Q1594.7031,437.3906 1594.5313,437.2188 Q1594.2188,436.8906 1593.6563,436.7031 Q1593.0938,436.5 1592.5313,436.5 Q1591.8281,436.5 1591.2344,436.7813 Q1590.6563,437.0625 1590.2031,437.6875 Q1589.75,438.3125 1589.75,439.1719 L1589.75,440.0938 Q1589.75,441.125 1590.5938,441.8125 Q1591.4375,442.5 1592.9375,442.5 Q1593.8281,442.5 1594.4531,442.2969 Q1594.8125,442.1875 1595.2188,441.8281 Q1595.4844,441.625 1595.625,441.5625 Q1595.7656,441.5 1595.9375,441.5 Q1596.2656,441.5 1596.5,441.7656 Q1596.75,442.0156 1596.75,442.375 Q1596.75,442.7188 1596.4063,443.125 Q1595.9063,443.7188 1595.1094,444.0469 Q1594.0625,444.5 1592.7813,444.5 Q1591.2813,444.5 1590.0781,443.9063 Q1589.1094,443.4375 1588.4219,442.4219 Q1587.75,441.4063 1587.75,440.2031 L1587.75,439.1094 Q1587.75,437.8594 1588.3438,436.7656 Q1588.9531,435.6719 1590,435.0938 Q1591.0625,434.5 1592.25,434.5 Q1592.9688,434.5 1593.5938,434.75 Q1594.2188,435 1594.75,435.5 Z " fill="#000000"/><text fill="#000000" font-family="sans-serif" font-size="12" lengthAdjust="spacing" textLength="68" x="1613.25" y="443.9102">UtilizadorBD</text><line style="stroke:#A80036;stroke-width:1.5;" x1="1233" x2="2029" y1="455" y2="455"/><line style="stroke:#A80036;stroke-width:1.5;" x1="1233" x2="2029" y1="463" y2="463"/><ellipse cx="1243" cy="474" fill="#84BE84" rx="3" ry="3" style="stroke:#038048;stroke-width:1.0;"/><text fill="#000000" font-family="sans-serif" font-size="11" lengthAdjust="spacing" textLength="772" x="1252" y="478.4189">boolean novoUtilizador(String email, String password, String nome, int nif, int telemovel, int papel, String morada, double latitude, double longitude, double altitude)</text><!--MD5=[ad510ca42d1a057b37ac2813b8ee5b40]
class Connection--><rect codeLine="51" fill="#FEFECE" filter="url(#f2xvqtx8gz52f)" height="48" id="Connection" style="stroke:#A80036;stroke-width:1.5;" width="95" x="2314.5" y="236"/><ellipse cx="2329.5" cy="252" fill="#ADD1B2" rx="11" ry="11" style="stroke:#A80036;stroke-width:1.0;"/><path d="M2331.5,248.5 Q2331.7031,248 2331.9375,247.75 Q2332.1719,247.5 2332.4375,247.5 Q2332.9063,247.5 2333.2031,247.7813 Q2333.5,248.0625 2333.5,248.7188 L2333.5,250.2813 Q2333.5,250.9375 2333.2188,251.2188 Q2332.9375,251.5 2332.5,251.5 Q2332.1094,251.5 2331.8594,251.3281 Q2331.6094,251.1563 2331.5,250.7031 Q2331.4531,250.3906 2331.2813,250.2188 Q2330.9688,249.8906 2330.4063,249.7031 Q2329.8438,249.5 2329.2813,249.5 Q2328.5781,249.5 2327.9844,249.7813 Q2327.4063,250.0625 2326.9531,250.6875 Q2326.5,251.3125 2326.5,252.1719 L2326.5,253.0938 Q2326.5,254.125 2327.3438,254.8125 Q2328.1875,255.5 2329.6875,255.5 Q2330.5781,255.5 2331.2031,255.2969 Q2331.5625,255.1875 2331.9688,254.8281 Q2332.2344,254.625 2332.375,254.5625 Q2332.5156,254.5 2332.6875,254.5 Q2333.0156,254.5 2333.25,254.7656 Q2333.5,255.0156 2333.5,255.375 Q2333.5,255.7188 2333.1563,256.125 Q2332.6563,256.7188 2331.8594,257.0469 Q2330.8125,257.5 2329.5313,257.5 Q2328.0313,257.5 2326.8281,256.9063 Q2325.8594,256.4375 2325.1719,255.4219 Q2324.5,254.4063 2324.5,253.2031 L2324.5,252.1094 Q2324.5,250.8594 2325.0938,249.7656 Q2325.7031,248.6719 2326.75,248.0938 Q2327.8125,247.5 2329,247.5 Q2329.7188,247.5 2330.3438,247.75 Q2330.9688,248 2331.5,248.5 Z " fill="#000000"/><text fill="#000000" font-family="sans-serif" font-size="12" lengthAdjust="spacing" textLength="63" x="2343.5" y="256.9102">Connection</text><line style="stroke:#A80036;stroke-width:1.5;" x1="2315.5" x2="2408.5" y1="268" y2="268"/><line style="stroke:#A80036;stroke-width:1.5;" x1="2315.5" x2="2408.5" y1="276" y2="276"/><!--MD5=[d703aab580f67225500cb57f8b850b8c]
class MoradaBD--><rect codeLine="54" fill="#FEFECE" filter="url(#f2xvqtx8gz52f)" height="61.8359" id="MoradaBD" style="stroke:#A80036;stroke-width:1.5;" width="440" x="1411" y="326"/><ellipse cx="1597.75" cy="342" fill="#ADD1B2" rx="11" ry="11" style="stroke:#A80036;stroke-width:1.0;"/><path d="M1599.75,338.5 Q1599.9531,338 1600.1875,337.75 Q1600.4219,337.5 1600.6875,337.5 Q1601.1563,337.5 1601.4531,337.7813 Q1601.75,338.0625 1601.75,338.7188 L1601.75,340.2813 Q1601.75,340.9375 1601.4688,341.2188 Q1601.1875,341.5 1600.75,341.5 Q1600.3594,341.5 1600.1094,341.3281 Q1599.8594,341.1563 1599.75,340.7031 Q1599.7031,340.3906 1599.5313,340.2188 Q1599.2188,339.8906 1598.6563,339.7031 Q1598.0938,339.5 1597.5313,339.5 Q1596.8281,339.5 1596.2344,339.7813 Q1595.6563,340.0625 1595.2031,340.6875 Q1594.75,341.3125 1594.75,342.1719 L1594.75,343.0938 Q1594.75,344.125 1595.5938,344.8125 Q1596.4375,345.5 1597.9375,345.5 Q1598.8281,345.5 1599.4531,345.2969 Q1599.8125,345.1875 1600.2188,344.8281 Q1600.4844,344.625 1600.625,344.5625 Q1600.7656,344.5 1600.9375,344.5 Q1601.2656,344.5 1601.5,344.7656 Q1601.75,345.0156 1601.75,345.375 Q1601.75,345.7188 1601.4063,346.125 Q1600.9063,346.7188 1600.1094,347.0469 Q1599.0625,347.5 1597.7813,347.5 Q1596.2813,347.5 1595.0781,346.9063 Q1594.1094,346.4375 1593.4219,345.4219 Q1592.75,344.4063 1592.75,343.2031 L1592.75,342.1094 Q1592.75,340.8594 1593.3438,339.7656 Q1593.9531,338.6719 1595,338.0938 Q1596.0625,337.5 1597.25,337.5 Q1597.9688,337.5 1598.5938,337.75 Q1599.2188,338 1599.75,338.5 Z " fill="#000000"/><text fill="#000000" font-family="sans-serif" font-size="12" lengthAdjust="spacing" textLength="58" x="1618.25" y="346.9102">MoradaBD</text><line style="stroke:#A80036;stroke-width:1.5;" x1="1412" x2="1850" y1="358" y2="358"/><line style="stroke:#A80036;stroke-width:1.5;" x1="1412" x2="1850" y1="366" y2="366"/><ellipse cx="1422" cy="377" fill="#84BE84" rx="3" ry="3" style="stroke:#038048;stroke-width:1.0;"/><text fill="#000000" font-family="sans-serif" font-size="11" lengthAdjust="spacing" textLength="414" x="1431" y="381.4189">boolean validaMorada(String morada, double latitude, double longitude, double altitude)</text><!--MD5=[7cb13a6dfc1b9fc6d36a1c6c98b096f0]
link RegistarEstafetaUI to RegistarEstafetaController--><path codeLine="58" d="M168.31,309 C184.7,309 203.05,309 222.8,309 " fill="none" id="RegistarEstafetaUI-to-RegistarEstafetaController" style="stroke:#A80036;stroke-width:1.0;stroke-dasharray:7.0,7.0;"/><polygon fill="#A80036" points="227.86,309,218.86,305,222.86,309,218.86,313,227.86,309" style="stroke:#A80036;stroke-width:1.0;"/><!--MD5=[40ec102e0efe82c6580db8da1edb0dd0]
link RegistarEstafetaController to ValidarParametros--><path codeLine="60" d="M788.09,270.96 C891.91,227.03 1071.56,155.52 1232,114 C1281.27,101.25 1334.69,90.74 1385.92,82.22 " fill="none" id="RegistarEstafetaController-to-ValidarParametros" style="stroke:#A80036;stroke-width:1.0;stroke-dasharray:7.0,7.0;"/><polygon fill="#A80036" points="1390.88,81.4,1381.3495,78.9161,1385.9465,82.2127,1382.6499,86.8097,1390.88,81.4" style="stroke:#A80036;stroke-width:1.0;"/><!--MD5=[bd1866e64fe687896da808d3348740df]
link RegistarEstafetaController to EstafetaBD--><path codeLine="61" d="M890.98,270.96 C992.01,251.49 1118.47,228.3 1232,211 C1326.09,196.66 1433.22,183.94 1512.62,175.21 " fill="none" id="RegistarEstafetaController-to-EstafetaBD" style="stroke:#A80036;stroke-width:1.0;stroke-dasharray:7.0,7.0;"/><polygon fill="#A80036" points="1517.81,174.64,1508.429,171.6406,1512.8395,175.1828,1509.2974,179.5933,1517.81,174.64" style="stroke:#A80036;stroke-width:1.0;"/><!--MD5=[dd20e3f54a4acd00d9727e45f605fb7f]
link RegistarEstafetaController to UtilizadorBD--><path codeLine="62" d="M896.32,347.03 C996.46,365.84 1120.51,388.07 1232,405 C1272.02,411.08 1314.38,416.92 1355.97,422.32 " fill="none" id="RegistarEstafetaController-to-UtilizadorBD" style="stroke:#A80036;stroke-width:1.0;stroke-dasharray:7.0,7.0;"/><polygon fill="#A80036" points="1361.04,422.98,1352.6292,417.8558,1356.0815,422.337,1351.6003,425.7893,1361.04,422.98" style="stroke:#A80036;stroke-width:1.0;"/><!--MD5=[413766ca43ba557999cbe9e0e5e7445b]
link RegistarEstafetaController to MoradaBD--><path codeLine="63" d="M1172.3,333.35 C1253.78,337.56 1334.97,341.76 1405.86,345.42 " fill="none" id="RegistarEstafetaController-to-MoradaBD" style="stroke:#A80036;stroke-width:1.0;stroke-dasharray:7.0,7.0;"/><polygon fill="#A80036" points="1410.94,345.68,1402.158,341.2217,1405.9466,345.4225,1401.7459,349.2111,1410.94,345.68" style="stroke:#A80036;stroke-width:1.0;"/><!--MD5=[6c685b46341abb5fdf5a729ed4d9ff19]
link RegistarEstafetaController to AplicacaoPOT--><path codeLine="64" d="M788.03,347.03 C891.79,390.86 1071.39,461.98 1232,502 C1327.24,525.73 1437.98,540.29 1518.43,548.59 " fill="none" id="RegistarEstafetaController-to-AplicacaoPOT" style="stroke:#A80036;stroke-width:1.0;stroke-dasharray:7.0,7.0;"/><polygon fill="#A80036" points="1523.68,549.13,1515.1394,544.2251,1518.7065,548.6155,1514.3162,552.1827,1523.68,549.13" style="stroke:#A80036;stroke-width:1.0;"/><!--MD5=[52fe66b788f6609c71751c22d20e56af]
link RegistarEstafetaController to FarmaciaBD--><path codeLine="65" d="M1172.3,284.14 C1287.9,278.04 1402.94,271.98 1488.76,267.45 " fill="none" id="RegistarEstafetaController-to-FarmaciaBD" style="stroke:#A80036;stroke-width:1.0;stroke-dasharray:7.0,7.0;"/><polygon fill="#A80036" points="1493.86,267.18,1484.6559,263.6752,1488.8674,267.4518,1485.0908,271.6633,1493.86,267.18" style="stroke:#A80036;stroke-width:1.0;"/><!--MD5=[01d175ae3b9e282c6925e8b717808735]
link AplicacaoPOT to SessaoUtilizador--><path codeLine="67" d="M1738.09,558 C1841.89,558 1997.55,558 2090.62,558 " fill="none" id="AplicacaoPOT-to-SessaoUtilizador" style="stroke:#A80036;stroke-width:1.0;stroke-dasharray:7.0,7.0;"/><polygon fill="#A80036" points="2095.84,558,2086.84,554,2090.84,558,2086.84,562,2095.84,558" style="stroke:#A80036;stroke-width:1.0;"/><!--MD5=[581e3892a60f878c9efef41428c61874]
link SessaoUtilizador to Utilizador--><path codeLine="69" d="M2244.19,558 C2264.25,558 2285.69,558 2304.65,558 " fill="none" id="SessaoUtilizador-to-Utilizador" style="stroke:#A80036;stroke-width:1.0;stroke-dasharray:7.0,7.0;"/><polygon fill="#A80036" points="2309.93,558,2300.93,554,2304.93,558,2300.93,562,2309.93,558" style="stroke:#A80036;stroke-width:1.0;"/><!--MD5=[dbd15f50e17d92579182b6d34e88172b]
link FarmaciaBD to BaseDados--><path codeLine="71" d="M1768.2,260 C1867.82,260 1999.84,260 2084.62,260 " fill="none" id="FarmaciaBD-to-BaseDados" style="stroke:#A80036;stroke-width:1.0;stroke-dasharray:7.0,7.0;"/><polygon fill="#A80036" points="2089.63,260,2080.63,256,2084.63,260,2080.63,264,2089.63,260" style="stroke:#A80036;stroke-width:1.0;"/><!--MD5=[dd5557e0584c7ae80926c94375161989]
link MoradaBD to BaseDados--><path codeLine="73" d="M1851.11,338.39 C1909.66,331.15 1972.6,321.29 2030,308 C2047.96,303.84 2066.85,298.21 2084.71,292.27 " fill="none" id="MoradaBD-to-BaseDados" style="stroke:#A80036;stroke-width:1.0;stroke-dasharray:7.0,7.0;"/><polygon fill="#A80036" points="2089.72,290.58,2079.9136,289.6667,2084.9823,292.1783,2082.4708,297.247,2089.72,290.58" style="stroke:#A80036;stroke-width:1.0;"/><!--MD5=[4003d5ab781cc3f48b2a9eefd8ff200a]
link EstafetaBD to BaseDados--><path codeLine="75" d="M1744.22,169.95 C1824.59,176.52 1934.95,188.8 2030,211 C2047.99,215.2 2066.89,220.93 2084.76,227 " fill="none" id="EstafetaBD-to-BaseDados" style="stroke:#A80036;stroke-width:1.0;stroke-dasharray:7.0,7.0;"/><polygon fill="#A80036" points="2089.77,228.71,2082.5631,221.9973,2085.0425,227.0818,2079.958,229.5612,2089.77,228.71" style="stroke:#A80036;stroke-width:1.0;"/><!--MD5=[833997655fa73f2d0e64c27665136239]
link BaseDados to Connection--><path codeLine="77" d="M2250.2,260 C2270.12,260 2290.99,260 2309.18,260 " fill="none" id="BaseDados-to-Connection" style="stroke:#A80036;stroke-width:1.0;stroke-dasharray:7.0,7.0;"/><polygon fill="#A80036" points="2314.23,260,2305.23,256,2309.23,260,2305.23,264,2314.23,260" style="stroke:#A80036;stroke-width:1.0;"/><!--MD5=[b965a44c68e883b10a873037d0822e27]
@startuml
left to right direction

class RegistarEstafetaUI {
    +void run(int numeroFicheiro)
}

class RegistarEstafetaController {
    +void validarEstafeta(String email, String password, String nome, int nif, int telefone, String numSegSocial,double cargaMaxima, String morada, double latitude, double longitude, double altitude)
    +void registarEstafeta(String email, String password, String nome, int nif, int telefone, String numSegSocial,double cargaMaxima, String morada, double latitude, double longitude, double altitude)
}

class ValidarParametros {
    +void validarParametrosUtilizadorString email, String password, String nome, int nif, int telefone)
    +void validarParametrosEstafeta(int numSegSocial, double cargaMaxima)
    +void validaParametrosMorada(String morada, double longitude, double latitude, double altitude)
}

class EstafetaBD {
    +boolean validaEstafeta(Estafeta estafeta)
}

class AplicacaoPOT {
    +AplicacaoPOT getInstance()
    +SessaoUtilizador getSessaoUtilizador()
}

class SessaoUtilizador {
    -Utilizador m_oUtilizador
    +String getEmailUtilizador()
}

class Utilizador {
    -String email
    +String getEmail()
}

class FarmaciaBD {
    +Farmacia getFarmaciaByGestor(String emailGestor)
}

class BaseDados {
    -Connection connection
    +Connection getConnection()
    +String closeConnection()
}

class UtilizadorBD {
    +boolean novoUtilizador(String email, String password, String nome, int nif, int telemovel, int papel, String morada, double latitude, double longitude, double altitude)
}

class Connection {
}

class MoradaBD {
    +boolean validaMorada(String morada, double latitude, double longitude, double altitude)
}

RegistarEstafetaUI ..> RegistarEstafetaController

RegistarEstafetaController ..> ValidarParametros
RegistarEstafetaController ..> EstafetaBD
RegistarEstafetaController ..> UtilizadorBD
RegistarEstafetaController ..> MoradaBD
RegistarEstafetaController ..> AplicacaoPOT
RegistarEstafetaController ..> FarmaciaBD

AplicacaoPOT ..> SessaoUtilizador

SessaoUtilizador ..> Utilizador

FarmaciaBD ..> BaseDados

MoradaBD ..> BaseDados

EstafetaBD ..> BaseDados

BaseDados ..> Connection

@enduml

PlantUML version 1.2021.00(Sun Jan 10 10:25:05 GMT 2021)
(GPL source distribution)
Java Runtime: OpenJDK Runtime Environment
JVM: OpenJDK 64-Bit Server VM
Default Encoding: Cp1252
Language: pt
Country: PT
--></g></svg>