<?xml version="1.0" encoding="UTF-8" standalone="no"?><svg xmlns="http://www.w3.org/2000/svg" xmlns:xlink="http://www.w3.org/1999/xlink" contentScriptType="application/ecmascript" contentStyleType="text/css" height="389px" preserveAspectRatio="none" style="width:1165px;height:389px;" version="1.1" viewBox="0 0 1165 389" width="1165px" zoomAndPan="magnify"><defs><filter height="300%" id="f1knu72pae66x9" width="300%" x="-1" y="-1"><feGaussianBlur result="blurOut" stdDeviation="2.0"/><feColorMatrix in="blurOut" result="blurOut2" type="matrix" values="0 0 0 0 0 0 0 0 0 0 0 0 0 0 0 0 0 0 .4 0"/><feOffset dx="4.0" dy="4.0" in="blurOut2" result="blurOut3"/><feBlend in="SourceGraphic" in2="blurOut3" mode="normal"/></filter></defs><g><!--MD5=[3f1202280bfe3359d2f91fb9b6e32986]
class Estafeta--><rect codeLine="6" fill="#FEFECE" filter="url(#f1knu72pae66x9)" height="81.5078" id="Estafeta" style="stroke:#A80036;stroke-width:1.5;" width="117" x="840" y="41.5"/><ellipse cx="873" cy="57.5" fill="#ADD1B2" rx="11" ry="11" style="stroke:#A80036;stroke-width:1.0;"/><path d="M875,54 Q875.2031,53.5 875.4375,53.25 Q875.6719,53 875.9375,53 Q876.4063,53 876.7031,53.2813 Q877,53.5625 877,54.2188 L877,55.7813 Q877,56.4375 876.7188,56.7188 Q876.4375,57 876,57 Q875.6094,57 875.3594,56.8281 Q875.1094,56.6563 875,56.2031 Q874.9531,55.8906 874.7813,55.7188 Q874.4688,55.3906 873.9063,55.2031 Q873.3438,55 872.7813,55 Q872.0781,55 871.4844,55.2813 Q870.9063,55.5625 870.4531,56.1875 Q870,56.8125 870,57.6719 L870,58.5938 Q870,59.625 870.8438,60.3125 Q871.6875,61 873.1875,61 Q874.0781,61 874.7031,60.7969 Q875.0625,60.6875 875.4688,60.3281 Q875.7344,60.125 875.875,60.0625 Q876.0156,60 876.1875,60 Q876.5156,60 876.75,60.2656 Q877,60.5156 877,60.875 Q877,61.2188 876.6563,61.625 Q876.1563,62.2188 875.3594,62.5469 Q874.3125,63 873.0313,63 Q871.5313,63 870.3281,62.4063 Q869.3594,61.9375 868.6719,60.9219 Q868,59.9063 868,58.7031 L868,57.6094 Q868,56.3594 868.5938,55.2656 Q869.2031,54.1719 870.25,53.5938 Q871.3125,53 872.5,53 Q873.2188,53 873.8438,53.25 Q874.4688,53.5 875,54 Z " fill="#000000"/><text fill="#000000" font-family="sans-serif" font-size="12" lengthAdjust="spacing" textLength="45" x="891" y="62.4102">Estafeta</text><line style="stroke:#A80036;stroke-width:1.5;" x1="841" x2="956" y1="73.5" y2="73.5"/><text fill="#000000" font-family="sans-serif" font-size="11" lengthAdjust="spacing" textLength="86" x="846" y="88.9189">-int numSegSocial</text><text fill="#000000" font-family="sans-serif" font-size="11" lengthAdjust="spacing" textLength="74" x="846" y="102.7549">-int farmacia_id</text><text fill="#000000" font-family="sans-serif" font-size="11" lengthAdjust="spacing" textLength="105" x="846" y="116.5908">-int estadoEstafeta_id</text><!--MD5=[5093c62015235b3026463b234e5945de]
class Gestor--><rect codeLine="12" fill="#FEFECE" filter="url(#f1knu72pae66x9)" height="95.3438" id="Gestor" style="stroke:#A80036;stroke-width:1.5;" width="90" x="240" y="102"/><ellipse cx="264.45" cy="118" fill="#ADD1B2" rx="11" ry="11" style="stroke:#A80036;stroke-width:1.0;"/><path d="M266.45,114.5 Q266.6531,114 266.8875,113.75 Q267.1219,113.5 267.3875,113.5 Q267.8563,113.5 268.1531,113.7813 Q268.45,114.0625 268.45,114.7188 L268.45,116.2813 Q268.45,116.9375 268.1688,117.2188 Q267.8875,117.5 267.45,117.5 Q267.0594,117.5 266.8094,117.3281 Q266.5594,117.1563 266.45,116.7031 Q266.4031,116.3906 266.2313,116.2188 Q265.9188,115.8906 265.3563,115.7031 Q264.7938,115.5 264.2313,115.5 Q263.5281,115.5 262.9344,115.7813 Q262.3563,116.0625 261.9031,116.6875 Q261.45,117.3125 261.45,118.1719 L261.45,119.0938 Q261.45,120.125 262.2938,120.8125 Q263.1375,121.5 264.6375,121.5 Q265.5281,121.5 266.1531,121.2969 Q266.5125,121.1875 266.9188,120.8281 Q267.1844,120.625 267.325,120.5625 Q267.4656,120.5 267.6375,120.5 Q267.9656,120.5 268.2,120.7656 Q268.45,121.0156 268.45,121.375 Q268.45,121.7188 268.1063,122.125 Q267.6063,122.7188 266.8094,123.0469 Q265.7625,123.5 264.4813,123.5 Q262.9813,123.5 261.7781,122.9063 Q260.8094,122.4375 260.1219,121.4219 Q259.45,120.4063 259.45,119.2031 L259.45,118.1094 Q259.45,116.8594 260.0438,115.7656 Q260.6531,114.6719 261.7,114.0938 Q262.7625,113.5 263.95,113.5 Q264.6688,113.5 265.2938,113.75 Q265.9188,114 266.45,114.5 Z " fill="#000000"/><text fill="#000000" font-family="sans-serif" font-size="12" lengthAdjust="spacing" textLength="37" x="280.55" y="122.9102">Gestor</text><line style="stroke:#A80036;stroke-width:1.5;" x1="241" x2="329" y1="134" y2="134"/><text fill="#000000" font-family="sans-serif" font-size="11" lengthAdjust="spacing" textLength="61" x="246" y="149.4189">-String nome</text><text fill="#000000" font-family="sans-serif" font-size="11" lengthAdjust="spacing" textLength="54" x="246" y="163.2549">-double NIF</text><text fill="#000000" font-family="sans-serif" font-size="11" lengthAdjust="spacing" textLength="78" x="246" y="177.0908">-double telefone</text><text fill="#000000" font-family="sans-serif" font-size="11" lengthAdjust="spacing" textLength="59" x="246" y="190.9268">-String email</text><!--MD5=[5dd1d6732c071e710b9290b531f2fa3b]
class Utilizador--><rect codeLine="19" fill="#FEFECE" filter="url(#f1knu72pae66x9)" height="123.0156" id="Utilizador" style="stroke:#A80036;stroke-width:1.5;" width="97" x="7" y="7"/><ellipse cx="28.3" cy="23" fill="#ADD1B2" rx="11" ry="11" style="stroke:#A80036;stroke-width:1.0;"/><path d="M30.3,19.5 Q30.5031,19 30.7375,18.75 Q30.9719,18.5 31.2375,18.5 Q31.7063,18.5 32.0031,18.7813 Q32.3,19.0625 32.3,19.7188 L32.3,21.2813 Q32.3,21.9375 32.0188,22.2188 Q31.7375,22.5 31.3,22.5 Q30.9094,22.5 30.6594,22.3281 Q30.4094,22.1563 30.3,21.7031 Q30.2531,21.3906 30.0813,21.2188 Q29.7688,20.8906 29.2063,20.7031 Q28.6438,20.5 28.0813,20.5 Q27.3781,20.5 26.7844,20.7813 Q26.2063,21.0625 25.7531,21.6875 Q25.3,22.3125 25.3,23.1719 L25.3,24.0938 Q25.3,25.125 26.1438,25.8125 Q26.9875,26.5 28.4875,26.5 Q29.3781,26.5 30.0031,26.2969 Q30.3625,26.1875 30.7688,25.8281 Q31.0344,25.625 31.175,25.5625 Q31.3156,25.5 31.4875,25.5 Q31.8156,25.5 32.05,25.7656 Q32.3,26.0156 32.3,26.375 Q32.3,26.7188 31.9563,27.125 Q31.4563,27.7188 30.6594,28.0469 Q29.6125,28.5 28.3313,28.5 Q26.8313,28.5 25.6281,27.9063 Q24.6594,27.4375 23.9719,26.4219 Q23.3,25.4063 23.3,24.2031 L23.3,23.1094 Q23.3,21.8594 23.8938,20.7656 Q24.5031,19.6719 25.55,19.0938 Q26.6125,18.5 27.8,18.5 Q28.5188,18.5 29.1438,18.75 Q29.7688,19 30.3,19.5 Z " fill="#000000"/><text fill="#000000" font-family="sans-serif" font-size="12" lengthAdjust="spacing" textLength="51" x="43.7" y="27.9102">Utilizador</text><line style="stroke:#A80036;stroke-width:1.5;" x1="8" x2="103" y1="39" y2="39"/><text fill="#000000" font-family="sans-serif" font-size="11" lengthAdjust="spacing" textLength="61" x="13" y="54.4189">-String nome</text><text fill="#000000" font-family="sans-serif" font-size="11" lengthAdjust="spacing" textLength="59" x="13" y="68.2549">-String email</text><text fill="#000000" font-family="sans-serif" font-size="11" lengthAdjust="spacing" textLength="85" x="13" y="82.0908">-String password</text><text fill="#000000" font-family="sans-serif" font-size="11" lengthAdjust="spacing" textLength="30" x="13" y="95.9268">-int nif</text><text fill="#000000" font-family="sans-serif" font-size="11" lengthAdjust="spacing" textLength="57" x="13" y="109.7627">-int telefone</text><text fill="#000000" font-family="sans-serif" font-size="11" lengthAdjust="spacing" textLength="48" x="13" y="123.5986">int papelId</text><!--MD5=[6613c9cd406ef433ff06f5e98b28abd9]
class Farmacia--><rect codeLine="28" fill="#FEFECE" filter="url(#f1knu72pae66x9)" height="164.5234" id="Farmacia" style="stroke:#A80036;stroke-width:1.5;" width="226" x="489" y="129"/><ellipse cx="571.75" cy="145" fill="#ADD1B2" rx="11" ry="11" style="stroke:#A80036;stroke-width:1.0;"/><path d="M573.75,141.5 Q573.9531,141 574.1875,140.75 Q574.4219,140.5 574.6875,140.5 Q575.1563,140.5 575.4531,140.7813 Q575.75,141.0625 575.75,141.7188 L575.75,143.2813 Q575.75,143.9375 575.4688,144.2188 Q575.1875,144.5 574.75,144.5 Q574.3594,144.5 574.1094,144.3281 Q573.8594,144.1563 573.75,143.7031 Q573.7031,143.3906 573.5313,143.2188 Q573.2188,142.8906 572.6563,142.7031 Q572.0938,142.5 571.5313,142.5 Q570.8281,142.5 570.2344,142.7813 Q569.6563,143.0625 569.2031,143.6875 Q568.75,144.3125 568.75,145.1719 L568.75,146.0938 Q568.75,147.125 569.5938,147.8125 Q570.4375,148.5 571.9375,148.5 Q572.8281,148.5 573.4531,148.2969 Q573.8125,148.1875 574.2188,147.8281 Q574.4844,147.625 574.625,147.5625 Q574.7656,147.5 574.9375,147.5 Q575.2656,147.5 575.5,147.7656 Q575.75,148.0156 575.75,148.375 Q575.75,148.7188 575.4063,149.125 Q574.9063,149.7188 574.1094,150.0469 Q573.0625,150.5 571.7813,150.5 Q570.2813,150.5 569.0781,149.9063 Q568.1094,149.4375 567.4219,148.4219 Q566.75,147.4063 566.75,146.2031 L566.75,145.1094 Q566.75,143.8594 567.3438,142.7656 Q567.9531,141.6719 569,141.0938 Q570.0625,140.5 571.25,140.5 Q571.9688,140.5 572.5938,140.75 Q573.2188,141 573.75,141.5 Z " fill="#000000"/><text fill="#000000" font-family="sans-serif" font-size="12" lengthAdjust="spacing" textLength="52" x="592.25" y="149.9102">Farmacia</text><line style="stroke:#A80036;stroke-width:1.5;" x1="490" x2="714" y1="161" y2="161"/><text fill="#000000" font-family="sans-serif" font-size="11" lengthAdjust="spacing" textLength="29" x="495" y="176.4189">-int id;</text><text fill="#000000" font-family="sans-serif" font-size="11" lengthAdjust="spacing" textLength="64" x="495" y="190.2549">-String nome;</text><text fill="#000000" font-family="sans-serif" font-size="11" lengthAdjust="spacing" textLength="33" x="495" y="204.0908">-int nif;</text><text fill="#000000" font-family="sans-serif" font-size="11" lengthAdjust="spacing" textLength="60" x="495" y="217.9268">-int telefone;</text><text fill="#000000" font-family="sans-serif" font-size="11" lengthAdjust="spacing" textLength="62" x="495" y="231.7627">-String email;</text><text fill="#000000" font-family="sans-serif" font-size="11" lengthAdjust="spacing" textLength="95" x="495" y="245.5986">-String emailGestor;</text><text fill="#000000" font-family="sans-serif" font-size="11" lengthAdjust="spacing" textLength="82" x="495" y="259.4346">-String moradaId;</text><text fill="#000000" font-family="sans-serif" font-size="11" lengthAdjust="spacing" textLength="214" x="495" y="273.2705">-LugarEstacionamento lugarEstacionamento;</text><text fill="#000000" font-family="sans-serif" font-size="11" lengthAdjust="spacing" textLength="120" x="495" y="287.1064">-LugarDrone lugarDrone;</text><!--MD5=[77c6229b59f71ada4b7bed0495e5baba]
class Morada--><rect codeLine="40" fill="#FEFECE" filter="url(#f1knu72pae66x9)" height="109.1797" id="Morada" style="stroke:#A80036;stroke-width:1.5;" width="97" x="1054" y="157"/><ellipse cx="1079.8" cy="173" fill="#ADD1B2" rx="11" ry="11" style="stroke:#A80036;stroke-width:1.0;"/><path d="M1081.8,169.5 Q1082.0031,169 1082.2375,168.75 Q1082.4719,168.5 1082.7375,168.5 Q1083.2063,168.5 1083.5031,168.7813 Q1083.8,169.0625 1083.8,169.7188 L1083.8,171.2813 Q1083.8,171.9375 1083.5188,172.2188 Q1083.2375,172.5 1082.8,172.5 Q1082.4094,172.5 1082.1594,172.3281 Q1081.9094,172.1563 1081.8,171.7031 Q1081.7531,171.3906 1081.5813,171.2188 Q1081.2688,170.8906 1080.7063,170.7031 Q1080.1438,170.5 1079.5813,170.5 Q1078.8781,170.5 1078.2844,170.7813 Q1077.7063,171.0625 1077.2531,171.6875 Q1076.8,172.3125 1076.8,173.1719 L1076.8,174.0938 Q1076.8,175.125 1077.6438,175.8125 Q1078.4875,176.5 1079.9875,176.5 Q1080.8781,176.5 1081.5031,176.2969 Q1081.8625,176.1875 1082.2688,175.8281 Q1082.5344,175.625 1082.675,175.5625 Q1082.8156,175.5 1082.9875,175.5 Q1083.3156,175.5 1083.55,175.7656 Q1083.8,176.0156 1083.8,176.375 Q1083.8,176.7188 1083.4563,177.125 Q1082.9563,177.7188 1082.1594,178.0469 Q1081.1125,178.5 1079.8313,178.5 Q1078.3313,178.5 1077.1281,177.9063 Q1076.1594,177.4375 1075.4719,176.4219 Q1074.8,175.4063 1074.8,174.2031 L1074.8,173.1094 Q1074.8,171.8594 1075.3938,170.7656 Q1076.0031,169.6719 1077.05,169.0938 Q1078.1125,168.5 1079.3,168.5 Q1080.0188,168.5 1080.6438,168.75 Q1081.2688,169 1081.8,169.5 Z " fill="#000000"/><text fill="#000000" font-family="sans-serif" font-size="12" lengthAdjust="spacing" textLength="41" x="1096.2" y="177.9102">Morada</text><line style="stroke:#A80036;stroke-width:1.5;" x1="1055" x2="1150" y1="189" y2="189"/><text fill="#000000" font-family="sans-serif" font-size="11" lengthAdjust="spacing" textLength="29" x="1060" y="204.4189">-int id;</text><text fill="#000000" font-family="sans-serif" font-size="11" lengthAdjust="spacing" textLength="74" x="1060" y="218.2549">-String morada;</text><text fill="#000000" font-family="sans-serif" font-size="11" lengthAdjust="spacing" textLength="76" x="1060" y="232.0908">-double latitude;</text><text fill="#000000" font-family="sans-serif" font-size="11" lengthAdjust="spacing" textLength="85" x="1060" y="245.9268">-double longitude;</text><text fill="#000000" font-family="sans-serif" font-size="11" lengthAdjust="spacing" textLength="76" x="1060" y="259.7627">-double altitude;</text><!--MD5=[8061c3ef1796a8ee16308ba2d34e2f74]
link Utilizador to Gestor--><path codeLine="48" d="M104.19,85.48 C144.19,99.72 200.87,119.9 239.84,133.78 " fill="none" id="Utilizador-Gestor" style="stroke:#A80036;stroke-width:1.0;"/><polygon fill="#000000" points="143.7103,89.353,136.1751,83.5503,134.2035,89.0876,143.7103,89.353" style="stroke:#000000;stroke-width:1.0;"/><text fill="#000000" font-family="sans-serif" font-size="13" lengthAdjust="spacing" textLength="61" x="148" y="92.9951">atua como</text><text fill="#000000" font-family="sans-serif" font-size="13" lengthAdjust="spacing" textLength="7" x="111.8554" y="102.6687">1</text><text fill="#000000" font-family="sans-serif" font-size="13" lengthAdjust="spacing" textLength="7" x="225.0848" y="146.0454">1</text><!--MD5=[f2c9df80a7e24f4f1ed9bcc3b3f44f33]
link Utilizador to Estafeta--><path codeLine="49" d="M104.08,67.76 C215.89,66.05 504.13,61.9 745,60.5 C773.89,60.33 781.33,56.95 810,60.5 C819.79,61.71 830.07,63.66 839.99,65.91 " fill="none" id="Utilizador-Estafeta" style="stroke:#A80036;stroke-width:1.0;"/><polygon fill="#000000" points="370,54.6632,360.9475,51.747,360.9623,57.6249,370,54.6632" style="stroke:#000000;stroke-width:1.0;"/><text fill="#000000" font-family="sans-serif" font-size="13" lengthAdjust="spacing" textLength="84" x="374" y="59.9951">vai atuar como</text><text fill="#000000" font-family="sans-serif" font-size="13" lengthAdjust="spacing" textLength="7" x="112.0548" y="82.3925">1</text><text fill="#000000" font-family="sans-serif" font-size="13" lengthAdjust="spacing" textLength="7" x="825.045" y="78.3586">1</text><!--MD5=[fac988d653b72b353b2d061926f382b2]
link Gestor to Estafeta--><path codeLine="51" d="M330.12,139.74 C371.09,131.03 433.88,118.59 489,111.5 C613.46,95.49 760.48,87.77 839.79,84.52 " fill="none" id="Gestor-Estafeta" style="stroke:#A80036;stroke-width:1.0;"/><polygon fill="#000000" points="584.9709,81.1372,575.6619,79.1897,576.295,85.0333,584.9709,81.1372" style="stroke:#000000;stroke-width:1.0;"/><text fill="#000000" font-family="sans-serif" font-size="13" lengthAdjust="spacing" textLength="39" x="589" y="86.9951">regista</text><text fill="#000000" font-family="sans-serif" font-size="13" lengthAdjust="spacing" textLength="7" x="337.8688" y="152.9552">1</text><text fill="#000000" font-family="sans-serif" font-size="13" lengthAdjust="spacing" textLength="20" x="811.8454" y="99.2225">1..*</text><!--MD5=[7eeba4eb6746937a4fdc9a49a8bc62f5]
link Gestor to Farmacia--><path codeLine="52" d="M330.13,158.19 C371.19,166.27 434.12,178.65 488.99,189.45 " fill="none" id="Gestor-Farmacia" style="stroke:#A80036;stroke-width:1.0;"/><polygon fill="#000000" points="399.4059,155.6412,391.0985,151.0112,389.9636,156.7784,399.4059,155.6412" style="stroke:#000000;stroke-width:1.0;"/><text fill="#000000" font-family="sans-serif" font-size="13" lengthAdjust="spacing" textLength="25" x="403.5" y="159.9951">gere</text><text fill="#000000" font-family="sans-serif" font-size="13" lengthAdjust="spacing" textLength="7" x="337.8804" y="174.3457">1</text><text fill="#000000" font-family="sans-serif" font-size="13" lengthAdjust="spacing" textLength="7" x="474.162" y="202.029">1</text><!--MD5=[08a226357f7374c4c48c303887e0ed2a]
link Gestor to Morada--><path codeLine="53" d="M327.63,197.16 C365.27,236.34 424.53,288.93 489,311.5 C691.11,382.26 948.58,282.88 1053.63,234.88 " fill="none" id="Gestor-Morada" style="stroke:#A80036;stroke-width:1.0;"/><polygon fill="#000000" points="768.9933,308.9352,760.1129,305.5309,759.8079,311.4009,768.9933,308.9352" style="stroke:#000000;stroke-width:1.0;"/><text fill="#000000" font-family="sans-serif" font-size="13" lengthAdjust="spacing" textLength="22" x="773" y="313.9951">tem</text><text fill="#000000" font-family="sans-serif" font-size="13" lengthAdjust="spacing" textLength="7" x="326.3772" y="218.8308">1</text><text fill="#000000" font-family="sans-serif" font-size="13" lengthAdjust="spacing" textLength="7" x="1038.9382" y="252.9967">1</text><!--MD5=[06143d4fc5f7e61d4193d2b4f541983b]
link Farmacia to Estafeta--><path codeLine="55" d="M715.18,162.36 C757.6,143.78 804.15,123.39 839.6,107.86 " fill="none" id="Farmacia-Estafeta" style="stroke:#A80036;stroke-width:1.0;"/><polygon fill="#000000" points="754.5799,112.6696,745.1156,113.6068,747.474,118.9908,754.5799,112.6696" style="stroke:#000000;stroke-width:1.0;"/><text fill="#000000" font-family="sans-serif" font-size="13" lengthAdjust="spacing" textLength="50" x="759" y="119.9951">emprega</text><text fill="#000000" font-family="sans-serif" font-size="13" lengthAdjust="spacing" textLength="7" x="723.0194" y="173.1188">1</text><text fill="#000000" font-family="sans-serif" font-size="13" lengthAdjust="spacing" textLength="20" x="812.0641" y="125.05">1..*</text><!--MD5=[2616f85fad36dd9f3c806011aba200f0]
link Farmacia to Morada--><path codeLine="56" d="M715.18,211.5 C821.7,211.5 976.69,211.5 1053.98,211.5 " fill="none" id="Farmacia-Morada" style="stroke:#A80036;stroke-width:1.0;"/><polygon fill="#000000" points="890,202.6758,880.9549,199.7369,880.9549,205.6147,890,202.6758" style="stroke:#000000;stroke-width:1.0;"/><text fill="#000000" font-family="sans-serif" font-size="13" lengthAdjust="spacing" textLength="22" x="894" y="207.9951">tem</text><text fill="#000000" font-family="sans-serif" font-size="13" lengthAdjust="spacing" textLength="7" x="723.0194" y="225.5604">1</text><text fill="#000000" font-family="sans-serif" font-size="13" lengthAdjust="spacing" textLength="7" x="1039.0144" y="226.2333">1</text><!--MD5=[089fe6f586f20a69513fcb284eaee70a]
link Estafeta to Morada--><path codeLine="58" d="M957.11,119.29 C987.67,138.81 1024.76,162.49 1053.7,180.97 " fill="none" id="Estafeta-Morada" style="stroke:#A80036;stroke-width:1.0;"/><polygon fill="#000000" points="996.2141,132.3668,990.1725,125.0217,987.009,129.9757,996.2141,132.3668" style="stroke:#000000;stroke-width:1.0;"/><text fill="#000000" font-family="sans-serif" font-size="13" lengthAdjust="spacing" textLength="22" x="1001" y="134.9951">tem</text><text fill="#000000" font-family="sans-serif" font-size="13" lengthAdjust="spacing" textLength="7" x="965.0678" y="138.5779">1</text><text fill="#000000" font-family="sans-serif" font-size="13" lengthAdjust="spacing" textLength="7" x="1039.0184" y="191.1686">1</text><!--MD5=[2fa7e4bb6df85712b890538961b5031f]
@startuml
skinparam classAttributeIconSize 0

hide methods
left to right direction

class Estafeta {
  -int numSegSocial
  -int farmacia_id
  -int estadoEstafeta_id
}

class Gestor {
  -String nome
  -double NIF
  -double telefone
  -String email
}

class Utilizador {
  -String nome
  -String email
  -String password
  -int nif
  -int telefone
  int papelId
}

class Farmacia {
    -int id;
    -String nome;
    -int nif;
    -int telefone;
    -String email;
    -String emailGestor;
    -String moradaId;
    -LugarEstacionamento lugarEstacionamento;
    -LugarDrone lugarDrone;
}

class Morada{
    -int id;
    -String morada;
    -double latitude;
    -double longitude;
    -double altitude;
}

Utilizador "1" - - "1" Gestor: atua como >
Utilizador "1" - - "1" Estafeta: vai atuar como >

Gestor "1" - - "1..*" Estafeta: regista >
Gestor "1" - - "1" Farmacia: gere >
Gestor "1" - - "1" Morada: tem >

Farmacia "1" - - "1..*" Estafeta: emprega >
Farmacia "1" - - "1" Morada: tem >

Estafeta "1" - - "1" Morada: tem >

@enduml

PlantUML version 1.2021.00(Sun Jan 10 10:25:05 GMT 2021)
(GPL source distribution)
Java Runtime: OpenJDK Runtime Environment
JVM: OpenJDK 64-Bit Server VM
Default Encoding: Cp1252
Language: pt
Country: PT
--></g></svg>