<?xml version="1.0" encoding="UTF-8" standalone="no"?><svg xmlns="http://www.w3.org/2000/svg" xmlns:xlink="http://www.w3.org/1999/xlink" contentScriptType="application/ecmascript" contentStyleType="text/css" height="410px" preserveAspectRatio="none" style="width:415px;height:410px;" version="1.1" viewBox="0 0 415 410" width="415px" zoomAndPan="magnify"><defs><filter height="300%" id="ff24yj2m22810" width="300%" x="-1" y="-1"><feGaussianBlur result="blurOut" stdDeviation="2.0"/><feColorMatrix in="blurOut" result="blurOut2" type="matrix" values="0 0 0 0 0 0 0 0 0 0 0 0 0 0 0 0 0 0 .4 0"/><feOffset dx="4.0" dy="4.0" in="blurOut2" result="blurOut3"/><feBlend in="SourceGraphic" in2="blurOut3" mode="normal"/></filter></defs><g><rect fill="#FFFFFF" filter="url(#ff24yj2m22810)" height="206.8125" style="stroke:#A80036;stroke-width:1.0;" width="10" x="24.5" y="99.6094"/><rect fill="#FFFFFF" filter="url(#ff24yj2m22810)" height="63.0547" style="stroke:#A80036;stroke-width:1.0;" width="10" x="364.5" y="121.9609"/><rect fill="#FFFFFF" filter="url(#ff24yj2m22810)" height="30.3516" style="stroke:#A80036;stroke-width:1.0;" width="10" x="364.5" y="215.3672"/><rect fill="#FFFFFF" filter="url(#ff24yj2m22810)" height="30.3516" style="stroke:#A80036;stroke-width:1.0;" width="10" x="364.5" y="276.0703"/><line style="stroke:#A80036;stroke-width:1.0;stroke-dasharray:5.0,5.0;" x1="29" x2="29" y1="89.6094" y2="324.4219"/><line style="stroke:#A80036;stroke-width:1.0;stroke-dasharray:5.0,5.0;" x1="369.5" x2="369.5" y1="89.6094" y2="324.4219"/><text fill="#000000" font-family="sans-serif" font-size="14" lengthAdjust="spacing" textLength="43" x="5" y="86.5332">Gestor</text><ellipse cx="29.5" cy="15" fill="#FEFECE" filter="url(#ff24yj2m22810)" rx="8" ry="8" style="stroke:#A80036;stroke-width:2.0;"/><path d="M29.5,23 L29.5,50 M16.5,31 L42.5,31 M29.5,50 L16.5,65 M29.5,50 L42.5,65 " fill="none" filter="url(#ff24yj2m22810)" style="stroke:#A80036;stroke-width:2.0;"/><text fill="#000000" font-family="sans-serif" font-size="14" lengthAdjust="spacing" textLength="43" x="5" y="337.9551">Gestor</text><ellipse cx="29.5" cy="351.0313" fill="#FEFECE" filter="url(#ff24yj2m22810)" rx="8" ry="8" style="stroke:#A80036;stroke-width:2.0;"/><path d="M29.5,359.0313 L29.5,386.0313 M16.5,367.0313 L42.5,367.0313 M29.5,386.0313 L16.5,401.0313 M29.5,386.0313 L42.5,401.0313 " fill="none" filter="url(#ff24yj2m22810)" style="stroke:#A80036;stroke-width:2.0;"/><rect fill="#FEFECE" filter="url(#ff24yj2m22810)" height="31.6094" style="stroke:#A80036;stroke-width:1.5;" width="68" x="333.5" y="53"/><text fill="#000000" font-family="sans-serif" font-size="14" lengthAdjust="spacing" textLength="54" x="340.5" y="74.5332">:Sistema</text><rect fill="#FEFECE" filter="url(#ff24yj2m22810)" height="31.6094" style="stroke:#A80036;stroke-width:1.5;" width="68" x="333.5" y="323.4219"/><text fill="#000000" font-family="sans-serif" font-size="14" lengthAdjust="spacing" textLength="54" x="340.5" y="344.9551">:Sistema</text><rect fill="#FFFFFF" filter="url(#ff24yj2m22810)" height="206.8125" style="stroke:#A80036;stroke-width:1.0;" width="10" x="24.5" y="99.6094"/><rect fill="#FFFFFF" filter="url(#ff24yj2m22810)" height="63.0547" style="stroke:#A80036;stroke-width:1.0;" width="10" x="364.5" y="121.9609"/><rect fill="#FFFFFF" filter="url(#ff24yj2m22810)" height="30.3516" style="stroke:#A80036;stroke-width:1.0;" width="10" x="364.5" y="215.3672"/><rect fill="#FFFFFF" filter="url(#ff24yj2m22810)" height="30.3516" style="stroke:#A80036;stroke-width:1.0;" width="10" x="364.5" y="276.0703"/><polygon fill="#A80036" points="352.5,117.9609,362.5,121.9609,352.5,125.9609,356.5,121.9609" style="stroke:#A80036;stroke-width:1.0;"/><line style="stroke:#A80036;stroke-width:1.0;" x1="34.5" x2="358.5" y1="121.9609" y2="121.9609"/><text fill="#000000" font-family="sans-serif" font-size="13" font-weight="bold" lengthAdjust="spacing" textLength="7" x="41.5" y="117.1045">1</text><text fill="#000000" font-family="sans-serif" font-size="13" lengthAdjust="spacing" textLength="176" x="52.5" y="117.1045">inicia o registo de um Estafeta</text><polygon fill="#A80036" points="45.5,181.0156,35.5,185.0156,45.5,189.0156,41.5,185.0156" style="stroke:#A80036;stroke-width:1.0;"/><line style="stroke:#A80036;stroke-width:1.0;stroke-dasharray:2.0,2.0;" x1="39.5" x2="368.5" y1="185.0156" y2="185.0156"/><text fill="#000000" font-family="sans-serif" font-size="13" font-weight="bold" lengthAdjust="spacing" textLength="7" x="51.5" y="163.8076">2</text><text fill="#000000" font-family="sans-serif" font-size="13" lengthAdjust="spacing" textLength="172" x="62.5" y="147.4561">solicita os dados necessários</text><text fill="#000000" font-family="sans-serif" font-size="13" lengthAdjust="spacing" textLength="245" x="62.5" y="163.8076">(i.e. nome, NIF, email, password, telefone,</text><text fill="#000000" font-family="sans-serif" font-size="13" lengthAdjust="spacing" textLength="295" x="62.5" y="180.1592">numSegSocial morada, longitude, latitude, altitude)</text><polygon fill="#A80036" points="352.5,211.3672,362.5,215.3672,352.5,219.3672,356.5,215.3672" style="stroke:#A80036;stroke-width:1.0;"/><line style="stroke:#A80036;stroke-width:1.0;" x1="34.5" x2="358.5" y1="215.3672" y2="215.3672"/><text fill="#000000" font-family="sans-serif" font-size="13" font-weight="bold" lengthAdjust="spacing" textLength="7" x="41.5" y="210.5107">3</text><text fill="#000000" font-family="sans-serif" font-size="13" lengthAdjust="spacing" textLength="169" x="52.5" y="210.5107">introduz os dados solicitados</text><polygon fill="#A80036" points="45.5,241.7188,35.5,245.7188,45.5,249.7188,41.5,245.7188" style="stroke:#A80036;stroke-width:1.0;"/><line style="stroke:#A80036;stroke-width:1.0;stroke-dasharray:2.0,2.0;" x1="39.5" x2="368.5" y1="245.7188" y2="245.7188"/><text fill="#000000" font-family="sans-serif" font-size="13" font-weight="bold" lengthAdjust="spacing" textLength="7" x="51.5" y="240.8623">4</text><text fill="#000000" font-family="sans-serif" font-size="13" lengthAdjust="spacing" textLength="226" x="62.5" y="240.8623">apresenta dados e solicita confirmação</text><polygon fill="#A80036" points="352.5,272.0703,362.5,276.0703,352.5,280.0703,356.5,276.0703" style="stroke:#A80036;stroke-width:1.0;"/><line style="stroke:#A80036;stroke-width:1.0;" x1="34.5" x2="358.5" y1="276.0703" y2="276.0703"/><text fill="#000000" font-family="sans-serif" font-size="13" font-weight="bold" lengthAdjust="spacing" textLength="7" x="41.5" y="271.2139">5</text><text fill="#000000" font-family="sans-serif" font-size="13" lengthAdjust="spacing" textLength="49" x="52.5" y="271.2139">confirma</text><polygon fill="#A80036" points="40.5,302.4219,30.5,306.4219,40.5,310.4219,36.5,306.4219" style="stroke:#A80036;stroke-width:1.0;"/><line style="stroke:#A80036;stroke-width:1.0;stroke-dasharray:2.0,2.0;" x1="34.5" x2="368.5" y1="306.4219" y2="306.4219"/><text fill="#000000" font-family="sans-serif" font-size="13" font-weight="bold" lengthAdjust="spacing" textLength="7" x="46.5" y="301.5654">6</text><text fill="#000000" font-family="sans-serif" font-size="13" lengthAdjust="spacing" textLength="184" x="57.5" y="301.5654">informa operação bem sucedida</text><!--MD5=[1a0f6aa6cfdad3d9e44e00ea8a9210ee]
@startuml
autonumber
actor "Gestor" as G
participant ":Sistema" as SIST

activate G
G -> SIST : inicia o registo de um Estafeta

activate SIST
SIST - -> G : solicita os dados necessários \n(i.e. nome, NIF, email, password, telefone, \nnumSegSocial morada, longitude, latitude, altitude)
deactivate SIST

G -> SIST : introduz os dados solicitados

activate SIST
SIST - -> G : apresenta dados e solicita confirmação
deactivate SIST

G -> SIST : confirma

activate SIST
SIST - -> G : informa operação bem sucedida
deactivate SIST

deactivate G

@enduml

PlantUML version 1.2021.00(Sun Jan 10 10:25:05 GMT 2021)
(GPL source distribution)
Java Runtime: OpenJDK Runtime Environment
JVM: OpenJDK 64-Bit Server VM
Default Encoding: Cp1252
Language: pt
Country: PT
--></g></svg>