<?xml version="1.0" encoding="UTF-8" standalone="no"?><svg xmlns="http://www.w3.org/2000/svg" xmlns:xlink="http://www.w3.org/1999/xlink" contentScriptType="application/ecmascript" contentStyleType="text/css" height="136px" preserveAspectRatio="none" style="width:311px;height:136px;" version="1.1" viewBox="0 0 311 136" width="311px" zoomAndPan="magnify"><defs><filter height="300%" id="f1ai5ys1hcosl8" width="300%" x="-1" y="-1"><feGaussianBlur result="blurOut" stdDeviation="2.0"/><feColorMatrix in="blurOut" result="blurOut2" type="matrix" values="0 0 0 0 0 0 0 0 0 0 0 0 0 0 0 0 0 0 .4 0"/><feOffset dx="4.0" dy="4.0" in="blurOut2" result="blurOut3"/><feBlend in="SourceGraphic" in2="blurOut3" mode="normal"/></filter></defs><g><!--MD5=[20a748d5ee336a9a91751b0a3d4f0beb]
class Cliente--><rect codeLine="9" fill="#FEFECE" filter="url(#f1ai5ys1hcosl8)" height="40" id="Cliente" style="stroke:#A80036;stroke-width:1.5;" width="71" x="7" y="45"/><ellipse cx="22" cy="61" fill="#ADD1B2" rx="11" ry="11" style="stroke:#A80036;stroke-width:1.0;"/><path d="M24,57.5 Q24.2031,57 24.4375,56.75 Q24.6719,56.5 24.9375,56.5 Q25.4063,56.5 25.7031,56.7813 Q26,57.0625 26,57.7188 L26,59.2813 Q26,59.9375 25.7188,60.2188 Q25.4375,60.5 25,60.5 Q24.6094,60.5 24.3594,60.3281 Q24.1094,60.1563 24,59.7031 Q23.9531,59.3906 23.7813,59.2188 Q23.4688,58.8906 22.9063,58.7031 Q22.3438,58.5 21.7813,58.5 Q21.0781,58.5 20.4844,58.7813 Q19.9063,59.0625 19.4531,59.6875 Q19,60.3125 19,61.1719 L19,62.0938 Q19,63.125 19.8438,63.8125 Q20.6875,64.5 22.1875,64.5 Q23.0781,64.5 23.7031,64.2969 Q24.0625,64.1875 24.4688,63.8281 Q24.7344,63.625 24.875,63.5625 Q25.0156,63.5 25.1875,63.5 Q25.5156,63.5 25.75,63.7656 Q26,64.0156 26,64.375 Q26,64.7188 25.6563,65.125 Q25.1563,65.7188 24.3594,66.0469 Q23.3125,66.5 22.0313,66.5 Q20.5313,66.5 19.3281,65.9063 Q18.3594,65.4375 17.6719,64.4219 Q17,63.4063 17,62.2031 L17,61.1094 Q17,59.8594 17.5938,58.7656 Q18.2031,57.6719 19.25,57.0938 Q20.3125,56.5 21.5,56.5 Q22.2188,56.5 22.8438,56.75 Q23.4688,57 24,57.5 Z " fill="#000000"/><text fill="#000000" font-family="sans-serif" font-size="12" lengthAdjust="spacing" textLength="39" x="36" y="65.9102">Cliente</text><line style="stroke:#A80036;stroke-width:1.5;" x1="8" x2="77" y1="77" y2="77"/><!--MD5=[77c6229b59f71ada4b7bed0495e5baba]
class Morada--><rect codeLine="12" fill="#FEFECE" filter="url(#f1ai5ys1hcosl8)" height="40" id="Morada" style="stroke:#A80036;stroke-width:1.5;" width="73" x="219" y="7"/><ellipse cx="234" cy="23" fill="#ADD1B2" rx="11" ry="11" style="stroke:#A80036;stroke-width:1.0;"/><path d="M236,19.5 Q236.2031,19 236.4375,18.75 Q236.6719,18.5 236.9375,18.5 Q237.4063,18.5 237.7031,18.7813 Q238,19.0625 238,19.7188 L238,21.2813 Q238,21.9375 237.7188,22.2188 Q237.4375,22.5 237,22.5 Q236.6094,22.5 236.3594,22.3281 Q236.1094,22.1563 236,21.7031 Q235.9531,21.3906 235.7813,21.2188 Q235.4688,20.8906 234.9063,20.7031 Q234.3438,20.5 233.7813,20.5 Q233.0781,20.5 232.4844,20.7813 Q231.9063,21.0625 231.4531,21.6875 Q231,22.3125 231,23.1719 L231,24.0938 Q231,25.125 231.8438,25.8125 Q232.6875,26.5 234.1875,26.5 Q235.0781,26.5 235.7031,26.2969 Q236.0625,26.1875 236.4688,25.8281 Q236.7344,25.625 236.875,25.5625 Q237.0156,25.5 237.1875,25.5 Q237.5156,25.5 237.75,25.7656 Q238,26.0156 238,26.375 Q238,26.7188 237.6563,27.125 Q237.1563,27.7188 236.3594,28.0469 Q235.3125,28.5 234.0313,28.5 Q232.5313,28.5 231.3281,27.9063 Q230.3594,27.4375 229.6719,26.4219 Q229,25.4063 229,24.2031 L229,23.1094 Q229,21.8594 229.5938,20.7656 Q230.2031,19.6719 231.25,19.0938 Q232.3125,18.5 233.5,18.5 Q234.2188,18.5 234.8438,18.75 Q235.4688,19 236,19.5 Z " fill="#000000"/><text fill="#000000" font-family="sans-serif" font-size="12" lengthAdjust="spacing" textLength="41" x="248" y="27.9102">Morada</text><line style="stroke:#A80036;stroke-width:1.5;" x1="220" x2="291" y1="39" y2="39"/><!--MD5=[5dd1d6732c071e710b9290b531f2fa3b]
class Utilizador--><rect codeLine="15" fill="#FEFECE" filter="url(#f1ai5ys1hcosl8)" height="40" id="Utilizador" style="stroke:#A80036;stroke-width:1.5;" width="83" x="214" y="82"/><ellipse cx="229" cy="98" fill="#ADD1B2" rx="11" ry="11" style="stroke:#A80036;stroke-width:1.0;"/><path d="M231,94.5 Q231.2031,94 231.4375,93.75 Q231.6719,93.5 231.9375,93.5 Q232.4063,93.5 232.7031,93.7813 Q233,94.0625 233,94.7188 L233,96.2813 Q233,96.9375 232.7188,97.2188 Q232.4375,97.5 232,97.5 Q231.6094,97.5 231.3594,97.3281 Q231.1094,97.1563 231,96.7031 Q230.9531,96.3906 230.7813,96.2188 Q230.4688,95.8906 229.9063,95.7031 Q229.3438,95.5 228.7813,95.5 Q228.0781,95.5 227.4844,95.7813 Q226.9063,96.0625 226.4531,96.6875 Q226,97.3125 226,98.1719 L226,99.0938 Q226,100.125 226.8438,100.8125 Q227.6875,101.5 229.1875,101.5 Q230.0781,101.5 230.7031,101.2969 Q231.0625,101.1875 231.4688,100.8281 Q231.7344,100.625 231.875,100.5625 Q232.0156,100.5 232.1875,100.5 Q232.5156,100.5 232.75,100.7656 Q233,101.0156 233,101.375 Q233,101.7188 232.6563,102.125 Q232.1563,102.7188 231.3594,103.0469 Q230.3125,103.5 229.0313,103.5 Q227.5313,103.5 226.3281,102.9063 Q225.3594,102.4375 224.6719,101.4219 Q224,100.4063 224,99.2031 L224,98.1094 Q224,96.8594 224.5938,95.7656 Q225.2031,94.6719 226.25,94.0938 Q227.3125,93.5 228.5,93.5 Q229.2188,93.5 229.8438,93.75 Q230.4688,94 231,94.5 Z " fill="#000000"/><text fill="#000000" font-family="sans-serif" font-size="12" lengthAdjust="spacing" textLength="51" x="243" y="102.9102">Utilizador</text><line style="stroke:#A80036;stroke-width:1.5;" x1="215" x2="296" y1="114" y2="114"/><!--MD5=[00a2b7b20e7d7828fa181bc7c0dc6998]
link Cliente to Utilizador--><path codeLine="18" d="M78.19,79.14 C87.71,82.53 98.14,85.81 108,88 C143.29,95.85 184.33,99.3 213.97,100.82 " fill="none" id="Cliente-Utilizador" style="stroke:#A80036;stroke-width:1.0;"/><polygon fill="#000000" points="117.9375,79.9641,109.4689,75.6358,108.5421,81.4401,117.9375,79.9641" style="stroke:#000000;stroke-width:1.0;"/><text fill="#000000" font-family="sans-serif" font-size="13" lengthAdjust="spacing" textLength="61" x="122" y="84.4951">atua como</text><text fill="#000000" font-family="sans-serif" font-size="13" lengthAdjust="spacing" textLength="7" x="85.9055" y="97.0285">1</text><text fill="#000000" font-family="sans-serif" font-size="13" lengthAdjust="spacing" textLength="7" x="198.949" y="115.5612">1</text><!--MD5=[a602fb0a2a1e983f14b1435561d150f4]
link Cliente to Morada--><path codeLine="20" d="M78.34,58.73 C117.2,51.73 179.74,40.46 218.9,33.41 " fill="none" id="Cliente-Morada" style="stroke:#A80036;stroke-width:1.0;"/><polygon fill="#000000" points="137.4208,31.2894,127.998,30.0005,129.04,35.7853,137.4208,31.2894" style="stroke:#000000;stroke-width:1.0;"/><text fill="#000000" font-family="sans-serif" font-size="13" lengthAdjust="spacing" textLength="22" x="141.5" y="37.4951">tem</text><text fill="#000000" font-family="sans-serif" font-size="13" lengthAdjust="spacing" textLength="7" x="86.0851" y="72.6003">1</text><text fill="#000000" font-family="sans-serif" font-size="13" lengthAdjust="spacing" textLength="7" x="204.0053" y="49.7767">1</text><!--MD5=[f558a0dd7a0236471086ad5bacbc9c77]
@startuml

skinparam classAttributeIconSize 0

hide methods

left to right direction


class Cliente{}


class Morada{}


class Utilizador{}


Cliente "1" - - "1" Utilizador : atua como >

Cliente "1" - - "1" Morada : tem >


@enduml

PlantUML version 1.2021.00(Sun Jan 10 10:25:05 GMT 2021)
(GPL source distribution)
Java Runtime: OpenJDK Runtime Environment
JVM: OpenJDK 64-Bit Server VM
Default Encoding: Cp1252
Language: pt
Country: PT
--></g></svg>