<?xml version="1.0" encoding="UTF-8" standalone="no"?><svg xmlns="http://www.w3.org/2000/svg" xmlns:xlink="http://www.w3.org/1999/xlink" contentScriptType="application/ecmascript" contentStyleType="text/css" height="377px" preserveAspectRatio="none" style="width:875px;height:377px;" version="1.1" viewBox="0 0 875 377" width="875px" zoomAndPan="magnify"><defs><filter height="300%" id="fzl5rtjtd4j1n" width="300%" x="-1" y="-1"><feGaussianBlur result="blurOut" stdDeviation="2.0"/><feColorMatrix in="blurOut" result="blurOut2" type="matrix" values="0 0 0 0 0 0 0 0 0 0 0 0 0 0 0 0 0 0 .4 0"/><feOffset dx="4.0" dy="4.0" in="blurOut2" result="blurOut3"/><feBlend in="SourceGraphic" in2="blurOut3" mode="normal"/></filter></defs><g><rect fill="#FFFFFF" filter="url(#fzl5rtjtd4j1n)" height="174.1094" style="stroke:#A80036;stroke-width:1.0;" width="10" x="77" y="99.6094"/><rect fill="#FFFFFF" filter="url(#fzl5rtjtd4j1n)" height="30.3516" style="stroke:#A80036;stroke-width:1.0;" width="10" x="824" y="121.9609"/><rect fill="#FFFFFF" filter="url(#fzl5rtjtd4j1n)" height="30.3516" style="stroke:#A80036;stroke-width:1.0;" width="10" x="824" y="182.6641"/><rect fill="#FFFFFF" filter="url(#fzl5rtjtd4j1n)" height="30.3516" style="stroke:#A80036;stroke-width:1.0;" width="10" x="824" y="243.3672"/><line style="stroke:#A80036;stroke-width:1.0;stroke-dasharray:5.0,5.0;" x1="82" x2="82" y1="89.6094" y2="291.7188"/><line style="stroke:#A80036;stroke-width:1.0;stroke-dasharray:5.0,5.0;" x1="829" x2="829" y1="89.6094" y2="291.7188"/><text fill="#000000" font-family="sans-serif" font-size="14" lengthAdjust="spacing" textLength="148" x="5" y="86.5332">Utilizador nao registado</text><ellipse cx="82" cy="15" fill="#FEFECE" filter="url(#fzl5rtjtd4j1n)" rx="8" ry="8" style="stroke:#A80036;stroke-width:2.0;"/><path d="M82,23 L82,50 M69,31 L95,31 M82,50 L69,65 M82,50 L95,65 " fill="none" filter="url(#fzl5rtjtd4j1n)" style="stroke:#A80036;stroke-width:2.0;"/><text fill="#000000" font-family="sans-serif" font-size="14" lengthAdjust="spacing" textLength="148" x="5" y="305.252">Utilizador nao registado</text><ellipse cx="82" cy="318.3281" fill="#FEFECE" filter="url(#fzl5rtjtd4j1n)" rx="8" ry="8" style="stroke:#A80036;stroke-width:2.0;"/><path d="M82,326.3281 L82,353.3281 M69,334.3281 L95,334.3281 M82,353.3281 L69,368.3281 M82,353.3281 L95,368.3281 " fill="none" filter="url(#fzl5rtjtd4j1n)" style="stroke:#A80036;stroke-width:2.0;"/><rect fill="#FEFECE" filter="url(#fzl5rtjtd4j1n)" height="31.6094" style="stroke:#A80036;stroke-width:1.5;" width="68" x="793" y="53"/><text fill="#000000" font-family="sans-serif" font-size="14" lengthAdjust="spacing" textLength="54" x="800" y="74.5332">:Sistema</text><rect fill="#FEFECE" filter="url(#fzl5rtjtd4j1n)" height="31.6094" style="stroke:#A80036;stroke-width:1.5;" width="68" x="793" y="290.7188"/><text fill="#000000" font-family="sans-serif" font-size="14" lengthAdjust="spacing" textLength="54" x="800" y="312.252">:Sistema</text><rect fill="#FFFFFF" filter="url(#fzl5rtjtd4j1n)" height="174.1094" style="stroke:#A80036;stroke-width:1.0;" width="10" x="77" y="99.6094"/><rect fill="#FFFFFF" filter="url(#fzl5rtjtd4j1n)" height="30.3516" style="stroke:#A80036;stroke-width:1.0;" width="10" x="824" y="121.9609"/><rect fill="#FFFFFF" filter="url(#fzl5rtjtd4j1n)" height="30.3516" style="stroke:#A80036;stroke-width:1.0;" width="10" x="824" y="182.6641"/><rect fill="#FFFFFF" filter="url(#fzl5rtjtd4j1n)" height="30.3516" style="stroke:#A80036;stroke-width:1.0;" width="10" x="824" y="243.3672"/><polygon fill="#A80036" points="812,117.9609,822,121.9609,812,125.9609,816,121.9609" style="stroke:#A80036;stroke-width:1.0;"/><line style="stroke:#A80036;stroke-width:1.0;" x1="87" x2="818" y1="121.9609" y2="121.9609"/><text fill="#000000" font-family="sans-serif" font-size="13" font-weight="bold" lengthAdjust="spacing" textLength="7" x="94" y="117.1045">1</text><text fill="#000000" font-family="sans-serif" font-size="13" lengthAdjust="spacing" textLength="216" x="105" y="117.1045">Registar novo Utilizador como Cliente</text><polygon fill="#A80036" points="98,148.3125,88,152.3125,98,156.3125,94,152.3125" style="stroke:#A80036;stroke-width:1.0;"/><line style="stroke:#A80036;stroke-width:1.0;stroke-dasharray:2.0,2.0;" x1="92" x2="828" y1="152.3125" y2="152.3125"/><text fill="#000000" font-family="sans-serif" font-size="13" font-weight="bold" lengthAdjust="spacing" textLength="7" x="104" y="147.4561">2</text><text fill="#000000" font-family="sans-serif" font-size="13" lengthAdjust="spacing" textLength="702" x="115" y="147.4561">Solicita dados do utilizador (nome, NIF, telefone, morada, coordenadas GPS, informacao cartao credito, email, password)</text><polygon fill="#A80036" points="812,178.6641,822,182.6641,812,186.6641,816,182.6641" style="stroke:#A80036;stroke-width:1.0;"/><line style="stroke:#A80036;stroke-width:1.0;" x1="87" x2="818" y1="182.6641" y2="182.6641"/><text fill="#000000" font-family="sans-serif" font-size="13" font-weight="bold" lengthAdjust="spacing" textLength="7" x="94" y="177.8076">3</text><text fill="#000000" font-family="sans-serif" font-size="13" lengthAdjust="spacing" textLength="169" x="105" y="177.8076">introduz os dados solicitados</text><polygon fill="#A80036" points="98,209.0156,88,213.0156,98,217.0156,94,213.0156" style="stroke:#A80036;stroke-width:1.0;"/><line style="stroke:#A80036;stroke-width:1.0;stroke-dasharray:2.0,2.0;" x1="92" x2="828" y1="213.0156" y2="213.0156"/><text fill="#000000" font-family="sans-serif" font-size="13" font-weight="bold" lengthAdjust="spacing" textLength="7" x="104" y="208.1592">4</text><text fill="#000000" font-family="sans-serif" font-size="13" lengthAdjust="spacing" textLength="305" x="115" y="208.1592">valida e apresenta os dados, solicitando confirmacao</text><polygon fill="#A80036" points="812,239.3672,822,243.3672,812,247.3672,816,243.3672" style="stroke:#A80036;stroke-width:1.0;"/><line style="stroke:#A80036;stroke-width:1.0;" x1="87" x2="818" y1="243.3672" y2="243.3672"/><text fill="#000000" font-family="sans-serif" font-size="13" font-weight="bold" lengthAdjust="spacing" textLength="7" x="94" y="238.5107">5</text><text fill="#000000" font-family="sans-serif" font-size="13" lengthAdjust="spacing" textLength="49" x="105" y="238.5107">confirma</text><polygon fill="#A80036" points="93,269.7188,83,273.7188,93,277.7188,89,273.7188" style="stroke:#A80036;stroke-width:1.0;"/><line style="stroke:#A80036;stroke-width:1.0;stroke-dasharray:2.0,2.0;" x1="87" x2="828" y1="273.7188" y2="273.7188"/><text fill="#000000" font-family="sans-serif" font-size="13" font-weight="bold" lengthAdjust="spacing" textLength="7" x="99" y="268.8623">6</text><text fill="#000000" font-family="sans-serif" font-size="13" lengthAdjust="spacing" textLength="428" x="110" y="268.8623">regista dados do novo utilizador e informa acerca do sucesso da operacao</text><!--MD5=[5cf9ff8a2bd8d121144f4de1b78e6f4e]
@startuml
autonumber
actor "Utilizador nao registado" as UNR

activate UNR
UNR -> ":Sistema" : Registar novo Utilizador como Cliente

activate ":Sistema"
":Sistema" - -> UNR : Solicita dados do utilizador (nome, NIF, telefone, morada, coordenadas GPS, informacao cartao credito, email, password)
deactivate ":Sistema"
UNR -> ":Sistema" : introduz os dados solicitados

activate ":Sistema"
":Sistema" - -> UNR : valida e apresenta os dados, solicitando confirmacao
deactivate ":Sistema"
UNR -> ":Sistema" : confirma

activate ":Sistema"
":Sistema" - -> UNR: regista dados do novo utilizador e informa acerca do sucesso da operacao
deactivate ":Sistema"

deactivate UNR
@enduml

PlantUML version 1.2021.00(Sun Jan 10 10:25:05 GMT 2021)
(GPL source distribution)
Java Runtime: OpenJDK Runtime Environment
JVM: OpenJDK 64-Bit Server VM
Default Encoding: Cp1252
Language: pt
Country: PT
--></g></svg>