<?xml version="1.0" encoding="UTF-8" standalone="no"?><svg xmlns="http://www.w3.org/2000/svg" xmlns:xlink="http://www.w3.org/1999/xlink" contentScriptType="application/ecmascript" contentStyleType="text/css" height="634px" preserveAspectRatio="none" style="width:1079px;height:634px;" version="1.1" viewBox="0 0 1079 634" width="1079px" zoomAndPan="magnify"><defs><filter height="300%" id="f1286l3tobppjk" width="300%" x="-1" y="-1"><feGaussianBlur result="blurOut" stdDeviation="2.0"/><feColorMatrix in="blurOut" result="blurOut2" type="matrix" values="0 0 0 0 0 0 0 0 0 0 0 0 0 0 0 0 0 0 .4 0"/><feOffset dx="4.0" dy="4.0" in="blurOut2" result="blurOut3"/><feBlend in="SourceGraphic" in2="blurOut3" mode="normal"/></filter></defs><g><!--MD5=[bdef1903c1833ac8b6d9387ca8ca1ca6]
class RegistoClienteUI--><rect codeLine="4" fill="#FEFECE" filter="url(#f1286l3tobppjk)" height="48" id="RegistoClienteUI" style="stroke:#A80036;stroke-width:1.5;" width="126" x="435" y="7"/><ellipse cx="450" cy="23" fill="#ADD1B2" rx="11" ry="11" style="stroke:#A80036;stroke-width:1.0;"/><path d="M452,19.5 Q452.2031,19 452.4375,18.75 Q452.6719,18.5 452.9375,18.5 Q453.4063,18.5 453.7031,18.7813 Q454,19.0625 454,19.7188 L454,21.2813 Q454,21.9375 453.7188,22.2188 Q453.4375,22.5 453,22.5 Q452.6094,22.5 452.3594,22.3281 Q452.1094,22.1563 452,21.7031 Q451.9531,21.3906 451.7813,21.2188 Q451.4688,20.8906 450.9063,20.7031 Q450.3438,20.5 449.7813,20.5 Q449.0781,20.5 448.4844,20.7813 Q447.9063,21.0625 447.4531,21.6875 Q447,22.3125 447,23.1719 L447,24.0938 Q447,25.125 447.8438,25.8125 Q448.6875,26.5 450.1875,26.5 Q451.0781,26.5 451.7031,26.2969 Q452.0625,26.1875 452.4688,25.8281 Q452.7344,25.625 452.875,25.5625 Q453.0156,25.5 453.1875,25.5 Q453.5156,25.5 453.75,25.7656 Q454,26.0156 454,26.375 Q454,26.7188 453.6563,27.125 Q453.1563,27.7188 452.3594,28.0469 Q451.3125,28.5 450.0313,28.5 Q448.5313,28.5 447.3281,27.9063 Q446.3594,27.4375 445.6719,26.4219 Q445,25.4063 445,24.2031 L445,23.1094 Q445,21.8594 445.5938,20.7656 Q446.2031,19.6719 447.25,19.0938 Q448.3125,18.5 449.5,18.5 Q450.2188,18.5 450.8438,18.75 Q451.4688,19 452,19.5 Z " fill="#000000"/><text fill="#000000" font-family="sans-serif" font-size="12" lengthAdjust="spacing" textLength="94" x="464" y="27.9102">RegistoClienteUI</text><line style="stroke:#A80036;stroke-width:1.5;" x1="436" x2="560" y1="39" y2="39"/><line style="stroke:#A80036;stroke-width:1.5;" x1="436" x2="560" y1="47" y2="47"/><!--MD5=[d66fe193607d4f9b4c870915e33d307c]
class RegistoClienteController--><rect codeLine="8" fill="#FEFECE" filter="url(#f1286l3tobppjk)" height="75.6719" id="RegistoClienteController" style="stroke:#A80036;stroke-width:1.5;" width="543" x="226.5" y="116"/><ellipse cx="425.75" cy="132" fill="#ADD1B2" rx="11" ry="11" style="stroke:#A80036;stroke-width:1.0;"/><path d="M427.75,128.5 Q427.9531,128 428.1875,127.75 Q428.4219,127.5 428.6875,127.5 Q429.1563,127.5 429.4531,127.7813 Q429.75,128.0625 429.75,128.7188 L429.75,130.2813 Q429.75,130.9375 429.4688,131.2188 Q429.1875,131.5 428.75,131.5 Q428.3594,131.5 428.1094,131.3281 Q427.8594,131.1563 427.75,130.7031 Q427.7031,130.3906 427.5313,130.2188 Q427.2188,129.8906 426.6563,129.7031 Q426.0938,129.5 425.5313,129.5 Q424.8281,129.5 424.2344,129.7813 Q423.6563,130.0625 423.2031,130.6875 Q422.75,131.3125 422.75,132.1719 L422.75,133.0938 Q422.75,134.125 423.5938,134.8125 Q424.4375,135.5 425.9375,135.5 Q426.8281,135.5 427.4531,135.2969 Q427.8125,135.1875 428.2188,134.8281 Q428.4844,134.625 428.625,134.5625 Q428.7656,134.5 428.9375,134.5 Q429.2656,134.5 429.5,134.7656 Q429.75,135.0156 429.75,135.375 Q429.75,135.7188 429.4063,136.125 Q428.9063,136.7188 428.1094,137.0469 Q427.0625,137.5 425.7813,137.5 Q424.2813,137.5 423.0781,136.9063 Q422.1094,136.4375 421.4219,135.4219 Q420.75,134.4063 420.75,133.2031 L420.75,132.1094 Q420.75,130.8594 421.3438,129.7656 Q421.9531,128.6719 423,128.0938 Q424.0625,127.5 425.25,127.5 Q425.9688,127.5 426.5938,127.75 Q427.2188,128 427.75,128.5 Z " fill="#000000"/><text fill="#000000" font-family="sans-serif" font-size="12" lengthAdjust="spacing" textLength="136" x="446.25" y="136.9102">RegistoClienteController</text><line style="stroke:#A80036;stroke-width:1.5;" x1="227.5" x2="768.5" y1="148" y2="148"/><line style="stroke:#A80036;stroke-width:1.5;" x1="227.5" x2="768.5" y1="156" y2="156"/><text fill="#000000" font-family="sans-serif" font-size="11" lengthAdjust="spacing" textLength="518" x="232.5" y="171.4189">+novoCliente(nome, nif, telefone, morada, latitude, longitude, nCartCred, valCartCred, cvv, email, password)</text><text fill="#000000" font-family="sans-serif" font-size="11" lengthAdjust="spacing" textLength="531" x="232.5" y="185.2549">+registarCliente(nome, nif, telefone, morada, latitude, longitude, nCartCred, valCartCred, cvv, email, password)</text><!--MD5=[e162095117491b3de9c15e382440df89]
class ValidarParametros--><rect codeLine="13" fill="#FEFECE" filter="url(#f1286l3tobppjk)" height="89.5078" id="ValidarParametros" style="stroke:#A80036;stroke-width:1.5;" width="332" x="7" y="253"/><ellipse cx="117.25" cy="269" fill="#ADD1B2" rx="11" ry="11" style="stroke:#A80036;stroke-width:1.0;"/><path d="M119.25,265.5 Q119.4531,265 119.6875,264.75 Q119.9219,264.5 120.1875,264.5 Q120.6563,264.5 120.9531,264.7813 Q121.25,265.0625 121.25,265.7188 L121.25,267.2813 Q121.25,267.9375 120.9688,268.2188 Q120.6875,268.5 120.25,268.5 Q119.8594,268.5 119.6094,268.3281 Q119.3594,268.1563 119.25,267.7031 Q119.2031,267.3906 119.0313,267.2188 Q118.7188,266.8906 118.1563,266.7031 Q117.5938,266.5 117.0313,266.5 Q116.3281,266.5 115.7344,266.7813 Q115.1563,267.0625 114.7031,267.6875 Q114.25,268.3125 114.25,269.1719 L114.25,270.0938 Q114.25,271.125 115.0938,271.8125 Q115.9375,272.5 117.4375,272.5 Q118.3281,272.5 118.9531,272.2969 Q119.3125,272.1875 119.7188,271.8281 Q119.9844,271.625 120.125,271.5625 Q120.2656,271.5 120.4375,271.5 Q120.7656,271.5 121,271.7656 Q121.25,272.0156 121.25,272.375 Q121.25,272.7188 120.9063,273.125 Q120.4063,273.7188 119.6094,274.0469 Q118.5625,274.5 117.2813,274.5 Q115.7813,274.5 114.5781,273.9063 Q113.6094,273.4375 112.9219,272.4219 Q112.25,271.4063 112.25,270.2031 L112.25,269.1094 Q112.25,267.8594 112.8438,266.7656 Q113.4531,265.6719 114.5,265.0938 Q115.5625,264.5 116.75,264.5 Q117.4688,264.5 118.0938,264.75 Q118.7188,265 119.25,265.5 Z " fill="#000000"/><text fill="#000000" font-family="sans-serif" font-size="12" lengthAdjust="spacing" textLength="103" x="137.75" y="273.9102">ValidarParametros</text><line style="stroke:#A80036;stroke-width:1.5;" x1="8" x2="338" y1="285" y2="285"/><line style="stroke:#A80036;stroke-width:1.5;" x1="8" x2="338" y1="293" y2="293"/><text fill="#000000" font-family="sans-serif" font-size="11" lengthAdjust="spacing" textLength="320" x="13" y="308.4189">+validarParametrosUtilizador(email, password, nome, nif, telefone)</text><text fill="#000000" font-family="sans-serif" font-size="11" lengthAdjust="spacing" textLength="262" x="13" y="322.2549">+validarParametrosMorada(morada, latitude, longitude)</text><text fill="#000000" font-family="sans-serif" font-size="11" lengthAdjust="spacing" textLength="269" x="13" y="336.0908">+validarParametrosCliente(nCartCred, valCartCred, cvv)</text><!--MD5=[b57b1df3d36be81c0450474fd0334ff7]
class ClienteBD--><rect codeLine="19" fill="#FEFECE" filter="url(#f1286l3tobppjk)" height="75.6719" id="ClienteBD" style="stroke:#A80036;stroke-width:1.5;" width="248" x="374" y="260"/><ellipse cx="465.75" cy="276" fill="#ADD1B2" rx="11" ry="11" style="stroke:#A80036;stroke-width:1.0;"/><path d="M467.75,272.5 Q467.9531,272 468.1875,271.75 Q468.4219,271.5 468.6875,271.5 Q469.1563,271.5 469.4531,271.7813 Q469.75,272.0625 469.75,272.7188 L469.75,274.2813 Q469.75,274.9375 469.4688,275.2188 Q469.1875,275.5 468.75,275.5 Q468.3594,275.5 468.1094,275.3281 Q467.8594,275.1563 467.75,274.7031 Q467.7031,274.3906 467.5313,274.2188 Q467.2188,273.8906 466.6563,273.7031 Q466.0938,273.5 465.5313,273.5 Q464.8281,273.5 464.2344,273.7813 Q463.6563,274.0625 463.2031,274.6875 Q462.75,275.3125 462.75,276.1719 L462.75,277.0938 Q462.75,278.125 463.5938,278.8125 Q464.4375,279.5 465.9375,279.5 Q466.8281,279.5 467.4531,279.2969 Q467.8125,279.1875 468.2188,278.8281 Q468.4844,278.625 468.625,278.5625 Q468.7656,278.5 468.9375,278.5 Q469.2656,278.5 469.5,278.7656 Q469.75,279.0156 469.75,279.375 Q469.75,279.7188 469.4063,280.125 Q468.9063,280.7188 468.1094,281.0469 Q467.0625,281.5 465.7813,281.5 Q464.2813,281.5 463.0781,280.9063 Q462.1094,280.4375 461.4219,279.4219 Q460.75,278.4063 460.75,277.2031 L460.75,276.1094 Q460.75,274.8594 461.3438,273.7656 Q461.9531,272.6719 463,272.0938 Q464.0625,271.5 465.25,271.5 Q465.9688,271.5 466.5938,271.75 Q467.2188,272 467.75,272.5 Z " fill="#000000"/><text fill="#000000" font-family="sans-serif" font-size="12" lengthAdjust="spacing" textLength="56" x="486.25" y="280.9102">ClienteBD</text><line style="stroke:#A80036;stroke-width:1.5;" x1="375" x2="621" y1="292" y2="292"/><line style="stroke:#A80036;stroke-width:1.5;" x1="375" x2="621" y1="300" y2="300"/><text fill="#000000" font-family="sans-serif" font-size="11" lengthAdjust="spacing" textLength="98" x="380" y="315.4189">+validaCliente(email)</text><text fill="#000000" font-family="sans-serif" font-size="11" lengthAdjust="spacing" textLength="236" x="380" y="329.2549">+registaCliente(email,nCartCred,valCartCred,cvv)</text><!--MD5=[9c5439856a1aad23e042de9a355b14cb]
class BaseDados--><rect codeLine="25" fill="#FEFECE" filter="url(#f1286l3tobppjk)" height="89.5078" id="BaseDados" style="stroke:#A80036;stroke-width:1.5;" width="126" x="357" y="404"/><ellipse cx="384.6" cy="420" fill="#ADD1B2" rx="11" ry="11" style="stroke:#A80036;stroke-width:1.0;"/><path d="M386.6,416.5 Q386.8031,416 387.0375,415.75 Q387.2719,415.5 387.5375,415.5 Q388.0063,415.5 388.3031,415.7813 Q388.6,416.0625 388.6,416.7188 L388.6,418.2813 Q388.6,418.9375 388.3188,419.2188 Q388.0375,419.5 387.6,419.5 Q387.2094,419.5 386.9594,419.3281 Q386.7094,419.1563 386.6,418.7031 Q386.5531,418.3906 386.3813,418.2188 Q386.0688,417.8906 385.5063,417.7031 Q384.9438,417.5 384.3813,417.5 Q383.6781,417.5 383.0844,417.7813 Q382.5063,418.0625 382.0531,418.6875 Q381.6,419.3125 381.6,420.1719 L381.6,421.0938 Q381.6,422.125 382.4438,422.8125 Q383.2875,423.5 384.7875,423.5 Q385.6781,423.5 386.3031,423.2969 Q386.6625,423.1875 387.0688,422.8281 Q387.3344,422.625 387.475,422.5625 Q387.6156,422.5 387.7875,422.5 Q388.1156,422.5 388.35,422.7656 Q388.6,423.0156 388.6,423.375 Q388.6,423.7188 388.2563,424.125 Q387.7563,424.7188 386.9594,425.0469 Q385.9125,425.5 384.6313,425.5 Q383.1313,425.5 381.9281,424.9063 Q380.9594,424.4375 380.2719,423.4219 Q379.6,422.4063 379.6,421.2031 L379.6,420.1094 Q379.6,418.8594 380.1938,417.7656 Q380.8031,416.6719 381.85,416.0938 Q382.9125,415.5 384.1,415.5 Q384.8188,415.5 385.4438,415.75 Q386.0688,416 386.6,416.5 Z " fill="#000000"/><text fill="#000000" font-family="sans-serif" font-size="12" lengthAdjust="spacing" textLength="66" x="401.4" y="424.9102">BaseDados</text><line style="stroke:#A80036;stroke-width:1.5;" x1="358" x2="482" y1="436" y2="436"/><text fill="#000000" font-family="sans-serif" font-size="11" lengthAdjust="spacing" textLength="114" x="363" y="451.4189">-Connection connection</text><line style="stroke:#A80036;stroke-width:1.5;" x1="358" x2="482" y1="457.8359" y2="457.8359"/><text fill="#000000" font-family="sans-serif" font-size="11" lengthAdjust="spacing" textLength="83" x="363" y="473.2549">+getConnection()</text><text fill="#000000" font-family="sans-serif" font-size="11" lengthAdjust="spacing" textLength="94" x="363" y="487.0908">+closeConnection()</text><!--MD5=[83659c1d971c44d5fdc9a8baa7126871]
class UtilizadorBD--><rect codeLine="31" fill="#FEFECE" filter="url(#f1286l3tobppjk)" height="61.8359" id="UtilizadorBD" style="stroke:#A80036;stroke-width:1.5;" width="408" x="657" y="267"/><ellipse cx="822.75" cy="283" fill="#ADD1B2" rx="11" ry="11" style="stroke:#A80036;stroke-width:1.0;"/><path d="M824.75,279.5 Q824.9531,279 825.1875,278.75 Q825.4219,278.5 825.6875,278.5 Q826.1563,278.5 826.4531,278.7813 Q826.75,279.0625 826.75,279.7188 L826.75,281.2813 Q826.75,281.9375 826.4688,282.2188 Q826.1875,282.5 825.75,282.5 Q825.3594,282.5 825.1094,282.3281 Q824.8594,282.1563 824.75,281.7031 Q824.7031,281.3906 824.5313,281.2188 Q824.2188,280.8906 823.6563,280.7031 Q823.0938,280.5 822.5313,280.5 Q821.8281,280.5 821.2344,280.7813 Q820.6563,281.0625 820.2031,281.6875 Q819.75,282.3125 819.75,283.1719 L819.75,284.0938 Q819.75,285.125 820.5938,285.8125 Q821.4375,286.5 822.9375,286.5 Q823.8281,286.5 824.4531,286.2969 Q824.8125,286.1875 825.2188,285.8281 Q825.4844,285.625 825.625,285.5625 Q825.7656,285.5 825.9375,285.5 Q826.2656,285.5 826.5,285.7656 Q826.75,286.0156 826.75,286.375 Q826.75,286.7188 826.4063,287.125 Q825.9063,287.7188 825.1094,288.0469 Q824.0625,288.5 822.7813,288.5 Q821.2813,288.5 820.0781,287.9063 Q819.1094,287.4375 818.4219,286.4219 Q817.75,285.4063 817.75,284.2031 L817.75,283.1094 Q817.75,281.8594 818.3438,280.7656 Q818.9531,279.6719 820,279.0938 Q821.0625,278.5 822.25,278.5 Q822.9688,278.5 823.5938,278.75 Q824.2188,279 824.75,279.5 Z " fill="#000000"/><text fill="#000000" font-family="sans-serif" font-size="12" lengthAdjust="spacing" textLength="68" x="843.25" y="287.9102">UtilizadorBD</text><line style="stroke:#A80036;stroke-width:1.5;" x1="658" x2="1064" y1="299" y2="299"/><line style="stroke:#A80036;stroke-width:1.5;" x1="658" x2="1064" y1="307" y2="307"/><text fill="#000000" font-family="sans-serif" font-size="11" lengthAdjust="spacing" textLength="396" x="663" y="322.4189">+novoUtilizador(email,password,nome,nif,telefone,papel,morada,latitude,longitude)</text><!--MD5=[ad510ca42d1a057b37ac2813b8ee5b40]
class Connection--><rect codeLine="35" fill="#FEFECE" filter="url(#f1286l3tobppjk)" height="48" id="Connection" style="stroke:#A80036;stroke-width:1.5;" width="95" x="372.5" y="572"/><ellipse cx="387.5" cy="588" fill="#ADD1B2" rx="11" ry="11" style="stroke:#A80036;stroke-width:1.0;"/><path d="M389.5,584.5 Q389.7031,584 389.9375,583.75 Q390.1719,583.5 390.4375,583.5 Q390.9063,583.5 391.2031,583.7813 Q391.5,584.0625 391.5,584.7188 L391.5,586.2813 Q391.5,586.9375 391.2188,587.2188 Q390.9375,587.5 390.5,587.5 Q390.1094,587.5 389.8594,587.3281 Q389.6094,587.1563 389.5,586.7031 Q389.4531,586.3906 389.2813,586.2188 Q388.9688,585.8906 388.4063,585.7031 Q387.8438,585.5 387.2813,585.5 Q386.5781,585.5 385.9844,585.7813 Q385.4063,586.0625 384.9531,586.6875 Q384.5,587.3125 384.5,588.1719 L384.5,589.0938 Q384.5,590.125 385.3438,590.8125 Q386.1875,591.5 387.6875,591.5 Q388.5781,591.5 389.2031,591.2969 Q389.5625,591.1875 389.9688,590.8281 Q390.2344,590.625 390.375,590.5625 Q390.5156,590.5 390.6875,590.5 Q391.0156,590.5 391.25,590.7656 Q391.5,591.0156 391.5,591.375 Q391.5,591.7188 391.1563,592.125 Q390.6563,592.7188 389.8594,593.0469 Q388.8125,593.5 387.5313,593.5 Q386.0313,593.5 384.8281,592.9063 Q383.8594,592.4375 383.1719,591.4219 Q382.5,590.4063 382.5,589.2031 L382.5,588.1094 Q382.5,586.8594 383.0938,585.7656 Q383.7031,584.6719 384.75,584.0938 Q385.8125,583.5 387,583.5 Q387.7188,583.5 388.3438,583.75 Q388.9688,584 389.5,584.5 Z " fill="#000000"/><text fill="#000000" font-family="sans-serif" font-size="12" lengthAdjust="spacing" textLength="63" x="401.5" y="592.9102">Connection</text><line style="stroke:#A80036;stroke-width:1.5;" x1="373.5" x2="466.5" y1="604" y2="604"/><line style="stroke:#A80036;stroke-width:1.5;" x1="373.5" x2="466.5" y1="612" y2="612"/><!--MD5=[20a748d5ee336a9a91751b0a3d4f0beb]
class Cliente--><rect fill="#FEFECE" filter="url(#f1286l3tobppjk)" height="48" id="Cliente" style="stroke:#A80036;stroke-width:1.5;" width="71" x="518.5" y="425"/><ellipse cx="533.5" cy="441" fill="#ADD1B2" rx="11" ry="11" style="stroke:#A80036;stroke-width:1.0;"/><path d="M535.5,437.5 Q535.7031,437 535.9375,436.75 Q536.1719,436.5 536.4375,436.5 Q536.9063,436.5 537.2031,436.7813 Q537.5,437.0625 537.5,437.7188 L537.5,439.2813 Q537.5,439.9375 537.2188,440.2188 Q536.9375,440.5 536.5,440.5 Q536.1094,440.5 535.8594,440.3281 Q535.6094,440.1563 535.5,439.7031 Q535.4531,439.3906 535.2813,439.2188 Q534.9688,438.8906 534.4063,438.7031 Q533.8438,438.5 533.2813,438.5 Q532.5781,438.5 531.9844,438.7813 Q531.4063,439.0625 530.9531,439.6875 Q530.5,440.3125 530.5,441.1719 L530.5,442.0938 Q530.5,443.125 531.3438,443.8125 Q532.1875,444.5 533.6875,444.5 Q534.5781,444.5 535.2031,444.2969 Q535.5625,444.1875 535.9688,443.8281 Q536.2344,443.625 536.375,443.5625 Q536.5156,443.5 536.6875,443.5 Q537.0156,443.5 537.25,443.7656 Q537.5,444.0156 537.5,444.375 Q537.5,444.7188 537.1563,445.125 Q536.6563,445.7188 535.8594,446.0469 Q534.8125,446.5 533.5313,446.5 Q532.0313,446.5 530.8281,445.9063 Q529.8594,445.4375 529.1719,444.4219 Q528.5,443.4063 528.5,442.2031 L528.5,441.1094 Q528.5,439.8594 529.0938,438.7656 Q529.7031,437.6719 530.75,437.0938 Q531.8125,436.5 533,436.5 Q533.7188,436.5 534.3438,436.75 Q534.9688,437 535.5,437.5 Z " fill="#000000"/><text fill="#000000" font-family="sans-serif" font-size="12" lengthAdjust="spacing" textLength="39" x="547.5" y="445.9102">Cliente</text><line style="stroke:#A80036;stroke-width:1.5;" x1="519.5" x2="588.5" y1="457" y2="457"/><line style="stroke:#A80036;stroke-width:1.5;" x1="519.5" x2="588.5" y1="465" y2="465"/><!--MD5=[77c6229b59f71ada4b7bed0495e5baba]
class Morada--><rect fill="#FEFECE" filter="url(#f1286l3tobppjk)" height="48" id="Morada" style="stroke:#A80036;stroke-width:1.5;" width="73" x="509.5" y="572"/><ellipse cx="524.5" cy="588" fill="#ADD1B2" rx="11" ry="11" style="stroke:#A80036;stroke-width:1.0;"/><path d="M526.5,584.5 Q526.7031,584 526.9375,583.75 Q527.1719,583.5 527.4375,583.5 Q527.9063,583.5 528.2031,583.7813 Q528.5,584.0625 528.5,584.7188 L528.5,586.2813 Q528.5,586.9375 528.2188,587.2188 Q527.9375,587.5 527.5,587.5 Q527.1094,587.5 526.8594,587.3281 Q526.6094,587.1563 526.5,586.7031 Q526.4531,586.3906 526.2813,586.2188 Q525.9688,585.8906 525.4063,585.7031 Q524.8438,585.5 524.2813,585.5 Q523.5781,585.5 522.9844,585.7813 Q522.4063,586.0625 521.9531,586.6875 Q521.5,587.3125 521.5,588.1719 L521.5,589.0938 Q521.5,590.125 522.3438,590.8125 Q523.1875,591.5 524.6875,591.5 Q525.5781,591.5 526.2031,591.2969 Q526.5625,591.1875 526.9688,590.8281 Q527.2344,590.625 527.375,590.5625 Q527.5156,590.5 527.6875,590.5 Q528.0156,590.5 528.25,590.7656 Q528.5,591.0156 528.5,591.375 Q528.5,591.7188 528.1563,592.125 Q527.6563,592.7188 526.8594,593.0469 Q525.8125,593.5 524.5313,593.5 Q523.0313,593.5 521.8281,592.9063 Q520.8594,592.4375 520.1719,591.4219 Q519.5,590.4063 519.5,589.2031 L519.5,588.1094 Q519.5,586.8594 520.0938,585.7656 Q520.7031,584.6719 521.75,584.0938 Q522.8125,583.5 524,583.5 Q524.7188,583.5 525.3438,583.75 Q525.9688,584 526.5,584.5 Z " fill="#000000"/><text fill="#000000" font-family="sans-serif" font-size="12" lengthAdjust="spacing" textLength="41" x="538.5" y="592.9102">Morada</text><line style="stroke:#A80036;stroke-width:1.5;" x1="510.5" x2="581.5" y1="604" y2="604"/><line style="stroke:#A80036;stroke-width:1.5;" x1="510.5" x2="581.5" y1="612" y2="612"/><!--MD5=[5dd1d6732c071e710b9290b531f2fa3b]
class Utilizador--><rect fill="#FEFECE" filter="url(#f1286l3tobppjk)" height="48" id="Utilizador" style="stroke:#A80036;stroke-width:1.5;" width="83" x="617.5" y="572"/><ellipse cx="632.5" cy="588" fill="#ADD1B2" rx="11" ry="11" style="stroke:#A80036;stroke-width:1.0;"/><path d="M634.5,584.5 Q634.7031,584 634.9375,583.75 Q635.1719,583.5 635.4375,583.5 Q635.9063,583.5 636.2031,583.7813 Q636.5,584.0625 636.5,584.7188 L636.5,586.2813 Q636.5,586.9375 636.2188,587.2188 Q635.9375,587.5 635.5,587.5 Q635.1094,587.5 634.8594,587.3281 Q634.6094,587.1563 634.5,586.7031 Q634.4531,586.3906 634.2813,586.2188 Q633.9688,585.8906 633.4063,585.7031 Q632.8438,585.5 632.2813,585.5 Q631.5781,585.5 630.9844,585.7813 Q630.4063,586.0625 629.9531,586.6875 Q629.5,587.3125 629.5,588.1719 L629.5,589.0938 Q629.5,590.125 630.3438,590.8125 Q631.1875,591.5 632.6875,591.5 Q633.5781,591.5 634.2031,591.2969 Q634.5625,591.1875 634.9688,590.8281 Q635.2344,590.625 635.375,590.5625 Q635.5156,590.5 635.6875,590.5 Q636.0156,590.5 636.25,590.7656 Q636.5,591.0156 636.5,591.375 Q636.5,591.7188 636.1563,592.125 Q635.6563,592.7188 634.8594,593.0469 Q633.8125,593.5 632.5313,593.5 Q631.0313,593.5 629.8281,592.9063 Q628.8594,592.4375 628.1719,591.4219 Q627.5,590.4063 627.5,589.2031 L627.5,588.1094 Q627.5,586.8594 628.0938,585.7656 Q628.7031,584.6719 629.75,584.0938 Q630.8125,583.5 632,583.5 Q632.7188,583.5 633.3438,583.75 Q633.9688,584 634.5,584.5 Z " fill="#000000"/><text fill="#000000" font-family="sans-serif" font-size="12" lengthAdjust="spacing" textLength="51" x="646.5" y="592.9102">Utilizador</text><line style="stroke:#A80036;stroke-width:1.5;" x1="618.5" x2="699.5" y1="604" y2="604"/><line style="stroke:#A80036;stroke-width:1.5;" x1="618.5" x2="699.5" y1="612" y2="612"/><!--MD5=[6433dd8b1bc262d73996800fa68f022b]
link RegistoClienteUI to RegistoClienteController--><path codeLine="39" d="M498,55.04 C498,70.71 498,91.91 498,110.58 " fill="none" id="RegistoClienteUI-to-RegistoClienteController" style="stroke:#A80036;stroke-width:1.0;stroke-dasharray:7.0,7.0;"/><polygon fill="#A80036" points="498,115.77,502,106.77,498,110.77,494,106.77,498,115.77" style="stroke:#A80036;stroke-width:1.0;"/><!--MD5=[137292417ad38366e3dc7744af1d1bc2]
link RegistoClienteController to ClienteBD--><path codeLine="40" d="M498,192.31 C498,211.47 498,234.89 498,254.72 " fill="none" id="RegistoClienteController-to-ClienteBD" style="stroke:#A80036;stroke-width:1.0;stroke-dasharray:7.0,7.0;"/><polygon fill="#A80036" points="498,259.94,502,250.94,498,254.94,494,250.94,498,259.94" style="stroke:#A80036;stroke-width:1.0;"/><!--MD5=[d57df8d811602a12ee2c227e169831b4]
link RegistoClienteController to UtilizadorBD--><path codeLine="41" d="M592.9,192.12 C650.71,214.74 723.83,243.34 779.1,264.96 " fill="none" id="RegistoClienteController-to-UtilizadorBD" style="stroke:#A80036;stroke-width:1.0;stroke-dasharray:7.0,7.0;"/><polygon fill="#A80036" points="784.05,266.9,777.1159,259.9059,779.3911,265.085,774.2119,267.3602,784.05,266.9" style="stroke:#A80036;stroke-width:1.0;"/><!--MD5=[385d372ab0eff2322f4623e3841b350d]
link RegistoClienteController to ValidarParametros--><path codeLine="42" d="M413.03,192.12 C371.93,210.08 322.19,231.82 278.67,250.83 " fill="none" id="RegistoClienteController-to-ValidarParametros" style="stroke:#A80036;stroke-width:1.0;stroke-dasharray:7.0,7.0;"/><polygon fill="#A80036" points="273.93,252.9,283.7788,252.9428,278.5078,250.8892,280.5614,245.6182,273.93,252.9" style="stroke:#A80036;stroke-width:1.0;"/><!--MD5=[165056ed9d494dd5a41b75e935860f41]
link ClienteBD to Cliente--><path codeLine="43" d="M511.99,336.21 C521.73,362.13 534.51,396.15 543.41,419.82 " fill="none" id="ClienteBD-to-Cliente" style="stroke:#A80036;stroke-width:1.0;stroke-dasharray:7.0,7.0;"/><polygon fill="#A80036" points="545.25,424.71,545.809,414.877,543.4819,420.0331,538.3258,417.706,545.25,424.71" style="stroke:#A80036;stroke-width:1.0;"/><!--MD5=[a602fb0a2a1e983f14b1435561d150f4]
link Cliente to Morada--><path codeLine="46" d="M552.71,473.3 C551.22,500.36 548.77,544.73 547.28,571.76 " fill="none" id="Cliente-Morada" style="stroke:#A80036;stroke-width:1.0;"/><polygon fill="#000000" points="554.7247,538.1682,558.1572,529.2987,552.2883,528.975,554.7247,538.1682" style="stroke:#000000;stroke-width:1.0;"/><text fill="#000000" font-family="sans-serif" font-size="13" lengthAdjust="spacing" textLength="22" x="564" y="538.4951">tem</text><text fill="#000000" font-family="sans-serif" font-size="13" lengthAdjust="spacing" textLength="7" x="544.6023" y="494.3051">1</text><text fill="#000000" font-family="sans-serif" font-size="13" lengthAdjust="spacing" textLength="7" x="539.7111" y="561.0387">1</text><!--MD5=[00a2b7b20e7d7828fa181bc7c0dc6998]
link Cliente to Utilizador--><path codeLine="47" d="M570.87,473.3 C590.46,500.36 622.6,544.73 642.17,571.76 " fill="none" id="Cliente-Utilizador" style="stroke:#A80036;stroke-width:1.0;"/><polygon fill="#000000" points="626.9326,537.2255,624.0078,528.1758,619.2471,531.6232,626.9326,537.2255" style="stroke:#000000;stroke-width:1.0;"/><text fill="#000000" font-family="sans-serif" font-size="13" lengthAdjust="spacing" textLength="61" x="633" y="538.4951">atua como</text><text fill="#000000" font-family="sans-serif" font-size="13" lengthAdjust="spacing" textLength="7" x="566.9618" y="494.3051">1</text><text fill="#000000" font-family="sans-serif" font-size="13" lengthAdjust="spacing" textLength="7" x="629.9604" y="561.0387">1</text><!--MD5=[dabe127c7377f15c86b459316af904de]
link ClienteBD to BaseDados--><path codeLine="48" d="M478.52,336.21 C468.53,355.29 456.25,378.75 445.52,399.25 " fill="none" id="ClienteBD-to-BaseDados" style="stroke:#A80036;stroke-width:1.0;stroke-dasharray:7.0,7.0;"/><polygon fill="#A80036" points="443.11,403.85,450.8235,397.7261,445.4258,399.4186,443.7333,394.0209,443.11,403.85" style="stroke:#A80036;stroke-width:1.0;"/><!--MD5=[833997655fa73f2d0e64c27665136239]
link BaseDados to Connection--><path codeLine="49" d="M420,494.29 C420,517.94 420,546.33 420,566.93 " fill="none" id="BaseDados-to-Connection" style="stroke:#A80036;stroke-width:1.0;stroke-dasharray:7.0,7.0;"/><polygon fill="#A80036" points="420,571.99,424,562.99,420,566.99,416,562.99,420,571.99" style="stroke:#A80036;stroke-width:1.0;"/><!--MD5=[a30cac6031f0bae131fd193a23efa8e9]
@startuml

skinparam classAttributeIconSize 0

Class RegistoClienteUI{

}

Class RegistoClienteController{
    +novoCliente(nome, nif, telefone, morada, latitude, longitude, nCartCred, valCartCred, cvv, email, password)
    +registarCliente(nome, nif, telefone, morada, latitude, longitude, nCartCred, valCartCred, cvv, email, password)
}

Class ValidarParametros{
    +validarParametrosUtilizador(email, password, nome, nif, telefone)
    +validarParametrosMorada(morada, latitude, longitude)
    +validarParametrosCliente(nCartCred, valCartCred, cvv)
}

Class ClienteBD{
    +validaCliente(email)
    +registaCliente(email,nCartCred,valCartCred,cvv)

}

class BaseDados{
  -Connection connection
  +getConnection()
  +closeConnection()
}

class UtilizadorBD {
    +novoUtilizador(email,password,nome,nif,telefone,papel,morada,latitude,longitude)
}

class Connection {
}


RegistoClienteUI ..> RegistoClienteController
RegistoClienteController ..> ClienteBD
RegistoClienteController ..> UtilizadorBD
RegistoClienteController ..> ValidarParametros
ClienteBD ..> Cliente


Cliente "1" - - "1" Morada: tem >
Cliente "1" - - "1" Utilizador : atua como >
ClienteBD ..> BaseDados
BaseDados ..> Connection

@enduml

PlantUML version 1.2021.00(Sun Jan 10 10:25:05 GMT 2021)
(GPL source distribution)
Java Runtime: OpenJDK Runtime Environment
JVM: OpenJDK 64-Bit Server VM
Default Encoding: Cp1252
Language: pt
Country: PT
--></g></svg>