<?xml version="1.0" encoding="UTF-8" standalone="no"?><svg xmlns="http://www.w3.org/2000/svg" xmlns:xlink="http://www.w3.org/1999/xlink" contentScriptType="application/ecmascript" contentStyleType="text/css" height="110px" preserveAspectRatio="none" style="width:821px;height:110px;" version="1.1" viewBox="0 0 821 110" width="821px" zoomAndPan="magnify"><defs><filter height="300%" id="f1sa6q712k45ez" width="300%" x="-1" y="-1"><feGaussianBlur result="blurOut" stdDeviation="2.0"/><feColorMatrix in="blurOut" result="blurOut2" type="matrix" values="0 0 0 0 0 0 0 0 0 0 0 0 0 0 0 0 0 0 .4 0"/><feOffset dx="4.0" dy="4.0" in="blurOut2" result="blurOut3"/><feBlend in="SourceGraphic" in2="blurOut3" mode="normal"/></filter></defs><g><!--MD5=[df36b6731c4d13e7b09f80a7df8b8ecd]
class RemoverScooterUI--><rect codeLine="3" fill="#FEFECE" filter="url(#f1sa6q712k45ez)" height="48" id="RemoverScooterUI" style="stroke:#A80036;stroke-width:1.5;" width="136" x="7" y="28"/><ellipse cx="22" cy="44" fill="#ADD1B2" rx="11" ry="11" style="stroke:#A80036;stroke-width:1.0;"/><path d="M24,40.5 Q24.2031,40 24.4375,39.75 Q24.6719,39.5 24.9375,39.5 Q25.4063,39.5 25.7031,39.7813 Q26,40.0625 26,40.7188 L26,42.2813 Q26,42.9375 25.7188,43.2188 Q25.4375,43.5 25,43.5 Q24.6094,43.5 24.3594,43.3281 Q24.1094,43.1563 24,42.7031 Q23.9531,42.3906 23.7813,42.2188 Q23.4688,41.8906 22.9063,41.7031 Q22.3438,41.5 21.7813,41.5 Q21.0781,41.5 20.4844,41.7813 Q19.9063,42.0625 19.4531,42.6875 Q19,43.3125 19,44.1719 L19,45.0938 Q19,46.125 19.8438,46.8125 Q20.6875,47.5 22.1875,47.5 Q23.0781,47.5 23.7031,47.2969 Q24.0625,47.1875 24.4688,46.8281 Q24.7344,46.625 24.875,46.5625 Q25.0156,46.5 25.1875,46.5 Q25.5156,46.5 25.75,46.7656 Q26,47.0156 26,47.375 Q26,47.7188 25.6563,48.125 Q25.1563,48.7188 24.3594,49.0469 Q23.3125,49.5 22.0313,49.5 Q20.5313,49.5 19.3281,48.9063 Q18.3594,48.4375 17.6719,47.4219 Q17,46.4063 17,45.2031 L17,44.1094 Q17,42.8594 17.5938,41.7656 Q18.2031,40.6719 19.25,40.0938 Q20.3125,39.5 21.5,39.5 Q22.2188,39.5 22.8438,39.75 Q23.4688,40 24,40.5 Z " fill="#000000"/><text fill="#000000" font-family="sans-serif" font-size="12" lengthAdjust="spacingAndGlyphs" textLength="104" x="36" y="48.9102">RemoverScooterUI</text><line style="stroke:#A80036;stroke-width:1.5;" x1="8" x2="142" y1="60" y2="60"/><line style="stroke:#A80036;stroke-width:1.5;" x1="8" x2="142" y1="68" y2="68"/><!--MD5=[15139f89ca601023276bbca2c05df477]
class RemoverScooterController--><rect codeLine="6" fill="#FEFECE" filter="url(#f1sa6q712k45ez)" height="89.5078" id="RemoverScooterController" style="stroke:#A80036;stroke-width:1.5;" width="185" x="203" y="7"/><ellipse cx="221.15" cy="23" fill="#ADD1B2" rx="11" ry="11" style="stroke:#A80036;stroke-width:1.0;"/><path d="M223.15,19.5 Q223.3531,19 223.5875,18.75 Q223.8219,18.5 224.0875,18.5 Q224.5563,18.5 224.8531,18.7813 Q225.15,19.0625 225.15,19.7188 L225.15,21.2813 Q225.15,21.9375 224.8688,22.2188 Q224.5875,22.5 224.15,22.5 Q223.7594,22.5 223.5094,22.3281 Q223.2594,22.1563 223.15,21.7031 Q223.1031,21.3906 222.9313,21.2188 Q222.6188,20.8906 222.0563,20.7031 Q221.4938,20.5 220.9313,20.5 Q220.2281,20.5 219.6344,20.7813 Q219.0563,21.0625 218.6031,21.6875 Q218.15,22.3125 218.15,23.1719 L218.15,24.0938 Q218.15,25.125 218.9938,25.8125 Q219.8375,26.5 221.3375,26.5 Q222.2281,26.5 222.8531,26.2969 Q223.2125,26.1875 223.6188,25.8281 Q223.8844,25.625 224.025,25.5625 Q224.1656,25.5 224.3375,25.5 Q224.6656,25.5 224.9,25.7656 Q225.15,26.0156 225.15,26.375 Q225.15,26.7188 224.8063,27.125 Q224.3063,27.7188 223.5094,28.0469 Q222.4625,28.5 221.1813,28.5 Q219.6813,28.5 218.4781,27.9063 Q217.5094,27.4375 216.8219,26.4219 Q216.15,25.4063 216.15,24.2031 L216.15,23.1094 Q216.15,21.8594 216.7438,20.7656 Q217.3531,19.6719 218.4,19.0938 Q219.4625,18.5 220.65,18.5 Q221.3688,18.5 221.9938,18.75 Q222.6188,19 223.15,19.5 Z " fill="#000000"/><text fill="#000000" font-family="sans-serif" font-size="12" lengthAdjust="spacingAndGlyphs" textLength="146" x="235.85" y="27.9102">RemoverScooterController</text><line style="stroke:#A80036;stroke-width:1.5;" x1="204" x2="387" y1="39" y2="39"/><line style="stroke:#A80036;stroke-width:1.5;" x1="204" x2="387" y1="47" y2="47"/><ellipse cx="214" cy="58" fill="#84BE84" rx="3" ry="3" style="stroke:#038048;stroke-width:1.0;"/><text fill="#000000" font-family="sans-serif" font-size="11" lengthAdjust="spacingAndGlyphs" textLength="144" x="223" y="62.4189">List&lt;String&gt; getListaScooter()</text><ellipse cx="214" cy="71.8359" fill="#84BE84" rx="3" ry="3" style="stroke:#038048;stroke-width:1.0;"/><text fill="#000000" font-family="sans-serif" font-size="11" lengthAdjust="spacingAndGlyphs" textLength="159" x="223" y="76.2549">String getScooterbyID(scooterID)</text><ellipse cx="214" cy="85.6719" fill="#84BE84" rx="3" ry="3" style="stroke:#038048;stroke-width:1.0;"/><text fill="#000000" font-family="sans-serif" font-size="11" lengthAdjust="spacingAndGlyphs" textLength="132" x="223" y="90.0908">removerScooter(scooterID)</text><!--MD5=[24f7645889abd6047ad6d0f9f8bd9509]
class ScooterBD--><rect codeLine="12" fill="#FEFECE" filter="url(#f1sa6q712k45ez)" height="89.5078" id="ScooterBD" style="stroke:#A80036;stroke-width:1.5;" width="185" x="448" y="7"/><ellipse cx="506.75" cy="23" fill="#ADD1B2" rx="11" ry="11" style="stroke:#A80036;stroke-width:1.0;"/><path d="M508.75,19.5 Q508.9531,19 509.1875,18.75 Q509.4219,18.5 509.6875,18.5 Q510.1563,18.5 510.4531,18.7813 Q510.75,19.0625 510.75,19.7188 L510.75,21.2813 Q510.75,21.9375 510.4688,22.2188 Q510.1875,22.5 509.75,22.5 Q509.3594,22.5 509.1094,22.3281 Q508.8594,22.1563 508.75,21.7031 Q508.7031,21.3906 508.5313,21.2188 Q508.2188,20.8906 507.6563,20.7031 Q507.0938,20.5 506.5313,20.5 Q505.8281,20.5 505.2344,20.7813 Q504.6563,21.0625 504.2031,21.6875 Q503.75,22.3125 503.75,23.1719 L503.75,24.0938 Q503.75,25.125 504.5938,25.8125 Q505.4375,26.5 506.9375,26.5 Q507.8281,26.5 508.4531,26.2969 Q508.8125,26.1875 509.2188,25.8281 Q509.4844,25.625 509.625,25.5625 Q509.7656,25.5 509.9375,25.5 Q510.2656,25.5 510.5,25.7656 Q510.75,26.0156 510.75,26.375 Q510.75,26.7188 510.4063,27.125 Q509.9063,27.7188 509.1094,28.0469 Q508.0625,28.5 506.7813,28.5 Q505.2813,28.5 504.0781,27.9063 Q503.1094,27.4375 502.4219,26.4219 Q501.75,25.4063 501.75,24.2031 L501.75,23.1094 Q501.75,21.8594 502.3438,20.7656 Q502.9531,19.6719 504,19.0938 Q505.0625,18.5 506.25,18.5 Q506.9688,18.5 507.5938,18.75 Q508.2188,19 508.75,19.5 Z " fill="#000000"/><text fill="#000000" font-family="sans-serif" font-size="12" lengthAdjust="spacingAndGlyphs" textLength="59" x="527.25" y="27.9102">ScooterBD</text><line style="stroke:#A80036;stroke-width:1.5;" x1="449" x2="632" y1="39" y2="39"/><line style="stroke:#A80036;stroke-width:1.5;" x1="449" x2="632" y1="47" y2="47"/><ellipse cx="459" cy="58" fill="#84BE84" rx="3" ry="3" style="stroke:#038048;stroke-width:1.0;"/><text fill="#000000" font-family="sans-serif" font-size="11" lengthAdjust="spacingAndGlyphs" textLength="144" x="468" y="62.4189">List&lt;String&gt; getListaScooter()</text><ellipse cx="459" cy="71.8359" fill="#84BE84" rx="3" ry="3" style="stroke:#038048;stroke-width:1.0;"/><text fill="#000000" font-family="sans-serif" font-size="11" lengthAdjust="spacingAndGlyphs" textLength="159" x="468" y="76.2549">String getScooterbyID(scooterID)</text><ellipse cx="459" cy="85.6719" fill="#84BE84" rx="3" ry="3" style="stroke:#038048;stroke-width:1.0;"/><text fill="#000000" font-family="sans-serif" font-size="11" lengthAdjust="spacingAndGlyphs" textLength="132" x="468" y="90.0908">removerScooter(scooterID)</text><!--MD5=[9c5439856a1aad23e042de9a355b14cb]
class BaseDados--><rect codeLine="18" fill="#FEFECE" filter="url(#f1sa6q712k45ez)" height="75.6719" id="BaseDados" style="stroke:#A80036;stroke-width:1.5;" width="114" x="693" y="14"/><ellipse cx="715.2" cy="30" fill="#ADD1B2" rx="11" ry="11" style="stroke:#A80036;stroke-width:1.0;"/><path d="M717.2,26.5 Q717.4031,26 717.6375,25.75 Q717.8719,25.5 718.1375,25.5 Q718.6063,25.5 718.9031,25.7813 Q719.2,26.0625 719.2,26.7188 L719.2,28.2813 Q719.2,28.9375 718.9188,29.2188 Q718.6375,29.5 718.2,29.5 Q717.8094,29.5 717.5594,29.3281 Q717.3094,29.1563 717.2,28.7031 Q717.1531,28.3906 716.9813,28.2188 Q716.6688,27.8906 716.1063,27.7031 Q715.5438,27.5 714.9813,27.5 Q714.2781,27.5 713.6844,27.7813 Q713.1063,28.0625 712.6531,28.6875 Q712.2,29.3125 712.2,30.1719 L712.2,31.0938 Q712.2,32.125 713.0438,32.8125 Q713.8875,33.5 715.3875,33.5 Q716.2781,33.5 716.9031,33.2969 Q717.2625,33.1875 717.6688,32.8281 Q717.9344,32.625 718.075,32.5625 Q718.2156,32.5 718.3875,32.5 Q718.7156,32.5 718.95,32.7656 Q719.2,33.0156 719.2,33.375 Q719.2,33.7188 718.8563,34.125 Q718.3563,34.7188 717.5594,35.0469 Q716.5125,35.5 715.2313,35.5 Q713.7313,35.5 712.5281,34.9063 Q711.5594,34.4375 710.8719,33.4219 Q710.2,32.4063 710.2,31.2031 L710.2,30.1094 Q710.2,28.8594 710.7938,27.7656 Q711.4031,26.6719 712.45,26.0938 Q713.5125,25.5 714.7,25.5 Q715.4188,25.5 716.0438,25.75 Q716.6688,26 717.2,26.5 Z " fill="#000000"/><text fill="#000000" font-family="sans-serif" font-size="12" lengthAdjust="spacingAndGlyphs" textLength="66" x="730.8" y="34.9102">BaseDados</text><line style="stroke:#A80036;stroke-width:1.5;" x1="694" x2="806" y1="46" y2="46"/><line style="stroke:#A80036;stroke-width:1.5;" x1="694" x2="806" y1="54" y2="54"/><ellipse cx="704" cy="65" fill="#84BE84" rx="3" ry="3" style="stroke:#038048;stroke-width:1.0;"/><text fill="#000000" font-family="sans-serif" font-size="11" lengthAdjust="spacingAndGlyphs" textLength="77" x="713" y="69.4189">getConnection()</text><ellipse cx="704" cy="78.8359" fill="#84BE84" rx="3" ry="3" style="stroke:#038048;stroke-width:1.0;"/><text fill="#000000" font-family="sans-serif" font-size="11" lengthAdjust="spacingAndGlyphs" textLength="88" x="713" y="83.2549">closeConnection()</text><!--MD5=[b783f3c5fe2cb45e83c9567847effd06]
link RemoverScooterUI to RemoverScooterController--><path codeLine="23" d="M143.04,52 C160.24,52 179.09,52 197.47,52 " fill="none" id="RemoverScooterUI-to-RemoverScooterController" style="stroke:#A80036;stroke-width:1.0;stroke-dasharray:7.0,7.0;"/><polygon fill="#A80036" points="202.64,52,193.64,48,197.64,52,193.64,56,202.64,52" style="stroke:#A80036;stroke-width:1.0;"/><!--MD5=[26d349a9d2f6395e0adc5383fbea2a05]
link RemoverScooterController to ScooterBD--><path codeLine="24" d="M388.02,52 C405.85,52 424.6,52 442.6,52 " fill="none" id="RemoverScooterController-to-ScooterBD" style="stroke:#A80036;stroke-width:1.0;stroke-dasharray:7.0,7.0;"/><polygon fill="#A80036" points="447.66,52,438.66,48,442.66,52,438.66,56,447.66,52" style="stroke:#A80036;stroke-width:1.0;"/><!--MD5=[ef60af5d8bc7d35de774819867592e8d]
link ScooterBD to BaseDados--><path codeLine="25" d="M633.12,52 C651.52,52 670.43,52 687.5,52 " fill="none" id="ScooterBD-to-BaseDados" style="stroke:#A80036;stroke-width:1.0;stroke-dasharray:7.0,7.0;"/><polygon fill="#A80036" points="692.74,52,683.74,48,687.74,52,683.74,56,692.74,52" style="stroke:#A80036;stroke-width:1.0;"/><!--MD5=[2bb559d79482bcea3f10d6bdad99aa89]
@startuml
left to right direction

class RemoverScooterUI{
}

class RemoverScooterController{
+List<String> getListaScooter()
+String getScooterbyID(scooterID)
+removerScooter(scooterID)
}

class ScooterBD{
+List<String> getListaScooter()
+String getScooterbyID(scooterID)
+removerScooter(scooterID)
}

class BaseDados{
+getConnection()
+closeConnection()
}

RemoverScooterUI ..> RemoverScooterController
RemoverScooterController ..> ScooterBD
ScooterBD ..> BaseDados

@enduml

PlantUML version 1.2020.23(Sun Dec 13 19:14:58 GMT 2020)
(GPL source distribution)
Java Runtime: OpenJDK Runtime Environment
JVM: OpenJDK 64-Bit Server VM
Default Encoding: Cp1252
Language: pt
Country: PT
--></g></svg>