<?xml version="1.0" encoding="UTF-8" standalone="no"?><svg xmlns="http://www.w3.org/2000/svg" xmlns:xlink="http://www.w3.org/1999/xlink" contentScriptType="application/ecmascript" contentStyleType="text/css" height="110px" preserveAspectRatio="none" style="width:817px;height:110px;" version="1.1" viewBox="0 0 817 110" width="817px" zoomAndPan="magnify"><defs><filter height="300%" id="f1ig8cyklv3sno" width="300%" x="-1" y="-1"><feGaussianBlur result="blurOut" stdDeviation="2.0"/><feColorMatrix in="blurOut" result="blurOut2" type="matrix" values="0 0 0 0 0 0 0 0 0 0 0 0 0 0 0 0 0 0 .4 0"/><feOffset dx="4.0" dy="4.0" in="blurOut2" result="blurOut3"/><feBlend in="SourceGraphic" in2="blurOut3" mode="normal"/></filter></defs><g><!--MD5=[fc9cda17d417dc189bb640c4dec5fec4]
class AtualizarScooterUI--><rect codeLine="3" fill="#FEFECE" filter="url(#f1ig8cyklv3sno)" height="48" id="AtualizarScooterUI" style="stroke:#A80036;stroke-width:1.5;" width="132" x="7" y="28"/><ellipse cx="22" cy="44" fill="#ADD1B2" rx="11" ry="11" style="stroke:#A80036;stroke-width:1.0;"/><path d="M24,40.5 Q24.2031,40 24.4375,39.75 Q24.6719,39.5 24.9375,39.5 Q25.4063,39.5 25.7031,39.7813 Q26,40.0625 26,40.7188 L26,42.2813 Q26,42.9375 25.7188,43.2188 Q25.4375,43.5 25,43.5 Q24.6094,43.5 24.3594,43.3281 Q24.1094,43.1563 24,42.7031 Q23.9531,42.3906 23.7813,42.2188 Q23.4688,41.8906 22.9063,41.7031 Q22.3438,41.5 21.7813,41.5 Q21.0781,41.5 20.4844,41.7813 Q19.9063,42.0625 19.4531,42.6875 Q19,43.3125 19,44.1719 L19,45.0938 Q19,46.125 19.8438,46.8125 Q20.6875,47.5 22.1875,47.5 Q23.0781,47.5 23.7031,47.2969 Q24.0625,47.1875 24.4688,46.8281 Q24.7344,46.625 24.875,46.5625 Q25.0156,46.5 25.1875,46.5 Q25.5156,46.5 25.75,46.7656 Q26,47.0156 26,47.375 Q26,47.7188 25.6563,48.125 Q25.1563,48.7188 24.3594,49.0469 Q23.3125,49.5 22.0313,49.5 Q20.5313,49.5 19.3281,48.9063 Q18.3594,48.4375 17.6719,47.4219 Q17,46.4063 17,45.2031 L17,44.1094 Q17,42.8594 17.5938,41.7656 Q18.2031,40.6719 19.25,40.0938 Q20.3125,39.5 21.5,39.5 Q22.2188,39.5 22.8438,39.75 Q23.4688,40 24,40.5 Z " fill="#000000"/><text fill="#000000" font-family="sans-serif" font-size="12" lengthAdjust="spacingAndGlyphs" textLength="100" x="36" y="48.9102">AtualizarScooterUI</text><line style="stroke:#A80036;stroke-width:1.5;" x1="8" x2="138" y1="60" y2="60"/><line style="stroke:#A80036;stroke-width:1.5;" x1="8" x2="138" y1="68" y2="68"/><!--MD5=[e2895cbd1258b98ff19dd2bd0f7df535]
class AtualizarScooterController--><rect codeLine="6" fill="#FEFECE" filter="url(#f1ig8cyklv3sno)" height="89.5078" id="AtualizarScooterController" style="stroke:#A80036;stroke-width:1.5;" width="185" x="199" y="7"/><ellipse cx="218.95" cy="23" fill="#ADD1B2" rx="11" ry="11" style="stroke:#A80036;stroke-width:1.0;"/><path d="M220.95,19.5 Q221.1531,19 221.3875,18.75 Q221.6219,18.5 221.8875,18.5 Q222.3563,18.5 222.6531,18.7813 Q222.95,19.0625 222.95,19.7188 L222.95,21.2813 Q222.95,21.9375 222.6688,22.2188 Q222.3875,22.5 221.95,22.5 Q221.5594,22.5 221.3094,22.3281 Q221.0594,22.1563 220.95,21.7031 Q220.9031,21.3906 220.7313,21.2188 Q220.4188,20.8906 219.8563,20.7031 Q219.2938,20.5 218.7313,20.5 Q218.0281,20.5 217.4344,20.7813 Q216.8563,21.0625 216.4031,21.6875 Q215.95,22.3125 215.95,23.1719 L215.95,24.0938 Q215.95,25.125 216.7938,25.8125 Q217.6375,26.5 219.1375,26.5 Q220.0281,26.5 220.6531,26.2969 Q221.0125,26.1875 221.4188,25.8281 Q221.6844,25.625 221.825,25.5625 Q221.9656,25.5 222.1375,25.5 Q222.4656,25.5 222.7,25.7656 Q222.95,26.0156 222.95,26.375 Q222.95,26.7188 222.6063,27.125 Q222.1063,27.7188 221.3094,28.0469 Q220.2625,28.5 218.9813,28.5 Q217.4813,28.5 216.2781,27.9063 Q215.3094,27.4375 214.6219,26.4219 Q213.95,25.4063 213.95,24.2031 L213.95,23.1094 Q213.95,21.8594 214.5438,20.7656 Q215.1531,19.6719 216.2,19.0938 Q217.2625,18.5 218.45,18.5 Q219.1688,18.5 219.7938,18.75 Q220.4188,19 220.95,19.5 Z " fill="#000000"/><text fill="#000000" font-family="sans-serif" font-size="12" lengthAdjust="spacingAndGlyphs" textLength="142" x="234.05" y="27.9102">AtualizarScooterController</text><line style="stroke:#A80036;stroke-width:1.5;" x1="200" x2="383" y1="39" y2="39"/><line style="stroke:#A80036;stroke-width:1.5;" x1="200" x2="383" y1="47" y2="47"/><ellipse cx="210" cy="58" fill="#84BE84" rx="3" ry="3" style="stroke:#038048;stroke-width:1.0;"/><text fill="#000000" font-family="sans-serif" font-size="11" lengthAdjust="spacingAndGlyphs" textLength="144" x="219" y="62.4189">List&lt;String&gt; getListaScooter()</text><ellipse cx="210" cy="71.8359" fill="#84BE84" rx="3" ry="3" style="stroke:#038048;stroke-width:1.0;"/><text fill="#000000" font-family="sans-serif" font-size="11" lengthAdjust="spacingAndGlyphs" textLength="159" x="219" y="76.2549">String getScooterbyID(scooterID)</text><ellipse cx="210" cy="85.6719" fill="#84BE84" rx="3" ry="3" style="stroke:#038048;stroke-width:1.0;"/><text fill="#000000" font-family="sans-serif" font-size="11" lengthAdjust="spacingAndGlyphs" textLength="132" x="219" y="90.0908">removerScooter(scooterID)</text><!--MD5=[24f7645889abd6047ad6d0f9f8bd9509]
class ScooterBD--><rect codeLine="12" fill="#FEFECE" filter="url(#f1ig8cyklv3sno)" height="89.5078" id="ScooterBD" style="stroke:#A80036;stroke-width:1.5;" width="185" x="444" y="7"/><ellipse cx="502.75" cy="23" fill="#ADD1B2" rx="11" ry="11" style="stroke:#A80036;stroke-width:1.0;"/><path d="M504.75,19.5 Q504.9531,19 505.1875,18.75 Q505.4219,18.5 505.6875,18.5 Q506.1563,18.5 506.4531,18.7813 Q506.75,19.0625 506.75,19.7188 L506.75,21.2813 Q506.75,21.9375 506.4688,22.2188 Q506.1875,22.5 505.75,22.5 Q505.3594,22.5 505.1094,22.3281 Q504.8594,22.1563 504.75,21.7031 Q504.7031,21.3906 504.5313,21.2188 Q504.2188,20.8906 503.6563,20.7031 Q503.0938,20.5 502.5313,20.5 Q501.8281,20.5 501.2344,20.7813 Q500.6563,21.0625 500.2031,21.6875 Q499.75,22.3125 499.75,23.1719 L499.75,24.0938 Q499.75,25.125 500.5938,25.8125 Q501.4375,26.5 502.9375,26.5 Q503.8281,26.5 504.4531,26.2969 Q504.8125,26.1875 505.2188,25.8281 Q505.4844,25.625 505.625,25.5625 Q505.7656,25.5 505.9375,25.5 Q506.2656,25.5 506.5,25.7656 Q506.75,26.0156 506.75,26.375 Q506.75,26.7188 506.4063,27.125 Q505.9063,27.7188 505.1094,28.0469 Q504.0625,28.5 502.7813,28.5 Q501.2813,28.5 500.0781,27.9063 Q499.1094,27.4375 498.4219,26.4219 Q497.75,25.4063 497.75,24.2031 L497.75,23.1094 Q497.75,21.8594 498.3438,20.7656 Q498.9531,19.6719 500,19.0938 Q501.0625,18.5 502.25,18.5 Q502.9688,18.5 503.5938,18.75 Q504.2188,19 504.75,19.5 Z " fill="#000000"/><text fill="#000000" font-family="sans-serif" font-size="12" lengthAdjust="spacingAndGlyphs" textLength="59" x="523.25" y="27.9102">ScooterBD</text><line style="stroke:#A80036;stroke-width:1.5;" x1="445" x2="628" y1="39" y2="39"/><line style="stroke:#A80036;stroke-width:1.5;" x1="445" x2="628" y1="47" y2="47"/><ellipse cx="455" cy="58" fill="#84BE84" rx="3" ry="3" style="stroke:#038048;stroke-width:1.0;"/><text fill="#000000" font-family="sans-serif" font-size="11" lengthAdjust="spacingAndGlyphs" textLength="144" x="464" y="62.4189">List&lt;String&gt; getListaScooter()</text><ellipse cx="455" cy="71.8359" fill="#84BE84" rx="3" ry="3" style="stroke:#038048;stroke-width:1.0;"/><text fill="#000000" font-family="sans-serif" font-size="11" lengthAdjust="spacingAndGlyphs" textLength="159" x="464" y="76.2549">String getScooterbyID(scooterID)</text><ellipse cx="455" cy="85.6719" fill="#84BE84" rx="3" ry="3" style="stroke:#038048;stroke-width:1.0;"/><text fill="#000000" font-family="sans-serif" font-size="11" lengthAdjust="spacingAndGlyphs" textLength="132" x="464" y="90.0908">removerScooter(scooterID)</text><!--MD5=[9c5439856a1aad23e042de9a355b14cb]
class BaseDados--><rect codeLine="18" fill="#FEFECE" filter="url(#f1ig8cyklv3sno)" height="75.6719" id="BaseDados" style="stroke:#A80036;stroke-width:1.5;" width="114" x="689" y="14"/><ellipse cx="711.2" cy="30" fill="#ADD1B2" rx="11" ry="11" style="stroke:#A80036;stroke-width:1.0;"/><path d="M713.2,26.5 Q713.4031,26 713.6375,25.75 Q713.8719,25.5 714.1375,25.5 Q714.6063,25.5 714.9031,25.7813 Q715.2,26.0625 715.2,26.7188 L715.2,28.2813 Q715.2,28.9375 714.9188,29.2188 Q714.6375,29.5 714.2,29.5 Q713.8094,29.5 713.5594,29.3281 Q713.3094,29.1563 713.2,28.7031 Q713.1531,28.3906 712.9813,28.2188 Q712.6688,27.8906 712.1063,27.7031 Q711.5438,27.5 710.9813,27.5 Q710.2781,27.5 709.6844,27.7813 Q709.1063,28.0625 708.6531,28.6875 Q708.2,29.3125 708.2,30.1719 L708.2,31.0938 Q708.2,32.125 709.0438,32.8125 Q709.8875,33.5 711.3875,33.5 Q712.2781,33.5 712.9031,33.2969 Q713.2625,33.1875 713.6688,32.8281 Q713.9344,32.625 714.075,32.5625 Q714.2156,32.5 714.3875,32.5 Q714.7156,32.5 714.95,32.7656 Q715.2,33.0156 715.2,33.375 Q715.2,33.7188 714.8563,34.125 Q714.3563,34.7188 713.5594,35.0469 Q712.5125,35.5 711.2313,35.5 Q709.7313,35.5 708.5281,34.9063 Q707.5594,34.4375 706.8719,33.4219 Q706.2,32.4063 706.2,31.2031 L706.2,30.1094 Q706.2,28.8594 706.7938,27.7656 Q707.4031,26.6719 708.45,26.0938 Q709.5125,25.5 710.7,25.5 Q711.4188,25.5 712.0438,25.75 Q712.6688,26 713.2,26.5 Z " fill="#000000"/><text fill="#000000" font-family="sans-serif" font-size="12" lengthAdjust="spacingAndGlyphs" textLength="66" x="726.8" y="34.9102">BaseDados</text><line style="stroke:#A80036;stroke-width:1.5;" x1="690" x2="802" y1="46" y2="46"/><line style="stroke:#A80036;stroke-width:1.5;" x1="690" x2="802" y1="54" y2="54"/><ellipse cx="700" cy="65" fill="#84BE84" rx="3" ry="3" style="stroke:#038048;stroke-width:1.0;"/><text fill="#000000" font-family="sans-serif" font-size="11" lengthAdjust="spacingAndGlyphs" textLength="77" x="709" y="69.4189">getConnection()</text><ellipse cx="700" cy="78.8359" fill="#84BE84" rx="3" ry="3" style="stroke:#038048;stroke-width:1.0;"/><text fill="#000000" font-family="sans-serif" font-size="11" lengthAdjust="spacingAndGlyphs" textLength="88" x="709" y="83.2549">closeConnection()</text><!--MD5=[c5163bdded313a05fba1b402269752e8]
link AtualizarScooterUI to AtualizarScooterController--><path codeLine="23" d="M139.25,52 C156.44,52 175.35,52 193.8,52 " fill="none" id="AtualizarScooterUI-to-AtualizarScooterController" style="stroke:#A80036;stroke-width:1.0;stroke-dasharray:7.0,7.0;"/><polygon fill="#A80036" points="199,52,190,48,194,52,190,56,199,52" style="stroke:#A80036;stroke-width:1.0;"/><!--MD5=[0dc92396d8c4bf63fcf1e3d3ef1e2e86]
link AtualizarScooterController to ScooterBD--><path codeLine="24" d="M384.02,52 C401.85,52 420.6,52 438.6,52 " fill="none" id="AtualizarScooterController-to-ScooterBD" style="stroke:#A80036;stroke-width:1.0;stroke-dasharray:7.0,7.0;"/><polygon fill="#A80036" points="443.66,52,434.66,48,438.66,52,434.66,56,443.66,52" style="stroke:#A80036;stroke-width:1.0;"/><!--MD5=[ef60af5d8bc7d35de774819867592e8d]
link ScooterBD to BaseDados--><path codeLine="25" d="M629.12,52 C647.52,52 666.43,52 683.5,52 " fill="none" id="ScooterBD-to-BaseDados" style="stroke:#A80036;stroke-width:1.0;stroke-dasharray:7.0,7.0;"/><polygon fill="#A80036" points="688.74,52,679.74,48,683.74,52,679.74,56,688.74,52" style="stroke:#A80036;stroke-width:1.0;"/><!--MD5=[816fae4532752a3336525b4db9fe67a0]
@startuml
left to right direction

class AtualizarScooterUI{
}

class AtualizarScooterController{
+List<String> getListaScooter()
+String getScooterbyID(scooterID)
+removerScooter(scooterID)
}

class ScooterBD{
+List<String> getListaScooter()
+String getScooterbyID(scooterID)
+removerScooter(scooterID)
}

class BaseDados{
+getConnection()
+closeConnection()
}

AtualizarScooterUI ..> AtualizarScooterController
AtualizarScooterController ..> ScooterBD
ScooterBD ..> BaseDados

@enduml

PlantUML version 1.2020.23(Sun Dec 13 19:14:58 GMT 2020)
(GPL source distribution)
Java Runtime: OpenJDK Runtime Environment
JVM: OpenJDK 64-Bit Server VM
Default Encoding: Cp1252
Language: pt
Country: PT
--></g></svg>