<?xml version="1.0" encoding="UTF-8" standalone="no"?><svg xmlns="http://www.w3.org/2000/svg" xmlns:xlink="http://www.w3.org/1999/xlink" contentScriptType="application/ecmascript" contentStyleType="text/css" height="359px" preserveAspectRatio="none" style="width:1943px;height:359px;" version="1.1" viewBox="0 0 1943 359" width="1943px" zoomAndPan="magnify"><defs><filter height="300%" id="fvsdnknh6q0b5" width="300%" x="-1" y="-1"><feGaussianBlur result="blurOut" stdDeviation="2.0"/><feColorMatrix in="blurOut" result="blurOut2" type="matrix" values="0 0 0 0 0 0 0 0 0 0 0 0 0 0 0 0 0 0 .4 0"/><feOffset dx="4.0" dy="4.0" in="blurOut2" result="blurOut3"/><feBlend in="SourceGraphic" in2="blurOut3" mode="normal"/></filter></defs><g><!--MD5=[50c82c2f3968b87829ca85bcae2437a8]
class AtualizarDroneUI--><rect codeLine="4" fill="#FEFECE" filter="url(#fvsdnknh6q0b5)" height="48" id="AtualizarDroneUI" style="stroke:#A80036;stroke-width:1.5;" width="124" x="7" y="159"/><ellipse cx="22" cy="175" fill="#ADD1B2" rx="11" ry="11" style="stroke:#A80036;stroke-width:1.0;"/><path d="M24,171.5 Q24.2031,171 24.4375,170.75 Q24.6719,170.5 24.9375,170.5 Q25.4063,170.5 25.7031,170.7813 Q26,171.0625 26,171.7188 L26,173.2813 Q26,173.9375 25.7188,174.2188 Q25.4375,174.5 25,174.5 Q24.6094,174.5 24.3594,174.3281 Q24.1094,174.1563 24,173.7031 Q23.9531,173.3906 23.7813,173.2188 Q23.4688,172.8906 22.9063,172.7031 Q22.3438,172.5 21.7813,172.5 Q21.0781,172.5 20.4844,172.7813 Q19.9063,173.0625 19.4531,173.6875 Q19,174.3125 19,175.1719 L19,176.0938 Q19,177.125 19.8438,177.8125 Q20.6875,178.5 22.1875,178.5 Q23.0781,178.5 23.7031,178.2969 Q24.0625,178.1875 24.4688,177.8281 Q24.7344,177.625 24.875,177.5625 Q25.0156,177.5 25.1875,177.5 Q25.5156,177.5 25.75,177.7656 Q26,178.0156 26,178.375 Q26,178.7188 25.6563,179.125 Q25.1563,179.7188 24.3594,180.0469 Q23.3125,180.5 22.0313,180.5 Q20.5313,180.5 19.3281,179.9063 Q18.3594,179.4375 17.6719,178.4219 Q17,177.4063 17,176.2031 L17,175.1094 Q17,173.8594 17.5938,172.7656 Q18.2031,171.6719 19.25,171.0938 Q20.3125,170.5 21.5,170.5 Q22.2188,170.5 22.8438,170.75 Q23.4688,171 24,171.5 Z " fill="#000000"/><text fill="#000000" font-family="sans-serif" font-size="12" lengthAdjust="spacing" textLength="92" x="36" y="179.9102">AtualizarDroneUI</text><line style="stroke:#A80036;stroke-width:1.5;" x1="8" x2="130" y1="191" y2="191"/><line style="stroke:#A80036;stroke-width:1.5;" x1="8" x2="130" y1="199" y2="199"/><!--MD5=[026f9a00207461d115ddda5b78cd1a08]
class AtualizarDroneController--><rect codeLine="7" fill="#FEFECE" filter="url(#fvsdnknh6q0b5)" height="117.1797" id="AtualizarDroneController" style="stroke:#A80036;stroke-width:1.5;" width="398" x="191" y="124.5"/><ellipse cx="318.75" cy="140.5" fill="#ADD1B2" rx="11" ry="11" style="stroke:#A80036;stroke-width:1.0;"/><path d="M320.75,137 Q320.9531,136.5 321.1875,136.25 Q321.4219,136 321.6875,136 Q322.1563,136 322.4531,136.2813 Q322.75,136.5625 322.75,137.2188 L322.75,138.7813 Q322.75,139.4375 322.4688,139.7188 Q322.1875,140 321.75,140 Q321.3594,140 321.1094,139.8281 Q320.8594,139.6563 320.75,139.2031 Q320.7031,138.8906 320.5313,138.7188 Q320.2188,138.3906 319.6563,138.2031 Q319.0938,138 318.5313,138 Q317.8281,138 317.2344,138.2813 Q316.6563,138.5625 316.2031,139.1875 Q315.75,139.8125 315.75,140.6719 L315.75,141.5938 Q315.75,142.625 316.5938,143.3125 Q317.4375,144 318.9375,144 Q319.8281,144 320.4531,143.7969 Q320.8125,143.6875 321.2188,143.3281 Q321.4844,143.125 321.625,143.0625 Q321.7656,143 321.9375,143 Q322.2656,143 322.5,143.2656 Q322.75,143.5156 322.75,143.875 Q322.75,144.2188 322.4063,144.625 Q321.9063,145.2188 321.1094,145.5469 Q320.0625,146 318.7813,146 Q317.2813,146 316.0781,145.4063 Q315.1094,144.9375 314.4219,143.9219 Q313.75,142.9063 313.75,141.7031 L313.75,140.6094 Q313.75,139.3594 314.3438,138.2656 Q314.9531,137.1719 316,136.5938 Q317.0625,136 318.25,136 Q318.9688,136 319.5938,136.25 Q320.2188,136.5 320.75,137 Z " fill="#000000"/><text fill="#000000" font-family="sans-serif" font-size="12" lengthAdjust="spacing" textLength="134" x="339.25" y="145.4102">AtualizarDroneController</text><line style="stroke:#A80036;stroke-width:1.5;" x1="192" x2="588" y1="156.5" y2="156.5"/><line style="stroke:#A80036;stroke-width:1.5;" x1="192" x2="588" y1="164.5" y2="164.5"/><ellipse cx="202" cy="175.5" fill="#84BE84" rx="3" ry="3" style="stroke:#038048;stroke-width:1.0;"/><text fill="#000000" font-family="sans-serif" font-size="11" lengthAdjust="spacing" textLength="135" x="211" y="179.9189">List&lt;String&gt; getListaDrone()</text><ellipse cx="202" cy="189.3359" fill="#84BE84" rx="3" ry="3" style="stroke:#038048;stroke-width:1.0;"/><text fill="#000000" font-family="sans-serif" font-size="11" lengthAdjust="spacing" textLength="141" x="211" y="193.7549">String getDronebyID(droneID)</text><ellipse cx="202" cy="203.1719" fill="#84BE84" rx="3" ry="3" style="stroke:#038048;stroke-width:1.0;"/><text fill="#000000" font-family="sans-serif" font-size="11" lengthAdjust="spacing" textLength="365" x="211" y="207.5908">validaDados(carga,capacidadeBateria,estadoDroneID,consumoHoraBateria,</text><text fill="#000000" font-family="sans-serif" font-size="11" lengthAdjust="spacing" textLength="372" x="211" y="221.4268">tensaoBateria,massa,potencia,velocidade,avionics,drag,rotors,cargaMaxima)</text><ellipse cx="202" cy="230.8438" fill="#84BE84" rx="3" ry="3" style="stroke:#038048;stroke-width:1.0;"/><text fill="#000000" font-family="sans-serif" font-size="11" lengthAdjust="spacing" textLength="109" x="211" y="235.2627">updateDados(droneID)</text><!--MD5=[cae86d803c82ab7988454d662cc2fd27]
class DroneBD--><rect codeLine="14" fill="#FEFECE" filter="url(#fvsdnknh6q0b5)" height="89.5078" id="DroneBD" style="stroke:#A80036;stroke-width:1.5;" width="167" x="649" y="89"/><ellipse cx="702.75" cy="105" fill="#ADD1B2" rx="11" ry="11" style="stroke:#A80036;stroke-width:1.0;"/><path d="M704.75,101.5 Q704.9531,101 705.1875,100.75 Q705.4219,100.5 705.6875,100.5 Q706.1563,100.5 706.4531,100.7813 Q706.75,101.0625 706.75,101.7188 L706.75,103.2813 Q706.75,103.9375 706.4688,104.2188 Q706.1875,104.5 705.75,104.5 Q705.3594,104.5 705.1094,104.3281 Q704.8594,104.1563 704.75,103.7031 Q704.7031,103.3906 704.5313,103.2188 Q704.2188,102.8906 703.6563,102.7031 Q703.0938,102.5 702.5313,102.5 Q701.8281,102.5 701.2344,102.7813 Q700.6563,103.0625 700.2031,103.6875 Q699.75,104.3125 699.75,105.1719 L699.75,106.0938 Q699.75,107.125 700.5938,107.8125 Q701.4375,108.5 702.9375,108.5 Q703.8281,108.5 704.4531,108.2969 Q704.8125,108.1875 705.2188,107.8281 Q705.4844,107.625 705.625,107.5625 Q705.7656,107.5 705.9375,107.5 Q706.2656,107.5 706.5,107.7656 Q706.75,108.0156 706.75,108.375 Q706.75,108.7188 706.4063,109.125 Q705.9063,109.7188 705.1094,110.0469 Q704.0625,110.5 702.7813,110.5 Q701.2813,110.5 700.0781,109.9063 Q699.1094,109.4375 698.4219,108.4219 Q697.75,107.4063 697.75,106.2031 L697.75,105.1094 Q697.75,103.8594 698.3438,102.7656 Q698.9531,101.6719 700,101.0938 Q701.0625,100.5 702.25,100.5 Q702.9688,100.5 703.5938,100.75 Q704.2188,101 704.75,101.5 Z " fill="#000000"/><text fill="#000000" font-family="sans-serif" font-size="12" lengthAdjust="spacing" textLength="51" x="723.25" y="109.9102">DroneBD</text><line style="stroke:#A80036;stroke-width:1.5;" x1="650" x2="815" y1="121" y2="121"/><line style="stroke:#A80036;stroke-width:1.5;" x1="650" x2="815" y1="129" y2="129"/><ellipse cx="660" cy="140" fill="#84BE84" rx="3" ry="3" style="stroke:#038048;stroke-width:1.0;"/><text fill="#000000" font-family="sans-serif" font-size="11" lengthAdjust="spacing" textLength="135" x="669" y="144.4189">List&lt;String&gt; getListaDrone()</text><ellipse cx="660" cy="153.8359" fill="#84BE84" rx="3" ry="3" style="stroke:#038048;stroke-width:1.0;"/><text fill="#000000" font-family="sans-serif" font-size="11" lengthAdjust="spacing" textLength="141" x="669" y="158.2549">String getDronebyID(droneID)</text><ellipse cx="660" cy="167.6719" fill="#84BE84" rx="3" ry="3" style="stroke:#038048;stroke-width:1.0;"/><text fill="#000000" font-family="sans-serif" font-size="11" lengthAdjust="spacing" textLength="138" x="669" y="172.0908">updateDadosDrone(droneID)</text><!--MD5=[9c5439856a1aad23e042de9a355b14cb]
class BaseDados--><rect codeLine="20" fill="#FEFECE" filter="url(#fvsdnknh6q0b5)" height="75.6719" id="BaseDados" style="stroke:#A80036;stroke-width:1.5;" width="114" x="1345.5" y="7"/><ellipse cx="1367.7" cy="23" fill="#ADD1B2" rx="11" ry="11" style="stroke:#A80036;stroke-width:1.0;"/><path d="M1369.7,19.5 Q1369.9031,19 1370.1375,18.75 Q1370.3719,18.5 1370.6375,18.5 Q1371.1063,18.5 1371.4031,18.7813 Q1371.7,19.0625 1371.7,19.7188 L1371.7,21.2813 Q1371.7,21.9375 1371.4188,22.2188 Q1371.1375,22.5 1370.7,22.5 Q1370.3094,22.5 1370.0594,22.3281 Q1369.8094,22.1563 1369.7,21.7031 Q1369.6531,21.3906 1369.4813,21.2188 Q1369.1688,20.8906 1368.6063,20.7031 Q1368.0438,20.5 1367.4813,20.5 Q1366.7781,20.5 1366.1844,20.7813 Q1365.6063,21.0625 1365.1531,21.6875 Q1364.7,22.3125 1364.7,23.1719 L1364.7,24.0938 Q1364.7,25.125 1365.5438,25.8125 Q1366.3875,26.5 1367.8875,26.5 Q1368.7781,26.5 1369.4031,26.2969 Q1369.7625,26.1875 1370.1688,25.8281 Q1370.4344,25.625 1370.575,25.5625 Q1370.7156,25.5 1370.8875,25.5 Q1371.2156,25.5 1371.45,25.7656 Q1371.7,26.0156 1371.7,26.375 Q1371.7,26.7188 1371.3563,27.125 Q1370.8563,27.7188 1370.0594,28.0469 Q1369.0125,28.5 1367.7313,28.5 Q1366.2313,28.5 1365.0281,27.9063 Q1364.0594,27.4375 1363.3719,26.4219 Q1362.7,25.4063 1362.7,24.2031 L1362.7,23.1094 Q1362.7,21.8594 1363.2938,20.7656 Q1363.9031,19.6719 1364.95,19.0938 Q1366.0125,18.5 1367.2,18.5 Q1367.9188,18.5 1368.5438,18.75 Q1369.1688,19 1369.7,19.5 Z " fill="#000000"/><text fill="#000000" font-family="sans-serif" font-size="12" lengthAdjust="spacing" textLength="66" x="1383.3" y="27.9102">BaseDados</text><line style="stroke:#A80036;stroke-width:1.5;" x1="1346.5" x2="1458.5" y1="39" y2="39"/><line style="stroke:#A80036;stroke-width:1.5;" x1="1346.5" x2="1458.5" y1="47" y2="47"/><ellipse cx="1356.5" cy="58" fill="#84BE84" rx="3" ry="3" style="stroke:#038048;stroke-width:1.0;"/><text fill="#000000" font-family="sans-serif" font-size="11" lengthAdjust="spacing" textLength="77" x="1365.5" y="62.4189">getConnection()</text><ellipse cx="1356.5" cy="71.8359" fill="#84BE84" rx="3" ry="3" style="stroke:#038048;stroke-width:1.0;"/><text fill="#000000" font-family="sans-serif" font-size="11" lengthAdjust="spacing" textLength="88" x="1365.5" y="76.2549">closeConnection()</text><!--MD5=[2e3f1e60e74253ff42e47f8bfdb04ee2]
class Drone--><rect codeLine="25" fill="#FEFECE" filter="url(#fvsdnknh6q0b5)" height="227.8672" id="Drone" style="stroke:#A80036;stroke-width:1.5;" width="1053" x="876" y="118"/><ellipse cx="1381.25" cy="134" fill="#ADD1B2" rx="11" ry="11" style="stroke:#A80036;stroke-width:1.0;"/><path d="M1383.25,130.5 Q1383.4531,130 1383.6875,129.75 Q1383.9219,129.5 1384.1875,129.5 Q1384.6563,129.5 1384.9531,129.7813 Q1385.25,130.0625 1385.25,130.7188 L1385.25,132.2813 Q1385.25,132.9375 1384.9688,133.2188 Q1384.6875,133.5 1384.25,133.5 Q1383.8594,133.5 1383.6094,133.3281 Q1383.3594,133.1563 1383.25,132.7031 Q1383.2031,132.3906 1383.0313,132.2188 Q1382.7188,131.8906 1382.1563,131.7031 Q1381.5938,131.5 1381.0313,131.5 Q1380.3281,131.5 1379.7344,131.7813 Q1379.1563,132.0625 1378.7031,132.6875 Q1378.25,133.3125 1378.25,134.1719 L1378.25,135.0938 Q1378.25,136.125 1379.0938,136.8125 Q1379.9375,137.5 1381.4375,137.5 Q1382.3281,137.5 1382.9531,137.2969 Q1383.3125,137.1875 1383.7188,136.8281 Q1383.9844,136.625 1384.125,136.5625 Q1384.2656,136.5 1384.4375,136.5 Q1384.7656,136.5 1385,136.7656 Q1385.25,137.0156 1385.25,137.375 Q1385.25,137.7188 1384.9063,138.125 Q1384.4063,138.7188 1383.6094,139.0469 Q1382.5625,139.5 1381.2813,139.5 Q1379.7813,139.5 1378.5781,138.9063 Q1377.6094,138.4375 1376.9219,137.4219 Q1376.25,136.4063 1376.25,135.2031 L1376.25,134.1094 Q1376.25,132.8594 1376.8438,131.7656 Q1377.4531,130.6719 1378.5,130.0938 Q1379.5625,129.5 1380.75,129.5 Q1381.4688,129.5 1382.0938,129.75 Q1382.7188,130 1383.25,130.5 Z " fill="#000000"/><text fill="#000000" font-family="sans-serif" font-size="12" lengthAdjust="spacing" textLength="34" x="1401.75" y="138.9102">Drone</text><line style="stroke:#A80036;stroke-width:1.5;" x1="877" x2="1928" y1="150" y2="150"/><rect fill="none" height="6" style="stroke:#C82930;stroke-width:1.0;" width="6" x="884" y="158"/><text fill="#000000" font-family="sans-serif" font-size="11" lengthAdjust="spacing" textLength="22" x="896" y="165.4189">int id</text><rect fill="none" height="6" style="stroke:#C82930;stroke-width:1.0;" width="6" x="884" y="171.8359"/><text fill="#000000" font-family="sans-serif" font-size="11" lengthAdjust="spacing" textLength="42" x="896" y="179.2549">int carga</text><rect fill="none" height="6" style="stroke:#C82930;stroke-width:1.0;" width="6" x="884" y="185.6719"/><text fill="#000000" font-family="sans-serif" font-size="11" lengthAdjust="spacing" textLength="125" x="896" y="193.0908">double capacidadeBateria</text><rect fill="none" height="6" style="stroke:#C82930;stroke-width:1.0;" width="6" x="884" y="199.5078"/><text fill="#000000" font-family="sans-serif" font-size="11" lengthAdjust="spacing" textLength="136" x="896" y="206.9268">double consumoHoraBateria</text><rect fill="none" height="6" style="stroke:#C82930;stroke-width:1.0;" width="6" x="884" y="213.3438"/><text fill="#000000" font-family="sans-serif" font-size="11" lengthAdjust="spacing" textLength="102" x="896" y="220.7627">double tensaoBateria</text><rect fill="none" height="6" style="stroke:#C82930;stroke-width:1.0;" width="6" x="884" y="227.1797"/><text fill="#000000" font-family="sans-serif" font-size="11" lengthAdjust="spacing" textLength="67" x="896" y="234.5986">double massa</text><rect fill="none" height="6" style="stroke:#C82930;stroke-width:1.0;" width="6" x="884" y="241.0156"/><text fill="#000000" font-family="sans-serif" font-size="11" lengthAdjust="spacing" textLength="76" x="896" y="248.4346">double potencia</text><rect fill="none" height="6" style="stroke:#C82930;stroke-width:1.0;" width="6" x="884" y="254.8516"/><text fill="#000000" font-family="sans-serif" font-size="11" lengthAdjust="spacing" textLength="90" x="896" y="262.2705">double velocidade;</text><rect fill="none" height="6" style="stroke:#C82930;stroke-width:1.0;" width="6" x="884" y="268.6875"/><text fill="#000000" font-family="sans-serif" font-size="11" lengthAdjust="spacing" textLength="78" x="896" y="276.1064">double avionics;</text><rect fill="none" height="6" style="stroke:#C82930;stroke-width:1.0;" width="6" x="884" y="282.5234"/><text fill="#000000" font-family="sans-serif" font-size="11" lengthAdjust="spacing" textLength="60" x="896" y="289.9424">double drag;</text><rect fill="none" height="6" style="stroke:#C82930;stroke-width:1.0;" width="6" x="884" y="296.3594"/><text fill="#000000" font-family="sans-serif" font-size="11" lengthAdjust="spacing" textLength="67" x="896" y="303.7783">double rotors;</text><rect fill="none" height="6" style="stroke:#C82930;stroke-width:1.0;" width="6" x="884" y="310.1953"/><text fill="#000000" font-family="sans-serif" font-size="11" lengthAdjust="spacing" textLength="102" x="896" y="317.6143">double cargaMaxima;</text><line style="stroke:#A80036;stroke-width:1.5;" x1="877" x2="1928" y1="324.0313" y2="324.0313"/><ellipse cx="887" cy="335.0313" fill="#84BE84" rx="3" ry="3" style="stroke:#038048;stroke-width:1.0;"/><text fill="#000000" font-family="sans-serif" font-size="11" lengthAdjust="spacing" textLength="1027" x="896" y="339.4502">Drone(int carga, double capacidadeBateria, double consumoHoraBateria, double tensaoBateria, double massa, double potencia, double velocidade, double avionics, double drag, double rotors, double cargaMaxima)</text><!--MD5=[15f363f53c5a0d3bd43137c2050cdd39]
link AtualizarDroneUI to AtualizarDroneController--><path codeLine="42" d="M131.13,183 C147.56,183 166.27,183 185.94,183 " fill="none" id="AtualizarDroneUI-to-AtualizarDroneController" style="stroke:#A80036;stroke-width:1.0;stroke-dasharray:7.0,7.0;"/><polygon fill="#A80036" points="190.96,183,181.96,179,185.96,183,181.96,187,190.96,183" style="stroke:#A80036;stroke-width:1.0;"/><!--MD5=[fd41928b6d15403bfdf216a00dbef4df]
link AtualizarDroneController to DroneBD--><path codeLine="43" d="M589.07,154.5 C608.03,151.77 626.52,149.11 643.56,146.66 " fill="none" id="AtualizarDroneController-to-DroneBD" style="stroke:#A80036;stroke-width:1.0;stroke-dasharray:7.0,7.0;"/><polygon fill="#A80036" points="648.8,145.9,639.3215,143.2245,643.8511,146.6131,640.4625,151.1427,648.8,145.9" style="stroke:#A80036;stroke-width:1.0;"/><!--MD5=[32b1f25edb1e6bd2997e462d5aa96ae5]
link AtualizarDroneController to Drone--><path codeLine="44" d="M589.26,193.04 C609.43,194.05 629.63,195.05 649,196 C720.68,199.52 796.2,203.19 870.63,206.77 " fill="none" id="AtualizarDroneController-to-Drone" style="stroke:#A80036;stroke-width:1.0;stroke-dasharray:7.0,7.0;"/><polygon fill="#A80036" points="875.98,207.03,867.1721,202.6232,870.9852,206.8017,866.8067,210.6148,875.98,207.03" style="stroke:#A80036;stroke-width:1.0;"/><!--MD5=[2f3f3103d19af2bd7b865b553690b26a]
link DroneBD to BaseDados--><path codeLine="45" d="M816.01,112.39 C835.58,107.8 856.44,103.34 876,100 C1042.56,71.54 1241.5,55.56 1339.99,48.84 " fill="none" id="DroneBD-to-BaseDados" style="stroke:#A80036;stroke-width:1.0;stroke-dasharray:7.0,7.0;"/><polygon fill="#A80036" points="1345.18,48.48,1335.9268,45.1069,1340.1918,48.823,1336.4756,53.088,1345.18,48.48" style="stroke:#A80036;stroke-width:1.0;"/><!--MD5=[ed1fc24a16fb1bf7ca9187d1c0d60594]
link DroneBD to Drone--><path codeLine="46" d="M816.08,146.12 C832.57,148.53 851.01,151.24 870.88,154.15 " fill="none" id="DroneBD-to-Drone" style="stroke:#A80036;stroke-width:1.0;stroke-dasharray:7.0,7.0;"/><polygon fill="#A80036" points="875.97,154.9,867.6473,149.6338,871.0231,154.1729,866.484,157.5488,875.97,154.9" style="stroke:#A80036;stroke-width:1.0;"/><!--MD5=[299dc4cdc51ca42dd6410b5070c64939]
@startuml

left to right direction

class AtualizarDroneUI{
}

class AtualizarDroneController{
+List<String> getListaDrone()
+String getDronebyID(droneID)
+validaDados(carga,capacidadeBateria,estadoDroneID,consumoHoraBateria,\ntensaoBateria,massa,potencia,velocidade,avionics,drag,rotors,cargaMaxima)
+updateDados(droneID)
}

class DroneBD{
+List<String> getListaDrone()
+String getDronebyID(droneID)
+updateDadosDrone(droneID)
}

class BaseDados{
+getConnection()
+closeConnection()
}

class Drone{
-int id
-int carga
-double capacidadeBateria
-double consumoHoraBateria
-double tensaoBateria
-double massa
-double potencia
-double velocidade;
-double avionics;
-double drag;
-double rotors;
-double cargaMaxima;

+Drone(int carga, double capacidadeBateria, double consumoHoraBateria, double tensaoBateria, double massa, double potencia, double velocidade, double avionics, double drag, double rotors, double cargaMaxima)
}

AtualizarDroneUI ..> AtualizarDroneController
AtualizarDroneController ..> DroneBD
AtualizarDroneController ..> Drone
DroneBD ..> BaseDados
DroneBD ..> Drone

@enduml

PlantUML version 1.2021.00(Sun Jan 10 10:25:05 GMT 2021)
(GPL source distribution)
Java Runtime: OpenJDK Runtime Environment
JVM: OpenJDK 64-Bit Server VM
Default Encoding: Cp1252
Language: pt
Country: PT
--></g></svg>