<?xml version="1.0" encoding="UTF-8" standalone="no"?><svg xmlns="http://www.w3.org/2000/svg" xmlns:xlink="http://www.w3.org/1999/xlink" contentScriptType="application/ecmascript" contentStyleType="text/css" height="342px" preserveAspectRatio="none" style="width:502px;height:342px;" version="1.1" viewBox="0 0 502 342" width="502px" zoomAndPan="magnify"><defs><filter height="300%" id="frmanfpqf3ix9" width="300%" x="-1" y="-1"><feGaussianBlur result="blurOut" stdDeviation="2.0"/><feColorMatrix in="blurOut" result="blurOut2" type="matrix" values="0 0 0 0 0 0 0 0 0 0 0 0 0 0 0 0 0 0 .4 0"/><feOffset dx="4.0" dy="4.0" in="blurOut2" result="blurOut3"/><feBlend in="SourceGraphic" in2="blurOut3" mode="normal"/></filter></defs><g><!--MD5=[7c1f0b44bb4d66e90a89d0de9b441e2a]
class EstimarConsumoDroneTask--><rect codeLine="1" fill="#FEFECE" filter="url(#frmanfpqf3ix9)" height="186.3594" id="EstimarConsumoDroneTask" style="stroke:#A80036;stroke-width:1.5;" width="481" x="7" y="7"/><ellipse cx="163.75" cy="23" fill="#ADD1B2" rx="11" ry="11" style="stroke:#A80036;stroke-width:1.0;"/><path d="M165.75,19.5 Q165.9531,19 166.1875,18.75 Q166.4219,18.5 166.6875,18.5 Q167.1563,18.5 167.4531,18.7813 Q167.75,19.0625 167.75,19.7188 L167.75,21.2813 Q167.75,21.9375 167.4688,22.2188 Q167.1875,22.5 166.75,22.5 Q166.3594,22.5 166.1094,22.3281 Q165.8594,22.1563 165.75,21.7031 Q165.7031,21.3906 165.5313,21.2188 Q165.2188,20.8906 164.6563,20.7031 Q164.0938,20.5 163.5313,20.5 Q162.8281,20.5 162.2344,20.7813 Q161.6563,21.0625 161.2031,21.6875 Q160.75,22.3125 160.75,23.1719 L160.75,24.0938 Q160.75,25.125 161.5938,25.8125 Q162.4375,26.5 163.9375,26.5 Q164.8281,26.5 165.4531,26.2969 Q165.8125,26.1875 166.2188,25.8281 Q166.4844,25.625 166.625,25.5625 Q166.7656,25.5 166.9375,25.5 Q167.2656,25.5 167.5,25.7656 Q167.75,26.0156 167.75,26.375 Q167.75,26.7188 167.4063,27.125 Q166.9063,27.7188 166.1094,28.0469 Q165.0625,28.5 163.7813,28.5 Q162.2813,28.5 161.0781,27.9063 Q160.1094,27.4375 159.4219,26.4219 Q158.75,25.4063 158.75,24.2031 L158.75,23.1094 Q158.75,21.8594 159.3438,20.7656 Q159.9531,19.6719 161,19.0938 Q162.0625,18.5 163.25,18.5 Q163.9688,18.5 164.5938,18.75 Q165.2188,19 165.75,19.5 Z " fill="#000000"/><text fill="#000000" font-family="sans-serif" font-size="12" lengthAdjust="spacing" textLength="159" x="184.25" y="27.9102">EstimarConsumoDroneTask</text><line style="stroke:#A80036;stroke-width:1.5;" x1="8" x2="487" y1="39" y2="39"/><ellipse cx="18" cy="50" fill="none" rx="3" ry="3" style="stroke:#038048;stroke-width:1.0;"/><text fill="#000000" font-family="sans-serif" font-size="11" lengthAdjust="spacing" textLength="220" x="27" y="54.4189">static final double ACELERACAO_GRAVITICA</text><ellipse cx="18" cy="63.8359" fill="none" rx="3" ry="3" style="stroke:#038048;stroke-width:1.0;"/><text fill="#000000" font-family="sans-serif" font-size="11" lengthAdjust="spacing" textLength="155" x="27" y="68.2549">static final Drone droneEstimado</text><ellipse cx="18" cy="77.6719" fill="none" rx="3" ry="3" style="stroke:#038048;stroke-width:1.0;"/><text fill="#000000" font-family="sans-serif" font-size="11" lengthAdjust="spacing" textLength="237" x="27" y="82.0908">static final double ENTREGA_MASSA_ESTIMADA</text><line style="stroke:#A80036;stroke-width:1.5;" x1="8" x2="487" y1="88.5078" y2="88.5078"/><rect fill="#F24D5C" height="6" style="stroke:#C82930;stroke-width:1.0;" width="6" x="15" y="96.5078"/><text fill="#000000" font-family="sans-serif" font-size="11" lengthAdjust="spacing" textLength="455" x="27" y="103.9268">double estimarConsumoPercurso(Drone drone, double massaEntrega, List&lt;Morada&gt; percurso)</text><rect fill="#F24D5C" height="6" style="stroke:#C82930;stroke-width:1.0;" width="6" x="15" y="110.3438"/><text fill="#000000" font-family="sans-serif" font-size="11" lengthAdjust="spacing" textLength="272" x="27" y="117.7627">double estimarConsumoSimples(Morada m1, Morada m2)</text><rect fill="#F24D5C" height="6" style="stroke:#C82930;stroke-width:1.0;" width="6" x="15" y="124.1797"/><text fill="#000000" font-family="sans-serif" font-size="11" lengthAdjust="spacing" textLength="447" x="27" y="131.5986">double estimarConsumoViagem(Drone drone, Morada m1, Morada m2, double massaEntrega)</text><rect fill="#F24D5C" height="6" style="stroke:#C82930;stroke-width:1.0;" width="6" x="15" y="138.0156"/><text fill="#000000" font-family="sans-serif" font-size="11" lengthAdjust="spacing" textLength="314" x="27" y="145.4346">double distanciaComVento(Drone drone, Morada m1, Morada m2)</text><rect fill="#F24D5C" height="6" style="stroke:#C82930;stroke-width:1.0;" width="6" x="15" y="151.8516"/><text fill="#000000" font-family="sans-serif" font-size="11" lengthAdjust="spacing" textLength="266" x="27" y="159.2705">double produtoEscalar(double[] vetor1, double[] vetor2)</text><rect fill="#F24D5C" height="6" style="stroke:#C82930;stroke-width:1.0;" width="6" x="15" y="165.6875"/><text fill="#000000" font-family="sans-serif" font-size="11" lengthAdjust="spacing" textLength="301" x="27" y="173.1064">double[] calcularVetor(double modulo, Morada m1, Morada m2)</text><rect fill="#F24D5C" height="6" style="stroke:#C82930;stroke-width:1.0;" width="6" x="15" y="179.5234"/><text fill="#000000" font-family="sans-serif" font-size="11" lengthAdjust="spacing" textLength="337" x="27" y="186.9424">double[] tempoDistanciaEntrega(Drone drone, List&lt;Morada&gt; percurso)</text><!--MD5=[49ef38264fc92b8c5000eb35246e7131]
class Constantes--><rect codeLine="15" fill="#FEFECE" filter="url(#frmanfpqf3ix9)" height="75.6719" id="Constantes" style="stroke:#A80036;stroke-width:1.5;" width="145" x="175" y="253"/><ellipse cx="212.05" cy="269" fill="#ADD1B2" rx="11" ry="11" style="stroke:#A80036;stroke-width:1.0;"/><path d="M214.05,265.5 Q214.2531,265 214.4875,264.75 Q214.7219,264.5 214.9875,264.5 Q215.4563,264.5 215.7531,264.7813 Q216.05,265.0625 216.05,265.7188 L216.05,267.2813 Q216.05,267.9375 215.7688,268.2188 Q215.4875,268.5 215.05,268.5 Q214.6594,268.5 214.4094,268.3281 Q214.1594,268.1563 214.05,267.7031 Q214.0031,267.3906 213.8313,267.2188 Q213.5188,266.8906 212.9563,266.7031 Q212.3938,266.5 211.8313,266.5 Q211.1281,266.5 210.5344,266.7813 Q209.9563,267.0625 209.5031,267.6875 Q209.05,268.3125 209.05,269.1719 L209.05,270.0938 Q209.05,271.125 209.8938,271.8125 Q210.7375,272.5 212.2375,272.5 Q213.1281,272.5 213.7531,272.2969 Q214.1125,272.1875 214.5188,271.8281 Q214.7844,271.625 214.925,271.5625 Q215.0656,271.5 215.2375,271.5 Q215.5656,271.5 215.8,271.7656 Q216.05,272.0156 216.05,272.375 Q216.05,272.7188 215.7063,273.125 Q215.2063,273.7188 214.4094,274.0469 Q213.3625,274.5 212.0813,274.5 Q210.5813,274.5 209.3781,273.9063 Q208.4094,273.4375 207.7219,272.4219 Q207.05,271.4063 207.05,270.2031 L207.05,269.1094 Q207.05,267.8594 207.6438,266.7656 Q208.2531,265.6719 209.3,265.0938 Q210.3625,264.5 211.55,264.5 Q212.2688,264.5 212.8938,264.75 Q213.5188,265 214.05,265.5 Z " fill="#000000"/><text fill="#000000" font-family="sans-serif" font-size="12" lengthAdjust="spacing" textLength="64" x="230.95" y="273.9102">Constantes</text><line style="stroke:#A80036;stroke-width:1.5;" x1="176" x2="319" y1="285" y2="285"/><ellipse cx="186" cy="296" fill="none" rx="3" ry="3" style="stroke:#038048;stroke-width:1.0;"/><text fill="#000000" font-family="sans-serif" font-size="11" lengthAdjust="spacing" textLength="118" x="195" y="300.4189">double VENTOX_DRONE</text><ellipse cx="186" cy="309.8359" fill="none" rx="3" ry="3" style="stroke:#038048;stroke-width:1.0;"/><text fill="#000000" font-family="sans-serif" font-size="11" lengthAdjust="spacing" textLength="119" x="195" y="314.2549">double VENTOY_DRONE</text><line style="stroke:#A80036;stroke-width:1.5;" x1="176" x2="319" y1="320.6719" y2="320.6719"/><!--MD5=[d263d81c94bccf30cf8e9459c43f5d78]
link EstimarConsumoDroneTask to Constantes--><path codeLine="20" d="M247.5,193.01 C247.5,212.07 247.5,231.27 247.5,247.49 " fill="none" id="EstimarConsumoDroneTask-to-Constantes" style="stroke:#A80036;stroke-width:1.0;stroke-dasharray:7.0,7.0;"/><polygon fill="#A80036" points="247.5,252.88,251.5,243.88,247.5,247.88,243.5,243.88,247.5,252.88" style="stroke:#A80036;stroke-width:1.0;"/><!--MD5=[8294e87e4b79dfe3658e8c07df5e4144]
@startuml
class EstimarConsumoDroneTask {
    +static final double ACELERACAO_GRAVITICA
    +static final Drone droneEstimado
    +static final double ENTREGA_MASSA_ESTIMADA
    
    -double estimarConsumoPercurso(Drone drone, double massaEntrega, List<Morada> percurso)
    -double estimarConsumoSimples(Morada m1, Morada m2)
    -double estimarConsumoViagem(Drone drone, Morada m1, Morada m2, double massaEntrega)
    -double distanciaComVento(Drone drone, Morada m1, Morada m2)
    -double produtoEscalar(double[] vetor1, double[] vetor2)
    -double[] calcularVetor(double modulo, Morada m1, Morada m2)
    -double[] tempoDistanciaEntrega(Drone drone, List<Morada> percurso)
}

class Constantes {
    +double VENTOX_DRONE
    +double VENTOY_DRONE
}

EstimarConsumoDroneTask ..> Constantes

@enduml

PlantUML version 1.2021.00(Sun Jan 10 10:25:05 GMT 2021)
(GPL source distribution)
Java Runtime: OpenJDK Runtime Environment
JVM: OpenJDK 64-Bit Server VM
Default Encoding: Cp1252
Language: pt
Country: PT
--></g></svg>