<?xml version="1.0" encoding="UTF-8" standalone="no"?><svg xmlns="http://www.w3.org/2000/svg" xmlns:xlink="http://www.w3.org/1999/xlink" contentScriptType="application/ecmascript" contentStyleType="text/css" height="557px" preserveAspectRatio="none" style="width:505px;height:557px;" version="1.1" viewBox="0 0 505 557" width="505px" zoomAndPan="magnify"><defs><filter height="300%" id="f1dk5kkfqf7iqa" width="300%" x="-1" y="-1"><feGaussianBlur result="blurOut" stdDeviation="2.0"/><feColorMatrix in="blurOut" result="blurOut2" type="matrix" values="0 0 0 0 0 0 0 0 0 0 0 0 0 0 0 0 0 0 .4 0"/><feOffset dx="4.0" dy="4.0" in="blurOut2" result="blurOut3"/><feBlend in="SourceGraphic" in2="blurOut3" mode="normal"/></filter></defs><g><!--MD5=[6d3144f5c99bf51d6904d9fab883f6cc]
class WatchServiceFiles--><rect codeLine="1" fill="#FEFECE" filter="url(#f1dk5kkfqf7iqa)" height="61.8359" id="WatchServiceFiles" style="stroke:#A80036;stroke-width:1.5;" width="133" x="241.5" y="7"/><ellipse cx="256.5" cy="23" fill="#ADD1B2" rx="11" ry="11" style="stroke:#A80036;stroke-width:1.0;"/><path d="M258.5,19.5 Q258.7031,19 258.9375,18.75 Q259.1719,18.5 259.4375,18.5 Q259.9063,18.5 260.2031,18.7813 Q260.5,19.0625 260.5,19.7188 L260.5,21.2813 Q260.5,21.9375 260.2188,22.2188 Q259.9375,22.5 259.5,22.5 Q259.1094,22.5 258.8594,22.3281 Q258.6094,22.1563 258.5,21.7031 Q258.4531,21.3906 258.2813,21.2188 Q257.9688,20.8906 257.4063,20.7031 Q256.8438,20.5 256.2813,20.5 Q255.5781,20.5 254.9844,20.7813 Q254.4063,21.0625 253.9531,21.6875 Q253.5,22.3125 253.5,23.1719 L253.5,24.0938 Q253.5,25.125 254.3438,25.8125 Q255.1875,26.5 256.6875,26.5 Q257.5781,26.5 258.2031,26.2969 Q258.5625,26.1875 258.9688,25.8281 Q259.2344,25.625 259.375,25.5625 Q259.5156,25.5 259.6875,25.5 Q260.0156,25.5 260.25,25.7656 Q260.5,26.0156 260.5,26.375 Q260.5,26.7188 260.1563,27.125 Q259.6563,27.7188 258.8594,28.0469 Q257.8125,28.5 256.5313,28.5 Q255.0313,28.5 253.8281,27.9063 Q252.8594,27.4375 252.1719,26.4219 Q251.5,25.4063 251.5,24.2031 L251.5,23.1094 Q251.5,21.8594 252.0938,20.7656 Q252.7031,19.6719 253.75,19.0938 Q254.8125,18.5 256,18.5 Q256.7188,18.5 257.3438,18.75 Q257.9688,19 258.5,19.5 Z " fill="#000000"/><text fill="#000000" font-family="sans-serif" font-size="12" lengthAdjust="spacingAndGlyphs" textLength="101" x="270.5" y="27.9102">WatchServiceFiles</text><line style="stroke:#A80036;stroke-width:1.5;" x1="242.5" x2="373.5" y1="39" y2="39"/><line style="stroke:#A80036;stroke-width:1.5;" x1="242.5" x2="373.5" y1="47" y2="47"/><text fill="#000000" font-family="sans-serif" font-size="11" lengthAdjust="spacingAndGlyphs" textLength="47" x="247.5" y="62.4189">void run()</text><!--MD5=[228e43564979131596562d92b333dc82]
class EnviarEmailSegurançaTask--><rect codeLine="4" fill="#FEFECE" filter="url(#f1dk5kkfqf7iqa)" height="61.8359" id="EnviarEmailSegurançaTask" style="stroke:#A80036;stroke-width:1.5;" width="185" x="215.5" y="129"/><ellipse cx="230.5" cy="145" fill="#ADD1B2" rx="11" ry="11" style="stroke:#A80036;stroke-width:1.0;"/><path d="M232.5,141.5 Q232.7031,141 232.9375,140.75 Q233.1719,140.5 233.4375,140.5 Q233.9063,140.5 234.2031,140.7813 Q234.5,141.0625 234.5,141.7188 L234.5,143.2813 Q234.5,143.9375 234.2188,144.2188 Q233.9375,144.5 233.5,144.5 Q233.1094,144.5 232.8594,144.3281 Q232.6094,144.1563 232.5,143.7031 Q232.4531,143.3906 232.2813,143.2188 Q231.9688,142.8906 231.4063,142.7031 Q230.8438,142.5 230.2813,142.5 Q229.5781,142.5 228.9844,142.7813 Q228.4063,143.0625 227.9531,143.6875 Q227.5,144.3125 227.5,145.1719 L227.5,146.0938 Q227.5,147.125 228.3438,147.8125 Q229.1875,148.5 230.6875,148.5 Q231.5781,148.5 232.2031,148.2969 Q232.5625,148.1875 232.9688,147.8281 Q233.2344,147.625 233.375,147.5625 Q233.5156,147.5 233.6875,147.5 Q234.0156,147.5 234.25,147.7656 Q234.5,148.0156 234.5,148.375 Q234.5,148.7188 234.1563,149.125 Q233.6563,149.7188 232.8594,150.0469 Q231.8125,150.5 230.5313,150.5 Q229.0313,150.5 227.8281,149.9063 Q226.8594,149.4375 226.1719,148.4219 Q225.5,147.4063 225.5,146.2031 L225.5,145.1094 Q225.5,143.8594 226.0938,142.7656 Q226.7031,141.6719 227.75,141.0938 Q228.8125,140.5 230,140.5 Q230.7188,140.5 231.3438,140.75 Q231.9688,141 232.5,141.5 Z " fill="#000000"/><text fill="#000000" font-family="sans-serif" font-size="12" lengthAdjust="spacingAndGlyphs" textLength="153" x="244.5" y="149.9102">EnviarEmailSegurançaTask</text><line style="stroke:#A80036;stroke-width:1.5;" x1="216.5" x2="399.5" y1="161" y2="161"/><line style="stroke:#A80036;stroke-width:1.5;" x1="216.5" x2="399.5" y1="169" y2="169"/><text fill="#000000" font-family="sans-serif" font-size="11" lengthAdjust="spacingAndGlyphs" textLength="120" x="221.5" y="184.4189">void sendEmail(fileName)</text><!--MD5=[d80f71a20ad5bc844207fdd4e8cd5494]
class FileReader--><rect codeLine="8" fill="#FEFECE" filter="url(#f1dk5kkfqf7iqa)" height="61.8359" id="FileReader" style="stroke:#A80036;stroke-width:1.5;" width="111" x="252.5" y="251"/><ellipse cx="275.6" cy="267" fill="#ADD1B2" rx="11" ry="11" style="stroke:#A80036;stroke-width:1.0;"/><path d="M277.6,263.5 Q277.8031,263 278.0375,262.75 Q278.2719,262.5 278.5375,262.5 Q279.0063,262.5 279.3031,262.7813 Q279.6,263.0625 279.6,263.7188 L279.6,265.2813 Q279.6,265.9375 279.3188,266.2188 Q279.0375,266.5 278.6,266.5 Q278.2094,266.5 277.9594,266.3281 Q277.7094,266.1563 277.6,265.7031 Q277.5531,265.3906 277.3813,265.2188 Q277.0688,264.8906 276.5063,264.7031 Q275.9438,264.5 275.3813,264.5 Q274.6781,264.5 274.0844,264.7813 Q273.5063,265.0625 273.0531,265.6875 Q272.6,266.3125 272.6,267.1719 L272.6,268.0938 Q272.6,269.125 273.4438,269.8125 Q274.2875,270.5 275.7875,270.5 Q276.6781,270.5 277.3031,270.2969 Q277.6625,270.1875 278.0688,269.8281 Q278.3344,269.625 278.475,269.5625 Q278.6156,269.5 278.7875,269.5 Q279.1156,269.5 279.35,269.7656 Q279.6,270.0156 279.6,270.375 Q279.6,270.7188 279.2563,271.125 Q278.7563,271.7188 277.9594,272.0469 Q276.9125,272.5 275.6313,272.5 Q274.1313,272.5 272.9281,271.9063 Q271.9594,271.4375 271.2719,270.4219 Q270.6,269.4063 270.6,268.2031 L270.6,267.1094 Q270.6,265.8594 271.1938,264.7656 Q271.8031,263.6719 272.85,263.0938 Q273.9125,262.5 275.1,262.5 Q275.8188,262.5 276.4438,262.75 Q277.0688,263 277.6,263.5 Z " fill="#000000"/><text fill="#000000" font-family="sans-serif" font-size="12" lengthAdjust="spacingAndGlyphs" textLength="61" x="291.4" y="271.9102">FileReader</text><line style="stroke:#A80036;stroke-width:1.5;" x1="253.5" x2="362.5" y1="283" y2="283"/><line style="stroke:#A80036;stroke-width:1.5;" x1="253.5" x2="362.5" y1="291" y2="291"/><text fill="#000000" font-family="sans-serif" font-size="11" lengthAdjust="spacingAndGlyphs" textLength="99" x="258.5" y="306.4189">Pair lockFileReader()</text><!--MD5=[24f7645889abd6047ad6d0f9f8bd9509]
class ScooterBD--><rect codeLine="11" fill="#FEFECE" filter="url(#f1dk5kkfqf7iqa)" height="61.8359" id="ScooterBD" style="stroke:#A80036;stroke-width:1.5;" width="172" x="7" y="373"/><ellipse cx="59.25" cy="389" fill="#ADD1B2" rx="11" ry="11" style="stroke:#A80036;stroke-width:1.0;"/><path d="M61.25,385.5 Q61.4531,385 61.6875,384.75 Q61.9219,384.5 62.1875,384.5 Q62.6563,384.5 62.9531,384.7813 Q63.25,385.0625 63.25,385.7188 L63.25,387.2813 Q63.25,387.9375 62.9688,388.2188 Q62.6875,388.5 62.25,388.5 Q61.8594,388.5 61.6094,388.3281 Q61.3594,388.1563 61.25,387.7031 Q61.2031,387.3906 61.0313,387.2188 Q60.7188,386.8906 60.1563,386.7031 Q59.5938,386.5 59.0313,386.5 Q58.3281,386.5 57.7344,386.7813 Q57.1563,387.0625 56.7031,387.6875 Q56.25,388.3125 56.25,389.1719 L56.25,390.0938 Q56.25,391.125 57.0938,391.8125 Q57.9375,392.5 59.4375,392.5 Q60.3281,392.5 60.9531,392.2969 Q61.3125,392.1875 61.7188,391.8281 Q61.9844,391.625 62.125,391.5625 Q62.2656,391.5 62.4375,391.5 Q62.7656,391.5 63,391.7656 Q63.25,392.0156 63.25,392.375 Q63.25,392.7188 62.9063,393.125 Q62.4063,393.7188 61.6094,394.0469 Q60.5625,394.5 59.2813,394.5 Q57.7813,394.5 56.5781,393.9063 Q55.6094,393.4375 54.9219,392.4219 Q54.25,391.4063 54.25,390.2031 L54.25,389.1094 Q54.25,387.8594 54.8438,386.7656 Q55.4531,385.6719 56.5,385.0938 Q57.5625,384.5 58.75,384.5 Q59.4688,384.5 60.0938,384.75 Q60.7188,385 61.25,385.5 Z " fill="#000000"/><text fill="#000000" font-family="sans-serif" font-size="12" lengthAdjust="spacingAndGlyphs" textLength="59" x="79.75" y="393.9102">ScooterBD</text><line style="stroke:#A80036;stroke-width:1.5;" x1="8" x2="178" y1="405" y2="405"/><line style="stroke:#A80036;stroke-width:1.5;" x1="8" x2="178" y1="413" y2="413"/><text fill="#000000" font-family="sans-serif" font-size="11" lengthAdjust="spacingAndGlyphs" textLength="160" x="13" y="428.4189">String getScooterByID(idScooter)</text><!--MD5=[f78d482765dab3bfec878498523110ae]
class EstafetaBD--><rect codeLine="14" fill="#FEFECE" filter="url(#f1dk5kkfqf7iqa)" height="61.8359" id="EstafetaBD" style="stroke:#A80036;stroke-width:1.5;" width="187" x="214.5" y="373"/><ellipse cx="272.75" cy="389" fill="#ADD1B2" rx="11" ry="11" style="stroke:#A80036;stroke-width:1.0;"/><path d="M274.75,385.5 Q274.9531,385 275.1875,384.75 Q275.4219,384.5 275.6875,384.5 Q276.1563,384.5 276.4531,384.7813 Q276.75,385.0625 276.75,385.7188 L276.75,387.2813 Q276.75,387.9375 276.4688,388.2188 Q276.1875,388.5 275.75,388.5 Q275.3594,388.5 275.1094,388.3281 Q274.8594,388.1563 274.75,387.7031 Q274.7031,387.3906 274.5313,387.2188 Q274.2188,386.8906 273.6563,386.7031 Q273.0938,386.5 272.5313,386.5 Q271.8281,386.5 271.2344,386.7813 Q270.6563,387.0625 270.2031,387.6875 Q269.75,388.3125 269.75,389.1719 L269.75,390.0938 Q269.75,391.125 270.5938,391.8125 Q271.4375,392.5 272.9375,392.5 Q273.8281,392.5 274.4531,392.2969 Q274.8125,392.1875 275.2188,391.8281 Q275.4844,391.625 275.625,391.5625 Q275.7656,391.5 275.9375,391.5 Q276.2656,391.5 276.5,391.7656 Q276.75,392.0156 276.75,392.375 Q276.75,392.7188 276.4063,393.125 Q275.9063,393.7188 275.1094,394.0469 Q274.0625,394.5 272.7813,394.5 Q271.2813,394.5 270.0781,393.9063 Q269.1094,393.4375 268.4219,392.4219 Q267.75,391.4063 267.75,390.2031 L267.75,389.1094 Q267.75,387.8594 268.3438,386.7656 Q268.9531,385.6719 270,385.0938 Q271.0625,384.5 272.25,384.5 Q272.9688,384.5 273.5938,384.75 Q274.2188,385 274.75,385.5 Z " fill="#000000"/><text fill="#000000" font-family="sans-serif" font-size="12" lengthAdjust="spacingAndGlyphs" textLength="62" x="293.25" y="393.9102">EstafetaBD</text><line style="stroke:#A80036;stroke-width:1.5;" x1="215.5" x2="400.5" y1="405" y2="405"/><line style="stroke:#A80036;stroke-width:1.5;" x1="215.5" x2="400.5" y1="413" y2="413"/><text fill="#000000" font-family="sans-serif" font-size="11" lengthAdjust="spacingAndGlyphs" textLength="175" x="220.5" y="428.4189">Estafeta getEstafetaById(idEstafeta)</text><!--MD5=[3f1202280bfe3359d2f91fb9b6e32986]
class Estafeta--><rect fill="#FEFECE" filter="url(#f1dk5kkfqf7iqa)" height="48" id="Estafeta" style="stroke:#A80036;stroke-width:1.5;" width="77" x="269.5" y="495"/><ellipse cx="284.5" cy="511" fill="#ADD1B2" rx="11" ry="11" style="stroke:#A80036;stroke-width:1.0;"/><path d="M286.5,507.5 Q286.7031,507 286.9375,506.75 Q287.1719,506.5 287.4375,506.5 Q287.9063,506.5 288.2031,506.7813 Q288.5,507.0625 288.5,507.7188 L288.5,509.2813 Q288.5,509.9375 288.2188,510.2188 Q287.9375,510.5 287.5,510.5 Q287.1094,510.5 286.8594,510.3281 Q286.6094,510.1563 286.5,509.7031 Q286.4531,509.3906 286.2813,509.2188 Q285.9688,508.8906 285.4063,508.7031 Q284.8438,508.5 284.2813,508.5 Q283.5781,508.5 282.9844,508.7813 Q282.4063,509.0625 281.9531,509.6875 Q281.5,510.3125 281.5,511.1719 L281.5,512.0938 Q281.5,513.125 282.3438,513.8125 Q283.1875,514.5 284.6875,514.5 Q285.5781,514.5 286.2031,514.2969 Q286.5625,514.1875 286.9688,513.8281 Q287.2344,513.625 287.375,513.5625 Q287.5156,513.5 287.6875,513.5 Q288.0156,513.5 288.25,513.7656 Q288.5,514.0156 288.5,514.375 Q288.5,514.7188 288.1563,515.125 Q287.6563,515.7188 286.8594,516.0469 Q285.8125,516.5 284.5313,516.5 Q283.0313,516.5 281.8281,515.9063 Q280.8594,515.4375 280.1719,514.4219 Q279.5,513.4063 279.5,512.2031 L279.5,511.1094 Q279.5,509.8594 280.0938,508.7656 Q280.7031,507.6719 281.75,507.0938 Q282.8125,506.5 284,506.5 Q284.7188,506.5 285.3438,506.75 Q285.9688,507 286.5,507.5 Z " fill="#000000"/><text fill="#000000" font-family="sans-serif" font-size="12" lengthAdjust="spacingAndGlyphs" textLength="45" x="298.5" y="515.9102">Estafeta</text><line style="stroke:#A80036;stroke-width:1.5;" x1="270.5" x2="345.5" y1="527" y2="527"/><line style="stroke:#A80036;stroke-width:1.5;" x1="270.5" x2="345.5" y1="535" y2="535"/><!--MD5=[220f5f32351d35cc72380e3951491ed2]
class Pair--><rect fill="#FEFECE" filter="url(#f1dk5kkfqf7iqa)" height="48" id="Pair" style="stroke:#A80036;stroke-width:1.5;" width="54" x="437" y="380"/><ellipse cx="452" cy="396" fill="#ADD1B2" rx="11" ry="11" style="stroke:#A80036;stroke-width:1.0;"/><path d="M454,392.5 Q454.2031,392 454.4375,391.75 Q454.6719,391.5 454.9375,391.5 Q455.4063,391.5 455.7031,391.7813 Q456,392.0625 456,392.7188 L456,394.2813 Q456,394.9375 455.7188,395.2188 Q455.4375,395.5 455,395.5 Q454.6094,395.5 454.3594,395.3281 Q454.1094,395.1563 454,394.7031 Q453.9531,394.3906 453.7813,394.2188 Q453.4688,393.8906 452.9063,393.7031 Q452.3438,393.5 451.7813,393.5 Q451.0781,393.5 450.4844,393.7813 Q449.9063,394.0625 449.4531,394.6875 Q449,395.3125 449,396.1719 L449,397.0938 Q449,398.125 449.8438,398.8125 Q450.6875,399.5 452.1875,399.5 Q453.0781,399.5 453.7031,399.2969 Q454.0625,399.1875 454.4688,398.8281 Q454.7344,398.625 454.875,398.5625 Q455.0156,398.5 455.1875,398.5 Q455.5156,398.5 455.75,398.7656 Q456,399.0156 456,399.375 Q456,399.7188 455.6563,400.125 Q455.1563,400.7188 454.3594,401.0469 Q453.3125,401.5 452.0313,401.5 Q450.5313,401.5 449.3281,400.9063 Q448.3594,400.4375 447.6719,399.4219 Q447,398.4063 447,397.2031 L447,396.1094 Q447,394.8594 447.5938,393.7656 Q448.2031,392.6719 449.25,392.0938 Q450.3125,391.5 451.5,391.5 Q452.2188,391.5 452.8438,391.75 Q453.4688,392 454,392.5 Z " fill="#000000"/><text fill="#000000" font-family="sans-serif" font-size="12" lengthAdjust="spacingAndGlyphs" textLength="22" x="466" y="400.9102">Pair</text><line style="stroke:#A80036;stroke-width:1.5;" x1="438" x2="490" y1="412" y2="412"/><line style="stroke:#A80036;stroke-width:1.5;" x1="438" x2="490" y1="420" y2="420"/><!--MD5=[c4fc77bdaf33f9851c070e63db3aa62d]
link WatchServiceFiles to EnviarEmailSegurançaTask--><path codeLine="18" d="M308,69.28 C308,85.77 308,106.26 308,123.49 " fill="none" id="WatchServiceFiles-to-EnviarEmailSegurançaTask" style="stroke:#A80036;stroke-width:1.0;stroke-dasharray:7.0,7.0;"/><polygon fill="#A80036" points="308,128.73,312,119.73,308,123.73,304,119.73,308,128.73" style="stroke:#A80036;stroke-width:1.0;"/><!--MD5=[6b75030fe3aff1da8e24f86d3b99ee94]
link EnviarEmailSegurançaTask to FileReader--><path codeLine="19" d="M308,191.28 C308,207.77 308,228.26 308,245.49 " fill="none" id="EnviarEmailSegurançaTask-to-FileReader" style="stroke:#A80036;stroke-width:1.0;stroke-dasharray:7.0,7.0;"/><polygon fill="#A80036" points="308,250.73,312,241.73,308,245.73,304,241.73,308,250.73" style="stroke:#A80036;stroke-width:1.0;"/><!--MD5=[b593b6d53bee812a2e90896549837e8f]
link FileReader to ScooterBD--><path codeLine="20" d="M254.02,313.13 C222.84,330.53 183.6,352.43 151.66,370.26 " fill="none" id="FileReader-to-ScooterBD" style="stroke:#A80036;stroke-width:1.0;stroke-dasharray:7.0,7.0;"/><polygon fill="#A80036" points="147,372.86,156.8065,371.9477,151.3613,370.4148,152.8942,364.9696,147,372.86" style="stroke:#A80036;stroke-width:1.0;"/><!--MD5=[1034df4fddfd34479f93a6daff6d8b2c]
link FileReader to EstafetaBD--><path codeLine="21" d="M308,313.28 C308,329.77 308,350.26 308,367.49 " fill="none" id="FileReader-to-EstafetaBD" style="stroke:#A80036;stroke-width:1.0;stroke-dasharray:7.0,7.0;"/><polygon fill="#A80036" points="308,372.73,312,363.73,308,367.73,304,363.73,308,372.73" style="stroke:#A80036;stroke-width:1.0;"/><!--MD5=[ff6d34bbb533b6ac502c233c27fcf19c]
link EstafetaBD to Estafeta--><path codeLine="22" d="M308,435.28 C308,452.08 308,472.85 308,489.38 " fill="none" id="EstafetaBD-to-Estafeta" style="stroke:#A80036;stroke-width:1.0;stroke-dasharray:7.0,7.0;"/><polygon fill="#A80036" points="308,494.81,312,485.81,308,489.81,304,485.81,308,494.81" style="stroke:#A80036;stroke-width:1.0;"/><!--MD5=[541eaf52b3c9b0f135bef1b34f70cdf8]
link FileReader to Pair--><path codeLine="23" d="M347.37,313.28 C373.82,333.63 408.2,360.07 432.77,378.97 " fill="none" id="FileReader-to-Pair" style="stroke:#A80036;stroke-width:1.0;stroke-dasharray:7.0,7.0;"/><polygon fill="#A80036" points="436.93,382.17,432.2337,373.5129,432.9663,379.1221,427.3571,379.8548,436.93,382.17" style="stroke:#A80036;stroke-width:1.0;"/><!--MD5=[2a9e3c70a3d605faf30943e5109c7df3]
@startuml
class WatchServiceFiles{
void run()
}
class EnviarEmailSegurançaTask{
void sendEmail(fileName)
}

class FileReader{
Pair lockFileReader()
}
class ScooterBD{
String getScooterByID(idScooter)
}
class EstafetaBD{
Estafeta getEstafetaById(idEstafeta)
}

WatchServiceFiles..>EnviarEmailSegurançaTask
EnviarEmailSegurançaTask ..> FileReader
FileReader..>ScooterBD
FileReader..>EstafetaBD
EstafetaBD..>Estafeta
FileReader..>Pair
@enduml

PlantUML version 1.2020.23(Sun Dec 13 19:14:58 GMT 2020)
(GPL source distribution)
Java Runtime: OpenJDK Runtime Environment
JVM: OpenJDK 64-Bit Server VM
Default Encoding: Cp1252
Language: en
Country: GB
--></g></svg>