<?xml version="1.0" encoding="UTF-8" standalone="no"?><svg xmlns="http://www.w3.org/2000/svg" xmlns:xlink="http://www.w3.org/1999/xlink" contentScriptType="application/ecmascript" contentStyleType="text/css" height="573.1px" preserveAspectRatio="none" style="width:407px;height:573px;" version="1.1" viewBox="0 0 407 573" width="407px" zoomAndPan="magnify"><defs><filter height="300%" id="fmk5wwahzfk79" width="300%" x="-1" y="-1"><feGaussianBlur result="blurOut" stdDeviation="2.2"/><feColorMatrix in="blurOut" result="blurOut2" type="matrix" values="0 0 0 0 0 0 0 0 0 0 0 0 0 0 0 0 0 0 .4 0"/><feOffset dx="4.4" dy="4.4" in="blurOut2" result="blurOut3"/><feBlend in="SourceGraphic" in2="blurOut3" mode="normal"/></filter></defs><g><!--MD5=[16f0de8aa6fd60b6865188933511408c]
class VisualizarCatalogoUI--><rect fill="#FEFECE" filter="url(#fmk5wwahzfk79)" height="52.8" id="VisualizarCatalogoUI" style="stroke: #A80036; stroke-width: 1.6500000000000001;" width="161.7" x="54.45" y="8.8"/><ellipse cx="70.95" cy="26.4" fill="#ADD1B2" rx="12.1" ry="12.1" style="stroke: #A80036; stroke-width: 1.1;"/><path d="M73.15,22.55 Q73.3734,22 73.6313,21.725 Q73.8891,21.45 74.1813,21.45 Q74.6969,21.45 75.0234,21.7594 Q75.35,22.0688 75.35,22.7906 L75.35,24.5094 Q75.35,25.2313 75.0406,25.5406 Q74.7313,25.85 74.25,25.85 Q73.8203,25.85 73.5453,25.6609 Q73.2703,25.4719 73.15,24.9734 Q73.0984,24.6297 72.9094,24.4406 Q72.5656,24.0797 71.9469,23.8734 Q71.3281,23.65 70.7094,23.65 Q69.9359,23.65 69.2828,23.9594 Q68.6469,24.2688 68.1484,24.9563 Q67.65,25.6438 67.65,26.5891 L67.65,27.6031 Q67.65,28.7375 68.5781,29.4938 Q69.5063,30.25 71.1563,30.25 Q72.1359,30.25 72.8234,30.0266 Q73.2188,29.9063 73.6656,29.5109 Q73.9578,29.2875 74.1125,29.2188 Q74.2672,29.15 74.4563,29.15 Q74.8172,29.15 75.075,29.4422 Q75.35,29.7172 75.35,30.1125 Q75.35,30.4906 74.9719,30.9375 Q74.4219,31.5906 73.5453,31.9516 Q72.3938,32.45 70.9844,32.45 Q69.3344,32.45 68.0109,31.7969 Q66.9453,31.2813 66.1891,30.1641 Q65.45,29.0469 65.45,27.7234 L65.45,26.5203 Q65.45,25.1453 66.1031,23.9422 Q66.7734,22.7391 67.925,22.1031 Q69.0938,21.45 70.4,21.45 Q71.1906,21.45 71.8781,21.725 Q72.5656,22 73.15,22.55 Z "/><text fill="#000000" font-family="sans-serif" font-size="13.2" lengthAdjust="spacingAndGlyphs" textLength="126.5" x="86.35" y="31.8012">VisualizarCatalogoUI</text><line style="stroke: #A80036; stroke-width: 1.6500000000000001;" x1="55.55" x2="215.05" y1="44" y2="44"/><line style="stroke: #A80036; stroke-width: 1.6500000000000001;" x1="55.55" x2="215.05" y1="52.8" y2="52.8"/><!--MD5=[38d4733663b97573cc467d118d673129]
class VisualizarCatalogoController--><rect fill="#FEFECE" filter="url(#fmk5wwahzfk79)" height="113.6781" id="VisualizarCatalogoController" style="stroke: #A80036; stroke-width: 1.6500000000000001;" width="231" x="19.8" y="128.7"/><ellipse cx="46.695" cy="146.3" fill="#ADD1B2" rx="12.1" ry="12.1" style="stroke: #A80036; stroke-width: 1.1;"/><path d="M48.895,142.45 Q49.1184,141.9 49.3763,141.625 Q49.6341,141.35 49.9263,141.35 Q50.4419,141.35 50.7684,141.6594 Q51.095,141.9688 51.095,142.6906 L51.095,144.4094 Q51.095,145.1313 50.7856,145.4406 Q50.4763,145.75 49.995,145.75 Q49.5653,145.75 49.2903,145.5609 Q49.0153,145.3719 48.895,144.8734 Q48.8434,144.5297 48.6544,144.3406 Q48.3106,143.9797 47.6919,143.7734 Q47.0731,143.55 46.4544,143.55 Q45.6809,143.55 45.0278,143.8594 Q44.3919,144.1688 43.8934,144.8563 Q43.395,145.5438 43.395,146.4891 L43.395,147.5031 Q43.395,148.6375 44.3231,149.3938 Q45.2513,150.15 46.9013,150.15 Q47.8809,150.15 48.5684,149.9266 Q48.9638,149.8063 49.4106,149.4109 Q49.7028,149.1875 49.8575,149.1188 Q50.0122,149.05 50.2013,149.05 Q50.5622,149.05 50.82,149.3422 Q51.095,149.6172 51.095,150.0125 Q51.095,150.3906 50.7169,150.8375 Q50.1669,151.4906 49.2903,151.8516 Q48.1388,152.35 46.7294,152.35 Q45.0794,152.35 43.7559,151.6969 Q42.6903,151.1813 41.9341,150.0641 Q41.195,148.9469 41.195,147.6234 L41.195,146.4203 Q41.195,145.0453 41.8481,143.8422 Q42.5184,142.6391 43.67,142.0031 Q44.8388,141.35 46.145,141.35 Q46.9356,141.35 47.6231,141.625 Q48.3106,141.9 48.895,142.45 Z "/><text fill="#000000" font-family="sans-serif" font-size="13.2" lengthAdjust="spacingAndGlyphs" textLength="172.7" x="64.405" y="151.7012">VisualizarCatalogoController</text><line style="stroke: #A80036; stroke-width: 1.6500000000000001;" x1="20.9" x2="249.7" y1="163.9" y2="163.9"/><rect fill="none" height="6.6" style="stroke: #C82930; stroke-width: 1.1;" width="6.6" x="28.6" y="172.7"/><text fill="#000000" font-family="sans-serif" font-size="12.1" lengthAdjust="spacingAndGlyphs" textLength="147.4" x="41.8" y="180.8608">List&lt;Produto&gt; listaProdutos;</text><rect fill="none" height="6.6" style="stroke: #C82930; stroke-width: 1.1;" width="6.6" x="28.6" y="187.9195"/><text fill="#000000" font-family="sans-serif" font-size="12.1" lengthAdjust="spacingAndGlyphs" textLength="118.8" x="41.8" y="196.0804">ProdutoBD produtoBD;</text><line style="stroke: #A80036; stroke-width: 1.6500000000000001;" x1="20.9" x2="249.7" y1="203.1391" y2="203.1391"/><ellipse cx="31.9" cy="215.2391" fill="#84BE84" rx="3.3" ry="3.3" style="stroke: #038048; stroke-width: 1.1;"/><text fill="#000000" font-family="sans-serif" font-size="12.1" lengthAdjust="spacingAndGlyphs" textLength="202.4" x="41.8" y="220.0999">ArrayList&lt;String&gt; getTodosProdutos()</text><ellipse cx="31.9" cy="230.4586" fill="#84BE84" rx="3.3" ry="3.3" style="stroke: #038048; stroke-width: 1.1;"/><text fill="#000000" font-family="sans-serif" font-size="12.1" lengthAdjust="spacingAndGlyphs" textLength="196.9" x="41.8" y="235.3194">setProdutoBD(ProdutoBD produtoBD)</text><!--MD5=[6613c9cd406ef433ff06f5e98b28abd9]
class Farmacia--><rect fill="#FEFECE" filter="url(#fmk5wwahzfk79)" height="52.8" id="Farmacia" style="stroke: #A80036; stroke-width: 1.6500000000000001;" width="92.4" x="302.5" y="324.5"/><ellipse cx="319" cy="342.1" fill="#ADD1B2" rx="12.1" ry="12.1" style="stroke: #A80036; stroke-width: 1.1;"/><path d="M321.2,338.25 Q321.4234,337.7 321.6813,337.425 Q321.9391,337.15 322.2313,337.15 Q322.7469,337.15 323.0734,337.4594 Q323.4,337.7688 323.4,338.4906 L323.4,340.2094 Q323.4,340.9313 323.0906,341.2406 Q322.7813,341.55 322.3,341.55 Q321.8703,341.55 321.5953,341.3609 Q321.3203,341.1719 321.2,340.6734 Q321.1484,340.3297 320.9594,340.1406 Q320.6156,339.7797 319.9969,339.5734 Q319.3781,339.35 318.7594,339.35 Q317.9859,339.35 317.3328,339.6594 Q316.6969,339.9688 316.1984,340.6563 Q315.7,341.3438 315.7,342.2891 L315.7,343.3031 Q315.7,344.4375 316.6281,345.1938 Q317.5563,345.95 319.2063,345.95 Q320.1859,345.95 320.8734,345.7266 Q321.2688,345.6063 321.7156,345.2109 Q322.0078,344.9875 322.1625,344.9188 Q322.3172,344.85 322.5063,344.85 Q322.8672,344.85 323.125,345.1422 Q323.4,345.4172 323.4,345.8125 Q323.4,346.1906 323.0219,346.6375 Q322.4719,347.2906 321.5953,347.6516 Q320.4438,348.15 319.0344,348.15 Q317.3844,348.15 316.0609,347.4969 Q314.9953,346.9813 314.2391,345.8641 Q313.5,344.7469 313.5,343.4234 L313.5,342.2203 Q313.5,340.8453 314.1531,339.6422 Q314.8234,338.4391 315.975,337.8031 Q317.1438,337.15 318.45,337.15 Q319.2406,337.15 319.9281,337.425 Q320.6156,337.7 321.2,338.25 Z "/><text fill="#000000" font-family="sans-serif" font-size="13.2" lengthAdjust="spacingAndGlyphs" textLength="57.2" x="334.4" y="347.5012">Farmacia</text><line style="stroke: #A80036; stroke-width: 1.6500000000000001;" x1="303.6" x2="393.8" y1="359.7" y2="359.7"/><line style="stroke: #A80036; stroke-width: 1.6500000000000001;" x1="303.6" x2="393.8" y1="368.5" y2="368.5"/><!--MD5=[d4dacc50d49878ba7c621dfc80a2e1ce]
class Produto--><rect fill="#FEFECE" filter="url(#fmk5wwahzfk79)" height="52.8" id="Produto" style="stroke: #A80036; stroke-width: 1.6500000000000001;" width="82.5" x="284.35" y="493.9"/><ellipse cx="300.85" cy="511.5" fill="#ADD1B2" rx="12.1" ry="12.1" style="stroke: #A80036; stroke-width: 1.1;"/><path d="M303.05,507.65 Q303.2734,507.1 303.5313,506.825 Q303.7891,506.55 304.0813,506.55 Q304.5969,506.55 304.9234,506.8594 Q305.25,507.1688 305.25,507.8906 L305.25,509.6094 Q305.25,510.3313 304.9406,510.6406 Q304.6313,510.95 304.15,510.95 Q303.7203,510.95 303.4453,510.7609 Q303.1703,510.5719 303.05,510.0734 Q302.9984,509.7297 302.8094,509.5406 Q302.4656,509.1797 301.8469,508.9734 Q301.2281,508.75 300.6094,508.75 Q299.8359,508.75 299.1828,509.0594 Q298.5469,509.3688 298.0484,510.0563 Q297.55,510.7438 297.55,511.6891 L297.55,512.7031 Q297.55,513.8375 298.4781,514.5938 Q299.4063,515.35 301.0563,515.35 Q302.0359,515.35 302.7234,515.1266 Q303.1188,515.0063 303.5656,514.6109 Q303.8578,514.3875 304.0125,514.3188 Q304.1672,514.25 304.3563,514.25 Q304.7172,514.25 304.975,514.5422 Q305.25,514.8172 305.25,515.2125 Q305.25,515.5906 304.8719,516.0375 Q304.3219,516.6906 303.4453,517.0516 Q302.2938,517.55 300.8844,517.55 Q299.2344,517.55 297.9109,516.8969 Q296.8453,516.3813 296.0891,515.2641 Q295.35,514.1469 295.35,512.8234 L295.35,511.6203 Q295.35,510.2453 296.0031,509.0422 Q296.6734,507.8391 297.825,507.2031 Q298.9938,506.55 300.3,506.55 Q301.0906,506.55 301.7781,506.825 Q302.4656,507.1 303.05,507.65 Z "/><text fill="#000000" font-family="sans-serif" font-size="13.2" lengthAdjust="spacingAndGlyphs" textLength="47.3" x="316.25" y="516.9012">Produto</text><line style="stroke: #A80036; stroke-width: 1.6500000000000001;" x1="285.45" x2="365.75" y1="529.1" y2="529.1"/><line style="stroke: #A80036; stroke-width: 1.6500000000000001;" x1="285.45" x2="365.75" y1="537.9" y2="537.9"/><!--MD5=[9c5439856a1aad23e042de9a355b14cb]
class BaseDados--><rect fill="#FEFECE" filter="url(#fmk5wwahzfk79)" height="83.2391" id="BaseDados" style="stroke: #A80036; stroke-width: 1.6500000000000001;" width="176" x="47.3" y="478.5"/><ellipse cx="94.49" cy="496.1" fill="#ADD1B2" rx="12.1" ry="12.1" style="stroke: #A80036; stroke-width: 1.1;"/><path d="M96.69,492.25 Q96.9134,491.7 97.1713,491.425 Q97.4291,491.15 97.7213,491.15 Q98.2369,491.15 98.5634,491.4594 Q98.89,491.7688 98.89,492.4906 L98.89,494.2094 Q98.89,494.9313 98.5806,495.2406 Q98.2713,495.55 97.79,495.55 Q97.3603,495.55 97.0853,495.3609 Q96.8103,495.1719 96.69,494.6734 Q96.6384,494.3297 96.4494,494.1406 Q96.1056,493.7797 95.4869,493.5734 Q94.8681,493.35 94.2494,493.35 Q93.4759,493.35 92.8228,493.6594 Q92.1869,493.9688 91.6884,494.6563 Q91.19,495.3438 91.19,496.2891 L91.19,497.3031 Q91.19,498.4375 92.1181,499.1938 Q93.0463,499.95 94.6963,499.95 Q95.6759,499.95 96.3634,499.7266 Q96.7588,499.6063 97.2056,499.2109 Q97.4978,498.9875 97.6525,498.9188 Q97.8072,498.85 97.9963,498.85 Q98.3572,498.85 98.615,499.1422 Q98.89,499.4172 98.89,499.8125 Q98.89,500.1906 98.5119,500.6375 Q97.9619,501.2906 97.0853,501.6516 Q95.9338,502.15 94.5244,502.15 Q92.8744,502.15 91.5509,501.4969 Q90.4853,500.9813 89.7291,499.8641 Q88.99,498.7469 88.99,497.4234 L88.99,496.2203 Q88.99,494.8453 89.6431,493.6422 Q90.3134,492.4391 91.465,491.8031 Q92.6338,491.15 93.94,491.15 Q94.7306,491.15 95.4181,491.425 Q96.1056,491.7 96.69,492.25 Z "/><text fill="#000000" font-family="sans-serif" font-size="13.2" lengthAdjust="spacingAndGlyphs" textLength="72.6" x="116.71" y="501.5012">BaseDados</text><line style="stroke: #A80036; stroke-width: 1.6500000000000001;" x1="48.4" x2="222.2" y1="513.7" y2="513.7"/><line style="stroke: #A80036; stroke-width: 1.6500000000000001;" x1="48.4" x2="222.2" y1="522.5" y2="522.5"/><ellipse cx="59.4" cy="534.6" fill="#84BE84" rx="3.3" ry="3.3" style="stroke: #038048; stroke-width: 1.1;"/><text fill="#000000" font-family="sans-serif" font-size="12.1" lengthAdjust="spacingAndGlyphs" textLength="147.4" x="69.3" y="539.4608">Connection getConnection()</text><ellipse cx="59.4" cy="549.8195" fill="#84BE84" rx="3.3" ry="3.3" style="stroke: #038048; stroke-width: 1.1;"/><text fill="#000000" font-family="sans-serif" font-size="12.1" lengthAdjust="spacingAndGlyphs" textLength="130.9" x="69.3" y="554.6804">String closeConnection()</text><!--MD5=[a84bd072b68d9b7b1d264a150fd20f17]
class ProdutoBD--><rect fill="#FEFECE" filter="url(#fmk5wwahzfk79)" height="83.2391" id="ProdutoBD" style="stroke: #A80036; stroke-width: 1.6500000000000001;" width="257.4" x="6.6" y="309.1"/><ellipse cx="97.625" cy="326.7" fill="#ADD1B2" rx="12.1" ry="12.1" style="stroke: #A80036; stroke-width: 1.1;"/><path d="M99.825,322.85 Q100.0484,322.3 100.3063,322.025 Q100.5641,321.75 100.8563,321.75 Q101.3719,321.75 101.6984,322.0594 Q102.025,322.3688 102.025,323.0906 L102.025,324.8094 Q102.025,325.5313 101.7156,325.8406 Q101.4063,326.15 100.925,326.15 Q100.4953,326.15 100.2203,325.9609 Q99.9453,325.7719 99.825,325.2734 Q99.7734,324.9297 99.5844,324.7406 Q99.2406,324.3797 98.6219,324.1734 Q98.0031,323.95 97.3844,323.95 Q96.6109,323.95 95.9578,324.2594 Q95.3219,324.5688 94.8234,325.2563 Q94.325,325.9438 94.325,326.8891 L94.325,327.9031 Q94.325,329.0375 95.2531,329.7938 Q96.1813,330.55 97.8313,330.55 Q98.8109,330.55 99.4984,330.3266 Q99.8938,330.2063 100.3406,329.8109 Q100.6328,329.5875 100.7875,329.5188 Q100.9422,329.45 101.1313,329.45 Q101.4922,329.45 101.75,329.7422 Q102.025,330.0172 102.025,330.4125 Q102.025,330.7906 101.6469,331.2375 Q101.0969,331.8906 100.2203,332.2516 Q99.0688,332.75 97.6594,332.75 Q96.0094,332.75 94.6859,332.0969 Q93.6203,331.5813 92.8641,330.4641 Q92.125,329.3469 92.125,328.0234 L92.125,326.8203 Q92.125,325.4453 92.7781,324.2422 Q93.4484,323.0391 94.6,322.4031 Q95.7688,321.75 97.075,321.75 Q97.8656,321.75 98.5531,322.025 Q99.2406,322.3 99.825,322.85 Z "/><text fill="#000000" font-family="sans-serif" font-size="13.2" lengthAdjust="spacingAndGlyphs" textLength="66" x="120.175" y="332.1012">ProdutoBD</text><line style="stroke: #A80036; stroke-width: 1.6500000000000001;" x1="7.7" x2="262.9" y1="344.3" y2="344.3"/><line style="stroke: #A80036; stroke-width: 1.6500000000000001;" x1="7.7" x2="262.9" y1="353.1" y2="353.1"/><ellipse cx="18.7" cy="365.2" fill="#84BE84" rx="3.3" ry="3.3" style="stroke: #038048; stroke-width: 1.1;"/><text fill="#000000" font-family="sans-serif" font-size="12.1" lengthAdjust="spacingAndGlyphs" textLength="212.3" x="28.6" y="370.0608">ArrayList&lt;Produto&gt; getTodosProdutos()</text><ellipse cx="18.7" cy="380.4195" fill="#84BE84" rx="3.3" ry="3.3" style="stroke: #038048; stroke-width: 1.1;"/><text fill="#000000" font-family="sans-serif" font-size="12.1" lengthAdjust="spacingAndGlyphs" textLength="228.8" x="28.6" y="385.2804">List&lt;Produto&gt; getProdutoByFarmacia(int id)</text><!--MD5=[db4a5ac14aaeb2d946b80db0d46ff947]
link Farmacia to Produto--><path d="M345.1921,377.3946 C341.1045,406.9791 334.3494,455.87 329.9373,487.809 " fill="none" id="Farmacia-&gt;Produto" style="stroke: #A80036; stroke-width: 1.1;"/><polygon fill="#A80036" points="329.1409,493.5669,334.8547,484.3624,329.8938,488.1187,326.1375,483.1578,329.1409,493.5669" style="stroke: #A80036; stroke-width: 1.1;"/><text fill="#000000" font-family="sans-serif" font-size="14.3" lengthAdjust="spacingAndGlyphs" textLength="41.8" x="338.8" y="441.6446">possui</text><text fill="#000000" font-family="sans-serif" font-size="14.3" lengthAdjust="spacingAndGlyphs" textLength="7.7" x="335.6986" y="400.8894">1</text><text fill="#000000" font-family="sans-serif" font-size="14.3" lengthAdjust="spacingAndGlyphs" textLength="22" x="305.2295" y="481.7557">0..*</text><!--MD5=[b92cb1c511d91768cb7314ff5643be70]
link VisualizarCatalogoController to ProdutoBD--><path d="M135.3,242.209 C135.3,261.976 135.3,284.0024 135.3,302.9521 " fill="none" id="VisualizarCatalogoController-&gt;ProdutoBD" style="stroke: #A80036; stroke-width: 1.1; stroke-dasharray: 7.0,7.0;"/><polygon fill="#A80036" points="135.3,308.7282,139.7,298.8282,135.3,303.2282,130.9,298.8282,135.3,308.7282" style="stroke: #A80036; stroke-width: 1.1;"/><!--MD5=[13ad64eb49d11895b15dedd182a09dd2]
link ProdutoBD to BaseDados--><path d="M135.3,392.9013 C135.3,417.0793 135.3,447.7704 135.3,472.8439 " fill="none" id="ProdutoBD-&gt;BaseDados" style="stroke: #A80036; stroke-width: 1.1; stroke-dasharray: 7.0,7.0;"/><polygon fill="#A80036" points="135.3,478.4311,139.7,468.5311,135.3,472.9311,130.9,468.5311,135.3,478.4311" style="stroke: #A80036; stroke-width: 1.1;"/><!--MD5=[b104cd17e960f3e38e425aba2c830c23]
link ProdutoBD to Produto--><path d="M181.8531,392.9013 C216.0422,422.9412 261.6757,463.0355 292.2711,489.9171 " fill="none" id="ProdutoBD-&gt;Produto" style="stroke: #A80036; stroke-width: 1.1; stroke-dasharray: 7.0,7.0;"/><polygon fill="#A80036" points="296.6733,493.7846,292.14,483.9449,292.5414,490.1545,286.3318,490.5559,296.6733,493.7846" style="stroke: #A80036; stroke-width: 1.1;"/><!--MD5=[450e67ac1476267af092b8f5c623bde0]
link VisualizarCatalogoUI to VisualizarCatalogoController--><path d="M135.3,61.7331 C135.3,78.4993 135.3,101.2198 135.3,122.5422 " fill="none" id="VisualizarCatalogoUI-&gt;VisualizarCatalogoController" style="stroke: #A80036; stroke-width: 1.1; stroke-dasharray: 7.0,7.0;"/><polygon fill="#A80036" points="135.3,128.513,139.7,118.613,135.3,123.013,130.9,118.613,135.3,128.513" style="stroke: #A80036; stroke-width: 1.1;"/><!--MD5=[bf17e08cb5fca368724fb69d529f8b02]
@startuml
class VisualizarCatalogoUI
class VisualizarCatalogoController{
-  List<Produto> listaProdutos;
- ProdutoBD produtoBD;
+ArrayList<String> getTodosProdutos()
+setProdutoBD(ProdutoBD produtoBD)
}
class Farmacia
class Produto
class BaseDados{
+Connection getConnection()
+String closeConnection()
}
class ProdutoBD{
+ArrayList<Produto> getTodosProdutos()
+List<Produto> getProdutoByFarmacia(int id)

}

Farmacia "1" - -> "0..*" Produto : possui
VisualizarCatalogoController ..> ProdutoBD
ProdutoBD ..> BaseDados
ProdutoBD ..> Produto
VisualizarCatalogoUI ..>  VisualizarCatalogoController



@enduml

PlantUML version 1.2020.07(Sun Apr 19 12:42:40 BST 2020)
(GPL source distribution)
Java Runtime: OpenJDK Runtime Environment
JVM: OpenJDK 64-Bit Server VM
Java Version: 11.0.6+8-b765.25
Operating System: Windows 10
Default Encoding: Cp1252
Language: pt
Country: PT
--></g></svg>