<?xml version="1.0" encoding="UTF-8" standalone="no"?><svg xmlns="http://www.w3.org/2000/svg" xmlns:xlink="http://www.w3.org/1999/xlink" contentScriptType="application/ecmascript" contentStyleType="text/css" height="555px" preserveAspectRatio="none" style="width:662px;height:555px;" version="1.1" viewBox="0 0 662 555" width="662px" zoomAndPan="magnify"><defs><filter height="300%" id="f2k49q64pff3y" width="300%" x="-1" y="-1"><feGaussianBlur result="blurOut" stdDeviation="2.0"/><feColorMatrix in="blurOut" result="blurOut2" type="matrix" values="0 0 0 0 0 0 0 0 0 0 0 0 0 0 0 0 0 0 .4 0"/><feOffset dx="4.0" dy="4.0" in="blurOut2" result="blurOut3"/><feBlend in="SourceGraphic" in2="blurOut3" mode="normal"/></filter></defs><g><!--MD5=[6d3144f5c99bf51d6904d9fab883f6cc]
class WatchServiceFiles--><rect fill="#FEFECE" filter="url(#f2k49q64pff3y)" height="61.8359" id="WatchServiceFiles" style="stroke: #A80036; stroke-width: 1.5;" width="133" x="336.5" y="8"/><ellipse cx="351.5" cy="24" fill="#ADD1B2" rx="11" ry="11" style="stroke: #A80036; stroke-width: 1.0;"/><path d="M353.5,20.5 Q353.7031,20 353.9375,19.75 Q354.1719,19.5 354.4375,19.5 Q354.9063,19.5 355.2031,19.7813 Q355.5,20.0625 355.5,20.7188 L355.5,22.2813 Q355.5,22.9375 355.2188,23.2188 Q354.9375,23.5 354.5,23.5 Q354.1094,23.5 353.8594,23.3281 Q353.6094,23.1563 353.5,22.7031 Q353.4531,22.3906 353.2813,22.2188 Q352.9688,21.8906 352.4063,21.7031 Q351.8438,21.5 351.2813,21.5 Q350.5781,21.5 349.9844,21.7813 Q349.4063,22.0625 348.9531,22.6875 Q348.5,23.3125 348.5,24.1719 L348.5,25.0938 Q348.5,26.125 349.3438,26.8125 Q350.1875,27.5 351.6875,27.5 Q352.5781,27.5 353.2031,27.2969 Q353.5625,27.1875 353.9688,26.8281 Q354.2344,26.625 354.375,26.5625 Q354.5156,26.5 354.6875,26.5 Q355.0156,26.5 355.25,26.7656 Q355.5,27.0156 355.5,27.375 Q355.5,27.7188 355.1563,28.125 Q354.6563,28.7188 353.8594,29.0469 Q352.8125,29.5 351.5313,29.5 Q350.0313,29.5 348.8281,28.9063 Q347.8594,28.4375 347.1719,27.4219 Q346.5,26.4063 346.5,25.2031 L346.5,24.1094 Q346.5,22.8594 347.0938,21.7656 Q347.7031,20.6719 348.75,20.0938 Q349.8125,19.5 351,19.5 Q351.7188,19.5 352.3438,19.75 Q352.9688,20 353.5,20.5 Z "/><text fill="#000000" font-family="sans-serif" font-size="12" lengthAdjust="spacingAndGlyphs" textLength="101" x="365.5" y="28.9102">WatchServiceFiles</text><line style="stroke: #A80036; stroke-width: 1.5;" x1="337.5" x2="468.5" y1="40" y2="40"/><line style="stroke: #A80036; stroke-width: 1.5;" x1="337.5" x2="468.5" y1="48" y2="48"/><text fill="#000000" font-family="sans-serif" font-size="11" lengthAdjust="spacingAndGlyphs" textLength="47" x="342.5" y="63.4189">void run()</text><!--MD5=[43dc26d14d43d8797ec10c1e9418fcb8]
class EnviarEmailEstimativaTask--><rect fill="#FEFECE" filter="url(#f2k49q64pff3y)" height="61.8359" id="EnviarEmailEstimativaTask" style="stroke: #A80036; stroke-width: 1.5;" width="182" x="312" y="130"/><ellipse cx="327" cy="146" fill="#ADD1B2" rx="11" ry="11" style="stroke: #A80036; stroke-width: 1.0;"/><path d="M329,142.5 Q329.2031,142 329.4375,141.75 Q329.6719,141.5 329.9375,141.5 Q330.4063,141.5 330.7031,141.7813 Q331,142.0625 331,142.7188 L331,144.2813 Q331,144.9375 330.7188,145.2188 Q330.4375,145.5 330,145.5 Q329.6094,145.5 329.3594,145.3281 Q329.1094,145.1563 329,144.7031 Q328.9531,144.3906 328.7813,144.2188 Q328.4688,143.8906 327.9063,143.7031 Q327.3438,143.5 326.7813,143.5 Q326.0781,143.5 325.4844,143.7813 Q324.9063,144.0625 324.4531,144.6875 Q324,145.3125 324,146.1719 L324,147.0938 Q324,148.125 324.8438,148.8125 Q325.6875,149.5 327.1875,149.5 Q328.0781,149.5 328.7031,149.2969 Q329.0625,149.1875 329.4688,148.8281 Q329.7344,148.625 329.875,148.5625 Q330.0156,148.5 330.1875,148.5 Q330.5156,148.5 330.75,148.7656 Q331,149.0156 331,149.375 Q331,149.7188 330.6563,150.125 Q330.1563,150.7188 329.3594,151.0469 Q328.3125,151.5 327.0313,151.5 Q325.5313,151.5 324.3281,150.9063 Q323.3594,150.4375 322.6719,149.4219 Q322,148.4063 322,147.2031 L322,146.1094 Q322,144.8594 322.5938,143.7656 Q323.2031,142.6719 324.25,142.0938 Q325.3125,141.5 326.5,141.5 Q327.2188,141.5 327.8438,141.75 Q328.4688,142 329,142.5 Z "/><text fill="#000000" font-family="sans-serif" font-size="12" lengthAdjust="spacingAndGlyphs" textLength="150" x="341" y="150.9102">EnviarEmailEstimativaTask</text><line style="stroke: #A80036; stroke-width: 1.5;" x1="313" x2="493" y1="162" y2="162"/><line style="stroke: #A80036; stroke-width: 1.5;" x1="313" x2="493" y1="170" y2="170"/><text fill="#000000" font-family="sans-serif" font-size="11" lengthAdjust="spacingAndGlyphs" textLength="120" x="318" y="185.4189">void sendEmail(fileName)</text><!--MD5=[d80f71a20ad5bc844207fdd4e8cd5494]
class FileReader--><rect fill="#FEFECE" filter="url(#f2k49q64pff3y)" height="61.8359" id="FileReader" style="stroke: #A80036; stroke-width: 1.5;" width="132" x="337" y="252"/><ellipse cx="369.55" cy="268" fill="#ADD1B2" rx="11" ry="11" style="stroke: #A80036; stroke-width: 1.0;"/><path d="M371.55,264.5 Q371.7531,264 371.9875,263.75 Q372.2219,263.5 372.4875,263.5 Q372.9563,263.5 373.2531,263.7813 Q373.55,264.0625 373.55,264.7188 L373.55,266.2813 Q373.55,266.9375 373.2688,267.2188 Q372.9875,267.5 372.55,267.5 Q372.1594,267.5 371.9094,267.3281 Q371.6594,267.1563 371.55,266.7031 Q371.5031,266.3906 371.3313,266.2188 Q371.0188,265.8906 370.4563,265.7031 Q369.8938,265.5 369.3313,265.5 Q368.6281,265.5 368.0344,265.7813 Q367.4563,266.0625 367.0031,266.6875 Q366.55,267.3125 366.55,268.1719 L366.55,269.0938 Q366.55,270.125 367.3938,270.8125 Q368.2375,271.5 369.7375,271.5 Q370.6281,271.5 371.2531,271.2969 Q371.6125,271.1875 372.0188,270.8281 Q372.2844,270.625 372.425,270.5625 Q372.5656,270.5 372.7375,270.5 Q373.0656,270.5 373.3,270.7656 Q373.55,271.0156 373.55,271.375 Q373.55,271.7188 373.2063,272.125 Q372.7063,272.7188 371.9094,273.0469 Q370.8625,273.5 369.5813,273.5 Q368.0813,273.5 366.8781,272.9063 Q365.9094,272.4375 365.2219,271.4219 Q364.55,270.4063 364.55,269.2031 L364.55,268.1094 Q364.55,266.8594 365.1438,265.7656 Q365.7531,264.6719 366.8,264.0938 Q367.8625,263.5 369.05,263.5 Q369.7688,263.5 370.3938,263.75 Q371.0188,264 371.55,264.5 Z "/><text fill="#000000" font-family="sans-serif" font-size="12" lengthAdjust="spacingAndGlyphs" textLength="61" x="387.45" y="272.9102">FileReader</text><line style="stroke: #A80036; stroke-width: 1.5;" x1="338" x2="468" y1="284" y2="284"/><line style="stroke: #A80036; stroke-width: 1.5;" x1="338" x2="468" y1="292" y2="292"/><text fill="#000000" font-family="sans-serif" font-size="11" lengthAdjust="spacingAndGlyphs" textLength="120" x="343" y="307.4189">Pair estimateFileReader()</text><!--MD5=[24f7645889abd6047ad6d0f9f8bd9509]
class ScooterBD--><rect fill="#FEFECE" filter="url(#f2k49q64pff3y)" height="61.8359" id="ScooterBD" style="stroke: #A80036; stroke-width: 1.5;" width="172" x="6" y="374"/><ellipse cx="58.25" cy="390" fill="#ADD1B2" rx="11" ry="11" style="stroke: #A80036; stroke-width: 1.0;"/><path d="M60.25,386.5 Q60.4531,386 60.6875,385.75 Q60.9219,385.5 61.1875,385.5 Q61.6563,385.5 61.9531,385.7813 Q62.25,386.0625 62.25,386.7188 L62.25,388.2813 Q62.25,388.9375 61.9688,389.2188 Q61.6875,389.5 61.25,389.5 Q60.8594,389.5 60.6094,389.3281 Q60.3594,389.1563 60.25,388.7031 Q60.2031,388.3906 60.0313,388.2188 Q59.7188,387.8906 59.1563,387.7031 Q58.5938,387.5 58.0313,387.5 Q57.3281,387.5 56.7344,387.7813 Q56.1563,388.0625 55.7031,388.6875 Q55.25,389.3125 55.25,390.1719 L55.25,391.0938 Q55.25,392.125 56.0938,392.8125 Q56.9375,393.5 58.4375,393.5 Q59.3281,393.5 59.9531,393.2969 Q60.3125,393.1875 60.7188,392.8281 Q60.9844,392.625 61.125,392.5625 Q61.2656,392.5 61.4375,392.5 Q61.7656,392.5 62,392.7656 Q62.25,393.0156 62.25,393.375 Q62.25,393.7188 61.9063,394.125 Q61.4063,394.7188 60.6094,395.0469 Q59.5625,395.5 58.2813,395.5 Q56.7813,395.5 55.5781,394.9063 Q54.6094,394.4375 53.9219,393.4219 Q53.25,392.4063 53.25,391.2031 L53.25,390.1094 Q53.25,388.8594 53.8438,387.7656 Q54.4531,386.6719 55.5,386.0938 Q56.5625,385.5 57.75,385.5 Q58.4688,385.5 59.0938,385.75 Q59.7188,386 60.25,386.5 Z "/><text fill="#000000" font-family="sans-serif" font-size="12" lengthAdjust="spacingAndGlyphs" textLength="59" x="78.75" y="394.9102">ScooterBD</text><line style="stroke: #A80036; stroke-width: 1.5;" x1="7" x2="177" y1="406" y2="406"/><line style="stroke: #A80036; stroke-width: 1.5;" x1="7" x2="177" y1="414" y2="414"/><text fill="#000000" font-family="sans-serif" font-size="11" lengthAdjust="spacingAndGlyphs" textLength="160" x="12" y="429.4189">String getScooterByID(idScooter)</text><!--MD5=[f78d482765dab3bfec878498523110ae]
class EstafetaBD--><rect fill="#FEFECE" filter="url(#f2k49q64pff3y)" height="61.8359" id="EstafetaBD" style="stroke: #A80036; stroke-width: 1.5;" width="187" x="213.5" y="374"/><ellipse cx="271.75" cy="390" fill="#ADD1B2" rx="11" ry="11" style="stroke: #A80036; stroke-width: 1.0;"/><path d="M273.75,386.5 Q273.9531,386 274.1875,385.75 Q274.4219,385.5 274.6875,385.5 Q275.1563,385.5 275.4531,385.7813 Q275.75,386.0625 275.75,386.7188 L275.75,388.2813 Q275.75,388.9375 275.4688,389.2188 Q275.1875,389.5 274.75,389.5 Q274.3594,389.5 274.1094,389.3281 Q273.8594,389.1563 273.75,388.7031 Q273.7031,388.3906 273.5313,388.2188 Q273.2188,387.8906 272.6563,387.7031 Q272.0938,387.5 271.5313,387.5 Q270.8281,387.5 270.2344,387.7813 Q269.6563,388.0625 269.2031,388.6875 Q268.75,389.3125 268.75,390.1719 L268.75,391.0938 Q268.75,392.125 269.5938,392.8125 Q270.4375,393.5 271.9375,393.5 Q272.8281,393.5 273.4531,393.2969 Q273.8125,393.1875 274.2188,392.8281 Q274.4844,392.625 274.625,392.5625 Q274.7656,392.5 274.9375,392.5 Q275.2656,392.5 275.5,392.7656 Q275.75,393.0156 275.75,393.375 Q275.75,393.7188 275.4063,394.125 Q274.9063,394.7188 274.1094,395.0469 Q273.0625,395.5 271.7813,395.5 Q270.2813,395.5 269.0781,394.9063 Q268.1094,394.4375 267.4219,393.4219 Q266.75,392.4063 266.75,391.2031 L266.75,390.1094 Q266.75,388.8594 267.3438,387.7656 Q267.9531,386.6719 269,386.0938 Q270.0625,385.5 271.25,385.5 Q271.9688,385.5 272.5938,385.75 Q273.2188,386 273.75,386.5 Z "/><text fill="#000000" font-family="sans-serif" font-size="12" lengthAdjust="spacingAndGlyphs" textLength="62" x="292.25" y="394.9102">EstafetaBD</text><line style="stroke: #A80036; stroke-width: 1.5;" x1="214.5" x2="399.5" y1="406" y2="406"/><line style="stroke: #A80036; stroke-width: 1.5;" x1="214.5" x2="399.5" y1="414" y2="414"/><text fill="#000000" font-family="sans-serif" font-size="11" lengthAdjust="spacingAndGlyphs" textLength="175" x="219.5" y="429.4189">Estafeta getEstafetaById(idEstafeta)</text><!--MD5=[cae86d803c82ab7988454d662cc2fd27]
class DroneBD--><rect fill="#FEFECE" filter="url(#f2k49q64pff3y)" height="61.8359" id="DroneBD" style="stroke: #A80036; stroke-width: 1.5;" width="126" x="436" y="374"/><ellipse cx="470.35" cy="390" fill="#ADD1B2" rx="11" ry="11" style="stroke: #A80036; stroke-width: 1.0;"/><path d="M472.35,386.5 Q472.5531,386 472.7875,385.75 Q473.0219,385.5 473.2875,385.5 Q473.7563,385.5 474.0531,385.7813 Q474.35,386.0625 474.35,386.7188 L474.35,388.2813 Q474.35,388.9375 474.0688,389.2188 Q473.7875,389.5 473.35,389.5 Q472.9594,389.5 472.7094,389.3281 Q472.4594,389.1563 472.35,388.7031 Q472.3031,388.3906 472.1313,388.2188 Q471.8188,387.8906 471.2563,387.7031 Q470.6938,387.5 470.1313,387.5 Q469.4281,387.5 468.8344,387.7813 Q468.2563,388.0625 467.8031,388.6875 Q467.35,389.3125 467.35,390.1719 L467.35,391.0938 Q467.35,392.125 468.1938,392.8125 Q469.0375,393.5 470.5375,393.5 Q471.4281,393.5 472.0531,393.2969 Q472.4125,393.1875 472.8188,392.8281 Q473.0844,392.625 473.225,392.5625 Q473.3656,392.5 473.5375,392.5 Q473.8656,392.5 474.1,392.7656 Q474.35,393.0156 474.35,393.375 Q474.35,393.7188 474.0063,394.125 Q473.5063,394.7188 472.7094,395.0469 Q471.6625,395.5 470.3813,395.5 Q468.8813,395.5 467.6781,394.9063 Q466.7094,394.4375 466.0219,393.4219 Q465.35,392.4063 465.35,391.2031 L465.35,390.1094 Q465.35,388.8594 465.9438,387.7656 Q466.5531,386.6719 467.6,386.0938 Q468.6625,385.5 469.85,385.5 Q470.5688,385.5 471.1938,385.75 Q471.8188,386 472.35,386.5 Z "/><text fill="#000000" font-family="sans-serif" font-size="12" lengthAdjust="spacingAndGlyphs" textLength="51" x="488.65" y="394.9102">DroneBD</text><line style="stroke: #A80036; stroke-width: 1.5;" x1="437" x2="561" y1="406" y2="406"/><line style="stroke: #A80036; stroke-width: 1.5;" x1="437" x2="561" y1="414" y2="414"/><text fill="#000000" font-family="sans-serif" font-size="11" lengthAdjust="spacingAndGlyphs" textLength="114" x="442" y="429.4189">Drone getDroneByID(id)</text><!--MD5=[3f1202280bfe3359d2f91fb9b6e32986]
class Estafeta--><rect fill="#FEFECE" filter="url(#f2k49q64pff3y)" height="48" id="Estafeta" style="stroke: #A80036; stroke-width: 1.5;" width="77" x="268.5" y="496"/><ellipse cx="283.5" cy="512" fill="#ADD1B2" rx="11" ry="11" style="stroke: #A80036; stroke-width: 1.0;"/><path d="M285.5,508.5 Q285.7031,508 285.9375,507.75 Q286.1719,507.5 286.4375,507.5 Q286.9063,507.5 287.2031,507.7813 Q287.5,508.0625 287.5,508.7188 L287.5,510.2813 Q287.5,510.9375 287.2188,511.2188 Q286.9375,511.5 286.5,511.5 Q286.1094,511.5 285.8594,511.3281 Q285.6094,511.1563 285.5,510.7031 Q285.4531,510.3906 285.2813,510.2188 Q284.9688,509.8906 284.4063,509.7031 Q283.8438,509.5 283.2813,509.5 Q282.5781,509.5 281.9844,509.7813 Q281.4063,510.0625 280.9531,510.6875 Q280.5,511.3125 280.5,512.1719 L280.5,513.0938 Q280.5,514.125 281.3438,514.8125 Q282.1875,515.5 283.6875,515.5 Q284.5781,515.5 285.2031,515.2969 Q285.5625,515.1875 285.9688,514.8281 Q286.2344,514.625 286.375,514.5625 Q286.5156,514.5 286.6875,514.5 Q287.0156,514.5 287.25,514.7656 Q287.5,515.0156 287.5,515.375 Q287.5,515.7188 287.1563,516.125 Q286.6563,516.7188 285.8594,517.0469 Q284.8125,517.5 283.5313,517.5 Q282.0313,517.5 280.8281,516.9063 Q279.8594,516.4375 279.1719,515.4219 Q278.5,514.4063 278.5,513.2031 L278.5,512.1094 Q278.5,510.8594 279.0938,509.7656 Q279.7031,508.6719 280.75,508.0938 Q281.8125,507.5 283,507.5 Q283.7188,507.5 284.3438,507.75 Q284.9688,508 285.5,508.5 Z "/><text fill="#000000" font-family="sans-serif" font-size="12" lengthAdjust="spacingAndGlyphs" textLength="45" x="297.5" y="516.9102">Estafeta</text><line style="stroke: #A80036; stroke-width: 1.5;" x1="269.5" x2="344.5" y1="528" y2="528"/><line style="stroke: #A80036; stroke-width: 1.5;" x1="269.5" x2="344.5" y1="536" y2="536"/><!--MD5=[220f5f32351d35cc72380e3951491ed2]
class Pair--><rect fill="#FEFECE" filter="url(#f2k49q64pff3y)" height="48" id="Pair" style="stroke: #A80036; stroke-width: 1.5;" width="54" x="597" y="381"/><ellipse cx="612" cy="397" fill="#ADD1B2" rx="11" ry="11" style="stroke: #A80036; stroke-width: 1.0;"/><path d="M614,393.5 Q614.2031,393 614.4375,392.75 Q614.6719,392.5 614.9375,392.5 Q615.4063,392.5 615.7031,392.7813 Q616,393.0625 616,393.7188 L616,395.2813 Q616,395.9375 615.7188,396.2188 Q615.4375,396.5 615,396.5 Q614.6094,396.5 614.3594,396.3281 Q614.1094,396.1563 614,395.7031 Q613.9531,395.3906 613.7813,395.2188 Q613.4688,394.8906 612.9063,394.7031 Q612.3438,394.5 611.7813,394.5 Q611.0781,394.5 610.4844,394.7813 Q609.9063,395.0625 609.4531,395.6875 Q609,396.3125 609,397.1719 L609,398.0938 Q609,399.125 609.8438,399.8125 Q610.6875,400.5 612.1875,400.5 Q613.0781,400.5 613.7031,400.2969 Q614.0625,400.1875 614.4688,399.8281 Q614.7344,399.625 614.875,399.5625 Q615.0156,399.5 615.1875,399.5 Q615.5156,399.5 615.75,399.7656 Q616,400.0156 616,400.375 Q616,400.7188 615.6563,401.125 Q615.1563,401.7188 614.3594,402.0469 Q613.3125,402.5 612.0313,402.5 Q610.5313,402.5 609.3281,401.9063 Q608.3594,401.4375 607.6719,400.4219 Q607,399.4063 607,398.2031 L607,397.1094 Q607,395.8594 607.5938,394.7656 Q608.2031,393.6719 609.25,393.0938 Q610.3125,392.5 611.5,392.5 Q612.2188,392.5 612.8438,392.75 Q613.4688,393 614,393.5 Z "/><text fill="#000000" font-family="sans-serif" font-size="12" lengthAdjust="spacingAndGlyphs" textLength="22" x="626" y="401.9102">Pair</text><line style="stroke: #A80036; stroke-width: 1.5;" x1="598" x2="650" y1="413" y2="413"/><line style="stroke: #A80036; stroke-width: 1.5;" x1="598" x2="650" y1="421" y2="421"/><!--MD5=[c87eacd4b4a8a4622371c5b425178d8f]
link WatchServiceFiles to EnviarEmailEstimativaTask--><path d="M403,70.281 C403,86.767 403,107.257 403,124.492 " fill="none" id="WatchServiceFiles-&gt;EnviarEmailEstimativaTask" style="stroke: #A80036; stroke-width: 1.0; stroke-dasharray: 7.0,7.0;"/><polygon fill="#A80036" points="403,129.729,407,120.729,403,124.729,399,120.729,403,129.729" style="stroke: #A80036; stroke-width: 1.0;"/><!--MD5=[7b3e3886610285badac9bd7478685270]
link EnviarEmailEstimativaTask to FileReader--><path d="M403,192.281 C403,208.767 403,229.257 403,246.492 " fill="none" id="EnviarEmailEstimativaTask-&gt;FileReader" style="stroke: #A80036; stroke-width: 1.0; stroke-dasharray: 7.0,7.0;"/><polygon fill="#A80036" points="403,251.729,407,242.729,403,246.729,399,242.729,403,251.729" style="stroke: #A80036; stroke-width: 1.0;"/><!--MD5=[b593b6d53bee812a2e90896549837e8f]
link FileReader to ScooterBD--><path d="M336.664,309.596 C289.312,327.867 225.299,352.566 174.626,372.118 " fill="none" id="FileReader-&gt;ScooterBD" style="stroke: #A80036; stroke-width: 1.0; stroke-dasharray: 7.0,7.0;"/><polygon fill="#A80036" points="169.765,373.994,179.6015,374.4865,174.4299,372.1943,176.722,367.0227,169.765,373.994" style="stroke: #A80036; stroke-width: 1.0;"/><!--MD5=[1034df4fddfd34479f93a6daff6d8b2c]
link FileReader to EstafetaBD--><path d="M378.775,314.281 C365.246,331.193 348.344,352.32 334.342,369.823 " fill="none" id="FileReader-&gt;EstafetaBD" style="stroke: #A80036; stroke-width: 1.0; stroke-dasharray: 7.0,7.0;"/><polygon fill="#A80036" points="331.217,373.729,339.9623,369.1992,334.3401,369.8244,333.7149,364.2022,331.217,373.729" style="stroke: #A80036; stroke-width: 1.0;"/><!--MD5=[ff6d34bbb533b6ac502c233c27fcf19c]
link EstafetaBD to Estafeta--><path d="M307,436.282 C307,453.0802 307,473.8515 307,490.377 " fill="none" id="EstafetaBD-&gt;Estafeta" style="stroke: #A80036; stroke-width: 1.0; stroke-dasharray: 7.0,7.0;"/><polygon fill="#A80036" points="307,495.8067,311,486.8067,307,490.8067,303,486.8067,307,495.8067" style="stroke: #A80036; stroke-width: 1.0;"/><!--MD5=[541eaf52b3c9b0f135bef1b34f70cdf8]
link FileReader to Pair--><path d="M467.135,314.147 C501.224,330.783 543.51,352.403 580,374 C584.177,376.472 588.491,379.192 592.711,381.954 " fill="none" id="FileReader-&gt;Pair" style="stroke: #A80036; stroke-width: 1.0; stroke-dasharray: 7.0,7.0;"/><polygon fill="#A80036" points="596.891,384.723,591.597,376.418,592.7226,381.9617,587.1789,383.0874,596.891,384.723" style="stroke: #A80036; stroke-width: 1.0;"/><!--MD5=[dfdef37daa5616ff3427e31eb1280f96]
link FileReader to DroneBD--><path d="M427.225,314.281 C440.754,331.193 457.656,352.32 471.658,369.823 " fill="none" id="FileReader-&gt;DroneBD" style="stroke: #A80036; stroke-width: 1.0; stroke-dasharray: 7.0,7.0;"/><polygon fill="#A80036" points="474.783,373.729,472.2851,364.2022,471.6599,369.8244,466.0377,369.1992,474.783,373.729" style="stroke: #A80036; stroke-width: 1.0;"/><!--MD5=[d1e701bee35b43082020d64d561c2531]
@startuml
class WatchServiceFiles{
void run()
}
class EnviarEmailEstimativaTask{
void sendEmail(fileName)
}

class FileReader{
Pair estimateFileReader()
}
class ScooterBD{
String getScooterByID(idScooter)
}
class EstafetaBD{
Estafeta getEstafetaById(idEstafeta)
}
class DroneBD{
Drone getDroneByID(id)
}

WatchServiceFiles..>EnviarEmailEstimativaTask
EnviarEmailEstimativaTask ..> FileReader
FileReader..>ScooterBD
FileReader..>EstafetaBD
EstafetaBD..>Estafeta
FileReader..>Pair
FileReader ..> DroneBD
@enduml

PlantUML version 1.2020.07(Sun Apr 19 12:42:40 BST 2020)
(GPL source distribution)
Java Runtime: OpenJDK Runtime Environment
JVM: OpenJDK 64-Bit Server VM
Java Version: 11.0.6+8-b765.25
Operating System: Windows 10
Default Encoding: Cp1252
Language: pt
Country: PT
--></g></svg>