<?xml version="1.0" encoding="UTF-8" standalone="no"?><svg xmlns="http://www.w3.org/2000/svg" xmlns:xlink="http://www.w3.org/1999/xlink" contentScriptType="application/ecmascript" contentStyleType="text/css" height="304px" preserveAspectRatio="none" style="width:848px;height:304px;" version="1.1" viewBox="0 0 848 304" width="848px" zoomAndPan="magnify"><defs><filter height="300%" id="f17uq3pfa638ci" width="300%" x="-1" y="-1"><feGaussianBlur result="blurOut" stdDeviation="2.0"/><feColorMatrix in="blurOut" result="blurOut2" type="matrix" values="0 0 0 0 0 0 0 0 0 0 0 0 0 0 0 0 0 0 .4 0"/><feOffset dx="4.0" dy="4.0" in="blurOut2" result="blurOut3"/><feBlend in="SourceGraphic" in2="blurOut3" mode="normal"/></filter></defs><g><!--MD5=[f73b38a6f46ad884ae3bccd1b93cd5ba]
class AtribuirEncomendaFarmaciaTask--><rect codeLine="5" fill="#FEFECE" filter="url(#f17uq3pfa638ci)" height="61.8359" id="AtribuirEncomendaFarmaciaTask" style="stroke:#A80036;stroke-width:1.5;" width="271" x="7" y="118"/><ellipse cx="46.75" cy="134" fill="#ADD1B2" rx="11" ry="11" style="stroke:#A80036;stroke-width:1.0;"/><path d="M48.75,130.5 Q48.9531,130 49.1875,129.75 Q49.4219,129.5 49.6875,129.5 Q50.1563,129.5 50.4531,129.7813 Q50.75,130.0625 50.75,130.7188 L50.75,132.2813 Q50.75,132.9375 50.4688,133.2188 Q50.1875,133.5 49.75,133.5 Q49.3594,133.5 49.1094,133.3281 Q48.8594,133.1563 48.75,132.7031 Q48.7031,132.3906 48.5313,132.2188 Q48.2188,131.8906 47.6563,131.7031 Q47.0938,131.5 46.5313,131.5 Q45.8281,131.5 45.2344,131.7813 Q44.6563,132.0625 44.2031,132.6875 Q43.75,133.3125 43.75,134.1719 L43.75,135.0938 Q43.75,136.125 44.5938,136.8125 Q45.4375,137.5 46.9375,137.5 Q47.8281,137.5 48.4531,137.2969 Q48.8125,137.1875 49.2188,136.8281 Q49.4844,136.625 49.625,136.5625 Q49.7656,136.5 49.9375,136.5 Q50.2656,136.5 50.5,136.7656 Q50.75,137.0156 50.75,137.375 Q50.75,137.7188 50.4063,138.125 Q49.9063,138.7188 49.1094,139.0469 Q48.0625,139.5 46.7813,139.5 Q45.2813,139.5 44.0781,138.9063 Q43.1094,138.4375 42.4219,137.4219 Q41.75,136.4063 41.75,135.2031 L41.75,134.1094 Q41.75,132.8594 42.3438,131.7656 Q42.9531,130.6719 44,130.0938 Q45.0625,129.5 46.25,129.5 Q46.9688,129.5 47.5938,129.75 Q48.2188,130 48.75,130.5 Z " fill="#000000"/><text fill="#000000" font-family="sans-serif" font-size="12" lengthAdjust="spacingAndGlyphs" textLength="184" x="66.25" y="138.9102">AtribuirEncomendaFarmaciaTask</text><line style="stroke:#A80036;stroke-width:1.5;" x1="8" x2="277" y1="150" y2="150"/><line style="stroke:#A80036;stroke-width:1.5;" x1="8" x2="277" y1="158" y2="158"/><text fill="#000000" font-family="sans-serif" font-size="11" lengthAdjust="spacingAndGlyphs" textLength="259" x="13" y="173.4189">+int atribuiEncomendaFarmacia(emailCliente, carrinho)</text><!--MD5=[380d12a68ed0046a60f31008a02875d0]
class AplicacaoPOT--><rect codeLine="9" fill="#FEFECE" filter="url(#f17uq3pfa638ci)" height="75.6719" id="AplicacaoPOT" style="stroke:#A80036;stroke-width:1.5;" width="162" x="399" y="7"/><ellipse cx="437.85" cy="23" fill="#ADD1B2" rx="11" ry="11" style="stroke:#A80036;stroke-width:1.0;"/><path d="M439.85,19.5 Q440.0531,19 440.2875,18.75 Q440.5219,18.5 440.7875,18.5 Q441.2563,18.5 441.5531,18.7813 Q441.85,19.0625 441.85,19.7188 L441.85,21.2813 Q441.85,21.9375 441.5688,22.2188 Q441.2875,22.5 440.85,22.5 Q440.4594,22.5 440.2094,22.3281 Q439.9594,22.1563 439.85,21.7031 Q439.8031,21.3906 439.6313,21.2188 Q439.3188,20.8906 438.7563,20.7031 Q438.1938,20.5 437.6313,20.5 Q436.9281,20.5 436.3344,20.7813 Q435.7563,21.0625 435.3031,21.6875 Q434.85,22.3125 434.85,23.1719 L434.85,24.0938 Q434.85,25.125 435.6938,25.8125 Q436.5375,26.5 438.0375,26.5 Q438.9281,26.5 439.5531,26.2969 Q439.9125,26.1875 440.3188,25.8281 Q440.5844,25.625 440.725,25.5625 Q440.8656,25.5 441.0375,25.5 Q441.3656,25.5 441.6,25.7656 Q441.85,26.0156 441.85,26.375 Q441.85,26.7188 441.5063,27.125 Q441.0063,27.7188 440.2094,28.0469 Q439.1625,28.5 437.8813,28.5 Q436.3813,28.5 435.1781,27.9063 Q434.2094,27.4375 433.5219,26.4219 Q432.85,25.4063 432.85,24.2031 L432.85,23.1094 Q432.85,21.8594 433.4438,20.7656 Q434.0531,19.6719 435.1,19.0938 Q436.1625,18.5 437.35,18.5 Q438.0688,18.5 438.6938,18.75 Q439.3188,19 439.85,19.5 Z " fill="#000000"/><text fill="#000000" font-family="sans-serif" font-size="12" lengthAdjust="spacingAndGlyphs" textLength="77" x="457.15" y="27.9102">AplicacaoPOT</text><line style="stroke:#A80036;stroke-width:1.5;" x1="400" x2="560" y1="39" y2="39"/><line style="stroke:#A80036;stroke-width:1.5;" x1="400" x2="560" y1="47" y2="47"/><text fill="#000000" font-family="sans-serif" font-size="11" lengthAdjust="spacingAndGlyphs" textLength="70" x="405" y="62.4189">+getInstance()</text><text fill="#000000" font-family="sans-serif" font-size="11" lengthAdjust="spacingAndGlyphs" textLength="150" x="405" y="76.2549">+getMapaTerrestreDistancias()</text><!--MD5=[9c5439856a1aad23e042de9a355b14cb]
class BaseDados--><rect codeLine="14" fill="#FEFECE" filter="url(#f17uq3pfa638ci)" height="75.6719" id="BaseDados" style="stroke:#A80036;stroke-width:1.5;" width="152" x="682" y="215"/><ellipse cx="721.3" cy="231" fill="#ADD1B2" rx="11" ry="11" style="stroke:#A80036;stroke-width:1.0;"/><path d="M723.3,227.5 Q723.5031,227 723.7375,226.75 Q723.9719,226.5 724.2375,226.5 Q724.7063,226.5 725.0031,226.7813 Q725.3,227.0625 725.3,227.7188 L725.3,229.2813 Q725.3,229.9375 725.0188,230.2188 Q724.7375,230.5 724.3,230.5 Q723.9094,230.5 723.6594,230.3281 Q723.4094,230.1563 723.3,229.7031 Q723.2531,229.3906 723.0813,229.2188 Q722.7688,228.8906 722.2063,228.7031 Q721.6438,228.5 721.0813,228.5 Q720.3781,228.5 719.7844,228.7813 Q719.2063,229.0625 718.7531,229.6875 Q718.3,230.3125 718.3,231.1719 L718.3,232.0938 Q718.3,233.125 719.1438,233.8125 Q719.9875,234.5 721.4875,234.5 Q722.3781,234.5 723.0031,234.2969 Q723.3625,234.1875 723.7688,233.8281 Q724.0344,233.625 724.175,233.5625 Q724.3156,233.5 724.4875,233.5 Q724.8156,233.5 725.05,233.7656 Q725.3,234.0156 725.3,234.375 Q725.3,234.7188 724.9563,235.125 Q724.4563,235.7188 723.6594,236.0469 Q722.6125,236.5 721.3313,236.5 Q719.8313,236.5 718.6281,235.9063 Q717.6594,235.4375 716.9719,234.4219 Q716.3,233.4063 716.3,232.2031 L716.3,231.1094 Q716.3,229.8594 716.8938,228.7656 Q717.5031,227.6719 718.55,227.0938 Q719.6125,226.5 720.8,226.5 Q721.5188,226.5 722.1438,226.75 Q722.7688,227 723.3,227.5 Z " fill="#000000"/><text fill="#000000" font-family="sans-serif" font-size="12" lengthAdjust="spacingAndGlyphs" textLength="66" x="740.7" y="235.9102">BaseDados</text><line style="stroke:#A80036;stroke-width:1.5;" x1="683" x2="833" y1="247" y2="247"/><line style="stroke:#A80036;stroke-width:1.5;" x1="683" x2="833" y1="255" y2="255"/><text fill="#000000" font-family="sans-serif" font-size="11" lengthAdjust="spacingAndGlyphs" textLength="140" x="688" y="270.4189">+Connection getConnection()</text><text fill="#000000" font-family="sans-serif" font-size="11" lengthAdjust="spacingAndGlyphs" textLength="94" x="688" y="284.2549">+closeConnection()</text><!--MD5=[4725883143e17e75ce026c91e6b27729]
class GraphAlgorithms--><rect codeLine="19" fill="#FEFECE" filter="url(#f17uq3pfa638ci)" height="61.8359" id="GraphAlgorithms" style="stroke:#A80036;stroke-width:1.5;" width="284" x="338" y="118"/><ellipse cx="429.25" cy="134" fill="#ADD1B2" rx="11" ry="11" style="stroke:#A80036;stroke-width:1.0;"/><path d="M431.25,130.5 Q431.4531,130 431.6875,129.75 Q431.9219,129.5 432.1875,129.5 Q432.6563,129.5 432.9531,129.7813 Q433.25,130.0625 433.25,130.7188 L433.25,132.2813 Q433.25,132.9375 432.9688,133.2188 Q432.6875,133.5 432.25,133.5 Q431.8594,133.5 431.6094,133.3281 Q431.3594,133.1563 431.25,132.7031 Q431.2031,132.3906 431.0313,132.2188 Q430.7188,131.8906 430.1563,131.7031 Q429.5938,131.5 429.0313,131.5 Q428.3281,131.5 427.7344,131.7813 Q427.1563,132.0625 426.7031,132.6875 Q426.25,133.3125 426.25,134.1719 L426.25,135.0938 Q426.25,136.125 427.0938,136.8125 Q427.9375,137.5 429.4375,137.5 Q430.3281,137.5 430.9531,137.2969 Q431.3125,137.1875 431.7188,136.8281 Q431.9844,136.625 432.125,136.5625 Q432.2656,136.5 432.4375,136.5 Q432.7656,136.5 433,136.7656 Q433.25,137.0156 433.25,137.375 Q433.25,137.7188 432.9063,138.125 Q432.4063,138.7188 431.6094,139.0469 Q430.5625,139.5 429.2813,139.5 Q427.7813,139.5 426.5781,138.9063 Q425.6094,138.4375 424.9219,137.4219 Q424.25,136.4063 424.25,135.2031 L424.25,134.1094 Q424.25,132.8594 424.8438,131.7656 Q425.4531,130.6719 426.5,130.0938 Q427.5625,129.5 428.75,129.5 Q429.4688,129.5 430.0938,129.75 Q430.7188,130 431.25,130.5 Z " fill="#000000"/><text fill="#000000" font-family="sans-serif" font-size="12" lengthAdjust="spacingAndGlyphs" textLength="93" x="449.75" y="138.9102">GraphAlgorithms</text><line style="stroke:#A80036;stroke-width:1.5;" x1="339" x2="621" y1="150" y2="150"/><line style="stroke:#A80036;stroke-width:1.5;" x1="339" x2="621" y1="158" y2="158"/><text fill="#000000" font-family="sans-serif" font-size="11" lengthAdjust="spacingAndGlyphs" textLength="272" x="344" y="173.4189">+double shortestPath(grafo, Morada, Morada, shortPath)</text><!--MD5=[d703aab580f67225500cb57f8b850b8c]
class MoradaBD--><rect codeLine="23" fill="#FEFECE" filter="url(#f17uq3pfa638ci)" height="75.6719" id="MoradaBD" style="stroke:#A80036;stroke-width:1.5;" width="262" x="349" y="215"/><ellipse cx="446.75" cy="231" fill="#ADD1B2" rx="11" ry="11" style="stroke:#A80036;stroke-width:1.0;"/><path d="M448.75,227.5 Q448.9531,227 449.1875,226.75 Q449.4219,226.5 449.6875,226.5 Q450.1563,226.5 450.4531,226.7813 Q450.75,227.0625 450.75,227.7188 L450.75,229.2813 Q450.75,229.9375 450.4688,230.2188 Q450.1875,230.5 449.75,230.5 Q449.3594,230.5 449.1094,230.3281 Q448.8594,230.1563 448.75,229.7031 Q448.7031,229.3906 448.5313,229.2188 Q448.2188,228.8906 447.6563,228.7031 Q447.0938,228.5 446.5313,228.5 Q445.8281,228.5 445.2344,228.7813 Q444.6563,229.0625 444.2031,229.6875 Q443.75,230.3125 443.75,231.1719 L443.75,232.0938 Q443.75,233.125 444.5938,233.8125 Q445.4375,234.5 446.9375,234.5 Q447.8281,234.5 448.4531,234.2969 Q448.8125,234.1875 449.2188,233.8281 Q449.4844,233.625 449.625,233.5625 Q449.7656,233.5 449.9375,233.5 Q450.2656,233.5 450.5,233.7656 Q450.75,234.0156 450.75,234.375 Q450.75,234.7188 450.4063,235.125 Q449.9063,235.7188 449.1094,236.0469 Q448.0625,236.5 446.7813,236.5 Q445.2813,236.5 444.0781,235.9063 Q443.1094,235.4375 442.4219,234.4219 Q441.75,233.4063 441.75,232.2031 L441.75,231.1094 Q441.75,229.8594 442.3438,228.7656 Q442.9531,227.6719 444,227.0938 Q445.0625,226.5 446.25,226.5 Q446.9688,226.5 447.5938,226.75 Q448.2188,227 448.75,227.5 Z " fill="#000000"/><text fill="#000000" font-family="sans-serif" font-size="12" lengthAdjust="spacingAndGlyphs" textLength="58" x="467.25" y="235.9102">MoradaBD</text><line style="stroke:#A80036;stroke-width:1.5;" x1="350" x2="610" y1="247" y2="247"/><line style="stroke:#A80036;stroke-width:1.5;" x1="350" x2="610" y1="255" y2="255"/><text fill="#000000" font-family="sans-serif" font-size="11" lengthAdjust="spacingAndGlyphs" textLength="250" x="355" y="270.4189">+HashMap&lt;Integer, Morada&gt; getMoradasFarmacia()</text><text fill="#000000" font-family="sans-serif" font-size="11" lengthAdjust="spacingAndGlyphs" textLength="204" x="355" y="284.2549">+Morada getMoradaUtilizador(emailCliente)</text><!--MD5=[bb8d1492535f09866f64787616909e8f]
link AtribuirEncomendaFarmaciaTask to MoradaBD--><path codeLine="29" d="M243.71,180.06 C277.52,190.55 315.74,202.39 351.38,213.44 " fill="none" id="AtribuirEncomendaFarmaciaTask-to-MoradaBD" style="stroke:#A80036;stroke-width:1.0;stroke-dasharray:7.0,7.0;"/><polygon fill="#A80036" points="356.17,214.92,348.7661,208.4252,351.3961,213.4335,346.3877,216.0635,356.17,214.92" style="stroke:#A80036;stroke-width:1.0;"/><!--MD5=[91f6dd09854a0c3f7e83b99ffbd6adbf]
link AtribuirEncomendaFarmaciaTask to AplicacaoPOT--><path codeLine="30" d="M243.71,117.94 C291.59,103.1 348.28,85.52 394.01,71.34 " fill="none" id="AtribuirEncomendaFarmaciaTask-to-AplicacaoPOT" style="stroke:#A80036;stroke-width:1.0;stroke-dasharray:7.0,7.0;"/><polygon fill="#A80036" points="398.97,69.81,389.1909,68.6398,394.192,71.2834,391.5484,76.2846,398.97,69.81" style="stroke:#A80036;stroke-width:1.0;"/><!--MD5=[c8e1b773d6627e6226a2353878731342]
link AtribuirEncomendaFarmaciaTask to GraphAlgorithms--><path codeLine="31" d="M278.03,149 C296.02,149 314.55,149 332.74,149 " fill="none" id="AtribuirEncomendaFarmaciaTask-to-GraphAlgorithms" style="stroke:#A80036;stroke-width:1.0;stroke-dasharray:7.0,7.0;"/><polygon fill="#A80036" points="337.86,149,328.86,145,332.86,149,328.86,153,337.86,149" style="stroke:#A80036;stroke-width:1.0;"/><!--MD5=[dd5557e0584c7ae80926c94375161989]
link MoradaBD to BaseDados--><path codeLine="33" d="M611.32,253 C633.58,253 656.11,253 676.58,253 " fill="none" id="MoradaBD-to-BaseDados" style="stroke:#A80036;stroke-width:1.0;stroke-dasharray:7.0,7.0;"/><polygon fill="#A80036" points="681.73,253,672.73,249,676.73,253,672.73,257,681.73,253" style="stroke:#A80036;stroke-width:1.0;"/><!--MD5=[b9a4fa3af18e49c02d14fb93300f8f77]
@startuml

skinparam classAttributeIconSize 0
left to right direction

class AtribuirEncomendaFarmaciaTask{
    +int atribuiEncomendaFarmacia(emailCliente, carrinho)
}

class AplicacaoPOT{
    +getInstance()
    +getMapaTerrestreDistancias()
}

class BaseDados{
    +Connection getConnection()
    +closeConnection()
}

class GraphAlgorithms{
    +double shortestPath(grafo, Morada, Morada, shortPath)
}

class MoradaBD{
    +HashMap<Integer, Morada> getMoradasFarmacia()
    +Morada getMoradaUtilizador(emailCliente)
}


AtribuirEncomendaFarmaciaTask ..> MoradaBD
AtribuirEncomendaFarmaciaTask ..> AplicacaoPOT
AtribuirEncomendaFarmaciaTask ..> GraphAlgorithms

MoradaBD ..> BaseDados


@enduml

PlantUML version 1.2020.23(Sun Dec 13 19:14:58 GMT 2020)
(GPL source distribution)
Java Runtime: OpenJDK Runtime Environment
JVM: OpenJDK 64-Bit Server VM
Default Encoding: Cp1252
Language: pt
Country: PT
--></g></svg>