<?xml version="1.0" encoding="UTF-8" standalone="no"?><svg xmlns="http://www.w3.org/2000/svg" xmlns:xlink="http://www.w3.org/1999/xlink" contentScriptType="application/ecmascript" contentStyleType="text/css" height="551px" preserveAspectRatio="none" style="width:817px;height:551px;" version="1.1" viewBox="0 0 817 551" width="817px" zoomAndPan="magnify"><defs><filter height="300%" id="f1onxk83y18fqy" width="300%" x="-1" y="-1"><feGaussianBlur result="blurOut" stdDeviation="2.0"/><feColorMatrix in="blurOut" result="blurOut2" type="matrix" values="0 0 0 0 0 0 0 0 0 0 0 0 0 0 0 0 0 0 .4 0"/><feOffset dx="4.0" dy="4.0" in="blurOut2" result="blurOut3"/><feBlend in="SourceGraphic" in2="blurOut3" mode="normal"/></filter></defs><g><!--MD5=[468e6854fa5e6fd2bffc17c4cbb3c2aa]
class AdicionarProdutoCarrinhoController--><rect codeLine="2" fill="#FEFECE" filter="url(#f1onxk83y18fqy)" height="144.8516" id="AdicionarProdutoCarrinhoController" style="stroke:#A80036;stroke-width:1.5;" width="283" x="321" y="116"/><ellipse cx="360.75" cy="132" fill="#ADD1B2" rx="11" ry="11" style="stroke:#A80036;stroke-width:1.0;"/><path d="M362.75,128.5 Q362.9531,128 363.1875,127.75 Q363.4219,127.5 363.6875,127.5 Q364.1563,127.5 364.4531,127.7813 Q364.75,128.0625 364.75,128.7188 L364.75,130.2813 Q364.75,130.9375 364.4688,131.2188 Q364.1875,131.5 363.75,131.5 Q363.3594,131.5 363.1094,131.3281 Q362.8594,131.1563 362.75,130.7031 Q362.7031,130.3906 362.5313,130.2188 Q362.2188,129.8906 361.6563,129.7031 Q361.0938,129.5 360.5313,129.5 Q359.8281,129.5 359.2344,129.7813 Q358.6563,130.0625 358.2031,130.6875 Q357.75,131.3125 357.75,132.1719 L357.75,133.0938 Q357.75,134.125 358.5938,134.8125 Q359.4375,135.5 360.9375,135.5 Q361.8281,135.5 362.4531,135.2969 Q362.8125,135.1875 363.2188,134.8281 Q363.4844,134.625 363.625,134.5625 Q363.7656,134.5 363.9375,134.5 Q364.2656,134.5 364.5,134.7656 Q364.75,135.0156 364.75,135.375 Q364.75,135.7188 364.4063,136.125 Q363.9063,136.7188 363.1094,137.0469 Q362.0625,137.5 360.7813,137.5 Q359.2813,137.5 358.0781,136.9063 Q357.1094,136.4375 356.4219,135.4219 Q355.75,134.4063 355.75,133.2031 L355.75,132.1094 Q355.75,130.8594 356.3438,129.7656 Q356.9531,128.6719 358,128.0938 Q359.0625,127.5 360.25,127.5 Q360.9688,127.5 361.5938,127.75 Q362.2188,128 362.75,128.5 Z " fill="#000000"/><text fill="#000000" font-family="sans-serif" font-size="12" lengthAdjust="spacingAndGlyphs" textLength="196" x="380.25" y="136.9102">AdicionarProdutoCarrinhoController</text><line style="stroke:#A80036;stroke-width:1.5;" x1="322" x2="603" y1="148" y2="148"/><rect fill="none" height="6" style="stroke:#C82930;stroke-width:1.0;" width="6" x="329" y="156"/><text fill="#000000" font-family="sans-serif" font-size="11" lengthAdjust="spacingAndGlyphs" textLength="59" x="341" y="163.4189">int idProduto</text><rect fill="none" height="6" style="stroke:#C82930;stroke-width:1.0;" width="6" x="329" y="169.8359"/><text fill="#000000" font-family="sans-serif" font-size="11" lengthAdjust="spacingAndGlyphs" textLength="80" x="341" y="177.2549">Produto produto;</text><rect fill="none" height="6" style="stroke:#C82930;stroke-width:1.0;" width="6" x="329" y="183.6719"/><text fill="#000000" font-family="sans-serif" font-size="11" lengthAdjust="spacingAndGlyphs" textLength="108" x="341" y="191.0908">ProdutoBD produtoBD;</text><line style="stroke:#A80036;stroke-width:1.5;" x1="322" x2="603" y1="197.5078" y2="197.5078"/><ellipse cx="332" cy="208.5078" fill="#84BE84" rx="3" ry="3" style="stroke:#038048;stroke-width:1.0;"/><text fill="#000000" font-family="sans-serif" font-size="11" lengthAdjust="spacingAndGlyphs" textLength="257" x="341" y="212.9268">boolean validarProdutoId(int idFarmacia, int idProduto)</text><ellipse cx="332" cy="222.3438" fill="#84BE84" rx="3" ry="3" style="stroke:#038048;stroke-width:1.0;"/><text fill="#000000" font-family="sans-serif" font-size="11" lengthAdjust="spacingAndGlyphs" textLength="64" x="341" y="226.7627">int getStock()</text><ellipse cx="332" cy="236.1797" fill="#84BE84" rx="3" ry="3" style="stroke:#038048;stroke-width:1.0;"/><text fill="#000000" font-family="sans-serif" font-size="11" lengthAdjust="spacingAndGlyphs" textLength="197" x="341" y="240.5986">void adicionarAoCarrinho(int quantidade)</text><ellipse cx="332" cy="250.0156" fill="#84BE84" rx="3" ry="3" style="stroke:#038048;stroke-width:1.0;"/><text fill="#000000" font-family="sans-serif" font-size="11" lengthAdjust="spacingAndGlyphs" textLength="150" x="341" y="254.4346">void setIdProduto(int idProduto)</text><!--MD5=[ad302bbf2accea82e39ffd74f61fb688]
class CatalogoUI--><rect codeLine="11" fill="#FEFECE" filter="url(#f1onxk83y18fqy)" height="48" id="CatalogoUI" style="stroke:#A80036;stroke-width:1.5;" width="94" x="415.5" y="7"/><ellipse cx="430.5" cy="23" fill="#ADD1B2" rx="11" ry="11" style="stroke:#A80036;stroke-width:1.0;"/><path d="M432.5,19.5 Q432.7031,19 432.9375,18.75 Q433.1719,18.5 433.4375,18.5 Q433.9063,18.5 434.2031,18.7813 Q434.5,19.0625 434.5,19.7188 L434.5,21.2813 Q434.5,21.9375 434.2188,22.2188 Q433.9375,22.5 433.5,22.5 Q433.1094,22.5 432.8594,22.3281 Q432.6094,22.1563 432.5,21.7031 Q432.4531,21.3906 432.2813,21.2188 Q431.9688,20.8906 431.4063,20.7031 Q430.8438,20.5 430.2813,20.5 Q429.5781,20.5 428.9844,20.7813 Q428.4063,21.0625 427.9531,21.6875 Q427.5,22.3125 427.5,23.1719 L427.5,24.0938 Q427.5,25.125 428.3438,25.8125 Q429.1875,26.5 430.6875,26.5 Q431.5781,26.5 432.2031,26.2969 Q432.5625,26.1875 432.9688,25.8281 Q433.2344,25.625 433.375,25.5625 Q433.5156,25.5 433.6875,25.5 Q434.0156,25.5 434.25,25.7656 Q434.5,26.0156 434.5,26.375 Q434.5,26.7188 434.1563,27.125 Q433.6563,27.7188 432.8594,28.0469 Q431.8125,28.5 430.5313,28.5 Q429.0313,28.5 427.8281,27.9063 Q426.8594,27.4375 426.1719,26.4219 Q425.5,25.4063 425.5,24.2031 L425.5,23.1094 Q425.5,21.8594 426.0938,20.7656 Q426.7031,19.6719 427.75,19.0938 Q428.8125,18.5 430,18.5 Q430.7188,18.5 431.3438,18.75 Q431.9688,19 432.5,19.5 Z " fill="#000000"/><text fill="#000000" font-family="sans-serif" font-size="12" lengthAdjust="spacingAndGlyphs" textLength="62" x="444.5" y="27.9102">CatalogoUI</text><line style="stroke:#A80036;stroke-width:1.5;" x1="416.5" x2="508.5" y1="39" y2="39"/><line style="stroke:#A80036;stroke-width:1.5;" x1="416.5" x2="508.5" y1="47" y2="47"/><!--MD5=[a84bd072b68d9b7b1d264a150fd20f17]
class ProdutoBD--><rect codeLine="12" fill="#FEFECE" filter="url(#f1onxk83y18fqy)" height="75.6719" id="ProdutoBD" style="stroke:#A80036;stroke-width:1.5;" width="283" x="7" y="322"/><ellipse cx="114.25" cy="338" fill="#ADD1B2" rx="11" ry="11" style="stroke:#A80036;stroke-width:1.0;"/><path d="M116.25,334.5 Q116.4531,334 116.6875,333.75 Q116.9219,333.5 117.1875,333.5 Q117.6563,333.5 117.9531,333.7813 Q118.25,334.0625 118.25,334.7188 L118.25,336.2813 Q118.25,336.9375 117.9688,337.2188 Q117.6875,337.5 117.25,337.5 Q116.8594,337.5 116.6094,337.3281 Q116.3594,337.1563 116.25,336.7031 Q116.2031,336.3906 116.0313,336.2188 Q115.7188,335.8906 115.1563,335.7031 Q114.5938,335.5 114.0313,335.5 Q113.3281,335.5 112.7344,335.7813 Q112.1563,336.0625 111.7031,336.6875 Q111.25,337.3125 111.25,338.1719 L111.25,339.0938 Q111.25,340.125 112.0938,340.8125 Q112.9375,341.5 114.4375,341.5 Q115.3281,341.5 115.9531,341.2969 Q116.3125,341.1875 116.7188,340.8281 Q116.9844,340.625 117.125,340.5625 Q117.2656,340.5 117.4375,340.5 Q117.7656,340.5 118,340.7656 Q118.25,341.0156 118.25,341.375 Q118.25,341.7188 117.9063,342.125 Q117.4063,342.7188 116.6094,343.0469 Q115.5625,343.5 114.2813,343.5 Q112.7813,343.5 111.5781,342.9063 Q110.6094,342.4375 109.9219,341.4219 Q109.25,340.4063 109.25,339.2031 L109.25,338.1094 Q109.25,336.8594 109.8438,335.7656 Q110.4531,334.6719 111.5,334.0938 Q112.5625,333.5 113.75,333.5 Q114.4688,333.5 115.0938,333.75 Q115.7188,334 116.25,334.5 Z " fill="#000000"/><text fill="#000000" font-family="sans-serif" font-size="12" lengthAdjust="spacingAndGlyphs" textLength="60" x="134.75" y="342.9102">ProdutoBD</text><line style="stroke:#A80036;stroke-width:1.5;" x1="8" x2="289" y1="354" y2="354"/><line style="stroke:#A80036;stroke-width:1.5;" x1="8" x2="289" y1="362" y2="362"/><ellipse cx="18" cy="373" fill="#84BE84" rx="3" ry="3" style="stroke:#038048;stroke-width:1.0;"/><text fill="#000000" font-family="sans-serif" font-size="11" lengthAdjust="spacingAndGlyphs" textLength="180" x="27" y="377.4189">Produto getProdutoById(int idProduto)</text><ellipse cx="18" cy="386.8359" fill="#84BE84" rx="3" ry="3" style="stroke:#038048;stroke-width:1.0;"/><text fill="#000000" font-family="sans-serif" font-size="11" lengthAdjust="spacingAndGlyphs" textLength="257" x="27" y="391.2549">boolean validarProdutoId(int idFarmacia, int idProduto)</text><!--MD5=[d4dacc50d49878ba7c621dfc80a2e1ce]
class Produto--><rect codeLine="16" fill="#FEFECE" filter="url(#f1onxk83y18fqy)" height="61.8359" id="Produto" style="stroke:#A80036;stroke-width:1.5;" width="216" x="261.5" y="476"/><ellipse cx="343.75" cy="492" fill="#ADD1B2" rx="11" ry="11" style="stroke:#A80036;stroke-width:1.0;"/><path d="M345.75,488.5 Q345.9531,488 346.1875,487.75 Q346.4219,487.5 346.6875,487.5 Q347.1563,487.5 347.4531,487.7813 Q347.75,488.0625 347.75,488.7188 L347.75,490.2813 Q347.75,490.9375 347.4688,491.2188 Q347.1875,491.5 346.75,491.5 Q346.3594,491.5 346.1094,491.3281 Q345.8594,491.1563 345.75,490.7031 Q345.7031,490.3906 345.5313,490.2188 Q345.2188,489.8906 344.6563,489.7031 Q344.0938,489.5 343.5313,489.5 Q342.8281,489.5 342.2344,489.7813 Q341.6563,490.0625 341.2031,490.6875 Q340.75,491.3125 340.75,492.1719 L340.75,493.0938 Q340.75,494.125 341.5938,494.8125 Q342.4375,495.5 343.9375,495.5 Q344.8281,495.5 345.4531,495.2969 Q345.8125,495.1875 346.2188,494.8281 Q346.4844,494.625 346.625,494.5625 Q346.7656,494.5 346.9375,494.5 Q347.2656,494.5 347.5,494.7656 Q347.75,495.0156 347.75,495.375 Q347.75,495.7188 347.4063,496.125 Q346.9063,496.7188 346.1094,497.0469 Q345.0625,497.5 343.7813,497.5 Q342.2813,497.5 341.0781,496.9063 Q340.1094,496.4375 339.4219,495.4219 Q338.75,494.4063 338.75,493.2031 L338.75,492.1094 Q338.75,490.8594 339.3438,489.7656 Q339.9531,488.6719 341,488.0938 Q342.0625,487.5 343.25,487.5 Q343.9688,487.5 344.5938,487.75 Q345.2188,488 345.75,488.5 Z " fill="#000000"/><text fill="#000000" font-family="sans-serif" font-size="12" lengthAdjust="spacingAndGlyphs" textLength="43" x="364.25" y="496.9102">Produto</text><line style="stroke:#A80036;stroke-width:1.5;" x1="262.5" x2="476.5" y1="508" y2="508"/><line style="stroke:#A80036;stroke-width:1.5;" x1="262.5" x2="476.5" y1="516" y2="516"/><ellipse cx="272.5" cy="527" fill="#84BE84" rx="3" ry="3" style="stroke:#038048;stroke-width:1.0;"/><text fill="#000000" font-family="sans-serif" font-size="11" lengthAdjust="spacingAndGlyphs" textLength="190" x="281.5" y="531.4189">void temStockSuficiente(int quantidade)</text><!--MD5=[6613c9cd406ef433ff06f5e98b28abd9]
class Farmacia--><rect codeLine="19" fill="#FEFECE" filter="url(#f1onxk83y18fqy)" height="48" id="Farmacia" style="stroke:#A80036;stroke-width:1.5;" width="84" x="325.5" y="336"/><ellipse cx="340.5" cy="352" fill="#ADD1B2" rx="11" ry="11" style="stroke:#A80036;stroke-width:1.0;"/><path d="M342.5,348.5 Q342.7031,348 342.9375,347.75 Q343.1719,347.5 343.4375,347.5 Q343.9063,347.5 344.2031,347.7813 Q344.5,348.0625 344.5,348.7188 L344.5,350.2813 Q344.5,350.9375 344.2188,351.2188 Q343.9375,351.5 343.5,351.5 Q343.1094,351.5 342.8594,351.3281 Q342.6094,351.1563 342.5,350.7031 Q342.4531,350.3906 342.2813,350.2188 Q341.9688,349.8906 341.4063,349.7031 Q340.8438,349.5 340.2813,349.5 Q339.5781,349.5 338.9844,349.7813 Q338.4063,350.0625 337.9531,350.6875 Q337.5,351.3125 337.5,352.1719 L337.5,353.0938 Q337.5,354.125 338.3438,354.8125 Q339.1875,355.5 340.6875,355.5 Q341.5781,355.5 342.2031,355.2969 Q342.5625,355.1875 342.9688,354.8281 Q343.2344,354.625 343.375,354.5625 Q343.5156,354.5 343.6875,354.5 Q344.0156,354.5 344.25,354.7656 Q344.5,355.0156 344.5,355.375 Q344.5,355.7188 344.1563,356.125 Q343.6563,356.7188 342.8594,357.0469 Q341.8125,357.5 340.5313,357.5 Q339.0313,357.5 337.8281,356.9063 Q336.8594,356.4375 336.1719,355.4219 Q335.5,354.4063 335.5,353.2031 L335.5,352.1094 Q335.5,350.8594 336.0938,349.7656 Q336.7031,348.6719 337.75,348.0938 Q338.8125,347.5 340,347.5 Q340.7188,347.5 341.3438,347.75 Q341.9688,348 342.5,348.5 Z " fill="#000000"/><text fill="#000000" font-family="sans-serif" font-size="12" lengthAdjust="spacingAndGlyphs" textLength="52" x="354.5" y="356.9102">Farmacia</text><line style="stroke:#A80036;stroke-width:1.5;" x1="326.5" x2="408.5" y1="368" y2="368"/><line style="stroke:#A80036;stroke-width:1.5;" x1="326.5" x2="408.5" y1="376" y2="376"/><!--MD5=[974ba70e7525909cc02d983bbe10b84a]
class CarrinhoCompras--><rect codeLine="20" fill="#FEFECE" filter="url(#f1onxk83y18fqy)" height="61.8359" id="CarrinhoCompras" style="stroke:#A80036;stroke-width:1.5;" width="288" x="515.5" y="329"/><ellipse cx="605.25" cy="345" fill="#ADD1B2" rx="11" ry="11" style="stroke:#A80036;stroke-width:1.0;"/><path d="M607.25,341.5 Q607.4531,341 607.6875,340.75 Q607.9219,340.5 608.1875,340.5 Q608.6563,340.5 608.9531,340.7813 Q609.25,341.0625 609.25,341.7188 L609.25,343.2813 Q609.25,343.9375 608.9688,344.2188 Q608.6875,344.5 608.25,344.5 Q607.8594,344.5 607.6094,344.3281 Q607.3594,344.1563 607.25,343.7031 Q607.2031,343.3906 607.0313,343.2188 Q606.7188,342.8906 606.1563,342.7031 Q605.5938,342.5 605.0313,342.5 Q604.3281,342.5 603.7344,342.7813 Q603.1563,343.0625 602.7031,343.6875 Q602.25,344.3125 602.25,345.1719 L602.25,346.0938 Q602.25,347.125 603.0938,347.8125 Q603.9375,348.5 605.4375,348.5 Q606.3281,348.5 606.9531,348.2969 Q607.3125,348.1875 607.7188,347.8281 Q607.9844,347.625 608.125,347.5625 Q608.2656,347.5 608.4375,347.5 Q608.7656,347.5 609,347.7656 Q609.25,348.0156 609.25,348.375 Q609.25,348.7188 608.9063,349.125 Q608.4063,349.7188 607.6094,350.0469 Q606.5625,350.5 605.2813,350.5 Q603.7813,350.5 602.5781,349.9063 Q601.6094,349.4375 600.9219,348.4219 Q600.25,347.4063 600.25,346.2031 L600.25,345.1094 Q600.25,343.8594 600.8438,342.7656 Q601.4531,341.6719 602.5,341.0938 Q603.5625,340.5 604.75,340.5 Q605.4688,340.5 606.0938,340.75 Q606.7188,341 607.25,341.5 Z " fill="#000000"/><text fill="#000000" font-family="sans-serif" font-size="12" lengthAdjust="spacingAndGlyphs" textLength="100" x="625.75" y="349.9102">CarrinhoCompras</text><line style="stroke:#A80036;stroke-width:1.5;" x1="516.5" x2="802.5" y1="361" y2="361"/><line style="stroke:#A80036;stroke-width:1.5;" x1="516.5" x2="802.5" y1="369" y2="369"/><ellipse cx="526.5" cy="380" fill="#84BE84" rx="3" ry="3" style="stroke:#038048;stroke-width:1.0;"/><text fill="#000000" font-family="sans-serif" font-size="11" lengthAdjust="spacingAndGlyphs" textLength="262" x="535.5" y="384.4189">void adicionarProduto(Produto produto, int quantidade)</text><!--MD5=[9c5439856a1aad23e042de9a355b14cb]
class BaseDados--><rect codeLine="23" fill="#FEFECE" filter="url(#f1onxk83y18fqy)" height="61.8359" id="BaseDados" style="stroke:#A80036;stroke-width:1.5;" width="160" x="66.5" y="476"/><ellipse cx="109.4" cy="492" fill="#ADD1B2" rx="11" ry="11" style="stroke:#A80036;stroke-width:1.0;"/><path d="M111.4,488.5 Q111.6031,488 111.8375,487.75 Q112.0719,487.5 112.3375,487.5 Q112.8063,487.5 113.1031,487.7813 Q113.4,488.0625 113.4,488.7188 L113.4,490.2813 Q113.4,490.9375 113.1188,491.2188 Q112.8375,491.5 112.4,491.5 Q112.0094,491.5 111.7594,491.3281 Q111.5094,491.1563 111.4,490.7031 Q111.3531,490.3906 111.1813,490.2188 Q110.8688,489.8906 110.3063,489.7031 Q109.7438,489.5 109.1813,489.5 Q108.4781,489.5 107.8844,489.7813 Q107.3063,490.0625 106.8531,490.6875 Q106.4,491.3125 106.4,492.1719 L106.4,493.0938 Q106.4,494.125 107.2438,494.8125 Q108.0875,495.5 109.5875,495.5 Q110.4781,495.5 111.1031,495.2969 Q111.4625,495.1875 111.8688,494.8281 Q112.1344,494.625 112.275,494.5625 Q112.4156,494.5 112.5875,494.5 Q112.9156,494.5 113.15,494.7656 Q113.4,495.0156 113.4,495.375 Q113.4,495.7188 113.0563,496.125 Q112.5563,496.7188 111.7594,497.0469 Q110.7125,497.5 109.4313,497.5 Q107.9313,497.5 106.7281,496.9063 Q105.7594,496.4375 105.0719,495.4219 Q104.4,494.4063 104.4,493.2031 L104.4,492.1094 Q104.4,490.8594 104.9938,489.7656 Q105.6031,488.6719 106.65,488.0938 Q107.7125,487.5 108.9,487.5 Q109.6188,487.5 110.2438,487.75 Q110.8688,488 111.4,488.5 Z " fill="#000000"/><text fill="#000000" font-family="sans-serif" font-size="12" lengthAdjust="spacingAndGlyphs" textLength="66" x="129.6" y="496.9102">BaseDados</text><line style="stroke:#A80036;stroke-width:1.5;" x1="67.5" x2="225.5" y1="508" y2="508"/><line style="stroke:#A80036;stroke-width:1.5;" x1="67.5" x2="225.5" y1="516" y2="516"/><ellipse cx="77.5" cy="527" fill="#84BE84" rx="3" ry="3" style="stroke:#038048;stroke-width:1.0;"/><text fill="#000000" font-family="sans-serif" font-size="11" lengthAdjust="spacingAndGlyphs" textLength="134" x="86.5" y="531.4189">Connection getConnection()</text><!--MD5=[6bb56524fd3db3c3f09b61edc7de3c51]
link CatalogoUI to AdicionarProdutoCarrinhoController--><path codeLine="27" d="M462.5,55.28 C462.5,70.2 462.5,90.49 462.5,110.7 " fill="none" id="CatalogoUI-to-AdicionarProdutoCarrinhoController" style="stroke:#A80036;stroke-width:1.0;stroke-dasharray:7.0,7.0;"/><polygon fill="#A80036" points="462.5,115.83,466.5257,106.8415,462.5143,110.83,458.5257,106.8186,462.5,115.83" style="stroke:#A80036;stroke-width:1.0;"/><!--MD5=[db4a5ac14aaeb2d946b80db0d46ff947]
link Farmacia to Produto--><path codeLine="28" d="M367.82,384.3 C368.14,407.64 368.64,443.86 369.01,470.73 " fill="none" id="Farmacia-to-Produto" style="stroke:#A80036;stroke-width:1.0;"/><polygon fill="#A80036" points="369.09,475.97,372.961,466.9138,369.0186,470.9705,364.9618,467.0281,369.09,475.97" style="stroke:#A80036;stroke-width:1.0;"/><text fill="#000000" font-family="sans-serif" font-size="13" lengthAdjust="spacingAndGlyphs" textLength="38" x="370.5" y="442.4951">possui</text><text fill="#000000" font-family="sans-serif" font-size="13" lengthAdjust="spacingAndGlyphs" textLength="7" x="360.0846" y="405.3051">1</text><text fill="#000000" font-family="sans-serif" font-size="13" lengthAdjust="spacingAndGlyphs" textLength="20" x="346.8128" y="464.9837">0..*</text><!--MD5=[f2b3d9c39c86acb49b623b19ab504e36]
link AdicionarProdutoCarrinhoController to ProdutoBD--><path codeLine="29" d="M329.79,261.14 C292.94,281.03 254.26,301.91 222.13,319.25 " fill="none" id="AdicionarProdutoCarrinhoController-to-ProdutoBD" style="stroke:#A80036;stroke-width:1.0;stroke-dasharray:7.0,7.0;"/><polygon fill="#A80036" points="217.44,321.78,227.2604,321.0312,221.8414,319.4078,223.4648,313.9889,217.44,321.78" style="stroke:#A80036;stroke-width:1.0;"/><!--MD5=[70d609806c88c05daba2794d8e6d1103]
link AdicionarProdutoCarrinhoController to Produto--><path codeLine="30" d="M459.67,261.24 C455.3,314.34 444.41,387.34 417.5,446 C413.42,454.9 407.73,463.63 401.69,471.55 " fill="none" id="AdicionarProdutoCarrinhoController-to-Produto" style="stroke:#A80036;stroke-width:1.0;stroke-dasharray:7.0,7.0;"/><polygon fill="#A80036" points="398.31,475.87,407.0045,471.2434,401.3896,471.931,400.7021,466.316,398.31,475.87" style="stroke:#A80036;stroke-width:1.0;"/><!--MD5=[13ad64eb49d11895b15dedd182a09dd2]
link ProdutoBD to BaseDados--><path codeLine="31" d="M147.98,398.34 C147.68,420.56 147.29,448.59 146.99,470.48 " fill="none" id="ProdutoBD-to-BaseDados" style="stroke:#A80036;stroke-width:1.0;stroke-dasharray:7.0,7.0;"/><polygon fill="#A80036" points="146.92,475.62,151.0482,466.6781,146.9914,470.6205,143.049,466.5638,146.92,475.62" style="stroke:#A80036;stroke-width:1.0;"/><!--MD5=[b104cd17e960f3e38e425aba2c830c23]
link ProdutoBD to Produto--><path codeLine="32" d="M205.13,398.15 C240.25,421.2 285,450.56 318.93,472.82 " fill="none" id="ProdutoBD-to-Produto" style="stroke:#A80036;stroke-width:1.0;stroke-dasharray:7.0,7.0;"/><polygon fill="#A80036" points="323.43,475.78,318.0946,467.5015,319.2479,473.0395,313.7099,474.1928,323.43,475.78" style="stroke:#A80036;stroke-width:1.0;"/><!--MD5=[e0671c9e230f3cebfbb5ee7ba5e70e79]
link AdicionarProdutoCarrinhoController to CarrinhoCompras--><path codeLine="33" d="M545.76,261.14 C571.76,283.51 599.21,307.13 620.63,325.56 " fill="none" id="AdicionarProdutoCarrinhoController-to-CarrinhoCompras" style="stroke:#A80036;stroke-width:1.0;stroke-dasharray:7.0,7.0;"/><polygon fill="#A80036" points="624.56,328.94,620.3464,320.038,620.7698,325.679,615.1288,326.1023,624.56,328.94" style="stroke:#A80036;stroke-width:1.0;"/><!--MD5=[2598abd43de527e06b8bb8afb9e6a1db]
@startuml

class AdicionarProdutoCarrinhoController{
-int idProduto
-Produto produto;
-ProdutoBD produtoBD;
+ boolean validarProdutoId(int idFarmacia, int idProduto)
+int getStock()
+void adicionarAoCarrinho(int quantidade)
+void setIdProduto(int idProduto)
}
class CatalogoUI
class ProdutoBD{
 + Produto getProdutoById(int idProduto)
 +boolean validarProdutoId(int idFarmacia, int idProduto)
}
class Produto{
+void temStockSuficiente(int quantidade)
}
class Farmacia
class CarrinhoCompras{
+void adicionarProduto(Produto produto, int quantidade)
}
class BaseDados{
+Connection getConnection()
}

CatalogoUI ..> AdicionarProdutoCarrinhoController
Farmacia "1" - -> "0..*" Produto : possui
AdicionarProdutoCarrinhoController ..> ProdutoBD
AdicionarProdutoCarrinhoController ..> Produto
ProdutoBD ..> BaseDados
ProdutoBD ..> Produto
AdicionarProdutoCarrinhoController ..>CarrinhoCompras


@enduml

PlantUML version 1.2020.23(Sun Dec 13 19:14:58 GMT 2020)
(GPL source distribution)
Java Runtime: OpenJDK Runtime Environment
JVM: OpenJDK 64-Bit Server VM
Default Encoding: Cp1252
Language: en
Country: GB
--></g></svg>