<?xml version="1.0" encoding="UTF-8" standalone="no"?><svg xmlns="http://www.w3.org/2000/svg" xmlns:xlink="http://www.w3.org/1999/xlink" contentScriptType="application/ecmascript" contentStyleType="text/css" height="401px" preserveAspectRatio="none" style="width:1540px;height:401px;" version="1.1" viewBox="0 0 1540 401" width="1540px" zoomAndPan="magnify"><defs><filter height="300%" id="fe8jawqvfwr03" width="300%" x="-1" y="-1"><feGaussianBlur result="blurOut" stdDeviation="2.0"/><feColorMatrix in="blurOut" result="blurOut2" type="matrix" values="0 0 0 0 0 0 0 0 0 0 0 0 0 0 0 0 0 0 .4 0"/><feOffset dx="4.0" dy="4.0" in="blurOut2" result="blurOut3"/><feBlend in="SourceGraphic" in2="blurOut3" mode="normal"/></filter></defs><g><!--MD5=[13d8696c3ad6908a6d73f31eb0fe0bb4]
class AdicionarLugarDroneUI--><rect codeLine="3" fill="#FEFECE" filter="url(#fe8jawqvfwr03)" height="48" id="AdicionarLugarDroneUI" style="stroke:#A80036;stroke-width:1.5;" width="161" x="7" y="170"/><ellipse cx="22" cy="186" fill="#ADD1B2" rx="11" ry="11" style="stroke:#A80036;stroke-width:1.0;"/><path d="M24,182.5 Q24.2031,182 24.4375,181.75 Q24.6719,181.5 24.9375,181.5 Q25.4063,181.5 25.7031,181.7813 Q26,182.0625 26,182.7188 L26,184.2813 Q26,184.9375 25.7188,185.2188 Q25.4375,185.5 25,185.5 Q24.6094,185.5 24.3594,185.3281 Q24.1094,185.1563 24,184.7031 Q23.9531,184.3906 23.7813,184.2188 Q23.4688,183.8906 22.9063,183.7031 Q22.3438,183.5 21.7813,183.5 Q21.0781,183.5 20.4844,183.7813 Q19.9063,184.0625 19.4531,184.6875 Q19,185.3125 19,186.1719 L19,187.0938 Q19,188.125 19.8438,188.8125 Q20.6875,189.5 22.1875,189.5 Q23.0781,189.5 23.7031,189.2969 Q24.0625,189.1875 24.4688,188.8281 Q24.7344,188.625 24.875,188.5625 Q25.0156,188.5 25.1875,188.5 Q25.5156,188.5 25.75,188.7656 Q26,189.0156 26,189.375 Q26,189.7188 25.6563,190.125 Q25.1563,190.7188 24.3594,191.0469 Q23.3125,191.5 22.0313,191.5 Q20.5313,191.5 19.3281,190.9063 Q18.3594,190.4375 17.6719,189.4219 Q17,188.4063 17,187.2031 L17,186.1094 Q17,184.8594 17.5938,183.7656 Q18.2031,182.6719 19.25,182.0938 Q20.3125,181.5 21.5,181.5 Q22.2188,181.5 22.8438,181.75 Q23.4688,182 24,182.5 Z " fill="#000000"/><text fill="#000000" font-family="sans-serif" font-size="12" lengthAdjust="spacingAndGlyphs" textLength="129" x="36" y="190.9102">AdicionarLugarDroneUI</text><line style="stroke:#A80036;stroke-width:1.5;" x1="8" x2="167" y1="202" y2="202"/><line style="stroke:#A80036;stroke-width:1.5;" x1="8" x2="167" y1="210" y2="210"/><!--MD5=[d980aa09d1791b2c2945f8e7e482efda]
class AdicionarLugarDroneController--><rect codeLine="6" fill="#FEFECE" filter="url(#fe8jawqvfwr03)" height="89.5078" id="AdicionarLugarDroneController" style="stroke:#A80036;stroke-width:1.5;" width="496" x="228" y="149"/><ellipse cx="386.25" cy="165" fill="#ADD1B2" rx="11" ry="11" style="stroke:#A80036;stroke-width:1.0;"/><path d="M388.25,161.5 Q388.4531,161 388.6875,160.75 Q388.9219,160.5 389.1875,160.5 Q389.6563,160.5 389.9531,160.7813 Q390.25,161.0625 390.25,161.7188 L390.25,163.2813 Q390.25,163.9375 389.9688,164.2188 Q389.6875,164.5 389.25,164.5 Q388.8594,164.5 388.6094,164.3281 Q388.3594,164.1563 388.25,163.7031 Q388.2031,163.3906 388.0313,163.2188 Q387.7188,162.8906 387.1563,162.7031 Q386.5938,162.5 386.0313,162.5 Q385.3281,162.5 384.7344,162.7813 Q384.1563,163.0625 383.7031,163.6875 Q383.25,164.3125 383.25,165.1719 L383.25,166.0938 Q383.25,167.125 384.0938,167.8125 Q384.9375,168.5 386.4375,168.5 Q387.3281,168.5 387.9531,168.2969 Q388.3125,168.1875 388.7188,167.8281 Q388.9844,167.625 389.125,167.5625 Q389.2656,167.5 389.4375,167.5 Q389.7656,167.5 390,167.7656 Q390.25,168.0156 390.25,168.375 Q390.25,168.7188 389.9063,169.125 Q389.4063,169.7188 388.6094,170.0469 Q387.5625,170.5 386.2813,170.5 Q384.7813,170.5 383.5781,169.9063 Q382.6094,169.4375 381.9219,168.4219 Q381.25,167.4063 381.25,166.2031 L381.25,165.1094 Q381.25,163.8594 381.8438,162.7656 Q382.4531,161.6719 383.5,161.0938 Q384.5625,160.5 385.75,160.5 Q386.4688,160.5 387.0938,160.75 Q387.7188,161 388.25,161.5 Z " fill="#000000"/><text fill="#000000" font-family="sans-serif" font-size="12" lengthAdjust="spacingAndGlyphs" textLength="171" x="406.75" y="169.9102">AdicionarLugarDroneController</text><line style="stroke:#A80036;stroke-width:1.5;" x1="229" x2="723" y1="181" y2="181"/><line style="stroke:#A80036;stroke-width:1.5;" x1="229" x2="723" y1="189" y2="189"/><ellipse cx="239" cy="200" fill="#84BE84" rx="3" ry="3" style="stroke:#038048;stroke-width:1.0;"/><text fill="#000000" font-family="sans-serif" font-size="11" lengthAdjust="spacingAndGlyphs" textLength="470" x="248" y="204.4189">validaParametros(int lugaresSemCarregamento, int lugaresComCarregamento,capacidadeEnergia)</text><ellipse cx="239" cy="213.8359" fill="#84BE84" rx="3" ry="3" style="stroke:#038048;stroke-width:1.0;"/><text fill="#000000" font-family="sans-serif" font-size="11" lengthAdjust="spacingAndGlyphs" textLength="127" x="248" y="218.2549">int getFarmaciaByGestor()</text><ellipse cx="239" cy="227.6719" fill="#84BE84" rx="3" ry="3" style="stroke:#038048;stroke-width:1.0;"/><text fill="#000000" font-family="sans-serif" font-size="11" lengthAdjust="spacingAndGlyphs" textLength="92" x="248" y="232.0908">setLugaresDrone()</text><!--MD5=[ffcdea4b3e2d37271d31ffe210ac8423]
class ValidaParametros--><rect codeLine="13" fill="#FEFECE" filter="url(#fe8jawqvfwr03)" height="61.8359" id="ValidaParametros" style="stroke:#A80036;stroke-width:1.5;" width="496" x="820" y="7"/><ellipse cx="1014.25" cy="23" fill="#ADD1B2" rx="11" ry="11" style="stroke:#A80036;stroke-width:1.0;"/><path d="M1016.25,19.5 Q1016.4531,19 1016.6875,18.75 Q1016.9219,18.5 1017.1875,18.5 Q1017.6563,18.5 1017.9531,18.7813 Q1018.25,19.0625 1018.25,19.7188 L1018.25,21.2813 Q1018.25,21.9375 1017.9688,22.2188 Q1017.6875,22.5 1017.25,22.5 Q1016.8594,22.5 1016.6094,22.3281 Q1016.3594,22.1563 1016.25,21.7031 Q1016.2031,21.3906 1016.0313,21.2188 Q1015.7188,20.8906 1015.1563,20.7031 Q1014.5938,20.5 1014.0313,20.5 Q1013.3281,20.5 1012.7344,20.7813 Q1012.1563,21.0625 1011.7031,21.6875 Q1011.25,22.3125 1011.25,23.1719 L1011.25,24.0938 Q1011.25,25.125 1012.0938,25.8125 Q1012.9375,26.5 1014.4375,26.5 Q1015.3281,26.5 1015.9531,26.2969 Q1016.3125,26.1875 1016.7188,25.8281 Q1016.9844,25.625 1017.125,25.5625 Q1017.2656,25.5 1017.4375,25.5 Q1017.7656,25.5 1018,25.7656 Q1018.25,26.0156 1018.25,26.375 Q1018.25,26.7188 1017.9063,27.125 Q1017.4063,27.7188 1016.6094,28.0469 Q1015.5625,28.5 1014.2813,28.5 Q1012.7813,28.5 1011.5781,27.9063 Q1010.6094,27.4375 1009.9219,26.4219 Q1009.25,25.4063 1009.25,24.2031 L1009.25,23.1094 Q1009.25,21.8594 1009.8438,20.7656 Q1010.4531,19.6719 1011.5,19.0938 Q1012.5625,18.5 1013.75,18.5 Q1014.4688,18.5 1015.0938,18.75 Q1015.7188,19 1016.25,19.5 Z " fill="#000000"/><text fill="#000000" font-family="sans-serif" font-size="12" lengthAdjust="spacingAndGlyphs" textLength="99" x="1034.75" y="27.9102">ValidaParametros</text><line style="stroke:#A80036;stroke-width:1.5;" x1="821" x2="1315" y1="39" y2="39"/><line style="stroke:#A80036;stroke-width:1.5;" x1="821" x2="1315" y1="47" y2="47"/><ellipse cx="831" cy="58" fill="#84BE84" rx="3" ry="3" style="stroke:#038048;stroke-width:1.0;"/><text fill="#000000" font-family="sans-serif" font-size="11" lengthAdjust="spacingAndGlyphs" textLength="470" x="840" y="62.4189">validaParametros(int lugaresSemCarregamento, int lugaresComCarregamento,capacidadeEnergia)</text><!--MD5=[380d12a68ed0046a60f31008a02875d0]
class AplicacaoPOT--><rect codeLine="17" fill="#FEFECE" filter="url(#fe8jawqvfwr03)" height="75.6719" id="AplicacaoPOT" style="stroke:#A80036;stroke-width:1.5;" width="111" x="1012.5" y="104"/><ellipse cx="1028.4" cy="120" fill="#ADD1B2" rx="11" ry="11" style="stroke:#A80036;stroke-width:1.0;"/><path d="M1030.4,116.5 Q1030.6031,116 1030.8375,115.75 Q1031.0719,115.5 1031.3375,115.5 Q1031.8063,115.5 1032.1031,115.7813 Q1032.4,116.0625 1032.4,116.7188 L1032.4,118.2813 Q1032.4,118.9375 1032.1188,119.2188 Q1031.8375,119.5 1031.4,119.5 Q1031.0094,119.5 1030.7594,119.3281 Q1030.5094,119.1563 1030.4,118.7031 Q1030.3531,118.3906 1030.1813,118.2188 Q1029.8688,117.8906 1029.3063,117.7031 Q1028.7438,117.5 1028.1813,117.5 Q1027.4781,117.5 1026.8844,117.7813 Q1026.3063,118.0625 1025.8531,118.6875 Q1025.4,119.3125 1025.4,120.1719 L1025.4,121.0938 Q1025.4,122.125 1026.2438,122.8125 Q1027.0875,123.5 1028.5875,123.5 Q1029.4781,123.5 1030.1031,123.2969 Q1030.4625,123.1875 1030.8688,122.8281 Q1031.1344,122.625 1031.275,122.5625 Q1031.4156,122.5 1031.5875,122.5 Q1031.9156,122.5 1032.15,122.7656 Q1032.4,123.0156 1032.4,123.375 Q1032.4,123.7188 1032.0563,124.125 Q1031.5563,124.7188 1030.7594,125.0469 Q1029.7125,125.5 1028.4313,125.5 Q1026.9313,125.5 1025.7281,124.9063 Q1024.7594,124.4375 1024.0719,123.4219 Q1023.4,122.4063 1023.4,121.2031 L1023.4,120.1094 Q1023.4,118.8594 1023.9938,117.7656 Q1024.6031,116.6719 1025.65,116.0938 Q1026.7125,115.5 1027.9,115.5 Q1028.6188,115.5 1029.2438,115.75 Q1029.8688,116 1030.4,116.5 Z " fill="#000000"/><text fill="#000000" font-family="sans-serif" font-size="12" lengthAdjust="spacingAndGlyphs" textLength="77" x="1042.6" y="124.9102">AplicacaoPOT</text><line style="stroke:#A80036;stroke-width:1.5;" x1="1013.5" x2="1122.5" y1="136" y2="136"/><line style="stroke:#A80036;stroke-width:1.5;" x1="1013.5" x2="1122.5" y1="144" y2="144"/><ellipse cx="1023.5" cy="155" fill="#84BE84" rx="3" ry="3" style="stroke:#038048;stroke-width:1.0;"/><text fill="#000000" font-family="sans-serif" font-size="11" lengthAdjust="spacingAndGlyphs" textLength="64" x="1032.5" y="159.4189">getInstance()</text><ellipse cx="1023.5" cy="168.8359" fill="#84BE84" rx="3" ry="3" style="stroke:#038048;stroke-width:1.0;"/><text fill="#000000" font-family="sans-serif" font-size="11" lengthAdjust="spacingAndGlyphs" textLength="85" x="1032.5" y="173.2549">getSessaoAtual()</text><!--MD5=[1e13576e8c070e32200b62ceaa1f39ec]
class SessaoUtilizador--><rect codeLine="22" fill="#FEFECE" filter="url(#fe8jawqvfwr03)" height="61.8359" id="SessaoUtilizador" style="stroke:#A80036;stroke-width:1.5;" width="126" x="1005" y="215"/><ellipse cx="1020" cy="231" fill="#ADD1B2" rx="11" ry="11" style="stroke:#A80036;stroke-width:1.0;"/><path d="M1022,227.5 Q1022.2031,227 1022.4375,226.75 Q1022.6719,226.5 1022.9375,226.5 Q1023.4063,226.5 1023.7031,226.7813 Q1024,227.0625 1024,227.7188 L1024,229.2813 Q1024,229.9375 1023.7188,230.2188 Q1023.4375,230.5 1023,230.5 Q1022.6094,230.5 1022.3594,230.3281 Q1022.1094,230.1563 1022,229.7031 Q1021.9531,229.3906 1021.7813,229.2188 Q1021.4688,228.8906 1020.9063,228.7031 Q1020.3438,228.5 1019.7813,228.5 Q1019.0781,228.5 1018.4844,228.7813 Q1017.9063,229.0625 1017.4531,229.6875 Q1017,230.3125 1017,231.1719 L1017,232.0938 Q1017,233.125 1017.8438,233.8125 Q1018.6875,234.5 1020.1875,234.5 Q1021.0781,234.5 1021.7031,234.2969 Q1022.0625,234.1875 1022.4688,233.8281 Q1022.7344,233.625 1022.875,233.5625 Q1023.0156,233.5 1023.1875,233.5 Q1023.5156,233.5 1023.75,233.7656 Q1024,234.0156 1024,234.375 Q1024,234.7188 1023.6563,235.125 Q1023.1563,235.7188 1022.3594,236.0469 Q1021.3125,236.5 1020.0313,236.5 Q1018.5313,236.5 1017.3281,235.9063 Q1016.3594,235.4375 1015.6719,234.4219 Q1015,233.4063 1015,232.2031 L1015,231.1094 Q1015,229.8594 1015.5938,228.7656 Q1016.2031,227.6719 1017.25,227.0938 Q1018.3125,226.5 1019.5,226.5 Q1020.2188,226.5 1020.8438,226.75 Q1021.4688,227 1022,227.5 Z " fill="#000000"/><text fill="#000000" font-family="sans-serif" font-size="12" lengthAdjust="spacingAndGlyphs" textLength="94" x="1034" y="235.9102">SessaoUtilizador</text><line style="stroke:#A80036;stroke-width:1.5;" x1="1006" x2="1130" y1="247" y2="247"/><line style="stroke:#A80036;stroke-width:1.5;" x1="1006" x2="1130" y1="255" y2="255"/><ellipse cx="1016" cy="266" fill="#84BE84" rx="3" ry="3" style="stroke:#038048;stroke-width:1.0;"/><text fill="#000000" font-family="sans-serif" font-size="11" lengthAdjust="spacingAndGlyphs" textLength="91" x="1025" y="270.4189">getEmailUtilizador()</text><!--MD5=[3707309d909513970d98cd7082f3ca19]
class FarmaciaBD--><rect codeLine="26" fill="#FEFECE" filter="url(#fe8jawqvfwr03)" height="75.6719" id="FarmaciaBD" style="stroke:#A80036;stroke-width:1.5;" width="568" x="784" y="312"/><ellipse cx="1029.25" cy="328" fill="#ADD1B2" rx="11" ry="11" style="stroke:#A80036;stroke-width:1.0;"/><path d="M1031.25,324.5 Q1031.4531,324 1031.6875,323.75 Q1031.9219,323.5 1032.1875,323.5 Q1032.6563,323.5 1032.9531,323.7813 Q1033.25,324.0625 1033.25,324.7188 L1033.25,326.2813 Q1033.25,326.9375 1032.9688,327.2188 Q1032.6875,327.5 1032.25,327.5 Q1031.8594,327.5 1031.6094,327.3281 Q1031.3594,327.1563 1031.25,326.7031 Q1031.2031,326.3906 1031.0313,326.2188 Q1030.7188,325.8906 1030.1563,325.7031 Q1029.5938,325.5 1029.0313,325.5 Q1028.3281,325.5 1027.7344,325.7813 Q1027.1563,326.0625 1026.7031,326.6875 Q1026.25,327.3125 1026.25,328.1719 L1026.25,329.0938 Q1026.25,330.125 1027.0938,330.8125 Q1027.9375,331.5 1029.4375,331.5 Q1030.3281,331.5 1030.9531,331.2969 Q1031.3125,331.1875 1031.7188,330.8281 Q1031.9844,330.625 1032.125,330.5625 Q1032.2656,330.5 1032.4375,330.5 Q1032.7656,330.5 1033,330.7656 Q1033.25,331.0156 1033.25,331.375 Q1033.25,331.7188 1032.9063,332.125 Q1032.4063,332.7188 1031.6094,333.0469 Q1030.5625,333.5 1029.2813,333.5 Q1027.7813,333.5 1026.5781,332.9063 Q1025.6094,332.4375 1024.9219,331.4219 Q1024.25,330.4063 1024.25,329.2031 L1024.25,328.1094 Q1024.25,326.8594 1024.8438,325.7656 Q1025.4531,324.6719 1026.5,324.0938 Q1027.5625,323.5 1028.75,323.5 Q1029.4688,323.5 1030.0938,323.75 Q1030.7188,324 1031.25,324.5 Z " fill="#000000"/><text fill="#000000" font-family="sans-serif" font-size="12" lengthAdjust="spacingAndGlyphs" textLength="69" x="1049.75" y="332.9102">FarmaciaBD</text><line style="stroke:#A80036;stroke-width:1.5;" x1="785" x2="1351" y1="344" y2="344"/><line style="stroke:#A80036;stroke-width:1.5;" x1="785" x2="1351" y1="352" y2="352"/><ellipse cx="795" cy="363" fill="#84BE84" rx="3" ry="3" style="stroke:#038048;stroke-width:1.0;"/><text fill="#000000" font-family="sans-serif" font-size="11" lengthAdjust="spacingAndGlyphs" textLength="184" x="804" y="367.4189">Farmacia getFarmaciaByGestor(email)</text><ellipse cx="795" cy="376.8359" fill="#84BE84" rx="3" ry="3" style="stroke:#038048;stroke-width:1.0;"/><text fill="#000000" font-family="sans-serif" font-size="11" lengthAdjust="spacingAndGlyphs" textLength="542" x="804" y="381.2549">setLugaresDrone(int farmaciaID, int lugaresSemCarregamento, int lugaresComCarregamento,capacidadeEnergia)</text><!--MD5=[9c5439856a1aad23e042de9a355b14cb]
class BaseDados--><rect codeLine="31" fill="#FEFECE" filter="url(#fe8jawqvfwr03)" height="75.6719" id="BaseDados" style="stroke:#A80036;stroke-width:1.5;" width="114" x="1412" y="312"/><ellipse cx="1434.2" cy="328" fill="#ADD1B2" rx="11" ry="11" style="stroke:#A80036;stroke-width:1.0;"/><path d="M1436.2,324.5 Q1436.4031,324 1436.6375,323.75 Q1436.8719,323.5 1437.1375,323.5 Q1437.6063,323.5 1437.9031,323.7813 Q1438.2,324.0625 1438.2,324.7188 L1438.2,326.2813 Q1438.2,326.9375 1437.9188,327.2188 Q1437.6375,327.5 1437.2,327.5 Q1436.8094,327.5 1436.5594,327.3281 Q1436.3094,327.1563 1436.2,326.7031 Q1436.1531,326.3906 1435.9813,326.2188 Q1435.6688,325.8906 1435.1063,325.7031 Q1434.5438,325.5 1433.9813,325.5 Q1433.2781,325.5 1432.6844,325.7813 Q1432.1063,326.0625 1431.6531,326.6875 Q1431.2,327.3125 1431.2,328.1719 L1431.2,329.0938 Q1431.2,330.125 1432.0438,330.8125 Q1432.8875,331.5 1434.3875,331.5 Q1435.2781,331.5 1435.9031,331.2969 Q1436.2625,331.1875 1436.6688,330.8281 Q1436.9344,330.625 1437.075,330.5625 Q1437.2156,330.5 1437.3875,330.5 Q1437.7156,330.5 1437.95,330.7656 Q1438.2,331.0156 1438.2,331.375 Q1438.2,331.7188 1437.8563,332.125 Q1437.3563,332.7188 1436.5594,333.0469 Q1435.5125,333.5 1434.2313,333.5 Q1432.7313,333.5 1431.5281,332.9063 Q1430.5594,332.4375 1429.8719,331.4219 Q1429.2,330.4063 1429.2,329.2031 L1429.2,328.1094 Q1429.2,326.8594 1429.7938,325.7656 Q1430.4031,324.6719 1431.45,324.0938 Q1432.5125,323.5 1433.7,323.5 Q1434.4188,323.5 1435.0438,323.75 Q1435.6688,324 1436.2,324.5 Z " fill="#000000"/><text fill="#000000" font-family="sans-serif" font-size="12" lengthAdjust="spacingAndGlyphs" textLength="66" x="1449.8" y="332.9102">BaseDados</text><line style="stroke:#A80036;stroke-width:1.5;" x1="1413" x2="1525" y1="344" y2="344"/><line style="stroke:#A80036;stroke-width:1.5;" x1="1413" x2="1525" y1="352" y2="352"/><ellipse cx="1423" cy="363" fill="#84BE84" rx="3" ry="3" style="stroke:#038048;stroke-width:1.0;"/><text fill="#000000" font-family="sans-serif" font-size="11" lengthAdjust="spacingAndGlyphs" textLength="77" x="1432" y="367.4189">getConnection()</text><ellipse cx="1423" cy="376.8359" fill="#84BE84" rx="3" ry="3" style="stroke:#038048;stroke-width:1.0;"/><text fill="#000000" font-family="sans-serif" font-size="11" lengthAdjust="spacingAndGlyphs" textLength="88" x="1432" y="381.2549">closeConnection()</text><!--MD5=[a01ad6ce9be73f16f4b41a90abd0d235]
link AdicionarLugarDroneUI to AdicionarLugarDroneController--><path codeLine="36" d="M168.11,194 C184.78,194 203.19,194 222.48,194 " fill="none" id="AdicionarLugarDroneUI-to-AdicionarLugarDroneController" style="stroke:#A80036;stroke-width:1.0;stroke-dasharray:7.0,7.0;"/><polygon fill="#A80036" points="227.94,194,218.94,190,222.94,194,218.94,198,227.94,194" style="stroke:#A80036;stroke-width:1.0;"/><!--MD5=[c30fc4597fd3285ebd4cf8ca257274f7]
link AdicionarLugarDroneController to ValidaParametros--><path codeLine="38" d="M590.38,148.92 C647.7,127.46 718.77,102.87 784,86 C806.63,80.14 830.48,74.82 854.32,70.04 " fill="none" id="AdicionarLugarDroneController-to-ValidaParametros" style="stroke:#A80036;stroke-width:1.0;stroke-dasharray:7.0,7.0;"/><polygon fill="#A80036" points="859.41,69.02,849.8052,66.8412,854.5049,69.9896,851.3565,74.6894,859.41,69.02" style="stroke:#A80036;stroke-width:1.0;"/><!--MD5=[223c5a399b2237e16edbb297d9db1e8a]
link AdicionarLugarDroneController to AplicacaoPOT--><path codeLine="39" d="M724.22,172.21 C828.33,163.04 940.59,153.14 1007.27,147.26 " fill="none" id="AdicionarLugarDroneController-to-AplicacaoPOT" style="stroke:#A80036;stroke-width:1.0;stroke-dasharray:7.0,7.0;"/><polygon fill="#A80036" points="1012.39,146.81,1003.0805,143.5955,1007.4084,147.2382,1003.7656,151.5661,1012.39,146.81" style="stroke:#A80036;stroke-width:1.0;"/><!--MD5=[c0767d22a41364d7df8404f371ae1c42]
link AdicionarLugarDroneController to SessaoUtilizador--><path codeLine="40" d="M724.22,215.79 C824.48,224.63 932.31,234.13 999.7,240.07 " fill="none" id="AdicionarLugarDroneController-to-SessaoUtilizador" style="stroke:#A80036;stroke-width:1.0;stroke-dasharray:7.0,7.0;"/><polygon fill="#A80036" points="1004.88,240.53,996.2692,235.7494,999.8996,240.0876,995.5614,243.718,1004.88,240.53" style="stroke:#A80036;stroke-width:1.0;"/><!--MD5=[68bb1e5d93c5c34002bf37e7fa2cd255]
link AdicionarLugarDroneController to FarmaciaBD--><path codeLine="41" d="M603.7,239.04 C658.67,257.6 724.06,278.37 784,294 C806.74,299.93 830.64,305.57 854.53,310.82 " fill="none" id="AdicionarLugarDroneController-to-FarmaciaBD" style="stroke:#A80036;stroke-width:1.0;stroke-dasharray:7.0,7.0;"/><polygon fill="#A80036" points="859.62,311.93,851.6893,306.0901,854.7367,310.856,849.9709,313.9034,859.62,311.93" style="stroke:#A80036;stroke-width:1.0;"/><!--MD5=[dbd15f50e17d92579182b6d34e88172b]
link FarmaciaBD to BaseDados--><path codeLine="43" d="M1352.06,350 C1371.86,350 1390.33,350 1406.45,350 " fill="none" id="FarmaciaBD-to-BaseDados" style="stroke:#A80036;stroke-width:1.0;stroke-dasharray:7.0,7.0;"/><polygon fill="#A80036" points="1411.82,350,1402.82,346,1406.82,350,1402.82,354,1411.82,350" style="stroke:#A80036;stroke-width:1.0;"/><!--MD5=[f96ee4d272c56d710bbcb66a81f4d339]
@startuml
left to right direction

class AdicionarLugarDroneUI{
}

class AdicionarLugarDroneController{
+validaParametros(int lugaresSemCarregamento, int lugaresComCarregamento,capacidadeEnergia)
+int getFarmaciaByGestor()
+setLugaresDrone()
}


class ValidaParametros{
+validaParametros(int lugaresSemCarregamento, int lugaresComCarregamento,capacidadeEnergia)
}

class AplicacaoPOT{
+getInstance()
+getSessaoAtual()
}

class SessaoUtilizador{
+getEmailUtilizador()
}

class FarmaciaBD{
+Farmacia getFarmaciaByGestor(email)
+setLugaresDrone(int farmaciaID, int lugaresSemCarregamento, int lugaresComCarregamento,capacidadeEnergia)
}

class BaseDados{
+getConnection()
+closeConnection()
}

AdicionarLugarDroneUI ..> AdicionarLugarDroneController

AdicionarLugarDroneController ..> ValidaParametros
AdicionarLugarDroneController ..> AplicacaoPOT
AdicionarLugarDroneController ..> SessaoUtilizador
AdicionarLugarDroneController ..> FarmaciaBD

FarmaciaBD ..> BaseDados

@enduml

PlantUML version 1.2020.23(Sun Dec 13 19:14:58 GMT 2020)
(GPL source distribution)
Java Runtime: OpenJDK Runtime Environment
JVM: OpenJDK 64-Bit Server VM
Default Encoding: Cp1252
Language: pt
Country: PT
--></g></svg>