<?xml version="1.0" encoding="UTF-8" standalone="no"?><svg xmlns="http://www.w3.org/2000/svg" xmlns:xlink="http://www.w3.org/1999/xlink" contentScriptType="application/ecmascript" contentStyleType="text/css" height="484px" preserveAspectRatio="none" style="width:1085px;height:484px;" version="1.1" viewBox="0 0 1085 484" width="1085px" zoomAndPan="magnify"><defs><filter height="300%" id="fujf4vfyjdxk0" width="300%" x="-1" y="-1"><feGaussianBlur result="blurOut" stdDeviation="2.0"/><feColorMatrix in="blurOut" result="blurOut2" type="matrix" values="0 0 0 0 0 0 0 0 0 0 0 0 0 0 0 0 0 0 .4 0"/><feOffset dx="4.0" dy="4.0" in="blurOut2" result="blurOut3"/><feBlend in="SourceGraphic" in2="blurOut3" mode="normal"/></filter></defs><g><!--MD5=[cb77b689cb578cbd3c2bf1510b75f4a3]
class PedirProdutoTask--><rect codeLine="5" fill="#FEFECE" filter="url(#fujf4vfyjdxk0)" height="61.8359" id="PedirProdutoTask" style="stroke:#A80036;stroke-width:1.5;" width="349" x="7" y="215"/><ellipse cx="127.75" cy="231" fill="#ADD1B2" rx="11" ry="11" style="stroke:#A80036;stroke-width:1.0;"/><path d="M129.75,227.5 Q129.9531,227 130.1875,226.75 Q130.4219,226.5 130.6875,226.5 Q131.1563,226.5 131.4531,226.7813 Q131.75,227.0625 131.75,227.7188 L131.75,229.2813 Q131.75,229.9375 131.4688,230.2188 Q131.1875,230.5 130.75,230.5 Q130.3594,230.5 130.1094,230.3281 Q129.8594,230.1563 129.75,229.7031 Q129.7031,229.3906 129.5313,229.2188 Q129.2188,228.8906 128.6563,228.7031 Q128.0938,228.5 127.5313,228.5 Q126.8281,228.5 126.2344,228.7813 Q125.6563,229.0625 125.2031,229.6875 Q124.75,230.3125 124.75,231.1719 L124.75,232.0938 Q124.75,233.125 125.5938,233.8125 Q126.4375,234.5 127.9375,234.5 Q128.8281,234.5 129.4531,234.2969 Q129.8125,234.1875 130.2188,233.8281 Q130.4844,233.625 130.625,233.5625 Q130.7656,233.5 130.9375,233.5 Q131.2656,233.5 131.5,233.7656 Q131.75,234.0156 131.75,234.375 Q131.75,234.7188 131.4063,235.125 Q130.9063,235.7188 130.1094,236.0469 Q129.0625,236.5 127.7813,236.5 Q126.2813,236.5 125.0781,235.9063 Q124.1094,235.4375 123.4219,234.4219 Q122.75,233.4063 122.75,232.2031 L122.75,231.1094 Q122.75,229.8594 123.3438,228.7656 Q123.9531,227.6719 125,227.0938 Q126.0625,226.5 127.25,226.5 Q127.9688,226.5 128.5938,226.75 Q129.2188,227 129.75,227.5 Z " fill="#000000"/><text fill="#000000" font-family="sans-serif" font-size="12" lengthAdjust="spacingAndGlyphs" textLength="99" x="148.25" y="235.9102">PedirProdutoTask</text><line style="stroke:#A80036;stroke-width:1.5;" x1="8" x2="355" y1="247" y2="247"/><line style="stroke:#A80036;stroke-width:1.5;" x1="8" x2="355" y1="255" y2="255"/><text fill="#000000" font-family="sans-serif" font-size="11" lengthAdjust="spacingAndGlyphs" textLength="337" x="13" y="270.4189">+pedirProduto(idFarmaciaRecetora, produtoID, quantidadeNecessaria)</text><!--MD5=[380d12a68ed0046a60f31008a02875d0]
class AplicacaoPOT--><rect codeLine="9" fill="#FEFECE" filter="url(#fujf4vfyjdxk0)" height="75.6719" id="AplicacaoPOT" style="stroke:#A80036;stroke-width:1.5;" width="162" x="556.5" y="7"/><ellipse cx="595.35" cy="23" fill="#ADD1B2" rx="11" ry="11" style="stroke:#A80036;stroke-width:1.0;"/><path d="M597.35,19.5 Q597.5531,19 597.7875,18.75 Q598.0219,18.5 598.2875,18.5 Q598.7563,18.5 599.0531,18.7813 Q599.35,19.0625 599.35,19.7188 L599.35,21.2813 Q599.35,21.9375 599.0688,22.2188 Q598.7875,22.5 598.35,22.5 Q597.9594,22.5 597.7094,22.3281 Q597.4594,22.1563 597.35,21.7031 Q597.3031,21.3906 597.1313,21.2188 Q596.8188,20.8906 596.2563,20.7031 Q595.6938,20.5 595.1313,20.5 Q594.4281,20.5 593.8344,20.7813 Q593.2563,21.0625 592.8031,21.6875 Q592.35,22.3125 592.35,23.1719 L592.35,24.0938 Q592.35,25.125 593.1938,25.8125 Q594.0375,26.5 595.5375,26.5 Q596.4281,26.5 597.0531,26.2969 Q597.4125,26.1875 597.8188,25.8281 Q598.0844,25.625 598.225,25.5625 Q598.3656,25.5 598.5375,25.5 Q598.8656,25.5 599.1,25.7656 Q599.35,26.0156 599.35,26.375 Q599.35,26.7188 599.0063,27.125 Q598.5063,27.7188 597.7094,28.0469 Q596.6625,28.5 595.3813,28.5 Q593.8813,28.5 592.6781,27.9063 Q591.7094,27.4375 591.0219,26.4219 Q590.35,25.4063 590.35,24.2031 L590.35,23.1094 Q590.35,21.8594 590.9438,20.7656 Q591.5531,19.6719 592.6,19.0938 Q593.6625,18.5 594.85,18.5 Q595.5688,18.5 596.1938,18.75 Q596.8188,19 597.35,19.5 Z " fill="#000000"/><text fill="#000000" font-family="sans-serif" font-size="12" lengthAdjust="spacingAndGlyphs" textLength="77" x="614.65" y="27.9102">AplicacaoPOT</text><line style="stroke:#A80036;stroke-width:1.5;" x1="557.5" x2="717.5" y1="39" y2="39"/><line style="stroke:#A80036;stroke-width:1.5;" x1="557.5" x2="717.5" y1="47" y2="47"/><text fill="#000000" font-family="sans-serif" font-size="11" lengthAdjust="spacingAndGlyphs" textLength="70" x="562.5" y="62.4189">+getInstance()</text><text fill="#000000" font-family="sans-serif" font-size="11" lengthAdjust="spacingAndGlyphs" textLength="150" x="562.5" y="76.2549">+getMapaTerrestreDistancias()</text><!--MD5=[d703aab580f67225500cb57f8b850b8c]
class MoradaBD--><rect codeLine="14" fill="#FEFECE" filter="url(#fujf4vfyjdxk0)" height="61.8359" id="MoradaBD" style="stroke:#A80036;stroke-width:1.5;" width="262" x="506.5" y="118"/><ellipse cx="604.25" cy="134" fill="#ADD1B2" rx="11" ry="11" style="stroke:#A80036;stroke-width:1.0;"/><path d="M606.25,130.5 Q606.4531,130 606.6875,129.75 Q606.9219,129.5 607.1875,129.5 Q607.6563,129.5 607.9531,129.7813 Q608.25,130.0625 608.25,130.7188 L608.25,132.2813 Q608.25,132.9375 607.9688,133.2188 Q607.6875,133.5 607.25,133.5 Q606.8594,133.5 606.6094,133.3281 Q606.3594,133.1563 606.25,132.7031 Q606.2031,132.3906 606.0313,132.2188 Q605.7188,131.8906 605.1563,131.7031 Q604.5938,131.5 604.0313,131.5 Q603.3281,131.5 602.7344,131.7813 Q602.1563,132.0625 601.7031,132.6875 Q601.25,133.3125 601.25,134.1719 L601.25,135.0938 Q601.25,136.125 602.0938,136.8125 Q602.9375,137.5 604.4375,137.5 Q605.3281,137.5 605.9531,137.2969 Q606.3125,137.1875 606.7188,136.8281 Q606.9844,136.625 607.125,136.5625 Q607.2656,136.5 607.4375,136.5 Q607.7656,136.5 608,136.7656 Q608.25,137.0156 608.25,137.375 Q608.25,137.7188 607.9063,138.125 Q607.4063,138.7188 606.6094,139.0469 Q605.5625,139.5 604.2813,139.5 Q602.7813,139.5 601.5781,138.9063 Q600.6094,138.4375 599.9219,137.4219 Q599.25,136.4063 599.25,135.2031 L599.25,134.1094 Q599.25,132.8594 599.8438,131.7656 Q600.4531,130.6719 601.5,130.0938 Q602.5625,129.5 603.75,129.5 Q604.4688,129.5 605.0938,129.75 Q605.7188,130 606.25,130.5 Z " fill="#000000"/><text fill="#000000" font-family="sans-serif" font-size="12" lengthAdjust="spacingAndGlyphs" textLength="58" x="624.75" y="138.9102">MoradaBD</text><line style="stroke:#A80036;stroke-width:1.5;" x1="507.5" x2="767.5" y1="150" y2="150"/><line style="stroke:#A80036;stroke-width:1.5;" x1="507.5" x2="767.5" y1="158" y2="158"/><text fill="#000000" font-family="sans-serif" font-size="11" lengthAdjust="spacingAndGlyphs" textLength="250" x="512.5" y="173.4189">+HashMap&lt;Integer, Morada&gt; getMoradasFarmacia()</text><!--MD5=[a84bd072b68d9b7b1d264a150fd20f17]
class ProdutoBD--><rect codeLine="18" fill="#FEFECE" filter="url(#fujf4vfyjdxk0)" height="61.8359" id="ProdutoBD" style="stroke:#A80036;stroke-width:1.5;" width="350" x="462.5" y="215"/><ellipse cx="603.25" cy="231" fill="#ADD1B2" rx="11" ry="11" style="stroke:#A80036;stroke-width:1.0;"/><path d="M605.25,227.5 Q605.4531,227 605.6875,226.75 Q605.9219,226.5 606.1875,226.5 Q606.6563,226.5 606.9531,226.7813 Q607.25,227.0625 607.25,227.7188 L607.25,229.2813 Q607.25,229.9375 606.9688,230.2188 Q606.6875,230.5 606.25,230.5 Q605.8594,230.5 605.6094,230.3281 Q605.3594,230.1563 605.25,229.7031 Q605.2031,229.3906 605.0313,229.2188 Q604.7188,228.8906 604.1563,228.7031 Q603.5938,228.5 603.0313,228.5 Q602.3281,228.5 601.7344,228.7813 Q601.1563,229.0625 600.7031,229.6875 Q600.25,230.3125 600.25,231.1719 L600.25,232.0938 Q600.25,233.125 601.0938,233.8125 Q601.9375,234.5 603.4375,234.5 Q604.3281,234.5 604.9531,234.2969 Q605.3125,234.1875 605.7188,233.8281 Q605.9844,233.625 606.125,233.5625 Q606.2656,233.5 606.4375,233.5 Q606.7656,233.5 607,233.7656 Q607.25,234.0156 607.25,234.375 Q607.25,234.7188 606.9063,235.125 Q606.4063,235.7188 605.6094,236.0469 Q604.5625,236.5 603.2813,236.5 Q601.7813,236.5 600.5781,235.9063 Q599.6094,235.4375 598.9219,234.4219 Q598.25,233.4063 598.25,232.2031 L598.25,231.1094 Q598.25,229.8594 598.8438,228.7656 Q599.4531,227.6719 600.5,227.0938 Q601.5625,226.5 602.75,226.5 Q603.4688,226.5 604.0938,226.75 Q604.7188,227 605.25,227.5 Z " fill="#000000"/><text fill="#000000" font-family="sans-serif" font-size="12" lengthAdjust="spacingAndGlyphs" textLength="60" x="623.75" y="235.9102">ProdutoBD</text><line style="stroke:#A80036;stroke-width:1.5;" x1="463.5" x2="811.5" y1="247" y2="247"/><line style="stroke:#A80036;stroke-width:1.5;" x1="463.5" x2="811.5" y1="255" y2="255"/><text fill="#000000" font-family="sans-serif" font-size="11" lengthAdjust="spacingAndGlyphs" textLength="338" x="468.5" y="270.4189">+verificaStock(idFarmaciaEmissora, idProduto, quantidadeNecessaria)</text><!--MD5=[164f2f013fe6976813de586c88f45ee6]
class NotaBD--><rect codeLine="22" fill="#FEFECE" filter="url(#fujf4vfyjdxk0)" height="61.8359" id="NotaBD" style="stroke:#A80036;stroke-width:1.5;" width="443" x="416" y="312"/><ellipse cx="611.75" cy="328" fill="#ADD1B2" rx="11" ry="11" style="stroke:#A80036;stroke-width:1.0;"/><path d="M613.75,324.5 Q613.9531,324 614.1875,323.75 Q614.4219,323.5 614.6875,323.5 Q615.1563,323.5 615.4531,323.7813 Q615.75,324.0625 615.75,324.7188 L615.75,326.2813 Q615.75,326.9375 615.4688,327.2188 Q615.1875,327.5 614.75,327.5 Q614.3594,327.5 614.1094,327.3281 Q613.8594,327.1563 613.75,326.7031 Q613.7031,326.3906 613.5313,326.2188 Q613.2188,325.8906 612.6563,325.7031 Q612.0938,325.5 611.5313,325.5 Q610.8281,325.5 610.2344,325.7813 Q609.6563,326.0625 609.2031,326.6875 Q608.75,327.3125 608.75,328.1719 L608.75,329.0938 Q608.75,330.125 609.5938,330.8125 Q610.4375,331.5 611.9375,331.5 Q612.8281,331.5 613.4531,331.2969 Q613.8125,331.1875 614.2188,330.8281 Q614.4844,330.625 614.625,330.5625 Q614.7656,330.5 614.9375,330.5 Q615.2656,330.5 615.5,330.7656 Q615.75,331.0156 615.75,331.375 Q615.75,331.7188 615.4063,332.125 Q614.9063,332.7188 614.1094,333.0469 Q613.0625,333.5 611.7813,333.5 Q610.2813,333.5 609.0781,332.9063 Q608.1094,332.4375 607.4219,331.4219 Q606.75,330.4063 606.75,329.2031 L606.75,328.1094 Q606.75,326.8594 607.3438,325.7656 Q607.9531,324.6719 609,324.0938 Q610.0625,323.5 611.25,323.5 Q611.9688,323.5 612.5938,323.75 Q613.2188,324 613.75,324.5 Z " fill="#000000"/><text fill="#000000" font-family="sans-serif" font-size="12" lengthAdjust="spacingAndGlyphs" textLength="43" x="632.25" y="332.9102">NotaBD</text><line style="stroke:#A80036;stroke-width:1.5;" x1="417" x2="858" y1="344" y2="344"/><line style="stroke:#A80036;stroke-width:1.5;" x1="417" x2="858" y1="352" y2="352"/><text fill="#000000" font-family="sans-serif" font-size="11" lengthAdjust="spacingAndGlyphs" textLength="431" x="422" y="367.4189">+gerarNotas(idFarmaciaRecetora, idFarmaciaEmissora, idProduto, quantidadeNecessaria)</text><!--MD5=[9c5439856a1aad23e042de9a355b14cb]
class BaseDados--><rect codeLine="26" fill="#FEFECE" filter="url(#fujf4vfyjdxk0)" height="75.6719" id="BaseDados" style="stroke:#A80036;stroke-width:1.5;" width="152" x="919" y="208"/><ellipse cx="958.3" cy="224" fill="#ADD1B2" rx="11" ry="11" style="stroke:#A80036;stroke-width:1.0;"/><path d="M960.3,220.5 Q960.5031,220 960.7375,219.75 Q960.9719,219.5 961.2375,219.5 Q961.7063,219.5 962.0031,219.7813 Q962.3,220.0625 962.3,220.7188 L962.3,222.2813 Q962.3,222.9375 962.0188,223.2188 Q961.7375,223.5 961.3,223.5 Q960.9094,223.5 960.6594,223.3281 Q960.4094,223.1563 960.3,222.7031 Q960.2531,222.3906 960.0813,222.2188 Q959.7688,221.8906 959.2063,221.7031 Q958.6438,221.5 958.0813,221.5 Q957.3781,221.5 956.7844,221.7813 Q956.2063,222.0625 955.7531,222.6875 Q955.3,223.3125 955.3,224.1719 L955.3,225.0938 Q955.3,226.125 956.1438,226.8125 Q956.9875,227.5 958.4875,227.5 Q959.3781,227.5 960.0031,227.2969 Q960.3625,227.1875 960.7688,226.8281 Q961.0344,226.625 961.175,226.5625 Q961.3156,226.5 961.4875,226.5 Q961.8156,226.5 962.05,226.7656 Q962.3,227.0156 962.3,227.375 Q962.3,227.7188 961.9563,228.125 Q961.4563,228.7188 960.6594,229.0469 Q959.6125,229.5 958.3313,229.5 Q956.8313,229.5 955.6281,228.9063 Q954.6594,228.4375 953.9719,227.4219 Q953.3,226.4063 953.3,225.2031 L953.3,224.1094 Q953.3,222.8594 953.8938,221.7656 Q954.5031,220.6719 955.55,220.0938 Q956.6125,219.5 957.8,219.5 Q958.5188,219.5 959.1438,219.75 Q959.7688,220 960.3,220.5 Z " fill="#000000"/><text fill="#000000" font-family="sans-serif" font-size="12" lengthAdjust="spacingAndGlyphs" textLength="66" x="977.7" y="228.9102">BaseDados</text><line style="stroke:#A80036;stroke-width:1.5;" x1="920" x2="1070" y1="240" y2="240"/><line style="stroke:#A80036;stroke-width:1.5;" x1="920" x2="1070" y1="248" y2="248"/><text fill="#000000" font-family="sans-serif" font-size="11" lengthAdjust="spacingAndGlyphs" textLength="140" x="925" y="263.4189">+Connection getConnection()</text><text fill="#000000" font-family="sans-serif" font-size="11" lengthAdjust="spacingAndGlyphs" textLength="94" x="925" y="277.2549">+closeConnection()</text><!--MD5=[4725883143e17e75ce026c91e6b27729]
class GraphAlgorithms--><rect codeLine="31" fill="#FEFECE" filter="url(#fujf4vfyjdxk0)" height="61.8359" id="GraphAlgorithms" style="stroke:#A80036;stroke-width:1.5;" width="284" x="495.5" y="409"/><ellipse cx="586.75" cy="425" fill="#ADD1B2" rx="11" ry="11" style="stroke:#A80036;stroke-width:1.0;"/><path d="M588.75,421.5 Q588.9531,421 589.1875,420.75 Q589.4219,420.5 589.6875,420.5 Q590.1563,420.5 590.4531,420.7813 Q590.75,421.0625 590.75,421.7188 L590.75,423.2813 Q590.75,423.9375 590.4688,424.2188 Q590.1875,424.5 589.75,424.5 Q589.3594,424.5 589.1094,424.3281 Q588.8594,424.1563 588.75,423.7031 Q588.7031,423.3906 588.5313,423.2188 Q588.2188,422.8906 587.6563,422.7031 Q587.0938,422.5 586.5313,422.5 Q585.8281,422.5 585.2344,422.7813 Q584.6563,423.0625 584.2031,423.6875 Q583.75,424.3125 583.75,425.1719 L583.75,426.0938 Q583.75,427.125 584.5938,427.8125 Q585.4375,428.5 586.9375,428.5 Q587.8281,428.5 588.4531,428.2969 Q588.8125,428.1875 589.2188,427.8281 Q589.4844,427.625 589.625,427.5625 Q589.7656,427.5 589.9375,427.5 Q590.2656,427.5 590.5,427.7656 Q590.75,428.0156 590.75,428.375 Q590.75,428.7188 590.4063,429.125 Q589.9063,429.7188 589.1094,430.0469 Q588.0625,430.5 586.7813,430.5 Q585.2813,430.5 584.0781,429.9063 Q583.1094,429.4375 582.4219,428.4219 Q581.75,427.4063 581.75,426.2031 L581.75,425.1094 Q581.75,423.8594 582.3438,422.7656 Q582.9531,421.6719 584,421.0938 Q585.0625,420.5 586.25,420.5 Q586.9688,420.5 587.5938,420.75 Q588.2188,421 588.75,421.5 Z " fill="#000000"/><text fill="#000000" font-family="sans-serif" font-size="12" lengthAdjust="spacingAndGlyphs" textLength="93" x="607.25" y="429.9102">GraphAlgorithms</text><line style="stroke:#A80036;stroke-width:1.5;" x1="496.5" x2="778.5" y1="441" y2="441"/><line style="stroke:#A80036;stroke-width:1.5;" x1="496.5" x2="778.5" y1="449" y2="449"/><text fill="#000000" font-family="sans-serif" font-size="11" lengthAdjust="spacingAndGlyphs" textLength="272" x="501.5" y="464.4189">+double shortestPath(grafo, Morada, Morada, shortPath)</text><!--MD5=[14eb351de75721ba016bfd276faff275]
link PedirProdutoTask to AplicacaoPOT--><path codeLine="35" d="M223.33,214.86 C268.3,181.95 343.83,130.65 416,100 C459.1,81.7 509.62,68.54 551.43,59.7 " fill="none" id="PedirProdutoTask-to-AplicacaoPOT" style="stroke:#A80036;stroke-width:1.0;stroke-dasharray:7.0,7.0;"/><polygon fill="#A80036" points="556.48,58.64,546.8502,56.5742,551.5866,59.6672,548.4937,64.4036,556.48,58.64" style="stroke:#A80036;stroke-width:1.0;"/><!--MD5=[a71001622732dcca111581709f94a167]
link PedirProdutoTask to MoradaBD--><path codeLine="36" d="M327.71,214.98 C383.36,203.08 446.59,189.58 501.27,177.89 " fill="none" id="PedirProdutoTask-to-MoradaBD" style="stroke:#A80036;stroke-width:1.0;stroke-dasharray:7.0,7.0;"/><polygon fill="#A80036" points="506.2,176.84,496.5645,174.8011,501.3095,177.8808,498.2298,182.6259,506.2,176.84" style="stroke:#A80036;stroke-width:1.0;"/><!--MD5=[78372b90ced2c57e7ef923c599353c2d]
link PedirProdutoTask to ProdutoBD--><path codeLine="37" d="M356.08,246 C389.11,246 423.74,246 456.95,246 " fill="none" id="PedirProdutoTask-to-ProdutoBD" style="stroke:#A80036;stroke-width:1.0;stroke-dasharray:7.0,7.0;"/><polygon fill="#A80036" points="462.26,246,453.26,242,457.26,246,453.26,250,462.26,246" style="stroke:#A80036;stroke-width:1.0;"/><!--MD5=[42439d7958de8b06325c04d5f6d2f888]
link PedirProdutoTask to NotaBD--><path codeLine="38" d="M327.71,277.02 C378.35,287.84 435.26,300 486.3,310.91 " fill="none" id="PedirProdutoTask-to-NotaBD" style="stroke:#A80036;stroke-width:1.0;stroke-dasharray:7.0,7.0;"/><polygon fill="#A80036" points="491.22,311.96,483.2498,306.1741,486.3295,310.9192,481.5845,313.9989,491.22,311.96" style="stroke:#A80036;stroke-width:1.0;"/><!--MD5=[189a53570c7ea4f724a3c45d41bf7517]
link PedirProdutoTask to GraphAlgorithms--><path codeLine="39" d="M223.22,277.27 C268.09,310.25 343.53,361.45 416,391 C439.4,400.54 465,408.39 490.2,414.78 " fill="none" id="PedirProdutoTask-to-GraphAlgorithms" style="stroke:#A80036;stroke-width:1.0;stroke-dasharray:7.0,7.0;"/><polygon fill="#A80036" points="495.24,416.04,487.4789,409.9766,490.3893,414.8273,485.5386,417.7377,495.24,416.04" style="stroke:#A80036;stroke-width:1.0;"/><!--MD5=[dd5557e0584c7ae80926c94375161989]
link MoradaBD to BaseDados--><path codeLine="41" d="M768.65,174.3 C798.52,180.95 830.02,188.63 859,197 C876.95,202.19 895.97,208.54 913.88,214.92 " fill="none" id="MoradaBD-to-BaseDados" style="stroke:#A80036;stroke-width:1.0;stroke-dasharray:7.0,7.0;"/><polygon fill="#A80036" points="918.9,216.73,911.7723,209.9333,914.1919,215.0465,909.0787,217.4662,918.9,216.73" style="stroke:#A80036;stroke-width:1.0;"/><!--MD5=[13ad64eb49d11895b15dedd182a09dd2]
link ProdutoBD to BaseDados--><path codeLine="42" d="M812.6,246 C847.86,246 883.31,246 913.4,246 " fill="none" id="ProdutoBD-to-BaseDados" style="stroke:#A80036;stroke-width:1.0;stroke-dasharray:7.0,7.0;"/><polygon fill="#A80036" points="918.56,246,909.56,242,913.56,246,909.56,250,918.56,246" style="stroke:#A80036;stroke-width:1.0;"/><!--MD5=[5dc30bb0210efd098c769d0a988653a4]
link NotaBD to BaseDados--><path codeLine="43" d="M789.76,311.97 C813.07,306.45 836.77,300.4 859,294 C876.92,288.84 895.92,282.59 913.83,276.33 " fill="none" id="NotaBD-to-BaseDados" style="stroke:#A80036;stroke-width:1.0;stroke-dasharray:7.0,7.0;"/><polygon fill="#A80036" points="918.85,274.56,909.0328,273.771,914.1329,276.2181,911.6858,281.3183,918.85,274.56" style="stroke:#A80036;stroke-width:1.0;"/><!--MD5=[c69fbd857137bf9c3746127de7c1f062]
@startuml

skinparam classAttributeIconSize 0
left to right direction

class PedirProdutoTask{
    +pedirProduto(idFarmaciaRecetora, produtoID, quantidadeNecessaria)
}

class AplicacaoPOT{
    +getInstance()
    +getMapaTerrestreDistancias()
}

class MoradaBD{
    +HashMap<Integer, Morada> getMoradasFarmacia()
}

class ProdutoBD{
    +verificaStock(idFarmaciaEmissora, idProduto, quantidadeNecessaria)
}

class NotaBD{
    +gerarNotas(idFarmaciaRecetora, idFarmaciaEmissora, idProduto, quantidadeNecessaria)
}

class BaseDados{
    +Connection getConnection()
    +closeConnection()
}

class GraphAlgorithms{
    +double shortestPath(grafo, Morada, Morada, shortPath)
}

PedirProdutoTask ..> AplicacaoPOT
PedirProdutoTask ..> MoradaBD
PedirProdutoTask ..> ProdutoBD
PedirProdutoTask ..> NotaBD
PedirProdutoTask ..> GraphAlgorithms

MoradaBD ..> BaseDados
ProdutoBD ..> BaseDados
NotaBD ..> BaseDados

@enduml

PlantUML version 1.2020.23(Sun Dec 13 19:14:58 GMT 2020)
(GPL source distribution)
Java Runtime: OpenJDK Runtime Environment
JVM: OpenJDK 64-Bit Server VM
Default Encoding: Cp1252
Language: pt
Country: PT
--></g></svg>